<svg width="60" height="60" viewBox="0 0 60 60" fill="none" xmlns="http://www.w3.org/2000/svg">
<circle cx="30" cy="30" r="30" fill="#A0725B"/>
<path d="M25.3162 22.2401V37.76H24.8758L16.0871 27.3645L16.0904 37.76H14V22.2567H14.5916L23.2258 32.7356V22.2401H25.3162Z" fill="white"/>
<path d="M33.3489 23.0402C32.6719 22.3501 31.8173 22 30.7886 22C29.7598 22 28.9086 22.3501 28.2282 23.0402C27.5446 23.737 27.2028 24.5972 27.2028 25.6174C27.2028 26.6376 27.5446 27.4978 28.2282 28.1913C28.9086 28.8881 29.7631 29.2348 30.7886 29.2348C31.814 29.2348 32.6719 28.8848 33.3489 28.1913C34.026 27.4945 34.3678 26.6376 34.3678 25.6174C34.3678 24.5972 34.026 23.737 33.3489 23.0402ZM32.1098 27.0077C31.7647 27.3611 31.3243 27.5378 30.7886 27.5378C30.2528 27.5378 29.8157 27.3611 29.4673 27.0077C29.1189 26.6576 28.9414 26.1942 28.9414 25.6174C28.9414 25.0406 29.1156 24.5805 29.4673 24.2305C29.8157 23.8771 30.2561 23.7004 30.7886 23.7004C31.321 23.7004 31.7647 23.8771 32.1098 24.2305C32.4549 24.5839 32.6291 25.0473 32.6291 25.6174C32.6291 26.1875 32.4549 26.6543 32.1098 27.0077Z" fill="white"/>
<path d="M37.224 31.0919C36.238 30.0383 35.745 28.7947 35.745 27.3611C35.745 25.9275 36.261 24.6706 37.2963 23.627C38.3283 22.5835 39.5839 22.06 41.0563 22.06C42.5288 22.06 43.7843 22.5835 44.8163 23.6303C45.8516 24.6772 46.3677 25.9208 46.3677 27.3611C46.3677 27.9512 46.2691 28.5414 46.0718 29.1315C45.8746 29.7216 45.6774 30.165 45.4737 30.4584L45.1943 30.9019L40.9511 37.7566H38.6077L41.9076 32.4455C41.5559 32.5989 41.1286 32.6722 40.6323 32.6722C39.3472 32.6722 38.21 32.1454 37.224 31.0919ZM38.7951 29.6283C39.4097 30.2551 40.1623 30.5685 41.0563 30.5685C41.9503 30.5685 42.703 30.2551 43.3176 29.6283C43.9322 29.0015 44.2411 28.248 44.2411 27.3678C44.2411 26.4876 43.9322 25.7308 43.3176 25.1006C42.703 24.4705 41.947 24.1571 41.0563 24.1571C40.1656 24.1571 39.4097 24.4705 38.7951 25.1006C38.1804 25.7308 37.8715 26.4876 37.8715 27.3678C37.8715 28.248 38.1804 29.0048 38.7951 29.6283Z" fill="white"/>
<path d="M32.1164 36.8864C32.1164 37.5032 31.6234 38 31.0187 38C30.4139 38 29.9209 37.4999 29.9209 36.8864C29.9209 36.273 30.4139 35.7729 31.0187 35.7729C31.6234 35.7729 32.1164 36.273 32.1164 36.8864Z" fill="white"/>
</svg>
