<svg width="1440" height="960" viewBox="0 0 1440 960" fill="none" xmlns="http://www.w3.org/2000/svg" xmlns:xlink="http://www.w3.org/1999/xlink">
    <rect data-anchor="label-kremlin" x="1199" y="739" width="1" height="1" />
    <rect data-anchor="label-moscow-city" x="749" y="770" width="1" height="1" />
    <rect data-anchor="label-government-house" x="944" y="695" width="1" height="1" />
    <rect data-anchor="label-pine-forest" x="114" y="429" width="1" height="1" />
    <rect data-anchor="label-fili-park" x="450" y="771" width="1" height="1" />

    <rect data-anchor="park-1" x="622" y="327" width="1" height="1" />
    <rect data-anchor="park-2" x="709" y="365" width="1" height="1" />
    <rect data-anchor="park-3" x="185" y="436" width="1" height="1" />
    <rect data-anchor="park-4" x="401" y="795" width="1" height="1" />
    <rect data-anchor="park-5" x="815" y="277" width="1" height="1" />
    <rect data-anchor="park-6" x="607" y="219" width="1" height="1" />
    <rect data-anchor="park-7" x="578" y="271" width="1" height="1" />

    <rect data-anchor="purchase-1" x="676" y="457" width="1" height="1" />
    <rect data-anchor="purchase-2" x="718" y="329" width="1" height="1" />
    <rect data-anchor="purchase-3" x="765" y="722" width="1" height="1" />
    <rect data-anchor="purchase-4" x="1214" y="628" width="1" height="1" />
    <rect data-anchor="purchase-5" x="925" y="786" width="1" height="1" />

    <rect data-anchor="restaurant-1" x="671" y="445" width="1" height="1" />
    <rect data-anchor="restaurant-2" x="695" y="482" width="1" height="1" />
    <rect data-anchor="restaurant-3" x="622" y="414" width="1" height="1" />
    <rect data-anchor="restaurant-4" x="715" y="442" width="1" height="1" />
    <rect data-anchor="restaurant-5" x="754" y="353" width="1" height="1" />
    <rect data-anchor="restaurant-6" x="764" y="291" width="1" height="1" />
    <rect data-anchor="restaurant-7" x="728" y="317" width="1" height="1" />
    <rect data-anchor="restaurant-8" x="684" y="317" width="1" height="1" />
    <rect data-anchor="restaurant-9" x="899" y="312" width="1" height="1" />
    <rect data-anchor="restaurant-10" x="709" y="358" width="1" height="1" />

    <rect data-anchor="leisure-1" x="675" y="457" width="1" height="1" />
    <rect data-anchor="leisure-2" x="911" y="421" width="1" height="1" />
    <rect data-anchor="leisure-3" x="678" y="317" width="1" height="1" />
    <rect data-anchor="leisure-4" x="635" y="302" width="1" height="1" />
    <rect data-anchor="leisure-5" x="845" y="307" width="1" height="1" />
    <rect data-anchor="leisure-6" x="461" y="359" width="1" height="1" />
    <rect data-anchor="leisure-7" x="1149" y="262" width="1" height="1" />
    <rect data-anchor="leisure-8" x="752" y="359" width="1" height="1" />
    <rect data-anchor="leisure-9" x="980" y="603" width="1" height="1" />

    <rect data-anchor="education-1" x="637" y="404" width="1" height="1" />
    <rect data-anchor="education-2" x="586" y="277" width="1" height="1" />
    <rect data-anchor="education-3" x="432" y="528" width="1" height="1" />
    <rect data-anchor="education-4" x="702" y="465" width="1" height="1" />
    <rect data-anchor="education-5" x="716" y="389" width="1" height="1" />
    <rect data-anchor="education-6" x="580" y="321" width="1" height="1" />
    <rect data-anchor="education-7" x="770" y="234" width="1" height="1" />
    <rect data-anchor="education-8" x="656" y="307" width="1" height="1" />
    <rect data-anchor="education-9" x="420" y="457" width="1" height="1" />
    <rect data-anchor="education-10" x="365" y="452" width="1" height="1" />

    <rect data-anchor="sport-1" x="524" y="375" width="1" height="1" />
    <rect data-anchor="sport-2" x="767" y="321" width="1" height="1" />
    <rect data-anchor="sport-3" x="675" y="256" width="1" height="1" />
    <rect data-anchor="sport-4" x="730" y="291" width="1" height="1" />
    <rect data-anchor="sport-5" x="890" y="421" width="1" height="1" />
    <rect data-anchor="sport-6" x="722" y="484" width="1" height="1" />
    <rect data-anchor="sport-7" x="682" y="465" width="1" height="1" />
    <rect data-anchor="sport-8" x="305" y="539" width="1" height="1" />

    <rect data-anchor="label-metro-1" x="637" y="459" width="1" height="1" />
    <rect data-anchor="label-metro-2" x="567" y="467" width="1" height="1" />
    <rect data-anchor="label-metro-3" x="543" y="328" width="1" height="1" />
    <rect data-anchor="label-metro-4" x="488" y="302" width="1" height="1" />
    <rect data-anchor="label-metro-5" x="525" y="252" width="1" height="1" />

    <rect data-anchor="label-house" x="583" y="374" width="1" height="1" />
</svg>
