<svg xmlns="http://www.w3.org/2000/svg" viewBox="0 0 1007.347 309.142"><g id="SELECTION"><path fill="none" d="M513.62 186.232h100.742v114.104H513.62z"></path><path fill="none" d="M617.219 186.232h101.754v113.386H617.22z"></path><path fill="none" d="M775.602 197.007v-11.061h-52.41v113.672h101.169V197.007h-48.759z"></path><path fill="none" d="M929.728 182.224v-.177h-69.599v4.069h-15.088v-2.174h-17.333v115.676h173.2V182.224h-71.18z"></path><path fill="none" d="M820.722 38.199v111.952h41.19v28.544h67.816v-.337h71.18v-28.207h.291V38.199H820.722z"></path><path fill="none" d="M818.811 38.054H663.533v112.558h31.299v-.727h.139v.123h69.279v.595h54.561V38.054z"></path><path fill="none" d="M628.944 149.865v.228h31.241V38.054h-153.55v112.338h53.441v-.527h68.868z"></path><path fill="none" d="M450.08 119.514v.116h53.206V5.983H349.008v113.452h32.203v.079h68.869z"></path><path fill="none" d="M314.289 119.514v.116h31.225V5.983H191.673v104.972h53.747v8.559h68.869z"></path><path fill="none" d="M5.666 5.983v140.303h65.203v-.144h70.042v-26.809h47.269V5.983H5.666z"></path><path fill="none" d="M149.053 153.084v-3.505H5.52v118.687h172.326V153.084h-28.793z"></path><path fill="none" d="M181.339 153.301H284.53v114.681H181.34z"></path><path fill="none" d="M288.14 154.65h102.984v113.551H288.14z"></path></g></svg>