<svg xmlns="http://www.w3.org/2000/svg" viewBox="0 0 1007.58 309.046"><g id="SELECTION"><path fill="none" d="M513.867 186.083h100.742v114.104H513.867z"></path><path fill="none" d="M617.466 186.083h101.755V299.47H617.466z"></path><path fill="none" d="M775.849 196.857v-11.06h-52.41v113.672h101.169V196.857h-48.759z"></path><path fill="none" d="M929.975 182.075v-.178h-69.599v4.07h-15.087v-3.174h-17.333v116.676h173.199V182.075h-71.18z"></path><path fill="none" d="M820.97 38.05v112.952h41.189v27.544h67.816v-.337h71.18v-28.207h.291V38.05H820.97z"></path><path fill="none" d="M819.059 37.904H663.78v112.559h31.299v-.727h.139v.123h69.279v.595h54.562V37.904z"></path><path fill="none" d="M629.191 149.716v.228h31.241V37.904h-153.55v112.339h53.441v-.527h68.868z"></path><path fill="none" d="M450.327 119.365v.116h53.207V5.834H349.255v113.452h32.203v.079h68.869z"></path><path fill="none" d="M314.536 119.365v.116h31.226V5.834H191.92v104.972h53.748v8.559h68.868z"></path><path fill="none" d="M5.913 5.834v140.303h65.204v-.145h70.041v-26.808h47.269V5.834H5.913z"></path><path fill="none" d="M149.3 152.934v-3.505H5.767v118.688h172.326V152.934H149.3z"></path><path fill="none" d="M181.586 153.152h103.192v114.68H181.586z"></path><path fill="none" d="M288.37 154.582h103.242v113.55H288.37z"></path></g></svg>