<svg xmlns="http://www.w3.org/2000/svg" viewBox="0 0 1119.626 742.693"><g id="SELECTION"><path d="m566.23 216.262 8.995.041-.23-8.634 109.098-.135 1.74-14.827 13.968-1.264 3.224 16.226 41.294-.016.056 141.145-178.029-.242-.116-132.294Z" fill="none" stroke-width="0"></path><path d="M739.694 207.67c31.462-.113 62.925-.224 94.387-.336l.191-14.397 14.532-.634 4.568 14.963 63.69-.226-.009 142.6-177.267-.865-.092-141.106Z" fill="none" stroke-width="0"></path><path d="m1019.663 352.43-107.681-3.106-.026-141.655h37.696V177.69H934.25l-3.074 16.312-12.656.582-2.91-16.803-11.201-.146-.257-140.658 215.474-1.076-.045 314.733-99.917 1.796-.45 74.262 99.074 1.809.776 314.192-287.337-1.71.364-103.356 121.774.163.147-106.55-121.678.664L832 430.57l187.213-3.878.451-74.262Z" fill="none" stroke-width="0"></path><path d="m851.822 178.528-14.256-.893-5.068 15.148-8.554.845-6.756-15.332-86.01-.575.214-140.568 178.013-.182-.322 126.855-57.14.142-.121 14.56Z" fill="none" stroke-width="0"></path><path d="M736.277 177.635h-93.964l-6.324 15.18-6.952 1.052-8.55-16.2-61.488-.032-.01-138.81 177.334-.839-.046 139.649Z" fill="none" stroke-width="0"></path><path d="m563.722 143.496-66.36.023-.95 13.944-10.002 2.993-8.906-16.864-91.937.044-.195-140.95 178.569-.13-.22 140.94Z" fill="none" stroke-width="0"></path><path d="m390.61 0-.3 143.848-92.908-.352-.694 15.655-10.5 1.752-9.002-15.437-5.044.073.122-12.953h-59.34L213.428.01 390.61 0Z" fill="none" stroke-width="0"></path><path d="m18 392.739 266.028 2.568.519 104.144-146.258-.977.008 102.034 145.988.493-.398 104.178-283.3 2.908.504-313.124 16.902-2.224v-76.012L0 316.467.31.747l218.424.946-.633 142.013-12.896-.043-4.46 14.532-12.737 2.23-4.092-16.93-17.122.04-.267 24.655h6.938v4.278l33.305-.059-.238 143.225L18 316.727v76.012Z" fill="none" stroke-width="0"></path><path d="m201.52 172.468 62.766-.701 1.115-15.162 15.273-.892 2.822 16.755h157.38l-.238 140.746-239.387.91.27-141.656Z" fill="none" stroke-width="0"></path></g></svg>