<svg xmlns="http://www.w3.org/2000/svg" viewBox="0 0 1463.614 485.723"><g id="SELECTION"><path fill="none" d="M745.65 289.232v165.21h-4.068v5.695H665.18v23.308h222.144V289.232H745.65z"></path><path fill="none" d="M889.302 289.232h144.7v194.213h-144.7z"></path><path fill="none" d="M1110.862 304.236v-15.403h-74.985v194.612h144.885V304.236h-69.9z"></path><path fill="none" d="M1325.493 282.65v.753h-96.922v5.667h-21.01v-4.42h-24.138v199.934h277.913V282.65h-135.843z"></path><path fill="none" d="M1173.695 45.642v193.344h57.359v39.75h94.439v-.469h99.123v3.292h36.72V45.642h-287.641z"></path><path fill="none" d="M1172.034 45.642H954.798v192.594h43.586v.38h.193v.171h96.477v.829h76.98V45.642z"></path><path fill="none" d="m769.389 46.781-27.807 9.423h-5.276v183.118h74.42v-.734h95.905v.317h45.504l.086-192.124H769.389z"></path><path fill="none" d="M731.413 196.484V59.459l37.932-15.526V2.278H514.8v193.935h46.845v.109h95.905v.162h73.863z"></path><path fill="none" d="M468.452 196.322v.162h44.483V2.278H295.7v182.125h76.847v11.919h95.905z"></path><path fill="none" d="M2.009 2.278v232.326h127.464v-1.201h97.537V196.07h65.826V2.278H2.009z"></path><path fill="none" d="M238.349 243.07v-4.881H129.567v-1H2.278v203.105h277.168V243.07h-41.097z"></path><path fill="none" d="M281.31 243.373h146.702v196.423H281.309z"></path><path fill="none" d="M576.429 459.95V245.199H430.671v195.005H541.04v43.241h124.14V459.95h-88.751z"></path></g></svg>