<svg xmlns="http://www.w3.org/2000/svg" viewBox="0 0 1118.029 347.61"><g id="SELECTION"><path d="M566.478 206.108c37.58.01 75.158.022 112.737.033l3.606-16.76h15.729l3.954 16.344 40.509.263.416 140.76-177.048.862.097-141.502Z" fill="none"></path><path d="m739.01 206.108 94.279-.128 7.441-16.89c4.11 1.07 8.22 2.138 12.329 3.206l2.71 13.684h59.517l.575 140.472-177.033.244.181-140.588Z" fill="none"></path><path d="M911.9 206.077h2.366l2.166-14.437 13.821-2.785 3.048 17.253 16.324-.029v-4.638l168.404-.05-.008 145.672-206.055-.623-.065-140.363Z" fill="none"></path><path d="m1117.03 205.276-167.405-.188V174.65l-45.526.025-.516-141.1 213.346 1.827.1 169.874Z" fill="none"></path><path d="m850.265 174.658-17.53.171-5.69 14.995-7.497 2.439-7.136-16.982-81.045-.623.1-139.91L908 34.581l.123 126.547-58.154-.104.296 13.633Z" fill="none"></path><path d="M735.176 174.658h-93.792L636.15 190.2l-9.344 1.181-5.401-16.723h-52.677l.107-16.77-10.06-.149V36.328l176.487-1.616-.086 139.946Z" fill="none"></path><path d="m562.595 140.651-62.77.638-1.633 12.931-12.764 3.45-7.407-16.309-92.514-.49L385.18.572C446.66.383 508.138.191 569.618 0l-.571 40.814-6.473.103.02 99.734Z" fill="none"></path><path d="M389.356 1.633V140.65l-73.47.152-19.4.145c-.88 4.458-1.76 8.917-2.638 13.375l-10.458 3.421-6.353-16.65-4.79.035v-11.606l-59.926-.154.965-128.782 176.07 1.046Z" fill="none"></path><path d="M164.928 140.651h51.54L218.25.577.334.922 0 170.047l164.866.271.062-29.667Z" fill="none"></path><path d="m205.129 312.556-.003-141.707-3.655-7.614-9.422-9.815-9.877 17.429h-10.08v-4.34l-170.539.609-1.409 145.37 204.985.068Z" fill="none"></path><path d="m201.245 182.353 34.266-.328.245-11.176h25.702l3.516-17.823 16.123 3.758 1.576 14.065h144.108l-.23 12.224 12.404-.12.012 127.519-237.271 1.045-.45-129.164Z" fill="none"></path></g></svg>