<svg xmlns="http://www.w3.org/2000/svg" viewBox="0 0 1113.74 348.007"><g id="SELECTION"><path d="m563.19 206.505 99.054.007.166-16.678 19.514-2.335 5.337 19.007h21.965l.144 8.922 30.928-.027-.157 131.744-177.049.862.098-141.502Z" fill="none"></path><path d="M741.295 206.506h94.795l4.95-16.95 14.15.265 3.613 16.415 20.978.27v8.825l32.915.011-.124 131.507-177.033.245.17-131.922 5.586-6.888v-1.778Z" fill="none"></path><path d="M907.896 206.503h3.595l1.652-15.466 11.39-2.295 3.635 3.842 5.113 8.898 178.9.211.229 146.267-204.508.042-.006-141.499Z" fill="none"></path><path d="m1113.74 206.674-160.161-.6.085-33.71h-18.226l.094 3.69-34.721.018-.516-141.099L1113.64 36.8l.1 169.875Z" fill="none"></path><path d="m857.392 175.764-129.917-.037-.308-141.256 177.545-.492.072 129.916-47.392.09v11.78Z" fill="none"></path><path d="M732.003 175.727h-50.447l.003-8.046h-53.306l.03 8.083-5.948-.037-3.848 18.806-17.864-.658.937-18.148-38.544.073-.04-7.73-7.637.035.147-131.38 176.488-1.615.03 140.617Z" fill="none"></path><path d="m559.863 141.796-63.326-.11-1.634 12.931-9.8 5.974-10.37-18.832-93.208.045L381.892.97 566.329.397l-1.004 40.821-5.515.088.053 100.49Z" fill="none"></path><path d="m386.068 2.03-.079 139.774h-53.236l-1.545 15.942-12.118 2.139-9.386-17.703-15.327-.238.128-9.134h-23.082l.024 8.994h-62.85l.106-140.653 177.365.88Z" fill="none"></path><path d="m158.778 141.804 54.4.244L212.673 0 0 .623l.381 170.824 158.67.132-.273-29.775Z" fill="none"></path><path d="M202.93 313.582c-.09-48.049-.182-96.097-.273-144.146l-4.475-6.803-11.502-10.935-9.34 15.675-177.034.144L3.05 310.73l199.88 2.852Z" fill="none"></path><path d="m197.957 182.75 43.769-.223-.057-11.28h16.5l7.611-19.258 12.029 5.192 1.575 14.065 146.746-.043-.3 12.484 10.42.045-.571 127.137-237.272 1.045-.45-129.164Z" fill="none"></path></g></svg>