<svg xmlns="http://www.w3.org/2000/svg" viewBox="0 0 1045.119 348.553"><g id="SELECTION"><path fill="none" d="M531.921 207.327V326.54h-57.573v20.379H608.64V207.327h-76.719z"></path><path fill="none" d="M610.704 207.327h76.803v139.592h-76.803z"></path><path fill="none" d="M688.706 207.036h76.338v140.7h-76.338z"></path><path fill="none" d="M807.026 216.053v-9.017h-40.067v139.883h77.687V216.053h-37.62z"></path><path fill="none" d="M947.251 202.268v.598h-65.848v4.343H863.32v-.305h-17.328v140.015h197.493V202.268h-96.234z"></path><path fill="none" d="M839.009 32.752V172.25h41.176v26.798h67.066v1.033h70.428v1.079h25.806V32.752H839.009z"></path><path fill="none" d="M734.406 33.57v138.535h58.108v-9.971h45.148V33.57H734.406z"></path><path fill="none" d="M629.236 33.045v138.916h17.324v-.399h85.763V33.045H629.236z"></path><path fill="none" d="m547.989 32.752-19.577 7.202-3.394.603v131.548h53.424v-.144h49.73V32.752h-80.183z"></path><path fill="none" d="m522.768 42.053 26.4-9.818v-30.6H366.439v139.901h33.194v-.304h68.847v-.341h54.288V42.053z"></path><path fill="none" d="M288.236 1.635v139.597h44.495v.291h32.216V1.635h-76.711z"></path><path fill="none" d="M286.406 133.351V1.279h-77.253V140.55h31.842v-7.199h45.411z"></path><path fill="none" d="M1.635 1.279v168.058h92.861v-.689h67.537v-27.599h45.629V1.279H1.635z"></path><path fill="none" d="M168.276 171.22v.119H94.563v-1.668H1.635v145.465h195.426V171.22h-28.785z"></path><path fill="none" d="M198.552 175.44h105.16v139.696h-105.16z"></path><path fill="none" d="M409.582 326.235v-144.61h-7.836v-4.596H376.47v-1.632h-71.211v140.465h80.221v31.057h88.686v-20.684h-64.584z"></path></g></svg>