<svg xmlns="http://www.w3.org/2000/svg" viewBox="0 0 1002.545 305.886"><g id="SELECTION"><path fill="none" d="M510.878 185.635h74.91V299.7h-74.91z"></path><path fill="none" d="M588.851 185.635h74.803V299.7h-74.803z"></path><path fill="none" d="M666.853 185.344h76.338v114.358h-76.338z"></path><path fill="none" d="M785.173 194.361v-9.017h-40.067v114.358h75.687V194.361h-35.62z"></path><path fill="none" d="M925.398 180.576v.598H859.55v4.343h-18.083v-.306h-17.328v114.491h172.417V180.576h-71.158z"></path><path fill="none" d="M817.156 37.942v112.616h41.176v26.798h67.066v1.033h70.428v-27.831h.291V37.942H817.156z"></path><path fill="none" d="M712.553 37.795v112.618h58.108v-9.971h44.148V37.795H712.553z"></path><path fill="none" d="M608.383 37.795v112.473h16.324v-.398h84.763V37.795H608.383z"></path><path fill="none" d="M605.319 150.268V37.795H503.165v112.618h53.424v-.145h48.73z"></path><path fill="none" d="M446.628 119.54v-.341h53.19V6.052H345.587v113.792h32.193v-.304h68.848z"></path><path fill="none" d="M266.383 6.052V119.54h44.496v.291h31.215V6.052h-75.711z"></path><path fill="none" d="M262.553 111.659V6.052H188.3v112.806h30.843v-7.199h43.41z"></path><path fill="none" d="M6 6.052v140.593h66.643v.311h67.537v-27.599h44.629V6.052H6z"></path><path fill="none" d="M146.423 149.528v.119H72.71v.331H5.854V267.96h169.354V149.528h-28.785z"></path><path fill="none" d="M178.7 153.747h103.16v113.925H178.7z"></path><path fill="none" d="M285.488 153.705h101.33v114.357h-101.33z"></path></g></svg>