<svg xmlns="http://www.w3.org/2000/svg" viewBox="0 0 1118.936 726.362"><g id="SELECTION"><path d="m567.591 347.754.189-141.047 40.221.027-.09 6.931 17.223.02v2.195h28.49l-.046-9.146h15.803l1.697-16.8 12.735-1.485 6.791 18.04 12.159.245-.199 9.103 42.645-.126-.13 132.757-177.488-.714Z" fill="none"></path><path d="m916.974 348.243-176.275.23-.204-132.636 11.25-.301.04-8.802h47.525l-.01 8.802h26.829l.16-8.802h14.333l5.48-17.089 9.876-.903 6.62 17.677 21.617.315-.179 8.802 32.959.148-.021 132.56Z" fill="none"></path><path d="m984.618 349.825-72.457-1.694.223-141.396 25.68-.001v-4.611h20.25V172.65h-15.39v3.016l-7.863.242-1.575 16.956-10.348 3.486-10.573-20.403-7.482-.039-.444-139.63 214.032-.66.265 313.992-134.318.214-.77 64.989 131.363-.279.332 311.828-285.513-1.028.172-107.314 143.538.14.174-25.613 48.217-.043v-19.732h-48.143l-.541-54.78-144.063.158.748-103.275 153.717-.062.77-64.99Z" fill="none"></path><path d="m732.536 175.91.12-139.72 176.613.091-.024 127.603-47.084.114v11.911H732.536Z" fill="none"></path><path d="m559.936 37.25 176.733.154.02 139.689-51.831-.552.178-8.818h-52.375l.11 8.186h-5.889l-2.718 17.343-15.703-1.057-5.738-16.286h-42.492l-.295-138.659Z" fill="none"></path><path d="m564.53 142.146-34.776-.21-.244-10.397-23.515-.093-.131 13.735-13.659 17.022-10.846-3.917-.301-16.35-94.677.35-.266-141.51 179.006.032-.59 141.338Z" fill="none"></path><path d="m390.445.763.175 141.172h-53.794l-.887 12.96-11.313 5.213-9.887-17.811-5.197.287.161-9.277h-33.307l.006 9.665-62.836-.491-.071-14.398-.497-126.797L390.445.763Z" fill="none"></path><path d="m26.923 317.005 180.172-3.61.226-142.156-25.312.209v-4.303h-18.692v-25.21h21.028l9.998 18.747 9.916-2.623 1.229-16.124h12.229l.308-140.62L0 0l2.328 317.448 24.595-.443.412 59.064 263.334 3.063.787 106.321-146.876-.223.841 53.844-55.527-.673.986 19.758h54.445l.12 25.792h146.692l-1.767 109.206-288.843 1.325 1.419-314.723 24.39-3.69-.413-59.064Z" fill="none"></path><path d="m246.299 171.498 16.049-.047 5.188-18.36 15.736.935.256 17.363 31.464-.093-.1 10.017 52.845.378.355-10.193 72.69-.99-.687 141.458-236.992 1.453-.053-130.224 43.249.11v-11.807Z" fill="none"></path></g></svg>