<svg xmlns="http://www.w3.org/2000/svg" viewBox="0 0 1118.425 328.357"><g id="SELECTION"><path d="m728.368 172.774.024-10.776h105.36l4.15-17.507 9.68.146 6.841 17.36h66.097l.284 133.103-228.69-1.674V172.764l36.254.01Z" fill="none"></path><path d="M915.652 161.998h4.868l2.134-18.775 17.666 4.685-.308 14.09 5.946-.012-.052-3.243 171.202-.123 1.032 136.732-202.002-.258-.486-133.096Z" fill="none"></path><path d="m1118.425 163.35-155.662-.66-.132-30.912-13.725.004v3.683h-28.585l.101-132.825 197.65-2.227.353 162.937Z" fill="none"></path><path d="M695.785 135.465 695.051.042l230.484.487.177 126.045-35.778-.098v8.99H695.785Z" fill="none"></path><path d="m700.878 135.465-172.25.178V46.84h-5.25l-.088-45.543L700.75 0l.13 135.465Z" fill="none"></path><path d="m534.1 168.146-77.427.383 1.294 11.161-12.633 6.604-10.336-17.658-61.148-.047-.048-132.852 160.132.77.167 131.639Z" fill="none"></path><path d="m379.257 34.054-.293 134.33h-45.181l-4.087 12.6-8.741 4.996-8.626-18.007-7.081.117.047-7.25h-36.222l-.14 7.25-75.541.375.462-133.987 185.403-.424Z" fill="none"></path><path d="M153.879 168.465h44.819l.24-136.244L0 34.143l.762 161.45 153.294.206-.177-27.334Z" fill="none"></path><path d="m1.573 327.976 193.807-.082-.242-133.082-5.699-15.63-14.2-1.272-3.375 16.902v-4.32l-171.13.395.839 137.089Z" fill="none"></path><path d="m238.432 194.812 7.78-17.269 14.384 4.009.836 12.37 118.271.89.2 133.28-190.005-.204.008-133.076h48.526Z" fill="none"></path><path d="M374.434 194.812h116.904l11.363-17.877 13.34 3.335-1.606 14.542h15.61v8.792l44.206.273-.469 124.48-199.532-.273.184-133.272Z" fill="none"></path></g></svg>