<svg xmlns="http://www.w3.org/2000/svg" viewBox="0 0 1118.352 733.248"><g id="SELECTION"><path d="m726.882 170.95.278-9.727 105.553.85 2.625-15.547 11.272-2.23 9.728 7.829.574 9.949h62.843l-.458 135.74-216.916-3.018-.918-1.522-8.11-.162v-122.08l33.53-.082Z" fill="none"></path><path fill="none" d="m915.575 162.074.267 134.089h202.51V159.192h-85.389l.084 7.955-49.459-.004v-7.125l-39.251-.128-4.06-1.167-7.235-14.427-6.769 1.004-5.732 5.687-4.966 11.087z"></path><path fill="none" d="M960.963 130.817H948.88l.12 4.374H921.09L920.91 0h197.441v162.358l-156.889.299-.5-31.84z"></path><path fill="none" d="m925.516 126.191-35.358.14v8.86H703.783v-25.13h-6.215l.562-108.272h227.386V126.19z"></path><path fill="none" d="m616.292 135.19-80.233-.493.099-6.484h-5.583l-.389-91.18h-6.414l-.714-2.717-.983-33.747h178.833v125.296h-18.153l-.064 10.09h-13.297v-8.75H644.88v7.986h-28.588z"></path><path fill="none" d="m533.943 159.99-9.59.128v8.632h-66.87v4.839l-2.233 5.402-8.81 7.79-10.27-18.664h-12.123v-9.904h-49.813V33.067l147.104 3.507h12.605V159.99z"></path><path fill="none" d="M378.693 34.34v125.65h-9.375l-.06 9.029h-36.731l-1.284 6.227-7.903 7.218h-2.22l-7.502-14.347-110.31.047.197-8.035-9.375.1V34.34h184.563z"></path><path d="m19.396 326.42 175.984 1.2V194.837h-24.292l.739-24.352 3.074 3.827 4.977 10.997 9.682 1.933 5.914-19.176h3.323l.486-136.075L0 33.223l2.42 293.733 16.976-.535-.239 113.795L0 440.33l1.13 292.918h267.524V609.834l-121.707.292v-49.89l120.74-.206.163-119.049-248.693-.765.24-113.795Z" fill="none"></path><path fill="none" d="m190.552 206.419 10.953-.206.104-11.375h38.753l9.064-15.615 6.386 1.604 4.935 11.994.142 2.017h118.18l.27 134.25H190.284l.267-122.67z"></path><path fill="none" d="m517.195 194.81 57.018.041v134.237H374.96l.54-135.703h117.08l8.61-16.78h10.497l5.509 18.205z"></path></g></svg>