<svg xmlns="http://www.w3.org/2000/svg" viewBox="0 0 1201.001 342.917"><g id="SELECTION"><path fill="none" d="M866.085 173.153v126.97H749.751V184.615h37.884V173.17l78.45-.018z"></path><path fill="none" d="M988.453 173.69v126.592H870.429V173.213l118.024.477z"></path><path fill="none" d="M1041.286 168.312h152.736v131.811H992.349V173.71h48.858l.08-5.398z"></path><path fill="none" d="M998.035 134.753V7.436h196.007v157.119h-152.755v-29.802H997.15h.885z"></path><path fill="none" d="M876.115 134.455V7.326h118.043v112.198h-39.096v14.931h-78.947z"></path><path fill="none" d="M871.721 134.455h-118.43V6.571h118.38l.05 127.884z"></path><path fill="none" d="M572.443 134.495V7.336h176.901v127.308h-38.887v-3.22h-48.56v3.24h-89.494l.04-.17z"></path><path fill="none" d="M487.442 169.784V42.973h80.409V170.21l-80.41-.427z"></path><path fill="none" d="M405.065 161.284V42.993h78.67v126.8h-33.908v-8.638l-44.762.13z"></path><path fill="none" d="M301.505 160.26V42.974h98.938v126.483h-69.839v-9.235l-29.099.04z"></path><path fill="none" d="M297.907 160.25h-17.535v10.12h-72.954V42.973h90.489V160.25z"></path><path fill="none" d="M159.714 200.112H6.948V43.222h196.077v127.446h-43.043l-.268 29.444z"></path><path fill="none" d="M199.188 208.86v.546l-.378 126.235H7.147V203.85h169.456v4.91l22.585.1z"></path><path fill="none" d="M274.507 209.476h22.982v7.008h13.46v119.385H203.491V216.752h13.042v-7.723l57.973.447z"></path><path fill="none" d="M346.158 208.82h40.09v7.783h13.628V335.87h-84.991V208.82h31.273z"></path><path fill="none" d="M436.318 211.673H477.8v7.137h13.618v117.357h-87.655V216.623h13.101v-7.584h19.504l-.05 2.634z"></path><path fill="none" d="M495.762 218.86h38.818v-10.17h30.676v9.176H611.6v118.252H495.762V218.86z"></path></g></svg>