<svg xmlns="http://www.w3.org/2000/svg" viewBox="0 0 784.932 247.023"><g id="SELECTION"><path fill="none" d="M435.557 245.991v-19.978L483.91 226v-20.816l.005-74.677.06-2.468-.01-7.695 24.874-.033v-7.524h17.073v8.121h25.86l1.457-.024h8.43l.023 81.949h1.394v19.354h-60.39v23.805h-67.129z"></path><path fill="none" d="M560.648 221.097v-14.215h-1.13l.007-85.964h8.267l1.536.024h15.596v-8.447h17.129v8.188h36.278l.028 86.219h.093v14.195h-77.804z"></path><path fill="none" d="M637.044 221.132v-14.23h-1.153l.007-94.352h16.694v8.357h13.676v-3.002h102.761v.818h15.903v102.409H637.044z"></path><path fill="none" d="M766.58 119.852v.51l-100.048-.005v-18.702h-10.337v8.824h-14.224v-8.85h-2.516l-.006-86.362h1.269V0h144.214v119.852H766.58z"></path><path fill="none" d="M593.973 110.874v-9.359H572.58l-1.46.025h-8.055l-.012-82.095h-.93V0h80.018v19.533h-.258l.003 82.662-24.554.033-6.286-.001v8.647h-17.073z"></path><path fill="none" d="M522.532 109.945v-7.814h-36.384V14.89h.76V0h76.567v15.268h1.734v86.273h-8.31l-1.54-.025h-15.657l.001 8.43h-17.171z"></path><path fill="none" d="m410.842 110.708-.004-9.079h-37.942l-.004-43.001.004-16.868h-2.083V28.944l-14.997-7.167V0H488.3v15.267h.263l-.011 53.486v32.854l-29.256-.014V99.78h-23.954v1.894h-8.455v9.034h-16.045z"></path><path fill="none" d="M329.05 132.558v-8.475l-9.314.039-.007-82.343h-1.947V20.65h38.977l14.652 7.056h3.35v96.343h-6.966l-1.542-.024H346.12v8.532H329.05z"></path><path fill="none" d="m294.843 132.17.001-8.257H276.86l-.64.022-9.508.002v-82.15h-1.36V19.593h53.85v18.003h2.844l-.006 86.76-10.087-.039v7.853h-17.11z"></path><path fill="none" d="M223.352 132.17v-7.925l-9.419.039-.006-82.544h-3.195V20.63h56.033v16.966h2.094v86.341h-9.117l-1.543-.025h-17.775l.001 8.258h-17.073z"></path><path fill="none" d="m176.518 132.226.002-8.313h-21.716l-1.462.024h-9.158V94.873l-.338-53.337.002-3.975h.736V20.63h67.506v16.966h4.258l-.006 86.366-22.767-.001v8.265h-17.057z"></path><path fill="none" d="M.588 141.987V20.631H145.97V37.56h.37v4.92l-.01.014v81.444h-2.567v8.153h-14.773v-8.128h-9.788v18.694l-102.497-.004v-.666H.588z"></path><path fill="none" d="m0 245.991.588-105.438h16.116v-.349H129.809v-6.343h13.931v9.391h.131l.009 86.405h.655v16.334H0z"></path><path fill="none" d="M143.032 245.991v-16.334h-1.307v-86.325h9.117l1.544.026h21.675v-8.417h17.055v7.815h22.792v86.92h-2.539v16.315h-68.337z"></path><path fill="none" d="M209.94 247.023v-17.384h1.561l-.02-86.366h7.405v-8.609h17.11v8.562h22.661l1.464-.024h9.498l.006 86.437h-.176v17.384H209.94z"></path><path fill="none" d="M268.033 245.991v-16.353h-.848l-.019-86.454 8.232.04v-8.532h17.076l-.002 8.509h34.513v86.438h1.05v16.352h-60.002z"></path><path fill="none" d="M326.643 245.991v-16.358h-2.1l.008-86.515h8.447l1.52.025h15.285v-8.645h16.988v8.659h35.411l-.015 5.798.06 2.307.005 75.994 34.69-.01v18.745H326.644z"></path></g></svg>