<svg xmlns="http://www.w3.org/2000/svg" viewBox="0 0 1003.1 286.412"><g id="SELECTION"><path fill="none" d="M626.776 144.163h96.686V250.67h-96.686z"></path><path fill="none" d="M726.59 144.163h98.457V250.4H726.59z"></path><path fill="none" d="M828.31 144.636v106.033h168.96v-110.02h-73.849v-.527H867.49v4.514h-39.18z"></path><path fill="none" d="M833.58 6.209v106.337H869v25.53h65.964v-.762h62.317V6.209H833.58z"></path><path fill="none" d="M797.499 100.572h32.582V6.402h-98.763v106.277h66.181v-12.107z"></path><path fill="none" d="M728.04 111.996V5.488h-98.584v107.009h32.584v-.501h66z"></path><path fill="none" d="M478.174 6.13v106.258h75.571v-2.03h38.042v2.03h34.078V6.13H478.174z"></path><path fill="none" d="M406.127 36.035h67.763V142.29h-67.763z"></path><path fill="none" d="M336.425 36.035h68.553V142.29h-68.553z"></path><path fill="none" d="M265.957 36.035h67.021V142.29h-67.021z"></path><path fill="none" d="M173.019 36.035h90.257V142.29H173.02z"></path><path fill="none" d="M5.684 35.173v106.016h.272v25.953h65.82v.006h62.679v-24.603h35.436V35.173H5.684z"></path><path fill="none" d="M166.638 174.044h-18.887v-3.741H82.765v.066H5.972v110.155h160.666v-106.48z"></path><path fill="none" d="M192.78 174.437v-.393h-23.334v106.48h90.271V174.437H192.78z"></path><path fill="none" d="M334.703 173.884h-18.397v.587h-53.544v106.055h71.941V173.884z"></path><path fill="none" d="M336.659 173.884h74.264v106.642H336.66z"></path><path fill="none" d="M413.355 174.155h98.102v106.37h-98.102z"></path></g></svg>