<svg xmlns="http://www.w3.org/2000/svg" viewBox="1.12 0 987.877 614.568"><g id="SELECTION"><path fill="none" d="m712.726 451.534 2.002-.36 2.002-.361 2.002-.36 2.002-.36.784 4.354.784 4.356.784 4.355.784 4.355-2.002.36-2.002.36-2.002.361-2.002.36-.784-4.355-.784-4.355-.784-4.355-.784-4.355z"></path><path fill="none" d="m720.104 430.795 4.121-1.037 4.121-1.036 4.121-1.037 4.121-1.036 2.26 8.985 2.261 8.986 2.26 8.986 2.26 8.985-4.12 1.037-4.121 1.037-4.121 1.036-4.121 1.037-2.26-8.986-2.261-8.986-2.26-8.985-2.26-8.986z"></path><path d="m691.8 435.72 4.371-.79 4.372-.79 4.371-.79 4.372-.79 1.644 9.1 1.644 9.098 1.644 9.098 1.644 9.098s-1.088.223-2.722.552-3.812.765-5.992 1.193-4.361.846-6 1.14-2.738.465-2.751.395l-1.052-5.823-2.265-12.538-2.256-12.487-1.024-5.666Z" fill="none"></path><path fill="none" d="m828.447 403.526 4.257-1.071 4.257-1.071 4.257-1.07 4.257-1.072 2.26 8.986 2.26 8.986 2.26 8.986 2.261 8.985-4.257 1.071-4.257 1.07-4.257 1.072-4.256 1.07-2.26-8.985-2.261-8.986-2.26-8.986-2.26-8.985z"></path><path fill="none" d="m689.607 436.112 1.65 9.134 1.65 9.134 1.651 9.134 1.65 9.134-4.395.794-4.396.794-4.395.794-4.395.794-1.65-9.134-1.651-9.134-1.65-9.134-1.65-9.134 4.395-.794 4.395-.794 4.396-.794 4.395-.794z"></path><path fill="none" d="m672.026 439.288 1.65 9.134 1.65 9.134 1.65 9.134 1.65 9.134-4.296.776-4.297.777-4.296.776-4.297.776-1.65-9.135-1.65-9.135-1.65-9.135-1.651-9.135 4.296-.775 4.297-.775 4.297-.775 4.297-.776z"></path><path fill="none" d="m654.839 442.39 1.65 9.134 1.65 9.135 1.651 9.135 1.65 9.135-4.36.788-4.359.788-4.36.787-4.36.788-1.65-9.136-1.65-9.136-1.651-9.136-1.65-9.136 4.359-.787 4.36-.786 4.36-.787 4.36-.787z"></path><path d="m635.138 445.897 1.647 9.118 1.648 9.118 1.647 9.119 1.648 9.118-2.686.485-5.907 1.067-5.9 1.066-2.667.482c.008-.001-.398-2.282-1.014-5.702s-1.441-7.978-2.267-12.537l-2.274-12.536-1.034-5.697 4.29-.775 4.29-.776 4.29-.775 4.29-.775Z" fill="none"></path><path fill="none" d="m617.979 448.998 1.647 9.118 1.648 9.118 1.647 9.118 1.647 9.118-4.423.799-4.422.799-4.423.799-4.423.8-1.648-9.12-1.647-9.119-1.648-9.118-1.647-9.12 4.423-.797 4.423-.799 4.423-.798 4.423-.798z"></path><path fill="none" d="m598.19 452.573 1.648 9.118 1.647 9.118 1.648 9.118 1.647 9.118-4.29.775-4.29.775-4.29.775-4.29.775-1.647-9.118-1.647-9.118-1.647-9.118-1.648-9.118 4.29-.775 4.29-.775 4.29-.775 4.29-.775z"></path><path fill="none" d="m581.031 455.673 1.648 9.118 1.647 9.118 1.647 9.118 1.648 9.118-4.36.792-4.358.792-4.359.792-4.359.792-1.649-9.126-1.649-9.127-1.649-9.127-1.649-9.127 4.36-.783 4.361-.784 4.36-.783 4.361-.783z"></path><path fill="none" d="m561.357 459.197 1.64 9.08 1.641 9.08 1.64 9.081 1.641 9.08-4.318.78-4.319.781-4.318.78-4.319.78-1.632-9.083-1.632-9.083-1.632-9.083-1.632-9.083 4.31-.778 4.31-.777 4.31-.778 4.31-.777z"></path><path fill="none" d="m544.083 462.318 1.64 9.08 1.641 9.08 1.64 9.081 1.641 9.08-4.36.788-4.36.788-4.359.788-4.36.787-1.64-9.081-1.641-9.082-1.641-9.081-1.64-9.082 4.36-.787 4.36-.786 4.359-.787 4.36-.786z"></path><path fill="none" d="m524.45 465.866 1.64 9.08 1.64 9.08 1.641 9.08 1.64 9.08-4.368.79-4.368.79-4.369.789-4.368.789-1.641-9.08-1.64-9.08-1.641-9.08-1.64-9.081 4.368-.79 4.368-.789 4.369-.789 4.368-.79z"></path><path fill="none" d="m506.975 469.023 1.64 9.08 1.641 9.08 1.641 9.08 1.64 9.08-6.053 1.095-6.054 1.093-6.054 1.094-6.054 1.094-1.64-9.081-1.642-9.082-1.64-9.081-1.641-9.081 6.054-1.093 6.054-1.093 6.054-1.092 6.054-1.093z"></path><path fill="none" d="m480.693 473.704 1.642 9.086 1.641 9.085 1.642 9.086 1.641 9.085-4.369.79-4.368.788-4.369.79-4.368.789-1.641-9.085-1.642-9.086-1.641-9.085-1.642-9.085 4.369-.79 4.368-.789 4.369-.79 4.368-.789z"></path><path fill="none" d="m463.22 476.862 1.64 9.085 1.642 9.085 1.642 9.086 1.641 9.085-4.36.788-4.36.787-4.36.788-4.359.788-1.641-9.086-1.642-9.085-1.641-9.085-1.642-9.086 4.36-.787 4.36-.788 4.36-.788 4.36-.787z"></path><path fill="none" d="m443.756 480.379 1.631 9.029 1.632 9.029 1.63 9.029 1.632 9.029-4.368.789-4.369.79-4.368.788-4.369.79-1.631-9.03-1.631-9.028-1.632-9.03-1.63-9.028 4.368-.79 4.368-.789 4.369-.789 4.368-.79z"></path><path fill="none" d="m426.282 483.536 1.631 9.029 1.632 9.029 1.63 9.029 1.632 9.029-4.36.787-4.36.788-4.359.788-4.36.787-1.63-9.025-1.631-9.026-1.63-9.025-1.631-9.026 4.359-.791 4.359-.791 4.359-.791 4.36-.791z"></path><path fill="none" d="m408.846 486.7 1.63 9.026 1.63 9.025 1.632 9.026 1.63 9.025-4.47.808-4.47.808-4.47.807-4.47.808-1.582-8.927-1.581-8.926-1.582-8.927-1.582-8.927-.049-.1-.05-.1-.048-.1-.05-.1 4.47-.807 4.471-.806 4.47-.807 4.47-.806z"></path><path fill="none" d="m388.787 490.326 1.63 9.025 1.63 9.025 1.631 9.025 1.631 9.025-4.345.785-4.344.785-4.345.785-4.344.785-1.63-9.025-1.631-9.025-1.63-9.025-1.631-9.025 4.344-.785 4.345-.785 4.344-.785 4.345-.785z"></path><path fill="none" d="m371.409 493.466 1.63 9.025 1.63 9.025 1.631 9.025 1.631 9.025-4.364.788-4.363.789-4.364.788-4.364.789-1.63-9.027-1.631-9.026-1.631-9.027-1.63-9.026 4.363-.787 4.364-.787 4.364-.787 4.364-.787z"></path><path fill="none" d="m353.953 496.614 1.631 9.026 1.63 9.027 1.632 9.026 1.63 9.027-4.338.783-4.338.784-4.338.784-4.338.784-1.631-9.026-1.63-9.025-1.631-9.026-1.631-9.026 4.338-.784 4.338-.785 4.338-.784 4.338-.785z"></path><path fill="none" d="m334.51 500.145 1.63 9.022 1.63 9.022 1.63 9.022 1.63 9.022-4.361.788-4.36.788-4.361.788-4.36.788-1.63-9.022-1.63-9.023-1.63-9.022-1.63-9.022 4.36-.787 4.36-.788 4.36-.788 4.361-.788z"></path><path fill="none" d="m317.067 503.296 1.63 9.022 1.63 9.022 1.63 9.023 1.63 9.022-4.362.788-4.362.788-4.363.788-4.362.788-1.63-9.024-1.63-9.023-1.631-9.024-1.63-9.024 4.362-.786 4.363-.787 4.363-.786 4.362-.787z"></path><path fill="none" d="m299.617 506.442 1.63 9.024 1.63 9.024 1.63 9.023 1.63 9.024-4.348.786-4.349.786-4.349.785-4.349.786-1.63-9.023-1.63-9.023-1.63-9.024-1.63-9.023 4.348-.786 4.349-.786 4.349-.786 4.349-.787z"></path><path fill="none" d="m280.043 509.982 1.63 9.023 1.63 9.023 1.63 9.023 1.63 9.023-4.24.766-4.242.766-4.241.766-4.241.767-1.63-9.023-1.63-9.023-1.63-9.023-1.631-9.023 4.241-.766 4.241-.766 4.242-.766 4.24-.767z"></path><path fill="none" d="m263.078 513.047 1.63 9.023 1.63 9.023 1.63 9.023 1.63 9.023-4.36.788-4.362.788-4.361.788-4.361.788-1.63-9.024-1.631-9.024-1.63-9.024-1.63-9.024 4.36-.787 4.362-.787 4.361-.787 4.362-.787z"></path><path fill="none" d="m245.632 516.195 1.63 9.024 1.63 9.024 1.631 9.024 1.63 9.024-4.362.788-4.362.788-4.362.788-4.363.788-1.63-9.028-1.632-9.028-1.631-9.028-1.631-9.029 4.363-.783 4.363-.784 4.363-.784 4.363-.784z"></path><path fill="none" d="m154.569 579.265 6.242-6.986 6.241-6.986 6.242-6.987 6.242-6.986 3.44 3.071 3.44 3.072 3.44 3.07 3.439 3.072.076.05.076.051.077.05.076.051-5.933 6.545-5.933 6.546-5.933 6.545-5.934 6.545-.666.144-.666.144-.667.144-.666.144-3.158-2.824-3.159-2.825-3.158-2.825-3.158-2.825z"></path><path fill="none" d="m204.507 523.196 3.516 3.122 3.516 3.121 3.516 3.122 3.516 3.122-6.243 7.031-6.243 7.031-6.242 7.031-6.243 7.031-3.516-3.122-3.516-3.121-3.516-3.122-3.516-3.122 6.243-7.031 6.242-7.031 6.243-7.031 6.243-7.031z"></path><path fill="none" d="m154.569 579.265-3.288-2.93-3.287-2.931-3.288-2.931-3.287-2.931 6.234-6.982 6.233-6.981 6.234-6.982 6.233-6.981 3.296 2.926 3.296 2.926 3.295 2.926 3.296 2.926-6.242 6.986-6.242 6.987-6.241 6.986-6.242 6.986z"></path><path fill="none" d="m191.31 511.507 3.3 2.922 3.299 2.922 3.299 2.923 3.299 2.922-6.243 7.03-6.243 7.032-6.242 7.031-6.243 7.031-3.296-2.926-3.295-2.926-3.296-2.926-3.296-2.926 6.24-7.028 6.239-7.027 6.24-7.027 6.239-7.027z"></path><path fill="none" d="m135.397 565.188-3.34-2.908-3.342-2.908-3.341-2.908-3.342-2.908 6.653-7.44 6.654-7.439 6.653-7.439 6.653-7.44 3.31 2.94 3.309 2.937 3.309 2.939 3.31 2.938-6.622 7.41-6.621 7.408-6.621 7.41-6.622 7.408z"></path><path fill="none" d="m186.998 507.265-6.28 7.072-6.278 7.072-6.279 7.071-6.279 7.072-3.31-2.938-3.308-2.939-3.31-2.938-3.31-2.938 6.28-7.072 6.278-7.072 6.28-7.072 6.278-7.071 3.31 2.938 3.309 2.938 3.31 2.939 3.309 2.938z"></path><path fill="none" d="m148.645 523.799-6.709 7.501-6.709 7.502-6.708 7.501-6.71 7.502-3.67-3.277-3.67-3.277-3.67-3.278-3.67-3.277 6.716-7.512 6.716-7.512 6.716-7.511 6.716-7.512 3.663 3.287 3.663 3.288 3.663 3.287 3.663 3.288z"></path><path fill="none" d="m159.078 482.397 3.276 2.908 3.275 2.909 3.276 2.908 3.276 2.909-6.27 7.063-6.272 7.063-6.271 7.063-6.271 7.063-3.276-2.908-3.276-2.909-3.276-2.909-3.276-2.908 6.271-7.063 6.272-7.063 6.27-7.063 6.272-7.063z"></path><path fill="none" d="m105.58 538.897-3.03-2.706-3.03-2.706-3.03-2.705-3.03-2.706 6.685-7.485 6.684-7.486 6.684-7.485 6.684-7.485 3.03 2.705 3.03 2.706 3.03 2.706 3.03 2.706-6.684 7.485-6.684 7.485-6.684 7.486-6.684 7.485z"></path><path fill="none" d="m121.214 494.26.33.306.332.305.331.306.332.305-.586.663-.585.662-.586.663-.585.663 3.03 2.705 3.03 2.706 3.03 2.706 3.03 2.706 6.272-7.02 6.272-7.018 6.271-7.018 6.272-7.019-3.41-3.027-3.409-3.027-3.41-3.027-3.409-3.027-5.638 6.372-5.638 6.372-5.638 6.372-5.638 6.372z"></path><path fill="none" d="m85.143 519.422-3.49-3.116-3.49-3.117-3.49-3.116-3.49-3.116 6.533-7.316 6.533-7.316 6.533-7.317 6.533-7.316 3.469 3.09 3.469 3.089 3.468 3.09 3.47 3.088-6.513 7.344-6.512 7.343-6.511 7.343-6.512 7.343z"></path><path fill="none" d="m136.128 461.962-6.235 7.022-6.234 7.022-6.234 7.022-6.235 7.021-3.31-2.939-3.311-2.94-3.31-2.939-3.312-2.94 6.235-7.021 6.234-7.022 6.235-7.022 6.234-7.021 3.31 2.939 3.311 2.94 3.311 2.939 3.31 2.94z"></path><path fill="none" d="m57.283 494.417 6.516-7.291 6.515-7.292 6.516-7.292 6.515-7.291 3.492 3.11 3.493 3.11 3.492 3.111 3.493 3.11-6.533 7.316-6.533 7.317-6.533 7.316-6.533 7.316-3.475-3.135-3.475-3.135-3.475-3.135-3.475-3.135z"></path><path fill="none" d="m121.307 448.793-6.227 7.012-6.226 7.013-6.226 7.013-6.227 7.012-3.264-2.898-3.264-2.898-3.264-2.898-3.264-2.898 6.226-7.013 6.227-7.012 6.226-7.013 6.226-7.013 3.265 2.898 3.264 2.898 3.264 2.899 3.264 2.898z"></path><path fill="none" d="m105.742 434.846-6.681 7.526-6.682 7.525-6.681 7.525-6.681 7.525-3.314-2.942-3.313-2.942-3.314-2.942-3.313-2.942 6.681-7.525 6.681-7.525 6.682-7.525 6.681-7.525 3.314 2.942 3.313 2.942 3.314 2.942 3.313 2.941z"></path><path fill="none" d="m90.967 421.658-6.71 7.558-6.711 7.559-6.711 7.558-6.711 7.558-3.382-2.997-3.382-2.997-3.382-2.998-3.382-2.997 6.717-7.565 6.717-7.565 6.717-7.566 6.717-7.565 3.376 3.004 3.376 3.004 3.376 3.005 3.375 3.004z"></path><path fill="none" d="m64.34 397.989 3.281 2.913 3.281 2.913 3.281 2.913 3.281 2.913-6.717 7.565-6.717 7.566-6.717 7.565-6.717 7.565-3.281-2.913-3.28-2.913-3.282-2.913-3.28-2.913 6.716-7.565 6.717-7.565 6.717-7.566 6.718-7.565z"></path><path fill="none" d="m744.545 220.036 18.268-4.583 18.268-4.584 18.268-4.583 18.268-4.583.458 1.823.457 1.824.458 1.823.457 1.824-18.268 4.583-18.268 4.584-18.268 4.583-18.268 4.583-.457-1.823-.458-1.824-.457-1.823-.458-1.824z"></path><path fill="none" d="m717.493 110.755 16.226-4.071 16.226-4.071 16.225-4.071 16.226-4.071.471 1.878.472 1.878.47 1.878.472 1.878-16.226 4.071-16.226 4.071-16.225 4.071-16.226 4.071-.472-1.878-.47-1.878-.472-1.878-.471-1.878z"></path><path fill="none" fill-rule="evenodd" stroke="#dadada" stroke-miterlimit="10" stroke-width=".25286" d="m673.06 263.867.929 3.7.928 3.7-18.467 4.634-18.467 4.633-.928-3.7-.928-3.7 18.466-4.634 18.467-4.633z"></path><path fill="none" d="m874.198 98.062 9.023-2.264 9.024-2.264 9.023-2.264 9.023-2.264 1.147 4.573 1.148 4.573 1.147 4.572 1.147 4.573-9.024 2.26-9.024 2.262-9.024 2.261-9.024 2.262-1.146-4.57-1.147-4.57-1.146-4.57-1.147-4.57z"></path><path fill="none" d="m837.964 108.573 9.142-2.294 9.143-2.294 9.142-2.294 9.142-2.293 1.064 4.238 1.063 4.239 1.064 4.239 1.063 4.238-9.143 2.291-9.143 2.292-9.143 2.29-9.143 2.292-1.063-4.236-1.062-4.236-1.063-4.236-1.063-4.236z"></path><path fill="none" d="m915.437 109.189 1.131 4.233 1.131 4.233 1.131 4.233 1.131 4.233-9.076 2.276-9.076 2.277-9.077 2.277-9.076 2.277-1.067-4.252-1.066-4.251-1.067-4.252-1.067-4.252 9.012-2.258 9.012-2.258 9.012-2.258 9.012-2.258z"></path><path fill="none" d="m842.726 127.42 9.166-2.3 9.166-2.3 9.165-2.299 9.166-2.3 1.067 4.252 1.067 4.252 1.066 4.251 1.067 4.252-9.166 2.3-9.165 2.3-9.166 2.299-9.166 2.3-1.066-4.252-1.067-4.252-1.067-4.251-1.067-4.252z"></path><path fill="none" d="m920.08 127.876 1.184 4.466 1.185 4.467 1.184 4.466 1.185 4.466-9.056 2.358-9.056 2.358-9.056 2.357-9.056 2.358-1.141-4.551-1.14-4.551-1.142-4.551-1.14-4.551 9.012-2.273 9.012-2.273 9.012-2.273 9.012-2.273z"></path><path fill="none" d="m847.378 146.164 9.163-2.3 9.163-2.298 9.163-2.3 9.164-2.298 1.094 4.361 1.094 4.362 1.095 4.362 1.094 4.362-9.163 2.298-9.163 2.3-9.163 2.298-9.164 2.3-1.094-4.362-1.094-4.362-1.095-4.362-1.094-4.361z"></path><path fill="none" d="m854.938 176.149-.576-2.299-.577-2.298-.577-2.3-.577-2.298 9.064-2.274 9.064-2.274 9.063-2.274 9.064-2.274.584 2.294.585 2.295.584 2.294.585 2.294-9.072 2.279-9.071 2.278-9.071 2.278-9.072 2.279z"></path><path fill="none" d="m856.925 184.048 9.147-2.295 9.147-2.295 9.147-2.295 9.146-2.295 1.128 4.49 1.127 4.492 1.128 4.49 1.127 4.491-9.147 2.295-9.148 2.295-9.147 2.295-9.148 2.295-1.126-4.49-1.127-4.491-1.127-4.491-1.127-4.491z"></path><path fill="none" d="m861.432 202.011 9.148-2.295 9.147-2.295 9.148-2.295 9.147-2.295 1.09 4.264 1.088 4.264 1.089 4.265 1.089 4.264-9.166 2.3-9.165 2.299-9.165 2.3-9.166 2.299-1.07-4.269-1.072-4.268-1.07-4.269-1.072-4.269z"></path><path fill="none" d="m866.647 222.785 9.15-2.273 9.15-2.273 9.15-2.273 9.149-2.273 1.07 4.208 1.07 4.208 1.07 4.207 1.071 4.208-9.15 2.296-9.152 2.296-9.15 2.296-9.151 2.295-1.07-4.23-1.068-4.23-1.07-4.231-1.069-4.231z"></path><path fill="none" d="m870.924 239.707 9.15-2.295 9.151-2.296 9.151-2.296 9.151-2.296 1.089 4.318 1.089 4.319 1.088 4.318 1.09 4.319-9.155 2.305-9.153 2.305-9.154 2.305-9.154 2.305-1.086-4.328-1.086-4.327-1.085-4.328-1.086-4.328z"></path><path fill="none" d="m875.767 258.955 9.181-2.304 9.182-2.303 9.181-2.304 9.181-2.303 1.048 4.244 1.048 4.243 1.047 4.244 1.048 4.244-9.154 2.345-9.154 2.345-9.154 2.344-9.154 2.345-1.075-4.285-1.075-4.285-1.075-4.285-1.075-4.285z"></path><path fill="none" d="m881.073 279.886 9.154-2.297 9.153-2.296 9.153-2.297 9.153-2.296 1.083 4.316 1.083 4.317 1.083 4.316 1.083 4.316-9.135 2.292-9.135 2.292-9.135 2.292-9.134 2.292-1.102-4.312-1.101-4.312-1.101-4.311-1.102-4.312z"></path><path fill="none" d="m885.479 297.133 9.134-2.292 9.135-2.292 9.135-2.292 9.135-2.292 1.063 4.223 1.063 4.223 1.063 4.222 1.063 4.223-9.135 2.328-9.136 2.329-9.136 2.329-9.136 2.328-1.062-4.26-1.062-4.258-1.062-4.26-1.062-4.259z"></path><path fill="none" d="m889.727 314.17 9.067-2.275 9.066-2.275 9.067-2.274 9.067-2.275 1.024 4.226 1.025 4.225 1.025 4.226 1.024 4.226-9.034 2.26-9.035 2.262-9.034 2.261-9.035 2.261-1.057-4.212-1.056-4.212-1.057-4.212-1.057-4.212z"></path><path fill="none" d="m894.468 333.009 9.103-2.284 9.104-2.284 9.103-2.284 9.104-2.284 1.103 4.35 1.104 4.352 1.103 4.35 1.104 4.351-9.111 2.286-9.111 2.286-9.111 2.286-9.11 2.286-1.097-4.353-1.096-4.353-1.096-4.352-1.096-4.353z"></path><path fill="none" d="m898.852 350.42 1.076 4.241 1.076 4.242 1.075 4.241 1.076 4.242 9.1-2.283 9.1-2.283 9.1-2.284 9.1-2.283-1.052-4.317-1.051-4.318-1.052-4.317-1.051-4.318-9.124 2.36-9.124 2.359-9.125 2.359-9.124 2.359z"></path><path fill="none" d="m903.155 367.386 9.1-2.283 9.1-2.283 9.1-2.284 9.1-2.283 1.064 4.309 1.064 4.309 1.064 4.308 1.064 4.31-9.084 2.278-9.084 2.28-9.084 2.279-9.084 2.279-1.08-4.305-1.08-4.305-1.08-4.304-1.08-4.305z"></path><path fill="none" d="m705.722 64.65 9.104-2.273 9.105-2.274 9.105-2.273 9.104-2.274 1.082 4.31 1.081 4.31 1.082 4.311 1.081 4.31-9.099 2.296-9.1 2.296-9.098 2.295-9.1 2.296-1.086-4.332-1.087-4.333-1.087-4.332-1.087-4.333z"></path><path fill="none" d="m742.14 55.556 9.135-2.292 9.134-2.291 9.134-2.292 9.134-2.292 1.081 4.31 1.082 4.31 1.081 4.311 1.082 4.31-9.134 2.292-9.135 2.292-9.134 2.292-9.134 2.291-1.081-4.31-1.082-4.31-1.081-4.31-1.082-4.311z"></path><path fill="none" d="m710.47 84.224 9.17-2.314 9.172-2.313 9.172-2.314 9.171-2.314 1.068 4.255 1.068 4.255 1.067 4.255 1.068 4.254-9.174 2.305-9.174 2.305-9.174 2.305-9.174 2.304-1.065-4.245-1.065-4.246-1.065-4.246-1.066-4.246z"></path><path fill="none" d="m747.155 74.97 9.082-2.28 9.081-2.278 9.082-2.278 9.081-2.279 1.068 4.255 1.067 4.255 1.068 4.255 1.067 4.254-9.081 2.279-9.082 2.278-9.081 2.279-9.081 2.278-1.068-4.254-1.067-4.255-1.068-4.255-1.068-4.255z"></path><path fill="none" d="m715.604 103.227 16.202-4.065 16.201-4.065 16.202-4.065 16.202-4.065.496 1.876.496 1.876.497 1.876.496 1.876-16.226 4.07-16.225 4.072-16.226 4.07-16.226 4.072-.472-1.882-.473-1.882-.472-1.882-.472-1.882z"></path><path fill="none" d="m719.478 120.514 9.252-2.326 9.251-2.326 9.252-2.327 9.252-2.326 1.355 5.401 1.355 5.401 1.355 5.401 1.355 5.4-9.253 2.322-9.253 2.321-9.253 2.321-9.253 2.321-1.354-5.396-1.354-5.396-1.353-5.395-1.354-5.396z"></path><path fill="none" d="m756.485 111.21 9.034-2.267 9.035-2.267 9.034-2.267 9.035-2.266 1.355 5.4 1.355 5.401 1.355 5.401 1.355 5.401-9.035 2.267-9.034 2.267-9.034 2.266-9.035 2.267-1.355-5.401-1.355-5.4-1.355-5.402-1.355-5.4z"></path><path d="m725.529 144.296 9.235-2.338L744 139.62l9.235-2.339 9.235-2.338 1.123 4.468 1.122 4.469 1.122 4.469 1.122 4.468s-2.323.61-5.807 1.517-8.127 2.115-12.77 3.31-9.281 2.378-12.756 3.24-5.786 1.4-5.769 1.306-.245-1.259-.648-2.954-.945-3.92-1.49-6.133-1.093-4.415-1.504-6.063l-.686-2.744Z" fill="none"></path><path fill="none" d="m762.47 134.943 9.02-2.263 9.021-2.264 9.02-2.263 9.021-2.263 1.122 4.469 1.123 4.468 1.122 4.469 1.122 4.468-9.02 2.263-9.02 2.264-9.021 2.263-9.02 2.263-1.123-4.469-1.122-4.468-1.122-4.469-1.123-4.468z"></path><path fill="none" d="m729.857 162.19 9.276-2.343 9.275-2.343 9.276-2.344 9.275-2.343 1.215 4.842 1.215 4.842 1.215 4.842 1.215 4.842-9.28 2.327-9.28 2.327-9.28 2.327-9.279 2.327-1.21-4.826-1.211-4.826-1.211-4.825-1.211-4.826z"></path><path fill="none" d="m766.96 152.817 9.02-2.263 9.02-2.263 9.02-2.264 9.021-2.263 1.215 4.842 1.215 4.842 1.215 4.842 1.215 4.842-9.021 2.263-9.02 2.264-9.02 2.263-9.021 2.263-1.215-4.842-1.215-4.842-1.215-4.842-1.215-4.842z"></path><path fill="none" d="m735.618 183.458 9.172-2.269 9.172-2.268 9.172-2.268 9.172-2.268 1.071 4.266 1.072 4.266 1.071 4.267 1.072 4.267-9.198 2.275-9.197 2.275-9.198 2.275-9.198 2.275-1.045-4.358-1.046-4.357-1.046-4.358-1.046-4.358"></path><path fill="none" d="m772.306 174.385 9.062-2.274 9.063-2.274 9.062-2.274 9.063-2.273 1.075 4.265 1.075 4.266 1.075 4.265 1.075 4.266-9.066 2.275-9.066 2.274-9.066 2.275-9.066 2.275-1.072-4.267-1.071-4.267-1.072-4.266-1.071-4.267z"></path><path fill="none" d="m739.801 200.551 9.198-2.275 9.198-2.275 9.197-2.275 9.198-2.275 1.076 4.29 1.076 4.29 1.077 4.289 1.076 4.29-9.193 2.295-9.192 2.294-9.193 2.295-9.193 2.295-1.08-4.31-1.082-4.309-1.081-4.31-1.082-4.309z"></path><path fill="none" d="m776.592 191.45 9.066-2.274 9.066-2.275 9.066-2.274 9.066-2.275 1.076 4.29 1.077 4.29 1.076 4.29 1.076 4.29-9.066 2.274-9.066 2.275-9.066 2.274-9.066 2.275-1.076-4.29-1.077-4.29-1.076-4.29-1.076-4.29z"></path><path fill="none" d="m746.375 227.33 9.167-2.287 9.167-2.288 9.167-2.288 9.167-2.288 1.063 4.236 1.063 4.236 1.062 4.235 1.063 4.236-9.134 2.297-9.134 2.298-9.135 2.297-9.134 2.298-1.095-4.246-1.096-4.245-1.095-4.245-1.096-4.246z"></path><path fill="none" d="m783.043 218.18 9.101-2.296 9.101-2.296 9.101-2.296 9.101-2.295 1.079 4.244 1.078 4.244 1.078 4.244 1.079 4.244-9.117 2.287-9.117 2.287-9.116 2.288-9.117 2.287-1.063-4.236-1.062-4.235-1.063-4.236-1.063-4.236z"></path><path fill="none" d="m752.526 250.7 9.048-2.271 9.049-2.27 9.049-2.27 9.048-2.27 1.145 4.574 1.144 4.574 1.145 4.575 1.145 4.574-9.066 2.259-9.065 2.258-9.065 2.258-9.065 2.259-1.128-4.563-1.128-4.562-1.128-4.563-1.128-4.563z"></path><path fill="none" d="m824.35 228.065 1.418 5.66 1.42 5.658 1.418 5.66 1.42 5.659-9.182 2.303-9.182 2.304-9.182 2.304-9.181 2.303-1.417-5.66-1.417-5.66-1.417-5.659-1.417-5.66 9.18-2.303 9.18-2.303 9.179-2.303 9.18-2.303z"></path><path fill="none" d="m757.038 268.95 9.065-2.259 9.065-2.258 9.065-2.258 9.066-2.259 1.094 4.361 1.094 4.361L796.58 273l1.094 4.361-9.059 2.283-9.06 2.282-9.059 2.282-9.059 2.282-1.1-4.385-1.1-4.385-1.1-4.384-1.1-4.385z"></path><path fill="none" d="m793.299 259.916 9.181-2.303 9.182-2.304 9.182-2.304 9.182-2.303 1.094 4.36 1.094 4.362 1.094 4.36 1.094 4.362-9.181 2.303-9.182 2.304-9.182 2.304-9.182 2.303-1.094-4.36-1.094-4.362-1.094-4.36-1.094-4.362z"></path><path fill="none" d="m762.16 288.655 9.073-2.282 9.072-2.282 9.072-2.283 9.073-2.282 1.263 4.972 1.264 4.972 1.264 4.972 1.264 4.972-9.103 2.273-9.104 2.273-9.103 2.273-9.103 2.273-1.233-4.963-1.233-4.962-1.233-4.963-1.233-4.963z"></path><path fill="none" d="m798.45 279.526 9.145-2.295 9.145-2.294 9.145-2.295 9.145-2.294 1.249 4.976 1.248 4.976 1.248 4.976 1.249 4.976-9.13 2.29-9.13 2.291-9.13 2.29-9.129 2.291-1.264-4.972-1.264-4.972-1.264-4.972-1.263-4.972z"></path><path fill="none" d="m767.092 308.506 9.103-2.273 9.103-2.273 9.104-2.273 9.103-2.273 1.222 4.87 1.221 4.868 1.222 4.869 1.221 4.868-9.1 2.288-9.099 2.288-9.1 2.288-9.099 2.288-1.047-4.22-1.047-4.22-1.047-4.219-1.047-4.22-.178-.663-.179-.665-.178-.664-.178-.664z"></path><path fill="none" d="m803.505 299.414 9.13-2.29 9.13-2.291 9.13-2.29 9.129-2.291 1.221 4.869 1.222 4.868 1.222 4.87 1.221 4.868-9.13 2.29-9.13 2.291-9.129 2.29-9.13 2.291-1.221-4.868-1.222-4.87-1.221-4.868-1.222-4.869z"></path><path fill="none" d="m772.314 329.996 9.079-2.267 9.079-2.267 9.08-2.268 9.078-2.267 1.25 4.97 1.25 4.971 1.249 4.97 1.25 4.971-9.112 2.26-9.112 2.26-9.112 2.26-9.112 2.26-1.217-4.964-1.217-4.963-1.216-4.963-1.217-4.963z"></path><path fill="none" d="m808.63 320.927 9.167-2.3 9.166-2.3 9.167-2.3 9.167-2.3 1.247 4.972 1.247 4.971 1.247 4.971 1.248 4.971-9.165 2.3-9.164 2.299-9.164 2.3-9.165 2.298-1.25-4.97-1.249-4.97-1.25-4.971-1.249-4.97z"></path><path fill="none" d="m777.46 349.779 9.042-2.242 9.042-2.243 9.042-2.242 9.042-2.243 1.23 4.905 1.231 4.904 1.23 4.904 1.231 4.904-8.999 2.343-8.998 2.343-9 2.343-8.998 2.342-1.274-5.004-1.273-5.005-1.274-5.004-1.274-5.005z"></path><path fill="none" d="m855.47 351.163-9.23 2.316-9.23 2.316-9.23 2.316-9.23 2.315-1.23-4.904-1.23-4.904-1.231-4.904-1.23-4.905 9.23-2.315 9.23-2.316 9.23-2.316 9.23-2.316 1.23 4.905 1.23 4.904 1.23 4.904 1.231 4.904z"></path><path fill="none" d="m665.793 80.867-9.095 2.282-9.096 2.282-9.095 2.282-9.095 2.282-1.394-5.488-1.394-5.489-1.394-5.488-1.394-5.488 9.131-2.29 9.131-2.292 9.131-2.29 9.131-2.292 1.359 5.497 1.358 5.498 1.358 5.497 1.358 5.497"></path><path fill="none" d="m592.959 99.207-1.275-5.084-1.274-5.084-1.275-5.084-1.274-5.084.251-.514.252-.514.251-.513.251-.514 8.743-2.194 8.742-2.193 8.742-2.194 8.743-2.193 1.394 5.488 1.394 5.488 1.394 5.489 1.394 5.488-9.113 2.303-9.114 2.303-9.113 2.303-9.113 2.303z"></path><path fill="none" d="m665.793 80.867 1.092 4.355 1.093 4.356 1.093 4.355 1.093 4.355-9.096 2.282-9.095 2.282-9.095 2.282-9.095 2.282-1.093-4.355-1.092-4.356-1.093-4.355-1.093-4.355 9.095-2.282 9.095-2.282 9.096-2.282 9.095-2.282z"></path><path fill="none" d="m592.959 99.207 9.113-2.303 9.113-2.303 9.114-2.303 9.113-2.303 1.093 4.355 1.093 4.355 1.092 4.356 1.093 4.355-9.117 2.29-9.116 2.29-9.117 2.29-9.117 2.289-1.089-4.342-1.09-4.342-1.089-4.342-1.09-4.342z"></path><path fill="none" d="m675.157 117.165-9.172 2.301-9.172 2.302-9.172 2.3-9.172 2.302-1.048-4.177-1.048-4.177-1.048-4.178-1.048-4.177 9.128-2.331 9.128-2.332 9.128-2.331 9.128-2.332 1.092 4.208 1.092 4.207 1.092 4.208 1.092 4.207z"></path><path fill="none" d="m597.883 118.771 9.098-2.277 9.099-2.278 9.099-2.277 9.098-2.278 1.048 4.177 1.048 4.178 1.048 4.177 1.048 4.177-9.1 2.272-9.1 2.273-9.1 2.272-9.1 2.272-1.046-4.172-1.047-4.172-1.046-4.172-1.047-4.172z"></path><path fill="none" d="m602.07 135.46 48.513-12.093.495 2.1 14.407-3.605-.524-2.114 10.196-2.583 4.865 19.362-6.075 1.524-.554-2.29-19.695 4.865.522 2.375-8.384 2.103-.576-2.33-38.897 9.8-4.293-17.115z"></path><path d="m680.022 136.527 1.058 4.215 1.057 4.214 1.058 4.215 1.057 4.215.02.082.021.082.021.082.02.082-5.716 1.434-12.58 3.156-12.581 3.156-5.726 1.437c-.004 0-.277-1.076-.684-2.692l-1.492-5.925-1.488-5.927c-.405-1.617-.677-2.694-.677-2.694l9.158-2.283 9.158-2.283 9.158-2.283 9.158-2.283Z" fill="none"></path><path fill="none" d="m606.928 154.808 9.116-2.287 9.115-2.287 9.116-2.287 9.115-2.288 1.086 4.31 1.085 4.31 1.085 4.309 1.085 4.309-9.123 2.289-9.123 2.289-9.123 2.289-9.123 2.289-1.078-4.312-1.077-4.31-1.078-4.312-1.078-4.311z"></path><path fill="none" d="m688.887 171.858-9.146 2.315-9.146 2.315-9.146 2.315-9.146 2.315-1.143-4.555-1.143-4.555-1.143-4.556-1.143-4.555 9.151-2.296 9.151-2.296 9.15-2.295 9.152-2.296 1.138 4.536 1.138 4.536 1.138 4.536 1.138 4.536z"></path><path fill="none" d="m611.239 172.053 9.123-2.29 9.123-2.288 9.123-2.29 9.123-2.288 1.143 4.555 1.143 4.556 1.143 4.555 1.143 4.555-9.123 2.29-9.123 2.288-9.123 2.289-9.123 2.289-1.143-4.555-1.143-4.556-1.143-4.555-1.143-4.555z"></path><path fill="none" d="m693.952 190.855-9.23 2.31-9.23 2.309-9.231 2.309-9.23 2.31-1.05-4.21-1.051-4.21-1.05-4.21-1.05-4.21 9.134-2.322 9.135-2.322 9.134-2.321 9.135-2.322 1.146 4.223 1.146 4.222 1.146 4.222 1.146 4.222z"></path><path fill="none" d="m616.373 192.399 9.114-2.287 9.114-2.286 9.114-2.287 9.114-2.287 1.05 4.21 1.051 4.21 1.05 4.21 1.05 4.21-9.113 2.287-9.113 2.286-9.113 2.287-9.114 2.286-1.05-4.143-1.052-4.143-1.05-4.143-1.052-4.143v-.267z"></path><path fill="none" d="m657.03 200.092 9.23-2.309 9.231-2.31 9.23-2.309 9.231-2.31 1.086 4.328 1.086 4.328 1.085 4.328 1.086 4.327-9.228 2.318-9.229 2.317-9.228 2.318-9.228 2.318-1.088-4.336-1.088-4.336-1.088-4.336-1.087-4.336z"></path><path fill="none" d="m620.577 209.238 9.114-2.286 9.113-2.287 9.113-2.286 9.114-2.287 1.087 4.336 1.088 4.336 1.088 4.336 1.088 4.336-9.113 2.286-9.114 2.287-9.113 2.286-9.113 2.287-1.088-4.336-1.088-4.336-1.088-4.336-1.088-4.336z"></path><path fill="none" d="m625.5 228.87 9.097-2.283 9.097-2.283 9.098-2.282 9.098-2.283 1.11 4.43 1.112 4.428 1.111 4.429 1.111 4.428-9.102 2.284-9.102 2.284-9.102 2.284-9.102 2.283-1.107-4.43-1.107-4.43-1.106-4.43-1.107-4.43z"></path><path fill="none" d="m629.926 246.59 9.102-2.284 9.102-2.284 9.102-2.284 9.102-2.284 1.108 4.237 1.107 4.236 1.107 4.236 1.107 4.236-9.144 2.294-9.144 2.294-9.144 2.294-9.143 2.294-1.066-4.246-1.065-4.247-1.066-4.246-1.065-4.247z"></path><path fill="none" d="m716.345 282.938-9.08 2.278-9.08 2.278-9.08 2.278-9.08 2.279-1.187-4.728-1.186-4.727-1.186-4.728-1.186-4.727 9.101-2.28 9.102-2.282 9.1-2.28 9.102-2.281 1.165 4.73 1.165 4.73 1.165 4.73 1.165 4.73z"></path><path fill="none" d="m638.841 282.284 9.11-2.286 9.11-2.286 9.11-2.285 9.11-2.286 1.324 5.28 1.325 5.28 1.324 5.28 1.325 5.28-9.112 2.287-9.113 2.286-9.112 2.286-9.112 2.286-1.322-5.28-1.323-5.281-1.322-5.28-1.322-5.281z"></path><path fill="none" d="m721.74 303.659-9.114 2.266-9.114 2.267-9.115 2.266-9.114 2.267-1.176-4.616-1.176-4.616-1.176-4.616-1.176-4.616 9.132-2.273 9.131-2.274 9.132-2.274 9.132-2.273 1.158 4.623 1.16 4.623 1.158 4.623 1.159 4.623z"></path><path fill="none" d="m644.13 303.406 9.112-2.286 9.112-2.286 9.113-2.286 9.112-2.287 1.176 4.616 1.176 4.616 1.176 4.616 1.176 4.616-9.14 2.293-9.14 2.293-9.14 2.294-9.141 2.293-1.148-4.623-1.148-4.623-1.148-4.623-1.148-4.623z"></path><path fill="none" d="m721.74 303.659 1.012 4.264 1.012 4.265 1.011 4.264 1.012 4.265-9.06 2.254-9.058 2.254-9.06 2.254-9.059 2.254-1.067-4.252-1.066-4.252-1.067-4.252-1.067-4.252 9.114-2.267 9.115-2.266 9.114-2.267 9.115-2.266z"></path><path fill="none" d="m648.722 321.898 9.14-2.293 9.14-2.294 9.14-2.293 9.14-2.293 1.068 4.252 1.067 4.252 1.066 4.252 1.067 4.252-9.14 2.294-9.14 2.293-9.14 2.293-9.14 2.293-1.068-4.252-1.066-4.252-1.067-4.252-1.067-4.252z"></path><path fill="none" d="m726.6 322.988 1.111 4.334 1.11 4.334 1.11 4.334 1.111 4.335-9.128 2.27-9.128 2.268-9.128 2.27-9.128 2.27-1.09-4.345-1.09-4.345-1.09-4.345-1.09-4.345 9.107-2.259 9.108-2.258 9.108-2.26 9.108-2.258z"></path><path fill="none" d="m653.556 341.21 9.154-2.297 9.153-2.297 9.153-2.296 9.154-2.297 1.09 4.345 1.09 4.345 1.09 4.345 1.09 4.344-9.15 2.296-9.148 2.295-9.15 2.296-9.148 2.295-1.095-4.343-1.094-4.344-1.094-4.344-1.095-4.344z"></path><path fill="none" d="m735.302 357.484-9.104 2.284-9.104 2.284-9.104 2.284-9.104 2.284-1.09-4.304-1.088-4.305-1.09-4.304-1.088-4.305 9.128-2.27 9.128-2.269 9.128-2.269 9.128-2.27 1.065 4.29 1.065 4.29 1.065 4.29 1.065 4.29z"></path><path fill="none" d="m657.934 358.584 9.149-2.295 9.149-2.296 9.149-2.295 9.149-2.296 1.089 4.305 1.089 4.304 1.089 4.305 1.089 4.304.126.5.127.5.126.5.127.5-9.155 2.297-9.155 2.297-9.155 2.297-9.155 2.297-1.21-4.806-1.21-4.806-1.209-4.806-1.21-4.806z"></path><path fill="none" d="m735.83 359.602 1.112 4.465 1.113 4.464 1.113 4.464 1.113 4.464-9.093 2.291-9.093 2.291-9.093 2.291-9.093 2.291-1.13-4.5-1.129-4.501-1.129-4.501-1.13-4.5 9.11-2.255 9.11-2.255 9.109-2.254 9.11-2.255z"></path><path fill="none" d="m662.772 377.808 9.155-2.297 9.155-2.297 9.155-2.297 9.155-2.297 1.129 4.501 1.13 4.5 1.128 4.501 1.13 4.5-9.155 2.298-9.156 2.297-9.155 2.297-9.155 2.297-1.129-4.5-1.129-4.501-1.13-4.501-1.128-4.5z"></path><path fill="none" d="m516.368 121.207 8.22-2.062 8.218-2.062 8.22-2.062 8.219-2.063.847-.088.846-.09.847-.088.847-.09 1.048 4.178 1.048 4.178 1.049 4.177 1.048 4.178-9.037 2.267-9.037 2.267-9.037 2.268-9.037 2.267-1.077-4.294-1.077-4.293-1.078-4.294-1.077-4.294z"></path><path fill="none" d="m521.144 140.466 9.091-2.28 9.091-2.282 9.091-2.28 9.092-2.281 1.078 4.299 1.079 4.299 1.079 4.299 1.078 4.3-9.09 2.28-9.092 2.281-9.091 2.28-9.092 2.282-1.078-4.3-1.079-4.298-1.079-4.3-1.078-4.299z"></path><path fill="none" d="m525.458 157.663 9.092-2.281 9.09-2.281 9.092-2.281 9.091-2.28 1.073 4.277 1.074 4.277 1.073 4.278 1.073 4.277-9.091 2.281-9.091 2.281-9.091 2.281-9.092 2.281-1.073-4.277-1.073-4.278-1.073-4.278-1.074-4.277z"></path><path fill="none" d="m529.751 174.773 9.092-2.28 9.09-2.282 9.092-2.28 9.091-2.282 1.077 4.294 1.078 4.294 1.077 4.294 1.077 4.293-9.1 2.272-9.101 2.272-9.101 2.272-9.101 2.272-1.068-4.285-1.067-4.284-1.068-4.285-1.068-4.285z"></path><path fill="none" d="m534.736 194.239 9.092-2.281 9.09-2.281 9.092-2.281 9.091-2.28 1.079 4.298 1.079 4.3 1.078 4.298 1.079 4.3-9.091 2.28-9.092 2.282-9.09 2.28-9.092 2.281-1.079-4.299-1.078-4.299-1.079-4.299-1.079-4.3z"></path><path fill="none" d="m539.051 211.435 9.091-2.28 9.091-2.281 9.092-2.281 9.09-2.281 1.074 4.277 1.073 4.278 1.074 4.277 1.073 4.278-9.091 2.281-9.092 2.28-9.09 2.282-9.092 2.28-1.073-4.277-1.073-4.277-1.074-4.278-1.073-4.278z"></path><path fill="none" d="m543.344 228.546 9.091-2.281 9.091-2.281 9.092-2.281 9.09-2.281 1.078 4.294 1.077 4.293 1.078 4.294 1.077 4.294-9.091 2.28-9.091 2.282-9.092 2.28-9.09 2.282-1.078-4.294-1.077-4.294-1.078-4.293-1.077-4.294z"></path><path fill="none" d="m548.255 247.739 9.091-2.281 9.091-2.281 9.092-2.281 9.09-2.28 1.08 4.298 1.078 4.3 1.079 4.298 1.078 4.3-9.09 2.28-9.092 2.282-9.091 2.28-9.091 2.281-1.08-4.299-1.078-4.299-1.078-4.299-1.08-4.3z"></path><path fill="none" d="m552.57 264.935 9.09-2.28 9.092-2.281 9.091-2.281 9.091-2.281 1.074 4.277 1.073 4.278 1.073 4.277 1.073 4.278-9.097 2.288-9.096 2.288-9.097 2.288-9.097 2.288-1.068-4.285-1.067-4.284-1.068-4.285-1.067-4.285z"></path><path fill="none" d="m556.863 282.046 9.09-2.281 9.092-2.281 9.091-2.281 9.091-2.281 1.078 4.294 1.077 4.293 1.077 4.294 1.077 4.294-9.09 2.193-9.092 2.193-9.091 2.193-9.091 2.193-1.078-4.206-1.077-4.206-1.077-4.205-1.077-4.206z"></path><path fill="none" d="m561.81 301.21 9.092-2.28 9.09-2.282 9.092-2.28 9.091-2.281 1.079 4.299 1.079 4.299 1.078 4.299 1.079 4.3-9.091 2.28-9.091 2.281-9.092 2.28-9.09 2.282-1.08-4.3-1.078-4.298-1.079-4.3-1.079-4.299z"></path><path fill="none" d="m566.125 318.407 9.009-2.26 9.009-2.26 9.008-2.26 9.009-2.261.082-.02.083-.022.082-.02.083-.02 1.073 4.277 1.073 4.277 1.074 4.278 1.073 4.277-9.091 2.281-9.092 2.281-9.09 2.281-9.092 2.281-1.073-4.277-1.073-4.278-1.074-4.277-1.073-4.278z"></path><path fill="none" d="m570.418 335.517 9.091-2.28 9.091-2.282 9.092-2.28 9.09-2.282 1.078 4.294 1.077 4.294 1.078 4.294 1.077 4.293-9.091 2.281-9.091 2.281-9.092 2.281-9.09 2.281-1.078-4.294-1.077-4.293-1.078-4.294-1.077-4.294z"></path><path fill="none" d="m575.366 354.858 9.091-2.28 9.091-2.281 9.092-2.281 9.09-2.281 1.08 4.299 1.078 4.299 1.079 4.299 1.078 4.3-9.09 2.28-9.092 2.281-9.091 2.281-9.091 2.281-1.079-4.3-1.079-4.298-1.078-4.3-1.079-4.299z"></path><path fill="none" d="m579.68 372.055 9.092-2.281 9.091-2.28 9.091-2.282 9.091-2.28 1.074 4.277 1.073 4.277 1.073 4.278 1.073 4.278-9.09 2.28-9.092 2.281-9.091 2.281-9.091 2.281-1.074-4.277-1.073-4.278-1.073-4.277-1.073-4.278z"></path><path fill="none" d="m625.615 401.448.001.054.001.055.002.054v.054l-9.203 1.686-9.204 1.685-9.203 1.685-9.204 1.685-1.208-4.81-1.208-4.81-1.208-4.81-1.207-4.81 9.09-2.282 9.092-2.28 9.091-2.281 9.091-2.281 1.32 5.351 1.319 5.352 1.319 5.351 1.319 5.352z"></path><path fill="none" d="m547.57 398.253-1.073-4.278-1.073-4.277-1.074-4.278-1.073-4.277 9.101-2.272 9.101-2.272 9.1-2.272 9.102-2.272 1.073 4.219 1.073 4.218 1.073 4.219 1.074 4.218v.236l-9.101 2.272-9.101 2.272-9.101 2.272-9.1 2.272z"></path><path fill="none" d="m543.277 381.143-1.078-4.3-1.08-4.299-1.078-4.299-1.078-4.299 9.1-2.272 9.101-2.272 9.101-2.272 9.101-2.272 1.079 4.3 1.078 4.299 1.079 4.299 1.079 4.299-9.034 2.25-9.033 2.249-9.034 2.249-9.034 2.249-.067.023-.067.022-.067.023-.068.023z"></path><path fill="none" d="m538.324 361.78-1.078-4.294-1.077-4.294-1.077-4.293-1.077-4.294 9.1-2.272 9.101-2.272 9.101-2.272 9.101-2.272 1.077 4.294 1.078 4.294 1.077 4.293 1.077 4.294-9.1 2.272-9.102 2.272-9.1 2.272-9.101 2.272z"></path><path fill="none" d="m534.015 344.605-1.074-4.278-1.073-4.277-1.073-4.278-1.073-4.277 9.1-2.272 9.101-2.272 9.101-2.272 9.101-2.272 1.073 4.278 1.074 4.277 1.073 4.278 1.073 4.277-9.1 2.272-9.102 2.272-9.1 2.272-9.101 2.272z"></path><path fill="none" d="m529.722 327.495-1.079-4.3-1.079-4.299-1.078-4.299-1.079-4.299 9.1-2.272 9.102-2.272 9.1-2.272 9.101-2.272 1.08 4.3 1.078 4.299 1.078 4.299 1.08 4.299-9.102 2.272-9.1 2.272-9.101 2.272-9.101 2.272z"></path><path fill="none" d="m524.768 308.308-1.077-4.293-1.077-4.294-1.078-4.294-1.077-4.293 9.1-2.272 9.102-2.272 9.1-2.272 9.102-2.272 1.077 4.294 1.077 4.293 1.077 4.294 1.078 4.294-9.101 2.272-9.101 2.272-9.101 2.271-9.1 2.272z"></path><path fill="none" d="m520.46 291.134-1.074-4.278-1.073-4.278-1.074-4.277-1.073-4.278 9.101-2.272 9.1-2.272 9.102-2.272 9.1-2.272 1.074 4.278 1.073 4.278 1.073 4.277 1.074 4.278-9.101 2.272-9.101 2.272-9.101 2.272-9.1 2.272z"></path><path fill="none" d="m516.166 274.023-1.079-4.299-1.078-4.3-1.079-4.298-1.079-4.3 9.101-2.271 9.101-2.272 9.101-2.272 9.1-2.272 1.08 4.299 1.078 4.3 1.079 4.298 1.079 4.3-9.101 2.271-9.101 2.272-9.101 2.272-9.1 2.272z"></path><path fill="none" d="m511.25 254.808-1.078-4.293-1.077-4.294-1.077-4.294-1.077-4.293 9.1-2.272 9.101-2.272 9.101-2.272 9.101-2.272 1.077 4.294 1.078 4.293 1.077 4.294 1.077 4.294-9.1 2.272-9.102 2.272-9.1 2.271-9.101 2.272z"></path><path fill="none" d="m506.94 237.634-1.073-4.278-1.073-4.278-1.073-4.277-1.073-4.278 9.1-2.272 9.101-2.272 9.101-2.272 9.101-2.272 1.073 4.278 1.074 4.278 1.073 4.277 1.073 4.278-9.1 2.272-9.102 2.272-9.1 2.272-9.101 2.272z"></path><path fill="none" d="m502.648 220.523-1.08-4.299-1.078-4.3-1.078-4.298-1.079-4.3 9.1-2.271 9.102-2.272 9.1-2.272 9.101-2.272 1.08 4.299 1.078 4.3 1.078 4.298 1.08 4.3-9.102 2.271-9.1 2.272-9.102 2.272-9.1 2.272z"></path><path fill="none" d="m497.657 201.036-1.077-4.294-1.077-4.294-1.078-4.293-1.077-4.294 9.1-2.272 9.102-2.272 9.1-2.272 9.101-2.272 1.068 4.285 1.068 4.285 1.067 4.284 1.068 4.285-9.091 2.28-9.092 2.282-9.09 2.28-9.092 2.282z"></path><path fill="none" d="m493.348 183.86-1.073-4.277-1.074-4.277-1.073-4.278-1.073-4.277 9.1-2.272 9.102-2.272 9.1-2.272 9.101-2.272 1.074 4.277 1.073 4.278 1.073 4.278 1.073 4.277-9.1 2.272-9.101 2.272-9.101 2.272-9.101 2.272z"></path><path fill="none" d="m489.055 166.75-1.079-4.299-1.078-4.299-1.079-4.299-1.079-4.299 9.101-2.272 9.101-2.272 9.1-2.272 9.102-2.272 1.078 4.3 1.08 4.299 1.078 4.299 1.078 4.299-9.1 2.272-9.101 2.272-9.101 2.272-9.101 2.272z"></path><path fill="none" d="m478.93 126.17 6.899-1.73 6.899-1.731 6.899-1.731 6.898-1.731 2.247-.304 2.246-.303 2.246-.304 2.246-.304 1.292 5.088 1.292 5.087 1.291 5.088 1.292 5.087-9.1 2.272-9.102 2.272-9.1 2.272-9.101 2.272-1.322-5.269-1.322-5.268-1.322-5.269-1.322-5.268-.014-.056-.014-.057-.014-.056-.014-.056z"></path><path fill="none" d="m399.226 138.357 7.672-1.938 7.672-1.937 7.672-1.938 7.672-1.938 1.452-.217 1.452-.216 1.452-.217 1.452-.217 1.2 4.785 1.2 4.785 1.201 4.784 1.2 4.785.015.057.014.058.015.057.014.058-9.14 2.293-9.14 2.293-9.14 2.294-9.14 2.293-1.199-4.981-1.198-4.981-1.199-4.98-1.199-4.982z"></path><path fill="none" d="m441.1 151.11 1.08 4.306 1.08 4.307 1.08 4.306 1.08 4.306-9.194 2.307-9.194 2.307-9.195 2.307-9.194 2.307-1.08-4.307-1.08-4.306-1.081-4.306-1.08-4.306 9.194-2.307 9.194-2.307 9.195-2.307 9.194-2.307z"></path><path fill="none" d="m408.832 177.515 9.147-2.295 9.148-2.295 9.147-2.295 9.147-2.295 1.055 4.207 1.056 4.207 1.056 4.207 1.055 4.207.02.077.018.076.02.077.019.076-9.162 2.299-9.162 2.298-9.161 2.299-9.162 2.298-1.06-4.287-1.06-4.287-1.06-4.287-1.06-4.287z"></path><path fill="none" d="m413.073 194.663 9.162-2.298 9.161-2.299 9.162-2.298 9.162-2.3 1.14 4.545 1.14 4.544 1.14 4.544 1.14 4.544-9.162 2.298-9.161 2.299-9.162 2.299-9.162 2.298-1.14-4.544-1.14-4.544-1.14-4.544-1.14-4.544z"></path><path fill="none" d="m454.812 205.767 1.072 4.272 1.072 4.273 1.072 4.272 1.072 4.273-9.133 2.291-9.134 2.292-9.134 2.291-9.133 2.292-1.072-4.272-1.072-4.273-1.072-4.272-1.072-4.273 9.134-2.291 9.133-2.292 9.134-2.291 9.133-2.292z"></path><path fill="none" d="m459.1 222.857 1.074 4.278 1.073 4.278 1.074 4.279 1.073 4.278-9.14 2.294-9.142 2.293-9.14 2.294-9.141 2.293-1.067-4.28-1.066-4.28-1.066-4.28-1.066-4.281 9.133-2.292 9.134-2.291 9.134-2.292 9.133-2.291z"></path><path fill="none" d="m426.83 249.144 9.142-2.293 9.14-2.294 9.141-2.293 9.141-2.294 1.074 4.281 1.074 4.281 1.074 4.281 1.074 4.281-9.14 2.294-9.141 2.293-9.141 2.293-9.141 2.294-1.074-4.281-1.074-4.281-1.074-4.281-1.074-4.281z"></path><path fill="none" d="m400.065 294.83-1.087-4.333-1.087-4.334-1.088-4.334-1.087-4.334 8.99-2.255 8.99-2.256 8.991-2.256 8.99-2.255 1.083 4.315 1.083 4.316 1.083 4.315 1.083 4.316-8.986 2.274-8.986 2.274-8.986 2.274-8.986 2.273z"></path><path fill="none" d="m468.197 259.134 1.097 4.356 1.097 4.356 1.097 4.356 1.097 4.356-9.144 2.294-9.144 2.294-9.144 2.294-9.144 2.295-1.083-4.316-1.083-4.315-1.083-4.316-1.082-4.315 9.13-2.335 9.13-2.335 9.13-2.334 9.13-2.335z"></path><path fill="none" d="m436.009 285.735 9.144-2.295 9.144-2.294 9.144-2.294 9.144-2.294 1.07 4.302 1.07 4.303 1.07 4.302 1.071 4.303-9.125 2.29-9.126 2.289-9.125 2.29-9.126 2.289-1.089-4.298-1.089-4.298-1.089-4.297-1.088-4.298z"></path><path fill="none" d="m440.364 302.926 9.126-2.29 9.125-2.29 9.126-2.289 9.125-2.29 1.075 4.284 1.075 4.284 1.075 4.284 1.074 4.283-9.125 2.29-9.126 2.29-9.125 2.289-9.126 2.29-1.074-4.284-1.075-4.284-1.075-4.283-1.075-4.284z"></path><path fill="none" d="m481.653 312.927 1.089 4.326 1.089 4.327 1.089 4.327 1.089 4.326-9.11 2.286-9.11 2.286-9.109 2.285-9.11 2.286-1.057-4.273-1.058-4.272-1.057-4.272-1.058-4.273 9.016-2.324 9.016-2.324 9.016-2.324 9.016-2.325"></path><path fill="none" d="m449.57 339.376 9.11-2.286 9.11-2.285 9.11-2.286 9.109-2.286 1.116 4.44 1.117 4.44 1.117 4.44 1.116 4.44-9.1 2.282-9.099 2.283-9.099 2.283-9.1 2.283-1.126-4.437-1.127-4.437-1.127-4.437-1.126-4.437z"></path><path fill="none" d="m454.078 357.124 9.1-2.283 9.098-2.283 9.1-2.283 9.1-2.283 1.045 4.168 1.046 4.169 1.045 4.168 1.046 4.168-9.108 2.25-9.107 2.248-9.108 2.25-9.108 2.249-1.037-4.135-1.038-4.134-1.037-4.134-1.037-4.135z"></path><path fill="none" d="m458.615 375.86 9.142-2.294 9.142-2.294 9.142-2.294 9.141-2.293 1.09 4.271 1.088 4.272 1.089 4.272 1.089 4.271-9.155 2.297-9.155 2.297-9.155 2.297-9.155 2.297-1.076-4.275-1.076-4.275-1.075-4.275-1.076-4.275z"></path><path fill="none" d="m462.918 392.96 9.155-2.298 9.155-2.297 9.155-2.297 9.155-2.297 1.077 4.293 1.077 4.292 1.077 4.293 1.076 4.292-9.156 2.302-9.157 2.303-9.157 2.302-9.157 2.302-1.075-4.298-1.075-4.297-1.075-4.298-1.075-4.298z"></path><path fill="none" d="m467.218 410.15 9.157-2.302 9.157-2.302 9.157-2.303 9.156-2.302 1.214 4.838 1.214 4.838 1.214 4.837 1.214 4.838-9.155 2.297-9.155 2.297-9.155 2.297-9.155 2.297-1.216-4.832-1.215-4.833-1.216-4.832-1.216-4.833z"></path><path fill="none" d="m400.065 294.83 8.986-2.273 8.986-2.274 8.986-2.274 8.986-2.274 1.088 4.298 1.09 4.297 1.088 4.298 1.09 4.298-9 2.26-9 2.26-9 2.261-9 2.26-1.075-4.284-1.075-4.284-1.075-4.284-1.075-4.285z"></path><path fill="none" d="m404.365 311.967 9-2.26 9-2.26 9-2.26 9-2.261 1.063 4.237 1.063 4.238 1.063 4.237 1.063 4.238.017.068.017.068.017.068.017.068-9 2.258-9 2.258-9 2.258-9.001 2.259-1.08-4.304-1.08-4.303-1.08-4.303-1.079-4.304z"></path><path fill="none" d="m409.227 331.347 9.028-2.265 9.029-2.265 9.028-2.265 9.028-2.266 1.058 4.273 1.057 4.272 1.058 4.272 1.058 4.273-9.012 2.274-9.011 2.275-9.012 2.275-9.011 2.275-1.075-4.282-1.074-4.282-1.074-4.282-1.075-4.282z"></path><path fill="none" d="m413.525 348.475 9.011-2.275 9.012-2.275 9.011-2.275 9.012-2.274 1.126 4.437 1.127 4.437 1.127 4.437 1.127 4.437-9.026 2.271-9.026 2.272-9.026 2.27-9.026 2.272-1.112-4.434-1.113-4.433-1.112-4.434-1.112-4.433z"></path><path fill="none" d="m417.974 366.209 9.026-2.271 9.026-2.271 9.026-2.272 9.026-2.27 1.037 4.134 1.037 4.134 1.038 4.134 1.037 4.135-9.028 2.265-9.027 2.265-9.028 2.265-9.027 2.265-1.036-4.129-1.035-4.128-1.036-4.128-1.036-4.128z"></path><path fill="none" d="m422.623 384.753 8.99-2.256 8.99-2.255 8.99-2.256 8.99-2.255 1.083 4.307 1.084 4.307 1.084 4.307 1.084 4.307-8.987 2.259-8.987 2.259-8.987 2.259-8.987 2.258-1.087-4.31-1.087-4.31-1.086-4.31-1.087-4.311z"></path><path fill="none" d="m426.97 401.994 8.987-2.258 8.987-2.26 8.987-2.258 8.987-2.259 1.075 4.298 1.075 4.298 1.075 4.297 1.075 4.298-8.988 2.255-8.987 2.255-8.988 2.255-8.988 2.255-1.074-4.294-1.075-4.294-1.074-4.294-1.074-4.294z"></path><path fill="none" d="m431.267 419.17 8.988-2.255 8.988-2.255 8.988-2.255 8.987-2.255 1.066 4.25 1.067 4.248 1.066 4.25 1.066 4.248-8.988 2.255-8.988 2.255-8.988 2.255-8.988 2.255-1.066-4.249-1.066-4.249-1.066-4.249-1.066-4.249z"></path><path fill="none" d="m322.41 267.465 2.985-3.352 2.985-3.352 2.986-3.353 2.985-3.352 7.049 6.241 7.049 6.24 7.049 6.242 7.049 6.24-3.03 3.402-3.028 3.4-3.029 3.402-3.029 3.401-7.005-6.29-7.006-6.29-7.005-6.29-7.005-6.29z"></path><path fill="none" d="m390.646 304.043-3.029 3.402-3.029 3.4-3.029 3.402-3.029 3.401-7.025-6.256-7.024-6.256-7.025-6.256-7.025-6.256 3.029-3.401 3.029-3.401 3.029-3.401 3.029-3.402 7.025 6.256 7.024 6.256 7.025 6.256 7.025 6.256z"></path><path fill="none" d="m322.41 267.465 7.03 6.261 7.031 6.261 7.03 6.262 7.032 6.261-3.018 3.391-3.018 3.39-3.018 3.392-3.018 3.39-7.03-6.262-7.032-6.264-7.03-6.263-7.032-6.263 3.019-3.39 3.018-3.388 3.018-3.39 3.018-3.388z"></path><path fill="none" d="m378.53 317.648-2.968 3.384-2.967 3.385-2.968 3.384-2.968 3.384-7.042-6.337-7.042-6.338-7.041-6.338-7.042-6.338 2.985-3.302 2.984-3.303 2.985-3.302 2.985-3.303 7.025 6.256 7.025 6.256 7.024 6.256 7.025 6.256z"></path><path fill="none" d="m314.133 287.822 7.003 6.236 7.002 6.236 7.002 6.237 7.003 6.236-3.329 3.737-3.328 3.738-3.33 3.738-3.328 3.738-6.981-6.208-6.982-6.207-6.981-6.207-6.982-6.207 3.308-3.767 3.308-3.767 3.307-3.766 3.308-3.767z"></path><path fill="none" d="m342.143 312.767 7.019 6.25 7.019 6.251 7.019 6.251 7.019 6.25-3.329 3.739-3.329 3.737-3.328 3.738-3.329 3.738-7.019-6.25-7.019-6.252-7.019-6.25-7.019-6.251 3.329-3.738 3.329-3.738 3.328-3.738 3.329-3.737z"></path><path fill="none" d="m298.42 373.69 9.091-2.28 9.091-2.282 9.092-2.28 9.09-2.282 1.065 4.267 1.063 4.268 1.064 4.267 1.064 4.267-9.084 2.284-9.084 2.283-9.083 2.284-9.084 2.283-1.071-4.27-1.071-4.27-1.072-4.27-1.071-4.269z"></path><path fill="none" d="m371.11 355.392 1.073 4.28 1.074 4.28 1.074 4.28 1.073 4.28-9.09 2.28-9.092 2.281-9.091 2.281-9.091 2.281-1.064-4.267-1.064-4.267-1.063-4.268-1.064-4.267 9.081-2.293 9.081-2.294 9.081-2.293 9.081-2.294z"></path><path fill="none" d="m302.705 390.769 9.084-2.283 9.083-2.284 9.084-2.283 9.084-2.284 1.062 4.206 1.062 4.206 1.062 4.207 1.063 4.206-9.092 2.28-9.09 2.282-9.092 2.28-9.091 2.282-1.055-4.204-1.055-4.204-1.054-4.203-1.055-4.204z"></path><path fill="none" d="m339.04 381.635 9.09-2.28 9.092-2.282 9.091-2.28 9.091-2.282 1.073 4.276 1.073 4.276 1.073 4.275 1.073 4.276-9.092 2.28-9.09 2.282-9.092 2.28-9.091 2.282-1.073-4.276-1.073-4.276-1.073-4.275-1.072-4.276z"></path><path fill="none" d="m380.234 391.76 1.074 4.28 1.073 4.28 1.074 4.279 1.074 4.279-9.055 2.257-9.055 2.256-9.055 2.257-9.055 2.257-1.07-4.265-1.07-4.265-1.07-4.265-1.07-4.266 9.05-2.27 9.052-2.272 9.052-2.27 9.051-2.271z"></path><path fill="none" d="m384.529 408.878 1.069 4.26 1.069 4.262 1.069 4.26 1.069 4.261-9.059 2.276-9.058 2.275-9.059 2.276-9.058 2.275-1.066-4.28-1.065-4.279-1.066-4.28-1.065-4.28 9.055-2.256 9.055-2.257 9.055-2.256 9.055-2.257z"></path><path fill="none" d="m388.805 425.921 1.092 4.352 1.092 4.352 1.091 4.352 1.092 4.351-9.059 2.273-9.059 2.273-9.06 2.273-9.058 2.273-1.091-4.35-1.092-4.348-1.09-4.35-1.092-4.349 9.058-2.275 9.059-2.276 9.058-2.275 9.059-2.276z"></path><path fill="none" d="m356.683 451.412-4.405 1.105-4.404 1.105-4.404 1.105-4.405 1.105-2.6-10.367-2.602-10.368-2.601-10.367-2.601-10.368 4.404-1.105 4.404-1.105 4.405-1.105 4.404-1.105 2.601 10.368 2.601 10.367 2.602 10.367 2.6 10.368z"></path><path fill="none" d="m337.114 456.31-4.328 1.085-4.327 1.086-4.327 1.086-4.327 1.085-2.596-10.345-2.596-10.346-2.596-10.346-2.595-10.346 4.327-1.086 4.327-1.086 4.327-1.085 4.328-1.086 2.595 10.346 2.596 10.346 2.596 10.346 2.596 10.346z"></path><path fill="none" d="m319.116 457.906-4.308 1.081-4.307 1.08-4.308 1.082-4.307 1.08-2.419-9.638-2.418-9.639-2.418-9.638-2.418-9.639 4.302-1.101 4.302-1.102 4.302-1.102 4.303-1.101 2.423 9.66 2.424 9.659 2.423 9.659 2.424 9.66z"></path><path fill="none" d="m299.783 462.761-4.294 1.077-4.293 1.078-4.293 1.077-4.293 1.077-2.424-9.659-2.423-9.659-2.424-9.659-2.423-9.659 4.293-1.077 4.293-1.077 4.294-1.077 4.293-1.077 2.423 9.659 2.424 9.658 2.423 9.66 2.424 9.658z"></path><path fill="none" d="m265.533 471.373-2.425-9.664-2.424-9.663-2.425-9.663-2.424-9.663 4.27-1.072 4.27-1.071 4.27-1.071 4.271-1.072 2.423 9.66 2.424 9.658 2.423 9.659 2.424 9.659-4.27 1.076-4.269 1.075-4.27 1.076-4.268 1.076z"></path><path fill="none" d="m250.562 472.266-6.956-6.175-6.955-6.176-6.955-6.175-6.955-6.175 2.953-3.327 2.953-3.326 2.954-3.326 2.953-3.326 6.955 6.175 6.956 6.175 6.955 6.176 6.955 6.175-2.953 3.326-2.954 3.327-2.953 3.326-2.953 3.326z"></path><path fill="none" d="m227.775 476.164-6.965-6.184-6.965-6.184-6.965-6.184-6.965-6.184 2.984-3.361 2.984-3.36 2.984-3.361 2.983-3.36 6.965 6.183 6.965 6.184 6.966 6.184 6.965 6.185-2.984 3.36-2.984 3.36-2.984 3.361-2.983 3.36z"></path><path fill="none" d="m194.002 458.018-3.355-2.978-3.355-2.98-3.355-2.978-3.355-2.979 6.304-7.1 6.303-7.099 6.304-7.1 6.304-7.1 3.355 2.98 3.355 2.978 3.354 2.979 3.355 2.978-6.303 7.1-6.304 7.1-6.304 7.1-6.303 7.1z"></path><path fill="none" d="m170.437 435.21-3.361-2.985-3.362-2.985-3.361-2.984-3.362-2.985 6.252-7.041 6.252-7.041 6.252-7.042 6.251-7.04 3.362 2.984 3.361 2.984 3.362 2.985 3.361 2.984-6.251 7.042-6.252 7.04-6.252 7.042-6.252 7.041z"></path><path fill="none" d="m156.991 423.271-3.629-3.227-3.63-3.227-3.629-3.227-3.63-3.228.344-.376.344-.376.343-.377.343-.376-1.698-1.497-1.699-1.497-1.698-1.497-1.699-1.497 5.908-6.655 5.908-6.654 5.908-6.654 5.908-6.654 5.329 4.714 5.328 4.713 5.328 4.714 5.328 4.713-6.251 7.041-6.252 7.042-6.252 7.04-6.252 7.042z"></path><path fill="none" d="m257.657 239.45 7.917 7.05 7.917 7.051 7.917 7.05 7.917 7.052-3.361 3.743-3.362 3.743-3.361 3.743-3.362 3.743-7.767-6.886-7.766-6.887-7.767-6.886-7.767-6.887.143-.151.144-.152.143-.152.144-.151-.157-.135-.156-.136-.157-.135-.157-.135 3.225-3.62 3.224-3.62 3.224-3.622 3.225-3.62z"></path><path fill="none" d="m189.7 316.16 2.418-2.715 2.42-2.715 2.418-2.716 2.42-2.715 7.902 7.037 7.902 7.037 7.902 7.038 7.902 7.037-3.3 3.697-3.3 3.697-3.299 3.697-3.3 3.697-7.07-6.345-7.071-6.345-7.071-6.345-7.07-6.344.853-.971.853-.97.854-.971.854-.971-.805-.703-.804-.704-.804-.703-.805-.703z"></path><path fill="none" d="m211.141 292.087 7.902 7.038 7.902 7.037 7.903 7.037 7.902 7.038-2.942 3.302-2.941 3.303-2.941 3.303-2.942 3.303-7.902-7.037-7.902-7.038-7.902-7.037-7.902-7.037 2.94-3.303 2.942-3.303 2.942-3.303 2.941-3.303z"></path><path fill="none" d="m864.663 394.416 2.26 8.986 2.26 8.985 2.26 8.986 2.26 8.986-4.256 1.07-4.257 1.071-4.257 1.071-4.257 1.07-2.26-8.985-2.26-8.986-2.26-8.985-2.26-8.986 4.256-1.07 4.257-1.072 4.257-1.07 4.257-1.071z"></path><path fill="none" d="m302.695 163.4 3.203 2.797 3.204 2.797 3.203 2.797 3.204 2.797-6.297 7.013-6.297 7.013-6.296 7.013-6.297 7.013-3.15-2.81-3.15-2.811-3.151-2.811-3.15-2.81 6.243-7 6.244-7 6.243-6.998 6.244-7z"></path><path fill="none" d="m265.328 230.467-3.125-2.786-3.126-2.786-3.125-2.787-3.126-2.786 6.224-6.981 6.223-6.982 6.224-6.98 6.224-6.982 3.15 2.81 3.15 2.812 3.15 2.81 3.15 2.811-6.248 6.957-6.248 6.957-6.248 6.957-6.249 6.956z"></path><path fill="none" d="m302.695 163.4-6.244 7-6.243 6.999-6.244 6.999-6.243 7-3.358-2.96-3.358-2.96-3.358-2.959-3.358-2.96 6.304-7 6.303-7 6.304-7 6.303-7 3.298 2.96 3.298 2.961 3.298 2.96 3.298 2.96z"></path><path fill="none" d="m239.425 207.382 6.216-6.956 6.216-6.955 6.216-6.956 6.216-6.955 3.196 2.851 3.196 2.852 3.197 2.852 3.196 2.852.162.107.161.108.162.107.162.108-6.224 6.981-6.224 6.981-6.223 6.982-6.224 6.98-3.35-2.984-3.35-2.985-3.35-2.985-3.35-2.985z"></path><path fill="none" d="m240.525 206.148-3.287-2.93-3.286-2.93-3.286-2.93-3.287-2.929 7.864-8.816 7.864-8.816 7.864-8.816 7.863-8.815 3.254 2.88 3.254 2.88 3.254 2.88 3.254 2.88v.324l-7.832 8.785-7.83 8.785-7.832 8.784-7.831 8.784z"></path><path fill="none" d="m173.61 226.607 1.27-1.426 1.27-1.426 1.27-1.426 1.27-1.427.186.22.186.219.187.22.186.219.131-.108.131-.108.132-.108.131-.107 3.17 2.822 3.168 2.822 3.17 2.823 3.169 2.822-1.355 1.522-1.356 1.521-1.355 1.522-1.355 1.522-3.402-3.03-3.401-3.029-3.402-3.03-3.402-3.029z"></path><path fill="none" d="m155.802 234.249 2.918-3.276 2.918-3.277 2.918-3.276 2.918-3.277 7.002 6.236 7.002 6.236 7.002 6.236 7.002 6.236-2.917 3.276-2.918 3.277-2.918 3.276-2.918 3.277-7.002-6.236-7.003-6.236-7.002-6.236-7.002-6.236z"></path><path fill="none" d="m145.705 301.967-2.963 3.328-2.963 3.328-2.963 3.328-2.963 3.328-7-6.234-6.999-6.233-7-6.234-7-6.233 2.961-3.33 2.96-3.33 2.96-3.331 2.96-3.33 7.003 6.236 7.002 6.235 7.003 6.236 7.002 6.236z"></path><path fill="none" d="m63.605 279.565 2.925-3.362 2.924-3.362 2.925-3.362 2.925-3.362 7.046 6.29 7.045 6.292 7.046 6.29 7.046 6.292-2.947 3.309-2.948 3.31-2.947 3.309-2.947 3.309-7.023-6.238-7.023-6.239-7.024-6.238-7.023-6.238z"></path><path fill="none" d="m103.487 291.28 7 6.234 6.999 6.234 7 6.233 6.999 6.234-2.947 3.309-2.947 3.31-2.948 3.309-2.947 3.31-7-6.234-6.999-6.234-7-6.233-6.999-6.234 2.947-3.31 2.947-3.309 2.948-3.31 2.947-3.308z"></path><path fill="none" d="m63.605 279.565 7.023 6.238 7.024 6.238 7.023 6.239 7.023 6.238-2.95 3.31-2.95 3.311-2.95 3.311-2.95 3.31-7.016-6.269-7.017-6.269-7.017-6.27-7.017-6.269 2.943-3.28 2.944-3.28 2.944-3.279 2.943-3.28z"></path><path fill="none" d="m91.698 304.518 7 6.234 7 6.233 6.999 6.234 7 6.233-2.958 3.305-2.957 3.304-2.957 3.304-2.956 3.305-6.993-6.228-6.993-6.227-6.992-6.227-6.993-6.227 2.95-3.31 2.95-3.312 2.95-3.31 2.95-3.311z"></path><path fill="none" d="m79.898 317.76-3.286 3.664-3.287 3.662-3.287 3.663-3.286 3.663-6.986-6.229-6.987-6.228-6.986-6.229-6.986-6.228 3.256-3.704 3.256-3.704 3.256-3.703 3.256-3.704 7.017 6.27 7.017 6.269 7.017 6.27 7.016 6.269z"></path><path fill="none" d="m78.567 319.145 7.007 6.241 7.008 6.24 7.007 6.241 7.008 6.241-2.954 3.317-2.954 3.316-2.953 3.317-2.954 3.317-7.007-6.241-7.008-6.24-7.008-6.241-7.007-6.24 2.953-3.318 2.954-3.316 2.954-3.317 2.954-3.317z"></path><path fill="none" d="m26.992 320.551 2.953-3.263 2.954-3.264 2.954-3.263 2.954-3.263 6.986 6.228 6.986 6.229 6.987 6.228 6.986 6.23-2.93 3.277-2.93 3.278-2.929 3.278-2.93 3.278-7.01-6.243-7.01-6.243-7.011-6.243-7.01-6.244z"></path><path fill="none" d="m66.752 332.412 7.007 6.24 7.008 6.241 7.008 6.241 7.007 6.24-2.925 3.283-2.925 3.282-2.925 3.282-2.924 3.283-7.013-6.245-7.012-6.245-7.012-6.245-7.013-6.245 2.93-3.278 2.93-3.278 2.93-3.278 2.929-3.278z"></path><path fill="none" d="m26.988 320.47 7.033 6.263 7.033 6.264 7.034 6.263 7.033 6.264-3.244 3.633-3.244 3.633-3.244 3.632-3.244 3.633-7.029-6.259-7.028-6.26-7.028-6.259-7.029-6.259 1.87-2.031 1.87-2.031 1.87-2.032 1.87-2.03 1.369-1.607 1.37-1.606 1.368-1.606 1.37-1.606z"></path><path fill="none" d="m53.497 347.21 7.804 6.95 7.804 6.95 7.804 6.95 7.804 6.95-2.859 3.21-2.859 3.21-2.859 3.21-2.859 3.21-7.805-6.948-7.805-6.95-7.805-6.948-7.805-6.949 2.86-3.211 2.86-3.211 2.86-3.212 2.86-3.211z"></path><path fill="none" d="m154.38 235.825 7.001 6.236 7.003 6.235 7.002 6.236 7.002 6.236-2.918 3.277-2.918 3.276-2.918 3.277-2.918 3.276-7.002-6.236-7.002-6.236-7.002-6.235-7.003-6.236 2.918-3.277 2.918-3.276 2.918-3.277 2.918-3.276z"></path><path fill="none" d="m17.234 338.064 7 6.235 7 6.235 7 6.235 7 6.235-2.973 3.336-2.973 3.336-2.974 3.336-2.973 3.336-6.48-5.78-6.481-5.779-6.48-5.779-6.48-5.779-.135-.899-.134-.9-.135-.898-.134-.9 2.588-2.892 2.588-2.893 2.588-2.893 2.588-2.892z"></path><path fill="none" d="m45.234 363.004 7.011 6.211 7.01 6.212 7.012 6.212 7.01 6.212-3.034 3.414-3.035 3.414-3.035 3.414-3.035 3.415-6.949-6.29-6.95-6.29-6.949-6.29-6.95-6.29 2.974-3.336 2.974-3.336 2.973-3.336 2.973-3.336z"></path><path fill="none" d="m130.866 262.252 2.96-3.33 2.96-3.33 2.961-3.331 2.96-3.33 7.003 6.236 7.002 6.235 7.002 6.236 7.002 6.236-2.963 3.328-2.962 3.328-2.963 3.328-2.963 3.328-7-6.234-7-6.233-7-6.234-6.999-6.233z"></path><path fill="none" d="m129.368 263.918 7.002 6.236 7.002 6.235 7.002 6.236 7.002 6.236-2.917 3.277-2.918 3.276-2.918 3.277-2.918 3.276-7.002-6.236-7.003-6.236-7.002-6.235-7.002-6.236 2.918-3.277 2.918-3.276 2.918-3.277 2.918-3.276z"></path><path fill="none" d="m866.626 393.743 4.267-1.072 4.267-1.072 4.266-1.072 4.267-1.072 2.232 8.955 2.233 8.954 2.232 8.954 2.233 8.955-4.24 1.103-4.238 1.103-4.239 1.104-4.238 1.103-2.26-8.986-2.26-8.985-2.261-8.986-2.26-8.986z"></path><path fill="none" d="m883.64 389.647 4.38-1.092 4.38-1.092 4.38-1.092 4.38-1.092 2.201 8.94 2.201 8.941 2.201 8.94 2.201 8.94-4.349 1.107-4.348 1.106-4.349 1.106-4.348 1.106-2.233-8.955-2.232-8.954-2.232-8.954-2.233-8.955z"></path><path fill="none" d="m736.588 426.649 4.216-1.061 4.216-1.06 4.216-1.061 4.216-1.06 2.26 8.985 2.26 8.986 2.261 8.986 2.26 8.985-4.216 1.06-4.215 1.061-4.216 1.06-4.216 1.061-2.26-8.985-2.26-8.986-2.261-8.986-2.26-8.985z"></path><path fill="none" d="m701.69 48.605 9.098-2.308 9.098-2.307 9.097-2.308 9.098-2.307 1.015 4.045 1.015 4.045 1.015 4.046 1.014 4.045-9.104 2.274-9.105 2.273-9.105 2.274-9.104 2.273-1.008-4.01-1.008-4.012-1.007-4.012-1.008-4.011z"></path><path fill="none" d="m774.619 30.207 1.014 4.046 1.015 4.045 1.014 4.046 1.015 4.045-9.134 2.292-9.134 2.292-9.134 2.291-9.135 2.292-1.014-4.045-1.015-4.046-1.015-4.045-1.015-4.045 9.134-2.292 9.135-2.292 9.134-2.292 9.135-2.292z"></path><path fill="none" d="m547.57 398.253 9.101-2.272 9.1-2.272 9.102-2.272 9.1-2.272 1.208 4.81 1.208 4.81 1.208 4.81 1.208 4.811-7.228 1.373-7.229 1.373-7.228 1.372-7.229 1.373-.024-.086-.025-.087-.024-.086-.024-.086-1.979.469-1.979.469-1.978.469-1.979.469-1.077-4.294-1.077-4.294-1.078-4.293-1.077-4.294z"></path><path fill="none" d="m265.719 293.601.057.052.058.051.058.051.057.052-4.121 4.64-4.122 4.64-4.122 4.641-4.122 4.64-7.878-7.005-7.878-7.005-7.879-7.005-7.878-7.006 4.133-4.64 4.133-4.642 4.133-4.64 4.134-4.642 7.809 6.955 7.81 6.954 7.808 6.955 7.81 6.954z"></path><path fill="none" d="m825.842 404.18 2.26 8.987 2.26 8.985 2.261 8.986 2.26 8.986-4.176 1.05-4.177 1.051-4.176 1.05-4.176 1.051-2.26-8.986-2.261-8.985-2.26-8.986-2.26-8.986 4.176-1.05 4.176-1.051 4.177-1.05 4.176-1.051z"></path><path fill="none" d="m791.93 412.727 4.302-1.086 4.301-1.086 4.302-1.086 4.301-1.086 2.26 8.986 2.26 8.986 2.261 8.985 2.26 8.986-4.3 1.086-4.302 1.086-4.302 1.086-4.301 1.086-2.26-8.985-2.26-8.986-2.261-8.986-2.26-8.986z"></path><path fill="none" d="m772.787 417.543 4.261-1.072 4.261-1.072 4.261-1.072 4.261-1.071 2.26 8.985 2.26 8.986 2.261 8.986 2.26 8.985-4.26 1.072-4.262 1.072-4.26 1.072-4.262 1.072-2.26-8.986-2.26-8.986-2.26-8.985-2.26-8.986z"></path><path fill="none" d="m772.787 417.543 2.26 8.986 2.26 8.985 2.261 8.986 2.26 8.986-4.291 1.08-4.292 1.079-4.292 1.08-4.292 1.08-2.26-8.987-2.26-8.985-2.26-8.986-2.26-8.986 4.29-1.08 4.293-1.079 4.291-1.08 4.292-1.08z"></path><path fill="none" d="m197.09 408.25 1.995 1.791 1.997 1.792 1.996 1.791 1.996 1.792-6.235 6.947-6.234 6.947-6.235 6.948-6.235 6.947-1.996-1.791-1.996-1.792-1.996-1.791-1.997-1.792 6.235-6.947 6.235-6.947 6.234-6.948 6.235-6.947z"></path></g></svg>