<svg xmlns="http://www.w3.org/2000/svg" viewBox="1.12 0.747 989.419 607.06"><g id="SELECTION" opacity="1"><path fill="none" stroke="#dadada" stroke-miterlimit="10" stroke-width=".30591" d="m562.678 294.1 18.236-4.576 18.236-4.575 2.157 8.59 2.157 8.591-18.241 4.577-18.242 4.577-2.151-8.592-2.152-8.593z"></path><path fill="none" stroke="#dadada" stroke-miterlimit="10" stroke-width=".30591" d="m566.981 311.284 18.242-4.577 18.241-4.577 2.144 8.55 2.144 8.548-18.199 4.566-18.198 4.566-2.187-8.538-2.187-8.538z"></path><path fill="none" stroke="#dadada" stroke-miterlimit="10" stroke-width=".30591" d="m571.355 328.36 18.198-4.566 18.199-4.566 2.153 8.58 2.152 8.58-18.198 4.566-18.2 4.566-2.152-8.58-2.152-8.58z"></path><path fill="none" stroke="#dadada" stroke-miterlimit="10" stroke-width=".30591" d="m612.56 338.43 2.201 8.71 2.202 8.71-18.234 4.574L580.495 365l-2.163-8.621-2.163-8.622 18.195-4.663 18.195-4.663z"></path><path fill="none" stroke="#dadada" stroke-miterlimit="10" stroke-width=".30591" d="m580.495 365 18.234-4.576 18.234-4.575 2.15 8.567 2.149 8.566-18.222 4.616-18.221 4.617-2.162-8.608-2.162-8.608z"></path><path fill="none" stroke="#dadada" stroke-miterlimit="10" stroke-width=".30591" d="m584.819 382.215 18.221-4.617 18.222-4.616 2.532 10.091 2.532 10.092-18.235 4.574-18.234 4.575-2.519-10.05-2.519-10.049z"></path><path fill="none" stroke="#dadada" stroke-miterlimit="10" stroke-width=".30591" d="m680.207 468.576-3.188-17.783-3.189-17.783 8.791-1.589 8.79-1.588 3.096 17.824 3.094 17.824-8.697 1.547-8.697 1.548z"></path><path fill="none" stroke="#dadada" stroke-miterlimit="10" stroke-width=".30591" d="m673.83 433.01 3.189 17.783 3.188 17.783-8.702 1.637-8.702 1.637-3.226-17.853-3.225-17.853 8.739-1.567 8.74-1.567z"></path><path fill="none" stroke="#dadada" stroke-miterlimit="10" stroke-width=".30591" d="m656.352 436.144 3.225 17.853 3.226 17.853-8.708 1.493-8.707 1.494-3.258-17.782-3.257-17.782 8.74-1.565 8.739-1.564z"></path><path fill="none" stroke="#dadada" stroke-miterlimit="10" stroke-width=".30591" d="m636.839 439.609 3.209 17.76 3.209 17.761-8.737 1.655-8.736 1.654-3.223-17.834-3.222-17.834 8.75-1.581 8.75-1.581z"></path><path fill="none" stroke="#dadada" stroke-miterlimit="10" stroke-width=".30591" d="M134.274 307.943 120.44 295.52l-13.835-12.423 5.76-6.61 5.76-6.611 13.961 12.433 13.962 12.433-5.887 6.6-5.887 6.601z"></path><path fill="none" stroke="#dadada" stroke-miterlimit="10" stroke-width=".30591" d="m601.798 445.94 8.77-1.585 8.771-1.584 3.222 17.834 3.223 17.834-8.834 1.476-8.834 1.476-3.159-17.726-3.159-17.726z"></path><path fill="none" stroke="#dadada" stroke-miterlimit="10" stroke-width=".30591" d="m599.81 446.299 3.166 17.748 3.165 17.748-8.68 1.638-8.68 1.638-3.186-17.814-3.186-17.814 8.701-1.572 8.7-1.572z"></path><path fill="none" stroke="#dadada" stroke-miterlimit="10" stroke-width=".30591" d="m564.827 452.62 8.791-1.59 8.791-1.587 3.186 17.814 3.185 17.814-8.765 1.545-8.766 1.545-3.21-17.77-3.212-17.772z"></path><path fill="none" stroke="#dadada" stroke-miterlimit="10" stroke-width=".30591" d="m552.634 408.944-2.202-8.774-2.201-8.775 18.294-4.59 18.294-4.59 2.201 8.775 2.202 8.774-18.294 4.59-18.294 4.59z"></path><path fill="none" stroke="#dadada" stroke-miterlimit="10" stroke-width=".30591" d="m548.23 391.395-2.161-8.608-2.162-8.608 18.294-4.59 18.294-4.59 2.162 8.608 2.162 8.608-18.294 4.59-18.294 4.59z"></path><path fill="none" stroke="#dadada" stroke-miterlimit="10" stroke-width=".30591" d="m543.907 374.18-2.16-8.623-2.158-8.623 18.29-4.589 18.29-4.589 2.163 8.622 2.163 8.621-18.294 4.59-18.294 4.59z"></path><path fill="none" stroke="#dadada" stroke-miterlimit="10" stroke-width=".30591" d="m539.05 354.797-2.165-8.632-2.165-8.631 18.317-4.587 18.318-4.587 2.152 8.58 2.153 8.58-18.305 4.639-18.304 4.638z"></path><path fill="none" stroke="#dadada" stroke-miterlimit="10" stroke-width=".30591" d="m534.72 337.534-2.176-8.538-2.175-8.538 18.306-4.587 18.306-4.587 2.187 8.538 2.187 8.538-18.318 4.587-18.317 4.587z"></path><path fill="none" stroke="#dadada" stroke-miterlimit="10" stroke-width=".30591" d="m530.369 320.458-2.155-8.585-2.155-8.584 18.31-4.595 18.31-4.595 2.15 8.593 2.152 8.592-18.176 4.554-18.175 4.554-.13.033-.131.033z"></path><path fill="none" stroke="#dadada" stroke-miterlimit="10" stroke-width=".30591" d="m525.505 301.087-2.176-8.673-2.176-8.673 18.28-4.625 18.28-4.626 2.186 8.712 2.186 8.712-18.29 4.586-18.29 4.587z"></path><path fill="none" stroke="#dadada" stroke-miterlimit="10" stroke-width=".30591" d="m146.048 294.742-13.962-12.433-13.961-12.433 5.948-6.507 5.948-6.506 13.876 12.357 13.875 12.357-5.862 6.583-5.862 6.582z"></path><path fill="none" stroke="#dadada" stroke-miterlimit="10" stroke-width=".30591" d="m521.153 283.741-2.169-8.611-2.168-8.612 18.295-4.567 18.296-4.568 2.153 8.554 2.153 8.553-18.28 4.626-18.28 4.625z"></path><path fill="none" stroke="#dadada" stroke-miterlimit="10" stroke-width=".30591" d="m516.816 266.518-2.156-8.599-2.156-8.598 18.319-4.573 18.318-4.574 2.133 8.605 2.133 8.604-18.296 4.568-18.295 4.567z"></path><path fill="none" stroke="#dadada" stroke-miterlimit="10" stroke-width=".30591" d="m511.969 247.286-2.155-8.588-2.154-8.587 18.296-4.568 18.295-4.567 2.155 8.587 2.155 8.588-18.296 4.567-18.296 4.568z"></path><path fill="none" stroke="#dadada" stroke-miterlimit="10" stroke-width=".30591" d="m507.66 230.11-2.146-8.555L503.37 213l18.289-4.566 18.289-4.565 2.152 8.553 2.152 8.554-18.295 4.567-18.296 4.568z"></path><path fill="none" stroke="#dadada" stroke-miterlimit="10" stroke-width=".30591" d="m503.369 213-2.187-8.663-2.187-8.664 18.294-4.601 18.294-4.602 2.182 8.7 2.182 8.699-18.29 4.565L503.37 213z"></path><path fill="none" stroke="#dadada" stroke-miterlimit="10" stroke-width=".30591" d="m498.524 193.476-2.155-8.587-2.154-8.588 18.271-4.56 18.271-4.562 2.155 8.587 2.154 8.588-18.27 4.56-18.272 4.562z"></path><path fill="none" stroke="#dadada" stroke-miterlimit="10" stroke-width=".30591" d="m494.215 176.301-2.135-8.558-2.134-8.558 18.252-4.556 18.251-4.557 2.154 8.553 2.154 8.554-18.271 4.561-18.271 4.561z"></path><path fill="none" stroke="#dadada" stroke-miterlimit="10" stroke-width=".30591" d="m485.636 141.987 18.26-4.558 18.26-4.559 2.146 8.601 2.147 8.601-18.251 4.556-18.252 4.557-2.155-8.599-2.155-8.599z"></path><path fill="none" stroke="#dadada" stroke-miterlimit="10" stroke-width=".30591" d="m414.37 188.488-2.249-8.925-2.25-8.926 18.384-4.518 18.383-4.518 2.213 8.84 2.213 8.841-18.346 4.603-18.347 4.603z"></path><path fill="none" stroke="#dadada" stroke-miterlimit="10" stroke-width=".30591" d="m451.064 179.282 2.149 8.564 2.148 8.563-18.346 4.603-18.347 4.603-2.149-8.563-2.148-8.564 18.347-4.603 18.346-4.603z"></path><path fill="none" stroke="#dadada" stroke-miterlimit="10" stroke-width=".30591" d="m131.306 255.042 5.918-6.666 5.918-6.665 13.958 12.43 13.958 12.431-5.939 6.647-5.94 6.646-13.936-12.411-13.937-12.412z"></path><path fill="none" stroke="#dadada" stroke-miterlimit="10" stroke-width=".30591" d="m455.845 198.448 2.165 8.615 2.165 8.615-18.315 4.596-18.315 4.595-2.18-8.612-2.178-8.611 18.329-4.6 18.33-4.598z"></path><path fill="none" stroke="#dadada" stroke-miterlimit="10" stroke-width=".30591" d="m460.175 215.678 2.167 8.622 2.167 8.621-18.395 4.616-18.395 4.615-2.087-8.642-2.087-8.641 17.947-4.503 17.948-4.503.368-.092.367-.093z"></path><path fill="none" stroke="#dadada" stroke-miterlimit="10" stroke-width=".30591" d="m427.719 242.152 18.395-4.615 18.395-4.616 2.135 8.41 2.135 8.409.038.252.038.253-18.395 4.615-18.395 4.615-2.173-8.662-2.173-8.661z"></path><path fill="none" stroke="#dadada" stroke-miterlimit="10" stroke-width=".30591" d="m400.733 287.731-2.098-8.541-2.098-8.541 18.155-4.66 18.155-4.661 2.186 8.637 2.186 8.638-18.243 4.564-18.243 4.564z"></path><path fill="none" stroke="#dadada" stroke-miterlimit="10" stroke-width=".30591" d="m432.847 261.328 18.244-4.578 18.245-4.577 2.155 8.645 2.156 8.645-18.214 4.57-18.214 4.57-2.186-8.638-2.186-8.637z"></path><path fill="none" stroke="#dadada" stroke-miterlimit="10" stroke-width=".30591" d="m400.733 287.731 18.243-4.564 18.243-4.564 2.159 8.604 2.158 8.603-18.247 4.578-18.247 4.579-2.154-8.618-2.155-8.618z"></path><path fill="none" stroke="#dadada" stroke-miterlimit="10" stroke-width=".30591" d="m437.22 278.603 18.213-4.57 18.214-4.57 2.163 8.603 2.163 8.602-18.218 4.571-18.219 4.571-2.158-8.603-2.159-8.604z"></path><path fill="none" stroke="#dadada" stroke-miterlimit="10" stroke-width=".30591" d="m405.042 304.967 18.247-4.579 18.247-4.578 2.156 8.592 2.156 8.592-18.31 4.594-18.31 4.594-2.093-8.608-2.093-8.607z"></path><path fill="none" stroke="#dadada" stroke-miterlimit="10" stroke-width=".30591" d="m441.536 295.81 18.219-4.57 18.218-4.572 2.156 8.592 2.156 8.592-18.219 4.571-18.218 4.571-2.156-8.592-2.156-8.592z"></path><path fill="none" stroke="#dadada" stroke-miterlimit="10" stroke-width=".30591" d="m446.283 315.018 18.212-4.57 18.211-4.569 2.203 8.672 2.202 8.672-18.231 4.574-18.231 4.574-2.183-8.677-2.183-8.676z"></path><path fill="none" d="m450.649 332.37 18.231-4.573 18.231-4.574 2.145 8.597 2.144 8.598-18.207 4.568-18.207 4.568-2.169-8.591-2.168-8.592z"></path><path fill="none" d="m454.986 349.554 18.207-4.568 18.207-4.568 2.16 8.61 2.16 8.611-18.206 4.568-18.207 4.568-2.16-8.61-2.16-8.61z"></path><path fill="none" d="m459.942 368.848 18.155-4.555 18.155-4.555 2.152 8.57 2.153 8.569-18.136 4.55-18.136 4.55-2.172-8.565-2.171-8.564z"></path><path fill="none" stroke="#dadada" stroke-miterlimit="10" stroke-width=".30591" d="m182.825 253.359-5.883 6.606-5.884 6.607-13.958-12.43-13.958-12.431 5.883-6.607 5.884-6.607 13.958 12.431 13.958 12.43z"></path><path fill="none" stroke="#dadada" stroke-miterlimit="10" stroke-width=".30591" d="m464.285 385.977 18.136-4.55 18.136-4.55 2.174 8.668 2.175 8.67-18.135 4.55-18.136 4.55-2.175-8.67-2.175-8.668z"></path><path fill="none" stroke="#dadada" stroke-miterlimit="10" stroke-width=".30591" d="m468.635 403.315 18.136-4.55 18.135-4.55 2.457 9.79 2.456 9.79-18.136 4.55-18.136 4.55-2.456-9.79-2.456-9.79z"></path><path fill="none" stroke="#dadada" stroke-miterlimit="10" stroke-width=".30591" d="m562.673 452.984 3.21 17.766 3.21 17.765-8.597 1.655-8.596 1.655-3.228-17.864-3.227-17.864 8.614-1.557 8.614-1.556z"></path><path fill="none" stroke="#dadada" stroke-miterlimit="10" stroke-width=".30591" d="m545.445 456.097 3.227 17.864 3.228 17.864-8.821 1.594-8.821 1.594-3.228-17.864-3.227-17.865 8.82-1.594 8.822-1.593z"></path><path fill="none" stroke="#dadada" stroke-miterlimit="10" stroke-width=".30591" d="m525.766 459.68 3.198 17.697 3.197 17.698-10.58 1.889-10.578 1.888-3.222-17.67-3.221-17.67 10.603-1.916 10.603-1.916z"></path><path fill="none" stroke="#dadada" stroke-miterlimit="10" stroke-width=".30591" d="m504.56 463.511 3.221 17.67 3.222 17.671-10.486 1.914-10.486 1.914-3.216-17.701-3.216-17.701 10.48-1.884 10.48-1.883z"></path><path fill="none" stroke="#dadada" stroke-miterlimit="10" stroke-width=".30591" d="m481.528 467.624 3.201 17.722 3.202 17.721-8.749 1.59-8.749 1.591-3.205-17.73-3.206-17.731 8.753-1.581 8.753-1.582z"></path><path fill="none" stroke="#dadada" stroke-miterlimit="10" stroke-width=".30591" d="m446.581 473.938 8.72-1.575 8.721-1.576 3.206 17.73 3.205 17.731-8.727 1.552-8.726 1.552-3.2-17.707-3.199-17.707z"></path><path fill="none" stroke="#dadada" stroke-miterlimit="10" stroke-width=".30591" d="m472.917 420.382-18.396 4.615-18.395 4.616-2.141-8.534-2.141-8.534 18.395-4.615 18.396-4.615 2.14 8.533 2.142 8.534z"></path><path fill="none" stroke="#dadada" stroke-miterlimit="10" stroke-width=".30591" d="m468.635 403.315-18.396 4.615-18.395 4.615-2.175-8.668-2.175-8.67 18.395-4.615 18.396-4.615 2.175 8.669 2.175 8.669z"></path><path fill="none" stroke="#dadada" stroke-miterlimit="10" stroke-width=".30591" d="m196.034 238.591-5.873 6.594-5.872 6.595-14.041-12.505-14.041-12.504 5.872-6.594 5.873-6.594 14.04 12.504 14.042 12.504z"></path><path fill="none" stroke="#dadada" stroke-miterlimit="10" stroke-width=".30591" d="m459.942 368.848 2.171 8.564 2.172 8.565-18.396 4.615-18.395 4.616-2.12-8.61-2.119-8.608 18.343-4.571 18.344-4.571z"></path><path fill="none" stroke="#dadada" stroke-miterlimit="10" stroke-width=".30591" d="m422.706 375.926-2.154-8.583-2.153-8.583 18.293-4.603 18.294-4.603 2.16 8.61 2.16 8.611-18.3 4.576-18.3 4.575z"></path><path fill="none" stroke="#dadada" stroke-miterlimit="10" stroke-width=".30591" d="m418.399 358.76-2.157-8.6-2.157-8.601 18.282-4.594 18.282-4.594 2.168 8.592 2.17 8.591-18.295 4.603-18.293 4.603z"></path><path fill="none" stroke="#dadada" stroke-miterlimit="10" stroke-width=".30591" d="m409.735 324.187 18.274-4.585 18.274-4.584 2.183 8.676 2.183 8.677-18.282 4.594-18.282 4.594-2.175-8.686-2.175-8.686z"></path><path fill="none" stroke="#dadada" stroke-miterlimit="10" stroke-width=".30591" d="m399.692 283.67 4.482 18.176 4.482 18.176-8.66 2.132-8.66 2.133-4.46-18.086-4.459-18.085 8.638-2.223 8.637-2.224z"></path><path fill="none" stroke="#dadada" stroke-miterlimit="10" stroke-width=".30591" d="m391.336 324.287-8.597 2.12-8.596 2.119-4.53-18.072-4.53-18.071 8.667-2.134 8.667-2.133 4.46 18.085 4.459 18.086z"></path><path fill="none" stroke="#dadada" stroke-miterlimit="10" stroke-width=".30591" d="m378.722 346.256-18.416 4.621-18.416 4.62-2.183-8.7-2.183-8.701 18.416-4.62 18.416-4.621 2.183 8.7 2.183 8.701z"></path><path fill="none" stroke="#dadada" stroke-miterlimit="10" stroke-width=".30591" d="m372.059 347.928 2.131 8.506 2.132 8.505-18.312 4.537-18.312 4.538-1.973-8.488-1.972-8.489 18.153-4.554 18.153-4.555z"></path><path fill="none" stroke="#dadada" stroke-miterlimit="10" stroke-width=".30591" d="m376.322 364.939 2.145 8.551 2.146 8.552-18.307 4.556-18.307 4.555-2.15-8.57-2.151-8.57 18.312-4.537 18.312-4.537z"></path><path fill="none" stroke="#dadada" stroke-miterlimit="10" stroke-width=".30591" d="m381.199 384.186 2.187 8.717 2.187 8.718-18.256 4.502-18.257 4.502-2.191-8.68-2.192-8.68 18.26-4.54 18.262-4.54z"></path><path fill="none" d="m173.818 218.609 2.238-2.513 2.238-2.513H180.115l6.495 5.784 6.495 5.784-2.64 2.966-2.641 2.965-7.003-6.237-7.003-6.236"></path><path fill="none" stroke="#dadada" stroke-miterlimit="10" stroke-width=".30591" d="m385.573 401.62 2.176 8.672 2.175 8.672-18.209 4.568-18.209 4.569-2.223-8.738-2.223-8.738 18.257-4.502 18.256-4.502z"></path><path fill="none" stroke="#dadada" stroke-miterlimit="10" stroke-width=".30591" d="m394.211 436.05-2.143-8.543-2.144-8.543-18.209 4.568-18.209 4.569 2.138 8.545 2.137 8.544 18.215-4.57 18.215-4.57z"></path><path fill="none" stroke="#dadada" stroke-miterlimit="10" stroke-width=".30591" d="m444.422 474.33 3.196 17.693 3.197 17.692-8.707 1.515-8.707 1.516-3.186-17.636-3.186-17.637 8.696-1.571 8.697-1.571z"></path><path fill="none" stroke="#dadada" stroke-miterlimit="10" stroke-width=".30591" d="m427.029 477.473 3.186 17.637 3.186 17.636-8.69 1.625-8.69 1.625-3.163-17.696-3.163-17.695 8.667-1.566 8.666-1.566z"></path><path fill="none" stroke="#dadada" stroke-miterlimit="10" stroke-width=".30591" d="m409.695 480.605 3.163 17.695 3.164 17.696-8.8 1.544-8.799 1.544-3.188-17.645-3.188-17.646 8.824-1.594 8.824-1.594z"></path><path fill="none" stroke="#dadada" stroke-miterlimit="10" stroke-width=".30591" d="m390.015 484.152 3.21 17.773 3.212 17.773-8.781 1.537-8.781 1.538-3.203-17.725-3.202-17.726 8.772-1.585 8.773-1.585z"></path><path fill="none" stroke="#dadada" stroke-miterlimit="10" stroke-width=".30591" d="m355.138 490.453 8.666-1.565 8.666-1.566 3.194 17.679 3.194 17.678.008.047.009.047-8.666 1.566-8.666 1.566-3.203-17.726-3.202-17.726z"></path><path fill="none" stroke="#dadada" stroke-miterlimit="10" stroke-width=".30591" d="m337.623 493.618 8.757-1.582 8.758-1.583 3.147 17.6 3.148 17.6-8.682 1.596-8.681 1.597-3.224-17.614-3.223-17.614z"></path><path fill="none" stroke="#dadada" stroke-miterlimit="10" stroke-width=".30591" d="m318.177 497.15 8.714-1.574 8.715-1.574 3.178 17.59 3.178 17.59-8.717 1.56-8.717 1.562-3.175-17.577-3.176-17.576z"></path><path fill="none" stroke="#dadada" stroke-miterlimit="10" stroke-width=".30591" d="m318.177 497.15 3.176 17.577 3.175 17.577-8.808 1.53-8.808 1.53-3.165-17.517-3.165-17.517 8.797-1.59 8.798-1.59z"></path><path fill="none" stroke="#dadada" stroke-miterlimit="10" stroke-width=".30591" d="m245.097 220.633 12.52-14.043 12.518-14.043 6.562 5.85 6.561 5.85-12.612 13.96-12.612 13.96-6.468-5.768-6.469-5.766z"></path><path fill="none" stroke="#dadada" stroke-miterlimit="10" stroke-width=".30591" d="m300.582 500.33 3.165 17.517 3.165 17.517-8.822 1.536-8.822 1.537-3.155-17.462-3.155-17.461 8.812-1.592 8.812-1.592z"></path><path fill="none" stroke="#dadada" stroke-miterlimit="10" stroke-width=".30591" d="m280.99 503.857 3.179 17.593 3.178 17.593-8.735 1.534-8.735 1.535-3.21-17.544-3.21-17.543 8.767-1.584 8.766-1.584z"></path><path fill="none" stroke="#dadada" stroke-miterlimit="10" stroke-width=".30591" d="m263.457 507.025 3.21 17.543 3.21 17.544-8.792 1.585-8.792 1.585-3.17-17.547-3.17-17.548 8.752-1.581 8.752-1.581z"></path><path fill="none" stroke="#dadada" stroke-miterlimit="10" stroke-width=".30591" d="m245.953 510.187 3.17 17.548 3.17 17.547-8.694 1.61-8.694 1.611-3.177-17.586-3.178-17.586 8.702-1.572 8.7-1.572z"></path><path fill="none" stroke="#dadada" stroke-miterlimit="10" stroke-width=".30591" d="m226.377 513.718 3.178 17.587 3.178 17.588-8.686 1.47-8.686 1.47-3.16-17.492-3.16-17.491 8.668-1.566 8.668-1.566z"></path><path fill="none" stroke="#dadada" stroke-miterlimit="10" stroke-width=".30591" d="m191.592 520.002 8.724-1.576 8.725-1.576 3.16 17.491 3.16 17.492-8.707 1.669-8.708 1.668-3.177-17.584-3.177-17.584z"></path><path fill="none" d="m194.754 537.507 1.596 8.832 1.596 8.831-4.002.723-4.002.723-1.753-8.803-1.753-8.803 4.16-.751 4.158-.752"></path><path fill="none" stroke="#dadada" stroke-miterlimit="10" stroke-width=".30591" d="m148.36 516.022 7.037 6.25 7.038 6.251-13.043 14.58-13.042 14.58-7.008-6.259-7.008-6.257 13.013-14.573 13.012-14.572z"></path><path fill="none" stroke="#dadada" stroke-miterlimit="10" stroke-width=".30591" d="m174.071 488.452 6.694 5.944 6.694 5.943-12.512 14.092-12.512 14.092-6.694-5.943-6.694-5.943 12.512-14.093 12.512-14.092z"></path><path fill="none" stroke="#dadada" stroke-miterlimit="10" stroke-width=".30591" d="m122.141 545.383-6.982-6.235-6.982-6.234 13.103-14.648 13.103-14.648 6.988 6.202 6.988 6.202-13.109 14.68-13.109 14.68z"></path><path fill="none" stroke="#dadada" stroke-miterlimit="10" stroke-width=".30591" d="m159.402 475.439 6.54 5.807 6.541 5.807-12.51 14.09-12.51 14.09-6.54-5.808-6.54-5.807 12.51-14.09 12.51-14.09z"></path><path fill="none" stroke="#dadada" stroke-miterlimit="10" stroke-width=".30591" d="m106.385 531.59-6.224-5.558-6.223-5.557 13.16-14.738 13.16-14.738 6.212 5.53 6.212 5.532-13.149 14.764-13.148 14.764z"></path><path fill="none" stroke="#dadada" stroke-miterlimit="10" stroke-width=".30591" d="m144.08 461.854 6.794 6.032 6.794 6.032-12.493 14.072-12.493 14.07-6.212-5.53-6.211-5.531 1.043-1.212 1.044-1.212-.678-.588-.678-.589 11.545-12.772 11.545-12.772z"></path><path fill="none" d="m254.505 210.08-6.752-6.018-6.751-6.019 12.491-14.011 12.491-14.012 6.751 6.019 6.752 6.019-12.491 14.011-12.491 14.012z"></path><path fill="none" stroke="#dadada" stroke-miterlimit="10" stroke-width=".30591" d="m71.078 500.172 13.208-14.791 13.209-14.792 6.986 6.221 6.986 6.222-13.23 14.789-13.23 14.79-6.965-6.22-6.964-6.219z"></path><path fill="none" stroke="#dadada" stroke-miterlimit="10" stroke-width=".30591" d="m123.191 443.065 6.643 5.899 6.644 5.898-12.506 14.085-12.505 14.085-6.644-5.899-6.643-5.898 12.505-14.085 12.506-14.085z"></path><path fill="none" stroke="#dadada" stroke-miterlimit="10" stroke-width=".30591" d="M97.495 470.589 84.286 485.38l-13.208 14.791-7.06-6.398-7.06-6.399 13.162-14.739 13.161-14.74 7.107 6.347 7.107 6.346z"></path><path fill="none" stroke="#dadada" stroke-miterlimit="10" stroke-width=".30591" d="m108.254 429.77 6.721 5.968 6.721 5.967-12.486 14.063-12.487 14.064-6.72-5.968-6.722-5.967 12.487-14.063 12.486-14.064z"></path><path fill="none" stroke="#dadada" stroke-miterlimit="10" stroke-width=".30591" d="m41.412 473.148 12.973-14.665 12.974-14.665 6.624 5.88 6.623 5.881-13.051 14.7-13.052 14.699-6.545-5.915-6.546-5.915z"></path><path fill="none" stroke="#dadada" stroke-miterlimit="10" stroke-width=".30591" d="m92.367 415.652 6.627 5.883 6.626 5.883-12.507 14.08-12.507 14.081-6.623-5.88-6.624-5.881 12.504-14.083 12.504-14.083z"></path><path fill="none" stroke="#dadada" stroke-miterlimit="10" stroke-width=".30591" d="m85.472 420.565-9.794 11.03-9.793 11.03-.2-.128-.2-.13-2.669 3.097-2.669 3.096-6.531-5.762-6.532-5.762 12.56-14.147 12.561-14.147 6.634 5.912 6.633 5.911z"></path><path fill="none" d="m711.122 426.323 3.381-.65 3.382-.65 3.851 17.866 3.851 17.865-4.027.592-4.027.593-3.205-17.808-3.206-17.808z"></path><path fill="none" stroke="#dadada" stroke-miterlimit="10" stroke-width=".30591" d="m58.89 396.92 6.658 5.911 6.657 5.911-12.64 14.238-12.641 14.237-6.658-5.911-6.657-5.91 12.64-14.238 12.642-14.237z"></path><path fill="none" stroke="#dadada" stroke-miterlimit="10" stroke-width=".30591" d="m893.222 338 2.197 8.625 2.197 8.625 18.27-4.584 18.272-4.584-2.18-8.63-2.178-8.63-18.289 4.59L893.222 338z"></path><path fill="none" stroke="#dadada" stroke-miterlimit="10" stroke-width=".30591" d="m901.942 372.49-2.163-8.62-2.163-8.62 18.27-4.584 18.272-4.584 2.162 8.62 2.163 8.62-18.27 4.585-18.271 4.584z"></path><path fill="none" stroke="#dadada" stroke-miterlimit="10" stroke-width=".30591" d="m902.997 378.731 4.414 17.706 4.414 17.705-8.506 2.12-8.505 2.121-4.414-17.705-4.415-17.706 8.506-2.12 8.506-2.121z"></path><path fill="none" stroke="#dadada" stroke-miterlimit="10" stroke-width=".30591" d="m885.985 382.972 4.415 17.706 4.414 17.705-8.415 2.179-8.414 2.179-4.464-17.745-4.464-17.746 8.464-2.139 8.464-2.139z"></path><path fill="none" stroke="#dadada" stroke-miterlimit="10" stroke-width=".30591" d="m866.986 387.77 4.465 17.752 4.466 17.751-8.677 2.183-8.677 2.182-4.465-17.751-4.465-17.752 8.676-2.182 8.677-2.183z"></path><path fill="none" stroke="#dadada" stroke-miterlimit="10" stroke-width=".30591" d="m847.635 392.638 4.425 17.593 4.426 17.593-8.628 2.154-8.628 2.155-4.468-17.567-4.47-17.566 8.672-2.181 8.67-2.181z"></path><path fill="none" stroke="#dadada" stroke-miterlimit="10" stroke-width=".30591" d="m828.275 397.53 4.448 17.574 4.448 17.573-8.53 2.106-8.53 2.105-4.412-17.542-4.413-17.542 8.495-2.137 8.494-2.137z"></path><path fill="none" stroke="#dadada" stroke-miterlimit="10" stroke-width=".30591" d="m811.286 401.804 4.413 17.542 4.413 17.542-8.594 2.18-8.594 2.18-4.416-17.558-4.417-17.557 8.598-2.165 8.597-2.164z"></path><path fill="none" stroke="#dadada" stroke-miterlimit="10" stroke-width=".30591" d="m83.874 364.014-13.842-12.327-13.841-12.326 5.855-6.513 5.854-6.513 13.91 12.271 13.911 12.272-5.924 6.568-5.923 6.568z"></path><path fill="none" stroke="#dadada" stroke-miterlimit="10" stroke-width=".30591" d="m792.054 406.648 4.275 17.522 4.275 17.522-8.405 2.104-8.405 2.103-4.397-17.481-4.397-17.48 8.527-2.145 8.527-2.145z"></path><path fill="none" stroke="#dadada" stroke-miterlimit="10" stroke-width=".30591" d="m775 410.937 4.397 17.481 4.397 17.48-8.447 2.184-8.448 2.184-4.59-17.491-4.592-17.491 8.642-2.173 8.64-2.174z"></path><path fill="none" stroke="#dadada" stroke-miterlimit="10" stroke-width=".30591" d="m755.592 415.8 4.318 17.492 4.317 17.493-8.182 2.249-8.182 2.248-4.44-17.652-4.44-17.652 8.304-2.09 8.305-2.088z"></path><path fill="none" stroke="#dadada" stroke-miterlimit="10" stroke-width=".30591" d="m721.95 424.268 8.516-2.145 8.517-2.145 4.44 17.652 4.44 17.652-8.498 2.079-8.497 2.078-4.46-17.585-4.459-17.586z"></path><path fill="none" stroke="#dadada" stroke-miterlimit="10" stroke-width=".30591" d="m711.122 426.323-8.907 1.59-8.908 1.59 3.207 17.754 3.208 17.753 8.906-1.535 8.905-1.536-3.205-17.808-3.206-17.808z"></path><path fill="none" stroke="#dadada" stroke-miterlimit="10" stroke-width=".30591" d="m663.994 368.805 18.31-4.594 18.31-4.594 2.533 10.092 2.532 10.093-18.31 4.594-18.31 4.594-2.532-10.093-2.533-10.092z"></path><path fill="none" stroke="#dadada" stroke-miterlimit="10" stroke-width=".30591" d="m663.994 368.805-2.164-8.599-2.165-8.599 18.298-4.59 18.298-4.591 2.177 8.595 2.177 8.596-18.31 4.594-18.31 4.594z"></path><path fill="none" stroke="#dadada" stroke-miterlimit="10" stroke-width=".30591" d="m659.665 351.607-2.143-8.503-2.142-8.503 18.307-4.593 18.306-4.594 2.134 8.506 2.134 8.506-18.298 4.59-18.298 4.591z"></path><path fill="none" stroke="#dadada" stroke-miterlimit="10" stroke-width=".30591" d="m654.814 332.301-2.502-9.971-2.502-9.972 18.28-4.587 18.281-4.586 2.502 9.971 2.502 9.972-18.28 4.587-18.281 4.586z"></path><path fill="none" stroke="#dadada" stroke-miterlimit="10" stroke-width=".30591" d="m649.81 312.358-2.13-8.586-2.13-8.585 18.224-4.573 18.225-4.572 2.186 8.571 2.186 8.572-18.28 4.586-18.28 4.587z"></path><path fill="none" stroke="#dadada" stroke-miterlimit="10" stroke-width=".30591" d="m95.721 350.878-13.91-12.272-13.91-12.271 6.026-6.599 6.027-6.598L93.722 325.4l13.769 12.262-5.885 6.608-5.885 6.608z"></path><path fill="none" stroke="#dadada" stroke-miterlimit="10" stroke-width=".30591" d="m645.55 295.187-2.483-9.915-2.482-9.915 18.22-4.572 18.219-4.57 2.487 9.913 2.488 9.914-18.225 4.572-18.225 4.573z"></path><path fill="none" d="m638.194 265.853 18.244-4.577 18.244-4.578.936 3.73.936 3.729-18.244 4.577-18.244 4.577-.936-3.729-.936-3.729z"></path><path fill="none" stroke="#dadada" stroke-miterlimit="10" stroke-width=".30591" d="m638.194 265.853-3.363-13.496-3.363-13.497 18.215-4.57 18.215-4.57 3.392 13.49 3.392 13.488-18.244 4.578-18.244 4.577z"></path><path fill="none" stroke="#dadada" stroke-miterlimit="10" stroke-width=".30591" d="m631.468 238.86-2.11-8.452-2.112-8.451 18.196-4.565 18.195-4.565 2.13 8.446 2.13 8.447-18.214 4.57-18.215 4.57z"></path><path fill="none" stroke="#dadada" stroke-miterlimit="10" stroke-width=".30591" d="m626.676 219.669-2.162-8.62-2.163-8.618 18.227-4.573 18.226-4.573 2.163 8.619 2.162 8.619-18.226 4.573-18.227 4.573z"></path><path fill="none" stroke="#dadada" stroke-miterlimit="10" stroke-width=".30591" d="m618.077 185.312 18.228-4.574 18.228-4.573 2.136 8.56 2.135 8.56-18.226 4.573-18.227 4.573-2.137-8.56-2.137-8.56z"></path><path fill="none" stroke="#dadada" stroke-miterlimit="10" stroke-width=".30591" d="m617.518 183.202-2.293-9.139-2.293-9.139 18.246-4.578 18.247-4.577 2.292 9.138 2.293 9.139-18.246 4.578-18.246 4.578z"></path><path fill="none" stroke="#dadada" stroke-miterlimit="10" stroke-width=".30591" d="m612.932 164.924-2.158-8.634-2.158-8.634 18.23-4.574 18.232-4.574 2.173 8.63 2.174 8.63-18.247 4.578-18.246 4.578z"></path><path fill="none" stroke="#dadada" stroke-miterlimit="10" stroke-width=".30591" d="m603.142 125.857 18.149-4.554 18.148-4.553 2.471 9.848 2.47 9.848L626.233 141l-18.148 4.553-2.471-9.848-2.47-9.848z"></path><path fill="none" stroke="#dadada" stroke-miterlimit="10" stroke-width=".30591" d="m108.994 335.93-13.806-12.343-13.806-12.342 5.806-6.507 5.805-6.507 13.87 12.26 13.868 12.26-5.868 6.59-5.869 6.59z"></path><path fill="none" stroke="#dadada" stroke-miterlimit="10" stroke-width=".30591" d="m522.156 132.87 18.28-4.586 18.279-4.586 2.147 8.6 2.148 8.601-18.28 4.587-18.28 4.586-2.148-8.6-2.146-8.602z"></path><path fill="none" stroke="#dadada" stroke-miterlimit="10" stroke-width=".30591" d="m526.45 150.072 18.28-4.586 18.28-4.587 2.144 8.556 2.144 8.556-18.27 4.584-18.27 4.584-2.155-8.554-2.154-8.553z"></path><path fill="none" stroke="#dadada" stroke-miterlimit="10" stroke-width=".30591" d="m530.757 167.179 18.27-4.584 18.271-4.584 2.155 8.587 2.155 8.587-18.271 4.585-18.27 4.584-2.155-8.588-2.155-8.587z"></path><path fill="none" stroke="#dadada" stroke-miterlimit="10" stroke-width=".30591" d="m535.583 186.47 18.274-4.585 18.274-4.585 2.182 8.7 2.182 8.699-18.274 4.585-18.274 4.585-2.182-8.7-2.182-8.699z"></path><path fill="none" stroke="#dadada" stroke-miterlimit="10" stroke-width=".30591" d="m539.947 203.869 18.274-4.585 18.274-4.585 2.155 8.553 2.155 8.553-18.277 4.585-18.277 4.586-2.152-8.554-2.152-8.553z"></path><path fill="none" stroke="#dadada" stroke-miterlimit="10" stroke-width=".30591" d="m544.251 220.976 18.277-4.586 18.277-4.585 2.155 8.587 2.155 8.588-18.277 4.585-18.277 4.586-2.155-8.588-2.154-8.587z"></path><path fill="none" stroke="#dadada" stroke-miterlimit="10" stroke-width=".30591" d="m549.141 240.174 18.247-4.578 18.248-4.578 2.144 8.602 2.144 8.601-18.258 4.581-18.259 4.581-2.133-8.604-2.133-8.605z"></path><path fill="none" stroke="#dadada" stroke-miterlimit="10" stroke-width=".30591" d="m553.407 257.383 18.259-4.58 18.258-4.582 2.146 8.555 2.147 8.556-18.252 4.579-18.252 4.58-2.153-8.554-2.153-8.554z"></path><path fill="none" stroke="#dadada" stroke-miterlimit="10" stroke-width=".30591" d="m557.713 274.49 18.252-4.58 18.252-4.578 2.186 8.711 2.185 8.712-18.251 4.58-18.252 4.579-2.186-8.712-2.186-8.712z"></path><path fill="none" stroke="#dadada" stroke-miterlimit="10" stroke-width=".30591" d="m132.658 309.36-5.963 6.695-5.964 6.697-13.869-12.26-13.869-12.26 6.004-6.752 6.003-6.752 13.83 12.316 13.828 12.315z"></path><path fill="none" d="m241.002 198.043-6.538-5.806-6.538-5.805 12.511-14.035 12.512-14.035 6.518 5.83 6.517 5.828-12.491 14.012-12.491 14.011z"></path></g></svg>