<?xml version="1.0" encoding="utf-8"?>
<!-- Generator: Adobe Illustrator 16.0.0, SVG Export Plug-In . SVG Version: 6.00 Build 0)  -->
<!DOCTYPE svg PUBLIC "-//W3C//DTD SVG 1.1//EN" "http://www.w3.org/Graphics/SVG/1.1/DTD/svg11.dtd">
<svg version="1.1" xmlns="http://www.w3.org/2000/svg" xmlns:xlink="http://www.w3.org/1999/xlink" x="0px" y="0px"
	 width="200.279px" height="105.946px" viewBox="0 0 200.279 105.946" enable-background="new 0 0 200.279 105.946"
	 xml:space="preserve">
<g id="SELECTION">
	<polyline fill="none" points="0.36,92.02 15.816,105.586 40.633,77.362 38.988,75.796 62.996,48.454 47.539,34.888 23.211,62.64 
		17.392,69.144 19.204,70.646 0.36,92.02 	"/>
	<polyline fill="none" points="116.194,14.469 135.379,18.404 128.221,53.476 126.086,53.127 119.128,87.076 99.94,83.14 
		107.025,48.711 108.616,40.554 110.799,41.065 116.194,14.469 	"/>
	<polyline fill="none" points="162.478,6.121 181.198,0.36 191.758,34.561 189.718,35.28 199.918,68.4 181.198,74.161 
		170.878,40.561 168.358,32.641 170.518,32.041 162.478,6.121 	"/>
</g>
<g id="Layer_2">
	
		<polyline fill="none" stroke="#000000" stroke-width="0.72" stroke-linecap="round" stroke-linejoin="round" stroke-miterlimit="10" points="
		162.478,6.121 181.198,0.36 191.758,34.561 189.718,35.28 199.918,68.4 181.198,74.161 170.878,40.561 168.358,32.641 
		170.518,32.041 162.478,6.121 	"/>
	
		<polyline fill="none" stroke="#000000" stroke-width="0.72" stroke-linecap="round" stroke-linejoin="round" stroke-miterlimit="10" points="
		116.194,14.469 135.379,18.404 128.221,53.476 126.086,53.127 119.128,87.076 99.94,83.14 107.025,48.711 108.616,40.554 
		110.799,41.065 116.194,14.469 	"/>
	
		<polyline fill="none" stroke="#000000" stroke-width="0.72" stroke-linecap="round" stroke-linejoin="round" stroke-miterlimit="10" points="
		0.36,92.02 15.816,105.586 40.633,77.362 38.988,75.796 62.996,48.454 47.539,34.888 23.211,62.64 17.392,69.144 19.204,70.646 
		0.36,92.02 	"/>
</g>
</svg>
