<svg width="669" height="354" viewBox="0 0 669 354" fill="none" xmlns="http://www.w3.org/2000/svg">
<path d="M560.904 353H555.372V351.92L558.3 348.932C559.012 348.22 559.368 347.604 559.368 347.084C559.368 346.684 559.248 346.368 559.008 346.136C558.768 345.904 558.456 345.788 558.072 345.788C557.368 345.788 556.848 346.136 556.512 346.832L555.348 346.148C555.604 345.596 555.972 345.176 556.452 344.888C556.932 344.592 557.468 344.444 558.06 344.444C558.804 344.444 559.436 344.676 559.956 345.14C560.484 345.612 560.748 346.244 560.748 347.036C560.748 347.884 560.272 348.796 559.32 349.772L557.424 351.668H560.904V353ZM567.798 351.968C567.222 352.76 566.414 353.156 565.374 353.156C564.342 353.156 563.53 352.76 562.938 351.968C562.362 351.176 562.074 350.12 562.074 348.8C562.074 347.48 562.362 346.424 562.938 345.632C563.53 344.84 564.342 344.444 565.374 344.444C566.414 344.444 567.222 344.84 567.798 345.632C568.382 346.416 568.674 347.472 568.674 348.8C568.674 350.128 568.382 351.184 567.798 351.968ZM565.374 351.812C565.998 351.812 566.474 351.552 566.802 351.032C567.13 350.512 567.294 349.768 567.294 348.8C567.294 347.832 567.13 347.088 566.802 346.568C566.474 346.048 565.998 345.788 565.374 345.788C564.758 345.788 564.282 346.048 563.946 346.568C563.618 347.088 563.454 347.832 563.454 348.8C563.454 349.768 563.618 350.512 563.946 351.032C564.282 351.552 564.758 351.812 565.374 351.812ZM575.241 353H569.709V351.92L572.637 348.932C573.349 348.22 573.705 347.604 573.705 347.084C573.705 346.684 573.585 346.368 573.345 346.136C573.105 345.904 572.793 345.788 572.409 345.788C571.705 345.788 571.185 346.136 570.849 346.832L569.685 346.148C569.941 345.596 570.309 345.176 570.789 344.888C571.269 344.592 571.805 344.444 572.397 344.444C573.141 344.444 573.773 344.676 574.293 345.14C574.821 345.612 575.085 346.244 575.085 347.036C575.085 347.884 574.609 348.796 573.657 349.772L571.761 351.668H575.241V353ZM578.176 347.768H579.232C580.032 347.768 580.708 348.008 581.26 348.488C581.812 348.96 582.088 349.616 582.088 350.456C582.088 351.296 581.804 351.956 581.236 352.436C580.676 352.916 579.98 353.156 579.148 353.156C578.468 353.156 577.876 353 577.372 352.688C576.868 352.376 576.508 351.932 576.292 351.356L577.48 350.672C577.712 351.432 578.268 351.812 579.148 351.812C579.62 351.812 579.996 351.692 580.276 351.452C580.564 351.204 580.708 350.872 580.708 350.456C580.708 350.048 580.568 349.724 580.288 349.484C580.008 349.236 579.636 349.112 579.172 349.112H576.724L577.048 344.6H581.728V345.896H578.32L578.176 347.768Z" fill="white"/>
<path d="M642.904 353H637.372V351.92L640.3 348.932C641.012 348.22 641.368 347.604 641.368 347.084C641.368 346.684 641.248 346.368 641.008 346.136C640.768 345.904 640.456 345.788 640.072 345.788C639.368 345.788 638.848 346.136 638.512 346.832L637.348 346.148C637.604 345.596 637.972 345.176 638.452 344.888C638.932 344.592 639.468 344.444 640.06 344.444C640.804 344.444 641.436 344.676 641.956 345.14C642.484 345.612 642.748 346.244 642.748 347.036C642.748 347.884 642.272 348.796 641.32 349.772L639.424 351.668H642.904V353ZM649.798 351.968C649.222 352.76 648.414 353.156 647.374 353.156C646.342 353.156 645.53 352.76 644.938 351.968C644.362 351.176 644.074 350.12 644.074 348.8C644.074 347.48 644.362 346.424 644.938 345.632C645.53 344.84 646.342 344.444 647.374 344.444C648.414 344.444 649.222 344.84 649.798 345.632C650.382 346.416 650.674 347.472 650.674 348.8C650.674 350.128 650.382 351.184 649.798 351.968ZM647.374 351.812C647.998 351.812 648.474 351.552 648.802 351.032C649.13 350.512 649.294 349.768 649.294 348.8C649.294 347.832 649.13 347.088 648.802 346.568C648.474 346.048 647.998 345.788 647.374 345.788C646.758 345.788 646.282 346.048 645.946 346.568C645.618 347.088 645.454 347.832 645.454 348.8C645.454 349.768 645.618 350.512 645.946 351.032C646.282 351.552 646.758 351.812 647.374 351.812ZM657.241 353H651.709V351.92L654.637 348.932C655.349 348.22 655.705 347.604 655.705 347.084C655.705 346.684 655.585 346.368 655.345 346.136C655.105 345.904 654.793 345.788 654.409 345.788C653.705 345.788 653.185 346.136 652.849 346.832L651.685 346.148C651.941 345.596 652.309 345.176 652.789 344.888C653.269 344.592 653.805 344.444 654.397 344.444C655.141 344.444 655.773 344.676 656.293 345.14C656.821 345.612 657.085 346.244 657.085 347.036C657.085 347.884 656.609 348.796 655.657 349.772L653.761 351.668H657.241V353ZM660.993 347.42H661.149C662.029 347.42 662.741 347.688 663.285 348.224C663.837 348.752 664.113 349.44 664.113 350.288C664.113 351.128 663.837 351.82 663.285 352.364C662.733 352.892 662.021 353.156 661.149 353.156C660.269 353.156 659.553 352.892 659.001 352.364C658.449 351.82 658.173 351.128 658.173 350.288C658.173 349.648 658.341 349.084 658.677 348.596L661.341 344.6H662.913L660.993 347.42ZM661.149 351.848C661.613 351.848 661.993 351.708 662.289 351.428C662.585 351.14 662.733 350.76 662.733 350.288C662.733 349.816 662.585 349.44 662.289 349.16C661.993 348.872 661.613 348.728 661.149 348.728C660.669 348.728 660.281 348.872 659.985 349.16C659.697 349.44 659.553 349.816 659.553 350.288C659.553 350.76 659.697 351.14 659.985 351.428C660.281 351.708 660.669 351.848 661.149 351.848Z" fill="white"/>
<path d="M230.904 353H225.372V351.92L228.3 348.932C229.012 348.22 229.368 347.604 229.368 347.084C229.368 346.684 229.248 346.368 229.008 346.136C228.768 345.904 228.456 345.788 228.072 345.788C227.368 345.788 226.848 346.136 226.512 346.832L225.348 346.148C225.604 345.596 225.972 345.176 226.452 344.888C226.932 344.592 227.468 344.444 228.06 344.444C228.804 344.444 229.436 344.676 229.956 345.14C230.484 345.612 230.748 346.244 230.748 347.036C230.748 347.884 230.272 348.796 229.32 349.772L227.424 351.668H230.904V353ZM237.798 351.968C237.222 352.76 236.414 353.156 235.374 353.156C234.342 353.156 233.53 352.76 232.938 351.968C232.362 351.176 232.074 350.12 232.074 348.8C232.074 347.48 232.362 346.424 232.938 345.632C233.53 344.84 234.342 344.444 235.374 344.444C236.414 344.444 237.222 344.84 237.798 345.632C238.382 346.416 238.674 347.472 238.674 348.8C238.674 350.128 238.382 351.184 237.798 351.968ZM235.374 351.812C235.998 351.812 236.474 351.552 236.802 351.032C237.13 350.512 237.294 349.768 237.294 348.8C237.294 347.832 237.13 347.088 236.802 346.568C236.474 346.048 235.998 345.788 235.374 345.788C234.758 345.788 234.282 346.048 233.946 346.568C233.618 347.088 233.454 347.832 233.454 348.8C233.454 349.768 233.618 350.512 233.946 351.032C234.282 351.552 234.758 351.812 235.374 351.812ZM245.241 353H239.709V351.92L242.637 348.932C243.349 348.22 243.705 347.604 243.705 347.084C243.705 346.684 243.585 346.368 243.345 346.136C243.105 345.904 242.793 345.788 242.409 345.788C241.705 345.788 241.185 346.136 240.849 346.832L239.685 346.148C239.941 345.596 240.309 345.176 240.789 344.888C241.269 344.592 241.805 344.444 242.397 344.444C243.141 344.444 243.773 344.676 244.293 345.14C244.821 345.612 245.085 346.244 245.085 347.036C245.085 347.884 244.609 348.796 243.657 349.772L241.761 351.668H245.241V353ZM251.953 353H246.421V351.92L249.349 348.932C250.061 348.22 250.417 347.604 250.417 347.084C250.417 346.684 250.297 346.368 250.057 346.136C249.817 345.904 249.505 345.788 249.121 345.788C248.417 345.788 247.897 346.136 247.561 346.832L246.397 346.148C246.653 345.596 247.021 345.176 247.501 344.888C247.981 344.592 248.517 344.444 249.109 344.444C249.853 344.444 250.485 344.676 251.005 345.14C251.533 345.612 251.797 346.244 251.797 347.036C251.797 347.884 251.321 348.796 250.369 349.772L248.473 351.668H251.953V353Z" fill="white"/>
<path d="M340.904 353H335.372V351.92L338.3 348.932C339.012 348.22 339.368 347.604 339.368 347.084C339.368 346.684 339.248 346.368 339.008 346.136C338.768 345.904 338.456 345.788 338.072 345.788C337.368 345.788 336.848 346.136 336.512 346.832L335.348 346.148C335.604 345.596 335.972 345.176 336.452 344.888C336.932 344.592 337.468 344.444 338.06 344.444C338.804 344.444 339.436 344.676 339.956 345.14C340.484 345.612 340.748 346.244 340.748 347.036C340.748 347.884 340.272 348.796 339.32 349.772L337.424 351.668H340.904V353ZM347.798 351.968C347.222 352.76 346.414 353.156 345.374 353.156C344.342 353.156 343.53 352.76 342.938 351.968C342.362 351.176 342.074 350.12 342.074 348.8C342.074 347.48 342.362 346.424 342.938 345.632C343.53 344.84 344.342 344.444 345.374 344.444C346.414 344.444 347.222 344.84 347.798 345.632C348.382 346.416 348.674 347.472 348.674 348.8C348.674 350.128 348.382 351.184 347.798 351.968ZM345.374 351.812C345.998 351.812 346.474 351.552 346.802 351.032C347.13 350.512 347.294 349.768 347.294 348.8C347.294 347.832 347.13 347.088 346.802 346.568C346.474 346.048 345.998 345.788 345.374 345.788C344.758 345.788 344.282 346.048 343.946 346.568C343.618 347.088 343.454 347.832 343.454 348.8C343.454 349.768 343.618 350.512 343.946 351.032C344.282 351.552 344.758 351.812 345.374 351.812ZM355.241 353H349.709V351.92L352.637 348.932C353.349 348.22 353.705 347.604 353.705 347.084C353.705 346.684 353.585 346.368 353.345 346.136C353.105 345.904 352.793 345.788 352.409 345.788C351.705 345.788 351.185 346.136 350.849 346.832L349.685 346.148C349.941 345.596 350.309 345.176 350.789 344.888C351.269 344.592 351.805 344.444 352.397 344.444C353.141 344.444 353.773 344.676 354.293 345.14C354.821 345.612 355.085 346.244 355.085 347.036C355.085 347.884 354.609 348.796 353.657 349.772L351.761 351.668H355.241V353ZM361.644 345.776L359.94 348.032C360.564 348.176 361.06 348.464 361.428 348.896C361.804 349.32 361.992 349.84 361.992 350.456C361.992 351.296 361.708 351.956 361.14 352.436C360.58 352.916 359.884 353.156 359.052 353.156C358.396 353.156 357.816 353.008 357.312 352.712C356.808 352.408 356.448 351.976 356.232 351.416L357.408 350.732C357.656 351.452 358.204 351.812 359.052 351.812C359.532 351.812 359.912 351.692 360.192 351.452C360.472 351.204 360.612 350.872 360.612 350.456C360.612 350.04 360.472 349.712 360.192 349.472C359.912 349.232 359.532 349.112 359.052 349.112H358.74L358.188 348.284L360 345.896H356.484V344.6H361.644V345.776Z" fill="white"/>
<path d="M450.904 353H445.372V351.92L448.3 348.932C449.012 348.22 449.368 347.604 449.368 347.084C449.368 346.684 449.248 346.368 449.008 346.136C448.768 345.904 448.456 345.788 448.072 345.788C447.368 345.788 446.848 346.136 446.512 346.832L445.348 346.148C445.604 345.596 445.972 345.176 446.452 344.888C446.932 344.592 447.468 344.444 448.06 344.444C448.804 344.444 449.436 344.676 449.956 345.14C450.484 345.612 450.748 346.244 450.748 347.036C450.748 347.884 450.272 348.796 449.32 349.772L447.424 351.668H450.904V353ZM457.798 351.968C457.222 352.76 456.414 353.156 455.374 353.156C454.342 353.156 453.53 352.76 452.938 351.968C452.362 351.176 452.074 350.12 452.074 348.8C452.074 347.48 452.362 346.424 452.938 345.632C453.53 344.84 454.342 344.444 455.374 344.444C456.414 344.444 457.222 344.84 457.798 345.632C458.382 346.416 458.674 347.472 458.674 348.8C458.674 350.128 458.382 351.184 457.798 351.968ZM455.374 351.812C455.998 351.812 456.474 351.552 456.802 351.032C457.13 350.512 457.294 349.768 457.294 348.8C457.294 347.832 457.13 347.088 456.802 346.568C456.474 346.048 455.998 345.788 455.374 345.788C454.758 345.788 454.282 346.048 453.946 346.568C453.618 347.088 453.454 347.832 453.454 348.8C453.454 349.768 453.618 350.512 453.946 351.032C454.282 351.552 454.758 351.812 455.374 351.812ZM465.241 353H459.709V351.92L462.637 348.932C463.349 348.22 463.705 347.604 463.705 347.084C463.705 346.684 463.585 346.368 463.345 346.136C463.105 345.904 462.793 345.788 462.409 345.788C461.705 345.788 461.185 346.136 460.849 346.832L459.685 346.148C459.941 345.596 460.309 345.176 460.789 344.888C461.269 344.592 461.805 344.444 462.397 344.444C463.141 344.444 463.773 344.676 464.293 345.14C464.821 345.612 465.085 346.244 465.085 347.036C465.085 347.884 464.609 348.796 463.657 349.772L461.761 351.668H465.241V353ZM471.669 350.204H472.629V351.488H471.669V353H470.277V351.488H466.149V350.204L469.041 344.6H470.541L467.649 350.204H470.277V348.02H471.669V350.204Z" fill="white"/>
<path d="M120.904 353H115.372V351.92L118.3 348.932C119.012 348.22 119.368 347.604 119.368 347.084C119.368 346.684 119.248 346.368 119.008 346.136C118.768 345.904 118.456 345.788 118.072 345.788C117.368 345.788 116.848 346.136 116.512 346.832L115.348 346.148C115.604 345.596 115.972 345.176 116.452 344.888C116.932 344.592 117.468 344.444 118.06 344.444C118.804 344.444 119.436 344.676 119.956 345.14C120.484 345.612 120.748 346.244 120.748 347.036C120.748 347.884 120.272 348.796 119.32 349.772L117.424 351.668H120.904V353ZM127.798 351.968C127.222 352.76 126.414 353.156 125.374 353.156C124.342 353.156 123.53 352.76 122.938 351.968C122.362 351.176 122.074 350.12 122.074 348.8C122.074 347.48 122.362 346.424 122.938 345.632C123.53 344.84 124.342 344.444 125.374 344.444C126.414 344.444 127.222 344.84 127.798 345.632C128.382 346.416 128.674 347.472 128.674 348.8C128.674 350.128 128.382 351.184 127.798 351.968ZM125.374 351.812C125.998 351.812 126.474 351.552 126.802 351.032C127.13 350.512 127.294 349.768 127.294 348.8C127.294 347.832 127.13 347.088 126.802 346.568C126.474 346.048 125.998 345.788 125.374 345.788C124.758 345.788 124.282 346.048 123.946 346.568C123.618 347.088 123.454 347.832 123.454 348.8C123.454 349.768 123.618 350.512 123.946 351.032C124.282 351.552 124.758 351.812 125.374 351.812ZM135.241 353H129.709V351.92L132.637 348.932C133.349 348.22 133.705 347.604 133.705 347.084C133.705 346.684 133.585 346.368 133.345 346.136C133.105 345.904 132.793 345.788 132.409 345.788C131.705 345.788 131.185 346.136 130.849 346.832L129.685 346.148C129.941 345.596 130.309 345.176 130.789 344.888C131.269 344.592 131.805 344.444 132.397 344.444C133.141 344.444 133.773 344.676 134.293 345.14C134.821 345.612 135.085 346.244 135.085 347.036C135.085 347.884 134.609 348.796 133.657 349.772L131.761 351.668H135.241V353ZM136.088 345.38L138.296 344.6H139.496V353H138.116V346.076L136.424 346.556L136.088 345.38Z" fill="white"/>
<path d="M10.904 353H5.372V351.92L8.3 348.932C9.012 348.22 9.368 347.604 9.368 347.084C9.368 346.684 9.248 346.368 9.008 346.136C8.768 345.904 8.456 345.788 8.072 345.788C7.368 345.788 6.848 346.136 6.512 346.832L5.348 346.148C5.604 345.596 5.972 345.176 6.452 344.888C6.932 344.592 7.468 344.444 8.06 344.444C8.804 344.444 9.436 344.676 9.956 345.14C10.484 345.612 10.748 346.244 10.748 347.036C10.748 347.884 10.272 348.796 9.32 349.772L7.424 351.668H10.904V353ZM17.7984 351.968C17.2224 352.76 16.4144 353.156 15.3744 353.156C14.3424 353.156 13.5304 352.76 12.9384 351.968C12.3624 351.176 12.0744 350.12 12.0744 348.8C12.0744 347.48 12.3624 346.424 12.9384 345.632C13.5304 344.84 14.3424 344.444 15.3744 344.444C16.4144 344.444 17.2224 344.84 17.7984 345.632C18.3824 346.416 18.6744 347.472 18.6744 348.8C18.6744 350.128 18.3824 351.184 17.7984 351.968ZM15.3744 351.812C15.9984 351.812 16.4744 351.552 16.8024 351.032C17.1304 350.512 17.2944 349.768 17.2944 348.8C17.2944 347.832 17.1304 347.088 16.8024 346.568C16.4744 346.048 15.9984 345.788 15.3744 345.788C14.7584 345.788 14.2824 346.048 13.9464 346.568C13.6184 347.088 13.4544 347.832 13.4544 348.8C13.4544 349.768 13.6184 350.512 13.9464 351.032C14.2824 351.552 14.7584 351.812 15.3744 351.812ZM25.2412 353H19.7092V351.92L22.6372 348.932C23.3492 348.22 23.7052 347.604 23.7052 347.084C23.7052 346.684 23.5852 346.368 23.3452 346.136C23.1052 345.904 22.7932 345.788 22.4092 345.788C21.7052 345.788 21.1852 346.136 20.8492 346.832L19.6852 346.148C19.9412 345.596 20.3092 345.176 20.7892 344.888C21.2692 344.592 21.8052 344.444 22.3972 344.444C23.1412 344.444 23.7732 344.676 24.2932 345.14C24.8212 345.612 25.0852 346.244 25.0852 347.036C25.0852 347.884 24.6092 348.796 23.6572 349.772L21.7612 351.668H25.2412V353ZM32.1356 351.968C31.5596 352.76 30.7516 353.156 29.7116 353.156C28.6796 353.156 27.8676 352.76 27.2756 351.968C26.6996 351.176 26.4116 350.12 26.4116 348.8C26.4116 347.48 26.6996 346.424 27.2756 345.632C27.8676 344.84 28.6796 344.444 29.7116 344.444C30.7516 344.444 31.5596 344.84 32.1356 345.632C32.7196 346.416 33.0116 347.472 33.0116 348.8C33.0116 350.128 32.7196 351.184 32.1356 351.968ZM29.7116 351.812C30.3356 351.812 30.8116 351.552 31.1396 351.032C31.4676 350.512 31.6316 349.768 31.6316 348.8C31.6316 347.832 31.4676 347.088 31.1396 346.568C30.8116 346.048 30.3356 345.788 29.7116 345.788C29.0956 345.788 28.6196 346.048 28.2836 346.568C27.9556 347.088 27.7916 347.832 27.7916 348.8C27.7916 349.768 27.9556 350.512 28.2836 351.032C28.6196 351.552 29.0956 351.812 29.7116 351.812Z" fill="white"/>
<line x1="5" y1="332.5" x2="665" y2="332.5" stroke="white" stroke-opacity="0.3"/>
<line x1="4.5" y1="332" x2="4.49998" y2="3" stroke="white" stroke-opacity="0.3" stroke-dasharray="4 4"/>
<line x1="114.5" y1="332" x2="114.5" y2="3" stroke="white" stroke-opacity="0.3" stroke-dasharray="4 4"/>
<line x1="224.5" y1="332" x2="224.5" y2="3" stroke="white" stroke-opacity="0.3" stroke-dasharray="4 4"/>
<line x1="334.5" y1="332" x2="334.5" y2="3" stroke="white" stroke-opacity="0.3" stroke-dasharray="4 4"/>
<line x1="444.5" y1="332" x2="444.5" y2="3" stroke="white" stroke-opacity="0.3" stroke-dasharray="4 4"/>
<line x1="554.5" y1="332" x2="554.5" y2="3" stroke="white" stroke-opacity="0.3" stroke-dasharray="4 4"/>
<line x1="664.5" y1="332" x2="664.5" y2="3" stroke="white" stroke-opacity="0.3" stroke-dasharray="4 4"/>
<path d="M5 286.5L117.621 249.683L226.483 222.94L443.379 169.659L551 117L664 6.5" stroke="#A0725B"/>
<path d="M189.712 200.776L188.008 203.032C188.632 203.176 189.128 203.464 189.496 203.896C189.872 204.32 190.06 204.84 190.06 205.456C190.06 206.296 189.776 206.956 189.208 207.436C188.648 207.916 187.952 208.156 187.12 208.156C186.464 208.156 185.884 208.008 185.38 207.712C184.876 207.408 184.516 206.976 184.3 206.416L185.476 205.732C185.724 206.452 186.272 206.812 187.12 206.812C187.6 206.812 187.98 206.692 188.26 206.452C188.54 206.204 188.68 205.872 188.68 205.456C188.68 205.04 188.54 204.712 188.26 204.472C187.98 204.232 187.6 204.112 187.12 204.112H186.808L186.256 203.284L188.068 200.896H184.552V199.6H189.712V200.776ZM197.044 206.968C196.468 207.76 195.66 208.156 194.62 208.156C193.588 208.156 192.776 207.76 192.184 206.968C191.608 206.176 191.32 205.12 191.32 203.8C191.32 202.48 191.608 201.424 192.184 200.632C192.776 199.84 193.588 199.444 194.62 199.444C195.66 199.444 196.468 199.84 197.044 200.632C197.628 201.416 197.92 202.472 197.92 203.8C197.92 205.128 197.628 206.184 197.044 206.968ZM194.62 206.812C195.244 206.812 195.72 206.552 196.048 206.032C196.376 205.512 196.54 204.768 196.54 203.8C196.54 202.832 196.376 202.088 196.048 201.568C195.72 201.048 195.244 200.788 194.62 200.788C194.004 200.788 193.528 201.048 193.192 201.568C192.864 202.088 192.7 202.832 192.7 203.8C192.7 204.768 192.864 205.512 193.192 206.032C193.528 206.552 194.004 206.812 194.62 206.812ZM204.963 206.968C204.387 207.76 203.579 208.156 202.539 208.156C201.507 208.156 200.695 207.76 200.103 206.968C199.527 206.176 199.239 205.12 199.239 203.8C199.239 202.48 199.527 201.424 200.103 200.632C200.695 199.84 201.507 199.444 202.539 199.444C203.579 199.444 204.387 199.84 204.963 200.632C205.547 201.416 205.839 202.472 205.839 203.8C205.839 205.128 205.547 206.184 204.963 206.968ZM202.539 206.812C203.163 206.812 203.639 206.552 203.967 206.032C204.295 205.512 204.459 204.768 204.459 203.8C204.459 202.832 204.295 202.088 203.967 201.568C203.639 201.048 203.163 200.788 202.539 200.788C201.923 200.788 201.447 201.048 201.111 201.568C200.783 202.088 200.619 202.832 200.619 203.8C200.619 204.768 200.783 205.512 201.111 206.032C201.447 206.552 201.923 206.812 202.539 206.812ZM216.242 206.968C215.666 207.76 214.858 208.156 213.818 208.156C212.786 208.156 211.974 207.76 211.382 206.968C210.806 206.176 210.518 205.12 210.518 203.8C210.518 202.48 210.806 201.424 211.382 200.632C211.974 199.84 212.786 199.444 213.818 199.444C214.858 199.444 215.666 199.84 216.242 200.632C216.826 201.416 217.118 202.472 217.118 203.8C217.118 205.128 216.826 206.184 216.242 206.968ZM213.818 206.812C214.442 206.812 214.918 206.552 215.246 206.032C215.574 205.512 215.738 204.768 215.738 203.8C215.738 202.832 215.574 202.088 215.246 201.568C214.918 201.048 214.442 200.788 213.818 200.788C213.202 200.788 212.726 201.048 212.39 201.568C212.062 202.088 211.898 202.832 211.898 203.8C211.898 204.768 212.062 205.512 212.39 206.032C212.726 206.552 213.202 206.812 213.818 206.812ZM224.16 206.968C223.584 207.76 222.776 208.156 221.736 208.156C220.704 208.156 219.892 207.76 219.3 206.968C218.724 206.176 218.436 205.12 218.436 203.8C218.436 202.48 218.724 201.424 219.3 200.632C219.892 199.84 220.704 199.444 221.736 199.444C222.776 199.444 223.584 199.84 224.16 200.632C224.744 201.416 225.036 202.472 225.036 203.8C225.036 205.128 224.744 206.184 224.16 206.968ZM221.736 206.812C222.36 206.812 222.836 206.552 223.164 206.032C223.492 205.512 223.656 204.768 223.656 203.8C223.656 202.832 223.492 202.088 223.164 201.568C222.836 201.048 222.36 200.788 221.736 200.788C221.12 200.788 220.644 201.048 220.308 201.568C219.98 202.088 219.816 202.832 219.816 203.8C219.816 204.768 219.98 205.512 220.308 206.032C220.644 206.552 221.12 206.812 221.736 206.812ZM232.079 206.968C231.503 207.76 230.695 208.156 229.655 208.156C228.623 208.156 227.811 207.76 227.219 206.968C226.643 206.176 226.355 205.12 226.355 203.8C226.355 202.48 226.643 201.424 227.219 200.632C227.811 199.84 228.623 199.444 229.655 199.444C230.695 199.444 231.503 199.84 232.079 200.632C232.663 201.416 232.955 202.472 232.955 203.8C232.955 205.128 232.663 206.184 232.079 206.968ZM229.655 206.812C230.279 206.812 230.755 206.552 231.083 206.032C231.411 205.512 231.575 204.768 231.575 203.8C231.575 202.832 231.411 202.088 231.083 201.568C230.755 201.048 230.279 200.788 229.655 200.788C229.039 200.788 228.563 201.048 228.227 201.568C227.899 202.088 227.735 202.832 227.735 203.8C227.735 204.768 227.899 205.512 228.227 206.032C228.563 206.552 229.039 206.812 229.655 206.812ZM241.389 204.94H239.673V205.744H242.493V206.68H239.673V208H238.293V206.68H237.333V205.744H238.293V204.94H237.333V203.704H238.293V199.6H241.389C242.149 199.6 242.793 199.864 243.321 200.392C243.849 200.904 244.113 201.54 244.113 202.3C244.113 203.044 243.849 203.672 243.321 204.184C242.793 204.688 242.149 204.94 241.389 204.94ZM241.389 200.896H239.673V203.704H241.389C241.773 203.704 242.089 203.568 242.337 203.296C242.601 203.024 242.733 202.692 242.733 202.3C242.733 201.908 242.601 201.576 242.337 201.304C242.089 201.032 241.773 200.896 241.389 200.896ZM250.565 198.4L245.765 209.2H245.105L249.905 198.4H250.565ZM258.754 199.6H260.23V208H258.85V202.012L256.294 206.236H256.126L253.57 202V208H252.19V199.6H253.678L256.21 203.8L258.754 199.6ZM265.541 203.008H261.749V202.024L263.057 200.74C263.297 200.508 263.485 200.316 263.621 200.164C263.757 200.004 263.853 199.86 263.909 199.732C263.965 199.604 263.993 199.472 263.993 199.336C263.993 199.192 263.945 199.08 263.849 199C263.761 198.92 263.637 198.88 263.477 198.88C263.325 198.88 263.161 198.92 262.985 199C262.817 199.08 262.629 199.212 262.421 199.396L261.701 198.508C261.957 198.284 262.241 198.104 262.553 197.968C262.873 197.824 263.245 197.752 263.669 197.752C264.189 197.752 264.605 197.88 264.917 198.136C265.237 198.384 265.397 198.744 265.397 199.216C265.397 199.456 265.353 199.68 265.265 199.888C265.177 200.088 265.037 200.3 264.845 200.524C264.653 200.74 264.401 200.992 264.089 201.28L263.477 201.832H265.541V203.008Z" fill="white"/>
<circle cx="225" cy="223" r="5" fill="#A0725B"/>
<path d="M408.796 151.204H409.756V152.488H408.796V154H407.404V152.488H403.276V151.204L406.168 145.6H407.668L404.776 151.204H407.404V149.02H408.796V151.204ZM416.525 152.968C415.949 153.76 415.141 154.156 414.101 154.156C413.069 154.156 412.257 153.76 411.665 152.968C411.089 152.176 410.801 151.12 410.801 149.8C410.801 148.48 411.089 147.424 411.665 146.632C412.257 145.84 413.069 145.444 414.101 145.444C415.141 145.444 415.949 145.84 416.525 146.632C417.109 147.416 417.401 148.472 417.401 149.8C417.401 151.128 417.109 152.184 416.525 152.968ZM414.101 152.812C414.725 152.812 415.201 152.552 415.529 152.032C415.857 151.512 416.021 150.768 416.021 149.8C416.021 148.832 415.857 148.088 415.529 147.568C415.201 147.048 414.725 146.788 414.101 146.788C413.485 146.788 413.009 147.048 412.673 147.568C412.345 148.088 412.181 148.832 412.181 149.8C412.181 150.768 412.345 151.512 412.673 152.032C413.009 152.552 413.485 152.812 414.101 152.812ZM424.444 152.968C423.868 153.76 423.06 154.156 422.02 154.156C420.988 154.156 420.176 153.76 419.584 152.968C419.008 152.176 418.72 151.12 418.72 149.8C418.72 148.48 419.008 147.424 419.584 146.632C420.176 145.84 420.988 145.444 422.02 145.444C423.06 145.444 423.868 145.84 424.444 146.632C425.028 147.416 425.32 148.472 425.32 149.8C425.32 151.128 425.028 152.184 424.444 152.968ZM422.02 152.812C422.644 152.812 423.12 152.552 423.448 152.032C423.776 151.512 423.94 150.768 423.94 149.8C423.94 148.832 423.776 148.088 423.448 147.568C423.12 147.048 422.644 146.788 422.02 146.788C421.404 146.788 420.928 147.048 420.592 147.568C420.264 148.088 420.1 148.832 420.1 149.8C420.1 150.768 420.264 151.512 420.592 152.032C420.928 152.552 421.404 152.812 422.02 152.812ZM435.722 152.968C435.146 153.76 434.338 154.156 433.298 154.156C432.266 154.156 431.454 153.76 430.862 152.968C430.286 152.176 429.998 151.12 429.998 149.8C429.998 148.48 430.286 147.424 430.862 146.632C431.454 145.84 432.266 145.444 433.298 145.444C434.338 145.444 435.146 145.84 435.722 146.632C436.306 147.416 436.598 148.472 436.598 149.8C436.598 151.128 436.306 152.184 435.722 152.968ZM433.298 152.812C433.922 152.812 434.398 152.552 434.726 152.032C435.054 151.512 435.218 150.768 435.218 149.8C435.218 148.832 435.054 148.088 434.726 147.568C434.398 147.048 433.922 146.788 433.298 146.788C432.682 146.788 432.206 147.048 431.87 147.568C431.542 148.088 431.378 148.832 431.378 149.8C431.378 150.768 431.542 151.512 431.87 152.032C432.206 152.552 432.682 152.812 433.298 152.812ZM443.641 152.968C443.065 153.76 442.257 154.156 441.217 154.156C440.185 154.156 439.373 153.76 438.781 152.968C438.205 152.176 437.917 151.12 437.917 149.8C437.917 148.48 438.205 147.424 438.781 146.632C439.373 145.84 440.185 145.444 441.217 145.444C442.257 145.444 443.065 145.84 443.641 146.632C444.225 147.416 444.517 148.472 444.517 149.8C444.517 151.128 444.225 152.184 443.641 152.968ZM441.217 152.812C441.841 152.812 442.317 152.552 442.645 152.032C442.973 151.512 443.137 150.768 443.137 149.8C443.137 148.832 442.973 148.088 442.645 147.568C442.317 147.048 441.841 146.788 441.217 146.788C440.601 146.788 440.125 147.048 439.789 147.568C439.461 148.088 439.297 148.832 439.297 149.8C439.297 150.768 439.461 151.512 439.789 152.032C440.125 152.552 440.601 152.812 441.217 152.812ZM451.559 152.968C450.983 153.76 450.175 154.156 449.135 154.156C448.103 154.156 447.291 153.76 446.699 152.968C446.123 152.176 445.835 151.12 445.835 149.8C445.835 148.48 446.123 147.424 446.699 146.632C447.291 145.84 448.103 145.444 449.135 145.444C450.175 145.444 450.983 145.84 451.559 146.632C452.143 147.416 452.435 148.472 452.435 149.8C452.435 151.128 452.143 152.184 451.559 152.968ZM449.135 152.812C449.759 152.812 450.235 152.552 450.563 152.032C450.891 151.512 451.055 150.768 451.055 149.8C451.055 148.832 450.891 148.088 450.563 147.568C450.235 147.048 449.759 146.788 449.135 146.788C448.519 146.788 448.043 147.048 447.707 147.568C447.379 148.088 447.215 148.832 447.215 149.8C447.215 150.768 447.379 151.512 447.707 152.032C448.043 152.552 448.519 152.812 449.135 152.812ZM460.87 150.94H459.154V151.744H461.974V152.68H459.154V154H457.774V152.68H456.814V151.744H457.774V150.94H456.814V149.704H457.774V145.6H460.87C461.63 145.6 462.274 145.864 462.802 146.392C463.33 146.904 463.594 147.54 463.594 148.3C463.594 149.044 463.33 149.672 462.802 150.184C462.274 150.688 461.63 150.94 460.87 150.94ZM460.87 146.896H459.154V149.704H460.87C461.254 149.704 461.57 149.568 461.818 149.296C462.082 149.024 462.214 148.692 462.214 148.3C462.214 147.908 462.082 147.576 461.818 147.304C461.57 147.032 461.254 146.896 460.87 146.896ZM470.046 144.4L465.246 155.2H464.586L469.386 144.4H470.046ZM478.234 145.6H479.71V154H478.33V148.012L475.774 152.236H475.606L473.05 148V154H471.67V145.6H473.158L475.69 149.8L478.234 145.6ZM485.021 149.008H481.229V148.024L482.537 146.74C482.777 146.508 482.965 146.316 483.101 146.164C483.237 146.004 483.333 145.86 483.389 145.732C483.445 145.604 483.473 145.472 483.473 145.336C483.473 145.192 483.425 145.08 483.329 145C483.241 144.92 483.117 144.88 482.957 144.88C482.805 144.88 482.641 144.92 482.465 145C482.297 145.08 482.109 145.212 481.901 145.396L481.181 144.508C481.437 144.284 481.721 144.104 482.033 143.968C482.353 143.824 482.725 143.752 483.149 143.752C483.669 143.752 484.085 143.88 484.397 144.136C484.717 144.384 484.877 144.744 484.877 145.216C484.877 145.456 484.833 145.68 484.745 145.888C484.657 146.088 484.517 146.3 484.325 146.524C484.133 146.74 483.881 146.992 483.569 147.28L482.957 147.832H485.021V149.008Z" fill="white"/>
<circle cx="445" cy="169" r="5" fill="#A0725B"/>
<path d="M299.712 173.776L298.008 176.032C298.632 176.176 299.128 176.464 299.496 176.896C299.872 177.32 300.06 177.84 300.06 178.456C300.06 179.296 299.776 179.956 299.208 180.436C298.648 180.916 297.952 181.156 297.12 181.156C296.464 181.156 295.884 181.008 295.38 180.712C294.876 180.408 294.516 179.976 294.3 179.416L295.476 178.732C295.724 179.452 296.272 179.812 297.12 179.812C297.6 179.812 297.98 179.692 298.26 179.452C298.54 179.204 298.68 178.872 298.68 178.456C298.68 178.04 298.54 177.712 298.26 177.472C297.98 177.232 297.6 177.112 297.12 177.112H296.808L296.256 176.284L298.068 173.896H294.552V172.6H299.712V173.776ZM302.967 175.768H304.023C304.823 175.768 305.499 176.008 306.051 176.488C306.603 176.96 306.879 177.616 306.879 178.456C306.879 179.296 306.595 179.956 306.027 180.436C305.467 180.916 304.771 181.156 303.939 181.156C303.259 181.156 302.667 181 302.163 180.688C301.659 180.376 301.299 179.932 301.083 179.356L302.271 178.672C302.503 179.432 303.059 179.812 303.939 179.812C304.411 179.812 304.787 179.692 305.067 179.452C305.355 179.204 305.499 178.872 305.499 178.456C305.499 178.048 305.359 177.724 305.079 177.484C304.799 177.236 304.427 177.112 303.963 177.112H301.515L301.839 172.6H306.519V173.896H303.111L302.967 175.768ZM313.639 179.968C313.063 180.76 312.255 181.156 311.215 181.156C310.183 181.156 309.371 180.76 308.779 179.968C308.203 179.176 307.915 178.12 307.915 176.8C307.915 175.48 308.203 174.424 308.779 173.632C309.371 172.84 310.183 172.444 311.215 172.444C312.255 172.444 313.063 172.84 313.639 173.632C314.223 174.416 314.515 175.472 314.515 176.8C314.515 178.128 314.223 179.184 313.639 179.968ZM311.215 179.812C311.839 179.812 312.315 179.552 312.643 179.032C312.971 178.512 313.135 177.768 313.135 176.8C313.135 175.832 312.971 175.088 312.643 174.568C312.315 174.048 311.839 173.788 311.215 173.788C310.599 173.788 310.123 174.048 309.787 174.568C309.459 175.088 309.295 175.832 309.295 176.8C309.295 177.768 309.459 178.512 309.787 179.032C310.123 179.552 310.599 179.812 311.215 179.812ZM324.917 179.968C324.341 180.76 323.533 181.156 322.493 181.156C321.461 181.156 320.649 180.76 320.057 179.968C319.481 179.176 319.193 178.12 319.193 176.8C319.193 175.48 319.481 174.424 320.057 173.632C320.649 172.84 321.461 172.444 322.493 172.444C323.533 172.444 324.341 172.84 324.917 173.632C325.501 174.416 325.793 175.472 325.793 176.8C325.793 178.128 325.501 179.184 324.917 179.968ZM322.493 179.812C323.117 179.812 323.593 179.552 323.921 179.032C324.249 178.512 324.413 177.768 324.413 176.8C324.413 175.832 324.249 175.088 323.921 174.568C323.593 174.048 323.117 173.788 322.493 173.788C321.877 173.788 321.401 174.048 321.065 174.568C320.737 175.088 320.573 175.832 320.573 176.8C320.573 177.768 320.737 178.512 321.065 179.032C321.401 179.552 321.877 179.812 322.493 179.812ZM332.836 179.968C332.26 180.76 331.452 181.156 330.412 181.156C329.38 181.156 328.568 180.76 327.976 179.968C327.4 179.176 327.112 178.12 327.112 176.8C327.112 175.48 327.4 174.424 327.976 173.632C328.568 172.84 329.38 172.444 330.412 172.444C331.452 172.444 332.26 172.84 332.836 173.632C333.42 174.416 333.712 175.472 333.712 176.8C333.712 178.128 333.42 179.184 332.836 179.968ZM330.412 179.812C331.036 179.812 331.512 179.552 331.84 179.032C332.168 178.512 332.332 177.768 332.332 176.8C332.332 175.832 332.168 175.088 331.84 174.568C331.512 174.048 331.036 173.788 330.412 173.788C329.796 173.788 329.32 174.048 328.984 174.568C328.656 175.088 328.492 175.832 328.492 176.8C328.492 177.768 328.656 178.512 328.984 179.032C329.32 179.552 329.796 179.812 330.412 179.812ZM340.755 179.968C340.179 180.76 339.371 181.156 338.331 181.156C337.299 181.156 336.487 180.76 335.895 179.968C335.319 179.176 335.031 178.12 335.031 176.8C335.031 175.48 335.319 174.424 335.895 173.632C336.487 172.84 337.299 172.444 338.331 172.444C339.371 172.444 340.179 172.84 340.755 173.632C341.339 174.416 341.631 175.472 341.631 176.8C341.631 178.128 341.339 179.184 340.755 179.968ZM338.331 179.812C338.955 179.812 339.431 179.552 339.759 179.032C340.087 178.512 340.251 177.768 340.251 176.8C340.251 175.832 340.087 175.088 339.759 174.568C339.431 174.048 338.955 173.788 338.331 173.788C337.715 173.788 337.239 174.048 336.903 174.568C336.575 175.088 336.411 175.832 336.411 176.8C336.411 177.768 336.575 178.512 336.903 179.032C337.239 179.552 337.715 179.812 338.331 179.812ZM350.065 177.94H348.349V178.744H351.169V179.68H348.349V181H346.969V179.68H346.009V178.744H346.969V177.94H346.009V176.704H346.969V172.6H350.065C350.825 172.6 351.469 172.864 351.997 173.392C352.525 173.904 352.789 174.54 352.789 175.3C352.789 176.044 352.525 176.672 351.997 177.184C351.469 177.688 350.825 177.94 350.065 177.94ZM350.065 173.896H348.349V176.704H350.065C350.449 176.704 350.765 176.568 351.013 176.296C351.277 176.024 351.409 175.692 351.409 175.3C351.409 174.908 351.277 174.576 351.013 174.304C350.765 174.032 350.449 173.896 350.065 173.896ZM359.241 171.4L354.441 182.2H353.781L358.581 171.4H359.241ZM367.43 172.6H368.906V181H367.526V175.012L364.97 179.236H364.802L362.246 175V181H360.866V172.6H362.354L364.886 176.8L367.43 172.6ZM374.217 176.008H370.425V175.024L371.733 173.74C371.973 173.508 372.161 173.316 372.297 173.164C372.433 173.004 372.529 172.86 372.585 172.732C372.641 172.604 372.669 172.472 372.669 172.336C372.669 172.192 372.621 172.08 372.525 172C372.437 171.92 372.313 171.88 372.153 171.88C372.001 171.88 371.837 171.92 371.661 172C371.493 172.08 371.305 172.212 371.097 172.396L370.377 171.508C370.633 171.284 370.917 171.104 371.229 170.968C371.549 170.824 371.921 170.752 372.345 170.752C372.865 170.752 373.281 170.88 373.593 171.136C373.913 171.384 374.073 171.744 374.073 172.216C374.073 172.456 374.029 172.68 373.941 172.888C373.853 173.088 373.713 173.3 373.521 173.524C373.329 173.74 373.077 173.992 372.765 174.28L372.153 174.832H374.217V176.008Z" fill="white"/>
<circle cx="335" cy="196" r="5" fill="#A0725B"/>
<path d="M516.244 93.768H517.3C518.1 93.768 518.776 94.008 519.328 94.488C519.88 94.96 520.156 95.616 520.156 96.456C520.156 97.296 519.872 97.956 519.304 98.436C518.744 98.916 518.048 99.156 517.216 99.156C516.536 99.156 515.944 99 515.44 98.688C514.936 98.376 514.576 97.932 514.36 97.356L515.548 96.672C515.78 97.432 516.336 97.812 517.216 97.812C517.688 97.812 518.064 97.692 518.344 97.452C518.632 97.204 518.776 96.872 518.776 96.456C518.776 96.048 518.636 95.724 518.356 95.484C518.076 95.236 517.704 95.112 517.24 95.112H514.792L515.116 90.6H519.796V91.896H516.388L516.244 93.768ZM526.916 97.968C526.34 98.76 525.532 99.156 524.492 99.156C523.46 99.156 522.648 98.76 522.056 97.968C521.48 97.176 521.192 96.12 521.192 94.8C521.192 93.48 521.48 92.424 522.056 91.632C522.648 90.84 523.46 90.444 524.492 90.444C525.532 90.444 526.34 90.84 526.916 91.632C527.5 92.416 527.792 93.472 527.792 94.8C527.792 96.128 527.5 97.184 526.916 97.968ZM524.492 97.812C525.116 97.812 525.592 97.552 525.92 97.032C526.248 96.512 526.412 95.768 526.412 94.8C526.412 93.832 526.248 93.088 525.92 92.568C525.592 92.048 525.116 91.788 524.492 91.788C523.876 91.788 523.4 92.048 523.064 92.568C522.736 93.088 522.572 93.832 522.572 94.8C522.572 95.768 522.736 96.512 523.064 97.032C523.4 97.552 523.876 97.812 524.492 97.812ZM534.834 97.968C534.258 98.76 533.45 99.156 532.41 99.156C531.378 99.156 530.566 98.76 529.974 97.968C529.398 97.176 529.11 96.12 529.11 94.8C529.11 93.48 529.398 92.424 529.974 91.632C530.566 90.84 531.378 90.444 532.41 90.444C533.45 90.444 534.258 90.84 534.834 91.632C535.418 92.416 535.71 93.472 535.71 94.8C535.71 96.128 535.418 97.184 534.834 97.968ZM532.41 97.812C533.034 97.812 533.51 97.552 533.838 97.032C534.166 96.512 534.33 95.768 534.33 94.8C534.33 93.832 534.166 93.088 533.838 92.568C533.51 92.048 533.034 91.788 532.41 91.788C531.794 91.788 531.318 92.048 530.982 92.568C530.654 93.088 530.49 93.832 530.49 94.8C530.49 95.768 530.654 96.512 530.982 97.032C531.318 97.552 531.794 97.812 532.41 97.812ZM546.113 97.968C545.537 98.76 544.729 99.156 543.689 99.156C542.657 99.156 541.845 98.76 541.253 97.968C540.677 97.176 540.389 96.12 540.389 94.8C540.389 93.48 540.677 92.424 541.253 91.632C541.845 90.84 542.657 90.444 543.689 90.444C544.729 90.444 545.537 90.84 546.113 91.632C546.697 92.416 546.989 93.472 546.989 94.8C546.989 96.128 546.697 97.184 546.113 97.968ZM543.689 97.812C544.313 97.812 544.789 97.552 545.117 97.032C545.445 96.512 545.609 95.768 545.609 94.8C545.609 93.832 545.445 93.088 545.117 92.568C544.789 92.048 544.313 91.788 543.689 91.788C543.073 91.788 542.597 92.048 542.261 92.568C541.933 93.088 541.769 93.832 541.769 94.8C541.769 95.768 541.933 96.512 542.261 97.032C542.597 97.552 543.073 97.812 543.689 97.812ZM554.031 97.968C553.455 98.76 552.647 99.156 551.607 99.156C550.575 99.156 549.763 98.76 549.171 97.968C548.595 97.176 548.307 96.12 548.307 94.8C548.307 93.48 548.595 92.424 549.171 91.632C549.763 90.84 550.575 90.444 551.607 90.444C552.647 90.444 553.455 90.84 554.031 91.632C554.615 92.416 554.907 93.472 554.907 94.8C554.907 96.128 554.615 97.184 554.031 97.968ZM551.607 97.812C552.231 97.812 552.707 97.552 553.035 97.032C553.363 96.512 553.527 95.768 553.527 94.8C553.527 93.832 553.363 93.088 553.035 92.568C552.707 92.048 552.231 91.788 551.607 91.788C550.991 91.788 550.515 92.048 550.179 92.568C549.851 93.088 549.687 93.832 549.687 94.8C549.687 95.768 549.851 96.512 550.179 97.032C550.515 97.552 550.991 97.812 551.607 97.812ZM561.95 97.968C561.374 98.76 560.566 99.156 559.526 99.156C558.494 99.156 557.682 98.76 557.09 97.968C556.514 97.176 556.226 96.12 556.226 94.8C556.226 93.48 556.514 92.424 557.09 91.632C557.682 90.84 558.494 90.444 559.526 90.444C560.566 90.444 561.374 90.84 561.95 91.632C562.534 92.416 562.826 93.472 562.826 94.8C562.826 96.128 562.534 97.184 561.95 97.968ZM559.526 97.812C560.15 97.812 560.626 97.552 560.954 97.032C561.282 96.512 561.446 95.768 561.446 94.8C561.446 93.832 561.282 93.088 560.954 92.568C560.626 92.048 560.15 91.788 559.526 91.788C558.91 91.788 558.434 92.048 558.098 92.568C557.77 93.088 557.606 93.832 557.606 94.8C557.606 95.768 557.77 96.512 558.098 97.032C558.434 97.552 558.91 97.812 559.526 97.812ZM571.261 95.94H569.545V96.744H572.365V97.68H569.545V99H568.165V97.68H567.205V96.744H568.165V95.94H567.205V94.704H568.165V90.6H571.261C572.021 90.6 572.665 90.864 573.193 91.392C573.721 91.904 573.985 92.54 573.985 93.3C573.985 94.044 573.721 94.672 573.193 95.184C572.665 95.688 572.021 95.94 571.261 95.94ZM571.261 91.896H569.545V94.704H571.261C571.645 94.704 571.961 94.568 572.209 94.296C572.473 94.024 572.605 93.692 572.605 93.3C572.605 92.908 572.473 92.576 572.209 92.304C571.961 92.032 571.645 91.896 571.261 91.896ZM580.436 89.4L575.636 100.2H574.976L579.776 89.4H580.436ZM588.625 90.6H590.101V99H588.721V93.012L586.165 97.236H585.997L583.441 93V99H582.061V90.6H583.549L586.081 94.8L588.625 90.6ZM595.412 94.008H591.62V93.024L592.928 91.74C593.168 91.508 593.356 91.316 593.492 91.164C593.628 91.004 593.724 90.86 593.78 90.732C593.836 90.604 593.864 90.472 593.864 90.336C593.864 90.192 593.816 90.08 593.72 90C593.632 89.92 593.508 89.88 593.348 89.88C593.196 89.88 593.032 89.92 592.856 90C592.688 90.08 592.5 90.212 592.292 90.396L591.572 89.508C591.828 89.284 592.112 89.104 592.424 88.968C592.744 88.824 593.116 88.752 593.54 88.752C594.06 88.752 594.476 88.88 594.788 89.136C595.108 89.384 595.268 89.744 595.268 90.216C595.268 90.456 595.224 90.68 595.136 90.888C595.048 91.088 594.908 91.3 594.716 91.524C594.524 91.74 594.272 91.992 593.96 92.28L593.348 92.832H595.412V94.008Z" fill="white"/>
<path d="M575.076 6.632C575.9 7.088 576.312 7.768 576.312 8.672C576.312 9.432 576.044 10.036 575.508 10.484C574.98 10.932 574.268 11.156 573.372 11.156C572.476 11.156 571.76 10.936 571.224 10.496C570.688 10.056 570.42 9.448 570.42 8.672C570.42 8.24 570.528 7.848 570.744 7.496C570.96 7.136 571.264 6.848 571.656 6.632C571.024 6.216 570.708 5.624 570.708 4.856C570.708 4.088 570.964 3.496 571.476 3.08C571.996 2.656 572.628 2.444 573.372 2.444C574.108 2.444 574.736 2.656 575.256 3.08C575.776 3.504 576.036 4.096 576.036 4.856C576.036 5.616 575.716 6.208 575.076 6.632ZM573.372 3.752C572.988 3.752 572.676 3.856 572.436 4.064C572.204 4.264 572.088 4.548 572.088 4.916C572.088 5.268 572.208 5.552 572.448 5.768C572.688 5.976 572.996 6.08 573.372 6.08C573.74 6.08 574.044 5.976 574.284 5.768C574.532 5.552 574.656 5.268 574.656 4.916C574.656 4.548 574.536 4.264 574.296 4.064C574.056 3.856 573.748 3.752 573.372 3.752ZM573.372 9.848C573.844 9.848 574.22 9.732 574.5 9.5C574.788 9.268 574.932 8.948 574.932 8.54C574.932 8.132 574.788 7.812 574.5 7.58C574.22 7.348 573.844 7.232 573.372 7.232C572.892 7.232 572.508 7.348 572.22 7.58C571.94 7.812 571.8 8.132 571.8 8.54C571.8 8.948 571.94 9.268 572.22 9.5C572.508 9.732 572.892 9.848 573.372 9.848ZM583.291 9.968C582.715 10.76 581.907 11.156 580.867 11.156C579.835 11.156 579.023 10.76 578.431 9.968C577.855 9.176 577.567 8.12 577.567 6.8C577.567 5.48 577.855 4.424 578.431 3.632C579.023 2.84 579.835 2.444 580.867 2.444C581.907 2.444 582.715 2.84 583.291 3.632C583.875 4.416 584.167 5.472 584.167 6.8C584.167 8.128 583.875 9.184 583.291 9.968ZM580.867 9.812C581.491 9.812 581.967 9.552 582.295 9.032C582.623 8.512 582.787 7.768 582.787 6.8C582.787 5.832 582.623 5.088 582.295 4.568C581.967 4.048 581.491 3.788 580.867 3.788C580.251 3.788 579.775 4.048 579.439 4.568C579.111 5.088 578.947 5.832 578.947 6.8C578.947 7.768 579.111 8.512 579.439 9.032C579.775 9.552 580.251 9.812 580.867 9.812ZM591.209 9.968C590.633 10.76 589.825 11.156 588.785 11.156C587.753 11.156 586.941 10.76 586.349 9.968C585.773 9.176 585.485 8.12 585.485 6.8C585.485 5.48 585.773 4.424 586.349 3.632C586.941 2.84 587.753 2.444 588.785 2.444C589.825 2.444 590.633 2.84 591.209 3.632C591.793 4.416 592.085 5.472 592.085 6.8C592.085 8.128 591.793 9.184 591.209 9.968ZM588.785 9.812C589.409 9.812 589.885 9.552 590.213 9.032C590.541 8.512 590.705 7.768 590.705 6.8C590.705 5.832 590.541 5.088 590.213 4.568C589.885 4.048 589.409 3.788 588.785 3.788C588.169 3.788 587.693 4.048 587.357 4.568C587.029 5.088 586.865 5.832 586.865 6.8C586.865 7.768 587.029 8.512 587.357 9.032C587.693 9.552 588.169 9.812 588.785 9.812ZM602.488 9.968C601.912 10.76 601.104 11.156 600.064 11.156C599.032 11.156 598.22 10.76 597.628 9.968C597.052 9.176 596.764 8.12 596.764 6.8C596.764 5.48 597.052 4.424 597.628 3.632C598.22 2.84 599.032 2.444 600.064 2.444C601.104 2.444 601.912 2.84 602.488 3.632C603.072 4.416 603.364 5.472 603.364 6.8C603.364 8.128 603.072 9.184 602.488 9.968ZM600.064 9.812C600.688 9.812 601.164 9.552 601.492 9.032C601.82 8.512 601.984 7.768 601.984 6.8C601.984 5.832 601.82 5.088 601.492 4.568C601.164 4.048 600.688 3.788 600.064 3.788C599.448 3.788 598.972 4.048 598.636 4.568C598.308 5.088 598.144 5.832 598.144 6.8C598.144 7.768 598.308 8.512 598.636 9.032C598.972 9.552 599.448 9.812 600.064 9.812ZM610.406 9.968C609.83 10.76 609.022 11.156 607.982 11.156C606.95 11.156 606.138 10.76 605.546 9.968C604.97 9.176 604.682 8.12 604.682 6.8C604.682 5.48 604.97 4.424 605.546 3.632C606.138 2.84 606.95 2.444 607.982 2.444C609.022 2.444 609.83 2.84 610.406 3.632C610.99 4.416 611.282 5.472 611.282 6.8C611.282 8.128 610.99 9.184 610.406 9.968ZM607.982 9.812C608.606 9.812 609.082 9.552 609.41 9.032C609.738 8.512 609.902 7.768 609.902 6.8C609.902 5.832 609.738 5.088 609.41 4.568C609.082 4.048 608.606 3.788 607.982 3.788C607.366 3.788 606.89 4.048 606.554 4.568C606.226 5.088 606.062 5.832 606.062 6.8C606.062 7.768 606.226 8.512 606.554 9.032C606.89 9.552 607.366 9.812 607.982 9.812ZM618.325 9.968C617.749 10.76 616.941 11.156 615.901 11.156C614.869 11.156 614.057 10.76 613.465 9.968C612.889 9.176 612.601 8.12 612.601 6.8C612.601 5.48 612.889 4.424 613.465 3.632C614.057 2.84 614.869 2.444 615.901 2.444C616.941 2.444 617.749 2.84 618.325 3.632C618.909 4.416 619.201 5.472 619.201 6.8C619.201 8.128 618.909 9.184 618.325 9.968ZM615.901 9.812C616.525 9.812 617.001 9.552 617.329 9.032C617.657 8.512 617.821 7.768 617.821 6.8C617.821 5.832 617.657 5.088 617.329 4.568C617.001 4.048 616.525 3.788 615.901 3.788C615.285 3.788 614.809 4.048 614.473 4.568C614.145 5.088 613.981 5.832 613.981 6.8C613.981 7.768 614.145 8.512 614.473 9.032C614.809 9.552 615.285 9.812 615.901 9.812ZM627.636 7.94H625.92V8.744H628.74V9.68H625.92V11H624.54V9.68H623.58V8.744H624.54V7.94H623.58V6.704H624.54V2.6H627.636C628.396 2.6 629.04 2.864 629.568 3.392C630.096 3.904 630.36 4.54 630.36 5.3C630.36 6.044 630.096 6.672 629.568 7.184C629.04 7.688 628.396 7.94 627.636 7.94ZM627.636 3.896H625.92V6.704H627.636C628.02 6.704 628.336 6.568 628.584 6.296C628.848 6.024 628.98 5.692 628.98 5.3C628.98 4.908 628.848 4.576 628.584 4.304C628.336 4.032 628.02 3.896 627.636 3.896ZM636.811 1.4L632.011 12.2H631.351L636.151 1.4H636.811ZM645 2.6H646.476V11H645.096V5.012L642.54 9.236H642.372L639.816 5V11H638.436V2.6H639.924L642.456 6.8L645 2.6ZM651.787 6.008H647.995V5.024L649.303 3.74C649.543 3.508 649.731 3.316 649.867 3.164C650.003 3.004 650.099 2.86 650.155 2.732C650.211 2.604 650.239 2.472 650.239 2.336C650.239 2.192 650.191 2.08 650.095 2C650.007 1.92 649.883 1.88 649.723 1.88C649.571 1.88 649.407 1.92 649.231 2C649.063 2.08 648.875 2.212 648.667 2.396L647.947 1.508C648.203 1.284 648.487 1.104 648.799 0.968C649.119 0.824 649.491 0.752 649.915 0.752C650.435 0.752 650.851 0.88 651.163 1.136C651.483 1.384 651.643 1.744 651.643 2.216C651.643 2.456 651.599 2.68 651.511 2.888C651.423 3.088 651.283 3.3 651.091 3.524C650.899 3.74 650.647 3.992 650.335 4.28L649.723 4.832H651.787V6.008Z" fill="white"/>
<circle cx="555" cy="114" r="5" fill="#A0725B"/>
<circle cx="664" cy="7" r="5" fill="#A0725B"/>
<path d="M79.904 236H74.372V234.92L77.3 231.932C78.012 231.22 78.368 230.604 78.368 230.084C78.368 229.684 78.248 229.368 78.008 229.136C77.768 228.904 77.456 228.788 77.072 228.788C76.368 228.788 75.848 229.136 75.512 229.832L74.348 229.148C74.604 228.596 74.972 228.176 75.452 227.888C75.932 227.592 76.468 227.444 77.06 227.444C77.804 227.444 78.436 227.676 78.956 228.14C79.484 228.612 79.748 229.244 79.748 230.036C79.748 230.884 79.272 231.796 78.32 232.772L76.424 234.668H79.904V236ZM82.8384 230.768H83.8944C84.6944 230.768 85.3704 231.008 85.9224 231.488C86.4744 231.96 86.7504 232.616 86.7504 233.456C86.7504 234.296 86.4664 234.956 85.8984 235.436C85.3384 235.916 84.6424 236.156 83.8104 236.156C83.1304 236.156 82.5384 236 82.0344 235.688C81.5304 235.376 81.1704 234.932 80.9544 234.356L82.1424 233.672C82.3744 234.432 82.9304 234.812 83.8104 234.812C84.2824 234.812 84.6584 234.692 84.9384 234.452C85.2264 234.204 85.3704 233.872 85.3704 233.456C85.3704 233.048 85.2304 232.724 84.9504 232.484C84.6704 232.236 84.2984 232.112 83.8344 232.112H81.3864L81.7104 227.6H86.3904V228.896H82.9824L82.8384 230.768ZM93.5099 234.968C92.9339 235.76 92.1259 236.156 91.0859 236.156C90.0539 236.156 89.2419 235.76 88.6499 234.968C88.0739 234.176 87.7859 233.12 87.7859 231.8C87.7859 230.48 88.0739 229.424 88.6499 228.632C89.2419 227.84 90.0539 227.444 91.0859 227.444C92.1259 227.444 92.9339 227.84 93.5099 228.632C94.0939 229.416 94.3859 230.472 94.3859 231.8C94.3859 233.128 94.0939 234.184 93.5099 234.968ZM91.0859 234.812C91.7099 234.812 92.1859 234.552 92.5139 234.032C92.8419 233.512 93.0059 232.768 93.0059 231.8C93.0059 230.832 92.8419 230.088 92.5139 229.568C92.1859 229.048 91.7099 228.788 91.0859 228.788C90.4699 228.788 89.9939 229.048 89.6579 229.568C89.3299 230.088 89.1659 230.832 89.1659 231.8C89.1659 232.768 89.3299 233.512 89.6579 234.032C89.9939 234.552 90.4699 234.812 91.0859 234.812ZM104.789 234.968C104.213 235.76 103.405 236.156 102.365 236.156C101.333 236.156 100.521 235.76 99.9285 234.968C99.3525 234.176 99.0645 233.12 99.0645 231.8C99.0645 230.48 99.3525 229.424 99.9285 228.632C100.521 227.84 101.333 227.444 102.365 227.444C103.405 227.444 104.213 227.84 104.789 228.632C105.373 229.416 105.665 230.472 105.665 231.8C105.665 233.128 105.373 234.184 104.789 234.968ZM102.365 234.812C102.989 234.812 103.465 234.552 103.793 234.032C104.121 233.512 104.285 232.768 104.285 231.8C104.285 230.832 104.121 230.088 103.793 229.568C103.465 229.048 102.989 228.788 102.365 228.788C101.749 228.788 101.273 229.048 100.937 229.568C100.609 230.088 100.445 230.832 100.445 231.8C100.445 232.768 100.609 233.512 100.937 234.032C101.273 234.552 101.749 234.812 102.365 234.812ZM112.707 234.968C112.131 235.76 111.323 236.156 110.283 236.156C109.251 236.156 108.439 235.76 107.847 234.968C107.271 234.176 106.983 233.12 106.983 231.8C106.983 230.48 107.271 229.424 107.847 228.632C108.439 227.84 109.251 227.444 110.283 227.444C111.323 227.444 112.131 227.84 112.707 228.632C113.291 229.416 113.583 230.472 113.583 231.8C113.583 233.128 113.291 234.184 112.707 234.968ZM110.283 234.812C110.907 234.812 111.383 234.552 111.711 234.032C112.039 233.512 112.203 232.768 112.203 231.8C112.203 230.832 112.039 230.088 111.711 229.568C111.383 229.048 110.907 228.788 110.283 228.788C109.667 228.788 109.191 229.048 108.855 229.568C108.527 230.088 108.363 230.832 108.363 231.8C108.363 232.768 108.527 233.512 108.855 234.032C109.191 234.552 109.667 234.812 110.283 234.812ZM120.626 234.968C120.05 235.76 119.242 236.156 118.202 236.156C117.17 236.156 116.358 235.76 115.766 234.968C115.19 234.176 114.902 233.12 114.902 231.8C114.902 230.48 115.19 229.424 115.766 228.632C116.358 227.84 117.17 227.444 118.202 227.444C119.242 227.444 120.05 227.84 120.626 228.632C121.21 229.416 121.502 230.472 121.502 231.8C121.502 233.128 121.21 234.184 120.626 234.968ZM118.202 234.812C118.826 234.812 119.302 234.552 119.63 234.032C119.958 233.512 120.122 232.768 120.122 231.8C120.122 230.832 119.958 230.088 119.63 229.568C119.302 229.048 118.826 228.788 118.202 228.788C117.586 228.788 117.11 229.048 116.774 229.568C116.446 230.088 116.282 230.832 116.282 231.8C116.282 232.768 116.446 233.512 116.774 234.032C117.11 234.552 117.586 234.812 118.202 234.812ZM129.936 232.94H128.22V233.744H131.04V234.68H128.22V236H126.84V234.68H125.88V233.744H126.84V232.94H125.88V231.704H126.84V227.6H129.936C130.696 227.6 131.34 227.864 131.868 228.392C132.396 228.904 132.66 229.54 132.66 230.3C132.66 231.044 132.396 231.672 131.868 232.184C131.34 232.688 130.696 232.94 129.936 232.94ZM129.936 228.896H128.22V231.704H129.936C130.32 231.704 130.636 231.568 130.884 231.296C131.148 231.024 131.28 230.692 131.28 230.3C131.28 229.908 131.148 229.576 130.884 229.304C130.636 229.032 130.32 228.896 129.936 228.896ZM139.112 226.4L134.312 237.2H133.652L138.452 226.4H139.112ZM147.301 227.6H148.777V236H147.397V230.012L144.841 234.236H144.673L142.117 230V236H140.737V227.6H142.225L144.757 231.8L147.301 227.6ZM154.088 231.008H150.296V230.024L151.604 228.74C151.844 228.508 152.032 228.316 152.168 228.164C152.304 228.004 152.4 227.86 152.456 227.732C152.512 227.604 152.54 227.472 152.54 227.336C152.54 227.192 152.492 227.08 152.396 227C152.308 226.92 152.184 226.88 152.024 226.88C151.872 226.88 151.708 226.92 151.532 227C151.364 227.08 151.176 227.212 150.968 227.396L150.248 226.508C150.504 226.284 150.788 226.104 151.1 225.968C151.42 225.824 151.792 225.752 152.216 225.752C152.736 225.752 153.152 225.88 153.464 226.136C153.784 226.384 153.944 226.744 153.944 227.216C153.944 227.456 153.9 227.68 153.812 227.888C153.724 228.088 153.584 228.3 153.392 228.524C153.2 228.74 152.948 228.992 152.636 229.28L152.024 229.832H154.088V231.008Z" fill="white"/>
<circle cx="115" cy="251" r="5" fill="#A0725B"/>
<path d="M15.156 281.38L17.364 280.6H18.564V289H17.184V282.076L15.492 282.556L15.156 281.38ZM24.9008 284.632C25.7248 285.088 26.1368 285.768 26.1368 286.672C26.1368 287.432 25.8688 288.036 25.3328 288.484C24.8048 288.932 24.0928 289.156 23.1968 289.156C22.3008 289.156 21.5848 288.936 21.0488 288.496C20.5128 288.056 20.2448 287.448 20.2448 286.672C20.2448 286.24 20.3528 285.848 20.5688 285.496C20.7848 285.136 21.0888 284.848 21.4808 284.632C20.8488 284.216 20.5328 283.624 20.5328 282.856C20.5328 282.088 20.7888 281.496 21.3008 281.08C21.8208 280.656 22.4528 280.444 23.1968 280.444C23.9328 280.444 24.5608 280.656 25.0808 281.08C25.6008 281.504 25.8608 282.096 25.8608 282.856C25.8608 283.616 25.5408 284.208 24.9008 284.632ZM23.1968 281.752C22.8128 281.752 22.5008 281.856 22.2608 282.064C22.0288 282.264 21.9128 282.548 21.9128 282.916C21.9128 283.268 22.0328 283.552 22.2728 283.768C22.5128 283.976 22.8208 284.08 23.1968 284.08C23.5648 284.08 23.8688 283.976 24.1088 283.768C24.3568 283.552 24.4808 283.268 24.4808 282.916C24.4808 282.548 24.3608 282.264 24.1208 282.064C23.8808 281.856 23.5728 281.752 23.1968 281.752ZM23.1968 287.848C23.6688 287.848 24.0448 287.732 24.3248 287.5C24.6128 287.268 24.7568 286.948 24.7568 286.54C24.7568 286.132 24.6128 285.812 24.3248 285.58C24.0448 285.348 23.6688 285.232 23.1968 285.232C22.7168 285.232 22.3328 285.348 22.0448 285.58C21.7648 285.812 21.6248 286.132 21.6248 286.54C21.6248 286.948 21.7648 287.268 22.0448 287.5C22.3328 287.732 22.7168 287.848 23.1968 287.848ZM33.1154 287.968C32.5394 288.76 31.7314 289.156 30.6914 289.156C29.6594 289.156 28.8474 288.76 28.2554 287.968C27.6794 287.176 27.3914 286.12 27.3914 284.8C27.3914 283.48 27.6794 282.424 28.2554 281.632C28.8474 280.84 29.6594 280.444 30.6914 280.444C31.7314 280.444 32.5394 280.84 33.1154 281.632C33.6994 282.416 33.9914 283.472 33.9914 284.8C33.9914 286.128 33.6994 287.184 33.1154 287.968ZM30.6914 287.812C31.3154 287.812 31.7914 287.552 32.1194 287.032C32.4474 286.512 32.6114 285.768 32.6114 284.8C32.6114 283.832 32.4474 283.088 32.1194 282.568C31.7914 282.048 31.3154 281.788 30.6914 281.788C30.0754 281.788 29.5994 282.048 29.2634 282.568C28.9354 283.088 28.7714 283.832 28.7714 284.8C28.7714 285.768 28.9354 286.512 29.2634 287.032C29.5994 287.552 30.0754 287.812 30.6914 287.812ZM44.394 287.968C43.818 288.76 43.01 289.156 41.97 289.156C40.938 289.156 40.126 288.76 39.534 287.968C38.958 287.176 38.67 286.12 38.67 284.8C38.67 283.48 38.958 282.424 39.534 281.632C40.126 280.84 40.938 280.444 41.97 280.444C43.01 280.444 43.818 280.84 44.394 281.632C44.978 282.416 45.27 283.472 45.27 284.8C45.27 286.128 44.978 287.184 44.394 287.968ZM41.97 287.812C42.594 287.812 43.07 287.552 43.398 287.032C43.726 286.512 43.89 285.768 43.89 284.8C43.89 283.832 43.726 283.088 43.398 282.568C43.07 282.048 42.594 281.788 41.97 281.788C41.354 281.788 40.878 282.048 40.542 282.568C40.214 283.088 40.05 283.832 40.05 284.8C40.05 285.768 40.214 286.512 40.542 287.032C40.878 287.552 41.354 287.812 41.97 287.812ZM52.3126 287.968C51.7366 288.76 50.9286 289.156 49.8886 289.156C48.8566 289.156 48.0446 288.76 47.4526 287.968C46.8766 287.176 46.5886 286.12 46.5886 284.8C46.5886 283.48 46.8766 282.424 47.4526 281.632C48.0446 280.84 48.8566 280.444 49.8886 280.444C50.9286 280.444 51.7366 280.84 52.3126 281.632C52.8966 282.416 53.1886 283.472 53.1886 284.8C53.1886 286.128 52.8966 287.184 52.3126 287.968ZM49.8886 287.812C50.5126 287.812 50.9886 287.552 51.3166 287.032C51.6446 286.512 51.8086 285.768 51.8086 284.8C51.8086 283.832 51.6446 283.088 51.3166 282.568C50.9886 282.048 50.5126 281.788 49.8886 281.788C49.2726 281.788 48.7966 282.048 48.4606 282.568C48.1326 283.088 47.9686 283.832 47.9686 284.8C47.9686 285.768 48.1326 286.512 48.4606 287.032C48.7966 287.552 49.2726 287.812 49.8886 287.812ZM60.2312 287.968C59.6552 288.76 58.8472 289.156 57.8072 289.156C56.7752 289.156 55.9632 288.76 55.3712 287.968C54.7952 287.176 54.5072 286.12 54.5072 284.8C54.5072 283.48 54.7952 282.424 55.3712 281.632C55.9632 280.84 56.7752 280.444 57.8072 280.444C58.8472 280.444 59.6552 280.84 60.2312 281.632C60.8152 282.416 61.1072 283.472 61.1072 284.8C61.1072 286.128 60.8152 287.184 60.2312 287.968ZM57.8072 287.812C58.4312 287.812 58.9072 287.552 59.2352 287.032C59.5632 286.512 59.7272 285.768 59.7272 284.8C59.7272 283.832 59.5632 283.088 59.2352 282.568C58.9072 282.048 58.4312 281.788 57.8072 281.788C57.1912 281.788 56.7152 282.048 56.3792 282.568C56.0512 283.088 55.8872 283.832 55.8872 284.8C55.8872 285.768 56.0512 286.512 56.3792 287.032C56.7152 287.552 57.1912 287.812 57.8072 287.812ZM69.5418 285.94H67.8258V286.744H70.6458V287.68H67.8258V289H66.4458V287.68H65.4858V286.744H66.4458V285.94H65.4858V284.704H66.4458V280.6H69.5418C70.3018 280.6 70.9458 280.864 71.4738 281.392C72.0018 281.904 72.2658 282.54 72.2658 283.3C72.2658 284.044 72.0018 284.672 71.4738 285.184C70.9458 285.688 70.3018 285.94 69.5418 285.94ZM69.5418 281.896H67.8258V284.704H69.5418C69.9258 284.704 70.2418 284.568 70.4898 284.296C70.7538 284.024 70.8858 283.692 70.8858 283.3C70.8858 282.908 70.7538 282.576 70.4898 282.304C70.2418 282.032 69.9258 281.896 69.5418 281.896ZM78.7177 279.4L73.9177 290.2H73.2577L78.0577 279.4H78.7177ZM86.9063 280.6H88.3823V289H87.0023V283.012L84.4463 287.236H84.2783L81.7223 283V289H80.3423V280.6H81.8303L84.3623 284.8L86.9063 280.6ZM93.6932 284.008H89.9012V283.024L91.2092 281.74C91.4492 281.508 91.6372 281.316 91.7732 281.164C91.9092 281.004 92.0052 280.86 92.0612 280.732C92.1172 280.604 92.1452 280.472 92.1452 280.336C92.1452 280.192 92.0972 280.08 92.0012 280C91.9132 279.92 91.7892 279.88 91.6292 279.88C91.4772 279.88 91.3132 279.92 91.1372 280C90.9692 280.08 90.7812 280.212 90.5732 280.396L89.8532 279.508C90.1092 279.284 90.3932 279.104 90.7052 278.968C91.0252 278.824 91.3972 278.752 91.8212 278.752C92.3412 278.752 92.7572 278.88 93.0692 279.136C93.3892 279.384 93.5492 279.744 93.5492 280.216C93.5492 280.456 93.5052 280.68 93.4172 280.888C93.3292 281.088 93.1892 281.3 92.9972 281.524C92.8052 281.74 92.5532 281.992 92.2412 282.28L91.6292 282.832H93.6932V284.008Z" fill="white"/>
<circle cx="5" cy="285" r="5" fill="#A0725B"/>
</svg>
