<svg width="327" height="314" viewBox="0 0 327 314" fill="none" xmlns="http://www.w3.org/2000/svg">
<path d="M8.904 313H3.372V311.92L6.3 308.932C7.012 308.22 7.368 307.604 7.368 307.084C7.368 306.684 7.248 306.368 7.008 306.136C6.768 305.904 6.456 305.788 6.072 305.788C5.368 305.788 4.848 306.136 4.512 306.832L3.348 306.148C3.604 305.596 3.972 305.176 4.452 304.888C4.932 304.592 5.468 304.444 6.06 304.444C6.804 304.444 7.436 304.676 7.956 305.14C8.484 305.612 8.748 306.244 8.748 307.036C8.748 307.884 8.272 308.796 7.32 309.772L5.424 311.668H8.904V313ZM15.7984 311.968C15.2224 312.76 14.4144 313.156 13.3744 313.156C12.3424 313.156 11.5304 312.76 10.9384 311.968C10.3624 311.176 10.0744 310.12 10.0744 308.8C10.0744 307.48 10.3624 306.424 10.9384 305.632C11.5304 304.84 12.3424 304.444 13.3744 304.444C14.4144 304.444 15.2224 304.84 15.7984 305.632C16.3824 306.416 16.6744 307.472 16.6744 308.8C16.6744 310.128 16.3824 311.184 15.7984 311.968ZM13.3744 311.812C13.9984 311.812 14.4744 311.552 14.8024 311.032C15.1304 310.512 15.2944 309.768 15.2944 308.8C15.2944 307.832 15.1304 307.088 14.8024 306.568C14.4744 306.048 13.9984 305.788 13.3744 305.788C12.7584 305.788 12.2824 306.048 11.9464 306.568C11.6184 307.088 11.4544 307.832 11.4544 308.8C11.4544 309.768 11.6184 310.512 11.9464 311.032C12.2824 311.552 12.7584 311.812 13.3744 311.812ZM23.2412 313H17.7092V311.92L20.6372 308.932C21.3492 308.22 21.7052 307.604 21.7052 307.084C21.7052 306.684 21.5852 306.368 21.3452 306.136C21.1052 305.904 20.7932 305.788 20.4092 305.788C19.7052 305.788 19.1852 306.136 18.8492 306.832L17.6852 306.148C17.9412 305.596 18.3092 305.176 18.7892 304.888C19.2692 304.592 19.8052 304.444 20.3972 304.444C21.1412 304.444 21.7732 304.676 22.2932 305.14C22.8212 305.612 23.0852 306.244 23.0852 307.036C23.0852 307.884 22.6092 308.796 21.6572 309.772L19.7612 311.668H23.2412V313ZM30.1356 311.968C29.5596 312.76 28.7516 313.156 27.7116 313.156C26.6796 313.156 25.8676 312.76 25.2756 311.968C24.6996 311.176 24.4116 310.12 24.4116 308.8C24.4116 307.48 24.6996 306.424 25.2756 305.632C25.8676 304.84 26.6796 304.444 27.7116 304.444C28.7516 304.444 29.5596 304.84 30.1356 305.632C30.7196 306.416 31.0116 307.472 31.0116 308.8C31.0116 310.128 30.7196 311.184 30.1356 311.968ZM27.7116 311.812C28.3356 311.812 28.8116 311.552 29.1396 311.032C29.4676 310.512 29.6316 309.768 29.6316 308.8C29.6316 307.832 29.4676 307.088 29.1396 306.568C28.8116 306.048 28.3356 305.788 27.7116 305.788C27.0956 305.788 26.6196 306.048 26.2836 306.568C25.9556 307.088 25.7916 307.832 25.7916 308.8C25.7916 309.768 25.9556 310.512 26.2836 311.032C26.6196 311.552 27.0956 311.812 27.7116 311.812Z" fill="white"/>
<path d="M49.904 313H44.372V311.92L47.3 308.932C48.012 308.22 48.368 307.604 48.368 307.084C48.368 306.684 48.248 306.368 48.008 306.136C47.768 305.904 47.456 305.788 47.072 305.788C46.368 305.788 45.848 306.136 45.512 306.832L44.348 306.148C44.604 305.596 44.972 305.176 45.452 304.888C45.932 304.592 46.468 304.444 47.06 304.444C47.804 304.444 48.436 304.676 48.956 305.14C49.484 305.612 49.748 306.244 49.748 307.036C49.748 307.884 49.272 308.796 48.32 309.772L46.424 311.668H49.904V313ZM56.7984 311.968C56.2224 312.76 55.4144 313.156 54.3744 313.156C53.3424 313.156 52.5304 312.76 51.9384 311.968C51.3624 311.176 51.0744 310.12 51.0744 308.8C51.0744 307.48 51.3624 306.424 51.9384 305.632C52.5304 304.84 53.3424 304.444 54.3744 304.444C55.4144 304.444 56.2224 304.84 56.7984 305.632C57.3824 306.416 57.6744 307.472 57.6744 308.8C57.6744 310.128 57.3824 311.184 56.7984 311.968ZM54.3744 311.812C54.9984 311.812 55.4744 311.552 55.8024 311.032C56.1304 310.512 56.2944 309.768 56.2944 308.8C56.2944 307.832 56.1304 307.088 55.8024 306.568C55.4744 306.048 54.9984 305.788 54.3744 305.788C53.7584 305.788 53.2824 306.048 52.9464 306.568C52.6184 307.088 52.4544 307.832 52.4544 308.8C52.4544 309.768 52.6184 310.512 52.9464 311.032C53.2824 311.552 53.7584 311.812 54.3744 311.812ZM64.2412 313H58.7092V311.92L61.6372 308.932C62.3492 308.22 62.7052 307.604 62.7052 307.084C62.7052 306.684 62.5852 306.368 62.3452 306.136C62.1052 305.904 61.7932 305.788 61.4092 305.788C60.7052 305.788 60.1852 306.136 59.8492 306.832L58.6852 306.148C58.9412 305.596 59.3092 305.176 59.7892 304.888C60.2692 304.592 60.8052 304.444 61.3972 304.444C62.1412 304.444 62.7732 304.676 63.2932 305.14C63.8212 305.612 64.0852 306.244 64.0852 307.036C64.0852 307.884 63.6092 308.796 62.6572 309.772L60.7612 311.668H64.2412V313ZM65.0876 305.38L67.2956 304.6H68.4956V313H67.1156V306.076L65.4236 306.556L65.0876 305.38Z" fill="white"/>
<path d="M100.904 313H95.372V311.92L98.3 308.932C99.012 308.22 99.368 307.604 99.368 307.084C99.368 306.684 99.248 306.368 99.008 306.136C98.768 305.904 98.456 305.788 98.072 305.788C97.368 305.788 96.848 306.136 96.512 306.832L95.348 306.148C95.604 305.596 95.972 305.176 96.452 304.888C96.932 304.592 97.468 304.444 98.06 304.444C98.804 304.444 99.436 304.676 99.956 305.14C100.484 305.612 100.748 306.244 100.748 307.036C100.748 307.884 100.272 308.796 99.32 309.772L97.424 311.668H100.904V313ZM107.798 311.968C107.222 312.76 106.414 313.156 105.374 313.156C104.342 313.156 103.53 312.76 102.938 311.968C102.362 311.176 102.074 310.12 102.074 308.8C102.074 307.48 102.362 306.424 102.938 305.632C103.53 304.84 104.342 304.444 105.374 304.444C106.414 304.444 107.222 304.84 107.798 305.632C108.382 306.416 108.674 307.472 108.674 308.8C108.674 310.128 108.382 311.184 107.798 311.968ZM105.374 311.812C105.998 311.812 106.474 311.552 106.802 311.032C107.13 310.512 107.294 309.768 107.294 308.8C107.294 307.832 107.13 307.088 106.802 306.568C106.474 306.048 105.998 305.788 105.374 305.788C104.758 305.788 104.282 306.048 103.946 306.568C103.618 307.088 103.454 307.832 103.454 308.8C103.454 309.768 103.618 310.512 103.946 311.032C104.282 311.552 104.758 311.812 105.374 311.812ZM115.241 313H109.709V311.92L112.637 308.932C113.349 308.22 113.705 307.604 113.705 307.084C113.705 306.684 113.585 306.368 113.345 306.136C113.105 305.904 112.793 305.788 112.409 305.788C111.705 305.788 111.185 306.136 110.849 306.832L109.685 306.148C109.941 305.596 110.309 305.176 110.789 304.888C111.269 304.592 111.805 304.444 112.397 304.444C113.141 304.444 113.773 304.676 114.293 305.14C114.821 305.612 115.085 306.244 115.085 307.036C115.085 307.884 114.609 308.796 113.657 309.772L111.761 311.668H115.241V313ZM121.953 313H116.421V311.92L119.349 308.932C120.061 308.22 120.417 307.604 120.417 307.084C120.417 306.684 120.297 306.368 120.057 306.136C119.817 305.904 119.505 305.788 119.121 305.788C118.417 305.788 117.897 306.136 117.561 306.832L116.397 306.148C116.653 305.596 117.021 305.176 117.501 304.888C117.981 304.592 118.517 304.444 119.109 304.444C119.853 304.444 120.485 304.676 121.005 305.14C121.533 305.612 121.797 306.244 121.797 307.036C121.797 307.884 121.321 308.796 120.369 309.772L118.473 311.668H121.953V313Z" fill="white"/>
<path d="M154.904 313H149.372V311.92L152.3 308.932C153.012 308.22 153.368 307.604 153.368 307.084C153.368 306.684 153.248 306.368 153.008 306.136C152.768 305.904 152.456 305.788 152.072 305.788C151.368 305.788 150.848 306.136 150.512 306.832L149.348 306.148C149.604 305.596 149.972 305.176 150.452 304.888C150.932 304.592 151.468 304.444 152.06 304.444C152.804 304.444 153.436 304.676 153.956 305.14C154.484 305.612 154.748 306.244 154.748 307.036C154.748 307.884 154.272 308.796 153.32 309.772L151.424 311.668H154.904V313ZM161.798 311.968C161.222 312.76 160.414 313.156 159.374 313.156C158.342 313.156 157.53 312.76 156.938 311.968C156.362 311.176 156.074 310.12 156.074 308.8C156.074 307.48 156.362 306.424 156.938 305.632C157.53 304.84 158.342 304.444 159.374 304.444C160.414 304.444 161.222 304.84 161.798 305.632C162.382 306.416 162.674 307.472 162.674 308.8C162.674 310.128 162.382 311.184 161.798 311.968ZM159.374 311.812C159.998 311.812 160.474 311.552 160.802 311.032C161.13 310.512 161.294 309.768 161.294 308.8C161.294 307.832 161.13 307.088 160.802 306.568C160.474 306.048 159.998 305.788 159.374 305.788C158.758 305.788 158.282 306.048 157.946 306.568C157.618 307.088 157.454 307.832 157.454 308.8C157.454 309.768 157.618 310.512 157.946 311.032C158.282 311.552 158.758 311.812 159.374 311.812ZM169.241 313H163.709V311.92L166.637 308.932C167.349 308.22 167.705 307.604 167.705 307.084C167.705 306.684 167.585 306.368 167.345 306.136C167.105 305.904 166.793 305.788 166.409 305.788C165.705 305.788 165.185 306.136 164.849 306.832L163.685 306.148C163.941 305.596 164.309 305.176 164.789 304.888C165.269 304.592 165.805 304.444 166.397 304.444C167.141 304.444 167.773 304.676 168.293 305.14C168.821 305.612 169.085 306.244 169.085 307.036C169.085 307.884 168.609 308.796 167.657 309.772L165.761 311.668H169.241V313ZM175.644 305.776L173.94 308.032C174.564 308.176 175.06 308.464 175.428 308.896C175.804 309.32 175.992 309.84 175.992 310.456C175.992 311.296 175.708 311.956 175.14 312.436C174.58 312.916 173.884 313.156 173.052 313.156C172.396 313.156 171.816 313.008 171.312 312.712C170.808 312.408 170.448 311.976 170.232 311.416L171.408 310.732C171.656 311.452 172.204 311.812 173.052 311.812C173.532 311.812 173.912 311.692 174.192 311.452C174.472 311.204 174.612 310.872 174.612 310.456C174.612 310.04 174.472 309.712 174.192 309.472C173.912 309.232 173.532 309.112 173.052 309.112H172.74L172.188 308.284L174 305.896H170.484V304.6H175.644V305.776Z" fill="white"/>
<path d="M207.904 313H202.372V311.92L205.3 308.932C206.012 308.22 206.368 307.604 206.368 307.084C206.368 306.684 206.248 306.368 206.008 306.136C205.768 305.904 205.456 305.788 205.072 305.788C204.368 305.788 203.848 306.136 203.512 306.832L202.348 306.148C202.604 305.596 202.972 305.176 203.452 304.888C203.932 304.592 204.468 304.444 205.06 304.444C205.804 304.444 206.436 304.676 206.956 305.14C207.484 305.612 207.748 306.244 207.748 307.036C207.748 307.884 207.272 308.796 206.32 309.772L204.424 311.668H207.904V313ZM214.798 311.968C214.222 312.76 213.414 313.156 212.374 313.156C211.342 313.156 210.53 312.76 209.938 311.968C209.362 311.176 209.074 310.12 209.074 308.8C209.074 307.48 209.362 306.424 209.938 305.632C210.53 304.84 211.342 304.444 212.374 304.444C213.414 304.444 214.222 304.84 214.798 305.632C215.382 306.416 215.674 307.472 215.674 308.8C215.674 310.128 215.382 311.184 214.798 311.968ZM212.374 311.812C212.998 311.812 213.474 311.552 213.802 311.032C214.13 310.512 214.294 309.768 214.294 308.8C214.294 307.832 214.13 307.088 213.802 306.568C213.474 306.048 212.998 305.788 212.374 305.788C211.758 305.788 211.282 306.048 210.946 306.568C210.618 307.088 210.454 307.832 210.454 308.8C210.454 309.768 210.618 310.512 210.946 311.032C211.282 311.552 211.758 311.812 212.374 311.812ZM222.241 313H216.709V311.92L219.637 308.932C220.349 308.22 220.705 307.604 220.705 307.084C220.705 306.684 220.585 306.368 220.345 306.136C220.105 305.904 219.793 305.788 219.409 305.788C218.705 305.788 218.185 306.136 217.849 306.832L216.685 306.148C216.941 305.596 217.309 305.176 217.789 304.888C218.269 304.592 218.805 304.444 219.397 304.444C220.141 304.444 220.773 304.676 221.293 305.14C221.821 305.612 222.085 306.244 222.085 307.036C222.085 307.884 221.609 308.796 220.657 309.772L218.761 311.668H222.241V313ZM228.669 310.204H229.629V311.488H228.669V313H227.277V311.488H223.149V310.204L226.041 304.6H227.541L224.649 310.204H227.277V308.02H228.669V310.204Z" fill="white"/>
<path d="M260.904 313H255.372V311.92L258.3 308.932C259.012 308.22 259.368 307.604 259.368 307.084C259.368 306.684 259.248 306.368 259.008 306.136C258.768 305.904 258.456 305.788 258.072 305.788C257.368 305.788 256.848 306.136 256.512 306.832L255.348 306.148C255.604 305.596 255.972 305.176 256.452 304.888C256.932 304.592 257.468 304.444 258.06 304.444C258.804 304.444 259.436 304.676 259.956 305.14C260.484 305.612 260.748 306.244 260.748 307.036C260.748 307.884 260.272 308.796 259.32 309.772L257.424 311.668H260.904V313ZM267.798 311.968C267.222 312.76 266.414 313.156 265.374 313.156C264.342 313.156 263.53 312.76 262.938 311.968C262.362 311.176 262.074 310.12 262.074 308.8C262.074 307.48 262.362 306.424 262.938 305.632C263.53 304.84 264.342 304.444 265.374 304.444C266.414 304.444 267.222 304.84 267.798 305.632C268.382 306.416 268.674 307.472 268.674 308.8C268.674 310.128 268.382 311.184 267.798 311.968ZM265.374 311.812C265.998 311.812 266.474 311.552 266.802 311.032C267.13 310.512 267.294 309.768 267.294 308.8C267.294 307.832 267.13 307.088 266.802 306.568C266.474 306.048 265.998 305.788 265.374 305.788C264.758 305.788 264.282 306.048 263.946 306.568C263.618 307.088 263.454 307.832 263.454 308.8C263.454 309.768 263.618 310.512 263.946 311.032C264.282 311.552 264.758 311.812 265.374 311.812ZM275.241 313H269.709V311.92L272.637 308.932C273.349 308.22 273.705 307.604 273.705 307.084C273.705 306.684 273.585 306.368 273.345 306.136C273.105 305.904 272.793 305.788 272.409 305.788C271.705 305.788 271.185 306.136 270.849 306.832L269.685 306.148C269.941 305.596 270.309 305.176 270.789 304.888C271.269 304.592 271.805 304.444 272.397 304.444C273.141 304.444 273.773 304.676 274.293 305.14C274.821 305.612 275.085 306.244 275.085 307.036C275.085 307.884 274.609 308.796 273.657 309.772L271.761 311.668H275.241V313ZM278.176 307.768H279.232C280.032 307.768 280.708 308.008 281.26 308.488C281.812 308.96 282.088 309.616 282.088 310.456C282.088 311.296 281.804 311.956 281.236 312.436C280.676 312.916 279.98 313.156 279.148 313.156C278.468 313.156 277.876 313 277.372 312.688C276.868 312.376 276.508 311.932 276.292 311.356L277.48 310.672C277.712 311.432 278.268 311.812 279.148 311.812C279.62 311.812 279.996 311.692 280.276 311.452C280.564 311.204 280.708 310.872 280.708 310.456C280.708 310.048 280.568 309.724 280.288 309.484C280.008 309.236 279.636 309.112 279.172 309.112H276.724L277.048 304.6H281.728V305.896H278.32L278.176 307.768Z" fill="white"/>
<path d="M301.904 313H296.372V311.92L299.3 308.932C300.012 308.22 300.368 307.604 300.368 307.084C300.368 306.684 300.248 306.368 300.008 306.136C299.768 305.904 299.456 305.788 299.072 305.788C298.368 305.788 297.848 306.136 297.512 306.832L296.348 306.148C296.604 305.596 296.972 305.176 297.452 304.888C297.932 304.592 298.468 304.444 299.06 304.444C299.804 304.444 300.436 304.676 300.956 305.14C301.484 305.612 301.748 306.244 301.748 307.036C301.748 307.884 301.272 308.796 300.32 309.772L298.424 311.668H301.904V313ZM308.798 311.968C308.222 312.76 307.414 313.156 306.374 313.156C305.342 313.156 304.53 312.76 303.938 311.968C303.362 311.176 303.074 310.12 303.074 308.8C303.074 307.48 303.362 306.424 303.938 305.632C304.53 304.84 305.342 304.444 306.374 304.444C307.414 304.444 308.222 304.84 308.798 305.632C309.382 306.416 309.674 307.472 309.674 308.8C309.674 310.128 309.382 311.184 308.798 311.968ZM306.374 311.812C306.998 311.812 307.474 311.552 307.802 311.032C308.13 310.512 308.294 309.768 308.294 308.8C308.294 307.832 308.13 307.088 307.802 306.568C307.474 306.048 306.998 305.788 306.374 305.788C305.758 305.788 305.282 306.048 304.946 306.568C304.618 307.088 304.454 307.832 304.454 308.8C304.454 309.768 304.618 310.512 304.946 311.032C305.282 311.552 305.758 311.812 306.374 311.812ZM316.241 313H310.709V311.92L313.637 308.932C314.349 308.22 314.705 307.604 314.705 307.084C314.705 306.684 314.585 306.368 314.345 306.136C314.105 305.904 313.793 305.788 313.409 305.788C312.705 305.788 312.185 306.136 311.849 306.832L310.685 306.148C310.941 305.596 311.309 305.176 311.789 304.888C312.269 304.592 312.805 304.444 313.397 304.444C314.141 304.444 314.773 304.676 315.293 305.14C315.821 305.612 316.085 306.244 316.085 307.036C316.085 307.884 315.609 308.796 314.657 309.772L312.761 311.668H316.241V313ZM319.993 307.42H320.149C321.029 307.42 321.741 307.688 322.285 308.224C322.837 308.752 323.113 309.44 323.113 310.288C323.113 311.128 322.837 311.82 322.285 312.364C321.733 312.892 321.021 313.156 320.149 313.156C319.269 313.156 318.553 312.892 318.001 312.364C317.449 311.82 317.173 311.128 317.173 310.288C317.173 309.648 317.341 309.084 317.677 308.596L320.341 304.6H321.913L319.993 307.42ZM320.149 311.848C320.613 311.848 320.993 311.708 321.289 311.428C321.585 311.14 321.733 310.76 321.733 310.288C321.733 309.816 321.585 309.44 321.289 309.16C320.993 308.872 320.613 308.728 320.149 308.728C319.669 308.728 319.281 308.872 318.985 309.16C318.697 309.44 318.553 309.816 318.553 310.288C318.553 310.76 318.697 311.14 318.985 311.428C319.281 311.708 319.669 311.848 320.149 311.848Z" fill="white"/>
<line x1="3" y1="293.125" x2="323" y2="293.125" stroke="white" stroke-opacity="0.3"/>
<line x1="3.5" y1="294" x2="3.49999" y2="3" stroke="white" stroke-opacity="0.3" stroke-dasharray="4 4"/>
<line x1="56.5" y1="294" x2="56.5" y2="3" stroke="white" stroke-opacity="0.3" stroke-dasharray="4 4"/>
<line x1="109.5" y1="294" x2="109.5" y2="3" stroke="white" stroke-opacity="0.3" stroke-dasharray="4 4"/>
<line x1="162.5" y1="294" x2="162.5" y2="3" stroke="white" stroke-opacity="0.3" stroke-dasharray="4 4"/>
<line x1="215.5" y1="294" x2="215.5" y2="3" stroke="white" stroke-opacity="0.3" stroke-dasharray="4 4"/>
<line x1="268.5" y1="294" x2="268.5" y2="3" stroke="white" stroke-opacity="0.3" stroke-dasharray="4 4"/>
<line x1="322.5" y1="294" x2="322.5" y2="3" stroke="white" stroke-opacity="0.3" stroke-dasharray="4 4"/>
<path d="M3 230L56.4837 204.376M56.4837 204.376L109.525 185.97M56.4837 204.376L56.4913 184.504M268.479 113.959L215.495 149.879M268.479 113.959L323 7M268.479 113.959V86.9586M215.495 149.879L162.51 167.711M215.495 149.879L215.494 112.367M109.525 185.97L162.51 167.711M109.525 185.97L109.541 159.99M162.51 167.711L162.493 135.718" stroke="#A0725B"/>
<path d="M230.244 71.768H231.3C232.1 71.768 232.776 72.008 233.328 72.488C233.88 72.96 234.156 73.616 234.156 74.456C234.156 75.296 233.872 75.956 233.304 76.436C232.744 76.916 232.048 77.156 231.216 77.156C230.536 77.156 229.944 77 229.44 76.688C228.936 76.376 228.576 75.932 228.36 75.356L229.548 74.672C229.78 75.432 230.336 75.812 231.216 75.812C231.688 75.812 232.064 75.692 232.344 75.452C232.632 75.204 232.776 74.872 232.776 74.456C232.776 74.048 232.636 73.724 232.356 73.484C232.076 73.236 231.704 73.112 231.24 73.112H228.792L229.116 68.6H233.796V69.896H230.388L230.244 71.768ZM240.916 75.968C240.34 76.76 239.532 77.156 238.492 77.156C237.46 77.156 236.648 76.76 236.056 75.968C235.48 75.176 235.192 74.12 235.192 72.8C235.192 71.48 235.48 70.424 236.056 69.632C236.648 68.84 237.46 68.444 238.492 68.444C239.532 68.444 240.34 68.84 240.916 69.632C241.5 70.416 241.792 71.472 241.792 72.8C241.792 74.128 241.5 75.184 240.916 75.968ZM238.492 75.812C239.116 75.812 239.592 75.552 239.92 75.032C240.248 74.512 240.412 73.768 240.412 72.8C240.412 71.832 240.248 71.088 239.92 70.568C239.592 70.048 239.116 69.788 238.492 69.788C237.876 69.788 237.4 70.048 237.064 70.568C236.736 71.088 236.572 71.832 236.572 72.8C236.572 73.768 236.736 74.512 237.064 75.032C237.4 75.552 237.876 75.812 238.492 75.812ZM248.834 75.968C248.258 76.76 247.45 77.156 246.41 77.156C245.378 77.156 244.566 76.76 243.974 75.968C243.398 75.176 243.11 74.12 243.11 72.8C243.11 71.48 243.398 70.424 243.974 69.632C244.566 68.84 245.378 68.444 246.41 68.444C247.45 68.444 248.258 68.84 248.834 69.632C249.418 70.416 249.71 71.472 249.71 72.8C249.71 74.128 249.418 75.184 248.834 75.968ZM246.41 75.812C247.034 75.812 247.51 75.552 247.838 75.032C248.166 74.512 248.33 73.768 248.33 72.8C248.33 71.832 248.166 71.088 247.838 70.568C247.51 70.048 247.034 69.788 246.41 69.788C245.794 69.788 245.318 70.048 244.982 70.568C244.654 71.088 244.49 71.832 244.49 72.8C244.49 73.768 244.654 74.512 244.982 75.032C245.318 75.552 245.794 75.812 246.41 75.812ZM260.113 75.968C259.537 76.76 258.729 77.156 257.689 77.156C256.657 77.156 255.845 76.76 255.253 75.968C254.677 75.176 254.389 74.12 254.389 72.8C254.389 71.48 254.677 70.424 255.253 69.632C255.845 68.84 256.657 68.444 257.689 68.444C258.729 68.444 259.537 68.84 260.113 69.632C260.697 70.416 260.989 71.472 260.989 72.8C260.989 74.128 260.697 75.184 260.113 75.968ZM257.689 75.812C258.313 75.812 258.789 75.552 259.117 75.032C259.445 74.512 259.609 73.768 259.609 72.8C259.609 71.832 259.445 71.088 259.117 70.568C258.789 70.048 258.313 69.788 257.689 69.788C257.073 69.788 256.597 70.048 256.261 70.568C255.933 71.088 255.769 71.832 255.769 72.8C255.769 73.768 255.933 74.512 256.261 75.032C256.597 75.552 257.073 75.812 257.689 75.812ZM268.031 75.968C267.455 76.76 266.647 77.156 265.607 77.156C264.575 77.156 263.763 76.76 263.171 75.968C262.595 75.176 262.307 74.12 262.307 72.8C262.307 71.48 262.595 70.424 263.171 69.632C263.763 68.84 264.575 68.444 265.607 68.444C266.647 68.444 267.455 68.84 268.031 69.632C268.615 70.416 268.907 71.472 268.907 72.8C268.907 74.128 268.615 75.184 268.031 75.968ZM265.607 75.812C266.231 75.812 266.707 75.552 267.035 75.032C267.363 74.512 267.527 73.768 267.527 72.8C267.527 71.832 267.363 71.088 267.035 70.568C266.707 70.048 266.231 69.788 265.607 69.788C264.991 69.788 264.515 70.048 264.179 70.568C263.851 71.088 263.687 71.832 263.687 72.8C263.687 73.768 263.851 74.512 264.179 75.032C264.515 75.552 264.991 75.812 265.607 75.812ZM275.95 75.968C275.374 76.76 274.566 77.156 273.526 77.156C272.494 77.156 271.682 76.76 271.09 75.968C270.514 75.176 270.226 74.12 270.226 72.8C270.226 71.48 270.514 70.424 271.09 69.632C271.682 68.84 272.494 68.444 273.526 68.444C274.566 68.444 275.374 68.84 275.95 69.632C276.534 70.416 276.826 71.472 276.826 72.8C276.826 74.128 276.534 75.184 275.95 75.968ZM273.526 75.812C274.15 75.812 274.626 75.552 274.954 75.032C275.282 74.512 275.446 73.768 275.446 72.8C275.446 71.832 275.282 71.088 274.954 70.568C274.626 70.048 274.15 69.788 273.526 69.788C272.91 69.788 272.434 70.048 272.098 70.568C271.77 71.088 271.606 71.832 271.606 72.8C271.606 73.768 271.77 74.512 272.098 75.032C272.434 75.552 272.91 75.812 273.526 75.812ZM285.261 73.94H283.545V74.744H286.365V75.68H283.545V77H282.165V75.68H281.205V74.744H282.165V73.94H281.205V72.704H282.165V68.6H285.261C286.021 68.6 286.665 68.864 287.193 69.392C287.721 69.904 287.985 70.54 287.985 71.3C287.985 72.044 287.721 72.672 287.193 73.184C286.665 73.688 286.021 73.94 285.261 73.94ZM285.261 69.896H283.545V72.704H285.261C285.645 72.704 285.961 72.568 286.209 72.296C286.473 72.024 286.605 71.692 286.605 71.3C286.605 70.908 286.473 70.576 286.209 70.304C285.961 70.032 285.645 69.896 285.261 69.896ZM294.436 67.4L289.636 78.2H288.976L293.776 67.4H294.436ZM302.625 68.6H304.101V77H302.721V71.012L300.165 75.236H299.997L297.441 71V77H296.061V68.6H297.549L300.081 72.8L302.625 68.6ZM309.412 72.008H305.62V71.024L306.928 69.74C307.168 69.508 307.356 69.316 307.492 69.164C307.628 69.004 307.724 68.86 307.78 68.732C307.836 68.604 307.864 68.472 307.864 68.336C307.864 68.192 307.816 68.08 307.72 68C307.632 67.92 307.508 67.88 307.348 67.88C307.196 67.88 307.032 67.92 306.856 68C306.688 68.08 306.5 68.212 306.292 68.396L305.572 67.508C305.828 67.284 306.112 67.104 306.424 66.968C306.744 66.824 307.116 66.752 307.54 66.752C308.06 66.752 308.476 66.88 308.788 67.136C309.108 67.384 309.268 67.744 309.268 68.216C309.268 68.456 309.224 68.68 309.136 68.888C309.048 69.088 308.908 69.3 308.716 69.524C308.524 69.74 308.272 69.992 307.96 70.28L307.348 70.832H309.412V72.008Z" fill="white"/>
<path d="M237.076 6.632C237.9 7.088 238.312 7.768 238.312 8.672C238.312 9.432 238.044 10.036 237.508 10.484C236.98 10.932 236.268 11.156 235.372 11.156C234.476 11.156 233.76 10.936 233.224 10.496C232.688 10.056 232.42 9.448 232.42 8.672C232.42 8.24 232.528 7.848 232.744 7.496C232.96 7.136 233.264 6.848 233.656 6.632C233.024 6.216 232.708 5.624 232.708 4.856C232.708 4.088 232.964 3.496 233.476 3.08C233.996 2.656 234.628 2.444 235.372 2.444C236.108 2.444 236.736 2.656 237.256 3.08C237.776 3.504 238.036 4.096 238.036 4.856C238.036 5.616 237.716 6.208 237.076 6.632ZM235.372 3.752C234.988 3.752 234.676 3.856 234.436 4.064C234.204 4.264 234.088 4.548 234.088 4.916C234.088 5.268 234.208 5.552 234.448 5.768C234.688 5.976 234.996 6.08 235.372 6.08C235.74 6.08 236.044 5.976 236.284 5.768C236.532 5.552 236.656 5.268 236.656 4.916C236.656 4.548 236.536 4.264 236.296 4.064C236.056 3.856 235.748 3.752 235.372 3.752ZM235.372 9.848C235.844 9.848 236.22 9.732 236.5 9.5C236.788 9.268 236.932 8.948 236.932 8.54C236.932 8.132 236.788 7.812 236.5 7.58C236.22 7.348 235.844 7.232 235.372 7.232C234.892 7.232 234.508 7.348 234.22 7.58C233.94 7.812 233.8 8.132 233.8 8.54C233.8 8.948 233.94 9.268 234.22 9.5C234.508 9.732 234.892 9.848 235.372 9.848ZM245.291 9.968C244.715 10.76 243.907 11.156 242.867 11.156C241.835 11.156 241.023 10.76 240.431 9.968C239.855 9.176 239.567 8.12 239.567 6.8C239.567 5.48 239.855 4.424 240.431 3.632C241.023 2.84 241.835 2.444 242.867 2.444C243.907 2.444 244.715 2.84 245.291 3.632C245.875 4.416 246.167 5.472 246.167 6.8C246.167 8.128 245.875 9.184 245.291 9.968ZM242.867 9.812C243.491 9.812 243.967 9.552 244.295 9.032C244.623 8.512 244.787 7.768 244.787 6.8C244.787 5.832 244.623 5.088 244.295 4.568C243.967 4.048 243.491 3.788 242.867 3.788C242.251 3.788 241.775 4.048 241.439 4.568C241.111 5.088 240.947 5.832 240.947 6.8C240.947 7.768 241.111 8.512 241.439 9.032C241.775 9.552 242.251 9.812 242.867 9.812ZM253.209 9.968C252.633 10.76 251.825 11.156 250.785 11.156C249.753 11.156 248.941 10.76 248.349 9.968C247.773 9.176 247.485 8.12 247.485 6.8C247.485 5.48 247.773 4.424 248.349 3.632C248.941 2.84 249.753 2.444 250.785 2.444C251.825 2.444 252.633 2.84 253.209 3.632C253.793 4.416 254.085 5.472 254.085 6.8C254.085 8.128 253.793 9.184 253.209 9.968ZM250.785 9.812C251.409 9.812 251.885 9.552 252.213 9.032C252.541 8.512 252.705 7.768 252.705 6.8C252.705 5.832 252.541 5.088 252.213 4.568C251.885 4.048 251.409 3.788 250.785 3.788C250.169 3.788 249.693 4.048 249.357 4.568C249.029 5.088 248.865 5.832 248.865 6.8C248.865 7.768 249.029 8.512 249.357 9.032C249.693 9.552 250.169 9.812 250.785 9.812ZM264.488 9.968C263.912 10.76 263.104 11.156 262.064 11.156C261.032 11.156 260.22 10.76 259.628 9.968C259.052 9.176 258.764 8.12 258.764 6.8C258.764 5.48 259.052 4.424 259.628 3.632C260.22 2.84 261.032 2.444 262.064 2.444C263.104 2.444 263.912 2.84 264.488 3.632C265.072 4.416 265.364 5.472 265.364 6.8C265.364 8.128 265.072 9.184 264.488 9.968ZM262.064 9.812C262.688 9.812 263.164 9.552 263.492 9.032C263.82 8.512 263.984 7.768 263.984 6.8C263.984 5.832 263.82 5.088 263.492 4.568C263.164 4.048 262.688 3.788 262.064 3.788C261.448 3.788 260.972 4.048 260.636 4.568C260.308 5.088 260.144 5.832 260.144 6.8C260.144 7.768 260.308 8.512 260.636 9.032C260.972 9.552 261.448 9.812 262.064 9.812ZM272.406 9.968C271.83 10.76 271.022 11.156 269.982 11.156C268.95 11.156 268.138 10.76 267.546 9.968C266.97 9.176 266.682 8.12 266.682 6.8C266.682 5.48 266.97 4.424 267.546 3.632C268.138 2.84 268.95 2.444 269.982 2.444C271.022 2.444 271.83 2.84 272.406 3.632C272.99 4.416 273.282 5.472 273.282 6.8C273.282 8.128 272.99 9.184 272.406 9.968ZM269.982 9.812C270.606 9.812 271.082 9.552 271.41 9.032C271.738 8.512 271.902 7.768 271.902 6.8C271.902 5.832 271.738 5.088 271.41 4.568C271.082 4.048 270.606 3.788 269.982 3.788C269.366 3.788 268.89 4.048 268.554 4.568C268.226 5.088 268.062 5.832 268.062 6.8C268.062 7.768 268.226 8.512 268.554 9.032C268.89 9.552 269.366 9.812 269.982 9.812ZM280.325 9.968C279.749 10.76 278.941 11.156 277.901 11.156C276.869 11.156 276.057 10.76 275.465 9.968C274.889 9.176 274.601 8.12 274.601 6.8C274.601 5.48 274.889 4.424 275.465 3.632C276.057 2.84 276.869 2.444 277.901 2.444C278.941 2.444 279.749 2.84 280.325 3.632C280.909 4.416 281.201 5.472 281.201 6.8C281.201 8.128 280.909 9.184 280.325 9.968ZM277.901 9.812C278.525 9.812 279.001 9.552 279.329 9.032C279.657 8.512 279.821 7.768 279.821 6.8C279.821 5.832 279.657 5.088 279.329 4.568C279.001 4.048 278.525 3.788 277.901 3.788C277.285 3.788 276.809 4.048 276.473 4.568C276.145 5.088 275.981 5.832 275.981 6.8C275.981 7.768 276.145 8.512 276.473 9.032C276.809 9.552 277.285 9.812 277.901 9.812ZM289.636 7.94H287.92V8.744H290.74V9.68H287.92V11H286.54V9.68H285.58V8.744H286.54V7.94H285.58V6.704H286.54V2.6H289.636C290.396 2.6 291.04 2.864 291.568 3.392C292.096 3.904 292.36 4.54 292.36 5.3C292.36 6.044 292.096 6.672 291.568 7.184C291.04 7.688 290.396 7.94 289.636 7.94ZM289.636 3.896H287.92V6.704H289.636C290.02 6.704 290.336 6.568 290.584 6.296C290.848 6.024 290.98 5.692 290.98 5.3C290.98 4.908 290.848 4.576 290.584 4.304C290.336 4.032 290.02 3.896 289.636 3.896ZM298.811 1.4L294.011 12.2H293.351L298.151 1.4H298.811ZM307 2.6H308.476V11H307.096V5.012L304.54 9.236H304.372L301.816 5V11H300.436V2.6H301.924L304.456 6.8L307 2.6ZM313.787 6.008H309.995V5.024L311.303 3.74C311.543 3.508 311.731 3.316 311.867 3.164C312.003 3.004 312.099 2.86 312.155 2.732C312.211 2.604 312.239 2.472 312.239 2.336C312.239 2.192 312.191 2.08 312.095 2C312.007 1.92 311.883 1.88 311.723 1.88C311.571 1.88 311.407 1.92 311.231 2C311.063 2.08 310.875 2.212 310.667 2.396L309.947 1.508C310.203 1.284 310.487 1.104 310.799 0.968C311.119 0.824 311.491 0.752 311.915 0.752C312.435 0.752 312.851 0.88 313.163 1.136C313.483 1.384 313.643 1.744 313.643 2.216C313.643 2.456 313.599 2.68 313.511 2.888C313.423 3.088 313.283 3.3 313.091 3.524C312.899 3.74 312.647 3.992 312.335 4.28L311.723 4.832H313.787V6.008Z" fill="white"/>
<path d="M179.796 98.204H180.756V99.488H179.796V101H178.404V99.488H174.276V98.204L177.168 92.6H178.668L175.776 98.204H178.404V96.02H179.796V98.204ZM187.525 99.968C186.949 100.76 186.141 101.156 185.101 101.156C184.069 101.156 183.257 100.76 182.665 99.968C182.089 99.176 181.801 98.12 181.801 96.8C181.801 95.48 182.089 94.424 182.665 93.632C183.257 92.84 184.069 92.444 185.101 92.444C186.141 92.444 186.949 92.84 187.525 93.632C188.109 94.416 188.401 95.472 188.401 96.8C188.401 98.128 188.109 99.184 187.525 99.968ZM185.101 99.812C185.725 99.812 186.201 99.552 186.529 99.032C186.857 98.512 187.021 97.768 187.021 96.8C187.021 95.832 186.857 95.088 186.529 94.568C186.201 94.048 185.725 93.788 185.101 93.788C184.485 93.788 184.009 94.048 183.673 94.568C183.345 95.088 183.181 95.832 183.181 96.8C183.181 97.768 183.345 98.512 183.673 99.032C184.009 99.552 184.485 99.812 185.101 99.812ZM195.444 99.968C194.868 100.76 194.06 101.156 193.02 101.156C191.988 101.156 191.176 100.76 190.584 99.968C190.008 99.176 189.72 98.12 189.72 96.8C189.72 95.48 190.008 94.424 190.584 93.632C191.176 92.84 191.988 92.444 193.02 92.444C194.06 92.444 194.868 92.84 195.444 93.632C196.028 94.416 196.32 95.472 196.32 96.8C196.32 98.128 196.028 99.184 195.444 99.968ZM193.02 99.812C193.644 99.812 194.12 99.552 194.448 99.032C194.776 98.512 194.94 97.768 194.94 96.8C194.94 95.832 194.776 95.088 194.448 94.568C194.12 94.048 193.644 93.788 193.02 93.788C192.404 93.788 191.928 94.048 191.592 94.568C191.264 95.088 191.1 95.832 191.1 96.8C191.1 97.768 191.264 98.512 191.592 99.032C191.928 99.552 192.404 99.812 193.02 99.812ZM206.722 99.968C206.146 100.76 205.338 101.156 204.298 101.156C203.266 101.156 202.454 100.76 201.862 99.968C201.286 99.176 200.998 98.12 200.998 96.8C200.998 95.48 201.286 94.424 201.862 93.632C202.454 92.84 203.266 92.444 204.298 92.444C205.338 92.444 206.146 92.84 206.722 93.632C207.306 94.416 207.598 95.472 207.598 96.8C207.598 98.128 207.306 99.184 206.722 99.968ZM204.298 99.812C204.922 99.812 205.398 99.552 205.726 99.032C206.054 98.512 206.218 97.768 206.218 96.8C206.218 95.832 206.054 95.088 205.726 94.568C205.398 94.048 204.922 93.788 204.298 93.788C203.682 93.788 203.206 94.048 202.87 94.568C202.542 95.088 202.378 95.832 202.378 96.8C202.378 97.768 202.542 98.512 202.87 99.032C203.206 99.552 203.682 99.812 204.298 99.812ZM214.641 99.968C214.065 100.76 213.257 101.156 212.217 101.156C211.185 101.156 210.373 100.76 209.781 99.968C209.205 99.176 208.917 98.12 208.917 96.8C208.917 95.48 209.205 94.424 209.781 93.632C210.373 92.84 211.185 92.444 212.217 92.444C213.257 92.444 214.065 92.84 214.641 93.632C215.225 94.416 215.517 95.472 215.517 96.8C215.517 98.128 215.225 99.184 214.641 99.968ZM212.217 99.812C212.841 99.812 213.317 99.552 213.645 99.032C213.973 98.512 214.137 97.768 214.137 96.8C214.137 95.832 213.973 95.088 213.645 94.568C213.317 94.048 212.841 93.788 212.217 93.788C211.601 93.788 211.125 94.048 210.789 94.568C210.461 95.088 210.297 95.832 210.297 96.8C210.297 97.768 210.461 98.512 210.789 99.032C211.125 99.552 211.601 99.812 212.217 99.812ZM222.559 99.968C221.983 100.76 221.175 101.156 220.135 101.156C219.103 101.156 218.291 100.76 217.699 99.968C217.123 99.176 216.835 98.12 216.835 96.8C216.835 95.48 217.123 94.424 217.699 93.632C218.291 92.84 219.103 92.444 220.135 92.444C221.175 92.444 221.983 92.84 222.559 93.632C223.143 94.416 223.435 95.472 223.435 96.8C223.435 98.128 223.143 99.184 222.559 99.968ZM220.135 99.812C220.759 99.812 221.235 99.552 221.563 99.032C221.891 98.512 222.055 97.768 222.055 96.8C222.055 95.832 221.891 95.088 221.563 94.568C221.235 94.048 220.759 93.788 220.135 93.788C219.519 93.788 219.043 94.048 218.707 94.568C218.379 95.088 218.215 95.832 218.215 96.8C218.215 97.768 218.379 98.512 218.707 99.032C219.043 99.552 219.519 99.812 220.135 99.812ZM231.87 97.94H230.154V98.744H232.974V99.68H230.154V101H228.774V99.68H227.814V98.744H228.774V97.94H227.814V96.704H228.774V92.6H231.87C232.63 92.6 233.274 92.864 233.802 93.392C234.33 93.904 234.594 94.54 234.594 95.3C234.594 96.044 234.33 96.672 233.802 97.184C233.274 97.688 232.63 97.94 231.87 97.94ZM231.87 93.896H230.154V96.704H231.87C232.254 96.704 232.57 96.568 232.818 96.296C233.082 96.024 233.214 95.692 233.214 95.3C233.214 94.908 233.082 94.576 232.818 94.304C232.57 94.032 232.254 93.896 231.87 93.896ZM241.046 91.4L236.246 102.2H235.586L240.386 91.4H241.046ZM249.234 92.6H250.71V101H249.33V95.012L246.774 99.236H246.606L244.05 95V101H242.67V92.6H244.158L246.69 96.8L249.234 92.6ZM256.021 96.008H252.229V95.024L253.537 93.74C253.777 93.508 253.965 93.316 254.101 93.164C254.237 93.004 254.333 92.86 254.389 92.732C254.445 92.604 254.473 92.472 254.473 92.336C254.473 92.192 254.425 92.08 254.329 92C254.241 91.92 254.117 91.88 253.957 91.88C253.805 91.88 253.641 91.92 253.465 92C253.297 92.08 253.109 92.212 252.901 92.396L252.181 91.508C252.437 91.284 252.721 91.104 253.033 90.968C253.353 90.824 253.725 90.752 254.149 90.752C254.669 90.752 255.085 90.88 255.397 91.136C255.717 91.384 255.877 91.744 255.877 92.216C255.877 92.456 255.833 92.68 255.745 92.888C255.657 93.088 255.517 93.3 255.325 93.524C255.133 93.74 254.881 93.992 254.569 94.28L253.957 94.832H256.021V96.008Z" fill="white"/>
<circle cx="4" cy="231" r="4" fill="#A0725B"/>
<circle cx="57" cy="205" r="4" fill="#A0725B"/>
<circle cx="109" cy="186" r="4" fill="#A0725B"/>
<circle cx="162" cy="168" r="4" fill="#A0725B"/>
<circle cx="215" cy="150" r="4" fill="#A0725B"/>
<circle cx="268" cy="114" r="4" fill="#A0725B"/>
<circle cx="323" cy="7" r="4" fill="#A0725B"/>
<path d="M131.712 117.776L130.008 120.032C130.632 120.176 131.128 120.464 131.496 120.896C131.872 121.32 132.06 121.84 132.06 122.456C132.06 123.296 131.776 123.956 131.208 124.436C130.648 124.916 129.952 125.156 129.12 125.156C128.464 125.156 127.884 125.008 127.38 124.712C126.876 124.408 126.516 123.976 126.3 123.416L127.476 122.732C127.724 123.452 128.272 123.812 129.12 123.812C129.6 123.812 129.98 123.692 130.26 123.452C130.54 123.204 130.68 122.872 130.68 122.456C130.68 122.04 130.54 121.712 130.26 121.472C129.98 121.232 129.6 121.112 129.12 121.112H128.808L128.256 120.284L130.068 117.896H126.552V116.6H131.712V117.776ZM134.967 119.768H136.023C136.823 119.768 137.499 120.008 138.051 120.488C138.603 120.96 138.879 121.616 138.879 122.456C138.879 123.296 138.595 123.956 138.027 124.436C137.467 124.916 136.771 125.156 135.939 125.156C135.259 125.156 134.667 125 134.163 124.688C133.659 124.376 133.299 123.932 133.083 123.356L134.271 122.672C134.503 123.432 135.059 123.812 135.939 123.812C136.411 123.812 136.787 123.692 137.067 123.452C137.355 123.204 137.499 122.872 137.499 122.456C137.499 122.048 137.359 121.724 137.079 121.484C136.799 121.236 136.427 121.112 135.963 121.112H133.515L133.839 116.6H138.519V117.896H135.111L134.967 119.768ZM145.639 123.968C145.063 124.76 144.255 125.156 143.215 125.156C142.183 125.156 141.371 124.76 140.779 123.968C140.203 123.176 139.915 122.12 139.915 120.8C139.915 119.48 140.203 118.424 140.779 117.632C141.371 116.84 142.183 116.444 143.215 116.444C144.255 116.444 145.063 116.84 145.639 117.632C146.223 118.416 146.515 119.472 146.515 120.8C146.515 122.128 146.223 123.184 145.639 123.968ZM143.215 123.812C143.839 123.812 144.315 123.552 144.643 123.032C144.971 122.512 145.135 121.768 145.135 120.8C145.135 119.832 144.971 119.088 144.643 118.568C144.315 118.048 143.839 117.788 143.215 117.788C142.599 117.788 142.123 118.048 141.787 118.568C141.459 119.088 141.295 119.832 141.295 120.8C141.295 121.768 141.459 122.512 141.787 123.032C142.123 123.552 142.599 123.812 143.215 123.812ZM156.917 123.968C156.341 124.76 155.533 125.156 154.493 125.156C153.461 125.156 152.649 124.76 152.057 123.968C151.481 123.176 151.193 122.12 151.193 120.8C151.193 119.48 151.481 118.424 152.057 117.632C152.649 116.84 153.461 116.444 154.493 116.444C155.533 116.444 156.341 116.84 156.917 117.632C157.501 118.416 157.793 119.472 157.793 120.8C157.793 122.128 157.501 123.184 156.917 123.968ZM154.493 123.812C155.117 123.812 155.593 123.552 155.921 123.032C156.249 122.512 156.413 121.768 156.413 120.8C156.413 119.832 156.249 119.088 155.921 118.568C155.593 118.048 155.117 117.788 154.493 117.788C153.877 117.788 153.401 118.048 153.065 118.568C152.737 119.088 152.573 119.832 152.573 120.8C152.573 121.768 152.737 122.512 153.065 123.032C153.401 123.552 153.877 123.812 154.493 123.812ZM164.836 123.968C164.26 124.76 163.452 125.156 162.412 125.156C161.38 125.156 160.568 124.76 159.976 123.968C159.4 123.176 159.112 122.12 159.112 120.8C159.112 119.48 159.4 118.424 159.976 117.632C160.568 116.84 161.38 116.444 162.412 116.444C163.452 116.444 164.26 116.84 164.836 117.632C165.42 118.416 165.712 119.472 165.712 120.8C165.712 122.128 165.42 123.184 164.836 123.968ZM162.412 123.812C163.036 123.812 163.512 123.552 163.84 123.032C164.168 122.512 164.332 121.768 164.332 120.8C164.332 119.832 164.168 119.088 163.84 118.568C163.512 118.048 163.036 117.788 162.412 117.788C161.796 117.788 161.32 118.048 160.984 118.568C160.656 119.088 160.492 119.832 160.492 120.8C160.492 121.768 160.656 122.512 160.984 123.032C161.32 123.552 161.796 123.812 162.412 123.812ZM172.755 123.968C172.179 124.76 171.371 125.156 170.331 125.156C169.299 125.156 168.487 124.76 167.895 123.968C167.319 123.176 167.031 122.12 167.031 120.8C167.031 119.48 167.319 118.424 167.895 117.632C168.487 116.84 169.299 116.444 170.331 116.444C171.371 116.444 172.179 116.84 172.755 117.632C173.339 118.416 173.631 119.472 173.631 120.8C173.631 122.128 173.339 123.184 172.755 123.968ZM170.331 123.812C170.955 123.812 171.431 123.552 171.759 123.032C172.087 122.512 172.251 121.768 172.251 120.8C172.251 119.832 172.087 119.088 171.759 118.568C171.431 118.048 170.955 117.788 170.331 117.788C169.715 117.788 169.239 118.048 168.903 118.568C168.575 119.088 168.411 119.832 168.411 120.8C168.411 121.768 168.575 122.512 168.903 123.032C169.239 123.552 169.715 123.812 170.331 123.812ZM182.065 121.94H180.349V122.744H183.169V123.68H180.349V125H178.969V123.68H178.009V122.744H178.969V121.94H178.009V120.704H178.969V116.6H182.065C182.825 116.6 183.469 116.864 183.997 117.392C184.525 117.904 184.789 118.54 184.789 119.3C184.789 120.044 184.525 120.672 183.997 121.184C183.469 121.688 182.825 121.94 182.065 121.94ZM182.065 117.896H180.349V120.704H182.065C182.449 120.704 182.765 120.568 183.013 120.296C183.277 120.024 183.409 119.692 183.409 119.3C183.409 118.908 183.277 118.576 183.013 118.304C182.765 118.032 182.449 117.896 182.065 117.896ZM191.241 115.4L186.441 126.2H185.781L190.581 115.4H191.241ZM199.43 116.6H200.906V125H199.526V119.012L196.97 123.236H196.802L194.246 119V125H192.866V116.6H194.354L196.886 120.8L199.43 116.6ZM206.217 120.008H202.425V119.024L203.733 117.74C203.973 117.508 204.161 117.316 204.297 117.164C204.433 117.004 204.529 116.86 204.585 116.732C204.641 116.604 204.669 116.472 204.669 116.336C204.669 116.192 204.621 116.08 204.525 116C204.437 115.92 204.313 115.88 204.153 115.88C204.001 115.88 203.837 115.92 203.661 116C203.493 116.08 203.305 116.212 203.097 116.396L202.377 115.508C202.633 115.284 202.917 115.104 203.229 114.968C203.549 114.824 203.921 114.752 204.345 114.752C204.865 114.752 205.281 114.88 205.593 115.136C205.913 115.384 206.073 115.744 206.073 116.216C206.073 116.456 206.029 116.68 205.941 116.888C205.853 117.088 205.713 117.3 205.521 117.524C205.329 117.74 205.077 117.992 204.765 118.28L204.153 118.832H206.217V120.008Z" fill="white"/>
<path d="M76.712 141.776L75.008 144.032C75.632 144.176 76.128 144.464 76.496 144.896C76.872 145.32 77.06 145.84 77.06 146.456C77.06 147.296 76.776 147.956 76.208 148.436C75.648 148.916 74.952 149.156 74.12 149.156C73.464 149.156 72.884 149.008 72.38 148.712C71.876 148.408 71.516 147.976 71.3 147.416L72.476 146.732C72.724 147.452 73.272 147.812 74.12 147.812C74.6 147.812 74.98 147.692 75.26 147.452C75.54 147.204 75.68 146.872 75.68 146.456C75.68 146.04 75.54 145.712 75.26 145.472C74.98 145.232 74.6 145.112 74.12 145.112H73.808L73.256 144.284L75.068 141.896H71.552V140.6H76.712V141.776ZM84.0445 147.968C83.4685 148.76 82.6605 149.156 81.6205 149.156C80.5885 149.156 79.7765 148.76 79.1845 147.968C78.6085 147.176 78.3205 146.12 78.3205 144.8C78.3205 143.48 78.6085 142.424 79.1845 141.632C79.7765 140.84 80.5885 140.444 81.6205 140.444C82.6605 140.444 83.4685 140.84 84.0445 141.632C84.6285 142.416 84.9205 143.472 84.9205 144.8C84.9205 146.128 84.6285 147.184 84.0445 147.968ZM81.6205 147.812C82.2445 147.812 82.7205 147.552 83.0485 147.032C83.3765 146.512 83.5405 145.768 83.5405 144.8C83.5405 143.832 83.3765 143.088 83.0485 142.568C82.7205 142.048 82.2445 141.788 81.6205 141.788C81.0045 141.788 80.5285 142.048 80.1925 142.568C79.8645 143.088 79.7005 143.832 79.7005 144.8C79.7005 145.768 79.8645 146.512 80.1925 147.032C80.5285 147.552 81.0045 147.812 81.6205 147.812ZM91.9631 147.968C91.3871 148.76 90.5791 149.156 89.5391 149.156C88.5071 149.156 87.6951 148.76 87.1031 147.968C86.5271 147.176 86.2391 146.12 86.2391 144.8C86.2391 143.48 86.5271 142.424 87.1031 141.632C87.6951 140.84 88.5071 140.444 89.5391 140.444C90.5791 140.444 91.3871 140.84 91.9631 141.632C92.5471 142.416 92.8391 143.472 92.8391 144.8C92.8391 146.128 92.5471 147.184 91.9631 147.968ZM89.5391 147.812C90.1631 147.812 90.6391 147.552 90.9671 147.032C91.2951 146.512 91.4591 145.768 91.4591 144.8C91.4591 143.832 91.2951 143.088 90.9671 142.568C90.6391 142.048 90.1631 141.788 89.5391 141.788C88.9231 141.788 88.4471 142.048 88.1111 142.568C87.7831 143.088 87.6191 143.832 87.6191 144.8C87.6191 145.768 87.7831 146.512 88.1111 147.032C88.4471 147.552 88.9231 147.812 89.5391 147.812ZM103.242 147.968C102.666 148.76 101.858 149.156 100.818 149.156C99.7857 149.156 98.9737 148.76 98.3817 147.968C97.8057 147.176 97.5177 146.12 97.5177 144.8C97.5177 143.48 97.8057 142.424 98.3817 141.632C98.9737 140.84 99.7857 140.444 100.818 140.444C101.858 140.444 102.666 140.84 103.242 141.632C103.826 142.416 104.118 143.472 104.118 144.8C104.118 146.128 103.826 147.184 103.242 147.968ZM100.818 147.812C101.442 147.812 101.918 147.552 102.246 147.032C102.574 146.512 102.738 145.768 102.738 144.8C102.738 143.832 102.574 143.088 102.246 142.568C101.918 142.048 101.442 141.788 100.818 141.788C100.202 141.788 99.7257 142.048 99.3897 142.568C99.0617 143.088 98.8977 143.832 98.8977 144.8C98.8977 145.768 99.0617 146.512 99.3897 147.032C99.7257 147.552 100.202 147.812 100.818 147.812ZM111.16 147.968C110.584 148.76 109.776 149.156 108.736 149.156C107.704 149.156 106.892 148.76 106.3 147.968C105.724 147.176 105.436 146.12 105.436 144.8C105.436 143.48 105.724 142.424 106.3 141.632C106.892 140.84 107.704 140.444 108.736 140.444C109.776 140.444 110.584 140.84 111.16 141.632C111.744 142.416 112.036 143.472 112.036 144.8C112.036 146.128 111.744 147.184 111.16 147.968ZM108.736 147.812C109.36 147.812 109.836 147.552 110.164 147.032C110.492 146.512 110.656 145.768 110.656 144.8C110.656 143.832 110.492 143.088 110.164 142.568C109.836 142.048 109.36 141.788 108.736 141.788C108.12 141.788 107.644 142.048 107.308 142.568C106.98 143.088 106.816 143.832 106.816 144.8C106.816 145.768 106.98 146.512 107.308 147.032C107.644 147.552 108.12 147.812 108.736 147.812ZM119.079 147.968C118.503 148.76 117.695 149.156 116.655 149.156C115.623 149.156 114.811 148.76 114.219 147.968C113.643 147.176 113.355 146.12 113.355 144.8C113.355 143.48 113.643 142.424 114.219 141.632C114.811 140.84 115.623 140.444 116.655 140.444C117.695 140.444 118.503 140.84 119.079 141.632C119.663 142.416 119.955 143.472 119.955 144.8C119.955 146.128 119.663 147.184 119.079 147.968ZM116.655 147.812C117.279 147.812 117.755 147.552 118.083 147.032C118.411 146.512 118.575 145.768 118.575 144.8C118.575 143.832 118.411 143.088 118.083 142.568C117.755 142.048 117.279 141.788 116.655 141.788C116.039 141.788 115.563 142.048 115.227 142.568C114.899 143.088 114.735 143.832 114.735 144.8C114.735 145.768 114.899 146.512 115.227 147.032C115.563 147.552 116.039 147.812 116.655 147.812ZM128.389 145.94H126.673V146.744H129.493V147.68H126.673V149H125.293V147.68H124.333V146.744H125.293V145.94H124.333V144.704H125.293V140.6H128.389C129.149 140.6 129.793 140.864 130.321 141.392C130.849 141.904 131.113 142.54 131.113 143.3C131.113 144.044 130.849 144.672 130.321 145.184C129.793 145.688 129.149 145.94 128.389 145.94ZM128.389 141.896H126.673V144.704H128.389C128.773 144.704 129.089 144.568 129.337 144.296C129.601 144.024 129.733 143.692 129.733 143.3C129.733 142.908 129.601 142.576 129.337 142.304C129.089 142.032 128.773 141.896 128.389 141.896ZM137.565 139.4L132.765 150.2H132.105L136.905 139.4H137.565ZM145.754 140.6H147.23V149H145.85V143.012L143.294 147.236H143.126L140.57 143V149H139.19V140.6H140.678L143.21 144.8L145.754 140.6ZM152.541 144.008H148.749V143.024L150.057 141.74C150.297 141.508 150.485 141.316 150.621 141.164C150.757 141.004 150.853 140.86 150.909 140.732C150.965 140.604 150.993 140.472 150.993 140.336C150.993 140.192 150.945 140.08 150.849 140C150.761 139.92 150.637 139.88 150.477 139.88C150.325 139.88 150.161 139.92 149.985 140C149.817 140.08 149.629 140.212 149.421 140.396L148.701 139.508C148.957 139.284 149.241 139.104 149.553 138.968C149.873 138.824 150.245 138.752 150.669 138.752C151.189 138.752 151.605 138.88 151.917 139.136C152.237 139.384 152.397 139.744 152.397 140.216C152.397 140.456 152.353 140.68 152.265 140.888C152.177 141.088 152.037 141.3 151.845 141.524C151.653 141.74 151.401 141.992 151.089 142.28L150.477 142.832H152.541V144.008Z" fill="white"/>
<path d="M19.904 173H14.372V171.92L17.3 168.932C18.012 168.22 18.368 167.604 18.368 167.084C18.368 166.684 18.248 166.368 18.008 166.136C17.768 165.904 17.456 165.788 17.072 165.788C16.368 165.788 15.848 166.136 15.512 166.832L14.348 166.148C14.604 165.596 14.972 165.176 15.452 164.888C15.932 164.592 16.468 164.444 17.06 164.444C17.804 164.444 18.436 164.676 18.956 165.14C19.484 165.612 19.748 166.244 19.748 167.036C19.748 167.884 19.272 168.796 18.32 169.772L16.424 171.668H19.904V173ZM22.8384 167.768H23.8944C24.6944 167.768 25.3704 168.008 25.9224 168.488C26.4744 168.96 26.7504 169.616 26.7504 170.456C26.7504 171.296 26.4664 171.956 25.8984 172.436C25.3384 172.916 24.6424 173.156 23.8104 173.156C23.1304 173.156 22.5384 173 22.0344 172.688C21.5304 172.376 21.1704 171.932 20.9544 171.356L22.1424 170.672C22.3744 171.432 22.9304 171.812 23.8104 171.812C24.2824 171.812 24.6584 171.692 24.9384 171.452C25.2264 171.204 25.3704 170.872 25.3704 170.456C25.3704 170.048 25.2304 169.724 24.9504 169.484C24.6704 169.236 24.2984 169.112 23.8344 169.112H21.3864L21.7104 164.6H26.3904V165.896H22.9824L22.8384 167.768ZM33.5099 171.968C32.9339 172.76 32.1259 173.156 31.0859 173.156C30.0539 173.156 29.2419 172.76 28.6499 171.968C28.0739 171.176 27.7859 170.12 27.7859 168.8C27.7859 167.48 28.0739 166.424 28.6499 165.632C29.2419 164.84 30.0539 164.444 31.0859 164.444C32.1259 164.444 32.9339 164.84 33.5099 165.632C34.0939 166.416 34.3859 167.472 34.3859 168.8C34.3859 170.128 34.0939 171.184 33.5099 171.968ZM31.0859 171.812C31.7099 171.812 32.1859 171.552 32.5139 171.032C32.8419 170.512 33.0059 169.768 33.0059 168.8C33.0059 167.832 32.8419 167.088 32.5139 166.568C32.1859 166.048 31.7099 165.788 31.0859 165.788C30.4699 165.788 29.9939 166.048 29.6579 166.568C29.3299 167.088 29.1659 167.832 29.1659 168.8C29.1659 169.768 29.3299 170.512 29.6579 171.032C29.9939 171.552 30.4699 171.812 31.0859 171.812ZM44.7885 171.968C44.2125 172.76 43.4045 173.156 42.3645 173.156C41.3325 173.156 40.5205 172.76 39.9285 171.968C39.3525 171.176 39.0645 170.12 39.0645 168.8C39.0645 167.48 39.3525 166.424 39.9285 165.632C40.5205 164.84 41.3325 164.444 42.3645 164.444C43.4045 164.444 44.2125 164.84 44.7885 165.632C45.3725 166.416 45.6645 167.472 45.6645 168.8C45.6645 170.128 45.3725 171.184 44.7885 171.968ZM42.3645 171.812C42.9885 171.812 43.4645 171.552 43.7925 171.032C44.1205 170.512 44.2845 169.768 44.2845 168.8C44.2845 167.832 44.1205 167.088 43.7925 166.568C43.4645 166.048 42.9885 165.788 42.3645 165.788C41.7485 165.788 41.2725 166.048 40.9365 166.568C40.6085 167.088 40.4445 167.832 40.4445 168.8C40.4445 169.768 40.6085 170.512 40.9365 171.032C41.2725 171.552 41.7485 171.812 42.3645 171.812ZM52.7071 171.968C52.1311 172.76 51.3231 173.156 50.2831 173.156C49.2511 173.156 48.4391 172.76 47.8471 171.968C47.2711 171.176 46.9831 170.12 46.9831 168.8C46.9831 167.48 47.2711 166.424 47.8471 165.632C48.4391 164.84 49.2511 164.444 50.2831 164.444C51.3231 164.444 52.1311 164.84 52.7071 165.632C53.2911 166.416 53.5831 167.472 53.5831 168.8C53.5831 170.128 53.2911 171.184 52.7071 171.968ZM50.2831 171.812C50.9071 171.812 51.3831 171.552 51.7111 171.032C52.0391 170.512 52.2031 169.768 52.2031 168.8C52.2031 167.832 52.0391 167.088 51.7111 166.568C51.3831 166.048 50.9071 165.788 50.2831 165.788C49.6671 165.788 49.1911 166.048 48.8551 166.568C48.5271 167.088 48.3631 167.832 48.3631 168.8C48.3631 169.768 48.5271 170.512 48.8551 171.032C49.1911 171.552 49.6671 171.812 50.2831 171.812ZM60.6257 171.968C60.0497 172.76 59.2417 173.156 58.2017 173.156C57.1697 173.156 56.3577 172.76 55.7657 171.968C55.1897 171.176 54.9017 170.12 54.9017 168.8C54.9017 167.48 55.1897 166.424 55.7657 165.632C56.3577 164.84 57.1697 164.444 58.2017 164.444C59.2417 164.444 60.0497 164.84 60.6257 165.632C61.2097 166.416 61.5017 167.472 61.5017 168.8C61.5017 170.128 61.2097 171.184 60.6257 171.968ZM58.2017 171.812C58.8257 171.812 59.3017 171.552 59.6297 171.032C59.9577 170.512 60.1217 169.768 60.1217 168.8C60.1217 167.832 59.9577 167.088 59.6297 166.568C59.3017 166.048 58.8257 165.788 58.2017 165.788C57.5857 165.788 57.1097 166.048 56.7737 166.568C56.4457 167.088 56.2817 167.832 56.2817 168.8C56.2817 169.768 56.4457 170.512 56.7737 171.032C57.1097 171.552 57.5857 171.812 58.2017 171.812ZM69.9363 169.94H68.2203V170.744H71.0403V171.68H68.2203V173H66.8403V171.68H65.8803V170.744H66.8403V169.94H65.8803V168.704H66.8403V164.6H69.9363C70.6963 164.6 71.3403 164.864 71.8683 165.392C72.3963 165.904 72.6603 166.54 72.6603 167.3C72.6603 168.044 72.3963 168.672 71.8683 169.184C71.3403 169.688 70.6963 169.94 69.9363 169.94ZM69.9363 165.896H68.2203V168.704H69.9363C70.3203 168.704 70.6363 168.568 70.8843 168.296C71.1483 168.024 71.2803 167.692 71.2803 167.3C71.2803 166.908 71.1483 166.576 70.8843 166.304C70.6363 166.032 70.3203 165.896 69.9363 165.896ZM79.1122 163.4L74.3122 174.2H73.6522L78.4522 163.4H79.1122ZM87.3009 164.6H88.7769V173H87.3969V167.012L84.8409 171.236H84.6729L82.1169 167V173H80.7369V164.6H82.2249L84.7569 168.8L87.3009 164.6ZM94.0877 168.008H90.2957V167.024L91.6037 165.74C91.8437 165.508 92.0317 165.316 92.1677 165.164C92.3037 165.004 92.3997 164.86 92.4557 164.732C92.5117 164.604 92.5397 164.472 92.5397 164.336C92.5397 164.192 92.4917 164.08 92.3957 164C92.3077 163.92 92.1837 163.88 92.0237 163.88C91.8717 163.88 91.7077 163.92 91.5317 164C91.3637 164.08 91.1757 164.212 90.9677 164.396L90.2477 163.508C90.5037 163.284 90.7877 163.104 91.0997 162.968C91.4197 162.824 91.7917 162.752 92.2157 162.752C92.7357 162.752 93.1517 162.88 93.4637 163.136C93.7837 163.384 93.9437 163.744 93.9437 164.216C93.9437 164.456 93.8997 164.68 93.8117 164.888C93.7237 165.088 93.5837 165.3 93.3917 165.524C93.1997 165.74 92.9477 165.992 92.6357 166.28L92.0237 166.832H94.0877V168.008Z" fill="white"/>
<path d="M11.156 226.38L13.364 225.6H14.564V234H13.184V227.076L11.492 227.556L11.156 226.38ZM20.9008 229.632C21.7248 230.088 22.1368 230.768 22.1368 231.672C22.1368 232.432 21.8688 233.036 21.3328 233.484C20.8048 233.932 20.0928 234.156 19.1968 234.156C18.3008 234.156 17.5848 233.936 17.0488 233.496C16.5128 233.056 16.2448 232.448 16.2448 231.672C16.2448 231.24 16.3528 230.848 16.5688 230.496C16.7848 230.136 17.0888 229.848 17.4808 229.632C16.8488 229.216 16.5328 228.624 16.5328 227.856C16.5328 227.088 16.7888 226.496 17.3008 226.08C17.8208 225.656 18.4528 225.444 19.1968 225.444C19.9328 225.444 20.5608 225.656 21.0808 226.08C21.6008 226.504 21.8608 227.096 21.8608 227.856C21.8608 228.616 21.5408 229.208 20.9008 229.632ZM19.1968 226.752C18.8128 226.752 18.5008 226.856 18.2608 227.064C18.0288 227.264 17.9128 227.548 17.9128 227.916C17.9128 228.268 18.0328 228.552 18.2728 228.768C18.5128 228.976 18.8208 229.08 19.1968 229.08C19.5648 229.08 19.8688 228.976 20.1088 228.768C20.3568 228.552 20.4808 228.268 20.4808 227.916C20.4808 227.548 20.3608 227.264 20.1208 227.064C19.8808 226.856 19.5728 226.752 19.1968 226.752ZM19.1968 232.848C19.6688 232.848 20.0448 232.732 20.3248 232.5C20.6128 232.268 20.7568 231.948 20.7568 231.54C20.7568 231.132 20.6128 230.812 20.3248 230.58C20.0448 230.348 19.6688 230.232 19.1968 230.232C18.7168 230.232 18.3328 230.348 18.0448 230.58C17.7648 230.812 17.6248 231.132 17.6248 231.54C17.6248 231.948 17.7648 232.268 18.0448 232.5C18.3328 232.732 18.7168 232.848 19.1968 232.848ZM29.1154 232.968C28.5394 233.76 27.7314 234.156 26.6914 234.156C25.6594 234.156 24.8474 233.76 24.2554 232.968C23.6794 232.176 23.3914 231.12 23.3914 229.8C23.3914 228.48 23.6794 227.424 24.2554 226.632C24.8474 225.84 25.6594 225.444 26.6914 225.444C27.7314 225.444 28.5394 225.84 29.1154 226.632C29.6994 227.416 29.9914 228.472 29.9914 229.8C29.9914 231.128 29.6994 232.184 29.1154 232.968ZM26.6914 232.812C27.3154 232.812 27.7914 232.552 28.1194 232.032C28.4474 231.512 28.6114 230.768 28.6114 229.8C28.6114 228.832 28.4474 228.088 28.1194 227.568C27.7914 227.048 27.3154 226.788 26.6914 226.788C26.0754 226.788 25.5994 227.048 25.2634 227.568C24.9354 228.088 24.7714 228.832 24.7714 229.8C24.7714 230.768 24.9354 231.512 25.2634 232.032C25.5994 232.552 26.0754 232.812 26.6914 232.812ZM40.394 232.968C39.818 233.76 39.01 234.156 37.97 234.156C36.938 234.156 36.126 233.76 35.534 232.968C34.958 232.176 34.67 231.12 34.67 229.8C34.67 228.48 34.958 227.424 35.534 226.632C36.126 225.84 36.938 225.444 37.97 225.444C39.01 225.444 39.818 225.84 40.394 226.632C40.978 227.416 41.27 228.472 41.27 229.8C41.27 231.128 40.978 232.184 40.394 232.968ZM37.97 232.812C38.594 232.812 39.07 232.552 39.398 232.032C39.726 231.512 39.89 230.768 39.89 229.8C39.89 228.832 39.726 228.088 39.398 227.568C39.07 227.048 38.594 226.788 37.97 226.788C37.354 226.788 36.878 227.048 36.542 227.568C36.214 228.088 36.05 228.832 36.05 229.8C36.05 230.768 36.214 231.512 36.542 232.032C36.878 232.552 37.354 232.812 37.97 232.812ZM48.3126 232.968C47.7366 233.76 46.9286 234.156 45.8886 234.156C44.8566 234.156 44.0446 233.76 43.4526 232.968C42.8766 232.176 42.5886 231.12 42.5886 229.8C42.5886 228.48 42.8766 227.424 43.4526 226.632C44.0446 225.84 44.8566 225.444 45.8886 225.444C46.9286 225.444 47.7366 225.84 48.3126 226.632C48.8966 227.416 49.1886 228.472 49.1886 229.8C49.1886 231.128 48.8966 232.184 48.3126 232.968ZM45.8886 232.812C46.5126 232.812 46.9886 232.552 47.3166 232.032C47.6446 231.512 47.8086 230.768 47.8086 229.8C47.8086 228.832 47.6446 228.088 47.3166 227.568C46.9886 227.048 46.5126 226.788 45.8886 226.788C45.2726 226.788 44.7966 227.048 44.4606 227.568C44.1326 228.088 43.9686 228.832 43.9686 229.8C43.9686 230.768 44.1326 231.512 44.4606 232.032C44.7966 232.552 45.2726 232.812 45.8886 232.812ZM56.2312 232.968C55.6552 233.76 54.8472 234.156 53.8072 234.156C52.7752 234.156 51.9632 233.76 51.3712 232.968C50.7952 232.176 50.5072 231.12 50.5072 229.8C50.5072 228.48 50.7952 227.424 51.3712 226.632C51.9632 225.84 52.7752 225.444 53.8072 225.444C54.8472 225.444 55.6552 225.84 56.2312 226.632C56.8152 227.416 57.1072 228.472 57.1072 229.8C57.1072 231.128 56.8152 232.184 56.2312 232.968ZM53.8072 232.812C54.4312 232.812 54.9072 232.552 55.2352 232.032C55.5632 231.512 55.7272 230.768 55.7272 229.8C55.7272 228.832 55.5632 228.088 55.2352 227.568C54.9072 227.048 54.4312 226.788 53.8072 226.788C53.1912 226.788 52.7152 227.048 52.3792 227.568C52.0512 228.088 51.8872 228.832 51.8872 229.8C51.8872 230.768 52.0512 231.512 52.3792 232.032C52.7152 232.552 53.1912 232.812 53.8072 232.812ZM65.5418 230.94H63.8258V231.744H66.6458V232.68H63.8258V234H62.4458V232.68H61.4858V231.744H62.4458V230.94H61.4858V229.704H62.4458V225.6H65.5418C66.3018 225.6 66.9458 225.864 67.4738 226.392C68.0018 226.904 68.2658 227.54 68.2658 228.3C68.2658 229.044 68.0018 229.672 67.4738 230.184C66.9458 230.688 66.3018 230.94 65.5418 230.94ZM65.5418 226.896H63.8258V229.704H65.5418C65.9258 229.704 66.2418 229.568 66.4898 229.296C66.7538 229.024 66.8858 228.692 66.8858 228.3C66.8858 227.908 66.7538 227.576 66.4898 227.304C66.2418 227.032 65.9258 226.896 65.5418 226.896ZM74.7177 224.4L69.9177 235.2H69.2577L74.0577 224.4H74.7177ZM82.9063 225.6H84.3823V234H83.0023V228.012L80.4463 232.236H80.2783L77.7223 228V234H76.3423V225.6H77.8303L80.3623 229.8L82.9063 225.6ZM89.6932 229.008H85.9012V228.024L87.2092 226.74C87.4492 226.508 87.6372 226.316 87.7732 226.164C87.9092 226.004 88.0052 225.86 88.0612 225.732C88.1172 225.604 88.1452 225.472 88.1452 225.336C88.1452 225.192 88.0972 225.08 88.0012 225C87.9132 224.92 87.7892 224.88 87.6292 224.88C87.4772 224.88 87.3132 224.92 87.1372 225C86.9692 225.08 86.7812 225.212 86.5732 225.396L85.8532 224.508C86.1092 224.284 86.3932 224.104 86.7052 223.968C87.0252 223.824 87.3972 223.752 87.8212 223.752C88.3412 223.752 88.7572 223.88 89.0692 224.136C89.3892 224.384 89.5492 224.744 89.5492 225.216C89.5492 225.456 89.5052 225.68 89.4172 225.888C89.3292 226.088 89.1892 226.3 88.9972 226.524C88.8052 226.74 88.5532 226.992 88.2412 227.28L87.6292 227.832H89.6932V229.008Z" fill="white"/>
</svg>
