<?xml version="1.0" encoding="UTF-8"?><!DOCTYPE svg PUBLIC "-//W3C//DTD SVG 1.1//EN" "http://www.w3.org/Graphics/SVG/1.1/DTD/svg11.dtd"><svg xmlns="http://www.w3.org/2000/svg" xmlns:xlink="http://www.w3.org/1999/xlink"><symbol id="arrow-down" viewBox="0 0 12 7"><g fill="none"><path d="M11 1.028 6.833 6H5.167L1 1.028" stroke="currentColor" stroke-width="1.2"/></g></symbol><symbol id="arrow-right" viewBox="0 0 7 12"><g fill="none"><path d="M1.027 1 6 5.167v1.666L1.027 11" stroke="currentColor" stroke-width="1.2"/></g></symbol><symbol id="close" viewBox="0 0 18 16"><g fill="none"><path d="m1 1 6 5.833v2.334L1 15M17 1l-6 5.833v2.334L17 15" stroke="currentColor" stroke-width="1.2"/></g></symbol><symbol id="download" viewBox="0 0 12 13"><g fill="none"><path d="M11 3.028 6.833 8H6M1 3.028 5.167 8H6m0 0V0m5 11.5H1" stroke="currentColor" stroke-width="1.2"/></g></symbol><symbol id="dzen" viewBox="0 0 16 16"><g fill="none"><path d="M16 8.086v-.172c-3.543-.114-5.16-.2-6.457-1.457C8.286 5.16 8.194 3.543 8.086 0h-.172c-.114 3.543-.2 5.16-1.457 6.457C5.16 7.714 3.543 7.806 0 7.914v.172c3.543.114 5.16.2 6.457 1.457C7.714 10.84 7.806 12.457 7.914 16h.172c.114-3.543.2-5.16 1.457-6.457C10.84 8.286 12.457 8.194 16 8.086Z" fill="currentColor"/></g></symbol><symbol id="example-arrow-left" viewBox="0 0 20 20"><g fill="none"><path d="m12 16-6-6 6-6" stroke="currentColor" stroke-width="2" stroke-linecap="round" stroke-linejoin="round"/></g></symbol><symbol id="example-arrow" viewBox="0 0 20 20"><g fill="none"><path d="m8 4 6 6-6 6" stroke="currentColor" stroke-width="2" stroke-linecap="round" stroke-linejoin="round" fill="none"/></g></symbol><symbol id="example-close" viewBox="0 0 40 40"><g fill="none"><path display="var(--is-visible--sm-down)" d="M26 14 14 26m0-12 12 12" fill="none" stroke="currentColor" stroke-width="1.2"/><path display="var(--is-visible--md-up)" d="M25 15 15 25m0-10 10 10" fill="none" stroke="currentColor" stroke-width="1.2"/></g></symbol><symbol id="example-favourite" viewBox="0 0 20 20"><g fill="none"><path display="var(--is-visible--md-up)" fill="none" d="M16.188 5.2a3.781 3.781 0 0 0-5.531 0 4.084 4.084 0 0 0-.656.955 4.057 4.057 0 0 0-.657-.955 3.784 3.784 0 0 0-5.531 0 4.247 4.247 0 0 0 0 5.801l6.188 6.332 6.187-6.33a4.24 4.24 0 0 0 0-5.803Z" stroke="currentColor" stroke-linecap="round" stroke-linejoin="round"/><path display="var(--is-visible--sm-down)" fill="none" d="M14.64 6.4a2.835 2.835 0 0 0-4.147 0 3.064 3.064 0 0 0-.492.716 3.041 3.041 0 0 0-.493-.716 2.838 2.838 0 0 0-4.148 0 3.185 3.185 0 0 0 0 4.35L10 15.5l4.64-4.748a3.18 3.18 0 0 0 0-4.352Z" stroke="currentColor" stroke-linecap="round" stroke-linejoin="round"/></g></symbol><symbol id="example-password-hide" viewBox="0 0 16 16"><g fill="none"><path stroke="currentColor" fill="none" stroke-linecap="square" stroke-miterlimit="10" stroke-width="1.5" d="M13.558 6.68c.714.728 1.108 1.32 1.108 1.32S12 12 8 12c-.344 0-.677-.03-1-.083m-2.855-1.174A11.116 11.116 0 0 1 1.333 8S4 4 8 4c1.196 0 2.272.358 3.194.859"/><path stroke="currentColor" fill="none" stroke-linecap="square" stroke-miterlimit="10" stroke-width="1.5" d="M10.398 5.5A2.667 2.667 0 1 0 6.5 8.872"/><path stroke="currentColor" fill="none" stroke-width="1.5" d="M2 13 14 3"/></g></symbol><symbol id="example-password" viewBox="0 0 16 16"><g fill="none"><path stroke="currentColor" fill="none" stroke-linecap="square" stroke-miterlimit="10" stroke-width="1.5" d="M1.333 8S4 4 8 4s6.666 4 6.666 4S12 12 8 12 1.333 8 1.333 8Z"/><path stroke="currentColor" fill="none" stroke-linecap="square" stroke-miterlimit="10" stroke-width="1.5" d="M8 9.333A2.667 2.667 0 1 0 8 4a2.667 2.667 0 0 0 0 5.333Z"/></g></symbol><symbol id="example-zoom-in" viewBox="0 0 24 24"><g fill="none"><rect x="9" y="1" width="6" height="22" rx="2" fill="currentColor"/><rect x="1" y="15" width="6" height="22" rx="2" transform="rotate(-90 1 15)" fill="currentColor"/></g></symbol><symbol id="example-zoom-out" viewBox="0 0 24 24"><g fill="none"><rect x="1" y="15" width="6" height="22" rx="2" transform="rotate(-90 1 15)" fill="currentColor"/></g></symbol><symbol id="form-error" viewBox="0 0 14 12"><g fill="none"><path d="m1 .75 4.5 4.375v1.75L1 11.25M13 .75 8.5 5.125v1.75L13 11.25" stroke="currentColor" stroke-width="1.2"/></g></symbol><symbol id="form-success" viewBox="0 0 12 12"><g fill="none"><path d="m11.423 3-6.372 7h-1.3L.5 6.12" stroke="currentColor" stroke-width="1.2"/></g></symbol><symbol id="logo" viewBox="0 0 668 85"><g fill="none"><path d="M47.75 40.998c.68.283 1.864.954 3.537 1.997a22.118 22.118 0 0 1 4.46 3.623c1.289 1.378 2.456 3.286 3.484 5.743 1.045 2.456 1.567 5.09 1.567 7.864 0 6.785-2.752 12.582-8.274 17.388-5.523 4.807-12.892 7.21-22.125 7.21-3.745 0-7.351-.46-10.835-1.396-3.485-.936-6.359-2.032-8.606-3.322-2.248-1.272-4.251-2.58-5.993-3.923S1.95 73.726 1.15 72.807L0 71.375l7.909-8.182 1.01 1.025c.453.46 1.412 1.255 2.857 2.404a34.597 34.597 0 0 0 4.582 3.057c1.62.901 3.71 1.696 6.272 2.403 2.56.707 5.156 1.06 7.752 1.06 5.644 0 10.07-1.307 13.257-3.94 3.188-2.633 4.79-5.814 4.79-9.56 0-3.747-1.602-6.91-4.79-9.526-3.188-2.615-7.613-3.923-13.257-3.923h-9.564V34.46h9.564c4.582 0 8.17-1.096 10.766-3.287 2.596-2.192 3.902-4.86 3.902-7.988s-1.306-5.637-3.902-7.793c-2.596-2.138-6.202-3.199-10.766-3.199-3.293 0-6.55.743-9.738 2.227-3.188 1.484-5.575 2.916-7.143 4.294l-2.247 2.227-7.84-8.13c.227-.3.593-.741 1.133-1.29.522-.547 1.655-1.554 3.38-3.003a33.587 33.587 0 0 1 5.435-3.747c1.899-1.042 4.407-2.014 7.525-2.915A34.082 34.082 0 0 1 30.4.512c8.397 0 15 2.068 19.825 6.203 4.826 4.135 7.23 9.295 7.23 15.48 0 2.51-.4 4.86-1.185 7.034-.784 2.173-1.724 3.905-2.805 5.213-1.08 1.29-2.177 2.42-3.275 3.357-1.097.937-2.055 1.59-2.857 1.98l-1.15.565c.366.16.889.371 1.568.654ZM100.048 12.246C108.026 4.082 117.921 0 129.698 0c11.776 0 21.671 4.082 29.667 12.246 7.996 8.165 11.986 18.131 11.986 29.918 0 11.787-3.99 21.771-11.986 29.936-7.996 8.164-17.873 12.246-29.667 12.246s-21.672-4.082-29.65-12.246c-7.997-8.164-11.986-18.149-11.986-29.936 0-11.787 4.007-21.771 11.986-29.918Zm8.884 51.566c5.662 5.92 12.595 8.871 20.783 8.871s15.121-2.951 20.783-8.871c5.662-5.92 8.501-13.13 8.501-21.63 0-8.5-2.822-15.71-8.501-21.612-5.662-5.885-12.595-8.836-20.783-8.836s-15.121 2.951-20.783 8.836c-5.662 5.902-8.501 13.094-8.501 21.612 0 8.518 2.839 15.71 8.501 21.63ZM235.755 1.661c7.509 0 13.815 2.562 18.885 7.705 5.069 5.125 7.612 11.363 7.612 18.714 0 7.351-2.543 13.572-7.612 18.679-5.07 5.107-11.376 7.67-18.885 7.67h-19.128v29.299h-12.368V1.66h31.496ZM216.61 13.395v29.3h19.128c3.885 0 7.195-1.397 9.947-4.206 2.753-2.81 4.129-6.274 4.129-10.409 0-4.135-1.376-7.616-4.129-10.444-2.752-2.827-6.062-4.241-9.947-4.241H216.61ZM302.355 1.661h50.642v11.734h-38.273V83.71h-12.369V1.661ZM448.603 71.994V83.71h-58.552V1.661h57.419v11.734h-44.684v21.683h35.399v11.734h-35.399v25.182h45.817ZM556.42 1.467v82.26h-2.335l-46.583-55.1.018 55.1h-11.08V1.556h3.136l45.764 55.542V1.467h11.08ZM598.996 5.708C595.407 2.05 590.878.194 585.425.194c-5.452 0-9.964 1.856-13.57 5.514-3.624 3.693-5.436 8.252-5.436 13.66 0 5.408 1.812 9.967 5.436 13.642 3.606 3.694 8.135 5.532 13.57 5.532 5.436 0 9.982-1.856 13.571-5.532 3.589-3.693 5.401-8.234 5.401-13.642 0-5.407-1.812-9.967-5.401-13.66Zm-6.567 21.029c-1.83 1.873-4.164 2.81-7.004 2.81-2.839 0-5.156-.937-7.003-2.81-1.846-1.855-2.787-4.312-2.787-7.369 0-3.057.923-5.496 2.787-7.351 1.847-1.873 4.181-2.81 7.003-2.81 2.823 0 5.174.936 7.004 2.81 1.829 1.873 2.752 4.33 2.752 7.351 0 3.022-.923 5.496-2.752 7.369ZM619.535 48.385c-5.226-5.585-7.839-12.176-7.839-19.775 0-7.599 2.735-14.26 8.223-19.792 5.47-5.531 12.125-8.306 19.929-8.306 7.805 0 14.459 2.775 19.929 8.324C665.265 14.385 668 20.976 668 28.61c0 3.128-.523 6.256-1.568 9.384s-2.09 5.478-3.17 7.033l-1.481 2.35-22.49 36.333H626.87l17.49-28.15c-1.864.812-4.129 1.2-6.759 1.2-6.812 0-12.839-2.791-18.066-8.375Zm8.328-7.758c3.257 3.322 7.247 4.983 11.985 4.983 4.738 0 8.728-1.66 11.985-4.983 3.258-3.322 4.896-7.316 4.896-11.982 0-4.665-1.638-8.676-4.896-12.016-3.257-3.34-7.264-5.001-11.985-5.001-4.721 0-8.728 1.661-11.985 5-3.258 3.34-4.896 7.352-4.896 12.017 0 4.666 1.638 8.677 4.896 11.982ZM592.463 79.098c0 3.269-2.613 5.902-5.818 5.902-3.206 0-5.819-2.65-5.819-5.902 0-3.252 2.613-5.903 5.819-5.903 3.205 0 5.818 2.651 5.818 5.903Z" fill="currentColor"/></g></symbol><symbol id="long-arrow-down" viewBox="0 0 14 41"><g fill="none"><path d="M13 33.898 8 40H7m-6-6.102L6 40h1m0 0V0" stroke="currentColor" stroke-width="1.2"/></g></symbol><symbol id="long-arrow-left" viewBox="0 0 41 14"><g fill="none"><path d="M7.102 1 1 6v1m6.102 6L1 8V7m0 0h40" stroke="currentColor" stroke-width="1.2"/></g></symbol><symbol id="long-arrow-right" viewBox="0 0 41 14"><g fill="none"><path d="M33.898 1 40 6v1m-6.102 6L40 8V7m0 0H0" stroke="currentColor" stroke-width="1.2"/></g></symbol><symbol id="long-arrow-up" viewBox="0 0 14 31"><g fill="none"><path d="M13 7.102 8 1H7M1 7.102 6 1h1m0 0v30" stroke="currentColor" stroke-width="1.2"/></g></symbol><symbol id="map-athletics" viewBox="0 0 16 16"><g fill="none"><path d="M4.797 3.886 7.54 2.97l5.485 5.486 1.829-1.828M12.57 3.886a1.371 1.371 0 1 0 0-2.743 1.371 1.371 0 0 0 0 2.743ZM4.798 10.286 1.14 13.943" stroke="currentColor" stroke-width="1.2" stroke-linecap="round" stroke-linejoin="round"/><path d="M9.828 5.257 6.61 8.474a.914.914 0 0 0 .237 1.463L9.371 11.2l-2.743 2.743" stroke="currentColor" stroke-width="1.2" stroke-linecap="round" stroke-linejoin="round"/></g></symbol><symbol id="map-basketball" viewBox="0 0 16 16"><g fill="none"><path d="M13.5 3.133a7.28 7.28 0 0 0-2 5.034c0 1.966.767 3.7 2 5.033M2.832 3.133a7.28 7.28 0 0 1 2 5.034c0 1.966-.767 3.7-2 5.033M8.164.833V15.5M15.499 8.166H.832" stroke="currentColor" stroke-width="1.2" stroke-miterlimit="10"/><path d="M8.165 15.5a7.333 7.333 0 1 0 0-14.667 7.333 7.333 0 0 0 0 14.667Z" stroke="currentColor" stroke-width="1.2" stroke-miterlimit="10" stroke-linecap="square"/></g></symbol><symbol id="map-golf" viewBox="0 0 16 16"><g fill="none"><path d="M8.336 12.333v3.334" stroke="currentColor" stroke-width="1.2" stroke-miterlimit="10" stroke-linecap="square"/><path d="M8.335 10.333a4.667 4.667 0 1 0 0-9.333 4.667 4.667 0 0 0 0 9.333Z" stroke="currentColor" stroke-width="1.2" stroke-miterlimit="10"/><path d="M7 12.333h2.667" stroke="currentColor" stroke-width="1.2" stroke-miterlimit="10" stroke-linecap="square"/></g></symbol><symbol id="map-horse" viewBox="0 0 16 16"><g fill="none"><path d="M5 15c.667-2.667 4-3.333 4-6V5.667a2.666 2.666 0 0 1-2.667 2.666l-3 2L2 9l3.667-5.333v-2A9.318 9.318 0 0 1 14.09 15" stroke="currentColor" stroke-width="1.2" stroke-miterlimit="10" stroke-linecap="square"/></g></symbol><symbol id="map-ice-skates" viewBox="0 0 15 14"><g fill="none"><path d="m12.903 10.791.744 1.49a.584.584 0 0 1-.52.844H.292" stroke="currentColor" stroke-width="1.2" stroke-miterlimit="10"/><path d="M2.625 10.791v2.334M8.46 10.791v2.334" stroke="currentColor" stroke-width="1.2" stroke-miterlimit="10" stroke-linecap="square"/><path d="M13.125 10.792H8.458L4.375 9.625v1.167h-3.5V1.458h5.25l.504 2.016a4.667 4.667 0 0 0 3.3 3.37l2.49.68a1.75 1.75 0 0 1 1.29 1.687v.997a.583.583 0 0 1-.584.584Z" stroke="currentColor" stroke-width="1.2" stroke-miterlimit="10"/></g></symbol><symbol id="map-metro" viewBox="0 0 10 10"><g fill="none"><path d="M1 8.857 2.143 2 5 7.714 7.857 2 9 8.857" stroke="currentColor" stroke-width="1.2"/></g></symbol><symbol id="menu" viewBox="0 0 40 8"><g fill="none"><path d="M0 1h40M0 7h40" stroke="currentColor" stroke-width="1.3"/></g></symbol><symbol id="minus" viewBox="0 0 16 17"><g fill="none"><path d="M0 8h16" stroke="currentColor" stroke-width="1.3"/></g></symbol><symbol id="pause" viewBox="0 0 9 19"><g fill="none"><path d="M7.5 18V2m-6 16V2" stroke-width="1.2" stroke-linejoin="bevel" fill="none" stroke="currentColor"/></g></symbol><symbol id="phone" viewBox="0 0 16 16"><g fill="none"><path d="M10.15 5.28V1.677h4.518a14.022 14.022 0 0 1-3.968 9.03 14.022 14.022 0 0 1-9.032 3.969v-4.518h3.604" stroke="currentColor" stroke-width="1.2" stroke-miterlimit="10" stroke-linecap="square"/></g></symbol><symbol id="play-lg" viewBox="0 0 12 26"><g fill="none"><path d="M1 25V1l10 12L1 25Z" stroke="currentColor" stroke-width="1.2" stroke-linejoin="bevel"/></g></symbol><symbol id="play" viewBox="0 0 9 19"><g fill="none"><path d="M1 18V1l7 8.5L1 18Z" stroke="currentColor" stroke-width="1.2" stroke-linejoin="bevel"/></g></symbol><symbol id="plus" viewBox="0 0 16 17"><g fill="none"><path d="M16 8.396H9.584l-.688.688-.687.687-.002 6.301M0 7.735h6.416l.688-.688.687-.688.002-6.3" stroke="currentColor" stroke-width="1.2"/></g></symbol><symbol id="scroll" viewBox="0 0 42 14"><g fill="none"><path d="M34.898 1 41 6v1m-6.102 6L41 8V7m0 0H1M7.102 1 1 6v2l6.102 5" stroke="currentColor" stroke-width="1.2"/></g></symbol><symbol id="tg" viewBox="0 0 16 16"><g fill="none"><path d="M13.476 2.669a.275.275 0 0 0-.06-.126.252.252 0 0 0-.114-.075.845.845 0 0 0-.472.035S2.315 6.514 1.715 6.958c-.13.097-.173.151-.195.217-.103.318.22.456.22.456l2.71.937a.275.275 0 0 0 .137-.009c.617-.413 6.203-4.157 6.525-4.283.051-.016.089 0 .075.04-.129.477-4.954 5.03-4.98 5.058a.116.116 0 0 0-.037.094l-.253 2.808s-.107.876.717 0a23.547 23.547 0 0 1 1.425-1.384c.931.684 1.934 1.438 2.367 1.832a.713.713 0 0 0 .549.225.604.604 0 0 0 .335-.161.665.665 0 0 0 .19-.334s1.92-8.18 1.984-9.281c.006-.108.016-.173.016-.252a.993.993 0 0 0-.024-.252Z" fill="currentColor"/></g></symbol><symbol id="turn-message" viewBox="0 0 121 120"><g fill="none"><path d="M90.102 19 84 24v1m6.102 6L84 26v-1m0 0h16v13" stroke="currentColor" stroke-width="1.2"/><path d="M55.263 119.049H120V56.842H63.158M111.126 82.105v12.632" stroke="currentColor" stroke-opacity=".3" stroke-width="1.2"/><path stroke="currentColor" stroke-width="1.2" d="M.6.6h61.958v118.8H.6zM25.263 8.874h12.632"/></g></symbol><symbol id="vi-logo" viewBox="0 0 20 20"><g fill="none"><path fill-rule="evenodd" clip-rule="evenodd" d="M12.973 6.556a1.028 1.028 0 1 0 0-2.056 1.028 1.028 0 0 0 0 2.056ZM6.542 7.584H5l2.57 6.168h1.551l2.57-6.168H10.15l-1.803 4.329-1.804-4.33Zm7.2 0h-1.543v6.168h1.542V7.584Z" fill="currentColor"/></g></symbol><symbol id="video-fullscreen" viewBox="0 0 20 20"><g fill="none"><path display="var(--is-visible--md-up)" d="M2 8V2h6m10 6V2h-6m6 10v6h-6M2 12v6h6" stroke="currentColor" fill="none" stroke-width="1"/><path display="var(--is-visible--sm-down)" d="M4 8.5V4h4.5M16 8.5V4h-4.5m4.5 7.5V16h-4.5M4 11.5V16h4.5" stroke="currentColor" stroke-width="1"/></g></symbol><symbol id="video-minimize" viewBox="0 0 20 20"><g fill="none"><g display="var(--is-visible--md-up)" stroke="currentColor" stroke-width="1"><path d="M12.5 2v5.5H18M7.5 2v5.5H2M18 12.5h-5.5V18M7.5 18v-5.5H2"/></g><g display="var(--is-visible--sm-down)" stroke="currentColor" stroke-width="1"><path d="M11.875 4v4.125H16M8.125 4v4.125H4M16 11.875h-4.125V16M8.125 16v-4.125H4"/></g></g></symbol><symbol id="video-mute" viewBox="0 0 20 20"><g fill="none"><path display="var(--is-visible--md-up)" d="M7 6.923 15 2v16l-8-4.923m0-6.154v6.154m0-6.154H4v6.154h3" fill="none" stroke="currentColor"/><path display="var(--is-visible--sm-down)" d="M7.455 7.692 14 4v12l-6.545-3.692m0-4.616v4.616m0-4.616H5v4.616h2.455" fill="none" stroke="currentColor"/></g></symbol><symbol id="video-pause" viewBox="0 0 20 20"><g fill="none"><path display="var(--is-visible--md-up)" d="M13 18V2M7 18V2" fill="none" stroke="currentColor"/><path display="var(--is-visible--sm-down)" d="M12 16V4M8 16V4" fill="none" stroke="currentColor"/></g></symbol><symbol id="video-play" viewBox="0 0 20 20"><g fill="none"><path display="var(--is-visible--md-up)" d="M18.286 10.429 5.429 19V1.857l12.857 8.572Z" fill="none" stroke="currentColor"/><path display="var(--is-visible--sm-down)" d="M15.905 10.714 7.334 16.43V5l8.571 5.714Z" fill="none" stroke="currentColor"/></g></symbol><symbol id="video-unmute" viewBox="0 0 20 20"><g fill="none"><path display="var(--is-visible--md-up)" d="M7 6.923 15 2v16l-8-4.923m0-6.154v6.154m0-6.154H4v6.154h3M18 15 2 5" fill="none" stroke="currentColor"/><path display="var(--is-visible--sm-down)" d="m7.75 7.692 6-3.692v12l-6-3.692m0-4.616v4.616m0-4.616H5.5v4.616h2.25M16 13.75 4 6.25" fill="none" stroke="currentColor"/></g></symbol><symbol id="vk" viewBox="0 0 16 16"><g fill="none"><path d="M3.246 4.5c.208 3.476 1.85 5.152 3.371 5.527l.62.153V4.5h1.095v3.219l.553-.059c.799-.085 1.559-.563 2.16-1.188A5.75 5.75 0 0 0 12.279 4.5h1.094c-.47 1.475-1.617 2.575-2.457 3.054l-.844.48.882.407c.845.39 2.16 1.36 2.847 3.059h-1.258c-.614-1.512-1.928-2.686-3.661-2.856l-.549-.054v2.904c-1.978-.054-3.492-.75-4.541-1.95-1.023-1.17-1.646-2.868-1.77-5.044h1.225Z" fill="currentColor" stroke="currentColor"/></g></symbol><symbol id="whatsapp" viewBox="0 0 16 16"><g fill="none"><path d="M10.701 8.911c-.023-.01-.894-.397-1.048-.448a.657.657 0 0 0-.203-.04.353.353 0 0 0-.293.157c-.087.117-.35.395-.432.478-.01.011-.025.024-.034.024-.008 0-.143-.05-.183-.066-.934-.367-1.644-1.249-1.74-1.397-.015-.022-.015-.031-.015-.031.003-.012.034-.04.05-.055.048-.042.1-.098.15-.152.023-.026.046-.052.07-.076.072-.076.104-.134.141-.203l.02-.035a.337.337 0 0 0-.012-.346c-.02-.037-.389-.839-.428-.923-.094-.203-.218-.298-.39-.298l-.068.003c-.082.003-.527.056-.724.168C5.353 5.79 5 6.169 5 6.836c0 .6.422 1.167.603 1.383l.024.032c.693.915 1.558 1.593 2.434 1.91.843.304 1.242.339 1.47.339.095 0 .171-.007.238-.013l.043-.003c.291-.024.932-.324 1.077-.69.115-.287.145-.602.069-.716-.052-.078-.142-.117-.257-.167Z" fill="currentColor"/><path d="M8 1.1a6.9 6.9 0 1 1-3.68 12.738l-.227-.144-.259.075-2.725.786 1.088-2.298.14-.299-.175-.278A6.9 6.9 0 0 1 8 1.1Z" stroke="currentColor" stroke-width="1.2"/></g></symbol><symbol id="youtube" viewBox="0 0 16 16"><g fill="none"><path d="m3.5 4.01.583-.51L12.5 7.66v.68L4.083 12.5l-.583-.509V4.01Z" fill="currentColor"/></g></symbol></svg>