<svg xmlns="http://www.w3.org/2000/svg" viewBox="3.9 0 1914 686.3"><g id="SELECTION" fill="none" stroke-width="0"><path d="M363.5 94h302.2l.4 277.1-306 .8L363.5 94z"/><path d="m1270.3 648.4-.1-212.3 293.2.2 6.7 215.1-299.8-3z"/><path d="m1894.1 649.3-324 2.1v-263h-13.8l.5-233.7 337.7-1-.4 495.6z"/><path d="M1261.5 153.6h293.2l-2 214.9-288.7-1.8-2.5-213.1Z"/><path d="M1258.3 153.6v216.6l-294.9 1.7-.8-220.2 295.7 1.9z"/><path d="m958.4 94.6-.2 277.3-292.1-.8 2-278.7 290.3 2.2z"/><path d="M25.7 94.8h331.4l-.6 492.7-331-1.2.2-491.5z"/><path d="m351.4 373.7 307.2-1.8.4 64.9 86.8.2v153.7l-394.4 1.4V373.7z"/></g></svg>