<svg version="1.1" xmlns="http://www.w3.org/2000/svg" xmlns:xlink="http://www.w3.org/1999/xlink" viewBox="0 0 3501.7 1058"><g id="SELECTION_0" fill="none"><path d="M2259.3 514.1V324.5h37.1V111.7h1205.3V1058h-633.6V931.2h-114.5V533.1h-494.3v-19z"></path><path d="M1374.6 427.7h-170.3V0h561v427.7h-191v36.4h-198.6l-1.1-36.4z"></path><path d="M667.8 429.1h-18.4V0h566.2v185.4h-188.9v284H667.5l.3-40.3z"></path><path d="M798.5 927.5V514.1h434.3v124.4h88.9v308.1H798.5v-19.1z"></path></g><g id="SELECTION_1" fill="none"><path d="M2267.1 525.4V332.3h48.2V130.8h1167.4v908.1h-595.6V922.2h-125.7V648.8H2862V526.4l-594.9-1z"></path><path d="M1215.6 19.1h530.6v389.6h-530.6z"></path><path d="M713.5 417.8v-16.9h-45.7V19.1h528.7v104.5h7.8v51.2h-188.9v241.7l-301.9 1.3z"></path><path d="M817.5 533.1h404v116.6h81.1v277.8H817.5V533.1z"></path></g><g><g id="MAIN_LAYER"><g id="Layer_1"><g id="_2180162838256" fill="#f1f1f1" fill-rule="evenodd"><path d="M1458.4 902.3h62.4v2.7h-62.4v-2.7zm1.4-16.4h61v2.8h-61v-2.8zm.8-15.5h60.2v2.8h-60.2v-2.8zm-1.3-14.8h61.5v2.8h-61.5v-2.8zm-.4-15.1h61.9v2.7h-61.9v-2.7zm-.5-15.5h62.4v2.7h-62.4V825zm1.7-14.6h60.7v2.7h-60.7v-2.7zm.7-14.4h60v2.7h-60V796zm-2.4-15h62.4v2.7h-62.4V781zm62.4-16.4v2.8h-62.4v-2.8h62.4z"></path><path d="M1458.4 751.3h2.7v152.3h-2.7V751.3z"></path><path d="M1458.4 749.6h62.4v2.7h-62.4v-2.7z"></path><path d="m1490.2 750.1 29.8 13.6-1.1 2.5-29.9-13.6 1.2-2.5z"></path><path d="m1489 750.1 1.2 2.5-29.9 13.6-1.1-2.5 29.8-13.6z"></path><path d="M1488.2 751.3h2.8V905h-2.8V751.3zm29.9-1.7h2.7v154h-2.7v-154z"></path></g><g id="_2180162777728"><path fill="none" stroke="#f1f1f1" stroke-linecap="round" stroke-linejoin="round" stroke-width=".3" d="M2211.8 423.7v-1.4m-2.6-1.3-1.3 2.5m1.2-2.7.1.2m-4.3 1.6 1.1-1.8m-1.1 2.4v-.6m.9 1.1-.9-.5m1.5 1.6-.6-1.1m4-2.8v-.1m-.9 1.8.9-1.7m1.1-.1v2.1m1.3-1.7-.1-.4m.4 3.2-.3-2.8m3.6 1.5-.7-1.9m1.4 2.4-.7-.5m20.7.5h1.6m-.5 1-1.1-1m-1.5-2.2.1-.2m-.7.7.6-.5m.6.5h-1.2m1.9.7-.7-.7m1.2.7h-.5m2.4 2.2.1-.5m-5-.5.5-2.6m.3 1.8-.8.8m1.7-.8h-.9m.9 1v-1m-8.1.9-.3-2.7m-.6 4.2.9-1.5m25-2.7-1 1.2m-12.3-1.2v1.4m1-.4-1-1m4.6 1.4 1.4-1.2m.6.7.4-.9m-1.7 2.1 1.3-1.2m-1.3 2.9v-1.7m-6.4-1.9v-.2m2.4 2-.5.1m1.5-.5-1 .4m2.6-.4h-1.6m1.6.8v-.8m.4 1.8-.4-1m4.9 2h-1.5m-.6-.2v-1.2m-4.3-2.6-.5-.4m1.5.4h-1m2-.4-1 .4m3.6 1.4.9-1.8m-.3 3.3-.6-1.5m2.2 2-1.6-.5m2.7-.6-1.1 1.1m2.9-1.5-1.8.4m2-1.5-.2 1.1m.8-.7.6-1.6m-1.6 2.5 1-.9m-3.3 2.5 2.3-1.6m4.9.3-2.8 1.5m5.9-.8-3.1-.7"></path></g><g id="_2180005202160"><path fill="#f1f1f1" fill-rule="evenodd" d="M1205.4 262.3h-95.1v79.1h95.1v-79.1z"></path><path fill="none" stroke="#f1f1f1" stroke-miterlimit="10" stroke-width=".8" d="M1205.4 294.5h-95.1m47.6-32.2v79.1"></path></g><g id="_2180005202400"><path fill="#f1f1f1" fill-rule="evenodd" d="M1205.4 183.9h-95.1v79h95.1v-79z"></path><path fill="none" stroke="#f1f1f1" stroke-miterlimit="10" stroke-width=".8" d="M1205.4 216.1h-95.1m47.6-32.2v79"></path></g><g id="_2180005204032"><path fill="#f1f1f1" fill-rule="evenodd" d="M1205.4 340.4h-95.1v79h95.1v-79z"></path><path fill="none" stroke="#f1f1f1" stroke-miterlimit="10" stroke-width=".8" d="M1205.4 372.6h-95.1m47.6-32.2v79"></path></g><g id="_2180005203984" stroke="#f1f1f1" stroke-width=".3"><path fill="#f1f1f1" fill-rule="evenodd" stroke-miterlimit="22.9" d="M1113 180h69.4v32.8H1113V180z"></path><path fill="none" stroke-linecap="round" stroke-linejoin="round" d="m1161.9 193.7 1.7-1.2m-26.7 10.1-1.2 1m-3.8.4-.8-.8m1.6 2.8-.8-2m.8 3.2-.5 1.4m1.4-2-.9.6m2.3-1.1-1.4.5m1.6-3.6-.4-1.2m.4 2.4V203m-.2 3.1.2-1.9m-1.2 2.8 1-.9m-1.5 1.3.5-.4m-1 .9.5-.5m-1.3 1.2.8-.7m-1.6 2.5.8-1.8m9.3 1.3v-.5m.5 2-.5-1.5m.2 2.5.3-1m-.7-.1-.4 1.1m.4-2.3v1.2m-.8-2 .8.8m-1.5-1.4.7.6m-1.8-.6h1.1m-2.1-.3 1 .3m-2.3-1.1 1.3.8m-2.4-.8h1.1m-2.1.5h-.9m2.8-.9-1.9.9m2.7-.8-.8-.1m2.1.9-1.3-.8m2.4.8h-1.1m2.1.4-1-.4m.9-.5.1.9m-.2-1.8.1.9m.3-1.4-.4.5m-.4-2.4.8 1.9m-1.1-3.7.3 1.8m.1-2.7-.4.9m2.2 4.1-.3.2m0-1.3.3 1.1m-.6-2.2.3 1.1m.2-1.6-.5.5m-.4-2 .9 1.5m5.3-2.8-.1-.8m-1 1.8 1.1-1m-2.3 2.7 1.2-1.7m-2 2.5.8-.8m-1.4 1.8.6-1m-1 3.5-.6-.5m1.4-1-.8 1.5m1.6-3.2-.8 1.7m1.6-3.2-.8 1.5m1.2-2.3-.4.8m1-2.1-.6 1.3m1.2-2.3-.6 1m.2-1.8.4.8m.2-1.8-.6 1m1.2-1.8-.6.8m.6 3.9-.6.6m1.1-1.3-.5.7m-.1-1.6.6.9m-.3-1.9-.3 1m.7-1.3-.4.3m1.3.5-.9-.8m1.4-.5-.3.9m1.1-.5-.8-.4m-4.2 7.6.4-.6m-.4 1.6v-1m0 1.8v-.8m-.3 3.3.3-2.5m-.4 3.6-.3.4m-1 0 1.3-.4m1.1-.3-.8.7m.7-1.6.1.9m.3-2-.4 1.1m.4-2.5v1.4m.7-2.9-.7 1.5m.1-3 .6 1.5m0-3.2-.6 1.7m1.7-2.7-1.1 1m1.9-1h-.8m2.3 0h-1.5m-10.6-5.1-1.7 1.7m-6.2 4.1 1.7 3.1m-2.1-5.5.4 2.4m-2.9-5.4 2.5 3m-4.9-6.5-1.2-2.2m1.8 4.8 1 1.8m-3-5.2 2 3.4m-.9-3.8-.9-2.9m1.1-4.6.9 2m-2-5.3 1.1 3.3m3.3-1-1.3-1.2m3.8 1.1-.7 1m.3-2.9.4 1.9m-.1 3.2 1.4-2m-2.1 3.1.7-1.1m-.7 2.8v-1.7m.9 6.2-.2-1.5m-.1 2.8.3-1.3m0 2.4-.3-1.1m1.2 2.9-.9-1.8m9.7-14.6v-1.2m11.3 9.4.9 1m-5.4-1.7-.2 1.1m.4-2.1-.2 1m-7.7-2.6.2-.5m-.1 2.1-.1-1.6m-.5 3.5.6-1.9m-.6.4v1.5m-1.2-1.8 1.2.3m-2.3 1.5 1.1-1.8m-1.1-1.1v2.9m.3-6.5-.3 3.6m.3-5.6v2m1.2-4.2-1.2 2.2m1.1-2.4.1.2m-3.8 1.4 1-1.6m-1 2.1v-.5m.8.9-.8-.4m1.3 1.4-.5-1m0 4 .5-3m-1.3 5 .8-2m-.8 3.5v-1.5m-.7 2.6.7-1.1m-.7 2v-.9m.8.6-.8.3m1 .1-.2-.4m-.5 1.8.7-1.4m-1.6 2.5.9-1.1m-.9 2.2V195m.8.4-.8.7m1-.5-.2-.2m.5 1.7-.3-1.5m.3 3v-1.5m.3.7-.3.8m1.3-1.8-1 1m2.3-2.3-1.3 1.3m1.6-3.2-.3 1.9m1.2-3.3-.9 1.4m1.5-1.8-.6.4m1.1 1.3-.5-1.7m.6 2.8-.1-1.1m-.3 2.3.4-1.2m-.7 3.1.3-1.9m1.2-1.1-.7 1.5m.7-3v1.5m0-2.9v1.4m.3-2.3-.3.9m.8-1.6-.5.7m.2-1.3.3.6m-.3-1.5v.9m.5-.9h-.5m1.4-1.3-.9 1.3m1.4 3.2.7.6m-1.3-.6h.6m-1.5-.5.9.5m-1.2.8.3-1.3m-.3 2.6v-1.3m-.6 2.8.6-1.5m-1.3 2.2.7-.7m-1.5 2.2.8-1.5m-.8 2.2v-.7m.4.3-.4.4m.9-1.1-.5.7m2.2-.8-1.7.1m2.7-.1h-1m2.2-1.2-1.2 1.2m1-1.8.2.6m-.2-1.9v1.3m.9-2.1-.9.8m2-2h-1.6m2-1-.4 1m.4 1.8-.8.8m1.7-1-.9.2m.9-1.3v1.1m-9.1 12.1-.8.8m1.4-2.1-.6 1.3m1-2.6-.4 1.3m.4-2.2v.9m.4-1.7-.4.8m.4-2.1v1.3m.3-2.2-.3.9m1.4-1.4h-.6m-.1 2.5v.3m.9-1.1-.9.8m1.4-1.3-.5.5m.8-1.7-.3 1.2m.7-1.6-.4.4m1-.6-.6.2m1.5-.4-.9.2m1.7-1-.8.8m.2 0 .6-.8m-.6 2.1V198m-.6 2.5.6-1.2m0 1.2h-.6m1.4-1.3-.8 1.3m1.6-3.4-.8 2.1m.3-3.1.5 1m.1-1.8-.6.8m1.7-1.8-1.1 1m1.4.4-.3-1.4m-.2 1.8.5-.4m0 .9-.5-.5m1 .5h-.5m1.2.6-.7-.6m31.5 8.6-.9-.7m3.1 1.2-2.2-.5m-14 4.1-.5-1.4m-5.6-9.4-.6 1.3m-1-.1v1.7m1.1-3.7-1.1 2m1.1-3.9v1.9m-4.2-5.3-.6-.8m.1 1.9.5-1.1m.2 1.8-.7-.7m1.2-.3-.5 1m-4.4-7.8v1m1-2.3-.8.8m1.3-1.7-.5.9m1.7.9-1.2-1.8m-5.9 2.2-.3-1.5m.5 1.8-.2-.3m1.7 2-1.5-1.7m2.7 1.4-1.2.3m1.2.5v-.8m-8-4.5-.9 2.9m-.4-6v-.1m-.8 1.5.8-1.4m-.8 4v-2.6m-.6 6 .6-3.4m-.3 3.2-.3.2m.7 1-.4-1.2m1.4.9-1 .3m1-1.7v1.4m1.4-3.1-1.4 1.7m.7-5 .7 3.3m-.7-5.1v1.8m1.1-1.5v-.3m.3 2.8-.3-2.5m0 4.2.3-1.7m-.9 4.6.6-2.9m.1 3.3-.7-.4m1.7-1.1-1 1.5m1.4.4-.4-1.9m-.2 3.8.6-1.9m.2 2.1-.8-.2m1.6.2h-.8m.8 1.8v-1.8m1.1 2.2-1.1-.4m2.1-1.8-1 2.2m1-4.3v2.1m-.6-4 .6 1.9m-.6-3.7v1.8m-.9-4.7-.5-1.6m1.2 2.1-.7-.5m1.1 2.4-.4-1.9m1.1 3.5-.7-1.6m2.1 2.9-1.4-1.3m3 .8-1.6.5m1.6 2v-2.5m1.5 3.3-1.5-.8m2.4 1.7-.9-.9m2.1 1.1-1.2-.2m1.5-.2-.3.4m-.8.6 1.1.3m-2.5-1.3 1.4 1m-3.2-2.2 1.8 1.2m-2.2-.9.4-.3m-.4 1.5v-1.2m-.6 3.2.6-2m-.3 2.6-.3-.6m-.3 1.4.6-.8m.7 2.4-1.3-1.6m.9 3.3.4-1.7m0 2.4-.4-.7m1.3.7h-.9m.9-1.4v1.4m.8-.7-.8-.7m1.6.4-.8.3m1-1.4-.2 1.1m1.2-2.6-1 1.5m1.6-2.7-.6 1.2m.6-2.8v1.6m-.3 2.3-.7 2m1.9-2.8-1.2.8m1.8 15.8-.9-2.4m-.5 2.8-.1.2m2.4-.7.1.7m-1.4-.5 1.3-.2m-1.8 0 .5.2m-.5-2.5v2.3m-5.5-1.8-1.9 1.8m4.4-4.7-2.5 2.9m3.6-4-1.1 1.1m1.9.9-.8-2m.4-.6.4 2.6m-.4-4.8v2.2m-1.4-3.4 1.4 1.2m-.6-3.7-.8 2.5m1.4-4.2-.6 1.7m.6-3.4v1.7m1.6-3.3-1.6 1.6m2.6-.7-1-.9m.6 2.1.4-1.2m-.7 2.4.3-1.2m.7 2.9-1-1.7m9.7 1.8-3.7.7-2.5-.5-2.5-.3-1-1.7m1-1.5-1 1.5m1-3.7v2.2m2.5-1.6-2.5-.6m7.6-11.5h1.3m-.4.8-.9-.8m1.3 3.7-1.2 1.1m.7.5-2.9 1.1m4-2.1-1.1 1m2.8-1h-1.7m3-1.8-1.3 1.8m2.6 15.7-.3 1.5m-.9 4.8-.6-.6m.8 2-.2-1.4m1.4 2.4-1.2-1m1.9 2.2-.7-1.2m-6.5.5.2.7m.7-1.2-.9.5m2.6-1.4-1.7.9m2.5-1.9-.8 1m-1.8-10.5-.5-.6m1.8 1.1h-.8m2.6 1.1-.7-.7m1.9.7h-1.2m-5.2-20.8.1-.2m-.6.6.5-.4m.5.4h-1m1.6.6-.6-.6m1 .6h-.4m2.1 1.9.2-.4m-.5 1.3.3-.9m-.3 2.1v-1.2m.7 1.2h-.7m1.7.4-1-.4m2.2-.8-1.2 1.2m.9 3.6v-1.2m-.2-.5h-1.1m1.8-1.5-.7 1.5m1.5-1.5h-.8m1.1.7-.3-.7m.1 1.8.2-1.1m-1 2.8.8-1.7m-7 5v.6m-.5-1.6.4.4m-1.4-.4h1m-1.8-.2-.2 1.4m.7-3.6-.5 2.2m.7-3.6-.2 1.4m.8-7.2-.6 5.8m.6-5.8.5-2.2m.3 1.6-.8.6m1.5-.6h-.7m.7.8v-.8m1.3 2.4-1.3-1.6m1.3 2.4v-.8m-.6 2.1.6-1.3m-1.6 2.3 1-1m-1.8 1h.8m-1.8.9 1-.9m0 2.3h-1.2m2.9-.7-1.7.7m3.7-1.6-2 .9m3.5-.4-1.5-.5m1.9 1.7-.4-1.2m-.6 2.2 1-1m-1.4 2.4.4-1.4m-1.4 1.6 1-.2m-3.7 2.3h-.6m1.6-.9-1 .9m3-1.6-2 .7m2.9-1.5-.9.8m2.4-2.7-1.5 1.9m2.4-1.7-.9-.2m.9.5v-.3m-.2 1.2.2-.9m-.7 3.1.5-2.2m1.2-1.1 1.9-2.6m-2.6 4.3.7-1.7m-1.7 3.3 1-1.6m-2.4 3.9 1.4-2.3m-.7 5.2-.7-2.9m14 3.5-2.1-1.1m.4-2.7-1.6-.5m2.5 1.4-.9-.9m1.3 1.8-.4-.9m1.9 1.2-1.5-.3m2.3 1 .7-.4m-2.5 1.7 1.8-1.3m-3.3 3.7 1.5-2.4m-9.9.9-.3.2m1.5-.2h-1.2m2 .7-.8-.7m2.4 1-1.6-.3m-.1 1 1.4.5m-3-.5h1.6m-2.7-.6 1.1.6m-2-1.9.9 1.3m-2.8-2.6 1.9 1.3m-2.8 2.1-1.5-2.3m2.4 4.2-.9-1.8m1.5 4.2-.6-2.4m.6 1.1v1.3m1.4-1.9-1.4.6m3.9-1.7-2.5 1.1m-13.2-22.5-.4-2.3m-.4 3.7.8-1.4m-1.6 8.1.8-6.7m.7 7.9-1.5-1.2m2.8 2.7-1.3-1.5m3.3 2.1-2-.6m2.8 1.3-.8-.7m2.1 2.1-1.3-1.4m3.2 2.9-1.9-1.5m2.7 4-.8-2.5m3.5 6.6-2.7-4.1m3.5 8.4-.8-4.3m1.7 1.8-.9 2.5m1.6-2.5h-.7m3.2-1.1-2.5 1.1m6.2-2.9-3.7 1.8m7.4-1.3-3.7-.5m4.8 2.6-1.1-2.1m3.1 2.5-2-.4m3.6.7-1.6-.3m1.5 6.2.1-.1m-5.8-31.9-.9 1m-48.8 30.2-2.2-.8m3.5.8 1.5-.5m-2.1 1.3.6-.8m.2.8h0m.5-.5-.5.5m1.3-1.3-.8.8m2.7-1.5-1.9.7m-.5 1.3v-.1m-5.2-2.7 3.3 1.5m37.6-30.7v1.2m.9-.4-.9-.8m4 1.2 1.2-1.1m.6.7.3-.8m-1.4 1.8 1.1-1m-1.1 2.5v-1.5m-2 2.8 2-1.3m-5.7-3.1v-.2m2.1 1.7-.4.1m1.4-.4-1 .3m2.3-.3h-1.3m1.3.7v-.7m.4 1.6-.4-.9m-.8 2 1.2-1.1m3.9.9h-1.3m-.5-.2V183m-1.6 1.7 1.6-.6m-1.6 1.3v-.7m.7 1-.7-.3m1.9.2-1.2.1m3-.9-1.8.8m-4.1-4.9-.5-.3m1.4.3h-.9m1.8-.3-.9.3m3.1 1.2.8-1.5m-.2 2.9-.6-1.4m1.9 1.8-1.3-.4m2.3-.5-1 .9m2.6-1.3-1.6.4m1.8-1.4-.2 1m.7-.6.6-1.4m-1.5 2.2.9-.8m-2.9 2.1 2-1.3m-1.8 2.2-.2-.9m.5.8-.3.1m1.4-.2-1.1.1m3.4-.5-2.3.4m-1.3 1.1-2.8 1.8m4.7-2.5-1.9.7m3.6-1.5-1.7.8m4.2-2.1-2.5 1.3m5.2-.8-2.7-.5m2.7 11.2-.1-.2m-2.9.3-.6-1.4m1.5 2.3-.9-.9m1.9 1.3-1-.4m1.3 1.8-.3-1.4m1.1 2.1-.5.7"></path><path fill="#f1f1f1" fill-rule="evenodd" stroke-miterlimit="22.9" d="M1118.8 188.7h35v22.6h-35v-22.6z"></path><path fill="#f1f1f1" fill-rule="evenodd" stroke-miterlimit="22.9" d="M1120.5 190.9h31.7v18.8h-31.7v-18.8z"></path><path d="M1136 198c-1.3 0-2.3-1-2.3-2.5s1-2.6 2.3-2.6c1.2 0 2.2 1.1 2.2 2.6 0 1.4-1 2.6-2.2 2.6Z" fill="none" stroke-miterlimit="10"></path><path fill="#f1f1f1" fill-rule="evenodd" stroke-miterlimit="22.9" d="M1134.3 184h3.3v11.3h-3.3V184z"></path><path fill="#f1f1f1" fill-rule="evenodd" stroke-miterlimit="22.9" d="M1135.1 186.5h1.7v6.4h-1.7v-6.4z"></path><path fill="none" stroke-miterlimit="10" d="M1134.2 186.5h3.5"></path></g><path fill="#f1f1f1" fill-rule="evenodd" stroke="#f1f1f1" stroke-miterlimit="22.9" stroke-width=".3" d="M1113 265.9h91.3v32.8H1113v-32.8z"></path><path fill="none" stroke="#f1f1f1" stroke-linecap="round" stroke-linejoin="round" stroke-width=".3" d="m1161.9 279.6 1.7-1.2m-26.7 10.1-1.2 1.1m-3.8.3-.8-.7m1.6 2.7-.8-2m.8 3.2-.5 1.4m1.4-2-.9.6m2.3-1.1-1.4.5m1.6-3.6-.4-1.2m.4 2.4v-1.2m-.2 3.1.2-1.9m-1.2 2.8 1-.9m-1.5 1.3.5-.4m-1 .9.5-.5m-1.3 1.2.8-.7m-1.6 2.5.8-1.8m9.3 1.4v-.6m.5 2-.5-1.4m.2 2.4.3-1m-.7-.1-.4 1.1m.4-2.3v1.2m-.8-2 .8.8m-1.5-1.4.7.6m-1.8-.6h1.1m-2.1-.3 1 .3m-2.3-1.1 1.3.8m-2.4-.8h1.1m-2.1.6h-.9m2.8-1-1.9 1m2.7-.9-.8-.1m2.1 1-1.3-.9m2.4.9h-1.1m2.1.3-1-.3m.9-.6.1.9m-.2-1.8.1.9m.3-1.4-.4.5m-.4-2.4.8 1.9m-1.1-3.7.3 1.8m.1-2.6-.4.8m2.2 4.1-.3.2m0-1.3.3 1.1m-.6-2.2.3 1.1m.2-1.6-.5.5m-.4-2 .9 1.5m5.3-2.8-.1-.8m-1 1.8 1.1-1m-2.3 2.7 1.2-1.7m-2 2.5.8-.8m-1.4 1.8.6-1m-1 3.5-.6-.5m1.4-1-.8 1.5m1.6-3.2-.8 1.7m1.6-3.2-.8 1.5m1.2-2.3-.4.8m1-2-.6 1.2m1.2-2.3-.6 1.1m.2-1.9.4.8m.2-1.8-.6 1m1.2-1.8-.6.8m.6 3.9-.6.6m1.1-1.3-.5.7m-.1-1.6.6.9m-.3-1.9-.3 1m.7-1.3-.4.3m1.3.5-.9-.8m1.4-.4-.3.8m1.1-.5-.8-.3m-4.2 7.5.4-.6m-.4 1.6v-1m0 1.8v-.8m-.3 3.3.3-2.5m-.4 3.6-.3.4m-1 0 1.3-.4m1.1-.3-.8.7m.7-1.5.1.8m.3-2-.4 1.2m.4-2.6v1.4m.7-2.9-.7 1.5m.1-2.9.6 1.4m0-3.2-.6 1.8m1.7-2.8-1.1 1m1.9-1h-.8m2.3 0h-1.5m-10.6-5-1.7 1.6m-6.2 4.1 1.7 3.1m-2.1-5.5.4 2.5m-2.9-5.5 2.5 3m-4.9-6.5-1.2-2.2m1.8 4.8 1 1.8m-3-5.1 2 3.3m-.9-3.7-.9-3m1.1-4.6.9 2m-2-5.3 1.1 3.3m3.3-1-1.3-1.2m3.8 1.1-.7 1m.3-2.9.4 1.9m-.1 3.2 1.4-2m-2.1 3.1.7-1.1m-.7 2.8v-1.7m.9 6.2-.2-1.4m-.1 2.7.3-1.3m0 2.4-.3-1.1m1.2 2.9-.9-1.8m9.7-14.6v-1.2m11.3 9.4.9 1.1m-5.4-1.7-.2 1m.4-2.1-.2 1.1m-7.7-2.7.2-.5m-.1 2.1-.1-1.6m-.5 3.5.6-1.9m-.6.4v1.5m-1.2-1.7 1.2.2m-2.3 1.5 1.1-1.7m-1.1-1.2v2.9m.3-6.5-.3 3.6m.3-5.6v2m1.2-4.2-1.2 2.2m1.1-2.4.1.2m-3.8 1.4 1-1.6m-1 2.1v-.5m.8.9-.8-.4m1.3 1.4-.5-1m0 4 .5-3m-1.3 5.1.8-2.1m-.8 3.5v-1.4m-.7 2.5.7-1.1m-.7 2v-.9m.8.7-.8.2m1 .1-.2-.3m-.5 1.7.7-1.4m-1.6 2.6.9-1.2m-.9 2.2v-1m.8.3-.8.7m1-.5-.2-.2m.5 1.7-.3-1.5m.3 3V283m.3.8-.3.7m1.3-1.8-1 1.1m2.3-2.4-1.3 1.3m1.6-3.1-.3 1.8m1.2-3.3-.9 1.5m1.5-1.9-.6.4m1.1 1.3-.5-1.7m.6 2.8-.1-1.1m-.3 2.3.4-1.2m-.7 3.1.3-1.9m1.2-1.1-.7 1.5m.7-3v1.5m0-2.9v1.4m.3-2.3-.3.9m.8-1.6-.5.7m.2-1.3.3.6m-.3-1.5v.9m.5-.9h-.5m1.4-1.3-.9 1.3m1.4 3.2.7.6m-1.3-.6h.6m-1.5-.5.9.5m-1.2.8.3-1.3m-.3 2.6v-1.3m-.6 2.8.6-1.5m-1.3 2.2.7-.7m-1.5 2.2.8-1.5m-.8 2.3v-.8m.4.3-.4.5m.9-1.1-.5.6m2.2-.8-1.7.2m2.7-.2h-1m2.2-1.2-1.2 1.2m1-1.8.2.6m-.2-1.8v1.2m.9-2.1-.9.9m2-2.1h-1.6m2-1-.4 1m.4 1.8-.8.8m1.7-1-.9.2m.9-1.3v1.1m-9.1 12.1-.8.8m1.4-2.1-.6 1.3m1-2.6-.4 1.3m.4-2.1v.8m.4-1.7-.4.9m.4-2.2v1.3m.3-2.2-.3.9m1.4-1.4h-.6m-.1 2.5v.4m.9-1.2-.9.8m1.4-1.2-.5.4m.8-1.7-.3 1.3m.7-1.7-.4.4m1-.6-.6.2m1.5-.4-.9.2m1.7-1-.8.8m.2 0 .6-.8m-.6 2.2v-1.4m-.6 2.5.6-1.1m0 1.1h-.6m1.4-1.3-.8 1.3m1.6-3.4-.8 2.1m.3-3.1.5 1m.1-1.8-.6.8m1.7-1.8-1.1 1m1.4.4-.3-1.4m-.2 1.8.5-.4m0 .9-.5-.5m1 .5h-.5m1.2.6-.7-.6m31.5 8.6-.9-.7m3.1 1.2-2.2-.5m-14 4.1-.5-1.4m-5.6-9.4-.6 1.4m-1-.2v1.7m1.1-3.7-1.1 2m1.1-3.9v1.9m-4.2-5.2-.6-.9m.1 1.9.5-1m.2 1.7-.7-.7m1.2-.3-.5 1m-4.4-7.8v1m1-2.3-.8.8m1.3-1.7-.5.9m1.7.9-1.2-1.8m-5.9 2.2-.3-1.4m.5 1.7-.2-.3m1.7 2.1-1.5-1.8m2.7 1.5-1.2.3m1.2.4v-.7m-8-4.6-.9 2.9m-.4-6v-.1m-.8 1.5.8-1.4m-.8 4v-2.6m-.6 6 .6-3.4m-.3 3.2-.3.2m.7 1-.4-1.2m1.4.9-1 .3m1-1.7v1.4m1.4-3.1-1.4 1.7m.7-5 .7 3.3m-.7-5.1v1.8m1.1-1.5v-.3m.3 2.8-.3-2.5m0 4.3.3-1.8m-.9 4.6.6-2.8m.1 3.3-.7-.5m1.7-1.1-1 1.6m1.4.3-.4-1.9m-.2 3.8.6-1.9m.2 2.1-.8-.2m1.6.2h-.8m.8 1.8v-1.8m1.1 2.2-1.1-.4m2.1-1.8-1 2.2m1-4.3v2.1m-.6-4 .6 1.9m-.6-3.6v1.7m-.9-4.6-.5-1.7m1.2 2.1-.7-.4m1.1 2.3-.4-1.9m1.1 3.5-.7-1.6m2.1 2.9-1.4-1.3m3 .9-1.6.4m1.6 2v-2.4m1.5 3.2-1.5-.8m2.4 1.7-.9-.9m2.1 1.1-1.2-.2m1.5-.1-.3.3m-.8.6 1.1.4m-2.5-1.4 1.4 1m-3.2-2.2 1.8 1.2m-2.2-.9.4-.3m-.4 1.5v-1.2m-.6 3.2.6-2m-.3 2.6-.3-.6m-.3 1.4.6-.8m.7 2.4-1.3-1.6m.9 3.3.4-1.7m0 2.4-.4-.7m1.3.7h-.9m.9-1.4v1.4m.8-.7-.8-.7m1.6.4-.8.3m1-1.4-.2 1.1m1.2-2.6-1 1.5m1.6-2.7-.6 1.2m.6-2.7v1.5m-.3 2.3-.7 2m1.9-2.7-1.2.7m1.8 15.8-.9-2.4m-.5 2.8-.1.2m2.4-.7.1.7m-1.4-.5 1.3-.2m-1.8 0 .5.2m-.5-2.5v2.3m-5.5-1.7-1.9 1.7m4.4-4.7-2.5 3m3.6-4.1-1.1 1.1m1.9.9-.8-2m.4-.6.4 2.6m-.4-4.7v2.1m-1.4-3.4 1.4 1.3m-.6-3.7-.8 2.4m1.4-4.2-.6 1.8m.6-3.5v1.7m1.6-3.3-1.6 1.6m2.6-.7-1-.9m.6 2.1.4-1.2m-.7 2.4.3-1.2m.7 3-1-1.8m9.7 1.8-3.7.7-2.5-.5-2.5-.2-1-1.8m1-1.5-1 1.5m1-3.6v2.1m2.5-1.6-2.5-.5m7.6-11.6h1.3m-.4.8-.9-.8m1.3 3.7-1.2 1.1m.7.5-2.9 1.2m4-2.2-1.1 1m2.8-1h-1.7m3-1.8-1.3 1.8m2.6 15.7-.3 1.5m-.9 4.8-.6-.5m.8 1.9-.2-1.4m1.4 2.4-1.2-1m1.9 2.2-.7-1.2m-6.5.5.2.7m.7-1.2-.9.5m2.6-1.3-1.7.8m2.5-1.9-.8 1.1m-1.8-10.6-.5-.5m1.8 1h-.8m2.6 1.1-.7-.6m1.9.6h-1.2m-5.2-20.8.1-.2m-.6.7.5-.5m.5.5h-1m1.6.5-.6-.5m1 .5h-.4m2.1 1.9.2-.3m-.5 1.2.3-.9m-.3 2.2v-1.3m.7 1.3h-.7m1.7.3-1-.3m2.2-.8-1.2 1.1m.9 3.6v-1.2m-.2-.5h-1.1m1.8-1.5-.7 1.5m1.5-1.5h-.8m1.1.8-.3-.8m.1 1.8.2-1m-1 2.7.8-1.7m-7 5.1v.5m-.5-1.6.4.4m-1.4-.4h1m-1.8-.2-.2 1.4m.7-3.6-.5 2.2m.7-3.6-.2 1.4m.8-7.1-.6 5.7m.6-5.7.5-2.3m.3 1.6-.8.7m1.5-.7h-.7m.7.8v-.8m1.3 2.5-1.3-1.7m1.3 2.5v-.9m-.6 2.2.6-1.3m-1.6 2.3 1-1m-1.8 1h.8m-1.8.8 1-.8m0 2.2h-1.2m2.9-.7-1.7.7m3.7-1.6-2 .9m3.5-.4-1.5-.5m1.9 1.7-.4-1.2m-.6 2.2 1-1m-1.4 2.5.4-1.5m-1.4 1.6 1-.1m-3.7 2.3h-.6m1.6-1-1 1m3-1.7-2 .7m2.9-1.5-.9.8m2.4-2.7-1.5 1.9m2.4-1.7-.9-.2m.9.5v-.3m-.2 1.2.2-.9m-.7 3.1.5-2.2m1.2-1.1 1.9-2.6m-2.6 4.4.7-1.8m-1.7 3.3 1-1.5m-2.4 3.8 1.4-2.3m-.7 5.2-.7-2.9m14 3.5-2.1-1.1m.4-2.7-1.6-.5m2.5 1.4-.9-.9m1.3 1.8-.4-.9m1.9 1.2-1.5-.3m2.3 1.1.7-.5m-2.5 1.7 1.8-1.2m-3.3 3.6 1.5-2.4m-9.9.9-.3.2m1.5-.2h-1.2m2 .7-.8-.7m2.4 1-1.6-.3m-.1 1 1.4.5m-3-.5h1.6m-2.7-.6 1.1.6m-2-1.9.9 1.3m-2.8-2.6 1.9 1.3m-2.8 2.2-1.5-2.4m2.4 4.2-.9-1.8m1.5 4.2-.6-2.4m.6 1.1v1.3m1.4-1.9-1.4.6m3.9-1.7-2.5 1.1m-13.2-22.5-.4-2.3m-.4 3.7.8-1.4m-1.6 8.2.8-6.8m.7 7.9-1.5-1.1m2.8 2.6-1.3-1.5m3.3 2.1-2-.6m2.8 1.3-.8-.7m2.1 2.1-1.3-1.4m3.2 2.9-1.9-1.5m2.7 4-.8-2.5m3.5 6.6-2.7-4.1m3.5 8.4-.8-4.3m1.7 1.8-.9 2.5m1.6-2.5h-.7m3.2-1.1-2.5 1.1m6.2-2.9-3.7 1.8m7.4-1.3-3.7-.5m4.8 2.6-1.1-2.1m3.1 2.5-2-.4m3.6.7-1.6-.3m1.5 6.2.1-.1m-5.8-31.9-.9 1m-48.8 30.2-2.2-.8m3.5.8 1.5-.4m-2.1 1.2.6-.8m.2.8h0m.5-.5-.5.5m1.3-1.2-.8.7m2.7-1.5-1.9.8m-.5 1.2v-.1m-5.2-2.7 3.3 1.5m37.6-30.7v1.2m.9-.4-.9-.8m4 1.2 1.2-1.1m.6.7.3-.8m-1.4 1.8 1.1-1m-1.1 2.5v-1.5m-2 2.8 2-1.3m-5.7-3.1v-.2m2.1 1.7-.4.2m1.4-.5-1 .3m2.3-.3h-1.3m1.3.7v-.7m.4 1.6-.4-.9m-.8 2 1.2-1.1m3.9.9h-1.3m-.5-.2v-1m-1.6 1.6 1.6-.6m-1.6 1.3v-.7m.7 1-.7-.3m1.9.2-1.2.2m3-1-1.8.8m-4.1-4.8-.5-.4m1.4.4h-.9m1.8-.4-.9.4m3.1 1.1.8-1.5m-.2 2.9-.6-1.4m1.9 1.8-1.3-.4m2.3-.5-1 .9m2.6-1.3-1.6.4m1.8-1.4-.2 1m.7-.6.6-1.4m-1.5 2.2.9-.8m-2.9 2.2 2-1.4m-1.8 2.2-.2-.8m.5.8h-.3m1.4-.2-1.1.2m3.4-.6-2.3.4m-1.3 1.1-2.8 1.8m4.7-2.5-1.9.7m3.6-1.5-1.7.8m4.2-2.1-2.5 1.3m5.2-.8-2.7-.5m2.7 11.2-.1-.2m-2.9.4-.6-1.5m1.5 2.4-.9-.9m1.9 1.2-1-.3m1.3 1.7-.3-1.4m1.1 2.2-.5.6"></path><path fill="#f1f1f1" fill-rule="evenodd" stroke="#f1f1f1" stroke-miterlimit="22.9" stroke-width=".3" d="M1118.8 274.6h35v22.6h-35v-22.6z"></path><path fill="#f1f1f1" fill-rule="evenodd" stroke="#f1f1f1" stroke-miterlimit="22.9" stroke-width=".3" d="M1120.5 276.8h31.7v18.8h-31.7v-18.8z"></path><path d="M1136 284c-1.3 0-2.3-1.2-2.3-2.6 0-1.4 1-2.6 2.3-2.6 1.2 0 2.2 1.2 2.2 2.6 0 1.4-1 2.6-2.2 2.6Z" fill="none" stroke="#f1f1f1" stroke-miterlimit="10" stroke-width=".3"></path><path fill="#f1f1f1" fill-rule="evenodd" stroke="#f1f1f1" stroke-miterlimit="22.9" stroke-width=".3" d="M1134.3 269.9h3.3v11.3h-3.3v-11.3z"></path><path fill="#f1f1f1" fill-rule="evenodd" stroke="#f1f1f1" stroke-miterlimit="22.9" stroke-width=".3" d="M1135.1 272.4h1.7v6.4h-1.7v-6.4z"></path><path fill="none" stroke="#f1f1f1" stroke-miterlimit="10" stroke-width=".3" d="M1134.2 272.4h3.5"></path><g id="_2179807472464" stroke="#f1f1f1" stroke-width=".3"><path fill="#f1f1f1" fill-rule="evenodd" stroke-miterlimit="22.9" d="M1112.7 412.3h69.4v-32.7h-69.4v32.7z"></path><path fill="none" stroke-linecap="round" stroke-linejoin="round" d="m1161.6 398.7 1.7 1.1m-26.8-10-1.1-1.1m-3.9-.3-.7.7m1.6-2.7-.9 2m.9-3.2-.5-1.5m1.4 2.1-.9-.6m2.2 1.1-1.3-.5m1.6 3.6-.4 1.1m.4-2.3v1.2m-.3-3.1.3 1.9m-1.2-2.8.9.9m-1.4-1.4.5.5m-1-.9.5.4m-1.3-1.2.8.8m-1.6-2.5.8 1.7m9.3-1.3v.6m.4-2.1-.4 1.5m.2-2.4.2.9m-.6.2-.5-1.1m.5 2.2v-1.1m-.9 1.9.9-.8m-1.6 1.4.7-.6m-1.7.6h1m-2 .4 1-.4m-2.3 1.1 1.3-.7m-2.4.7h1.1m-2.1-.5h-.9m2.8 1-1.9-1m2.6.9-.7.1m2.1-1-1.4.9m2.4-.9h-1m2.1-.4-1.1.4m1 .6.1-1m-.3 1.9.2-.9m.3 1.3-.5-.4m-.3 2.3.8-1.9m-1.1 3.7.3-1.8m.1 2.7-.4-.9m2.2-4-.3-.3m0 1.3.3-1m-.6 2.2.3-1.2m.2 1.7-.5-.5m-.4 1.9.9-1.4m5.2 2.7-.1.9m-.9-1.8 1 .9m-2.2-2.6 1.2 1.7m-2.1-2.5.9.8m-1.4-1.9.5 1.1m-.9-3.6-.6.6m1.4 1-.8-1.6m1.6 3.3-.8-1.7m1.6 3.1-.8-1.4m1.2 2.3-.4-.9m1 2.1-.6-1.2m1.1 2.3-.5-1.1m.1 1.8.4-.7m.3 1.8-.7-1.1m1.2 1.9-.5-.8m.6-4-.7-.6m1.1 1.4-.4-.8m-.1 1.7.5-.9m-.2 1.8-.3-.9m.7 1.3-.4-.4m1.3-.4-.9.8m1.4.4-.4-.8m1.2.5-.8.3m-4.2-7.6.4.6m-.4-1.5v.9m0-1.8v.9m-.4-3.4.4 2.5m-.4-3.5-.3-.4m-1.1 0 1.4.4m1.1.3-.8-.7m.6 1.5.2-.8m.3 2-.5-1.2m.5 2.6v-1.4m.7 2.9-.7-1.5m0 2.9.7-1.4m0 3.1-.7-1.7m1.8 2.8-1.1-1.1m1.8 1.1h-.7m2.3 0h-1.6m-10.5 5-1.8-1.6m-6.1-4.2 1.7-3m-2.1 5.5.4-2.5m-2.9 5.4 2.5-2.9m-4.9 6.5-1.2 2.1m1.7-4.8 1.1-1.7m-3 5.1 1.9-3.4m-.8 3.8-.9 3m1.1 4.5.9-2m-2.1 5.3 1.2-3.3m3.3 1.1-1.3 1.2m3.7-1.1-.7-1m.4 2.8.3-1.8m0-3.3 1.4 2m-2.1-3 .7 1m-.7-2.8v1.8m.9-6.2-.2 1.4m-.1-2.7.3 1.3m0-2.4-.3 1.1m1.2-3-.9 1.9m9.7 14.5v1.3m11.3-9.5.8-1m-5.3 1.7-.3-1m.5 2-.2-1m-7.7 2.7.1.5m0-2.2-.1 1.7m-.5-3.6.6 1.9m-.6-.3V401m-1.2 1.8 1.2-.2m-2.4-1.6 1.2 1.8m-1.2 1.2v-3m.4 6.5-.3-3.5m.3 5.6v-2.1m1.2 4.3-1.2-2.2m1.1 2.4.1-.2m-3.8-1.4 1 1.6m-1-2.2v.6m.8-1-.8.4m1.3-1.4-.5 1m-.1-3.9.6 3m-1.3-5.1.7 2.1m-.7-3.6v1.5m-.7-2.5.7 1m-.7-1.9v.9m.8-.7-.8-.2m.9-.2-.1.4m-.6-1.7.7 1.3m-1.5-2.5.8 1.2m-.8-2.2v1m.7-.4-.7-.6m1 .4-.3.2m.6-1.7-.3 1.5m.3-2.9v1.4m.3-.7-.3-.7m1.2 1.7-.9-1m2.3 2.3-1.4-1.3m1.7 3.2-.3-1.9m1.2 3.3-.9-1.4m1.5 1.8-.6-.4m1.1-1.2-.5 1.6m.6-2.7-.1 1.1m-.4-2.3.5 1.2m-.8-3.1.3 1.9m1.3 1-.7-1.4m.7 2.9v-1.5m0 2.9v-1.4m.3 2.4-.3-1m.7 1.6-.4-.6m.2 1.2.2-.6m-.2 1.6v-1m.5 1h-.5m1.3 1.3-.8-1.3m1.4-3.2.7-.7m-1.3.7h.6m-1.5.4.9-.4m-1.2-.9.3 1.3m-.3-2.5v1.2m-.6-2.8.6 1.6m-1.3-2.2.7.6m-1.6-2.1.9 1.5m-.9-2.3v.8m.5-.3-.5-.5m1 1.1-.5-.6m2.2.8-1.7-.2m2.6.2h-.9m2.2 1.2-1.3-1.2m1.1 1.8.2-.6m-.2 1.8V397m.9 2-.9-.8m2 2h-1.6m1.9 1-.3-1m.4-1.8-.8-.7m1.7 1-.9-.3m.9 1.4v-1.1m-9.1-12.2-.8-.7m1.4 2.1-.6-1.4m.9 2.7-.3-1.3m.3 2.1v-.8m.4 1.6-.4-.8m.4 2.1v-1.3m.4 2.3-.4-1m1.4 1.4h-.6m0-2.4v-.4m.9 1.2-.9-.8m1.3 1.2-.4-.4m.8 1.7-.4-1.3m.8 1.6-.4-.3m1 .6-.6-.3m1.5.5-.9-.2m1.7.9-.8-.7m.2-.1.6.8m-.6-2.1v1.3m-.6-2.4.6 1.1m0-1.1h-.6m1.4 1.3-.8-1.3m1.6 3.4-.8-2.1m.3 3.1.5-1m.1 1.8-.6-.8m1.6 1.8-1-1m1.4-.4-.4 1.4m-.1-1.9.5.5m0-.9-.5.4m1-.4h-.5m1.2-.6-.7.6m31.5-8.6-.9.6m3.1-1.1-2.2.5m-14.1-4.1-.4 1.4m-5.6 9.3-.7-1.3m-1 .1V391m1.2 3.6-1.2-2m1.2 4v-2m-4.3 5.3-.5.8m.1-1.9.4 1.1m.3-1.7-.7.6m1.1.4-.4-1m-4.5 7.8v-1.1m1.1 2.3-.8-.8m1.3 1.7-.5-.9m1.6-.8-1.1 1.7m-5.9-2.2-.3 1.5m.5-1.7-.2.2m1.7-2-1.5 1.8m2.7-1.5-1.2-.3m1.2-.4v.7m-8 4.5-.9-2.9m-.4 6.1v.1m-.8-1.6.8 1.5m-.8-4v2.5m-.7-6 .7 3.5m-.4-3.2-.3-.3m.8-1-.5 1.3m1.4-1-.9-.3m.9 1.8v-1.5m1.5 3.2-1.5-1.7m.8 4.9.7-3.2m-.7 5.1v-1.9m1.1 1.5-.1.4m.4-2.9-.3 2.5m-.1-4.2.4 1.7m-.9-4.6.5 2.9m.2-3.3-.7.4m1.7 1.2-1-1.6m1.4-.4-.4 2m-.3-3.8.7 1.8m.2-2.1-.9.3m1.7-.3h-.8m.8-1.8v1.8m1-2.2-1 .4m2 1.8-1-2.2m1 4.3v-2.1m-.5 4.1.5-2m-.5 3.7v-1.7m-.9 4.6-.6 1.7m1.3-2.2-.7.5m1.1-2.3-.4 1.8m1.1-3.4-.7 1.6m2.1-2.9-1.4 1.3m3-.9-1.6-.4m1.6-2v2.4m1.5-3.3-1.5.9m2.4-1.7-.9.8m2.1-1.1-1.2.3m1.5.1-.3-.4m-.8-.5 1-.4m-2.4 1.3 1.4-.9m-3.3 2.2 1.9-1.3m-2.2.9.3.4m-.3-1.5v1.1m-.6-3.1.6 2m-.3-2.6-.3.6m-.3-1.4.6.8m.6-2.5-1.2 1.7m.9-3.4.3 1.7m0-2.4-.3.7m1.3-.7h-1m1 1.5v-1.5m.8.7-.8.8m1.6-.5-.8-.3m1 1.5-.2-1.2m1.2 2.7-1-1.5m1.5 2.7-.5-1.2m.5 2.7v-1.5m-.2-2.3-.8-2.1m2 2.8-1.2-.7m1.8-15.9-.9 2.5m-.5-2.9-.1-.1m2.4.7.1-.7m-1.4.4 1.3.3m-1.8 0 .5-.3m-.5 2.6v-2.3m-5.5 1.7-1.9-1.7m4.3 4.7-2.4-3m3.6 4.1-1.2-1.1m2-1-.8 2.1m.3.6.5-2.7m-.5 4.8v-2.1m-1.3 3.4 1.3-1.3m-.5 3.7-.8-2.4m1.3 4.2-.5-1.8m.5 3.5v-1.7m1.7 3.2-1.7-1.5m2.6.7-.9.8m.6-2 .3 1.2m-.6-2.4.3 1.2m.7-3-1 1.8m9.7-1.9-3.7-.6-2.6.5-2.4.2-1 1.8m1 1.4-1-1.4m1 3.6v-2.2m2.4 1.6-2.4.6m7.5 11.6h1.4m-.5-.9-.9.9m1.4-3.8-1.2-1.1m.7-.5-2.9-1.1m4 2.2-1.1-1.1m2.7 1.1h-1.6m3 1.8-1.4-1.8m2.7-15.8-.3-1.4m-1-4.8-.5.5m.8-1.9-.3 1.4m1.4-2.4-1.1 1m1.9-2.2-.8 1.2m-6.5-.5.2-.7m.8 1.2-1-.5m2.7 1.3-1.7-.8m2.5 1.9-.8-1.1m-1.8 10.6-.5.5m1.8-1h-.8m2.6-1.1-.7.6m1.9-.6h-1.2m-5.2 20.8.1.2m-.6-.7.5.5m.5-.5h-1m1.6-.5-.6.5m1-.5h-.4m2.1-2 .1.4m-.4-1.2.3.8m-.3-2.1v1.3m.7-1.3h-.7m1.7-.3-1 .3m2.2.8-1.2-1.1m.9-3.7v1.2m-.2.5h-1.1m1.8 1.5-.7-1.5m1.4 1.5h-.7m1.1-.7-.4.7m.2-1.7.2 1m-1-2.7.8 1.7m-7-5.1v-.5m-.5 1.6.4-.4m-1.4.4h1m-1.8.1-.3-1.4m.8 3.7-.5-2.3m.7 3.6-.2-1.3m.8 7.1-.6-5.8m.6 5.8.5 2.3m.3-1.6-.8-.7m1.5.7h-.7m.7-.9v.9m1.3-2.5-1.3 1.6m1.3-2.4v.8m-.6-2.1.6 1.3m-1.7-2.3 1.1 1m-1.9-1h.8m-1.7-.9.9.9m.1-2.2h-1.2m2.9.7-1.7-.7m3.7 1.6-2-.9m3.5.4-1.5.5m1.9-1.8-.4 1.3m-.6-2.2 1 .9m-1.4-2.4.4 1.5m-1.4-1.7 1 .2m-3.7-2.3h-.6m1.6 1-1-1m3 1.7-2-.7m2.9 1.5-.9-.8m2.4 2.7-1.5-1.9m2.4 1.7-.9.1m.8-.4.1.3m-.3-1.3.2 1m-.6-3.1.4 2.1m1.3 1.2 1.9 2.6m-2.7-4.4.8 1.8m-1.7-3.3.9 1.5m-2.3-3.8 1.4 2.3m-.7-5.2-.7 2.9m14-3.5-2.1 1m.4 2.8-1.6.5m2.5-1.4-.9.9m1.3-1.9-.4 1m1.9-1.2-1.5.2m2.3-1 .7.5m-2.5-1.7 1.8 1.2m-3.3-3.6 1.5 2.4m-10-.9-.2-.3m1.5.3h-1.3m2-.7-.7.7m2.3-1-1.6.3m0-1 1.3-.5m-2.9.5h1.6m-2.7.6 1.1-.6m-2 1.8.9-1.2m-2.8 2.6 1.9-1.3m-2.8-2.2-1.5 2.3m2.4-4.2-.9 1.9m1.5-4.3-.6 2.4m.6-1.1v-1.3m1.3 1.9-1.3-.6m3.9 1.7-2.6-1.1m-13.2 22.5-.3 2.4m-.5-3.7.8 1.3m-1.5-8.1.7 6.8m.8-7.9-1.5 1.1m2.8-2.7-1.3 1.6m3.3-2.1-2 .5m2.7-1.2-.7.7m2.1-2.1-1.4 1.4m3.3-2.9-1.9 1.5m2.7-4-.8 2.5m3.5-6.6-2.7 4.1m3.4-8.4-.7 4.3m1.7-1.9-1-2.4m1.7 2.4h-.7m3.1 1.2-2.4-1.2m6.1 2.9-3.7-1.7m7.4 1.2-3.7.5m4.9-2.5-1.2 2m3.2-2.4-2 .4m3.6-.7-1.6.3m1.5-6.2h.1m-5.9 32-.8-1.1m-48.9-30.1-2.1.8m3.4-.9 1.6.5m-2.2-1.2.6.7m.3-.7h0m.5.5-.5-.5m1.3 1.2-.8-.7m2.7 1.5-1.9-.8m-.5-1.2v.1m-5.2 2.7 3.3-1.6m37.6 30.8v-1.3m.9.4-.9.9m4-1.3 1.2 1.1m.6-.6.3.8m-1.5-1.9 1.2 1.1m-1.2-2.6v1.5m-1.9-2.7 1.9 1.2m-5.6 3.2v.2m2.1-1.8-.4-.1m1.3.4-.9-.3m2.3.3h-1.4m1.4-.6v.6m.3-1.5-.3.9m-.9-2.1 1.2 1.2m4-.9h-1.3m-.5.2v1m-1.7-1.6 1.7.6m-1.7-1.3v.7m.8-1.1-.8.4m1.9-.2-1.1-.2m3 1-1.9-.8m-4 4.8-.5.4m1.4-.4h-.9m1.8.4-.9-.4m3.1-1.2.8 1.6m-.2-3-.6 1.4m1.9-1.7-1.3.3m2.3.6-1-.9m2.6 1.3-1.6-.4m1.8 1.3-.2-.9m.7.6.5 1.4m-1.4-2.2.9.8m-2.9-2.2 2 1.4m-1.8-2.3-.2.9m.5-.8-.3-.1m1.4.3-1.1-.2m3.4.6-2.3-.4m-1.3-1.2-2.8-1.8m4.7 2.5-1.9-.7m3.6 1.6-1.7-.9m4.1 2.2-2.4-1.3m5.2.7-2.8.6m2.8-11.2-.1.1m-3-.3-.5 1.4m1.5-2.3-1 .9m2-1.2-1 .3m1.3-1.7-.3 1.4m1.1-2.2-.5-.6"></path><path fill="#f1f1f1" fill-rule="evenodd" stroke-miterlimit="22.9" d="M1118.4 403.7h35.1v-22.6h-35.1v22.6z"></path><path fill="#f1f1f1" fill-rule="evenodd" stroke-miterlimit="22.9" d="M1120.1 401.5h31.7v-18.9h-31.7v18.9z"></path><path d="M1135.6 394.3c-1.2 0-2.2 1.1-2.2 2.6 0 1.4 1 2.6 2.2 2.6 1.3 0 2.3-1.2 2.3-2.6 0-1.5-1-2.6-2.3-2.6Z" fill="none" stroke-miterlimit="10"></path><path fill="#f1f1f1" fill-rule="evenodd" stroke-miterlimit="22.9" d="M1134 408.4h3.3v-11.3h-3.3v11.3z"></path><path fill="#f1f1f1" fill-rule="evenodd" stroke-miterlimit="22.9" d="M1134.8 405.9h1.7v-6.4h-1.7v6.4z"></path><path fill="none" stroke-miterlimit="10" d="M1133.9 405.9h3.5"></path></g><g id="_2180319036512"><path fill="none" stroke="#f1f1f1" stroke-miterlimit="22.9" stroke-width="2.4" d="M1516.9 539.1H1654v85.6h-137.1v-85.6zm0 85.6 137.1-85.6m-137.1 0 137.1 85.6m-108.3 23.7H1654V731h-108.3v-82.6zm0 82.6 108.3-82.6m-108.3 0L1654 731m-108.3 24.2H1654v144h-108.3v-144zm0 144 108.3-144m-108.3 0 108.3 144m-415.3-361.5h77.9v92.6h-77.9v-92.6zm0 92.6 77.9-92.6m-77.9 0 77.9 92.6"></path></g><g id="_2180319042176" fill="#f1f1f1" fill-rule="evenodd"><path d="M1279.5 523.6v2.4h-34.9v-2.4h34.9z"></path><path d="M1302.5 521.7v2.3h-34.9v-2.3h34.9z"></path></g><g id="_2180319042320" fill="#f1f1f1" fill-rule="evenodd"><path d="M1667.1 590.8h-2.4v-34.9h2.4v34.9z"></path><path d="M1669.1 613.8h-2.4v-34.9h2.4v34.9z"></path></g><g id="_2180319042704" fill="#f1f1f1" fill-rule="evenodd"><path d="M1667.1 700.1h-2.4v-34.9h2.4v34.9z"></path><path d="M1669.1 723.2h-2.4v-34.9h2.4v34.9z"></path></g><g id="_2180319042032" fill="#f1f1f1" fill-rule="evenodd"><path d="M1667.1 839.2h-2.4v-34.9h2.4v34.9z"></path><path d="M1669.1 862.3h-2.4v-34.9h2.4v34.9z"></path></g><path fill="#f1f1f1" fill-rule="evenodd" d="M19.1 32.4h105.6V19.1H19.1v13.3zm113.5 0h32.6V19.1h-32.6v13.3zm40.4 0h23.3V19.1H173v13.3zm31.1 0H250V19.1h-45.9v13.3zm463.7 388.9h34.4v-12.6h-34.4v12.6zM882.5 57.2h59.1V19.1h-59.1v38.1zm310.1 351.5h11.7v-64h-11.7v64zm879.4-266h58.8v-11.9H2072v11.9zm-745.3 719.5h17.8V685.5h-17.8v176.7zm-5 65.3h29v-46.2h-29v46.2zm13.5-261.1h15.5V533.7h-15.5v132.7z"></path><path fill="#f1f1f1" fill-rule="evenodd" d="M1321.6 666.4h29.1v-16.6h-29.1v16.6zm13.6-112.5h23.3v-20.2h-23.3v20.2z"></path><g id="_2180319052016"><path d="M1158 224.8h23.4v26H1158c-6 0-11-5.8-11-12.8v-.4c0-7 5-12.8 11-12.8Z" fill="#f1f1f1" fill-rule="evenodd"></path><path fill="none" stroke="#f1f1f1" stroke-miterlimit="10" stroke-width=".3" d="M1157.9 224.8h23.5v26h-23.5"></path><path d="M1158 250.8c-6.2 0-11.1-5.8-11.1-12.8m0 0v-.4m0 0c0-7 5-12.8 11-12.8" fill="none" stroke="#f1f1f1" stroke-miterlimit="10" stroke-width=".3"></path><path d="M1157.7 224.3h15.4c1.7 0 3.2 1.7 3.2 3.7v19.4c0 2-1.5 3.7-3.2 3.7h-15.4c-6.3 0-11.4-6-11.4-13.2v-.4c0-7.3 5-13.2 11.4-13.2Z" fill="#f1f1f1" fill-rule="evenodd"></path><path fill="none" stroke="#f1f1f1" stroke-miterlimit="10" stroke-width=".3" d="M1157.7 224.3h15.4m-.1 0c1.8 0 3.3 1.7 3.3 3.7m0 0v19.4m0 0c0 2-1.5 3.7-3.2 3.7m0 0h-15.4m0-.1c-6.3 0-11.4-5.8-11.4-13.1m0 0v-.4m0 0c0-7.3 5-13.2 11.4-13.2"></path><path d="M1158 225.3h14.6c1.4 0 2.6 1.3 2.6 3v18.8c0 1.7-1.2 3-2.6 3h-14.7c-5.8 0-10.6-5.4-10.6-12.2v-.4c0-6.8 4.8-12.2 10.6-12.2Z" fill="#f1f1f1" fill-rule="evenodd"></path><path fill="none" stroke="#f1f1f1" stroke-miterlimit="10" stroke-width=".3" d="M1157.9 225.3h14.7m0 0c1.4 0 2.6 1.3 2.6 3m0 0v18.8m0-.1c0 1.8-1.2 3.1-2.6 3.1m0 0h-14.7m.1 0c-6 0-10.7-5.4-10.7-12.2m0 0v-.4m0 0c0-6.8 4.8-12.2 10.6-12.2"></path></g><path fill="none" stroke="#f1f1f1" stroke-linecap="round" stroke-linejoin="round" stroke-width=".3" d="m1172.1 277.8-2 .7m5.2-3.2-.9-.2m-1.2 5.9 1.4-2.3m3.1 16-.3-.9m.8 3.2 1.8-1.3m-8.9-6.8-2 .7m5.2-3.2-.9-.2m-1.2 5.9 1.4-2.3m17.3-3.7-.4-.9m.9 3.2 1.8-1.3m-9-6.8-2 .7m5.3-3.2-.9-.2m-1.2 5.9 1.4-2.3m14-1.8-.4-.9m.9 3.2 1.8-1.2m-9-6.9-2 .7m5.3-3.2-.9-.2m-1.2 5.9 1.4-2.3m-17.5-1.7.8-1.7m-2 1.8-.4-1.3m-.6 2.2 1-.9m-1.4 2.4.4-1.5m1.3-.6-1.5 1.9m1.7 1.7 1-1.5m6.2-2.3.8-1.7m-2 1.8-.4-1.3m-.6 2.2 1-.9m-1.4 2.4.4-1.5m1.3-.6-1.5 1.9m1.7 1.7 1-1.5m6.3 3.7.8-1.7m-2 1.8-.4-1.3m-.6 2.2 1-.9m-1.4 2.4.4-1.5m1.3-.6-1.5 1.9m1.7 1.7.9-1.5m-5.7 4.9.9-1.7m-2.1 1.7-.4-1.2m-.6 2.1 1-.9m-1.4 2.4.4-1.5m1.3-.5-1.5 1.8m1.7 1.7 1-1.5m-1.7 2.9h1.7m-2.8-.6 1.1.6m.6 1.6-2.5 1.1m6.1-2-3.7 1.7m7.4-1.2-3.7-.5m4.8 2.5-1.1-2m-1.9-3.4h1.6m-2.8-.6 1.2.6m.5 1.5-2.5 1.1m6.1-2-3.7 1.8m7.4-1.3-3.7-.5m4.8 2.6-1.1-2.1m-5.6-7.3h1.6m-2.7-.6 1.1.6m.6 1.5-2.5 1.1m6.1-2-3.7 1.8m7.4-1.3-3.7-.5m4.8 2.6-1.1-2.1m-7.3 12.2h1.6m-2.8.6 1.2-.6m.5-1.5-2.5-1.1m6.1 2-3.7-1.8m7.4 1.3-3.7.5m4.8-2.6-1.1 2.1"></path><g id="_2180319084032"><path d="M1158 349.3h23.4v26H1158c-6 0-11-5.7-11-12.8v-.4c0-7 5-12.8 11-12.8Z" fill="#f1f1f1" fill-rule="evenodd"></path><path fill="none" stroke="#f1f1f1" stroke-miterlimit="10" stroke-width=".3" d="M1157.9 349.3h23.5v26h-23.5"></path><path d="M1158 375.3c-6.2 0-11.1-5.7-11.1-12.8m0 0v-.4m0 0c0-7 5-12.8 11-12.8" fill="none" stroke="#f1f1f1" stroke-miterlimit="10" stroke-width=".3"></path><path d="M1157.7 348.9h15.4c1.7 0 3.2 1.6 3.2 3.7v19.3c0 2-1.5 3.7-3.2 3.7h-15.4c-6.3 0-11.4-5.9-11.4-13.1v-.5c0-7.2 5-13.1 11.4-13.1Z" fill="#f1f1f1" fill-rule="evenodd"></path><path fill="none" stroke="#f1f1f1" stroke-miterlimit="10" stroke-width=".3" d="M1157.7 348.9h15.4m-.1 0c1.8 0 3.3 1.6 3.3 3.7m0 0v19.3m0 .1c0 2-1.5 3.6-3.2 3.6m0 0h-15.4m0 0c-6.3 0-11.4-5.9-11.4-13.1m0 0v-.5m0 0c0-7.2 5-13.1 11.4-13.1"></path><path d="M1158 349.8h14.6c1.4 0 2.6 1.4 2.6 3v18.8c0 1.7-1.2 3.1-2.6 3.1h-14.7c-5.8 0-10.6-5.5-10.6-12.3v-.3c0-6.8 4.8-12.3 10.6-12.3Z" fill="#f1f1f1" fill-rule="evenodd"></path><path fill="none" stroke="#f1f1f1" stroke-miterlimit="10" stroke-width=".3" d="M1157.9 349.8h14.7m0 0c1.4 0 2.6 1.4 2.6 3m0 .1v18.7m0 0c0 1.7-1.2 3.1-2.6 3.1m0 0h-14.7m.1 0c-6 0-10.7-5.5-10.7-12.3m0 0v-.3m0-.1c0-6.7 4.8-12.2 10.6-12.2"></path></g><g id="_2180165289664"><path d="M1158 304.1h23.4v26H1158c-6 0-11-5.7-11-12.8v-.4c0-7 5-12.8 11-12.8Z" fill="#f1f1f1" fill-rule="evenodd"></path><path fill="none" stroke="#f1f1f1" stroke-miterlimit="10" stroke-width=".3" d="M1157.9 304.1h23.5v26h-23.5"></path><path d="M1158 330c-6.2 0-11.1-5.6-11.1-12.7m0 0v-.4m0 0c0-7 5-12.8 11-12.8" fill="none" stroke="#f1f1f1" stroke-miterlimit="10" stroke-width=".3"></path><path d="M1157.7 303.6h15.4c1.7 0 3.2 1.7 3.2 3.7v19.4c0 2-1.5 3.7-3.2 3.7h-15.4c-6.3 0-11.4-5.9-11.4-13.2v-.4c0-7.3 5-13.2 11.4-13.2Z" fill="#f1f1f1" fill-rule="evenodd"></path><path fill="none" stroke="#f1f1f1" stroke-miterlimit="10" stroke-width=".3" d="M1157.7 303.6h15.4m-.1 0c1.8 0 3.3 1.7 3.3 3.7m0 0v19.4m0 0c0 2-1.5 3.7-3.2 3.7m0 0h-15.4m0 0c-6.3 0-11.4-5.9-11.4-13.2m0 0v-.4m0 0c0-7.3 5-13.2 11.4-13.2"></path><path d="M1158 304.6h14.6c1.4 0 2.6 1.3 2.6 3v18.8c0 1.7-1.2 3-2.6 3h-14.7c-5.8 0-10.6-5.4-10.6-12.2v-.4c0-6.7 4.8-12.2 10.6-12.2Z" fill="#f1f1f1" fill-rule="evenodd"></path><path fill="none" stroke="#f1f1f1" stroke-miterlimit="10" stroke-width=".3" d="M1157.9 304.6h14.7m0 0c1.4 0 2.6 1.3 2.6 3m0 0v18.8m0 0c0 1.7-1.2 3-2.6 3m0 .1h-14.7m.1 0c-6 0-10.7-5.5-10.7-12.3m0 0v-.4m0 0c0-6.7 4.8-12.2 10.6-12.2"></path></g><path fill="#f1f1f1" fill-rule="evenodd" d="M1192.4 333.7h11.9v-64h-11.9v64zm134.3 453.5h17.8V610.5h-17.8v176.7zm-5 65.4h29v-46.3h-29v46.3zm-.1-261.2h29.1v-16.6h-29.1v16.6zm-129.2-332.6h11.9V186h-11.9v72.8z"></path><g id="_2180165299984" fill="#f1f1f1" fill-rule="evenodd"><path d="M3423.8 1039.3V905.9h2.7v133.4h-2.7zm-16.3-72.4v-61h2.7v61h-2.7zm-15.5-.8v-60.2h2.7v60.2h-2.7zm-14.8 1.3v-61.5h2.7v61.5h-2.7zm-15.2.4v-61.9h2.7v61.9h-2.7zm-15.5.5v-62.4h2.7v62.4h-2.7zm-14.5-1.7v-60.7h2.7v60.7h-2.7zm-14.5-.7v-60h2.8v60h-2.8zm-15 2.4v-62.4h2.7v62.4h-2.7zm-16.3-62.4h2.7v62.4h-2.7v-62.4z"></path><path d="M3272.9 968.3v-2.7h152.3v2.7h-152.3z"></path><path d="M3271.2 968.3v-62h2.7v62h-2.7z"></path><path d="m3271.6 936.5 13.6-29.8 2.5 1.1-13.6 29.8-2.5-1.1z"></path><path d="m3271.6 937.6 2.5-1.1 13.6 29.9-2.5 1.1-13.6-29.9z"></path><path d="M3272.9 938.4v-2.7h184.9v2.7h-184.9z"></path><path d="M3456.4 1010.3v-74.6h2.8v74.6h-2.8zm-47.1 29v-60.8h2.7v60.8h-2.7zm-15.5 0v-60.8h2.7v60.8h-2.7zm-14.8-60.8h2.7v60.8h-2.7v-60.8zm-15.1 61.3v-61h2.7v61h-2.7zm-15.6 0v-61h2.8v61h-2.8zm-14.5 0v-61h2.7v61h-2.7zm-14.4 0v-61h2.7v61h-2.7zm-15-61h2.7v61h-2.7v-61zm-16.4 61v-61h2.8v61h-2.8zm-15 1.3v-62h2.7v62h-2.7z"></path><path d="M3274.7 1011.3v-2.7h184.5v2.7h-184.5zm-2.2-30.3v-2.7h153.8v2.7h-153.8z"></path></g><path fill="#f1f1f1" fill-rule="evenodd" d="M3235.6 169.1h70.5v-38.3h-70.5v38.3z"></path><path fill="none" stroke="#f1f1f1" stroke-linecap="round" stroke-linejoin="round" stroke-width=".3" d="m2762.9 635.4-2.6 2.4.8 3.6-4.1 2.5m17.8-2 3.8-2.4-7.3.6-1.5 2.3 3.1 2 4.1.9 1.6-.9-2.2-.9-2-1.2 2-2.7 1.3-1.8-1.6-1.3-1-1-.1-.1m-.9 0-.3 1.3-1.4.3-2.6.7-1.3 1.8-1.3 1.8-3.7 2.6-5.8 1.4"></path><path fill="#f1f1f1" fill-rule="evenodd" d="M1321.6 753.1h29.1v-16.7h-29.1v16.7z"></path><path fill="#f1f1f1" d="M1101.8 186h79.5v222.6h-79.5z"></path><path d="M3501.7 111.7V1058H1772.8v-52.1h-403v12.4h-19v-71.7H0V0h1765.3v111.7h1736.4ZM2315.5 324.5h22.3v7.8h-70.7v193h422.7v-41.7h15.4v34h138.4v-120h-25.8v-11.1h69v11.1h-24.1V522h24v11.1h-24v25.4h-7.8V533h-697.6v-15.4h15.1v-34h7.8V514h79v-89h-79v14.3h-7.8v-37.9h7.8v15.9h79v-85h-79v24.4h-7.8v-24.5H2072v175h40.6V533H2035v-15.4h18v-253h-17.5v-7.8h17.5v-126h-287.7V233h213.2v24h12.4v7.8h-12.4v69.8h-7.8v-93.7h-205.4V388h205.4v-8.3h7.8v55h-7.8v-39h-205.4v118.4h131v3.6h74.4v-38.2h7.8v38.2h11.7V533h-130.4v33.5h-7.8V533h-105.8V427.7h-179.7v-83h7.8v64h171.9v-190h-171.9v81.4h-7.8V145.5h7.8V211h171.9V19.1h-171.9V101h-7.8V19h-351v389.7h100.7v-7.3h58.4v7.3h146.9v7.8h-147v11.2H1077v-19h24.9v-19.4h11.2v19.4h68.3v-64H1113v6.1h-11.2v-22.6h11.2v5.2h68V270h-68v19.4h-11.2V251h11.2v7.8h68V186h-68v27.2h-11.2V186h-75v230.5h5.7v11.2h-78.9v-11.2h61.8V186h-72.2v-50.6h11.3v39.4h249.8v-51.2h-7.8V19.1H953v69.5h-11.3V65h-67V19H667.9v382h45.7v16.8H909v11.3H667.8v3.6H543.5v12h-19v-31h124.2V19H257.8v69.6H250V40.2H19V201h231v-67.4h7.8v78.7H19.1v148.6h231V256.1h7.7v112.5H19.1v135h218.8v-90.3h19v90.2h295.2v19h-49.4v197.7H536v7.8H367.6v-7.8H495V522.6H257v197.6h66.2v7.8H196.3v-7.8h52.9V603h-11.3v-80.4H19.1v197.6h132.8v7.8H19.1v199.5h469.8v-26.4h69.9v26.4h52V823.7h1.7V678.1h-1.7V522.6h-13.1v-19h69v19h-36.9V678h-9.5v145.6h9.5v103.8h168.7V533.1H738v-10h-26.3v-7.7H738v-1.3h376v55.1h-7.8v-36h-104.1v137h36v7.9h-55V533H817.4v86.4h121v11.3h-121v106.7h176.9v-14.8h7.8v56h-7.8v-30H817.5v178.8h165.6v-104h55.1v7.8h-36v96.2h300.4V649.7h-81V529.5H1159v-11.3h86.2v11.3h-12.5v109h91v-109h-26.5v-11.3h375.2v37.7h-11.3v-22.2h-151v97.5h151v-17.4h11.3v52.7h-11.3v-24h-123v95.1h123v-18.8h11.3v85.5h-11.3V749h-123v156.7h123v-48.5h11.3V917H1527V642.4h-73.2V917h-19V642.4h-64.9v344.4h64.9v-25.1h19v25.1h73.2v-25.1h19v25.1h227V633.3h79.1v-21.9h7.8v21.9h995v-29.8h7.9v29.8h24.4V765h-19V648.8h-106.7v274.6h106.7V823.3h19v215.6h246.1v-21.5h30v21.5h319.5V907.6h-254.1V787.4h7.8v108.9h246.3V633.5h-235.4v100.9h36.2v7.8h-95.8v-7.8h40.6V527.2h-40.6v-7.8h40.9v-87.6h7.8v87.6h11v95h235.3V376h-246.3v11.7h-7.8v-37.1h7.8v17.6h246.3V130.8H3314v46.1h-77.5v129.2h-7.8V130.8h-366v166h26v11h-70.8v-11h25.8v-166h-528.1v193.7Zm-1123-54.5v63.4h11.8V270h-11.9Zm129.2 379.7v16.7h29V554h7.8v-20.2h-23.3v116h-13.5ZM2868 931.2h-114.5V648.8h-306v3.5h-239.4v-3.5h-57.8v323.4H2135v-5h-207.2v-15.6H2135V648.8h-237.8v3.5H1792V903h86.8v48.6h4V967h-19.4v-48.6H1792V1039h343v-21.7h15.5v21.7h170V933.8h15.6v105.1h532V931.2ZM1326.7 685.5v176.7h17.8V685.5h-17.8Zm-830 242H551V909h-54.3v18.6ZM250 32.5V19h-45.9v13.3h46Zm-53.7 0V19H173v13.3h23.3Zm-31 0V19h-32.7v13.3h32.6Zm-40.5 0V19H19.1v13.3h105.7Zm577.4 388.8v-12.6h-34.4v12.6h34.4Zm490.2-162.5h12V186h-12v72.8Zm-310-201.6h59.2V19h-59.1v38Zm1352 109v-35.4h-95.8v19.7H2072v174h224.4V174h-62v-7.8Zm7.8-35.4v35.4h54.2v-35.4h-54.2Zm-111.4 12v-12H2072v12h58.8Zm-26 382.6V515H2072v10.3h32.8ZM3141 1025.2v13.7h14.4v-13.7H3141Zm165.1-856v-38.4h-69.7V169h69.7ZM1499 533.6h-129.2v97.5H1499v-97.5ZM2975 660V470.2h-19V660h19ZM1350.7 881.3h-29v46.2h29v-46.2Zm-158.1-472.6h11.7v-64h-11.7v64Z" fill="#f1f1f1" fill-rule="evenodd"></path><g id="_2180165313232"><path fill="#f1f1f1" fill-rule="evenodd" d="M2868.1 825.1h62.2v-2.3h-62.2v2.3z"></path><path d="M2930.3 825.1a62 62 0 0 0-62-61" fill="none" stroke="#f1f1f1" stroke-miterlimit="22.9" stroke-width=".8"></path></g><g id="_2180165313760"><path fill="#f1f1f1" fill-rule="evenodd" d="M3188.8 788.4h47.6v-1.8h-47.6v1.8z"></path><path d="M3188.8 788.4a47.4 47.4 0 0 1 47.4-46.7" fill="none" stroke="#f1f1f1" stroke-miterlimit="22.9" stroke-width=".8"></path></g><g id="_2180165313856"><path fill="#f1f1f1" fill-rule="evenodd" d="M3188.8 433.3h47.6v-1.8h-47.6v1.8z"></path><path d="M3188.8 433.3a47.4 47.4 0 0 1 47.4-46.6" fill="none" stroke="#f1f1f1" stroke-miterlimit="22.9" stroke-width=".8"></path></g><g id="_2180165316112"><path fill="#f1f1f1" fill-rule="evenodd" d="M2814.4 559h47.6v-1.8h-47.6v1.8z"></path><path d="M2814.4 557.2a47.4 47.4 0 0 0 47.4 46.7" fill="none" stroke="#f1f1f1" stroke-miterlimit="22.9" stroke-width=".8"></path></g><g id="_2180165318560"><path fill="#f1f1f1" fill-rule="evenodd" d="M1852.7 566.4h47.6v-1.7h-47.6v1.7z"></path><path d="M1900.3 564.7a47.4 47.4 0 0 1-47.4 46.6" fill="none" stroke="#f1f1f1" stroke-miterlimit="22.9" stroke-width=".8"></path></g><g id="_2180165318416"><path fill="#f1f1f1" fill-rule="evenodd" d="M2036 533.1v-47.5h-1.8v47.5h1.8z"></path><path d="M2036 485.6a47.4 47.4 0 0 0-46.7 47.4" fill="none" stroke="#f1f1f1" stroke-miterlimit="22.9" stroke-width=".8"></path></g><g id="_2180165320528"><path fill="#f1f1f1" fill-rule="evenodd" d="M2111.7 533.1v-47.5h1.8v47.5h-1.8z"></path><path d="M2111.7 485.6a47.4 47.4 0 0 1 46.6 47.4" fill="none" stroke="#f1f1f1" stroke-miterlimit="22.9" stroke-width=".8"></path></g><g id="_2180165321632"><path fill="#f1f1f1" fill-rule="evenodd" d="M2172.4 484.6h47.6v-1.7h-47.6v1.7z"></path><path d="M2220 484.6a47.4 47.4 0 0 0-47.4-46.6" fill="none" stroke="#f1f1f1" stroke-miterlimit="22.9" stroke-width=".8"></path></g><g id="_2180165319472"><path fill="#f1f1f1" fill-rule="evenodd" d="M2172.4 357.6h47.6v-1.8h-47.6v1.8z"></path><path d="M2220 355.8a47.4 47.4 0 0 1-47.4 46.7" fill="none" stroke="#f1f1f1" stroke-miterlimit="22.9" stroke-width=".8"></path></g><g id="_2180165323792"><path fill="#f1f1f1" fill-rule="evenodd" d="M3188.8 306.3h47.6v-1.8h-47.6v1.8z"></path><path d="M3188.8 304.5a47.4 47.4 0 0 0 47.4 46.6" fill="none" stroke="#f1f1f1" stroke-miterlimit="22.9" stroke-width=".8"></path></g><g id="_2180165323936"><path fill="#f1f1f1" fill-rule="evenodd" d="M1567.6 409.4v47.5h-1.7v-47.5h1.7z"></path><path d="M1567.6 457a47.4 47.4 0 0 1-46.6-47.5" fill="none" stroke="#f1f1f1" stroke-miterlimit="22.9" stroke-width=".8"></path></g><g id="_2180165324032"><path fill="#f1f1f1" fill-rule="evenodd" d="M1574.3 298.9h-47.5v1.7h47.5v-1.7z"></path><path d="M1526.8 298.9a47.4 47.4 0 0 0 47.4 46.6" fill="none" stroke="#f1f1f1" stroke-miterlimit="22.9" stroke-width=".8"></path></g><g id="_2180165324608"><path fill="#f1f1f1" fill-rule="evenodd" d="M1574.3 146.7h-47.5v-1.8h47.5v1.8z"></path><path d="M1526.8 146.7a47.4 47.4 0 0 1 47.4-46.7" fill="none" stroke="#f1f1f1" stroke-miterlimit="22.9" stroke-width=".8"></path></g><g id="_2180165325136"><path fill="#f1f1f1" fill-rule="evenodd" d="M954.1 416.5v47.6h-1.8v-47.6h1.8z"></path><path d="M954 464.1a47.4 47.4 0 0 1-46.6-47.4" fill="none" stroke="#f1f1f1" stroke-miterlimit="22.9" stroke-width=".8"></path></g><g id="_2180165327008"><path fill="#f1f1f1" fill-rule="evenodd" d="M1031 416.5v47.6h1.8v-47.6h-1.8z"></path><path d="M1031 464.1a47.4 47.4 0 0 0 46.6-47.4" fill="none" stroke="#f1f1f1" stroke-miterlimit="22.9" stroke-width=".8"></path></g><g id="_2180165325856"><path fill="#f1f1f1" fill-rule="evenodd" d="M543.5 444.7h-59.9v2.3h59.9v-2.3z"></path><path d="M483.6 444.7c.6 32.6 27 58.7 59.7 58.7" fill="none" stroke="#f1f1f1" stroke-miterlimit="22.9" stroke-width=".8"></path></g><g id="_2180165328688"><path fill="#f1f1f1" fill-rule="evenodd" d="M598.8 514.8v47.5H597v-47.5h1.8z"></path><path d="M598.8 562.3A47.4 47.4 0 0 1 552 515" fill="none" stroke="#f1f1f1" stroke-miterlimit="22.9" stroke-width=".8"></path></g><g id="_2180165331088"><path fill="#f1f1f1" fill-rule="evenodd" d="M665.8 514.8v47.5h1.7v-47.5h-1.7z"></path><path d="M665.8 562.3a47.4 47.4 0 0 0 46.6-47.3" fill="none" stroke="#f1f1f1" stroke-miterlimit="22.9" stroke-width=".8"></path></g><g id="_2180165330320"><path fill="#f1f1f1" fill-rule="evenodd" d="M1114.1 518.4v47.5h1.7v-47.5h-1.7z"></path><path d="M1114 566a47.4 47.4 0 0 0 46.7-47.4" fill="none" stroke="#f1f1f1" stroke-miterlimit="22.9" stroke-width=".8"></path></g><g id="_2180165333440"><path fill="#f1f1f1" fill-rule="evenodd" d="M994.4 722.7h47.5V721h-47.5v1.7z"></path><path d="M1042 722.7a47.4 47.4 0 0 0-47.4-46.6" fill="none" stroke="#f1f1f1" stroke-miterlimit="22.9" stroke-width=".8"></path></g><g id="_2180165333680"><path fill="#f1f1f1" fill-rule="evenodd" d="M994.4 777h47.5v1.8h-47.5V777z"></path><path d="M1042 777a47.4 47.4 0 0 1-47.4 46.6" fill="none" stroke="#f1f1f1" stroke-miterlimit="22.9" stroke-width=".8"></path></g><g id="_2180165333104"><path fill="#f1f1f1" fill-rule="evenodd" d="M937.5 619.5v47.6h1.8v-47.6h-1.8z"></path><path d="M937.5 667.1a47.4 47.4 0 0 0 46.7-47.4" fill="none" stroke="#f1f1f1" stroke-miterlimit="22.9" stroke-width=".8"></path></g><g id="_2180165335312"><path fill="#f1f1f1" fill-rule="evenodd" d="M198.6 720.2v47.6h-1.8v-47.6h1.8z"></path><path d="M198.6 767.8a47.4 47.4 0 0 1-46.7-47.4" fill="none" stroke="#f1f1f1" stroke-miterlimit="22.9" stroke-width=".8"></path></g><g id="_2180165336512"><path fill="#f1f1f1" fill-rule="evenodd" d="M321.4 720.2v47.6h1.8v-47.6h-1.8z"></path><path d="M321.4 767.8a47.4 47.4 0 0 0 46.6-47.4" fill="none" stroke="#f1f1f1" stroke-miterlimit="22.9" stroke-width=".8"></path></g><g id="_2180165334400"><path fill="#f1f1f1" fill-rule="evenodd" d="M251.4 415.3H299v-1.7h-47.6v1.7z"></path><path d="M299 415.3a47.4 47.4 0 0 0-47.4-46.6" fill="none" stroke="#f1f1f1" stroke-miterlimit="22.9" stroke-width=".8"></path></g><g id="_2180165339392"><path fill="#f1f1f1" fill-rule="evenodd" d="M251.4 257.9H299v-1.7h-47.6v1.7z"></path><path d="M299 258a47.4 47.4 0 0 0-47.4-46.7" fill="none" stroke="#f1f1f1" stroke-miterlimit="22.9" stroke-width=".8"></path></g><g id="_2180165339776"><path fill="#f1f1f1" fill-rule="evenodd" d="M251.4 134.7H299v-1.8h-47.6v1.8z"></path><path d="M299 134.7A47.4 47.4 0 0 0 251.6 88" fill="none" stroke="#f1f1f1" stroke-miterlimit="22.9" stroke-width=".8"></path></g><g id="_2180165338528" stroke="#f1f1f1" stroke-miterlimit="22.9"><g><path fill="#f1f1f1" fill-rule="evenodd" stroke-width=".3" d="M3230.3 433h3.9v86.1h-3.9V433z"></path><path fill="none" stroke-width="2.4" d="M3230.3 476.7h3.9"></path></g><g><path fill="#f1f1f1" fill-rule="evenodd" stroke-width=".3" d="M3230.3 788.1h3.9V896h-3.9V788.1z"></path><path fill="none" stroke-width="2.4" d="M3230.3 843.4h3.9"></path></g><g><path fill="#f1f1f1" fill-rule="evenodd" stroke-width=".3" d="M3230.3 176.6h3.9v127.6h-3.9V176.6z"></path><path fill="none" stroke-width="2.4" d="M3230.3 264.6h3.9m-3.9-48.9h3.9"></path></g></g><g id="_2180165342992"><path fill="#f1f1f1" fill-rule="evenodd" d="M1112.7 390h-40.6v-1.5h40.6v1.5z"></path><path d="M1072.1 390a40.5 40.5 0 0 1 40.5-39.8" fill="none" stroke="#f1f1f1" stroke-miterlimit="22.9" stroke-width=".8"></path></g><g id="_2180165340688"><path fill="#f1f1f1" fill-rule="evenodd" d="M1112.7 328.3h-40.6v-1.5h40.6v1.5z"></path><path d="M1072.1 328.3c.4-22 18.4-39.8 40.5-39.8" fill="none" stroke="#f1f1f1" stroke-miterlimit="22.9" stroke-width=".8"></path></g><g id="_2180165345488"><path fill="#f1f1f1" fill-rule="evenodd" d="M1112.7 251.9h-40.6v-1.5h40.6v1.5z"></path><path d="M1072.1 252a40.6 40.6 0 0 1 40.5-39.9" fill="none" stroke="#f1f1f1" stroke-miterlimit="22.9" stroke-width=".8"></path></g><path fill="#f1f1f1" fill-rule="evenodd" d="M2242.2 166.2h54.2v-35.4h-54.2v35.4z"></path><g id="_2180165343616"><path fill="#f1f1f1" fill-rule="evenodd" d="M2134.9 1017.2h47.6v-1.8h-47.6v1.8z"></path><path d="M2182.5 1017.2a47.4 47.4 0 0 0-47.4-46.6" fill="none" stroke="#f1f1f1" stroke-miterlimit="22.9" stroke-width=".8"></path></g><g id="_2180165347840"><path fill="#f1f1f1" fill-rule="evenodd" d="M1882 951.3v47.6h1.8v-47.6h-1.8z"></path><path d="M1882 999a47.4 47.4 0 0 0 46.7-47.5" fill="none" stroke="#f1f1f1" stroke-miterlimit="22.9" stroke-width=".8"></path></g><g id="_2180165347024"><path fill="#f1f1f1" fill-rule="evenodd" d="M1526.7 963.1h47.6v-1.7h-47.6v1.7z"></path><path d="M1574.3 963.1a47.4 47.4 0 0 0-47.4-46.6" fill="none" stroke="#f1f1f1" stroke-miterlimit="22.9" stroke-width=".8"></path></g><g id="_2180165347312"><path fill="#f1f1f1" fill-rule="evenodd" d="M1434.9 963.1h47.6v-1.7h-47.6v1.7z"></path><path d="M1482.5 963.1a47.4 47.4 0 0 0-47.5-46.6" fill="none" stroke="#f1f1f1" stroke-miterlimit="22.9" stroke-width=".8"></path></g><path fill="#f1f1f1" d="M496.7 908.9H551v18.7h-54.3zM3141 1025.2h14.4v13.7H3141z"></path><path d="m817.5 883 9.8-4.9v9.8l-9.8-4.9Zm475.8.8H826.8v-1.6h466.5v1.6Zm9.3-.8-9.8 5v-10l9.8 5Z" fill="#f1f1f1"></path><g><path d="M1030.5 863c1 .4 1.7 1 2.3 2s.8 1.7.8 2.8c0 1.8-.6 3.2-1.9 4.3-1.3 1-3 1.5-5 1.5s-3.6-.5-4.9-1.5-1.9-2.5-1.9-4.3c0-1 .3-2 .8-2.9.6-.8 1.4-1.5 2.3-2a4.9 4.9 0 0 1-2.4-4.4 5 5 0 0 1 1.8-4.1c1.2-1 2.7-1.5 4.3-1.5 1.8 0 3.2.5 4.4 1.5a5 5 0 0 1 1.9 4.1c0 2-.9 3.4-2.5 4.4Zm-3.8 8.1c1.3 0 2.4-.3 3.1-.9a3 3 0 0 0 1.2-2.6 3 3 0 0 0-1.2-2.5c-.7-.6-1.8-1-3-1a5 5 0 0 0-3.1 1 3 3 0 0 0-1.2 2.5c0 1.1.4 2 1.2 2.6.8.6 1.8.9 3 .9Zm0-15.7a4 4 0 0 0-2.5.8c-.7.6-1 1.4-1 2.4s.3 1.8 1 2.4c.7.5 1.6.8 2.5.8s1.9-.3 2.6-.8c.7-.6 1-1.4 1-2.4s-.3-1.8-1-2.4a4 4 0 0 0-2.6-.8Zm29.8 15.4a6.6 6.6 0 0 1-5.6 2.8c-2.5 0-4.4-.9-5.7-2.8s-2-4.4-2-7.5c0-3.2.6-5.7 2-7.6a6.6 6.6 0 0 1 5.7-2.8c2.4 0 4.3 1 5.6 2.8 1.4 1.9 2 4.4 2 7.6 0 3.1-.6 5.6-2 7.5Zm-9.4-1.8c.9 1.4 2.1 2 3.8 2s2.8-.6 3.7-2c.9-1.3 1.3-3.3 1.3-5.7s-.4-4.4-1.3-5.8c-.9-1.4-2.1-2-3.7-2s-3 .6-3.8 2-1.3 3.3-1.3 5.8c0 2.4.4 4.4 1.3 5.7Zm24.4-6c1 .4 1.8 1 2.3 2a5.7 5.7 0 0 1-1.1 7.1 7.8 7.8 0 0 1-5 1.5c-2 0-3.6-.5-4.8-1.5s-2-2.5-2-4.3c0-1 .3-2 .9-2.9.5-.8 1.3-1.5 2.3-2a4.9 4.9 0 0 1-2.5-4.4 5 5 0 0 1 1.8-4.1c1.2-1 2.7-1.5 4.4-1.5 1.7 0 3.2.5 4.4 1.5a5 5 0 0 1 1.8 4.1c0 2-.8 3.4-2.5 4.4Zm-3.7 8.1c1.3 0 2.3-.3 3-.9a3 3 0 0 0 1.2-2.6 3 3 0 0 0-1.1-2.5c-.8-.6-1.8-1-3.1-1s-2.3.4-3 1a3 3 0 0 0-1.2 2.5c0 1.1.4 2 1.1 2.6.8.6 1.8.9 3 .9Zm0-15.7a4 4 0 0 0-2.6.8c-.6.6-1 1.4-1 2.4s.4 1.8 1 2.4a4.5 4.5 0 0 0 5.1 0c.7-.6 1-1.4 1-2.4s-.3-1.8-1-2.4a4 4 0 0 0-2.5-.8Zm22.6 15.4a6.6 6.6 0 0 1-5.7 2.8c-2.4 0-4.3-.9-5.7-2.8s-2-4.4-2-7.5c0-3.2.7-5.7 2-7.6a6.6 6.6 0 0 1 5.7-2.8c2.5 0 4.4 1 5.7 2.8 1.4 1.9 2 4.4 2 7.6 0 3.1-.6 5.6-2 7.5Zm-9.4-1.8c.9 1.4 2.1 2 3.7 2s3-.6 3.8-2c.9-1.3 1.3-3.3 1.3-5.7s-.4-4.4-1.3-5.8c-.9-1.4-2.1-2-3.8-2s-2.8.6-3.7 2-1.3 3.3-1.3 5.8c0 2.4.4 4.4 1.3 5.7Z" fill="#f1f1f1"></path></g><g><path d="M1158.8 762a7 7 0 0 1 1.9-5 6.6 6.6 0 0 1 4.8-1.9 6.6 6.6 0 0 1 6.8 6.9c0 2-.7 3.7-2 5a6.5 6.5 0 0 1-4.8 1.9c-1.5 0-2.9-.4-4-1.2l-9.6-6.4v-3l7 4.6v-.9Zm9.8 3c.7-.7 1.1-1.7 1.1-3s-.4-2.3-1.1-3c-.8-.9-1.8-1.3-3-1.3s-2.3.4-3.1 1.2-1.1 1.8-1.1 3.1.3 2.3 1 3c.9.9 1.9 1.3 3.1 1.3s2.3-.4 3-1.2Zm-8.9-25.6c0-1.8.5-3.4 1.7-4.7s2.6-2 4.6-2c2 0 3.5.7 4.6 2 1.1 1.3 1.7 3 1.7 4.9 0 1.5-.4 2.8-1.1 4-.8 1.2-1.8 2-3.2 2.6l-1.3-2.3a4 4 0 0 0 2.2-1.5 5 5 0 0 0 .8-2.8 5 5 0 0 0-1-3.1 3.3 3.3 0 0 0-2.7-1.2c-1.2 0-2 .4-2.7 1.2-.7.8-1 1.8-1 3v5.7l-10.4-.8v-11h2.5v8.6l5.3.4v-3Zm.3-16.5c.4-1.5 1-2.8 2-3.8s2.4-1.4 4-1.4c2 0 3.5.7 4.6 2 1.1 1.3 1.7 3 1.7 4.8 0 1.6-.4 3-1 4.1s-1.8 2-3 2.5l-1.4-2.2c1.8-.6 2.8-2 2.8-4.4a5 5 0 0 0-1-3 3.3 3.3 0 0 0-2.7-1.2c-1.2 0-2 .4-2.7 1.2-.7.8-1 1.8-1 3v.7l-1.7 1-6.2-4.5v8.9h-2.5v-12h2.3l5.9 4.3Zm9.4-20.9a6.6 6.6 0 0 1 2.9 5.6c0 2.5-1 4.4-2.9 5.7s-4.4 2-7.5 2c-3.2 0-5.7-.6-7.6-2a6.6 6.6 0 0 1-2.8-5.7 7 7 0 0 1 2.8-5.7c2-1.3 4.4-2 7.6-2 3.1 0 5.7.7 7.5 2Zm-1.8 9.4c1.4-1 2-2.2 2-3.8s-.6-2.9-2-3.7c-1.3-1-3.2-1.4-5.7-1.4s-4.4.5-5.8 1.4c-1.3.8-2 2.1-2 3.7s.7 2.9 2 3.8 3.3 1.3 5.8 1.3 4.4-.5 5.7-1.3Z" fill="#f1f1f1"></path></g><path d="m1182.6 927.5-5-9.8h9.9l-5 9.8Zm.8-388.8v379.5h-1.6V538.7h1.6Zm-.8-9.2 4.9 9.8h-9.8l4.9-9.8ZM667.8 116.1l9.8-4.9v9.8l-9.8-4.9Zm519.4.8H677.1v-1.5h510.1v1.5Zm9.3-.8-9.8 5v-9.9l9.8 5Z" fill="#f1f1f1"></path><g><path d="M990.5 95.7c0 1.6-.4 3-1.2 4l-6.4 9.7h-3l4.7-7h-1c-2 0-3.6-.6-5-1.8s-1.9-2.9-1.9-4.9.7-3.5 2-4.8 3-1.9 5-1.9 3.6.7 4.9 1.9c1.3 1.3 2 2.9 2 4.8Zm-10-3a4 4 0 0 0-1.1 3c0 1.3.4 2.3 1.2 3s1.8 1.3 3 1.3a4 4 0 0 0 4.3-4.2 4 4 0 0 0-1.2-3 4.2 4.2 0 0 0-3-1.2c-1.3 0-2.3.4-3.1 1.1Zm32.5 3c0 1.6-.4 3-1.2 4l-6.4 9.7h-3l4.7-7h-1a6.5 6.5 0 0 1-6.9-6.7c0-2 .7-3.5 2-4.8s3-1.9 5-1.9 3.6.7 5 1.9a6.9 6.9 0 0 1 1.9 4.8Zm-10-3a4 4 0 0 0-1 3c0 1.3.3 2.3 1 3s2 1.3 3.2 1.3a4 4 0 0 0 4.3-4.2 4 4 0 0 0-1.2-3 4.2 4.2 0 0 0-3.1-1.2c-1.3 0-2.3.4-3.1 1.1Zm16.5-3.3h2.3v20h-2.6V92.3l-4.3 1.2-.6-2.3 5.2-1.8Zm19.2 17.6a6.6 6.6 0 0 1-5.7 2.8c-2.4 0-4.3-1-5.6-2.8-1.4-2-2-4.4-2-7.6s.6-5.7 2-7.5a6.6 6.6 0 0 1 5.6-2.9c2.5 0 4.4 1 5.7 2.9 1.4 1.8 2 4.4 2 7.5s-.6 5.7-2 7.6Zm-9.4-1.8c.9 1.3 2.1 2 3.7 2s3-.7 3.8-2c.9-1.4 1.3-3.3 1.3-5.8s-.4-4.4-1.3-5.8c-.9-1.3-2.1-2-3.8-2s-2.8.7-3.7 2-1.3 3.3-1.3 5.8.4 4.4 1.3 5.8Z" fill="#f1f1f1"></path></g><g><path d="M730.1 276a7 7 0 0 1 1.9-5 6.7 6.7 0 0 1 4.8-1.9 6.6 6.6 0 0 1 6.8 6.9c0 2-.6 3.7-1.9 5a6.5 6.5 0 0 1-4.9 1.9 7 7 0 0 1-4-1.2l-9.6-6.4v-3l7 4.6v-.9Zm9.8 3c.8-.7 1.1-1.7 1.1-3s-.3-2.3-1.1-3a4 4 0 0 0-3-1.3 4 4 0 0 0-3 1.2c-.8.8-1.2 1.8-1.2 3.1s.4 2.3 1.1 3a4 4 0 0 0 3 1.3 4 4 0 0 0 3-1.2Zm-8.5-26.9c.3-1.5 1-2.7 2-3.7s2.3-1.5 3.9-1.5c2 0 3.5.7 4.6 2 1.1 1.4 1.7 3 1.7 4.9 0 1.5-.4 2.9-1 4-.7 1.2-1.8 2-3 2.6l-1.4-2.3c1.9-.6 2.8-2 2.8-4.3 0-1.3-.3-2.3-1-3a3.3 3.3 0 0 0-2.7-1.2c-1.2 0-2 .4-2.7 1.2-.7.7-1 1.7-1 3v.7l-1.6 1-6.3-4.6v8.9h-2.5v-12h2.4l5.8 4.3Zm-.4-13.8c0-1.9.6-3.5 1.7-4.8 1.1-1.3 2.6-2 4.6-2 2 0 3.5.7 4.6 2a8 8 0 0 1 .6 9c-.7 1.2-1.8 2-3.2 2.5l-1.3-2.2c1-.3 1.7-.8 2.2-1.6a5 5 0 0 0 .8-2.8c0-1.3-.3-2.3-1-3a3.3 3.3 0 0 0-2.7-1.2c-1.2 0-2 .4-2.7 1.1-.7.8-1 1.8-1 3v5.7l-10.4-.7v-11h2.5v8.6l5.3.3v-3Zm9.8-22.3a6.6 6.6 0 0 1 2.8 5.7c0 2.5-1 4.4-2.8 5.7-2 1.4-4.4 2-7.6 2s-5.6-.6-7.5-2a6.6 6.6 0 0 1-2.9-5.7c0-2.4 1-4.3 2.9-5.7 1.9-1.3 4.4-2 7.5-2s5.7.7 7.6 2Zm-1.8 9.5c1.3-.9 2-2.1 2-3.8 0-1.6-.7-2.8-2-3.7-1.4-1-3.3-1.4-5.8-1.4s-4.4.5-5.7 1.4-2 2.1-2 3.7c0 1.7.6 3 2 3.8 1.3.9 3.2 1.3 5.7 1.3s4.4-.4 5.8-1.3Z" fill="#f1f1f1"></path></g><path d="m700.6 401-4.9-9.9h9.8l-4.9 9.8Zm.8-372.6v363.2h-1.6V28.4h1.6Zm-.8-9.3 4.9 9.8h-9.8l4.9-9.8Zm515 97 9.8-4.9v9.8l-9.8-4.9Zm522 .8h-512.7v-1.5h512.6v1.5Zm9.2-.8-9.8 5v-9.9l9.8 5Z" fill="#f1f1f1"></path><g><path d="M1430.6 99c1 .6 1.7 1.2 2.3 2 .5 1 .8 1.9.8 3 0 1.8-.6 3.2-2 4.2a7.4 7.4 0 0 1-4.9 1.6c-2 0-3.6-.5-4.9-1.6-1.3-1-1.9-2.4-1.9-4.3 0-1 .3-2 .8-2.8.6-.9 1.3-1.5 2.3-2a4.9 4.9 0 0 1-2.4-4.4 5 5 0 0 1 1.8-4.2c1.2-1 2.6-1.5 4.3-1.5 1.8 0 3.2.5 4.4 1.5a5 5 0 0 1 1.8 4.2 5 5 0 0 1-2.4 4.4Zm-3.8 8.2a5 5 0 0 0 3.1-.9 3 3 0 0 0 1.2-2.5 3 3 0 0 0-1.2-2.6 5 5 0 0 0-3-1 5 5 0 0 0-3.1 1 3 3 0 0 0-1.2 2.6c0 1 .4 2 1.2 2.5a5 5 0 0 0 3 1Zm0-15.6a4 4 0 0 0-2.5.8c-.7.5-1 1.3-1 2.3a3 3 0 0 0 1 2.4c.7.6 1.5.8 2.5.8s1.9-.2 2.6-.8c.6-.6 1-1.3 1-2.4a3 3 0 0 0-1-2.3 4 4 0 0 0-2.6-.8Zm22.8 4.7c2 0 3.7.6 5 1.9 1.3 1.2 2 2.9 2 4.8 0 2-.7 3.6-2 4.9a6.8 6.8 0 0 1-5 1.9c-2 0-3.7-.6-5-1.9a6.5 6.5 0 0 1-1.9-4.9 7 7 0 0 1 1.2-4l6.5-9.6h3l-4.7 7h1Zm-3 9.8c.7.8 1.8 1.1 3 1.1 1.3 0 2.3-.3 3.1-1.1s1.2-1.8 1.2-3a4 4 0 0 0-1.2-3 4.2 4.2 0 0 0-3-1.2c-1.4 0-2.4.3-3.2 1.1a4 4 0 0 0-1.1 3 4 4 0 0 0 1.2 3Zm10.4-16.7h12.5v2.4l-7.3 17.6h-2.8l7.2-17.5h-9.6v-2.5Zm27.6 17.6a6.6 6.6 0 0 1-5.7 2.8 7 7 0 0 1-5.7-2.8c-1.3-2-2-4.4-2-7.6s.7-5.7 2-7.5a6.6 6.6 0 0 1 5.7-2.9c2.4 0 4.3 1 5.7 2.9 1.3 1.8 2 4.4 2 7.5s-.7 5.7-2 7.6Zm-9.4-1.8c.8 1.3 2 2 3.7 2s2.9-.7 3.8-2c.8-1.4 1.3-3.3 1.3-5.8s-.5-4.4-1.3-5.8c-1-1.3-2.2-2-3.8-2s-2.9.7-3.7 2-1.4 3.3-1.4 5.8.5 4.4 1.4 5.8Z" fill="#f1f1f1"></path></g><g><path d="M1257.2 276a7 7 0 0 1 1.9-5 6.6 6.6 0 0 1 4.8-1.9 6.6 6.6 0 0 1 6.8 6.9c0 2-.7 3.7-2 5a6.5 6.5 0 0 1-4.8 1.9c-1.5 0-2.9-.4-4-1.2l-9.6-6.4v-3l7 4.6-.1-.9Zm9.7 3c.8-.7 1.2-1.7 1.2-3s-.4-2.3-1.2-3c-.7-.9-1.7-1.3-3-1.3s-2.3.4-3 1.2c-.8.8-1.2 1.8-1.2 3.1s.4 2.3 1.2 3 1.7 1.3 3 1.3 2.3-.4 3-1.2Zm-2.9-33.8h2.5v2.4h3.8v2.7h-3.8v10.2h-2.5l-13.7-7.2v-2.9l13.7 7.2v-7.3h-5.7v-2.7h5.7v-2.4Zm0-16.9h2.5v2.4h3.8v2.7h-3.8v10.2h-2.5l-13.7-7.2v-2.8l13.7 7.2v-7.4h-5.7v-2.7h5.7v-2.4Zm3.8-15.3a6.6 6.6 0 0 1 2.9 5.7c0 2.4-1 4.3-2.9 5.7s-4.4 2-7.5 2c-3.2 0-5.7-.6-7.6-2a6.6 6.6 0 0 1-2.8-5.7 7 7 0 0 1 2.8-5.7c2-1.3 4.4-2 7.6-2 3.1 0 5.6.7 7.5 2Zm-1.8 9.5c1.4-1 2-2.2 2-3.8 0-1.6-.6-2.9-2-3.8s-3.3-1.3-5.7-1.3-4.4.5-5.8 1.3c-1.4 1-2 2.2-2 3.8 0 1.6.6 2.9 2 3.8 1.4.8 3.3 1.3 5.8 1.3 2.4 0 4.4-.5 5.7-1.3Z" fill="#f1f1f1"></path></g><path d="m1279 408.7-4.8-9.8h9.8l-5 9.8Zm.9-380.3v371h-1.6v-371h1.6Zm-.8-9.3 4.9 9.8h-9.8l4.9-9.8ZM3104 1039l-4.8-9.9h9.8l-5 9.8Zm.9-899v889.6h-1.6V140.1h1.6Zm-.8-9.2 4.9 9.8h-9.8l4.9-9.8Z" fill="#f1f1f1"></path><g><path d="M2415.4 351.7c0-2 .6-3.7 1.9-5 1.2-1.3 2.9-2 4.8-2s3.6.7 4.9 2c1.3 1.3 1.9 3 1.9 5s-.6 3.6-1.9 5a6.5 6.5 0 0 1-4.9 1.9 7 7 0 0 1-4-1.2l-9.6-6.5v-3l7 4.7v-1Zm9.8 3c.8-.7 1.1-1.8 1.1-3 0-1.3-.3-2.3-1.1-3.1-.8-.8-1.8-1.2-3-1.2s-2.3.4-3 1.2c-.9.8-1.2 1.8-1.2 3 0 1.4.3 2.4 1.1 3.2s1.8 1.1 3 1.1 2.3-.4 3-1.2Zm-8.5-19.7c.3-1.4 1-2.7 2-3.7s2.3-1.4 3.9-1.4c2 0 3.5.7 4.6 2 1.1 1.3 1.7 3 1.7 4.9 0 1.5-.4 2.8-1 4s-1.8 2-3 2.5l-1.4-2.2c1.9-.6 2.8-2 2.8-4.3 0-1.3-.3-2.3-1-3a3.3 3.3 0 0 0-2.7-1.3c-1.2 0-2 .4-2.7 1.2-.7.8-1 1.8-1 3v.7l-1.6 1.1-6.3-4.6v8.9h-2.5v-12h2.3l6 4.3Zm-.4-13.7a7 7 0 0 1 1.7-4.8c1-1.3 2.6-2 4.6-2 2 0 3.5.7 4.6 2 1.1 1.3 1.7 3 1.7 4.9 0 1.5-.4 2.9-1.1 4a5.5 5.5 0 0 1-3.2 2.6l-1.3-2.3a4 4 0 0 0 2.2-1.5 5 5 0 0 0 .8-2.8c0-1.3-.3-2.3-1-3a3.3 3.3 0 0 0-2.7-1.3c-1.2 0-2 .4-2.7 1.2-.7.8-1 1.8-1 3v5.7l-10.4-.8v-11h2.5v8.6l5.3.4v-3Zm9.7-22.3a6.6 6.6 0 0 1 2.9 5.7c0 2.4-1 4.3-2.8 5.7s-4.4 2-7.6 2c-3.1 0-5.7-.7-7.5-2a6.6 6.6 0 0 1-2.9-5.7c0-2.4 1-4.3 2.9-5.7 1.8-1.3 4.4-2 7.5-2 3.2 0 5.7.7 7.6 2Zm-1.7 9.4a4 4 0 0 0 2-3.7c0-1.6-.7-2.9-2-3.8s-3.3-1.3-5.8-1.3-4.4.5-5.8 1.3c-1.3 1-2 2.2-2 3.8 0 1.6.7 2.9 2 3.7 1.4 1 3.3 1.4 5.8 1.4s4.4-.5 5.8-1.4Z" fill="#f1f1f1"></path></g><path d="m2437.3 525.3-4.9-9.8h9.8l-4.9 9.8Zm.8-385.2v376h-1.6V140h1.6Zm-.8-9.3 5 9.8h-9.9l5-9.8Z" fill="#f1f1f1"></path><g><path d="M3071.4 620.9v-2.3h20v2.6h-17.2l1.3 4.3-2.3.6-1.8-5.2Zm7.8-12.3c0-1.8.5-3.4 1.7-4.7s2.6-2 4.6-2c2 0 3.5.7 4.6 2 1.1 1.3 1.7 3 1.7 4.9 0 1.5-.4 2.8-1.1 4-.8 1.2-1.8 2-3.2 2.6l-1.3-2.3a4 4 0 0 0 2.2-1.5 5 5 0 0 0 .8-2.8 5 5 0 0 0-1-3.1 3.3 3.3 0 0 0-2.7-1.2c-1.2 0-2 .4-2.8 1.2a5 5 0 0 0-1 3v5.7l-10.3-.8v-11h2.5v8.6l5.3.4v-3Zm9.8-29.6a6.6 6.6 0 0 1 2.8 5.7c0 2.4-1 4.3-2.9 5.7s-4.4 2-7.5 2c-3.2 0-5.7-.7-7.6-2a6.6 6.6 0 0 1-2.8-5.7c0-2.5 1-4.4 2.8-5.7 2-1.4 4.4-2 7.6-2 3.1 0 5.7.6 7.5 2Zm-1.9 9.4c1.4-.8 2-2.1 2-3.7s-.6-2.9-2-3.8c-1.3-.9-3.2-1.3-5.7-1.3s-4.4.4-5.8 1.3c-1.3 1-2 2.2-2 3.8s.7 2.9 2 3.7 3.3 1.3 5.8 1.3 4.4-.4 5.7-1.3Zm-8.8-20.4c0-2 .6-3.7 1.9-5 1.2-1.3 2.8-2 4.8-2s3.6.7 4.9 2c1.2 1.3 1.9 3 1.9 5s-.7 3.7-2 5a6.5 6.5 0 0 1-4.8 1.9c-1.5 0-2.9-.4-4-1.2l-9.6-6.5v-3l7 4.7-.1-1Zm9.8 3c.7-.7 1.1-1.8 1.1-3a4 4 0 0 0-1.1-3c-.8-.9-1.8-1.3-3-1.3s-2.3.4-3.1 1.2-1.2 1.8-1.2 3c0 1.4.4 2.4 1.2 3.2.8.8 1.8 1.1 3 1.1s2.3-.4 3-1.1Zm.9-25.4a6.6 6.6 0 0 1 2.8 5.7c0 2.4-1 4.3-2.9 5.7s-4.4 2-7.5 2c-3.2 0-5.7-.7-7.6-2a6.6 6.6 0 0 1-2.8-5.7c0-2.5 1-4.3 2.8-5.7 2-1.4 4.4-2 7.6-2 3.1 0 5.7.6 7.5 2Zm-1.9 9.4c1.4-.8 2-2 2-3.7s-.6-2.9-2-3.8c-1.3-.9-3.2-1.3-5.7-1.3s-4.4.4-5.8 1.3c-1.3 1-2 2.2-2 3.8s.7 2.9 2 3.7 3.3 1.3 5.8 1.3 4.4-.4 5.7-1.3Z" fill="#f1f1f1"></path></g><path d="m2267 446.2 9.9-4.9v9.8l-9.8-4.9Zm567.3.8h-558v-1.6h558v1.6Zm9.3-.8-9.8 5v-9.9l9.8 5Z" fill="#f1f1f1"></path><g><path d="M2536.2 425a7 7 0 0 1-1.2 4l-6.4 9.6h-3l4.7-7h-1c-2 0-3.6-.6-5-1.8s-1.8-2.9-1.8-4.9.6-3.6 1.9-4.8 3-2 5-2 3.6.7 5 2a6.5 6.5 0 0 1 1.8 4.8Zm-10-3.1a4 4 0 0 0-1.1 3c0 1.3.4 2.3 1.2 3s1.8 1.2 3 1.2c1.3 0 2.3-.4 3.1-1.1s1.2-1.8 1.2-3a4 4 0 0 0-1.2-3.1 4.2 4.2 0 0 0-3-1.2c-1.3 0-2.3.4-3.1 1.2Zm25.7 3.6c2 0 3.6.6 5 1.9 1.2 1.2 1.9 2.8 1.9 4.8s-.7 3.6-2 4.9a6.8 6.8 0 0 1-5 1.9c-2 0-3.6-.7-4.9-2a6.5 6.5 0 0 1-2-4.8c0-1.5.5-2.9 1.3-4l6.4-9.6h3l-4.7 7 1-.1Zm-3 9.7c.7.8 1.7 1.2 3 1.2 1.2 0 2.3-.4 3-1.2s1.2-1.7 1.2-3a4 4 0 0 0-1.1-3 4.2 4.2 0 0 0-3.1-1.2 4 4 0 0 0-4.3 4.2 4 4 0 0 0 1.2 3Zm11.3 3.4v-2.2l7-7.2c2-1.9 2.9-3.5 2.9-4.9 0-1-.4-2-1-2.6-.8-.6-1.6-1-2.6-1-1.9 0-3.2 1-4.1 2.8l-2.2-1.4a6.8 6.8 0 0 1 6.3-4c1.7 0 3.1.6 4.4 1.8a5.7 5.7 0 0 1 1.8 4.4c0 2-1.2 4.2-3.5 6.6l-5.2 5.1h9.1v2.6h-13Zm28.4-2.5a6.6 6.6 0 0 1-5.7 2.9c-2.4 0-4.3-1-5.7-2.9-1.3-1.9-2-4.4-2-7.5s.7-5.7 2-7.6a6.6 6.6 0 0 1 5.7-2.8c2.5 0 4.4 1 5.7 2.8 1.4 2 2 4.4 2 7.6s-.6 5.6-2 7.5Zm-9.4-1.8c.9 1.4 2.1 2 3.7 2s2.9-.6 3.8-2c.9-1.3 1.3-3.2 1.3-5.7s-.4-4.4-1.3-5.8c-.9-1.4-2.1-2-3.8-2s-2.8.6-3.7 2-1.3 3.3-1.3 5.8.4 4.4 1.3 5.7Z" fill="#f1f1f1"></path></g><path d="m2862.7 446.2 9.8-4.9v9.8l-9.8-4.9Zm356.6.8H2872v-1.6h347.3v1.6Zm9.3-.8-9.8 5v-9.9l9.8 5Z" fill="#f1f1f1"></path><g><path d="M3016.6 425.5c2 0 3.6.6 5 1.9 1.2 1.2 1.9 2.8 1.9 4.8s-.7 3.6-2 4.9a6.8 6.8 0 0 1-5 1.9c-2 0-3.6-.7-4.9-2a6.5 6.5 0 0 1-1.9-4.8c0-1.5.4-2.9 1.2-4l6.4-9.6h3l-4.6 7 .9-.1Zm-3 9.7c.7.8 1.7 1.2 3 1.2s2.3-.4 3-1.2 1.3-1.7 1.3-3a4 4 0 0 0-1.2-3 4.2 4.2 0 0 0-3.1-1.2c-1.3 0-2.3.4-3 1.2a4 4 0 0 0-1.3 3 4 4 0 0 0 1.2 3Zm32.5.9a6.6 6.6 0 0 1-5.7 2.9c-2.4 0-4.3-1-5.7-2.9-1.3-1.9-2-4.4-2-7.5s.7-5.7 2-7.6a6.6 6.6 0 0 1 5.7-2.8c2.5 0 4.4 1 5.7 2.8 1.4 2 2 4.4 2 7.6s-.6 5.6-2 7.5Zm-9.4-1.8c.9 1.4 2.1 2 3.7 2s3-.6 3.8-2c.9-1.3 1.3-3.2 1.3-5.7s-.4-4.4-1.3-5.8c-.9-1.4-2.1-2-3.8-2s-2.8.6-3.7 2-1.3 3.3-1.3 5.8.4 4.4 1.3 5.7Zm27.3-9.3a7 7 0 0 1-1.2 4l-6.4 9.6h-3l4.7-7h-1c-2 0-3.6-.6-5-1.8s-1.9-2.9-1.9-4.9.7-3.6 2-4.8 3-2 5-2 3.6.7 4.9 2c1.3 1.2 2 2.8 2 4.8Zm-10-3.1a4 4 0 0 0-1.1 3c0 1.3.4 2.3 1.2 3s1.8 1.2 3 1.2c1.3 0 2.3-.4 3.1-1.1s1.2-1.8 1.2-3a4 4 0 0 0-1.2-3.1 4.2 4.2 0 0 0-3-1.2c-1.3 0-2.3.4-3.1 1.2Zm25.5 14.2a6.6 6.6 0 0 1-5.7 2.9c-2.4 0-4.3-1-5.7-2.9-1.3-1.9-2-4.4-2-7.5s.7-5.7 2-7.6a6.6 6.6 0 0 1 5.7-2.8c2.5 0 4.4 1 5.7 2.8 1.4 2 2 4.4 2 7.6s-.6 5.6-2 7.5Zm-9.4-1.8c.9 1.4 2.1 2 3.7 2s3-.6 3.8-2c.9-1.3 1.3-3.2 1.3-5.7s-.4-4.4-1.3-5.8c-.9-1.4-2.1-2-3.8-2s-2.8.6-3.7 2-1.3 3.3-1.3 5.8.4 4.4 1.3 5.7Z" fill="#f1f1f1"></path></g></g></g></g></svg>