<svg version="1.1" xmlns="http://www.w3.org/2000/svg" xmlns:xlink="http://www.w3.org/1999/xlink" viewBox="0 0 8192 2153.9"><g id="SELECTION_0"><path fill="none" stroke-width="0" d="M0 0h8192v2153.9H0z"></path></g><g id="SELECTION_1" image-rendering="optimizeQuality" shape-rendering="geometricPrecision" text-rendering="geometricPrecision"><path fill="none" stroke-width="0" d="M8124.4 2103.5H1185.8v-490.7h2.9v-41.5H764.3l-.1-296.8h.1V1221h77.2v-2.9h17.8V66.7l7265.1.1v2036.7z"></path></g><g><g id="MAIN_LAYER"><defs id="SvgjsDefs1000"><clipPath id="clippath"><path d="m849.3 64 1 601.7H1447v90.6l596.7 1.7s-.2 263.2 0 461H749.5v371l403.6 9v491.4h6975V63c-1289.4.3-7278.8 1-7278.8 1Z" fill="none" stroke-width="0"></path></clipPath></defs><g id="Layer_1-2" data-name="Layer 1" image-rendering="optimizeQuality" shape-rendering="geometricPrecision" text-rendering="geometricPrecision"><g><path d="M1458.3 1039H850h608.4Zm-133.5 172.1V763v448Zm-187 10.4V966.3v255.2ZM1441 863.4h-240.4H1441Zm-490.2 361v-451 451Zm131-361H841.6 1082Zm979 175.6h-608.4 608.5Zm-133.5 172.1V763v448Zm-187 10.4V966.3v255.2Zm303.3-358.1H1803h240.5Zm-490.3 361v-451 451Zm131.1-361H1444h240.4Zm0 0Z" fill="#f1f1f1" stroke-width="0"></path><path id="_1" data-name="1" d="M1458.3 1039H850m474.9 172.1V763m-187 458.5V966.3m303.2-103h-240.4m-249.8 361.2V773.3m131 90H841.6M2060.9 1039h-608.5m474.9 172.1V763m-187 458.5V966.3m303.3-103H1803m-249.8 361.2V773.3m131.1 90H1444m240.4 0Z" fill="none" stroke="#f1f1f1" stroke-miterlimit="67.2" stroke-width="3"></path></g><g clip-path="url(#clippath)"><g><path fill="none" stroke="#f1f1f1" stroke-miterlimit="67.2" stroke-width="3" d="M1685.9 536.9h127.6m3953.7 1577.8V27.4m2358.7-17v2119.2M7222 845.3v284.8M8117.3 65.3H648.1M921 1202h848"></path><path fill="#f1f1f1" stroke-width="0" d="m760.7 1535.1.6-270.4h3l-.6 270.4h-3z"></path></g></g><path fill="#f1f1f1" stroke-width="0" d="M651.5 57.5h56.4V1221h-56.4V57.5z"></path><path fill="#f1f1f1" stroke-width="0" d="M701.9 57.5h157.4v26.7H701.9V57.5z"></path><path fill="#f1f1f1" stroke-width="0" d="M832.5 81.3h26.8v1136.8h-26.8V81.3z"></path><path d="M705 1191.3h136.5v29.7H704.9v-29.7ZM660.3 22H705v41.6h-44.5V21.9ZM319.1 1503h187v17.8H319V1503Z" fill="#f1f1f1" stroke-width="0"></path><path fill="#f1f1f1" stroke-width="0" d="M491.2 1503H512v109.8h-20.8V1503z"></path><path fill="#f1f1f1" stroke-width="0" d="M509 1571.3h679.7v41.5H509v-41.5z"></path><path d="M1165 1571.3h151.3v20.8H1165v-20.8Zm-32.7 32.6h53.5v486.8h-53.5v-486.8Zm-442.2 0h14.8v118.8h-14.8v-118.8Zm0 290.9h14.8v103.9h-14.8v-104Z" fill="#f1f1f1" stroke-width="0"></path><path d="M699 1983.8h442.2v14.9H699v-14.9Zm47.5-448.1h17.8v44.5h-17.8v-44.5Zm0-329.5h17.8v68.3h-17.8v-68.3ZM66.8 1503h17.8v17.8H66.8V1503Zm774.7-305.7h240.4v23.7H841.5v-23.7Zm382.8 0h475v23.7h-475v-23.7Zm620.4 0h335.4v23.7h-335.4v-23.7Zm-240.4-246.4h279v23.8h-279v-23.8Zm-184 0h56.3v23.8h-56.4v-23.8Zm-412.6 0h279v23.8h-279v-23.8Zm-166.2 0H874v23.8h-32.6v-23.8Zm1175.3 0h29.7v23.8h-29.7v-23.8Z" fill="#f1f1f1" stroke-width="0"></path><path fill="#f1f1f1" stroke-width="0" d="M1436.6 529.5h23.7v673.7h-23.7V529.5z"></path><path fill="#f1f1f1" stroke-width="0" d="M1452.9 749.1h593.6v23.7h-593.6v-23.7z"></path><path fill="#f1f1f1" stroke-width="0" d="M2031.7 538.4h23.7v673.7h-23.7V538.4z"></path><path d="M1812 526.5h368v23.7h-368v-23.7Zm-375.7 0h252.3v23.7h-252.3v-23.7Zm-580 115.7h593.6V669H856.3v-26.8Zm-3 104H1447v26.6H853.3v-26.7Z" fill="#f1f1f1" stroke-width="0"></path><path d="M1079 767h17.7v195.8H1079V766.9Zm56.3 0h17.8v195.8h-17.8V766.9Zm56.4 0h17.8v195.8h-17.8V766.9Zm486.8-6h17.8v195.9h-17.8v-196Zm56.4 0h17.8v195.9h-17.8v-196Zm56.4 0h17.8v195.9h-17.8v-196Zm745 457h23.7v875.6h-23.7v-875.5Z" fill="#f1f1f1" stroke-width="0"></path><path fill="#f1f1f1" stroke-width="0" d="M2539.2 1218.1H2747v23.7h-207.8v-23.7z"></path><path d="M2741 1218h184v15h-184v-15Zm320.6 0H3587v15h-525.4v-15Zm659 0h195.8v15h-195.9v-15Zm178 121.8h356.2v23.7h-356.2v-23.7Z" fill="#f1f1f1" stroke-width="0"></path><path d="M3898.6 1218h23.8v145.5h-23.8v-145.4Zm344.3 3h23.8v872.6h-23.8V1221Zm-89 374h56.4v246.4h-56.4V1595ZM3397 1221h23.8v875.6H3397V1221Zm-970.6 495.7h115.8v83.1h-115.8v-83Zm112.8 273h148.4v23.8h-148.4v-23.7ZM5080 1218.2h23.8v875.5H5080v-875.5Zm-335.4 0h23.8v145.4h-23.8v-145.4Z" fill="#f1f1f1" stroke-width="0"></path><path d="M4243 1218h187v15h-187v-15Zm329.4 0h187v15h-187v-15Zm172.1 121.8h356.2v23.7h-356.2v-23.7ZM5925.8 1227h23.8v388.8h-23.8V1227Zm-341.3-9h23.7v145.5h-23.7v-145.4Z" fill="#f1f1f1" stroke-width="0"></path><path d="M5412.3 1218h187v15h-187v-15Zm172.2 121.8h356.2v23.7h-356.2v-23.7Zm222.6 258.2h136.6v17.8H5807V1598Zm0 216.7h136.6v17.8H5807v-17.8Z" fill="#f1f1f1" stroke-width="0"></path><path d="M5925.8 1814.7h23.8v279h-23.8v-279ZM5765.6 1598h68.2v234.5h-68.2V1598Zm-679.7-380h187v15h-187v-15Zm840 0h187v15h-187v-15Zm842.9 9h23.7v866.6h-23.7V1227Zm-341.3-9h23.7v145.5h-23.7v-145.4Z" fill="#f1f1f1" stroke-width="0"></path><path d="M6255.3 1218h187v15h-187v-15Zm172.2 121.8h356.1v23.7h-356.1v-23.7Zm341.3-121.7h151.4v14.8h-151.4v-14.8Zm287.9 0h169.2v14.8h-169.2v-14.8Z" fill="#f1f1f1" stroke-width="0"></path><path fill="#f1f1f1" stroke-width="0" d="M7219.9 1221h908.3v23.8h-908.3V1221z"></path><path d="M7211 1057.8h23.8V1307H7211v-249.3Zm816.3 38.6h23.7v228.5h-23.7v-228.5ZM7211 844h23.8v50.4H7211V844Z" fill="#f1f1f1" stroke-width="0"></path><path d="M7222.9 844h157.3v23.8H7223v-23.7Zm11.9-703.3h142.4v23.7h-142.4v-23.7Z" fill="#f1f1f1" stroke-width="0"></path><path d="M7353.5 63.5h26.7V856h-26.7V63.5ZM63.8 2034.3h59.4v59.3H63.8v-59.3Zm0-846h53.4v62.4H63.8v-62.3Zm-6-851.8h56.5v65.3H57.9v-65.3Zm6-273h56.4v56.4H63.8V63.5Zm1068.5 3h74.2v74.2h-74.2V66.4Zm1309-3h74.2v74.2h-74.2V63.5Zm1706.6 0h74.2v74.2H4148V63.5Zm1626.6 0h74.2v74.2h-74.2V63.5Zm1671 0h74.2v74.2h-74.2V63.5Zm-5470.2-3h23.7V298h-23.7V60.5Zm0 400.7h23.7v71.2h-23.7v-71.2Zm5470.2 1261.5h74.2v74.1h-74.2v-74.1Z" fill="#f1f1f1" stroke-width="0"></path><path d="M2916.9 36.5H38.4v2077.3h8115.2V36.5H2916.9Zm5226 2067.7H49.1V46h8093.6v2058.2Z" fill="#f1f1f1" stroke="#f1f1f1" stroke-miterlimit="67.2" stroke-width="1.5"></path><path d="M2916.9 17.9H18.6v2114.4h8154.8V18H2916.9Zm5245.7 2105H29.4V27.3h8133.2v2095.4Z" fill="#f1f1f1" stroke="#f1f1f1" stroke-miterlimit="67.2" stroke-width="1.5"></path><path d="m1987.7 468.4 108.1-31.2L1991.4 290m-175.8 244.2-22.4-78-108.8 76.1m191.8 437.4 21.3 73.9 125.5-78.5m-411.5 3.8-21.3 74-120.6-77.1" fill="none" stroke="#f1f1f1" stroke-miterlimit="67.2" stroke-width="11.9"></path><path fill="none" stroke="#f1f1f1" stroke-miterlimit="67.2" stroke-width="12.1" d="m1280.7 970.4 21.3 74 129.2-79.6"></path><path fill="none" stroke="#f1f1f1" stroke-miterlimit="67.2" stroke-width="12.2" d="m1014.5 970.3-21.3 74-127-79"></path><path d="m1230.5 1216.1-21.8 75.7-130-80.8m771 4.4-22.5 78.4-132.4-83m1886 9.6 21.2-73.8 127.8 79" fill="none" stroke="#f1f1f1" stroke-miterlimit="67.2" stroke-width="11.9"></path><path fill="none" stroke="#f1f1f1" stroke-miterlimit="67.2" stroke-width="12.2" d="m4423.4 1221.2 21.3-73.7 135.2 81.2"></path><path fill="none" stroke="#f1f1f1" stroke-miterlimit="67.2" stroke-width="12.3" d="m5265.8 1220.1 22.1-76.5 131 81.6"></path><path fill="none" stroke="#f1f1f1" stroke-miterlimit="67.2" stroke-width="12.6" d="m6107.3 1222.3 22.9-79.6 132.3 83.7"></path><path d="m6912.9 1220.7 21.2-73.8L7062 1226m-4142.8-5.4 21.3-73.8 127.8 79" fill="none" stroke="#f1f1f1" stroke-miterlimit="67.2" stroke-width="11.9"></path><path fill="none" stroke="#f1f1f1" stroke-miterlimit="67.2" stroke-width="12" d="m7217 888.6-87.2 25.1 94.2 153.5"></path><path d="m79.8 1508 125.5-77 6.7 70.9 23.5-40.9 100 53.6m416.9 26.1-75.5-135.6 67.4-5.8-39.3-25.9 49.3-106.2" fill="none" stroke="#f1f1f1" stroke-miterlimit="67.2" stroke-width="11.9"></path><path fill="#f1f1f1" stroke-width="0" d="M1221.8 2025.4h1278.8v62.3H1221.8v-62.3z"></path><path fill="none" stroke="#f1f1f1" stroke-miterlimit="67.2" stroke-width="3" d="M1229.2 2031.6h1264v49.9h-1264v-49.9z"></path><path d="M2029 2081.5v-49.9m-11.3 49.9v-49.9m-11.3 49.9v-49.9m-11.2 49.9v-49.9m-11.3 49.9v-49.9m-11.3 49.9v-49.9m-11.3 49.9v-49.9m-11.2 49.9v-49.9m-11.3 49.9v-49.9m-11.2 49.9v-49.9m-11.3 49.9v-49.9m-11.3 49.9v-49.9m-11.2 49.9v-49.9m-11.3 49.9v-49.9m-11.3 49.9v-49.9m179.7 49.9v-49.9m-11.3 49.9v-49.9m68.2 49.9v-49.9m-11.2 49.9v-49.9m-11.3 49.9v-49.9m-11.3 49.9v-49.9m-11.2 49.9v-49.9m-202.5 49.9v-49.9m-11.2 49.9v-49.9m-11.3 49.9v-49.9m292.9 49.9v-49.9m-11.3 49.9v-49.9m67.5 49.9v-49.9m-11.2 49.9v-49.9m-11.3 49.9v-49.9m-11.3 49.9v-49.9m-11.2 49.9v-49.9m67.9 49.9v-49.9m-11.3 49.9v-49.9m67.5 49.9v-49.9m-11.2 49.9v-49.9m-11.3 49.9v-49.9m-11.3 49.9v-49.9m-11.2 49.9v-49.9m67.9 49.9v-49.9m-11.3 49.9v-49.9m56.2 49.9v-49.9m-11.2 49.9v-49.9m-11.3 49.9v-49.9m-11.3 49.9v-49.9m-778.5 49.9v-49.9m-11.2 49.9v-49.9m-11.3 49.9v-49.9m-11.3 49.9v-49.9m-11.2 49.9v-49.9m-11.3 49.9v-49.9m-11.2 49.9v-49.9m-11.3 49.9v-49.9m-11.3 49.9v-49.9m-11.2 49.9v-49.9m-11.3 49.9v-49.9m-11.3 49.9v-49.9m-11.3 49.9v-49.9m-11.2 49.9v-49.9m-11.3 49.9v-49.9m179.7 49.9v-49.9m-11.3 49.9v-49.9m68.2 49.9v-49.9m-11.2 49.9v-49.9m-11.3 49.9v-49.9m-11.3 49.9v-49.9m-11.2 49.9v-49.9m-202.5 49.9v-49.9m-11.3 49.9v-49.9m-11.2 49.9v-49.9m292.9 49.9v-49.9m-11.3 49.9v-49.9m67.5 49.9v-49.9m-11.2 49.9v-49.9m-11.3 49.9v-49.9m-11.3 49.9v-49.9m-11.2 49.9v-49.9m67.9 49.9v-49.9m-11.3 49.9v-49.9m67.5 49.9v-49.9m-11.3 49.9v-49.9m-11.2 49.9v-49.9m-11.3 49.9v-49.9m-11.3 49.9v-49.9m68 49.9v-49.9m-11.3 49.9v-49.9m56.2 49.9v-49.9m-11.2 49.9v-49.9m-11.3 49.9v-49.9m-11.3 49.9v-49.9m-472.9 49.9v-49.9m-11.2 49.9v-49.9m-11.3 49.9v-49.9m-11.2 49.9v-49.9m-11.3 49.9v-49.9m-11.3 49.9v-49.9m-11.2 49.9v-49.9m-11.3 49.9v-49.9m1170.9 48.6v-49.9m-11.3 49.9v-49.9m-11.3 49.9v-49.9m-11.2 49.9v-49.9m-11.3 49.9v-49.9m-11.3 49.9v-49.9m-11.2 49.9v-49.9m91.3 49.9v-49.9m-11.3 49.9v-49.9m34.9 49.9v-49.9m-11.3 49.9v-49.9m35 49.9v-49.9m-11.2 49.9v-49.9" fill="none" stroke="#f1f1f1" stroke-miterlimit="67.2" stroke-width="2.9"></path><path fill="#f1f1f1" stroke-width="0" d="M2041.6 66.4h358.1v62.4h-358.1V66.4z"></path><path d="M2049 72.7h340.3v49.8H2049V72.7Zm171.6 49.8V72.7m-10.8 49.8V72.7m-10.8 49.8V72.7m-10.7 49.8V72.7m-10.8 49.8V72.7m-10.8 49.8V72.7m-10.7 49.8V72.7m-10.8 49.8V72.7m-10.8 49.8V72.7m-10.7 49.8V72.7m-10.8 49.8V72.7m-10.8 49.8V72.7m-10.8 49.8V72.7m-10.7 49.8V72.7m-10.8 49.8V72.7m161 49.8V72.7m-171.4 49.8V72.7m225 49.8V72.7m-10.7 49.8V72.7m-10.8 49.8V72.7m-10.7 49.8V72.7m-10.8 49.8V72.7m53.3 49.8V72.7m53.7 49.8V72.7m-10.8 49.8V72.7m-10.7 49.8V72.7m-10.8 49.8V72.7m-10.8 49.8V72.7m53.3 49.8V72.7m10.1 49.8V72.7m10.2 49.8V72.7" fill="none" stroke="#f1f1f1" stroke-miterlimit="67.2" stroke-width="2.8"></path><path fill="#f1f1f1" stroke-width="0" d="M887 66.4h213.7v62.4H887V66.4z"></path><path d="M894.4 72.7h195.9v49.8h-196V72.7Zm175 49.8V72.7m-11 49.8V72.7m-11 49.8V72.7m-11 49.8V72.7m-11 49.8V72.7m-11 49.8V72.7m-11 49.8V72.7m-11 49.8V72.7m-11 49.8V72.7m-11 49.8V72.7m-11 49.8V72.7m-11 49.8V72.7m-11 49.8V72.7m-11 49.8V72.7m-11 49.8V72.7m164.5 49.8V72.7m-175.1 49.8V72.7" fill="none" stroke="#f1f1f1" stroke-miterlimit="67.2" stroke-width="3"></path><path fill="#f1f1f1" stroke-width="0" d="M1238.7 66.4h698v62.4h-698V66.4z"></path><path fill="none" stroke="#f1f1f1" stroke-miterlimit="67.2" stroke-width="3" d="M1246.1 72.7h683.2v49.8h-683.2V72.7zm279.3 49.8V72.7m-11.2 49.8V72.7m-11.3 49.8V72.7m-11.3 49.8V72.7m-11.3 49.8V72.7m-11.3 49.8V72.7m-11.3 49.8V72.7m-11.3 49.8V72.7m-11.3 49.8V72.7m-11.2 49.8V72.7m-11.3 49.8V72.7m-11.3 49.8V72.7m-11.3 49.8V72.7m-11.3 49.8V72.7m-11.3 49.8V72.7m180 49.8V72.7m-11.2 49.8V72.7m68.3 49.8V72.7m-11.3 49.8V72.7m-11.3 49.8V72.7m-11.3 49.8V72.7m-11.3 49.8V72.7m-202.8 49.8V72.7m-11.3 49.8V72.7m-11.3 49.8V72.7m293.5 49.8V72.7m-11.3 49.8V72.7m67.7 49.8V72.7m-11.3 49.8V72.7m-11.3 49.8V72.7m-11.3 49.8V72.7m-11.3 49.8V72.7m68 49.8V72.7m-11.3 49.8V72.7m67.7 49.8V72.7m-11.3 49.8V72.7m-11.3 49.8V72.7m-11.3 49.8V72.7m-11.2 49.8V72.7m56.7 49.8V72.7M1323.7 123V73.2m-11.3 49.8V73.2m-11.3 49.8V73.2m-11.3 49.8V73.2m-11 49.1V72.4m-11.4 50v-50m-11.3 50v-50m539.9 50.1V72.7m-11.3 49.8V72.7m67.6 49.8V72.7m-11.3 49.8V72.7m-11.2 49.8V72.7m-11.3 49.8V72.7m-11.3 49.8V72.7m56.7 49.8V72.7m33 49.8V72.7m-11.2 49.8V72.7m-11.3 49.8V72.7m34.2 49.8V72.7m10.3 48.9V71.7"></path><path fill="#f1f1f1" stroke-width="0" d="M2551.5 66.4h1554.9v62.4H2551.5V66.4z"></path><path fill="none" stroke="#f1f1f1" stroke-miterlimit="67.2" stroke-width="3" d="M2559 72.7h1537v49.8H2559V72.7z"></path><path d="M3358.7 122.5V72.7m-11.3 49.8V72.7m-11.3 49.8V72.7m-11.2 49.8V72.7m-11.3 49.8V72.7m-11.3 49.8V72.7m-11.2 49.8V72.7m-11.3 49.8V72.7m-11.2 49.8V72.7m-11.3 49.8V72.7m-11.3 49.8V72.7m-11.2 49.8V72.7m-11.3 49.8V72.7m-11.3 49.8V72.7m-11.2 49.8V72.7m179.6 49.8V72.7m-11.3 49.8V72.7m68.3 49.8V72.7m-11.3 49.8V72.7m-11.3 49.8V72.7m-11.2 49.8V72.7m-11.3 49.8V72.7M3190 122.5V72.7m-11.2 49.8V72.7m-11.3 49.8V72.7m293 49.8V72.7m-11.3 49.8V72.7m67.5 49.8V72.7m-11.3 49.8V72.7m-11.3 49.8V72.7m-11.2 49.8V72.7m-11.3 49.8V72.7m67.9 49.8V72.7m-11.3 49.8V72.7m67.5 49.8V72.7m-11.2 49.8V72.7m-11.3 49.8V72.7m-11.3 49.8V72.7m-11.2 49.8V72.7m67.9 49.8V72.7m-11.3 49.8V72.7m56.2 49.8V72.7m-11.2 49.8V72.7m-11.3 49.8V72.7m-11.2 49.8V72.7m-778.5 49.8V72.7m-11.3 49.8V72.7m-11.3 49.8V72.7m-11.2 49.8V72.7m-11.3 49.8V72.7m-11.3 49.8V72.7m-11.2 49.8V72.7m-11.3 49.8V72.7m-11.3 49.8V72.7m-11.2 49.8V72.7m-11.3 49.8V72.7m-11.3 49.8V72.7m-11.2 49.8V72.7m-11.3 49.8V72.7m-11.3 49.8V72.7m179.7 49.8V72.7m-11.2 49.8V72.7m68.2 49.8V72.7m-11.3 49.8V72.7m-11.3 49.8V72.7m-11.2 49.8V72.7m-11.3 49.8V72.7m-202.5 49.8V72.7m-11.2 49.8V72.7m-11.3 49.8V72.7m292.9 49.8V72.7m-11.3 49.8V72.7m67.5 49.8V72.7m-11.2 49.8V72.7m-11.3 49.8V72.7m-11.3 49.8V72.7m-11.2 49.8V72.7m67.9 49.8V72.7m-11.3 49.8V72.7m67.5 49.8V72.7m-11.3 49.8V72.7m-11.2 49.8V72.7m-11.3 49.8V72.7m-11.2 49.8V72.7m67.9 49.8V72.7m-11.3 49.8V72.7m56.2 49.8V72.7m-11.2 49.8V72.7m-11.3 49.8V72.7m-11.3 49.8V72.7m-472.8 49.8V72.7m-11.3 49.8V72.7m-11.2 49.8V72.7m-11.3 49.8V72.7m-11.3 49.8V72.7m-11.2 49.8V72.7m-11.3 49.8V72.7m-11.3 49.8V72.7m1170.9 48.5V71.4m-11.3 49.8V71.4m-11.2 49.8V71.4m-11.3 49.8V71.4m-11.3 49.8V71.4m-11.3 49.8V71.4m-11.2 49.8V71.4m91.3 49.8V71.4m-11.2 49.8V71.4m34.8 49.8V71.4m-11.3 49.8V71.4m35 49.8V71.4m-11.2 49.8V71.4m88.6 49.8V71.4m-11.3 49.8V71.4m-11.2 49.8V71.4m-11.3 49.8V71.4m-11.3 49.8V71.4m-11.2 49.8V71.4m-11.3 49.8V71.4m91.3 49.8V71.4m-11.2 49.8V71.4m34.8 49.8V71.4m-11.2 49.8V71.4m35 49.8V71.4m-11.3 49.8V71.4m88.6 49.8V71.4m-11.3 49.8V71.4m-11.2 49.8V71.4m-11.3 49.8V71.4m-11.3 49.8V71.4m-11.2 49.8V71.4m-11.3 49.8V71.4m91.3 49.8V71.4m-11.2 49.8V71.4m34.8 49.8V71.4m-11.3 49.8V71.4" fill="none" stroke="#f1f1f1" stroke-miterlimit="67.2" stroke-width="2.9"></path><path fill="#f1f1f1" stroke-width="0" d="M4261.2 66.4h1474.7v62.4H4261.2V66.4z"></path><path fill="none" stroke="#f1f1f1" stroke-miterlimit="67.2" stroke-width="2.9" d="M4268.6 72.7h1456.9v49.8H4268.6V72.7zm799.7 49.8V72.7m-11.3 49.8V72.7m-11.2 49.8V72.7m-11.3 49.8V72.7m-11.3 49.8V72.7m-11.2 49.8V72.7m-11.3 49.8V72.7m-11.2 49.8V72.7m-11.3 49.8V72.7m-11.3 49.8V72.7m-11.2 49.8V72.7m-11.3 49.8V72.7m-11.3 49.8V72.7m-11.2 49.8V72.7m-11.3 49.8V72.7m179.7 49.8V72.7m-11.3 49.8V72.7m68.2 49.8V72.7m-11.3 49.8V72.7m-11.2 49.8V72.7m-11.3 49.8V72.7m-11.3 49.8V72.7m-202.4 49.8V72.7m-11.3 49.8V72.7m-11.3 49.8V72.7m293 49.8V72.7m-11.3 49.8V72.7m67.5 49.8V72.7m-11.3 49.8V72.7m-11.2 49.8V72.7m-11.3 49.8V72.7m-11.3 49.8V72.7m68 49.8V72.7m-11.3 49.8V72.7m67.5 49.8V72.7m-11.3 49.8V72.7m-11.3 49.8V72.7m-11.2 49.8V72.7m-11.3 49.8V72.7m67.9 49.8V72.7m-11.3 49.8V72.7m56.3 49.8V72.7m-11.3 49.8V72.7m-11.2 49.8V72.7m-11.3 49.8V72.7m-778.5 49.8V72.7m-11.3 49.8V72.7m-11.2 49.8V72.7m-11.3 49.8V72.7m-11.3 49.8V72.7m-11.2 49.8V72.7m-11.3 49.8V72.7m-11.3 49.8V72.7m-11.2 49.8V72.7m-11.3 49.8V72.7m-11.3 49.8V72.7m-11.2 49.8V72.7m-11.3 49.8V72.7m-11.3 49.8V72.7m-11.2 49.8V72.7m179.6 49.8V72.7m-11.2 49.8V72.7m68.2 49.8V72.7m-11.3 49.8V72.7m-11.2 49.8V72.7m-11.3 49.8V72.7m-11.3 49.8V72.7m-202.5 49.8V72.7m-11.2 49.8V72.7m-11.3 49.8V72.7m293 49.8V72.7m-11.3 49.8V72.7m67.5 49.8V72.7m-11.3 49.8V72.7m-11.3 49.8V72.7m-11.2 49.8V72.7m-11.3 49.8V72.7m67.9 49.8V72.7m-11.3 49.8V72.7m67.5 49.8V72.7m-11.2 49.8V72.7m-11.3 49.8V72.7m-11.3 49.8V72.7m-11.2 49.8V72.7m67.9 49.8V72.7m-11.3 49.8V72.7m56.3 49.8V72.7m-11.3 49.8V72.7m-11.3 49.8V72.7m-11.2 49.8V72.7m-473 49.8V72.7m-11.3 49.8V72.7m-11.2 49.8V72.7m-11.3 49.8V72.7m-11.2 49.8V72.7m-11.3 49.8V72.7m-11.3 49.8V72.7m-11.2 49.8V72.7M5451 121.2V71.4m-11.2 49.8V71.4m-11.3 49.8V71.4m-11.3 49.8V71.4m-11.2 49.8V71.4m-11.3 49.8V71.4m-11.3 49.8V71.4m91.4 49.8V71.4m-11.3 49.8V71.4m34.8 49.8V71.4m-11.2 49.8V71.4m35 49.8V71.4m-11.3 49.8V71.4m88.6 49.8V71.4m-11.2 49.8V71.4m-11.3 49.8V71.4m-11.3 49.8V71.4m-11.2 49.8V71.4m-11.3 49.8V71.4m-11.3 49.8V71.4m91.4 49.8V71.4m-11.3 49.8V71.4m34.8 49.8V71.4m-11.2 49.8V71.4m35 49.8V71.4m-11.3 49.8V71.4m66 49.8V71.4m-11.2 49.8V71.4m-11.2 49.8V71.4m-11.3 49.8V71.4m-11.3 49.8V71.4"></path><path fill="#f1f1f1" stroke-width="0" d="M5884.7 66.4h1433.2v62.4H5884.7V66.4z"></path><path fill="none" stroke="#f1f1f1" stroke-miterlimit="67.2" stroke-width="3" d="M5892.1 72.7h1415.4v49.8H5892.1V72.7z"></path><path d="M6693.6 122.5V72.7m-11.3 49.8V72.7m-11.3 49.8V72.7m-11.3 49.8V72.7m-11.3 49.8V72.7m-11.3 49.8V72.7m-11.3 49.8V72.7m-11.3 49.8V72.7m-11.3 49.8V72.7m-11.3 49.8V72.7m-11.2 49.8V72.7m-11.3 49.8V72.7m-11.3 49.8V72.7m-11.3 49.8V72.7m-11.3 49.8V72.7m180 49.8V72.7m-11.3 49.8V72.7m68.4 49.8V72.7m-11.3 49.8V72.7m-11.3 49.8V72.7m-11.3 49.8V72.7m-11.3 49.8V72.7m-202.8 49.8V72.7m-11.3 49.8V72.7m-11.3 49.8V72.7m293.5 49.8V72.7m-11.3 49.8V72.7m67.6 49.8V72.7m-11.2 49.8V72.7m-11.3 49.8V72.7m-11.3 49.8V72.7m-11.3 49.8V72.7m68 49.8V72.7m-11.3 49.8V72.7m67.7 49.8V72.7m-11.3 49.8V72.7m-11.3 49.8V72.7m-11.3 49.8V72.7m-11.2 49.8V72.7m68 49.8V72.7m-11.3 49.8V72.7m56.4 49.8V72.7m-11.3 49.8V72.7m-11.3 49.8V72.7m-11.3 49.8V72.7M6185 122.5V72.7m-11.3 49.8V72.7m-11.2 49.8V72.7m-11.4 49.8V72.7m-11.2 49.8V72.7m-11.3 49.8V72.7m-11.3 49.8V72.7m-11.3 49.8V72.7m-11.3 49.8V72.7m-11.3 49.8V72.7m-11.3 49.8V72.7m-11.3 49.8V72.7m-11.2 49.8V72.7m-11.3 49.8V72.7m-11.3 49.8V72.7m180 49.8V72.7m-11.2 49.8V72.7m68.3 49.8V72.7m-11.3 49.8V72.7m-11.3 49.8V72.7m-11.3 49.8V72.7m-11.3 49.8V72.7M6016 122.5V72.7m-11.3 49.8V72.7m-11.2 49.8V72.7m293.5 49.8V72.7m-11.3 49.8V72.7m67.6 49.8V72.7m-11.3 49.8V72.7m-11.3 49.8V72.7m-11.2 49.8V72.7m-11.3 49.8V72.7m68 49.8V72.7m-11.2 49.8V72.7m67.6 49.8V72.7m-11.3 49.8V72.7m-11.3 49.8V72.7m-11.3 49.8V72.7m-11.3 49.8V72.7m68 49.8V72.7m-11.2 49.8V72.7m56.4 49.8V72.7m-11.4 49.8V72.7m-11.2 49.8V72.7m-11.3 49.8V72.7m-473.9 49.8V72.7m-11.3 49.8V72.7m-11.3 49.8V72.7m-11.3 49.8V72.7m-11.3 49.8V72.7m-11.2 49.8V72.7m-11.3 49.8V72.7m-11.3 49.8V72.7M7077 121.2V71.4m-11.2 49.8V71.4m-11.3 49.8V71.4m-11.3 49.8V71.4m-11.3 49.8V71.4m-11.3 49.8V71.4m-11.3 49.8V71.4m91.5 49.8V71.4m-11.2 49.8V71.4m34.9 49.8V71.4m-11.3 49.8V71.4m35 49.8V71.4m-11.2 49.8V71.4m88.8 49.8V71.4m-11.3 49.8V71.4m-11.3 49.8V71.4m-11.3 49.8V71.4m-11.3 49.8V71.4m-11.3 49.8V71.4m-11.3 49.8V71.4m91.6 49.8V71.4m-11.3 49.8V71.4m34.9 49.8V71.4m-11.3 49.8V71.4m35 49.8V71.4m-11.2 49.8V71.4" fill="none" stroke="#f1f1f1" stroke-miterlimit="67.2" stroke-width="2.9"></path><path fill="#f1f1f1" stroke-width="0" d="M8065.1 65.3h-509.6v60h509.6v1061.2h60V65.3h-60z"></path><path fill="none" stroke="#f1f1f1" stroke-miterlimit="67.2" stroke-width="3" d="M7563 71.3h502.1v48H7563v-48zm54.8 0v48m11.5-48v48m11.5-48v48m11.5-48v48m11.5-48v48m11.5-48v48m11.4-48v48m11.5-48v48m11.5-48v48m11.5-48v48m11.5-48v48m11.5-48v48m11.4-48v48m11.5-48v48m11.5-48v48m11.5-48v48m11.5-48v48m11.5-48v48m11.5-48v48m11.5-48v48m11.5-48v48m11.4-48v48m11.5-48v48m11.5-48v48m11.5-48v48m11.5-48v48m11.5-48v48m11.4-48v48m11.5-48v48m11.5-48v48m11.5-48v48m11.5-48v48m11.5-48v48m10.3-48v48m11.5-48v48m11.5-48v48m11.4-48v48m11.5-48v48m11.5-48v48m-479.6-48v48m11.4-48v48m11.5-48v48m11.5-48v48m463.2 6h48v1052.2h-48V125.3Zm0 247.8h48m-48-11.3h48m-48-11.3h48m-48-11.3h48m-48-11.4h48m-48-11.2h48m-48-11.3h48m-48-11.3h48m-48-11.3h48m-48-11.3h48m-48-11.3h48m-48-11.3h48m-48-11.3h48m-48-11.3h48m-48-11.3h48m-48-11.3h48m-48-11.3h48m-48-11.3h48m-48-11.3h48m-48-11.3h48m-48-11.3h48m-48-11.3h48m-48 486h48m-48-11.4h48m-48-11.3h48m-48-11.3h48m-48-11.3h48m-48-11.2h48m-48-11.4h48m-48-11.3h48m-48-11.3h48m-48-11.3h48m-48-11.3h48m-48-11.3h48m-48-11.3h48m-48-11.3h48m-48-11.3h48m-48-11.3h48m-48-11.2h48m-48-11.4h48m-48-11.2h48m-48-11.4h48m-48-11.2h48m-48-11.4h48m-48 486h48m-48-11.3h48m-48-11.3h48m-48-11.3h48m-48-11.3h48m-48-11.3h48m-48-11.3h48m-48-11.3h48m-48-11.3h48m-48-11.3h48m-48-11.3h48m-48-11.3h48m-48-11.3h48m-48-11.3h48m-48-11.3h48m-48-11.3h48m-48-11.3h48m-48-11.3h48m-48-11.3h48m-48-11.3h48m-48-11.3h48m-48-11.3h48m-48 486h48m-48-11.3h48m-48-11.3h48m-48-11.3h48m-48-11.3h48m-48-11.3h48m-48-11.3h48m-48-11.3h48m-48-11.3h48m-48-11.3h48m-48-11.3h48m-48-11.3h48m-48-11.3h48m-48-11.3h48m-48-11.3h48m-48-11.3h48m-48-11.3h48m-48-11.3h48m-48-11.3h48m-48-11.3h48m-48-11.3h48m-48-11.3h48m-48 270.2h48m-48-11.3h48m-48-11.3h48m-48 34.6h48M8073.5 73.7h43.2V117h-43.2V73.7Zm0 0 43.2 43.2m0-43.2-43.2 43.2"></path><path fill="#f1f1f1" stroke-width="0" d="M8127.2 2028.8v-743.5h-59.9v743.5H6826.2v59.9h1301v-59.9z"></path><path fill="none" stroke="#f1f1f1" stroke-miterlimit="67.2" stroke-width="3" d="M8073.2 1289.8h48v739h-48v-739zm48 291.7h-48m48 11.5h-48m48 11.5h-48m48 11.4h-48m48 11.5h-48m48 11.5h-48m48 11.5h-48m48 11.5h-48m48 11.5h-48m48 11.4h-48m48 11.5h-48m48 11.5h-48m48 11.5h-48m48 11.5h-48m48 11.5h-48m48 11.5h-48m48 11.5h-48m48 11.5h-48m48 11.4h-48m48 11.5h-48m48 11.5h-48m48 11.5h-48m48 11.5h-48m48 11.5h-48m48 11.5h-48m48 11.4h-48m48 11.5h-48m48 11.5h-48m48 11.5h-48m48 11.5h-48m48 11.5h-48m48 11.4h-48m48 11.5h-48m48 10.4h-48m48 11.4h-48m48 11.5h-48m48 11.5h-48m48 11.5h-48m48 11.5h-48m48-479.7h-48m48 11.5h-48m48 11.5h-48m48 11.5h-48m47.8-80.5h-48m48 11.5h-48m48 11.5h-48m48 11.5h-48m48-79.5h-48m48 11.5h-48m48 11.5h-48m48 11.5h-48m48-79.4h-48m48 11.5h-48m48 11.4h-48m48 11.5h-48m48-79.4h-48m48 11.5h-48m48 11.5h-48m48 11.4h-48m49-80h-48m48 11.5h-48m48 11.4h-48m48 11.5h-48m48.7-46.2h-48m-1242.5 736h1235v48h-1235v-48Zm988.7 0v48m11.3-48v48m11.2-48v48m11.2-48v48m11.3-48v48m11.2-48v48m11.2-48v48m11.3-48v48m11.2-48v48m11.2-48v48m11.2-48v48m11.3-48v48m11.2-48v48m11.2-48v48m11.3-48v48m11.2-48v48m11.2-48v48m11.2-48v48m11.3-48v48m11.2-48v48m11.3-48v48m11.2-48v48m-483-48v48m11.3-48v48m11.2-48v48m11.2-48v48m11.2-48v48m11.3-48v48m11.2-48v48m11.2-48v48m11.3-48v48m11.2-48v48m11.2-48v48m11.2-48v48m11.3-48v48m11.2-48v48m11.2-48v48m11.3-48v48m11.2-48v48m11.2-48v48m11.2-48v48m11.3-48v48m11.2-48v48m11.3-48v48m-483-48v48m11.2-48v48m11.3-48v48m11.2-48v48m11.2-48v48m11.2-48v48m11.3-48v48m11.2-48v48m11.2-48v48m11.3-48v48m11.2-48v48m11.2-48v48m11.2-48v48m11.3-48v48m11.2-48v48m11.2-48v48m11.3-48v48m11.2-48v48m11.2-48v48m11.2-48v48m11.3-48v48m11.2-48v48m-483-48v48m11.3-48v48m11.2-48v48m11.3-48v48m11.2-48v48m11.2-48v48m11.2-48v48m11.3-48v48m11.2-48v48m11.2-48v48m11.3-48v48m11.2-48v48m11.2-48v48m11.2-48v48m11.3-48v48m11.2-48v48m11.2-48v48m11.3-48v48m11.2-48v48m11.2-48v48m11.2-48v48m11.3-48v48m-268.6-48v48m11.2-48v48m11.3-48v48m-34.4-48v48m-32.8-48v48m11.2-48v48m11.3-48v48m-34.4-48v48m-34.3-49v48m11.2-48v48m11.2-48v48m-34.3-48v48m-32.8-48v48m11.2-48v48m11.3-48v48m-34.4-48v48m-32.8-48v48m11.2-48v48m11.3-48v48m-34.4-48v48m-12-48v48m1233-44.6h43.2v43.1h-43.1v-43.1Zm43.2 0-43.1 43.1m43.1 0-43.1-43.1"></path><path fill="#f1f1f1" stroke-width="0" d="M5991.1 2026.6h742.8v62.3h-742.8v-62.3z"></path><path fill="none" stroke="#f1f1f1" stroke-miterlimit="67.2" stroke-width="3" d="M5998.6 2032.8h727.9v49.9h-727.9v-49.9zm324.1 49.9v-50m-11.3 50v-50m-11.3 50v-50m-11.3 50v-50m-11.3 50v-50m-11.3 50v-50m-11.3 50v-50m-11.3 50v-50m-11.3 50v-50m-11.2 50v-50m-11.3 50v-50m-11.3 50v-50m-11.3 50v-50m-11.3 50v-50m-11.3 50v-50m180 50v-50m-11.2 50v-50m68.3 50v-50m-11.3 50v-50m-11.2 50v-50m-11.4 50v-50m-11.2 50v-50m-203 50v-50m-11.2 50v-50m-11.3 50v-50m293.5 50v-50m-11.3 50v-50m67.7 50v-50m-11.3 50v-50m-11.3 50v-50m-11.3 50v-50m-11.3 50v-50m68 50v-50m-11.2 50v-50m67.6 50v-50m-11.3 50v-50m-11.3 50v-50m-11.3 50v-50m-11.3 50v-50m56.8 50v-50m-450.9 50.4v-49.9m-11.3 50v-50m-11.3 50v-50m-11.2 50v-50m-11.2 49.2v-49.9m-11.3 50v-50m-11.3 50v-50m539.9 50.2v-50m-11.3 50v-50m67.6 50v-50m-11.3 50v-50m-11.3 50v-50m-11.2 50v-50m-11.3 50v-50m56.7 50v-50m33 50v-50m-11.2 50v-50m-11.3 50v-50m34.2 50v-50m10.3 49V2032m-673.6 51.2v-49.9m-11.1 49.2v-49.9m-11.3 50v-50m-11.3 50v-50"></path><path fill="#f1f1f1" stroke-width="0" d="M5142.3 2026.6H5885v62.3h-742.7v-62.3z"></path><path fill="none" stroke="#f1f1f1" stroke-miterlimit="67.2" stroke-width="3" d="M5149.7 2032.8h727.9v49.9h-727.9v-49.9zm324.1 49.9v-50m-11.3 50v-50m-11.3 50v-50m-11.3 50v-50m-11.3 50v-50m-11.3 50v-50m-11.3 50v-50m-11.2 50v-50m-11.3 50v-50m-11.3 50v-50m-11.3 50v-50m-11.3 50v-50m-11.3 50v-50m-11.3 50v-50m-11.3 50v-50m180 50v-50m-11.2 50v-50m68.3 50v-50m-11.3 50v-50m-11.2 50v-50m-11.3 50v-50m-11.3 50v-50m-202.9 50v-50m-11.3 50v-50m-11.3 50v-50m293.5 50v-50m-11.3 50v-50m67.7 50v-50m-11.3 50v-50m-11.3 50v-50m-11.3 50v-50m-11.3 50v-50m68 50v-50m-11.2 50v-50m67.6 50v-50m-11.3 50v-50m-11.2 50v-50m-11.3 50v-50m-11.3 50v-50m56.7 50v-50m-450.9 50.4v-49.9m-11.3 50v-50m-11.3 50v-50m-11.2 50v-50m-11.2 49.2v-49.9m-11.3 50v-50m-11.2 50v-50m539.8 50.2v-50m-11.3 50v-50m67.7 50v-50m-11.3 50v-50m-11.3 50v-50m-11.3 50v-50m-11.3 50v-50m56.8 50v-50m33 50v-50m-11.3 50v-50m-11.3 50v-50m34.2 50v-50m10.3 49V2032m-673.6 51.2v-49.9m-11 49.2v-49.9m-11.4 50v-50m-11.3 50v-50"></path><path fill="#f1f1f1" stroke-width="0" d="M4302.3 2026.6H5045v62.3h-742.7v-62.3z"></path><path fill="none" stroke="#f1f1f1" stroke-miterlimit="67.2" stroke-width="3" d="M4309.7 2032.8h727.9v49.9h-727.9v-49.9zm324.1 49.9v-50m-11.3 50v-50m-11.3 50v-50m-11.3 50v-50m-11.2 50v-50m-11.3 50v-50m-11.3 50v-50m-11.3 50v-50m-11.3 50v-50m-11.3 50v-50m-11.3 50v-50m-11.3 50v-50m-11.2 50v-50m-11.3 50v-50m-11.3 50v-50m180 50v-50m-11.3 50v-50m68.4 50v-50m-11.3 50v-50m-11.3 50v-50m-11.3 50v-50m-11.3 50v-50m-202.9 50v-50m-11.3 50v-50m-11.2 50v-50m293.5 50v-50m-11.3 50v-50m67.6 50v-50m-11.3 50v-50m-11.3 50v-50m-11.3 50v-50m-11.3 50v-50m68.1 50v-50m-11.3 50v-50m67.7 50v-50m-11.3 50v-50m-11.3 50v-50m-11.3 50v-50m-11.3 50v-50m56.8 50v-50m-451 50.4v-49.9m-11.2 50v-50m-11.3 50v-50m-11.3 50v-50m-11.1 49.2v-49.9m-11.3 50v-50m-11.3 50v-50m539.8 50.2v-50m-11.2 50v-50m67.6 50v-50m-11.3 50v-50m-11.3 50v-50m-11.3 50v-50m-11.3 50v-50m56.8 50v-50m33 50v-50m-11.2 50v-50m-11.3 50v-50m34.1 50v-50m10.4 49V2032m-673.6 51.2v-49.9m-11.2 49.2v-49.9m-11.2 50v-50m-11.4 50v-50"></path><path fill="#f1f1f1" stroke-width="0" d="M3459.4 2026.6h742.7v62.3h-742.7v-62.3z"></path><path fill="none" stroke="#f1f1f1" stroke-miterlimit="67.2" stroke-width="3" d="M3466.8 2032.8h727.9v49.9h-727.9v-49.9zm324.1 49.9v-50m-11.3 50v-50m-11.3 50v-50m-11.3 50v-50m-11.3 50v-50m-11.3 50v-50m-11.3 50v-50m-11.3 50v-50m-11.2 50v-50m-11.3 50v-50m-11.3 50v-50m-11.3 50v-50m-11.3 50v-50m-11.3 50v-50m-11.3 50v-50m180 50v-50m-11.2 50v-50m68.3 50v-50m-11.3 50v-50m-11.3 50v-50m-11.2 50v-50m-11.3 50v-50m-202.9 50v-50m-11.3 50v-50m-11.3 50v-50m293.5 50v-50m-11.3 50v-50m67.7 50v-50m-11.3 50v-50m-11.3 50v-50m-11.3 50v-50m-11.3 50v-50m68 50v-50m-11.2 50v-50m67.6 50v-50m-11.3 50v-50m-11.3 50v-50m-11.3 50v-50m-11.3 50v-50m56.8 50v-50m-450.9 50.4v-49.9m-11.3 50v-50m-11.3 50v-50m-11.2 50v-50m-11.2 49.2v-49.9m-11.3 50v-50m-11.3 50v-50m539.9 50.2v-50m-11.3 50v-50m67.6 50v-50m-11.2 50v-50m-11.4 50v-50m-11.2 50v-50m-11.3 50v-50m56.8 50v-50m33 50v-50m-11.3 50v-50m-11.3 50v-50m34.2 50v-50m10.3 49V2032m-673.6 51.2v-49.9m-11.1 49.2v-49.9m-11.3 50v-50m-11.3 50v-50"></path><path fill="#f1f1f1" stroke-width="0" d="M2604.5 2026.6h742.8v62.3h-742.8v-62.3z"></path><path fill="none" stroke="#f1f1f1" stroke-miterlimit="67.2" stroke-width="3" d="M2611.9 2032.8h728v49.9h-728v-49.9zm324.1 49.9v-50m-11.2 50v-50m-11.3 50v-50m-11.3 50v-50m-11.3 50v-50m-11.3 50v-50m-11.3 50v-50m-11.3 50v-50m-11.3 50v-50m-11.2 50v-50m-11.3 50v-50m-11.3 50v-50m-11.3 50v-50m-11.3 50v-50m-11.3 50v-50m180 50v-50m-11.2 50v-50m68.3 50v-50m-11.3 50v-50m-11.3 50v-50m-11.3 50v-50m-11.2 50v-50m-203 50v-50m-11.2 50v-50m-11.3 50v-50m293.5 50v-50m-11.3 50v-50m67.6 50v-50m-11.2 50v-50m-11.3 50v-50m-11.3 50v-50m-11.3 50v-50m68 50v-50m-11.3 50v-50m67.7 50v-50m-11.3 50v-50m-11.3 50v-50m-11.3 50v-50m-11.3 50v-50m56.8 50v-50m-450.9 50.4v-49.9m-11.3 50v-50m-11.3 50v-50m-11.3 50v-50m-11.1 49.2v-49.9m-11.3 50v-50m-11.3 50v-50m539.9 50.2v-50m-11.3 50v-50m67.6 50v-50m-11.3 50v-50m-11.3 50v-50m-11.3 50v-50m-11.2 50v-50m56.7 50v-50m33 50v-50m-11.2 50v-50m-11.3 50v-50m34.2 50v-50m10.3 49V2032m-673.6 51.2v-49.9m-11.1 49.2v-49.9m-11.3 50v-50m-11.3 50v-50"></path><path fill="#f1f1f1" stroke-width="0" d="M1165 1989.8h133.6v23.7H1165v-23.7z"></path><path d="M1678.5 891.3h-87.1A41.3 41.3 0 0 1 1550 850v-2a41.3 41.3 0 0 1 41.3-41.3h87v84.5Z" fill="#f1f1f1" stroke="#f1f1f1" stroke-miterlimit="67.2" stroke-width=".8"></path><path d="M1647.4 892.8h-57c-23.5 0-42.5-19-42.5-42.5v-2c0-23.4 19-42.5 42.5-42.5h57a12 12 0 0 1 12 12v63a12 12 0 0 1-12 12Z" fill="#f1f1f1" stroke="#f1f1f1" stroke-miterlimit="67.2" stroke-width=".8"></path><path d="M1645.5 889.8h-54.2a39.6 39.6 0 0 1-39.5-39.6v-1.8a39.5 39.5 0 0 1 39.5-39.5h54.2a10 10 0 0 1 10 9.8V880a10 10 0 0 1-10 9.9Z" fill="#f1f1f1" stroke="#f1f1f1" stroke-miterlimit="67.2" stroke-width=".8"></path><path fill="#f1f1f1" stroke="#f1f1f1" stroke-miterlimit="67.2" stroke-width=".5" d="M1616.5 975h254.9v100.6h-254.9V975z"></path><g><path d="m1691.7 1033.7-6 3.5 6-3.5Zm92.2-27.4 4.1-3.3-4.1 3.3Zm18.4-4.2 2.8 2.2-2.8-2.2Zm-3-6.2 3 6.2-3-6.2Zm-.2-3.7 1.8-4.5-1.8 4.5Zm-3.3 1.8 3.3-1.8-3.3 1.8Zm-5 1.5 5-1.5-5 1.5Zm-1 9.5 1.6 3.6-1.5-3.6Zm0-3.6v3.6-3.6Zm1-5.9-1 5.9 1-5.9Zm3.6-2.8-3.5 2.8 3.5-2.8Zm1.7-1.3-1.7 1.3 1.7-1.3Zm1.9-1.4-1.9 1.4 1.9-1.4Zm3-2.3-3 2.3 3-2.3Zm3-5.4-3 5.4 3-5.4Zm-37.2 1.4v1.7-1.7Zm-1.6-4.5 1.6 4.5-1.6-4.5Zm1-3-1 3 1-3Zm1.2 3.5 1.8-3.5-1.8 3.5Zm0 3.5v-3.5 3.5Zm3.2 2.5-3.2-2.5 3.2 2.5Zm2.6 1.7-2.6-1.7 2.6 1.7Zm3.8 0h-3.8 3.8Zm3.8 1-3.8-1 3.8 1Zm4.7 2.4-4.7-2.3 4.7 2.3Zm4 0h-4 4Zm3.8-1.6h3.2-3.2Zm-6.9 3 7-3-7 3Zm-2.9-.3 3 .3-3-.3Zm-5-2.7 5 2.7-5-2.7Zm-3.8 0h3.9-4Zm-4-1.2 4 1.2-4-1.2Zm.6 2.9-.5-2.9.5 2.9Zm.5 2.8-.5-2.8.5 2.8Zm-1.8 1.4 1.8-1.4-1.8 1.4Zm3 5.8-3-5.8 3 5.8Zm1 5.6-1-5.6 1 5.6Zm-1.3 2.7 1.4-2.7-1.4 2.7ZM1766 994l1-.9-1 .9Zm1.2 3.2-1.2-3.2 1.2 3.2Zm1.2 3.5-1.2-3.5 1.2 3.5Zm-2 1.4 2-1.4-2 1.4Zm3.2 4.6-3.2-4.6 3.2 4.6Zm-22.5 4 .4 2.5-.4-2.6Zm3.8-3-3.8 3 3.8-3Zm4.4-5.2-4.4 5.2 4.4-5.2Zm3.3-2.5-3.3 2.5 3.3-2.5Zm2-3.2-2 3.2 2-3.2Zm1.5-7.6 2.1 1.7-2.1-1.7Zm-2.9 4.7 2.9-4.7-2.9 4.7Zm-3.1 5.2 3.1-5.2-3.1 5.2Zm-2.8 4.5 2.8-4.5-2.8 4.5Zm-1.5 2.6 1.5-2.6-1.5 2.6Zm-2.3 3.8 2.3-3.8-2.3 3.8Zm-2 3.2 2-3.2-2 3.2Zm1.5 2.4-1.5-2.4 1.5 2.4Zm-2.5 3.1 2.5-3-2.5 3Zm-2 2.5 2-2.5-2 2.5Zm-.2-14.5 2.5-1.9-2.5 2Zm-1.6 2.2 1.6-2.2-1.6 2.2Zm2.1 2.8-2-2.8 2 2.8Zm-1.3 3 1.3-3-1.3 3Zm-1.3 1 1.3-1-1.3 1Zm-3.2-2.4 3.2 2.4-3.2-2.4Zm-2 3.7 1.3-2.5-1.3 2.5Zm-3-1 3 1-3-1Zm18.4-22.2-1.3 1.8 1.3-1.8Zm0-3v3-3Zm0-2.5v2.5-2.5Zm1.4-7.8-1.4 7.8 1.4-7.8Zm.2-3.2 1-1.2-1 1.2Zm5-1.2-5 1.2 5-1.2Zm-9 2.1 2.7-2.1-2.8 2.1Zm.5 2.6-.6-2.6.6 2.6Zm-1.8 3.6 1.8-3.6-1.8 3.6Zm0 4.2v-4.2 4.2Zm-2.5 4.7 2.5-4.7-2.5 4.7Zm2.4 4.4-2.4-4.4 2.4 4.4Zm-2.3 5.3 2.3-5.3-2.3 5.3Zm-4 3.2 4-3.2-4 3.2Zm-3 0h3-3Zm-5.5 0h5.6-5.6Zm44.5 15.4 6.3-4.9-6.3 5Zm28.8-17.7-6.1-9.4 6.1 9.4Zm1.7 7.5-1.7-7.5 1.7 7.5Zm9.1 9-9-9 9 9Zm13.3 21.2 1.5 1.1-1.5-1.1Zm0-3.6v3.6-3.6Zm-4.5-6.7 4.5 6.7-4.5-6.7Zm-2-8-3.8-5.5 3.8 5.4Zm7.2 10.3-7.2-10.4 7.2 10.4Zm1 5.3-1-5.3 1 5.3Zm2.4 5.6-2.4-5.6 2.4 5.6Zm-2.4 1.8 2.4-1.8-2.4 1.8Zm0 4.5v-4.5 4.5Zm8.6 23.5-2.3-2.1 2.3 2.1Zm-6-7 6 7-6-7Zm-1.5-7.5 1.5 7.5-1.5-7.5Zm-1.5-7.1 1.5 7.1-1.5-7.1Zm-2.4-4.1 2.4 4.1-2.4-4.1Zm1-4.6-1 4.6 1-4.6Zm-3.4-9.2 3.3 9.2-3.3-9.2Zm-.6 23.2-3.4-6.2 3.4 6.2Zm4.2 10-4.2-10 4.2 10Zm3.4 5-3.4-5 3.4 5Zm-1.4 1.3 1.4-1.4-1.4 1.4Zm-18.3-13.1 4.8 3.6-4.8-3.6Zm-9 .2 2.5-3-2.5 3Zm1.4 5.7-1.4-5.7 1.4 5.7Zm-1.4-15.6-5 6.1 5-6.1Zm2.7-3.2-2.7 3.2 2.7-3.2Zm0-5.4v5.4-5.4Zm-3.4-13.7.9 4.4-.9-4.4Zm1-4-1 4 1-4Zm-.9-3.4 1 3.4-1-3.4Zm-3.3-5.6 3.3 5.6-3.3-5.6Zm-32.5 50.4v3.8-3.8Zm-41.5-25.2-3-3.2 3 3.2Zm16.8 2 .8-3.2-.8 3.2Zm-.8 3.1.8-3-.8 3Zm29 5-.6 1.7.5-1.6Zm-.3-4.9.2 5-.2-5Zm2-5.9-2 6 2-6Zm0 4.8v-4.8 4.8Zm4.4.7-4.4-.7 4.4.7Zm4.3-5.5-4.3 5.5 4.3-5.5Zm0 9v-9 9Zm-1.4 11 1.4-11-1.4 11Zm0 6.3v-6.3 6.3Zm-4.1 6.7 4.1-6.7-4.1 6.7Zm.2.6-.2-.6.2.6Zm13.5-4.8-3.4 4.8 3.4-4.8Zm0-1.7v1.7-1.7Zm-2.9-1.3 3 1.3-3-1.3Zm-1.7-3 1.7 3-1.7-3Zm2-9-2 9 2-9Zm2.6-6.5-2.7 6.4 2.7-6.4Zm0-4.5v4.6-4.6Zm2.8-3.3-2.8 3.3 2.8-3.3Zm0-2.8v2.8-2.8Zm-3.2.8 3.2-.8-3.2.8Zm-.4-1 .4 1-.4-1Zm2.6-4.4-2.6 4.3 2.6-4.3Zm3-3.5-3 3.5 3-3.5Zm0-3.2v3.2-3.2Zm-2.7 2.1 2.7-2-2.7 2Zm-1-.6 1 .6-1-.6Zm-1-4.6 1 4.6-1-4.6Zm0-4.5v4.5-4.5Zm-1.1 2.2 1-2.2-1 2.2Zm-3.5 3.2 3.5-3.2-3.5 3.2Zm-5 4 5-4-5 4Zm-1.2 5.7 1.1-5.7-1 5.7Zm-3.2 4.4 3.2-4.4-3.2 4.4Zm-2.3 1.2 2.3-1.2-2.3 1.2Zm-1.7-5.1 1.7 5.1-1.7-5.1Zm-.4-3.3.4 3.3-.4-3.3Zm1.7-3.7-1.7 3.7 1.7-3.7Zm1-5.9-1 6 1-6Zm-5.6 9 2.5-4.4-2.5 4.5Zm0 4.7v-4.6 4.6Zm0 4.3v-4.3 4.3Zm-1 3 1-3-1 3Zm-1.8 1.9 1.8-2-1.8 2Zm1 2-1-2 1 2Zm0 2.7v-2.8 2.8Zm-1.8 0h1.8-1.8Zm-3.2 4 3.2-4-3.2 4Zm-2-13.8-2.7-1.9 2.6 2Zm2.3 0h-2.4 2.4Zm3.2 1.4-3.2-1.4 3.2 1.4Zm1.1-4-1 4 1-4Zm0-3.7v3.8-3.8Zm2-4.8-2 4.8 2-4.8Zm2.7-2.1-2.7 2.1 2.7-2.1Zm3.2-4.6-3.2 4.6 3.2-4.6Zm0-2.3v2.3-2.3Zm-1.8 1.4 1.7-1.4-1.7 1.4Zm-1.8 2 1.8-2-1.8 2Zm-6.2.5 6.2-.5-6.2.5Zm-3.5 0h3.5-3.5Zm-4.7 3.6 4.7-3.6-4.7 3.6Zm1 2-1-2 1 2Zm0 3.7v-3.8 3.8Zm-3.3 2.5 3.3-2.5-3.3 2.5Zm-4.1 3.7h5.8-5.8Zm-1.3 3 1.3-3-1.3 3Zm-.3-8.5 3-2.3-3 2.3Zm-3.2.7 3.2-.7-3.2.7Zm0 3.4v-3.4 3.4Zm33.3-40.6 3-2.4-3 2.4Zm-2.1 4 2.1-4-2.1 4Zm-1.3 4 1.3-4-1.3 4Zm0 2.6v-2.6 2.6Zm-1.5 2.5 1.5-2.5-1.5 2.5Zm0 4v-4 4Zm-1.1 3 1.1-3-1.1 3Zm-4 1.3h2.2-2.2Zm2.4-7.5v-1.1 1Zm-3.3 2.5 3.3-2.5-3.3 2.5Zm-1.6 1.3 1.6-1.3-1.6 1.3Zm-1.4 3.9 1.4-4-1.4 4Zm-1.4 1.1 1.4-1.1-1.4 1.1Zm-2.1.7 2-.7-2 .7Zm-3.3.6 3.3-.6-3.3.6Zm-3 2.3 3-2.3-3 2.3Zm2.2-2.4-2.2 2.4 2.2-2.4Zm0-4v4-4Zm2.2-3.5-2.2 3.4 2.2-3.4Zm-2.2 0h2.2-2.2Zm-3 4 3-4-3 4Zm-2.9 6.4 3-6.4-3 6.4Zm1.8 3-1.8-3 1.8 3Zm-2.2 2.6 2.2-2.6-2.2 2.6Zm-3.9 3 3.9-3-3.9 3Zm-1.2-4.3 1.2 4.3-1.2-4.3Zm1.7-1.3-1.7 1.3 1.7-1.3Zm-1.7-1.4 1.7 1.4-1.7-1.4Zm-1.8 0h1.8-1.8Zm-2.6-2 2.6 2-2.6-2Zm-113.3-24.4 3.3 2-3.3-2Zm-8-1.5 8 1.5-8-1.5Zm59.7-11.2 1.6 4.3-1.6-4.3Zm22 33.1 2.6-4.1-2.5 4.1Zm6.3-3.7v-5 5Zm-4.3 6.2 4.3-6.2-4.3 6.2Zm0 5.9v-6 6Zm15.6 10.2 2.2 2.5-2.2-2.5Zm1.6-3.3-1.6 3.3 1.6-3.3Zm-2.6-2 2.6 2-2.6-2Zm-1.6 3 1.6-3-1.6 3Zm18 21v-3.3 3.3Zm-3.8 3.8 3-2.4-3 2.4Zm-1.9 2.7 1.9-2.7-1.9 2.7Zm-4.2-5.3 4.2 5.3-4.2-5.3Zm25.8-1.3 1.3 4.4-1.3-4.4Zm-.7-.8.7.8-.7-.8Zm-5.4-5.5 5.4 5.5-5.4-5.5Zm-4.3.9 4.3-1-4.3 1Zm0-2.2v2.2-2.2Zm29.4 16.1 3-8.9-3 8.9Zm4.8 9.7v.2-.2Zm2.8-4.5-2.8 4.5 2.8-4.5Zm0-7.8v7.8-7.8Zm2.4-10.7-2.4 10.7 2.4-10.7Zm-1 .9 1-.9-1 .9Zm-1.7-3.9 1.6 3.9-1.6-3.9Zm-3.6 1 3.6-1-3.6 1Zm0 4.4v-4.5 4.5Zm-5.2 5.2 5.2-5.2-5.2 5.2Zm2.6 10-2.6-10 2.6 10Zm0 5.6v-5.6 5.6Zm-4.1-1 .2 1-.2-1Zm-1-7.6 1 7.6-1-7.6Zm1.2-5.4-1.3 5.4 1.3-5.4Zm2-8.9-2 9 2-9Zm-2.7-1.2 2.7 1.2-2.7-1.2Zm-3.6 4.8 3.6-4.8-3.6 4.8Zm-1.4-6 1.4 6-1.4-6Zm2.4-5.6-2.4 5.6 2.4-5.6Zm-3.1-.8 3 .8-3-.8Zm-3 0h3-3Zm0-5.5v5.5-5.5Zm-3.9-1.2 3.8 1.2-3.8-1.2Zm-3.7 6.7 3.7-6.7-3.7 6.7Zm0 6.4v-6.4 6.4Zm2.1 6-2-6 2 6Zm0 5.3v-5.3 5.3Zm3.2 9 2 5-2-5Zm-2.5-1.5 2.5 1.5-2.5-1.5Zm-1.4-5.7 1.4 5.7-1.4-5.7Zm-2.7-5 2.7 5-2.7-5Zm-5-4 5 4-5-4Zm-6 1.4 6-1.3-6 1.3Zm0-7.4v7.4-7.4Zm-5.4-2.7 5.4 2.7-5.4-2.7Zm-3.4-2.7 3.4 2.7-3.4-2.7Zm-4.3-.7 4.3.7-4.3-.7Zm-1.2 1.2 1.2-1.2-1.2 1.2Zm4-2.8-3.8-1.2 3.7 1.2Zm5.2 3-5.3-3 5.3 3Zm6.8 3.7-6.8-3.8 6.8 3.8Zm1.3-1-1.3 1 1.3-1Zm0-3.5v3.5-3.5Zm2-6.3-2 6.3 2-6.3Zm-1-1.7 1 1.7-1-1.7Zm2.2-2.5-2.2 2.5 2.2-2.5Zm-4.5-5 4.5 5-4.5-5Zm1.3-5.3-1.3 5.3 1.3-5.3Zm-1.3-2.2 1.3 2.2-1.3-2.2Zm-3.6 0h3.6-3.6Zm0 4.5v-4.5 4.5Zm-2.9-2.2 2.9 2.2-2.9-2.2Zm-3 .8 3-.8-3 .8Zm-.5 3.5.5-3.5-.5 3.5Zm-3.8 4.6 3.8-4.6-3.8 4.6Zm-2 3.8 2-3.8-2 3.8Zm0 4.6v-4.6 4.6Zm1-11.8 2.7-6.2-2.7 6.2Zm-4.4 2.3 4.4-2.3-4.4 2.3Zm-2.4-51 3.4 7.7-3.4-7.6Zm5.2-1.1.4-.5-.4.5Zm-8.3 1.6-.5-2.1.5 2.1Zm4.6-.6-4.6.6 4.6-.6Zm2 .6-2-.6 2 .6Zm0 7.2v-7.2 7.2Zm20.2-1.8 7-5.4-7 5.4Zm-9.1 9 9.1-9-9.1 9Zm-4.4 3.4 4.4-3.4-4.4 3.4Zm-2.9-6.3 3 6.3-3-6.3Zm1.8 8.3-1.8-8.3 1.8 8.3Zm0 6.5V998v6.5Zm5 3.9-5-4 5 4Zm-3 7.4 3-7.4-3 7.4Zm-2 5.5 2-5.5-2 5.5Zm0 5.2v-5.2 5.2Zm-6.2 4.8 6.2-4.8-6.2 4.8Zm-3.4-2.6 3.4 2.6-3.4-2.6Zm1.2-3.8-1.2 3.8 1.2-3.8Zm1.3-3.6-1.3 3.6 1.3-3.6Zm-3.7-5.5 3.7 5.5-3.7-5.5Zm-31.9-.2 13.5-2 9.4 1.5 9 .7 3.7 5.5-35.6-5.7Zm31.9 10.1 3.7-4.4-3.7 4.4Zm0 6.7v-6.7 6.7Zm-9-1.8 9 1.8-9-1.8Zm-18.8 37.3h-5 5Zm-3.3-2.6 3.3 2.6-3.3-2.6Zm-1.6-8.9 4.4-3.4-4.4 3.4Zm1.7-5 10.8-3.3-10.8 3.4Zm-4 3.2 4-3.1-4 3.1Zm-6 0h6-6Zm-5 5.7 5-5.7-5 5.7Zm-4.8-54 1-4.4-1 4.4Zm4.6-19.1 2 1.6-2-1.6Zm-.9-4.4.9 4.4-.9-4.4Zm-4.2-2.9 4.2 3-4.2-3Zm-2.7-3.8 2.7 3.8-2.7-3.8Zm26.6 2.2-.8-2.2.8 2.2Zm-3.4 1.4 3.4-1.4-3.4 1.4Zm-6.3 2.7 6.3-2.7-6.3 2.7Zm-3 3.3 3-3.3-3 3.3Zm9.5 29.1 2 1.6-2-1.6Zm-4.8-1.5h3-3Zm-6.5-3.4 2.5 2-2.5-2Zm-4.5 0h4.5-4.5Zm23.6 63.9-.4.5.4-.5Zm1.8-1.5-1.8 1.5 1.8-1.5Zm-3.7 0h3.7-3.7Zm-2.2-1.7 2.2 1.7-2.2-1.7Zm-1.6 0h1.6-1.6Zm-6.1-5.9-.5 1.2.5-1.2Zm1.2-2.6-1.2 2.6 1.2-2.6Zm0-4v4-4Zm-2.5 0h2.5-2.5Zm-3.7-.9 3.7 1-3.7-1Zm-4.5 3.4 4.5-3.4-4.5 3.4Zm1-14.6v3.7-3.7Zm.7 5.1h4.1-4Zm-2.4 4.7 2.4-4.7-2.4 4.7Zm-2.8 0h2.8-2.8Zm-1.4-2.2 1.4 2.2-1.4-2.2Zm.8-3.2-.8 3.2.8-3.2Zm3-5.3-3 5.3 3-5.3Zm22.6-10.3v-1.6 1.6Zm2 3.3-1.6-1.3 1.6 1.3Zm3.7 0h-3.7 3.7Zm2.8.5 1-4.2-1 4.2Zm-1.6 6.8 1.6-6.8-1.6 6.8Zm-1 4.3 1-4.3-1 4.3Zm-2.2 17.7 2.2-17.7-2.2 17.7Zm0 0-1.7 7 1.7-7Zm-2.7 2.1 2.7-2.1-2.7 2.1Zm-2.7 0h2.7-2.7Zm0-2.7v2.7-2.7Zm-4.9-5 5 5-5-5Zm0-2.4v2.5-2.5Zm2.2-4-2.2 4 2.2-4Zm4-3-4 3 4-3Zm2.9 0h-3 3Zm3.4-2.7-3.4 2.7 3.4-2.7Zm-3.6-4.3h4.6-4.6Zm-6 2.3 6-2.3-6 2.3Zm-7.6 2.7 7.5-2.7-7.5 2.7Zm-5.4-1.6 5.4 1.6-5.4-1.6Zm-1.6-3.8 1.6 3.8-1.6-3.8Zm3.7-2.8-3.7 2.8 3.7-2.8Zm1.5-4.6-1.5 4.6 1.5-4.6Zm3.8-.5-3.8.5 3.8-.5Zm10-6.6h2.1-2.2Zm-4 3 4-3-4 3Zm-7.3 2.2 7.3-2.1-7.3 2.1Zm-3.2 2.5 3.2-2.5-3.2 2.5Zm-5.4 5.7 5.4-5.7-5.4 5.7Zm-3.4-.5 3.4.5-3.4-.5Zm.2-1-.2 1 .2-1Zm.7-2.9-.7 3 .7-3Zm1.6-6.6-1.6 6.6 1.6-6.6Zm-6.1 10.1-7.2 8 7.2-8Zm2.7-5.4-2.7 5.4 2.7-5.4Zm3.4-4.7-3.4 4.7 3.4-4.7Zm5.2-7-5.2 7 5.2-7Zm-2.6-8.9 2.6 8.9-2.6-8.9Zm-49-1.9 7.7 3.3-7.6-3.3Zm6.5 11.6 5.6 1.6-5.6-1.6Zm-3.6-2.7 3.6 2.7-3.6-2.7Zm-1.2-2.9 1.2 2.9-1.2-2.9Zm-5.7-.8 5.7.8-5.7-.8Zm-2.8-2.3-2.6 1.5 2.6-1.5Zm6.7-3.8-6.7 3.8 6.7-3.8Zm5.5-7.4-5.5 7.4 5.5-7.4Zm30.9 4.6 1-.8-1 .8Zm-4.7 0h4.7-4.7Zm-2.6-2.1 2.6 2-2.6-2Zm-6-1 6 1-6-1Zm6-2.1-4.9-1.6 5 1.6Zm6 0h-6 6Zm4.1 1.9-4.1-2 4.1 2Zm3.4 3.9-3.4-4 3.4 4Zm7 4-7-4 7 4Zm3.3-10.6 5.4 7.1-5.4-7.1Zm-3.5-5.7 3.5 5.7-3.5-5.7Zm-2-7.5 2 7.5-2-7.5Zm0 4v-4 4Zm-5 1.9 5-1.9-5 1.9Zm-9.4 3.4 9.3-3.4-9.3 3.4Zm57.8 65.7 1.2 7.1-1.2-7.1Zm3-4.3-3 4.3 3-4.3Zm2.7-20.7-2.7 20.7 2.7-20.7Zm-5.4-3.5 5.4 3.5-5.4-3.5Zm-4.9-4.7 4.9 4.7-4.9-4.7Zm-7.4-1.7 7.4 1.7-7.4-1.7Zm-2.7-2 2.7 2-2.7-2Zm-5-4.5 5 4.4-5-4.4Zm-7-4.6 7 4.6-7-4.6Zm-2.8-7.7 2.8 7.7-2.8-7.7Zm-10.1-12.4 10 12.4-10-12.4Zm-2.7-13.3 2.7 13.3-2.7-13.3Zm-3.5 7.6 3.5-7.6-3.5 7.6Zm-2.6 0h2.6-2.6Zm-8.9 3.5 8.9-3.5-8.9 3.5Zm-13.6 5.3 13.6-5.3-13.6 5.3Zm-13.6-1.5 13.6 1.5-13.6-1.5Zm-4.2-6.3 4.2 6.3-4.2-6.3Zm-7.3-1.2 7.3 1.2-7.3-1.2Zm-5.9-1 5.9 1-5.9-1Zm.3-18.1-.3.2.3-.2Zm21.1 98.2 3.1-3.2-3 3.2Zm190.7-93.3 2.8 2.2-2.8-2.2Zm-8-2.4 8 2.4-8-2.4Zm-4.8-.1-5.8 1.4 5.8-1.4Zm2.2-2.4-2.2 2.4 2.2-2.4Zm-3.2.1.2-.1-.2.1Zm-1.8 1.4 1.8-1.4-1.8 1.4Zm-3 2.3 3-2.3-3 2.3Zm-6.9 2.3 7-2.3-7 2.3Zm9-6.1v.4-.4Zm19 8.6-12.2-4.7 12.1 4.7Zm9.7 1.4-9.8-1.4 9.8 1.4Zm11.7 7-11.7-7 11.7 7Zm14 6.8 3.3 1.4-3.4-1.4Zm-10.5-1.6-7-2.9 7 2.9Zm13.4 5.6-13.4-5.6 13.4 5.6Zm.4 0h-.4.4Zm-6.1-20.6 5.7.6-5.7-.6Zm-5.1.8 5-.8-5 .8Zm-4.4-.7 4.4.7-4.4-.7Zm-7.2-2.5 7.2 2.5-7.2-2.5Zm16.9-4.4.8-.4-.8.4Zm-4.2 0h4.2-4.2Zm.6-.4-.6.4.6-.4Zm-179.5 98.2v-3.8 3.8Zm-3.4-2.6 3.4 2.6-3.4-2.6Zm-11.5-1.2-4.4 3.4 4.4-3.4Zm-6.4 1.4-1.2 2.4 1.2-2.4Zm4.1-3.2-4 3.2 4-3.2Zm0-4.7v4.7-4.7Zm7.3-3.7-7.3 3.7 7.3-3.7Zm13.4 13.5v.5-.5Zm-7.6-4.8 1.4-.4-1.4.4Zm-3.5 1 3.5-1-3.5 1Zm-5 0h5-5Zm0-2v2-2Zm-1.2-2.9 1.2 2.9-1.2-2.9Zm4.4-3.4-4.4 3.4 4.4-3.4Zm-19 .8h4.8-4.7Zm6.7.5v3.2-3.2Zm6-1.9-6 1.9 6-1.9Zm0-2.2v2.2-2.2Zm-2.8-1 2.8 1-2.8-1Zm-4.2.6 4.2-.6-4.2.6Zm-6.7 2.4 6.7-2.4-6.7 2.4Zm21.6 12.3 1.8 1.1-1.8-1Zm-3.2 0h3.2-3.2Zm-3.3 1.1 3.3-1-3.3 1Zm-8.3-4.7-2.8 4.7 2.8-4.7Zm-2-4.2 2 4.2-2-4.2Zm-5-1.2 5 1.2-5-1.2Zm-3.7 2.8 3.8-2.8-3.8 2.8Zm-5.8 1.2 5.8-1.2-5.8 1.2Zm-.7 3 .7-3-.7 3Zm-1.8-1.1-2 4.2 2-4.2Zm3.2-2.5-3.2 2.5 3.2-2.5Zm7.4-4.2-7.4 4.2 7.4-4.2Zm-.7-2.6.7 2.6-.7-2.6Zm-1.2.1 1.2-.1-1.2.1Zm-3.8.6 3.8-.6-3.8.6Zm-8.5 1.3 8.5-1.3-8.5 1.3Zm13-4.8 10.5-5.6-10.4 5.6Zm-6.9 2 7-2-7 2Zm-6 2.8 6-2.7-6 2.7Zm-9.2 4 9.1-4-9 4Zm-10-1.8 10 1.7-10-1.7Zm0-32.8.3.5-.3-.5Zm11.2-.4 2 4.4-2-4.4Zm-3.6-2.8 3.6 2.8-3.6-2.8Zm-3.7-1 3.7 1-3.7-1Zm-1-4.3 1 4.4-1-4.4Zm-2.9-2.4 1.8-1.8-1.8 1.8Zm0 0Z" fill="#f1f1f1" stroke-width="0"></path><path id="_1_0" data-name="1 0" d="m1691.7 1033.7-6 3.5m98.2-31 4.1-3.2m14.3-1 2.8 2.3m-5.9-8.4 3 6.2m-3-10 1.7-4.4m-5.1 6.3 3.3-1.8m-8.2 3.3 4.9-1.5m-6 11 1.6 3.6m-1.5-7.2v3.6m1-9.5-1 5.9m4.5-8.7-3.5 2.8m5.2-4.1-1.7 1.3m3.6-2.7-1.9 1.4m4.8-3.7-3 2.3m6-7.7-3 5.4m-34-4v1.7m-1.7-6.2 1.6 4.5m-.6-7.5-1 3m2.2.5 1.8-3.5m-1.8 7v-3.5m3.2 6-3.2-2.5m5.8 4.2-2.6-1.7m6.4 1.7h-3.8m7.6 1-3.8-1m8.5 3.4-4.7-2.3m8.8 2.3h-4.1m7.8-1.6h3.2m-10 3 6.8-3m-9.8 2.7 3 .3m-8-3 5 2.7m-8.8-2.7h3.9m-7.8-1.2 3.9 1.2m-3.4 1.7-.5-2.9m1 5.7-.5-2.8m-1.3 4.2 1.8-1.4m1.3 7.2-3.1-5.8m4 11.4-1-5.6m-.3 8.3 1.4-2.7M1766 994l1-.9m.2 4-1.2-3.1m2.4 6.7-1.2-3.5m-.8 5 2-1.5m1.2 6-3.2-4.6m-19.3 8.5.4 2.6m3.4-5.5-3.8 3m8.2-8.2-4.4 5.2m7.7-7.7-3.3 2.5m5.2-5.7-2 3.2m3.6-10.8 2.1 1.7m-5 3 2.9-4.7m-6 9.9 3.1-5.2m-5.9 9.7 2.8-4.5m-4.3 7 1.5-2.5m-3.8 6.4 2.3-3.8m-4.3 7 2-3.2m-.5 5.6-1.5-2.4m-1 5.5 2.5-3m-4.4 5.5 2-2.5m-2.3-12 2.5-1.9m-4 4.1 1.5-2.2m.5 5-2-2.8m.7 5.8 1.3-3m-2.6 4 1.3-1m-4.5-1.4 3.2 2.4m-5.2 1.3 1.3-2.5m-4.3 1.6 3 1m15.4-23.3-1.3 1.8m1.3-4.8v3m0-5.5v2.5m1.4-10.3-1.4 7.8m1.6-11 1-1.2m4 0-5 1.2m-4 1 2.7-2.2m-2.2 4.7-.6-2.6m-1.2 6.2 1.8-3.6m-1.8 7.8v-4.2m-2.5 9 2.5-4.8m0 9-2.5-4.3m.1 9.7 2.3-5.3m-6.4 8.5 4.1-3.2m-7 3.2h3m-8.5 0h5.6m38.9 15.4 6.3-4.9m22.5-12.8-6.1-9.4m7.8 17-1.7-7.6m10.8 16.6-9-9m22.3 30 1.5 1.2m-1.5-4.7v3.6m-4.5-10.3 4.5 6.7m-6.5-14.8-3.8-5.4m11 15.8-7.2-10.4m8.2 15.7-1-5.3m3.4 11-2.4-5.7m0 7.4 2.4-1.8m-2.4 6.3v-4.5m8.6 28-2.3-2.1m-3.7-5 6 7.1m-7.5-14.5 1.5 7.5m-3-14.6 1.5 7.1m-4-11.2 2.5 4.1m-1.5-8.7-1 4.6m-2.3-13.8 3.3 9.2m-3.9 14-3.4-6.2m7.6 16.3-4.2-10m7.6 14.8-3.4-4.8m2 6.2 1.4-1.4m-19.7-11.7 4.8 3.6m-13.8-3.4 2.5-3m-1.1 8.7-1.4-5.7m0-9.9-5 6.1m7.7-9.3-2.7 3.2m2.7-8.6v5.4m-3.4-19.1.9 4.4m.2-8.4-1 4m0-7.4 1 3.4m-4.3-9 3.3 5.6m-35.8 44.8v3.8m-41.5-29-3-3.2m19.8 5.2.8-3.2m-1.6 6.3.8-3m28.1 8-.5 1.7m.3-6.6.2 5m1.8-10.9-2 6m2-1.2v-4.8m4.4 5.5-4.4-.7m8.7-4.8-4.3 5.5m4.3 3.5v-9m-1.4 20 1.4-11m-1.4 17.3v-6.3m-4.1 13 4.1-6.7m-3.9 7.3-.2-.6m13.7-4.2-3.5 4.8m3.5-6.5v1.7m-2.9-3 3 1.3m-4.7-4.3 1.7 3m.2-12-1.9 9m4.6-15.5-2.7 6.4m2.7-10.9v4.6m2.8-7.9-2.8 3.3m2.8-6v2.7m-3.2-2 3.2-.8m-3.6-.3.4 1.1m2.2-5.4-2.6 4.3m5.6-7.8-3 3.5m3-6.7v3.2m-2.7-1 2.7-2.2m-3.7 1.5 1 .6m-2-5.2 1 4.6m-1-9.1v4.5m-1.1-2.3 1-2.2m-4.5 5.4 3.5-3.2m-8.6 7.2 5-4m-6 9.7 1-5.7m-4.3 10.1 3.2-4.4m-5.5 5.6 2.3-1.2m-4-4 1.7 5.2m-2-8.4.3 3.3m1.3-7-1.7 3.7m2.8-9.6-1.1 6m-4.6 3 2.5-4.4m-2.5 9.1v-4.6m0 9v-4.4m-1 7.3 1-3m-2.8 4.9 1.8-2m-.8 4-1-2m1 4.7v-2.8m-1.8 2.8h1.8m-5 4 3.2-4m-5.3-9.8-2.6-1.9m5 2h-2.4m5.6 1.3-3.2-1.4m4.3-2.5-1 4m1-7.8v3.8m2-8.6-2 4.8m4.7-6.9-2.7 2.1m5.9-6.7-3.2 4.6m3.2-6.9v2.3m-1.8-1 1.7-1.3m-3.5 3.4 1.8-2m-8 2.5 6.2-.5m-9.7.5h3.5m-8.2 3.6 4.7-3.6m-3.7 5.5-1-1.9m1 5.7v-3.8m-3.3 6.3 3.3-2.5m-7.4 6.2h5.8m-7.1 3 1.3-3m-1.6-5.5 3-2.3m-6.2 3 3.2-.7m-3.2 4.1v-3.4m33.3-37.2 3-2.4m-5.1 6.4 2.1-4m-3.4 8 1.3-4m-1.3 6.6v-2.6m-1.5 5.1 1.5-2.5m-1.5 6.5v-4m-1.1 7 1.1-3m-5 4.3h2m.3-7.5v-1.1m-3.3 3.6 3.3-2.5m-5 3.8 1.7-1.3m-3 5.2 1.4-4m-2.8 5.1 1.4-1.1m-3.5 1.8 2-.7m-5.3 1.3 3.3-.6m-6.3 3 3-2.4m-.8-.1-2.2 2.4m2.2-6.5v4m2.2-7.4-2.2 3.4m0-3.4h2.2m-5.1 4 2.9-4m-5.9 10.4 3-6.4m-1.2 9.4-1.8-3m-.4 5.6 2.2-2.6m-6 5.6 3.8-3m-5.1-1.3 1.2 4.3m.5-5.6-1.7 1.3m0-2.7 1.7 1.4m-3.5-1.4h1.8m-4.4-2 2.6 2m-115.9-26.4 3.3 2m-11.2-3.5 8 1.5m51.6-12.7 1.6 4.3m20.5 28.8 2.5-4.1m3.7.4v-5m-4.3 11.2 4.3-6.2m-4.3 12v-5.8m15.6 16.1 2.2 2.5m-.6-5.8-1.6 3.3m-1-5.3 2.6 2m-4.2 1 1.6-3m16.5 24v-3.3m-4 7 3.1-2.3m-4.9 5.1 1.9-2.7m-6-2.6 4.1 5.3m21.6-6.6 1.3 4.4m-2-5.2.7.8m-6.1-6.3 5.4 5.5m-9.7-4.6 4.3-1m-4.3-1.2v2.2m29.4 13.9 3-8.9m1.8 18.6v.2m2.8-4.7-2.8 4.5m2.8-12.3v7.8m2.4-18.5-2.4 10.7m1.3-9.8 1.1-.9m-2.7-3 1.6 3.9m-5.2-3 3.6-.9m-3.6 5.4v-4.5m-5.2 9.7 5.2-5.2m-2.6 15.2-2.6-10m2.6 15.6v-5.6m-4.1 4.6.2 1m-1.3-8.6 1 7.6m.3-13-1.3 5.4m3.3-14.3-2 9m-.7-10.2 2.7 1.2m-6.3 3.6 3.6-4.8m-5-1.2 1.4 6m1-11.6-2.4 5.6m-.7-6.4 3 .8m-6-.8h3m-3-5.5v5.5m-3.9-6.7 3.8 1.2m-7.5 5.5 3.7-6.7m-3.7 13.1v-6.4m2.1 12.4-2-6m2 11.3v-5.3m3.2 14.3 2 5m-4.5-6.5 2.5 1.5m-4-7.2 1.5 5.7m-4.1-10.7 2.7 5m-7.8-9 5 4m-10.9-2.6 6-1.3m-6-6.1v7.4m-5.4-10 5.4 2.6m-8.8-5.4 3.4 2.7m-7.7-3.4 4.3.7m-5.5.5 1.2-1.2m2.7-1.6-3.7-1.2m9 4.1-5.3-3m12 6.8-6.7-3.8m8.1 2.8-1.3 1m1.3-4.5v3.5m2-9.8-2 6.3m1-8 1 1.7m1.2-4.2-2.2 2.5m-2.3-7.5 4.5 5m-3.2-10.3-1.3 5.3m0-7.5 1.3 2.2m-5-2.2h3.7m-3.6 4.5v-4.5m-2.9 2.3 2.9 2.2m-6-1.4 3.1-.8m-3.5 4.3.5-3.5m-4.3 8.1 3.8-4.6m-5.8 8.4 2-3.8m-2 8.4v-4.6m1-7.2 2.7-6.2m-7.1 8.5 4.4-2.3m-6.8-48.6 3.4 7.6m1.8-8.8.4-.5m-8.7 2.1-.5-2.1m5 1.5-4.5.6m6.5 0-2-.6m2 7.8v-7.2m20.3 5.4 7-5.4m-16.1 14.4 9.1-9m-13.5 12.4 4.4-3.4m-7.3-2.9 3 6.3m-1.2 2-1.8-8.3m1.8 14.8V998m5 10.4-5-4m2 11.4 3-7.4m-5 12.9 2-5.5m-2 10.7v-5.2m-6.2 10 6.2-4.8m-9.6 2.2 3.4 2.6m-2.2-6.4-1.2 3.8m2.4-7.4-1.2 3.6m-2.4-9.1 3.6 5.5m-35.5-5.7 13.5-2 9.4 1.5 9 .7 3.6 5.5m-3.6 4.4 3.6-4.4m-3.6 11.1v-6.7m-9 5 9 1.7m-27.8 35.5h-5m1.7-2.6 3.3 2.6m-5-11.5 4.5-3.4m-2.7-1.5 10.8-3.4m-14.8 6.5 4-3.1m-10 3.1h6m-11 5.7 5-5.7m-9.8-48.3 1-4.4m3.6-14.7 2 1.6m-2.9-6 .9 4.4m-5.1-7.3 4.2 3m-6.9-6.8 2.7 3.8m24-1.6-1-2.2m-2.5 3.6 3.4-1.4m-9.7 4 6.3-2.6m-9.3 6 3-3.3m6.5 32.4 2 1.6m-6.8-3h3m-9.5-3.5 2.5 2m-7-2h4.5m19 63.9-.3.5m2.2-2-1.8 1.5m-2-1.5h3.8m-5.9-1.7 2.2 1.7m-3.8-1.7h1.6m-7.7-5.9-.5 1.2m1.7-3.8-1.2 2.6m1.2-6.5v3.9m-2.5-4h2.5m-6.2-.9 3.7 1m-8.2 2.4 4.5-3.4m-3.5-11.2v3.7m.7 1.4h4.1m-6.5 4.7 2.4-4.7m-5.2 4.7h2.8m-4.2-2.2 1.4 2.2m-.6-5.4-.8 3.2m3.8-8.5-3 5.3m25.6-15.6v-1.6m2 4.9-1.6-1.3m5.3 1.3h-3.7m6.5.5 1-4.2m-2.6 11 1.6-6.8m-2.6 11 1-4.2m-3.2 22 2.2-17.7m-2.2 17.7-1.7 7m-1-4.9 2.7-2.1m-5.4 2.1h2.7m-2.7-2.7v2.7m-5-7.6 5 5m-5-7.5v2.5m2.3-6.5-2.2 4m6.1-7-4 3m7-3h-3m6.4-2.7-3.4 2.6m-.2-6.9h4.6m-10.7 2.3 6.1-2.3m-13.6 5 7.5-2.7m-13 1.1 5.5 1.6m-7-5.4 1.6 3.8m2.1-6.6-3.7 2.8m5.2-7.4-1.5 4.6m5.3-5-3.8.4m13.7-7h2.2m-6 3 3.8-3m-11.3 5.1 7.4-2.1m-10.5 4.6 3.1-2.5m-8.5 8.2 5.4-5.7m-8.8 5.2 3.4.5m-3.2-1.4-.2 1m.9-4-.7 3m2.3-9.6-1.6 6.6m-4.5 3.5-7.2 8m9.9-13.4-2.7 5.4m6-10-3.3 4.6m8.6-11.7-5.2 7m2.6-15.9 2.6 8.9m-51.5-10.8 7.6 3.3m-1.2 8.3 5.6 1.6m-9.2-4.4 3.6 2.8m-4.8-5.6 1.2 2.8m-6.9-3.6 5.7.8m-8.5-3.1-2.6 1.5m9.3-5.3-6.7 3.8m12.2-11.2-5.5 7.4m36.4-2.8 1-.8m-5.7.8h4.7m-7.3-2.1 2.6 2m-8.5-3 5.9 1m0-3.1-4.9-1.6m10.9 1.6h-6m10.1 1.9-4.1-2m7.5 5.9-3.4-4m10.4 8-7-4m10.3-6.6 5.4 7.1m-8.9-12.8 3.5 5.7m-5.6-13.2 2.1 7.5m-2-3.5v-4m-5 5.9 5-1.9m-14.4 5.3 9.3-3.4m48.5 69 1.2 7.2m1.8-11.4-3 4.3m5.7-25-2.7 20.7m-2.7-24.2 5.4 3.5m-10.3-8.2 4.9 4.7m-12.3-6.4 7.4 1.7m-10-3.8 2.6 2.1m-7.6-6.5 5 4.4m-12.1-9 7 4.6m-9.8-12.3 2.8 7.7m-13-20.1 10.2 12.4m-12.8-25.7 2.7 13.3m-6.2-5.7 3.5-7.6m-6.1 7.6h2.6m-11.5 3.5 8.9-3.5m-22.5 8.8 13.6-5.3m-27.2 3.8 13.6 1.5m-17.8-7.8 4.2 6.3m-11.5-7.5 7.3 1.2m-13.2-2.3 5.9 1m-5.6-19-.3.2m21.4 98 3.1-3.2m187.6-90.1 2.8 2.2m-10.8-4.6 8 2.4m-12.8-2.5-5.8 1.4m8-3.8-2.2 2.4m-1-2.3.2-.1m-2 1.5 1.8-1.4m-4.8 3.7 3-2.3m-9.9 4.6 7-2.3m2-3.8v.4m19 8.2-12.2-4.7m21.9 6-9.8-1.3m21.5 8.4-11.7-7m25.6 13.8 3.4 1.4m-13.8-3-7-2.9m20.4 8.5-13.4-5.6m13.8 5.7-.4-.1m-5.7-20.6 5.7.6m-10.8.2 5-.8m-9.4 0 4.4.8m-11.6-3.2 7.2 2.5m9.7-6.9.8-.4m-5 .4h4.2m-3.6-.4-.6.4m-179 97.8v-3.8m-3.3 1.2 3.4 2.6m-14.9-3.8-4.4 3.4m-2-2-1.2 2.4m5.3-5.6-4 3.2m4-7.9v4.7m7.3-8.4-7.3 3.7m20.7 9.8v.5m-7.6-5.3 1.4-.4m-4.9 1.4 3.5-1m-8.5 1h5m-5-2v2m-1.2-4.9 1.2 2.9m3.2-6.3-4.4 3.4m-14.5-2.6h4.7m2 .5v3.2m6-5-6 1.8m6-4v2.1m-2.9-3.2 2.8 1m-7-.4 4.2-.6m-11 3 6.8-2.4m14.9 14.7 1.8 1.1m-5-1h3.2m-6.5 1 3.3-1m-11.6-3.7-2.8 4.7m.7-9 2.1 4.3m-7-5.4 5 1.2m-8.7 1.6 3.8-2.8m-9.6 4 5.8-1.2m-6.5 4.1.7-3m-2.5 2-2 4.2m5.2-6.7-3.2 2.5m10.6-6.7-7.4 4.2m6.7-6.8.7 2.6m-1.9-2.5 1.2-.1m-5 .7 3.8-.6m-12.3 1.9 8.5-1.3m4.6-3.5 10.4-5.6m-17.4 7.7 7-2.1m-13 4.8 6-2.7m-15.2 6.6 9.1-4m-19 2.3 10 1.7m-10-34.5.2.5m10.9-1 2 4.5m-5.6-7.2 3.6 2.8m-7.3-3.7 3.7 1m-4.7-5.4 1 4.4m-3.9-6.8 1.8-1.8m-1.8 1.8h0Z" fill="none" stroke="#f1f1f1" stroke-linecap="round" stroke-linejoin="round" stroke-width="1"></path></g><path fill="#f1f1f1" stroke="#f1f1f1" stroke-miterlimit="67.2" stroke-width=".6" d="M1740.7 981.5h12.4v36h-12.4v-36z"></path><path fill="#f1f1f1" stroke="#f1f1f1" stroke-miterlimit="67.2" stroke-width=".6" d="M1743.6 989.5h6.5v20.3h-6.5v-20.3z"></path><path d="M1809 806.8h87.2a41.3 41.3 0 0 1 41.3 41.3v1.9a41.3 41.3 0 0 1-41.3 41.3H1809v-84.5Z" fill="#f1f1f1" stroke="#f1f1f1" stroke-miterlimit="67.2" stroke-width=".8"></path><path d="M1840.2 805.8h57a42.6 42.6 0 0 1 42.5 42.6v1.9c0 23.4-19 42.5-42.6 42.5h-57a12 12 0 0 1-11.9-12v-63a12 12 0 0 1 12-12Z" fill="#f1f1f1" stroke="#f1f1f1" stroke-miterlimit="67.2" stroke-width=".8"></path><path d="M1842 808.9h54.2a39.5 39.5 0 0 1 39.6 39.5v1.8a39.6 39.6 0 0 1-39.6 39.6H1842a9.9 9.9 0 0 1-9.9-10v-61a10 10 0 0 1 9.9-10ZM1079.2 894h-87a41.3 41.3 0 0 1-41.4-41.3v-1.9a41.3 41.3 0 0 1 41.3-41.3h87.1V894Z" fill="#f1f1f1" stroke="#f1f1f1" stroke-miterlimit="67.2" stroke-width=".8"></path><path d="M1048.2 895.5h-57c-23.5 0-42.6-19-42.6-42.6V851c0-23.4 19-42.5 42.6-42.5h57a12 12 0 0 1 11.9 12v63a12 12 0 0 1-12 12Z" fill="#f1f1f1" stroke="#f1f1f1" stroke-miterlimit="67.2" stroke-width=".8"></path><path d="M1046.3 892.4h-54.2a39.6 39.6 0 0 1-39.6-39.5V851a39.6 39.6 0 0 1 39.6-39.5h54.2c5.5 0 9.9 4.4 9.9 9.8v61.2c0 5.4-4.4 9.8-9.9 9.8Zm163.5-82.9h87.1a41.3 41.3 0 0 1 41.3 41.3v1.9a41.3 41.3 0 0 1-41.3 41.2h-87v-84.4Z" fill="#f1f1f1" stroke="#f1f1f1" stroke-miterlimit="67.2" stroke-width=".8"></path><path d="M1241 808.5h57c23.4 0 42.4 19 42.4 42.5v2c0 23.4-19 42.5-42.5 42.5h-57a12 12 0 0 1-12-12v-63a12 12 0 0 1 12-12Z" fill="#f1f1f1" stroke="#f1f1f1" stroke-miterlimit="67.2" stroke-width=".8"></path><path d="M1242.8 811.6h54.2a39.6 39.6 0 0 1 39.5 39.5v1.8a39.6 39.6 0 0 1-39.5 39.5h-54.2a9.8 9.8 0 0 1-9.9-9.8v-61.2c0-5.4 4.4-9.8 9.9-9.8Z" fill="#f1f1f1" stroke="#f1f1f1" stroke-miterlimit="67.2" stroke-width=".8"></path><path fill="#f1f1f1" stroke="#f1f1f1" stroke-miterlimit="67.2" stroke-width=".5" d="M1019.7 974.5h254.9v100.6h-254.9V974.5z"></path><g><path d="m1095 1033.2-6 3.5 6-3.5Zm92-27.4 4.3-3.3-4.2 3.3Zm18.5-4.2 2.8 2.2-2.8-2.2Zm-3-6.2 3 6.2-3-6.2Zm-.2-3.7 1.9-4.5-1.9 4.5Zm-3.3 1.8 3.3-1.8-3.3 1.8Zm-4.9 1.5 4.9-1.5-4.9 1.5Zm-1 9.5 1.5 3.6-1.5-3.6Zm0-3.6v3.6-3.6Zm1-5.9-1 6 1-6Zm3.5-2.7-3.5 2.7 3.5-2.7Zm1.7-1.4-1.7 1.4 1.7-1.4Zm1.9-1.4-1.9 1.4 1.9-1.4Zm3-2.3-3 2.3 3-2.3Zm3-5.4-3 5.4 3-5.4Zm-37.2 1.4v1.7-1.7Zm-1.6-4.5 1.6 4.5-1.6-4.5Zm1-3-1 3 1-3Zm1.3 3.5 1.7-3.5-1.7 3.5Zm0 3.5v-3.5 3.5Zm3.1 2.5-3.1-2.5 3.1 2.5Zm2.6 1.7-2.6-1.7 2.6 1.7Zm3.8 0h-3.8 3.8Zm3.8 1-3.8-1 3.8 1Zm4.7 2.4-4.7-2.3 4.7 2.3Zm4 0h-4 4Zm3.8-1.6h3.2-3.2Zm-6.9 3 7-3-7 3Zm-2.9-.2 3 .2-3-.2Zm-5-2.8 5 2.8-5-2.8Zm-3.8 0h3.9-4Zm-4-1.2 4 1.2-4-1.2Zm.6 2.9-.5-2.9.5 2.9Zm.5 2.8-.5-2.8.5 2.8Zm-1.8 1.4 1.8-1.4-1.8 1.4Zm3 5.9-3-5.9 3 5.9Zm1 5.5-1-5.5 1 5.5Zm-1.3 2.7 1.4-2.7-1.4 2.7Zm-6.7-15.1 1-.9-1 .9Zm1.2 3.2-1.2-3.2 1.2 3.2Zm1.2 3.5-1.2-3.5 1.2 3.5Zm-2 1.4 2-1.4-2 1.4Zm3.2 4.6-3.1-4.6 3.1 4.6Zm-22.5 4 .4 2.5-.4-2.6Zm3.8-3-3.8 3 3.8-3Zm4.4-5.2-4.4 5.2 4.4-5.2Zm3.3-2.5-3.3 2.5 3.3-2.5Zm2-3.2-2 3.2 2-3.2Zm1.5-7.6 2.1 1.7-2.1-1.7Zm-2.9 4.7 2.9-4.7-2.9 4.7Zm-3.1 5.2 3.1-5.2-3.1 5.2Zm-2.7 4.5 2.7-4.5-2.7 4.5Zm-1.6 2.6 1.6-2.6-1.6 2.6Zm-2.3 3.8 2.3-3.8-2.3 3.8Zm-2 3.2 2-3.2-2 3.2Zm1.5 2.4-1.5-2.4 1.5 2.4Zm-2.4 3.1 2.4-3-2.4 3Zm-2 2.5 2-2.5-2 2.5Zm-.3-14.5 2.5-1.9-2.5 2Zm-1.6 2.2 1.6-2.2-1.6 2.2Zm2.1 2.8-2-2.8 2 2.8Zm-1.3 3 1.3-3-1.3 3Zm-1.3 1 1.3-1-1.3 1Zm-3.2-2.4 3.2 2.4-3.2-2.4Zm-2 3.7 1.3-2.5-1.3 2.5Zm-3-1 3 1-3-1Zm18.4-22.2-1.2 1.9 1.2-2Zm0-3v3-3Zm0-2.5v2.5-2.5Zm1.4-7.8-1.4 7.8 1.4-7.8Zm.2-3.2 1-1.2-1 1.2Zm5-1.2-5 1.2 5-1.2Zm-9 2.2 2.7-2.2-2.7 2.2Zm.5 2.5-.5-2.5.5 2.5Zm-1.7 3.6 1.7-3.6-1.7 3.6Zm0 4.2V984v4.2Zm-2.6 4.7 2.6-4.7-2.6 4.7Zm2.4 4.4-2.4-4.4 2.4 4.4Zm-2.2 5.3 2.2-5.3-2.2 5.3Zm-4.2 3.2 4.2-3.2-4.2 3.2Zm-2.8 0h2.8-2.8Zm-5.6 0h5.6-5.6Zm44.5 15.5 6.4-5-6.4 5Zm28.8-17.8-6.1-9.4 6.1 9.4Zm1.7 7.5-1.7-7.5 1.7 7.5Zm9.2 9-9.2-9 9.2 9Zm13.2 21.2 1.5 1.1-1.5-1.1Zm0-3.6v3.6-3.6Zm-4.5-6.7 4.5 6.7-4.5-6.7Zm-2-8-3.8-5.5 3.8 5.4Zm7.2 10.3-7.2-10.4 7.2 10.4Zm1 5.3-1-5.3 1 5.3Zm2.4 5.6-2.3-5.6 2.3 5.6Zm-2.3 1.8 2.3-1.8-2.3 1.8Zm0 4.5v-4.5 4.5Zm8.5 23.5-2.3-2.1 2.3 2.1Zm-6-7 6.1 7-6.1-7Zm-1.5-7.5 1.5 7.5-1.5-7.5Zm-1.5-7.1 1.5 7.1-1.5-7.1Zm-2.4-4.1 2.4 4.1-2.4-4.1Zm1-4.6-1 4.6 1-4.6Zm-3.4-9.2 3.3 9.2-3.3-9.2Zm-.6 23.2-3.4-6.2 3.4 6.2Zm4.2 10-4.2-10 4.2 10Zm3.4 5-3.4-5 3.4 5Zm-1.4 1.3 1.4-1.4-1.4 1.4Zm-18.2-13.1 4.7 3.6-4.7-3.6Zm-9.1.2 2.5-3-2.5 3Zm1.4 5.8-1.4-5.8 1.4 5.8Zm-1.3-15.7-5.2 6.1 5.2-6.1Zm2.6-3.2-2.6 3.2 2.6-3.2Zm0-5.4v5.4-5.4Zm-3.4-13.7.9 4.5-.9-4.5Zm1-4-1 4 1-4Zm-.9-3.4 1 3.4-1-3.4Zm-3.2-5.6 3.2 5.6-3.2-5.6Zm-32.6 50.4v3.8-3.8Zm-41.5-25.2-3-3.2 3 3.2Zm16.8 2 .8-3.2-.8 3.2Zm-.8 3.2.8-3.2-.8 3.2Zm29 5-.5 1.6.4-1.6Zm-.3-5 .2 5-.2-5Zm2-5.9-2 6 2-6Zm0 4.8v-4.8 4.8Zm4.4.7-4.4-.7 4.4.7Zm4.3-5.5-4.3 5.5 4.3-5.5Zm0 9v-9 9Zm-1.4 11 1.4-11-1.4 11Zm0 6.3v-6.3 6.3Zm-4.1 6.8 4.1-6.8-4.1 6.8Zm.2.5-.2-.5.2.5Zm13.5-4.8-3.4 4.8 3.4-4.8Zm0-1.7v1.7-1.7Zm-2.9-1.3 3 1.3-3-1.3Zm-1.7-3 1.7 3-1.7-3Zm2-9-2 9 2-9Zm2.6-6.4-2.7 6.3 2.7-6.3Zm0-4.6v4.6-4.6Zm2.7-3.3-2.7 3.3 2.7-3.3Zm0-2.7v2.7-2.7Zm-3 .7 3-.7-3 .7Zm-.5-1 .4 1-.4-1Zm2.6-4.3-2.6 4.2 2.6-4.2Zm3-3.6-3 3.6 3-3.6Zm0-3.2v3.2-3.2Zm-2.6 2.1 2.7-2-2.7 2Zm-1-.6 1 .6-1-.6Zm-1.2-4.6 1.1 4.6-1-4.6Zm0-4.5v4.5-4.5Zm-1 2.2 1-2.2-1 2.2Zm-3.5 3.2 3.5-3.2-3.5 3.2Zm-5 4 5-4-5 4Zm-1.1 5.8 1-5.8-1 5.8Zm-3.3 4.3 3.3-4.3-3.3 4.3Zm-2.3 1.3 2.3-1.3-2.3 1.3Zm-1.7-5.2 1.7 5.2-1.7-5.2Zm-.3-3.3.3 3.3-.3-3.3Zm1.6-3.7-1.6 3.7 1.6-3.7Zm1-5.9-1 6 1-6Zm-5.5 9 2.5-4.4-2.5 4.5Zm0 4.7v-4.6 4.6Zm0 4.4v-4.4 4.4Zm-1.1 2.9 1-3-1 3Zm-1.8 1.9 1.8-2-1.8 2Zm1 2-1-2 1 2Zm0 2.7v-2.8 2.8Zm-1.8 0h1.8-1.8Zm-3.2 4 3.2-4-3.2 4Zm-2-13.7-2.7-2 2.6 2Zm2.3 0h-2.4 2.4Zm3.2 1.3-3.2-1.3 3.2 1.3Zm1.1-4-1 4 1-4Zm0-3.7v3.8-3.8Zm2-4.8-2 4.8 2-4.8Zm2.8-2.1-2.7 2.1 2.7-2.1Zm3-4.6-3 4.6 3-4.6Zm0-2.3v2.3-2.3Zm-1.7 1.4 1.8-1.4-1.8 1.4Zm-1.8 2 1.8-2-1.8 2Zm-6.1.5 6-.5-6 .5Zm-3.6 0h3.6-3.6Zm-4.7 3.6 4.7-3.6-4.7 3.6Zm1 2-1-2 1 2Zm0 3.7v-3.8 3.8Zm-3.3 2.5 3.3-2.5-3.3 2.5Zm-4.1 3.7h5.8-5.8Zm-1.3 3 1.3-3-1.3 3Zm-.3-8.5 3-2.3-3 2.3Zm-3.2.7 3.2-.7-3.2.7Zm0 3.4v-3.4 3.4Zm33.3-40.6 3-2.4-3 2.4Zm-2 4 2-4-2 4Zm-1.4 4 1.3-4-1.3 4Zm0 2.6v-2.6 2.6Zm-1.5 2.5 1.5-2.5-1.5 2.5Zm0 4v-4 4Zm-1.1 3 1.1-3-1.1 3Zm-4 1.3h2.2-2.2Zm2.4-7.5v-1.1 1Zm-3.3 2.5 3.3-2.5-3.3 2.5Zm-1.7 1.3 1.7-1.3-1.7 1.3Zm-1.2 3.9 1.2-4-1.2 4Zm-1.5 1.1 1.5-1.1-1.5 1.1Zm-2.1.7 2-.7-2 .7Zm-3.4.6 3.4-.6-3.4.6Zm-2.9 2.3 3-2.3-3 2.3Zm2.2-2.4-2.2 2.4 2.2-2.4Zm0-4v4-4Zm2.2-3.5-2.2 3.4 2.2-3.4Zm-2.2 0h2.2-2.2Zm-2.9 4 2.9-4-2.9 4Zm-3 6.4 3-6.4-3 6.4Zm1.8 3-1.8-3 1.8 3Zm-2.2 2.6 2.2-2.5-2.2 2.5Zm-3.9 3 3.9-3-3.9 3Zm-1.2-4.3 1.2 4.3-1.2-4.3Zm1.7-1.3-1.7 1.3 1.7-1.3Zm-1.7-1.4 1.7 1.4-1.7-1.4Zm-1.8 0h1.8-1.8Zm-2.6-2 2.6 2-2.6-2ZM1033 998l3.2 2-3.2-2Zm-8-1.5 8 1.5-8-1.5Zm59.6-11.2 1.6 4.3-1.6-4.3Zm22.1 33.1 2.5-4.1-2.5 4.1Zm6.2-3.7v-5 5Zm-4.3 6.2 4.3-6.2-4.3 6.2Zm0 5.9v-6 6Zm15.7 10.2 2 2.5-2-2.5Zm1.5-3.3-1.5 3.3 1.5-3.3Zm-2.6-2 2.6 2-2.6-2Zm-1.6 3 1.6-3-1.6 3Zm18.1 21v-3.3 3.3Zm-4 3.8 3.2-2.4-3.1 2.4Zm-1.8 2.7 1.9-2.7-1.9 2.7Zm-4.2-5.3 4.2 5.3-4.2-5.3Zm25.8-1.3 1.3 4.5-1.3-4.5Zm-.7-.8.7.8-.7-.8Zm-5.4-5.5 5.4 5.5-5.4-5.5Zm-4.3 1 4.3-1-4.3 1Zm0-2.3v2.2-2.2Zm29.4 16.1 3.1-8.9-3.1 8.9Zm4.8 9.7v.2-.2Zm2.8-4.5-2.8 4.5 2.8-4.5Zm0-7.8v7.8-7.8Zm2.4-10.6-2.4 10.6 2.4-10.6Zm-1 .8 1-.8-1 .8Zm-1.7-3.9 1.6 3.9-1.6-3.9Zm-3.6 1 3.6-1-3.6 1Zm0 4.5v-4.6 4.6Zm-5.2 5.1 5.2-5.1-5.2 5.1Zm2.6 10-2.6-10 2.6 10Zm0 5.6v-5.6 5.6Zm-4.1-1 .2 1-.2-1Zm-1-7.6 1 7.6-1-7.6Zm1.2-5.3-1.3 5.3 1.3-5.3Zm2-9-2 9 2-9Zm-2.7-1.2 2.7 1.3-2.7-1.3Zm-3.6 4.8 3.6-4.8-3.6 4.8Zm-1.3-6 1.3 6-1.3-6Zm2.3-5.6-2.3 5.6 2.3-5.6Zm-3.1-.8 3 .8-3-.8Zm-3 0h3-3Zm0-5.5v5.5-5.5Zm-3.9-1.2 3.8 1.2-3.8-1.2Zm-3.7 6.7 3.7-6.7-3.7 6.7Zm0 6.4v-6.4 6.4Zm2.1 6-2-6 2 6Zm0 5.4v-5.4 5.4Zm3.2 8.9 2 5-2-5Zm-2.4-1.5 2.4 1.5-2.4-1.5Zm-1.5-5.7 1.5 5.7-1.5-5.7Zm-2.7-5 2.7 5-2.7-5Zm-5-3.9 5 3.9-5-3.9Zm-6 1.3 6-1.3-6 1.3Zm0-7.4v7.4-7.4Zm-5.4-2.7 5.5 2.7-5.5-2.7Zm-3.4-2.7 3.4 2.7-3.4-2.7Zm-4.2-.7 4.2.7-4.2-.7Zm-1.3 1.2 1.3-1.2-1.3 1.2Zm4-2.8-3.8-1.2 3.8 1.2Zm5.2 3-5.2-3 5.2 3Zm6.8 3.7-6.8-3.8 6.8 3.8Zm1.3-1-1.3 1 1.3-1Zm0-3.5v3.5-3.5Zm2.1-6.3-2 6.3 2-6.3Zm-1.1-1.7 1.1 1.7-1.1-1.7Zm2.2-2.5-2.2 2.5 2.2-2.5Zm-4.5-5 4.5 5-4.5-5Zm1.3-5.3-1.3 5.3 1.3-5.3Zm-1.3-2.2 1.3 2.2-1.3-2.2Zm-3.6 0h3.6-3.6Zm0 4.5v-4.5 4.5Zm-2.9-2.2 2.9 2.2-2.9-2.2Zm-3 .8 3-.8-3 .8Zm-.5 3.5.5-3.5-.5 3.5Zm-3.8 4.6 3.8-4.6-3.8 4.6Zm-2 3.8 2-3.8-2 3.8Zm0 4.6v-4.6 4.6Zm1-11.8 2.7-6.2-2.7 6.2Zm-4.4 2.3 4.4-2.3-4.4 2.3Zm-2.4-51 3.4 7.7-3.4-7.6Zm5.2-1.1.4-.5-.4.5Zm-8.3 1.6-.5-2.1.5 2.1Zm4.6-.6-4.6.6 4.6-.6Zm2 .6-2-.6 2 .6Zm0 7.2v-7.2 7.2Zm20.2-1.8 7-5.3-7 5.3Zm-9.1 9 9.1-9-9.1 9Zm-4.3 3.4 4.3-3.4-4.3 3.4Zm-3-6.3 3 6.3-3-6.3Zm1.8 8.3-1.8-8.3 1.8 8.3Zm0 6.5v-6.5 6.5Zm5 3.9-5-4 5 4Zm-3 7.4 3-7.4-3 7.4Zm-2 5.5 2-5.5-2 5.5Zm0 5.2v-5.2 5.2Zm-6.2 4.8 6.2-4.8-6.2 4.8Zm-3.4-2.6 3.4 2.6-3.4-2.6Zm1.3-3.8-1.3 3.8 1.3-3.8Zm1.2-3.6-1.2 3.6 1.2-3.6Zm-3.7-5.5 3.7 5.5-3.7-5.5Zm-31.9-.2 13.5-2 9.4 1.5 9 .7 3.7 5.5-35.6-5.7Zm31.9 10.1 3.7-4.4-3.7 4.4Zm0 6.7v-6.7 6.7Zm-9-1.8 9 1.8-9-1.8Zm-18.8 37.3h-5 5Zm-3.3-2.6 3.3 2.6-3.3-2.6Zm-1.6-8.9 4.4-3.4-4.4 3.4Zm1.7-5 10.8-3.3-10.8 3.4Zm-4 3.2 4-3.1-4 3.1Zm-6 0h6-6Zm-5 5.7 5-5.7-5 5.7Zm-4.8-54 1-4.4-1 4.4Zm4.6-19.1 2 1.6-2-1.6Zm-.9-4.4 1 4.4-1-4.4Zm-4.2-2.9 4.2 3-4.2-3Zm-2.7-3.8 2.7 3.8-2.7-3.8Zm26.6 2.2-.8-2.2.8 2.2Zm-3.4 1.5 3.4-1.5-3.4 1.5Zm-6.3 2.6 6.3-2.6-6.3 2.6Zm-3 3.3 3-3.3-3 3.3Zm9.5 29.1 2 1.6-2-1.6Zm-4.8-1.5h3-3Zm-6.5-3.4 2.5 2-2.5-2Zm-4.5 0h4.5-4.5Zm23.6 63.9-.4.5.4-.5Zm1.8-1.5-1.8 1.5 1.8-1.5Zm-3.7 0h3.7-3.7Zm-2.2-1.6 2.2 1.6-2.2-1.6Zm-1.6 0h1.6-1.6Zm-6-6-.6 1.2.5-1.2Zm1.1-2.6-1.2 2.6 1.2-2.6Zm0-4v4-4Zm-2.5 0h2.5-2.5Zm-3.7-.9 3.7 1-3.7-1Zm-4.5 3.4 4.5-3.4-4.5 3.4Zm1-14.6v3.7-3.7Zm.7 5.2h4.1-4Zm-2.4 4.6 2.4-4.6-2.4 4.6Zm-2.8 0h2.8-2.8Zm-1.3-2.2 1.3 2.2-1.3-2.2Zm.7-3.2-.7 3.2.7-3.2Zm3-5.3-3 5.3 3-5.3Zm22.6-10.3v-1.6 1.6Zm2 3.3-1.6-1.3 1.6 1.3Zm3.7 0h-3.7 3.7Zm2.8.5 1-4.2-1 4.2Zm-1.6 6.8 1.6-6.8-1.6 6.8Zm-1 4.3 1-4.3-1 4.3Zm-2.2 17.7 2.2-17.7-2.2 17.7Zm0 0-1.6 7 1.6-7Zm-2.7 2.1 2.7-2.1-2.7 2.1Zm-2.7 0h2.7-2.7Zm0-2.6v2.6-2.6Zm-4.9-5 5 5-5-5Zm0-2.5v2.5-2.5Zm2.2-4-2.2 4 2.2-4Zm4-3-4 3 4-3Zm2.9 0h-3 3Zm3.4-2.7-3.4 2.7 3.4-2.7Zm-3.6-4.3h4.6-4.6Zm-6 2.3 6-2.3-6 2.3Zm-7.6 2.7 7.5-2.7-7.5 2.7Zm-5.4-1.6 5.4 1.6-5.4-1.6Zm-1.6-3.8 1.6 3.8-1.6-3.8Zm3.7-2.8-3.7 2.8 3.7-2.8Zm1.5-4.6-1.5 4.6 1.5-4.6Zm3.8-.5-3.8.5 3.8-.5Zm10-6.6h2.1-2.2Zm-4 3 4-3-4 3Zm-7.3 2.2 7.3-2.1-7.3 2.1Zm-3.2 2.5 3.2-2.5-3.2 2.5Zm-5.4 5.7 5.4-5.7-5.4 5.7Zm-3.4-.5 3.4.5-3.4-.5Zm.2-1-.2 1 .2-1Zm.7-2.9-.7 3 .7-3Zm1.6-6.6-1.6 6.6 1.6-6.6Zm-6.1 10.1-7.2 8.1 7.2-8Zm2.7-5.4-2.7 5.4 2.7-5.4Zm3.4-4.7-3.4 4.7 3.4-4.7Zm5.2-7-5.2 7 5.2-7Zm-2.6-8.9 2.6 8.9-2.6-8.9Zm-49-1.9 7.7 3.3-7.6-3.3Zm6.5 11.6 5.6 1.6-5.6-1.6Zm-3.6-2.7 3.6 2.7-3.6-2.7Zm-1.2-2.9 1.2 2.9-1.2-2.9Zm-5.7-.8 5.7.8-5.7-.8Zm-2.8-2.3-2.6 1.5 2.6-1.5Zm6.7-3.8-6.7 3.8 6.7-3.8Zm5.5-7.4-5.5 7.4 5.5-7.4Zm31 4.6 1-.8-1 .8Zm-4.7 0h4.6-4.6Zm-2.7-2 2.7 2-2.7-2Zm-6-1 6 1-6-1Zm6-2.2-4.9-1.6 5 1.6Zm6 0h-6 6Zm4.2 1.9-4.2-2 4.2 2Zm3.3 3.9-3.3-4 3.3 4Zm7 4-7-4 7 4Zm3.3-10.6 5.4 7.2-5.4-7.2Zm-3.5-5.7 3.5 5.7-3.5-5.7Zm-2-7.4 2 7.4-2-7.4Zm0 4v-4 4Zm-5 1.8 5-1.9-5 1.9Zm-9.4 3.4 9.3-3.4-9.3 3.4Zm57.8 65.7 1.2 7.1-1.2-7.1Zm3-4.3-3 4.3 3-4.3Zm2.7-20.7-2.7 20.7 2.7-20.7Zm-5.4-3.5 5.4 3.5-5.4-3.5Zm-5-4.7 5 4.7-5-4.7Zm-7.3-1.7 7.4 1.7-7.4-1.7Zm-2.7-2 2.7 2-2.7-2Zm-5-4.5 5 4.4-5-4.4Zm-7-4.6 7 4.6-7-4.6Zm-2.8-7.7 2.8 7.7-2.8-7.7Zm-10.1-12.4 10 12.4-10-12.4Zm-2.7-13.3 2.7 13.3-2.7-13.3Zm-3.5 7.6 3.5-7.6-3.5 7.6Zm-2.6 0h2.6-2.6Zm-8.9 3.5 8.9-3.5-8.9 3.5Zm-13.6 5.3 13.6-5.3-13.6 5.3Zm-13.6-1.5 13.6 1.5-13.6-1.5Zm-4.2-6.3 4.2 6.3-4.2-6.3Zm-7.3-1.2 7.3 1.2-7.3-1.2Zm-5.9-1 5.9 1-5.9-1Zm.3-18.1-.3.2.3-.2Zm21.2 98.2 3-3.2-3 3.2Zm190.6-93.3 2.8 2.2-2.8-2.2Zm-8-2.4 8 2.4-8-2.4Zm-4.8-.1-5.7 1.4 5.7-1.4Zm2.2-2.4-2.2 2.4 2.2-2.4Zm-3.2.1.2-.1-.2.1Zm-1.8 1.4 1.8-1.4-1.8 1.4Zm-3 2.3 3-2.3-3 2.3Zm-6.9 2.3 7-2.3-7 2.3Zm9-6.1v.4-.4Zm19 8.6-12.2-4.7 12.1 4.7Zm9.7 1.4-9.8-1.4 9.8 1.4Zm11.7 7-11.7-7 11.7 7Zm14 6.8 3.3 1.4-3.4-1.4ZM1260 998l-7-2.9 7 3Zm13.4 5.6L1260 998l13.4 5.6Zm.4 0h-.4.4Zm-6.1-20.6 5.7.6-5.7-.6Zm-5.1.8 5-.8-5 .8Zm-4.4-.7 4.4.7-4.4-.7Zm-7.2-2.5 7.2 2.5-7.2-2.5Zm16.9-4.4.8-.4-.8.4Zm-4.2 0h4.2-4.2Zm.6-.4-.6.4.6-.4Zm-179.5 98.2v-3.8 3.8Zm-3.4-2.6 3.4 2.6-3.4-2.6Zm-11.5-1.2-4.4 3.4 4.4-3.4Zm-6.3 1.4-1.3 2.4 1.3-2.4Zm4-3.2-4 3.2 4-3.2Zm0-4.7v4.7-4.7Zm7.3-3.7-7.3 3.7 7.3-3.7Zm13.4 13.5v.5-.5Zm-7.7-4.7 1.5-.5-1.5.5Zm-3.4.9 3.4-1-3.4 1Zm-5 0h5-5Zm0-2v2-2Zm-1.3-2.9 1.3 2.9-1.3-2.9Zm4.5-3.4-4.5 3.4 4.5-3.4Zm-19 .8h4.8-4.7Zm6.7.5v3.2-3.2Zm6-1.9-6 1.9 6-1.9Zm0-2.2v2.2-2.2Zm-2.8-1 2.8 1-2.8-1Zm-4.2.6 4.2-.6-4.2.6Zm-6.7 2.4 6.7-2.4-6.7 2.4Zm21.6 12.3 1.8 1.1-1.8-1Zm-3.2 0h3.2-3.2Zm-3.3 1.1 3.3-1-3.3 1Zm-8.3-4.7-2.8 4.7 2.8-4.7Zm-2-4.2 2 4.2-2-4.2Zm-5-1.2 5 1.2-5-1.2Zm-3.7 2.8 3.8-2.8-3.8 2.8Zm-5.8 1.2 5.8-1.2-5.8 1.2Zm-.7 3 .7-3-.7 3Zm-1.8-1.1-2 4.2 2-4.2Zm3.2-2.5-3.2 2.5 3.2-2.5Zm7.4-4.2-7.4 4.2 7.4-4.2Zm-.6-2.6.6 2.6-.6-2.6Zm-1.2.1 1.2-.1-1.2.1Zm-3.9.6 3.9-.6-3.9.6Zm-8.5 1.3 8.5-1.3-8.5 1.3Zm13-4.8 10.5-5.6-10.4 5.6Zm-6.9 2 7-2-7 2Zm-6 2.8 6-2.7-6 2.7Zm-9.1 4 9-4-9 4Zm-10-1.8 10 1.7-10-1.7Zm0-32.7.3.4-.4-.4Zm11-.5 2 4.4-2-4.4Zm-3.5-2.7 3.6 2.7-3.6-2.7Zm-3.7-1 3.7 1-3.7-1Zm-1-4.4 1 4.4-1-4.4Zm-2.9-2.4 1.8-1.8-1.8 1.8Zm0 0Z" fill="#f1f1f1" stroke-width="0"></path><path id="_1_1" data-name="1 1" d="m1095 1033.2-6 3.5m98-31 4.3-3.2m14.2-1 2.8 2.3m-5.9-8.4 3.1 6.2m-3.2-10 1.9-4.4m-5.2 6.3 3.3-1.8m-8.2 3.3 4.9-1.5m-5.9 11 1.5 3.6m-1.5-7.2v3.6m1-9.5-1 6m4.5-8.7-3.5 2.7m5.2-4.1-1.7 1.4m3.6-2.8-1.9 1.4m4.9-3.7-3 2.3m6-7.7-3 5.4m-34.2-4v1.7m-1.6-6.2 1.6 4.5m-.6-7.5-1 3m2.3.5 1.7-3.5m-1.7 7v-3.5m3.1 6-3.1-2.5m5.7 4.2-2.6-1.7m6.4 1.7h-3.8m7.6 1-3.8-1m8.5 3.4-4.7-2.3m8.8 2.3h-4.1m7.8-1.6h3.2m-10 3 6.8-3m-9.8 2.8 3 .2m-8-3 5 2.8m-8.8-2.8h3.9m-7.8-1.2 3.9 1.2m-3.4 1.7-.5-2.9m1 5.7-.5-2.8m-1.3 4.2 1.8-1.4m1.3 7.3-3.1-5.9m4 11.4-1-5.5m-.3 8.2 1.4-2.7m-8-12.4 1-.9m0 4.1-1-3.2m2.3 6.7-1.2-3.5m-.7 5 2-1.5m1.1 6-3.1-4.6m-19.4 8.5.4 2.6m3.4-5.5-3.8 3m8.2-8.2-4.4 5.2m7.7-7.7-3.3 2.5m5.2-5.7-2 3.2m3.6-10.8 2.1 1.7m-5 3 2.9-4.7m-6 10 3.1-5.3m-5.8 9.7 2.7-4.5m-4.3 7 1.6-2.5m-4 6.4 2.4-3.8m-4.3 7 2-3.2m-.5 5.6-1.5-2.4m-1 5.5 2.5-3m-4.4 5.5 2-2.5m-2.3-12 2.5-1.9m-4 4.1 1.5-2.2m.5 5-2-2.8m.7 5.8 1.3-3m-2.6 4 1.3-1m-4.5-1.4 3.2 2.4m-5.2 1.3 1.3-2.5m-4.3 1.6 3 1m15.4-23.3-1.2 1.9m1.2-4.9v3m0-5.5v2.5m1.4-10.3-1.4 7.8m1.6-11 1-1.2m4 0-5 1.2m-4 1 2.7-2.2m-2.2 4.7-.5-2.5m-1.2 6 1.7-3.5m-1.7 7.8V984m-2.6 9 2.6-4.8m-.2 9-2.4-4.3m.2 9.7 2.2-5.3m-6.4 8.5 4.2-3.2m-7 3.2h2.8m-8.4 0h5.6m38.9 15.5 6.4-5m22.4-12.8-6.1-9.4m7.8 17-1.7-7.6m10.9 16.6-9.2-9m22.4 30 1.5 1.2m-1.5-4.7v3.6m-4.5-10.3 4.5 6.7m-6.5-14.8-3.8-5.4m11 15.8-7.2-10.4m8.3 15.7-1-5.3m3.3 11-2.3-5.7m0 7.4 2.3-1.8m-2.3 6.3v-4.5m8.5 28-2.3-2.1m-3.7-5 6.1 7.1m-7.6-14.5 1.5 7.5m-3-14.6 1.5 7.1m-4-11.2 2.5 4.1m-1.5-8.7-1 4.6m-2.3-13.8 3.3 9.2m-3.9 14-3.4-6.2m7.6 16.3-4.2-10m7.6 14.8-3.4-4.8m2 6.2 1.4-1.4m-19.6-11.7 4.7 3.6m-13.8-3.4 2.5-3m-1.1 8.8-1.4-5.8m0-9.9-5 6.1m7.7-9.3-2.6 3.2m2.6-8.6v5.4m-3.4-19.1.9 4.5m.2-8.5-1 4m0-7.4 1 3.4m-4.2-9 3.2 5.6m-35.8 44.8v3.8m-41.5-29-3-3.2m19.8 5.2.8-3.2m-1.6 6.3.8-3m28.1 8-.4 1.7m.2-6.6.2 5m1.8-10.9-2 6m2-1.2v-4.8m4.4 5.5-4.4-.7m8.7-4.8-4.3 5.5m4.3 3.5v-9m-1.4 20 1.4-11m-1.4 17.3v-6.3m-4.1 13 4.1-6.7m-3.9 7.3-.2-.5m13.7-4.3-3.4 4.8m3.4-6.5v1.7m-2.9-3 3 1.3m-4.7-4.3 1.7 3m.2-12-1.9 9m4.6-15.4-2.7 6.3m2.7-10.9v4.6m2.7-7.9-2.7 3.3m2.7-6v2.7m-3-2 3-.7m-3.5-.4.4 1.1m2.2-5.3-2.6 4.2m5.7-7.8-3.1 3.6m3-6.8v3.2m-2.6-1 2.7-2.2m-3.8 1.5 1 .6m-2-5.2 1 4.6m-1-9.1v4.5m-1.1-2.3 1-2.2m-4.5 5.4 3.5-3.2m-8.6 7.2 5.1-4m-6.1 9.8 1-5.8m-4.3 10.1 3.3-4.3m-5.6 5.6 2.3-1.3m-4-4 1.7 5.3m-2-8.5.3 3.3m1.3-7-1.6 3.7m2.7-9.6-1.1 6m-4.5 3 2.5-4.4m-2.5 9.1v-4.6m0 9v-4.4m-1.1 7.3 1-3m-2.8 4.9 1.8-2m-.8 4-1-2m1 4.7v-2.8m-1.8 2.8h1.8m-5 4 3.2-4m-5.3-9.7-2.6-2m5 2h-2.4m5.6 1.3-3.2-1.3m4.3-2.6-1 4m1-7.8v3.8m2-8.6-2 4.8m4.8-6.9-2.7 2.1m5.8-6.7-3.1 4.6m3-6.9v2.3m-1.7-1 1.8-1.3m-3.6 3.4 1.8-2m-8 2.5 6.2-.5m-9.7.5h3.6m-8.2 3.6 4.6-3.6m-3.7 5.5-1-1.9m1 5.7v-3.8m-3.3 6.3 3.3-2.5m-7.4 6.2h5.8m-7.1 3 1.3-3m-1.6-5.5 3-2.3m-6.2 3 3.2-.7m-3.2 4.1v-3.4m33.3-37.2 3-2.4m-5 6.4 2-4m-3.4 8 1.3-4m-1.3 6.6v-2.6m-1.5 5.1 1.5-2.5m-1.5 6.5v-4m-1.1 7 1.1-3m-5 4.3h2m.3-7.5v-1.1m-3.3 3.6 3.3-2.5m-5 3.8 1.7-1.3m-3 5.2 1.3-4m-2.7 5.1 1.5-1.1m-3.6 1.8 2-.7m-5.4 1.3 3.4-.6m-6.3 3 3-2.4m-.8-.1-2.2 2.4m2.2-6.5v4m2.2-7.4-2.2 3.4m0-3.4h2.2m-5 4 2.8-4m-5.9 10.4 3-6.4m-1.2 9.5-1.8-3.1m-.4 5.6 2.2-2.5m-6 5.5 3.8-3m-5-1.3 1.1 4.3m.5-5.6-1.7 1.3m0-2.7 1.7 1.4m-3.5-1.4h1.8m-4.4-2 2.6 2M1033 997.9l3.2 2m-11.2-3.5 8 1.5m51.6-12.7 1.6 4.3m20.5 28.8 2.5-4.1m3.7.4v-5m-4.3 11.2 4.3-6.2m-4.3 12v-5.8m15.7 16.1 2 2.5m-.5-5.8-1.5 3.3m-1-5.3 2.5 2m-4.2 1 1.6-3m16.5 24v-3.3m-4 7 3.2-2.3m-5 5.1 1.9-2.7m-6-2.6 4.1 5.3m21.6-6.6 1.3 4.5m-2-5.3.7.8m-6-6.3 5.3 5.5m-9.7-4.6 4.3-1m-4.3-1.2v2.2m29.4 13.9 3.1-8.9m1.7 18.6v.2m2.8-4.7-2.8 4.5m2.8-12.3v7.8m2.4-18.4-2.4 10.6m1.3-9.8 1.1-.8m-2.7-3.1 1.6 3.9m-5.2-3 3.6-.9m-3.6 5.5v-4.6m-5.2 9.7 5.2-5.1m-2.6 15.1-2.6-10m2.6 15.6v-5.6m-4.1 4.6.2 1m-1.3-8.6 1 7.6m.3-13-1.3 5.4m3.3-14.2-2 8.9m-.7-10.2 2.7 1.3m-6.3 3.5 3.6-4.8m-5-1.2 1.4 6m1-11.6-2.3 5.6m-.8-6.4 3 .8m-6-.8h3m-3-5.5v5.5m-3.9-6.7 3.8 1.2m-7.5 5.5 3.7-6.7m-3.7 13.1v-6.4m2.1 12.4-2-6m2 11.4v-5.4m3.2 14.3 2 5m-4.4-6.5 2.4 1.5m-4-7.2 1.6 5.7m-4.2-10.7 2.7 5m-7.8-8.9 5 3.9m-10.8-2.6 5.9-1.3m-6-6v7.3m-5.4-10 5.5 2.6m-8.9-5.4 3.4 2.7m-7.6-3.4 4.2.7m-5.5.5 1.3-1.2m2.7-1.6-3.8-1.2m9 4.1-5.2-3m12 6.8-6.8-3.8m8.1 2.8-1.3 1m1.3-4.5v3.5m2.1-9.8-2 6.3m.9-8 1.1 1.7m1-4.2-2.1 2.5m-2.3-7.5 4.5 5m-3.2-10.3-1.3 5.3m0-7.5 1.3 2.2m-4.9-2.2h3.6m-3.6 4.5v-4.5m-2.9 2.3 2.9 2.2m-5.9-1.4 3-.8m-3.5 4.3.5-3.5m-4.3 8.1 3.8-4.6m-5.8 8.4 2-3.8m-2 8.4v-4.6m1-7.2 2.7-6.2m-7.1 8.5 4.4-2.3m-6.8-48.6 3.4 7.6m1.8-8.8.4-.5m-8.7 2.1-.5-2.1m5 1.5-4.5.6m6.5 0-2-.6m2 7.8v-7.2m20.3 5.4 7-5.3m-16.1 14.4 9.1-9.1m-13.4 12.4 4.3-3.3m-7.3-3 3 6.3m-1.2 2-1.8-8.3m1.8 14.8v-6.5m5 10.4-5-4m2.1 11.4 3-7.4m-5 12.9 2-5.5m-2 10.7v-5.2m-6.3 10 6.2-4.8m-9.6 2.2 3.4 2.6m-2.1-6.4-1.3 3.8m2.5-7.4-1.2 3.6m-2.5-9.1 3.7 5.5m-35.6-5.7 13.5-2 9.4 1.5 9 .7 3.7 5.5m-3.7 4.4 3.7-4.4m-3.7 11.1v-6.7m-9 5 9 1.7m-27.8 35.5h-5m1.7-2.6 3.3 2.6m-5-11.5 4.5-3.4m-2.6-1.5 10.7-3.4m-14.8 6.5 4-3.1m-10 3.1h6m-11 5.7 5-5.7m-9.8-48.3 1-4.4m3.6-14.7 2 1.6m-2.9-6 1 4.4m-5.2-7.3 4.2 3m-6.9-6.8 2.7 3.8m24-1.6-.9-2.2m-2.6 3.7 3.4-1.5m-9.7 4 6.3-2.5m-9.4 5.9 3.1-3.3m6.5 32.4 2 1.6m-6.8-3h3m-9.5-3.5 2.5 2m-7-2h4.5m19 63.9-.3.5m2.2-2-1.8 1.5m-2-1.5h3.8m-5.9-1.6 2.2 1.6m-3.8-1.6h1.6m-7.7-6-.5 1.2m1.7-3.8-1.2 2.6m1.2-6.5v3.9m-2.5-4h2.5m-6.2-.9 3.7 1m-8.2 2.4 4.5-3.4m-3.5-11.2v3.7m.7 1.5h4.1m-6.5 4.6 2.4-4.6m-5.2 4.6h2.8m-4.1-2.2 1.3 2.2m-.6-5.4-.7 3.2m3.7-8.5-3 5.3m25.6-15.6v-1.6m2 4.9-1.6-1.3m5.3 1.3h-3.7m6.5.5 1-4.2m-2.6 11 1.6-6.8m-2.5 11 .9-4.2m-3.2 22 2.3-17.7m-2.3 17.7-1.6 7m-1.1-4.9 2.7-2.1m-5.4 2.1h2.7m-2.7-2.6v2.6m-4.9-7.6 5 5m-5-7.5v2.5m2.2-6.5-2.2 4m6.2-7-4 3m6.9-3h-3m6.5-2.7-3.5 2.7m-.2-7h4.6m-10.6 2.3 6-2.3m-13.6 5 7.6-2.7m-13 1.1 5.4 1.6m-7-5.4 1.6 3.8m2.1-6.6-3.7 2.8m5.2-7.4-1.5 4.6m5.3-5-3.8.4m13.7-7h2.2m-6 3 3.8-3m-11.2 5.1 7.3-2.1m-10.5 4.6 3.2-2.5m-8.6 8.2 5.4-5.7m-8.8 5.2 3.4.5m-3.2-1.4-.2 1m1-4-.8 3m2.3-9.6-1.6 6.6m-4.5 3.5-7.2 8.1m9.9-13.5-2.7 5.4m6.1-10-3.4 4.6m8.6-11.7-5.2 7m2.6-15.9 2.6 8.9m-51.5-10.8 7.6 3.3m-1.2 8.3 5.6 1.6m-9.2-4.3 3.6 2.7m-4.8-5.6 1.2 2.9m-6.9-3.7 5.7.8m-8.5-3.1-2.6 1.5m9.3-5.3-6.7 3.8m12.2-11.2-5.5 7.4m36.4-2.8 1-.8m-5.6.8h4.6m-7.3-2 2.7 2m-8.6-3 5.9 1m0-3.2-4.8-1.6m10.8 1.6h-6m10.2 1.9-4.2-2m7.5 5.9-3.3-4m10.3 8-7-4m10.3-6.6 5.4 7.2m-8.9-13 3.5 5.8m-5.6-13.1 2.1 7.4m-2-3.5v-4m-5 5.9 5-1.9m-14.4 5.3 9.3-3.4m48.5 69 1.2 7.2m1.8-11.4-3 4.3m5.7-25-2.7 20.7m-2.7-24.2 5.4 3.5m-10.3-8.2 4.9 4.7m-12.3-6.4 7.4 1.7m-10-3.8 2.6 2.1m-7.6-6.5 5 4.4m-12-9 7 4.6m-10-12.3 3 7.7m-13-20.1 10 12.4m-12.7-25.7 2.7 13.3m-6.2-5.7 3.5-7.6m-6.1 7.6h2.6m-11.5 3.5 8.9-3.5m-22.5 8.8 13.6-5.3m-27.2 3.8 13.6 1.5m-17.8-7.8 4.2 6.3m-11.5-7.5 7.3 1.2m-13.2-2.2 5.9 1m-5.6-19.1-.3.2m21.5 98 3-3.2m187.6-90.1 2.8 2.2m-10.8-4.6 8 2.4m-12.8-2.5-5.7 1.4m7.9-3.8-2.2 2.4m-1-2.3.2-.1m-2 1.5 1.8-1.4m-4.7 3.7 3-2.3m-10 4.6 7-2.3m2-3.8v.4m19 8.2-12.2-4.7m22 6-9.9-1.3m21.5 8.4-11.7-7m25.6 13.8 3.4 1.4m-13.8-3-7-2.9m20.4 8.5-13.4-5.6m13.8 5.7-.4-.1m-5.7-20.6 5.7.6m-10.8.2 5-.8m-9.4 0 4.4.8m-11.6-3.2 7.2 2.5m9.7-6.9.8-.4m-5 .4h4.2m-3.6-.4-.6.4m-179 97.8v-3.8m-3.3 1.2 3.4 2.6m-14.9-3.8-4.4 3.4m-2-2-1.2 2.4m5.3-5.6-4 3.2m4-7.9v4.7m7.3-8.4-7.3 3.7m20.7 9.8v.5m-7.7-5.2 1.5-.5m-4.9 1.4 3.4-1m-8.4 1h5m-5-2v2m-1.3-4.9 1.3 2.9m3.2-6.3-4.5 3.4m-14.4-2.6h4.7m2 .5v3.2m6-5-6 1.8m6-4v2.1m-3-3.2 3 1m-7-.4 4-.6m-10.8 3 6.7-2.4m14.9 14.7 1.8 1.1m-5-1h3.2m-6.5 1 3.3-1m-11.6-3.7-2.8 4.7m.7-9 2.1 4.3m-7-5.4 5 1.2m-8.7 1.6 3.8-2.8m-9.6 4 5.8-1.2m-6.5 4.1.7-3m-2.5 2-2 4.2m5.2-6.7-3.2 2.5m10.6-6.7-7.4 4.2m6.8-6.8.6 2.6m-1.8-2.5 1.2-.1m-5 .7 3.8-.6m-12.4 1.9 8.5-1.3m4.6-3.5 10.4-5.6m-17.4 7.7 7-2.1m-13 4.8 6-2.7m-15.1 6.6 9-4m-19 2.3 10 1.7m-10-34.4.3.4m10.8-1 2 4.5m-5.6-7.1 3.6 2.7m-7.3-3.7 3.7 1m-4.7-5.4 1 4.4m-3.9-6.8 1.8-1.8m-1.8 1.8h0Z" fill="none" stroke="#f1f1f1" stroke-linecap="round" stroke-linejoin="round" stroke-width="1"></path></g><path fill="#f1f1f1" stroke="#f1f1f1" stroke-miterlimit="67.2" stroke-width=".6" d="M1143.9 981h12.4v36h-12.4v-36z"></path><path fill="#f1f1f1" stroke="#f1f1f1" stroke-miterlimit="67.2" stroke-width=".6" d="M1146.8 989h6.5v20.3h-6.5V989z"></path><path d="M1604.3 968.7h-127.7m531.3 0h-127.6m-872.6 1.5H880m543.1 0h-139.5" fill="none" stroke="#f1f1f1" stroke-miterlimit="67.2" stroke-width="3"></path><path fill="none" stroke="#f1f1f1" stroke-miterlimit="67.2" stroke-width="5.9" d="M4149.9 171.3v1154.6"></path><path d="m4150 134.3-14 44.7h27.9l-14-44.7Zm0 1203 13.9-44.8H4136l14 44.7Z" fill="#f1f1f1" stroke-width="0"></path><path fill="none" stroke="#f1f1f1" stroke-miterlimit="67.2" stroke-width="5.9" d="m2092.5 783.7 5222.4 1.1"></path><path d="m2074.7 783.7 44.8 14v-27.9l-44.8 14Zm5256.5 0-44.7-13.9v27.8l44.7-13.9Zm-3604.5 82.8c2 1.3 6.5 3.2 11.2 3.2 8.9 0 11.6-5.6 11.6-9.8-.1-7.2-6.6-10.2-13.2-10.2h-3.8v-5.2h3.8c5 0 11.4-2.6 11.4-8.6 0-4-2.6-7.7-9-7.7-4 0-8 1.8-10.2 3.4l-1.8-5c2.7-2 7.9-4 13.3-4 10.1 0 14.6 6 14.6 12.2 0 5.3-3.1 9.7-9.4 12v.1c6.3 1.3 11.4 6 11.4 13.1 0 8.2-6.4 15.3-18.6 15.3-5.7 0-10.7-1.8-13.2-3.4l1.9-5.4Zm42.5 3c1.5.2 3.2 0 5.6-.1a19 19 0 0 0 10.6-5c3.4-3 5.8-7.5 6.8-13.5h-.2a15 15 0 0 1-12 5.4c-9.2 0-15.1-6.9-15.1-15.5 0-9.7 7-18.2 17.4-18.2s16.9 8.5 16.9 21.5c0 11.2-3.8 19-8.8 24-4 3.8-9.4 6.1-14.8 6.7-2.6.4-4.7.5-6.4.4v-5.6Zm2.5-29.2c0 6.3 3.9 10.8 9.8 10.8 4.6 0 8.3-2.3 10-5.3a4 4 0 0 0 .7-2.6c0-8.7-3.2-15.3-10.4-15.3-6 0-10 5.1-10 12.4Zm37.7 29.3c1.5.1 3.2 0 5.6-.2 4-.6 7.8-2.2 10.7-5 3.4-3 5.8-7.5 6.7-13.5h-.2a15 15 0 0 1-12 5.4c-9.2 0-15-6.9-15-15.5 0-9.7 7-18.2 17.3-18.2 10.5 0 16.9 8.5 16.9 21.5 0 11.2-3.8 19-8.8 24-4 3.8-9.3 6.1-14.8 6.7-2.5.4-4.7.5-6.4.4v-5.6Zm2.5-29.3c0 6.3 4 10.8 9.9 10.8 4.6 0 8.2-2.3 10-5.3.4-.7.6-1.4.6-2.6 0-8.7-3.2-15.3-10.4-15.3-5.9 0-10 5.1-10 12.4Zm62.8-12h-1c-1.4 0-2.8.1-4.1.4a20.7 20.7 0 0 0-17.7 18h.2c2.4-3.1 6.6-5.8 12.3-5.8 9 0 15.4 6.5 15.4 16.5 0 9.3-6.4 18-17 18-10.9 0-18-8.6-18-21.8 0-10 3.6-18 8.6-23 4.3-4.1 10-6.7 16.3-7.5 1.7-.3 3.4-.4 5-.4v5.7Zm-2 29.5c0-7.3-4-11.7-10.4-11.7-4.2 0-8 2.6-9.9 6.3-.5.8-.8 1.9-.8 2.9v.1c.2 8.4 4 14.6 11.2 14.6 6 0 10-5 10-12.2Zm47-9.4c0 17.4-6.4 27-17.7 27-10 0-16.7-9.4-16.8-26.3 0-17 7.3-26.5 17.7-26.5 10.7 0 16.9 9.6 16.9 25.8Zm-27.6.8c0 13.3 4 20.8 10.3 20.8 7 0 10.5-8.3 10.5-21.3 0-12.5-3.2-20.7-10.4-20.7-6 0-10.4 7.3-10.4 21.2Zm297.2-306c-.1 1.5 0 3.2.3 5.5.5 4 2.2 7.8 5 10.7a22 22 0 0 0 13.5 6.8v-.3a15 15 0 0 1-5.5-12c0-9.1 6.9-15 15.6-15 9.6 0 18.1 7 18.1 17.4s-8.5 16.8-21.5 16.8c-11.2 0-19-3.7-23.9-8.7a26 26 0 0 1-6.8-14.9c-.3-1.7-.4-3.4-.4-5.1v-1.2h5.6Zm29.4 2.5c-6.4 0-10.9 3.8-10.9 9.8 0 4.6 2.3 8.2 5.3 10a5 5 0 0 0 2.6.7c8.7 0 15.3-3.3 15.3-10.5 0-5.8-5.1-10-12.3-10Zm11 64.1v-19.4l-13.2-2a25 25 0 0 1-2.4 15.2c-2.3 4-6.7 7.3-13 7.3-10 0-17.5-8-17.5-19 0-5.6 1.6-10.3 3.1-12.7l5.3 1.7a22.7 22.7 0 0 0-2.8 10.9c0 6.5 4.2 12 11 12 6.6 0 11.3-4.4 11.3-14.6 0-2.9-.3-5.2-.5-7l24.4 3.2v24.4h-5.8Zm-32.3 9.2c6.4 0 11 3.8 13.6 10.1h.3c2.6-5.7 7-8.1 11.4-8.1 8 0 13.6 6.8 13.6 15.7 0 10-6.2 14.8-12.6 14.8-4.3 0-8.9-2-11.9-8.3h-.2c-2.5 6.3-7 10.2-13.2 10.2-8.8 0-14.8-7.6-14.8-17.3 0-10.6 6.4-17.1 13.8-17.1Zm.3 27.4c6.2 0 9.2-4.3 11.1-11.2-1.7-6-5.6-9.1-10.5-9.1-5.1-.3-9.7 3.7-9.7 10.2 0 6.2 3.9 10.1 9.1 10.1Zm25.5-19c-5.1 0-7.9 4-9.4 9.8 1.5 4.4 4.6 7.8 9.2 7.8 4.1 0 8.3-2.5 8.3-8.7 0-5.7-3.7-8.8-8.1-8.8Zm-12.7 66.3c-17.3 0-26.9-6.4-26.9-17.7 0-10 9.3-16.7 26.2-16.8 17 0 26.5 7.3 26.5 17.7 0 10.7-9.6 16.8-25.8 16.8Zm-.8-27.7c-13.2 0-20.8 4.1-20.8 10.4 0 7 8.3 10.4 21.3 10.4 12.5 0 20.8-3.2 20.8-10.3 0-6-7.4-10.5-21.3-10.5Z" fill="#f1f1f1" stroke-width="0"></path><path fill="none" stroke="#f1f1f1" stroke-miterlimit="67.2" stroke-width="5" d="M386.3 934.4H141.2V327h245.1v607.4z"></path><path d="M386.3 874H141.2v-60.4h245.1V874Zm0-120.7H141.2v-60.4h245.1v60.4Zm0-120.7H141.2v-60.4h245.1v60.4Zm0-120.8H141.2v-60.3h245.1v60.3ZM145 391.1h241.3m265.1 410.6V1221H406.3V922.4H522v-56.8l-3.2-1.3 3.2-1.6v-.7h1.3L644 801.7h7.3Zm0-460.3v298H522.1v60.4h65.6L522 734.7l-48 25.5h-67.8V341.4h245.1Z" fill="none" stroke="#f1f1f1" stroke-miterlimit="67.2" stroke-width="6.3"></path><path d="M651.4 1220.4H406.3V1160h245.1v60.4Zm0-117H406.3v-60.3h245.1v60.3Zm0-120.6H406.3v-60.4h245.1v60.4Zm0-181.1V862h-128l120.7-60.3h7.3Zm-63.7-101.9L522 734.7l-48 25.5h-67.8v-60.4h181.4Zm63.7-60.3H406.3V579h245.1v60.4Zm0-120.8H406.3v-60.3h245.1v60.3ZM410.1 398h241.3M522.1 862v359" fill="none" stroke="#f1f1f1" stroke-miterlimit="67.2" stroke-width="6.3"></path><path d="M265.6 934.4V210h256.5v524.6m128.3 63.8-6.3 3.2L523.4 862l-1.3.7-3.2 1.6-110 55" fill="none" stroke="#f1f1f1" stroke-miterlimit="67.2" stroke-width="6.3"></path><path d="m650.4 666.5-62.7 33.3-65.6 34.9-48 25.5-65.1 34.6m241.4 120.7L522 865.6l-3.2-1.3-4.3-1.6M144.9 874l120.7 60.4M386.3 874l-120.7 60.4" fill="none" stroke="#f1f1f1" stroke-miterlimit="67.2" stroke-width="6.3"></path><g><path d="M3227.6 649c2.7 1.7 9 4.4 15.5 4.4 12.1 0 15.9-7.7 15.8-13.5-.1-9.8-9-14-18-14h-5.3v-7h5.2c7 0 15.6-3.6 15.6-12 0-5.5-3.5-10.4-12.2-10.4-5.6 0-11 2.4-14 4.6l-2.5-6.9a33.2 33.2 0 0 1 18.3-5.4c13.8 0 20 8.2 20 16.7 0 7.2-4.3 13.3-13 16.4v.2c8.7 1.8 15.7 8.2 15.7 18 0 11.2-8.7 21-25.5 21-7.9 0-14.7-2.5-18.2-4.8l2.6-7.3Zm94.6-51h-26.7l-2.6 18a30.3 30.3 0 0 1 20.7 3.2 20 20 0 0 1 10 18c0 13.6-10.9 23.9-26 23.9-7.6 0-14.1-2.2-17.4-4.3l2.3-7.2a32 32 0 0 0 15 3.8c8.9 0 16.5-5.8 16.5-15.1 0-9-6-15.5-20-15.5-4 0-7.2.4-9.7.7l4.5-33.5h33.4v8Zm42.7 61.9v-19h-32.5v-6.3l31.2-44.6h10.2v43.4h9.8v7.5h-9.8v19h-9Zm0-26.5v-23.3c0-3.6 0-7.3.3-11h-.3l-5.8 10.4-17.1 23.7v.2h22.9Zm22.8 39.7c2.3-6.3 5.2-17.8 6.4-25.7l10.5-1a131 131 0 0 1-10.2 26l-6.7.7Zm70.7-83.1v6.2L3428 660h-9.8l30.3-61.8v-.2h-34.2v-8h44.1Zm36.1 17.8h11.6l9.5 26.3c1.3 3.8 3.5 10.2 4.7 14.3h.2a537 537 0 0 1 6.2-17.9l8.3-22.7h11.8l3.6 52h-9l-1.2-24.8c-.3-5.5-.8-12.2-1-18.6h-.3a262 262 0 0 1-5.7 17l-10 26.2h-6.9l-9.2-25.7a391 391 0 0 1-5.2-17.3h-.4c-.2 6-.5 13-.9 18.7l-1.3 24.6h-8.7l4-52Zm63.1 16.2v-3.3l4.4-4.2c10.4-9.9 15-15.2 15.1-21.3 0-4.1-2-8-8-8-3.8 0-6.8 2-8.7 3.5l-1.8-3.9c2.9-2.4 6.9-4.1 11.6-4.1 8.7 0 12.4 6 12.4 11.8 0 7.5-5.4 13.6-14 21.9l-3.3 3v.1h18.3v4.6h-26Z" fill="#f1f1f1" stroke-width="0"></path></g></g></g></g></svg>