<svg version="1.1" xmlns="http://www.w3.org/2000/svg" xmlns:xlink="http://www.w3.org/1999/xlink" viewBox="0 0 3803 999.9"><g id="SELECTION_0" image-rendering="optimizeQuality" shape-rendering="geometricPrecision" text-rendering="geometricPrecision"><path fill="none" stroke-width="0" d="M0 0h3803v999.9H0z"></path></g><g id="SELECTION_1" data-name="Selection" image-rendering="optimizeQuality" shape-rendering="geometricPrecision" text-rendering="geometricPrecision"><path fill="none" stroke-width="0" d="M3771.6 976.5H550.5V748.7h1.3v-19.2h-197v-16.6h-.2l.2-121.3v-24.8h35.8v-1.3h8.3V31h3372.7v945.5z"></path></g><g><g id="MAIN_LAYER"><defs id="SvgjsDefs1000"><clipPath id="clippath"><path d="m394.3 29.7.5 279.3h277v42.1l276.9.8v214H347.9v172.3l187.4 4v228.2h3238v-941l-3379 .3Z" fill="none" stroke-width="0"></path></clipPath></defs><g id="Layer_1-2" data-name="Layer 1" image-rendering="optimizeQuality" shape-rendering="geometricPrecision" text-rendering="geometricPrecision"><g id="_Слой_1" data-name="Слой 1"><g id="_2158746023168" data-name="2158746023168"><g><path d="M677 482.3H394.6 677Zm-62 80V354.2v208Zm-86.8 4.8V448.6 567ZM669 400.8H557.4 669ZM441.4 568.5V359v209.5Zm60.8-167.7H390.6h111.6Zm454.5 81.5H674.2h282.5Zm-62 80V354.2v208ZM808 567V448.6 567Zm140.8-166.3H837.1h111.6ZM721.1 568.5V359v209.5ZM782 400.8H670.4 782Zm0 0Z" fill="#f1f1f1" stroke-width="0"></path><path id="_1" data-name="1" d="M677 482.3H394.6m220.4 80V354.2M528.2 567V448.6M669 400.8H557.4m-116 167.7V359m60.8 41.8H390.6m566.1 81.5H674.2m220.5 80V354.2M808 567V448.6m140.8-47.8H837.1M721 568.5V359m60.9 41.8H670.4m111.6 0Z" fill="none" stroke="#f1f1f1" stroke-miterlimit="70.7" stroke-width="1.4"></path></g><g clip-path="url(#clippath)"><g><path fill="none" stroke="#f1f1f1" stroke-miterlimit="70.7" stroke-width="1.4" d="M782.7 249.2h59.2m1835.4 732.5v-969m1095-7.9v983.9m-419.5-596.3v132.2m415.5-494.3H301M427.5 558h393.8"></path><path fill="#f1f1f1" stroke-width="0" d="m353.2 712.6.2-125.5h1.4l-.2 125.5h-1.4z"></path></g></g><path fill="#f1f1f1" stroke-width="0" d="M302.4 26.7h26.2v540.1h-26.2V26.7z"></path><path fill="#f1f1f1" stroke-width="0" d="M325.9 26.7h73v12.4h-73V26.7z"></path><path fill="#f1f1f1" stroke-width="0" d="M386.5 37.7h12.4v527.8h-12.4V37.7z"></path><path d="M327.2 553h63.4v13.8h-63.4v-13.7ZM306.6 10.3h20.6v19.3h-20.6V10.2ZM148 697.8h87v8.2h-86.8v-8.2Z" fill="#f1f1f1" stroke-width="0"></path><path fill="#f1f1f1" stroke-width="0" d="M228 697.8h9.7v50.9H228v-50.9z"></path><path fill="#f1f1f1" stroke-width="0" d="M236.3 729.5h315.5v19.2H236.3v-19.2z"></path><path d="M540.8 729.5h70.3v9.6h-70.3v-9.6Zm-15.1 15.1h24.8v226h-24.8v-226Zm-205.3 0h6.8v55.1h-6.8v-55.1Zm0 135h6.8V928h-6.8v-48.3Z" fill="#f1f1f1" stroke-width="0"></path><path d="M324.5 921h205.3v6.9H324.5v-7Zm22-208h8.3v20.6h-8.3v-20.7Zm0-153h8.3v31.6h-8.3V560ZM31 697.7h8.3v8.2H31v-8.2Zm359.6-142h111.6v11H390.6v-11Zm177.8 0h220.5v11H568.4v-11Zm288 0H1012v11H856.4v-11ZM744.8 441.5h129.5v11H744.8v-11Zm-85.5 0h26.2v11h-26.2v-11Zm-191.5 0h129.5v11H467.8v-11Zm-77.2 0h15.2v11h-15.2v-11Zm545.7 0H950v11h-13.8v-11Z" fill="#f1f1f1" stroke-width="0"></path><path fill="#f1f1f1" stroke-width="0" d="M666.9 245.8h11v312.8h-11V245.8z"></path><path fill="#f1f1f1" stroke-width="0" d="M674.5 347.8h275.6v11H674.5v-11z"></path><path fill="#f1f1f1" stroke-width="0" d="M943.2 249.9h11v312.8h-11V249.9z"></path><path d="M841.2 244.4h170.9v11H841.2v-11Zm-174.4 0h117v11h-117v-11Zm-269.3 53.7h275.6v12.5H397.5V298Zm-1.3 48.3h275.5v12.4H396.2v-12.4Z" fill="#f1f1f1" stroke-width="0"></path><path d="M500.9 356h8.2v91H501v-91Zm26.2 0h8.2v91h-8.2v-91Zm26.1 0h8.3v91h-8.3v-91Zm226-2.7h8.3v90.9h-8.3v-91Zm26.2 0h8.3v90.9h-8.3v-91Zm26.2 0h8.2v90.9h-8.2v-91Zm345.8 212.2h11v406.4h-11V565.5Z" fill="#f1f1f1" stroke-width="0"></path><path fill="#f1f1f1" stroke-width="0" d="M1178.8 565.5h96.4v11h-96.4v-11z"></path><path d="M1272.5 565.5h85.4v6.9h-85.4v-7Zm148.8 0h243.9v6.9h-244v-7Zm305.9 0h91v6.9h-91v-7Zm82.7 56.5h165.3v11H1810v-11Z" fill="#f1f1f1" stroke-width="0"></path><path d="M1809.9 565.5h11V633h-11v-67.5Zm159.8 1.3h11V972h-11V567Zm-41.3 173.7h26.1v114.3h-26.1V740.5ZM1577 566.8h11v406.5h-11V566.8ZM1126.4 797h53.8v38.5h-53.8V797Zm52.4 126.7h68.9v11h-68.9v-11Zm1179.5-358.2h11v406.4h-11V565.5Zm-155.7 0h11V633h-11v-67.5Z" fill="#f1f1f1" stroke-width="0"></path><path d="M1969.7 565.5h86.8v6.9h-86.8v-7Zm153 0h86.8v6.9h-86.8v-7Zm79.9 56.5h165.3v11h-165.3v-11Zm548.4-52.4h11v180.5h-11V569.6Zm-158.5-4.1h11V633h-11v-67.5Z" fill="#f1f1f1" stroke-width="0"></path><path d="M2512.6 565.5h86.8v6.9h-86.8v-7Zm79.9 56.5h165.4v11h-165.4v-11Zm103.3 119.8h63.4v8.3h-63.4v-8.3Zm0 100.6h63.4v8.3h-63.4v-8.3Z" fill="#f1f1f1" stroke-width="0"></path><path d="M2751 842.4h11V972h-11V842.4Zm-74.4-100.6h31.7v108.9h-31.7V741.8ZM2361 565.5h86.8v6.9H2361v-7Zm390 0h86.8v6.9H2751v-7Zm391.3 4.1h11V972h-11V569.6Zm-158.5-4.1h11V633h-11v-67.5Z" fill="#f1f1f1" stroke-width="0"></path><path d="M2904 565.5h86.7v6.9H2904v-7Zm79.8 56.5h165.4v11h-165.4v-11Zm158.5-56.5h70.3v6.9h-70.3v-7Zm133.6 0h78.6v6.9h-78.6v-7Z" fill="#f1f1f1" stroke-width="0"></path><path fill="#f1f1f1" stroke-width="0" d="M3351.7 566.8h421.7v11.1h-421.7v-11.1z"></path><path d="M3347.6 491h11v115.8h-11V491Zm379 18h11v106h-11V509Zm-379-117.1h11v23.4h-11v-23.4Z" fill="#f1f1f1" stroke-width="0"></path><path d="M3353.1 391.9h73v11h-73v-11Zm5.5-326.6h66.2v11h-66.2v-11Z" fill="#f1f1f1" stroke-width="0"></path><path d="M3413.8 29.5h12.3v367.9h-12.3v-368ZM29.6 944.4h27.6v27.5H29.6v-27.5Zm0-392.7h24.8v29H29.6v-29ZM27 156.2h26v30.3H27v-30.3Zm2.7-126.7h26.2v26.1H29.6V29.5Zm496 1.4h34.5v34.4h-34.4V30.9Zm607.7-1.4h34.5v34.4h-34.5V29.5Zm792.3 0h34.5v34.4h-34.5V29.5Zm755 0h34.5v34.4h-34.4V29.5Zm775.9 0h34.4v34.4h-34.4V29.5ZM917 28h11v110.2h-11V28.1Zm0 186h11v33h-11v-33Zm2539.5 585.6h34.4v34.5h-34.4v-34.5Z" fill="#f1f1f1" stroke-width="0"></path><path d="M1354.1 17H17.8v964.3h3767.4V16.9h-2431Zm2426 959.8H22.9V21.4h3757.4v955.4Z" fill="#f1f1f1" stroke="#f1f1f1" stroke-miterlimit="70.7" stroke-width=".7"></path><path d="M1354.1 8.3H8.6v981.6h3785.8V8.3H1354Zm2435.3 977.2H13.6V12.7h3775.8v972.8Z" fill="#f1f1f1" stroke="#f1f1f1" stroke-miterlimit="70.7" stroke-width=".7"></path><path d="M922.7 217.4 973 203l-48.5-68.4M843 248l-10.4-36.2-50.6 35.3m89 203.1 9.9 34.3 58.2-36.5m-191 1.8-9.9 34.4-56-35.9" fill="none" stroke="#f1f1f1" stroke-miterlimit="70.7" stroke-width="5.5"></path><path fill="none" stroke="#f1f1f1" stroke-miterlimit="70.7" stroke-width="5.6" d="m594.5 450.5 9.9 34.3 60-36.9M471 450.4l-9.9 34.4-59-36.7"></path><path d="m571.2 564.6-10 35-60.4-37.4m358 2-10.5 36.4-61.5-38.5m875.5 4.4 9.9-34.2 59.3 36.7" fill="none" stroke="#f1f1f1" stroke-miterlimit="70.7" stroke-width="5.5"></path><path fill="none" stroke="#f1f1f1" stroke-miterlimit="70.7" stroke-width="5.6" d="m2053.5 567 9.8-34.3 62.8 37.7"></path><path fill="none" stroke="#f1f1f1" stroke-miterlimit="70.7" stroke-width="5.7" d="m2444.6 566.4 10.2-35.5 60.8 37.9"></path><path fill="none" stroke="#f1f1f1" stroke-miterlimit="70.7" stroke-width="5.8" d="m2835.2 567.4 10.6-36.9 61.5 38.8"></path><path d="m3209.2 566.7 9.8-34.2 59.4 36.7m-1923.2-2.6 9.8-34.2 59.3 36.7" fill="none" stroke="#f1f1f1" stroke-miterlimit="70.7" stroke-width="5.5"></path><path fill="none" stroke="#f1f1f1" stroke-miterlimit="70.7" stroke-width="5.6" d="m3350.3 412.5-40.4 11.7 43.7 71.3"></path><path d="m37 700 58.3-35.7 3.1 33 10.9-19 46.5 24.8m193.5 12.2-35-63 31.2-2.7-18.2-12 22.9-49.3" fill="none" stroke="#f1f1f1" stroke-miterlimit="70.7" stroke-width="5.5"></path><path fill="#f1f1f1" stroke-width="0" d="M567.2 940.2h593.7v29H567.2v-29z"></path><path fill="none" stroke="#f1f1f1" stroke-miterlimit="70.7" stroke-width="1.4" d="M570.7 943.1h586.7v23.2H570.7v-23.2zM942 966.3V943m-5.3 23.2V943m-5.3 23.2V943m-5.2 23.2V943m-5.2 23.2V943m-5.2 23.2V943m-5.3 23.2V943m-5.2 23.2V943m-5.2 23.2V943m-5.2 23.2V943m-5.3 23.2V943m-5.2 23.2V943m-5.3 23.2V943m-5.2 23.2V943m-5.2 23.2V943m83.4 23.2V943m-5.2 23.2V943m31.6 23.2V943m-5.2 23.2V943m-5.2 23.2V943m-5.3 23.2V943m-5.2 23.2V943m-94 23.2V943m-5.2 23.2V943m-5.2 23.2V943m136 23.2V943m-5.3 23.2V943m31.4 23.2V943m-5.3 23.2V943m-5.2 23.2V943m-5.2 23.2V943m-5.3 23.2V943m31.5 23.2V943m-5.2 23.2V943m31.3 23.2V943m-5.2 23.2V943m-5.2 23.2V943m-5.2 23.2V943m-5.3 23.2V943m31.6 23.2V943m-5.3 23.2V943m26.2 23.2V943m-5.3 23.2V943m-5.2 23.2V943m-5.3 23.2V943m-361.4 23.2V943m-5.2 23.2V943m-5.2 23.2V943m-5.2 23.2V943m-5.3 23.2V943m-5.2 23.2V943m-5.2 23.2V943m-5.3 23.2V943m-5.2 23.2V943m-5.2 23.2V943m-5.3 23.2V943m-5.2 23.2V943m-5.2 23.2V943m-5.2 23.2V943m-5.3 23.2V943m83.5 23.2V943m-5.3 23.2V943m31.7 23.2V943m-5.2 23.2V943m-5.3 23.2V943m-5.2 23.2V943m-5.3 23.2V943m-94 23.2V943m-5.2 23.2V943m-5.2 23.2V943m136 23.2V943m-5.3 23.2V943m31.4 23.2V943m-5.3 23.2V943m-5.2 23.2V943m-5.2 23.2V943m-5.2 23.2V943m31.5 23.2V943m-5.2 23.2V943m31.3 23.2V943m-5.2 23.2V943m-5.3 23.2V943m-5.2 23.2V943m-5.2 23.2V943m31.5 23.2V943m-5.2 23.2V943m26 23.2V943m-5.2 23.2V943m-5.2 23.2V943m-5.2 23.2V943m-219.5 23.2V943m-5.3 23.2V943m-5.2 23.2V943m-5.2 23.2V943m-5.2 23.2V943m-5.3 23.2V943m-5.2 23.2V943m-5.2 23.2V943m543.5 22.6v-23.1m-5.2 23.1v-23.1m-5.2 23.1v-23.1m-5.3 23.1v-23.1m-5.2 23.1v-23.1m-5.2 23.1v-23.1m-5.3 23.1v-23.1m42.4 23.1v-23.1m-5.2 23.1v-23.1m16.2 23.1v-23.1m-5.2 23.1v-23.1m16.2 23.1v-23.1m-5.2 23.1v-23.1"></path><path fill="#f1f1f1" stroke-width="0" d="M947.8 30.9H1114v28.9H947.8V30.9z"></path><path d="M951.2 33.7h158V57h-158V33.7Zm79.7 23.2V33.7m-5 23.2V33.7m-5 23.2V33.7m-5 23.2V33.7m-5 23.2V33.7m-5 23.2V33.7m-5 23.2V33.7m-5 23.2V33.7m-5 23.2V33.7m-5 23.2V33.7m-5 23.2V33.7m-5 23.2V33.7m-5 23.2V33.7m-5 23.2V33.7m-5 23.2V33.7m74.7 23.2V33.7M956 57V33.7M1060.5 57V33.7m-5 23.2V33.7m-5 23.2V33.7m-5 23.2V33.7m-5 23.2V33.7m24.8 23.2V33.7m25 23.2V33.7m-5 23.2V33.7m-5 23.2V33.7m-5 23.2V33.7m-5 23.2V33.7m24.6 23.2V33.7m4.8 23.2V33.7m4.7 23.2V33.7" fill="none" stroke="#f1f1f1" stroke-miterlimit="70.7" stroke-width="1.3"></path><path fill="#f1f1f1" stroke-width="0" d="M411.8 30.9H511v28.9h-99.2V30.9z"></path><path d="M415.2 33.7h91V57h-91V33.7ZM496.5 57V33.7M491.4 57V33.7M486.3 57V33.7M481.2 57V33.7M476 57V33.7M471 57V33.7M465.8 57V33.7m-5 23.2V33.7M455.5 57V33.7m-5 23.2V33.7M445.3 57V33.7m-5 23.2V33.7M435.1 57V33.7M430 57V33.7M425 57V33.7M501.3 57V33.7M420 57V33.7" fill="none" stroke="#f1f1f1" stroke-miterlimit="70.7" stroke-width="1.4"></path><path fill="#f1f1f1" stroke-width="0" d="M575 30.9h324.1v28.9H575V30.9z"></path><path fill="none" stroke="#f1f1f1" stroke-miterlimit="70.7" stroke-width="1.4" d="M578.5 33.7h317.1v23.2H578.5V33.7zm129.7 23.2V33.7M702.9 57V33.7M697.7 57V33.7M692.5 57V33.7M687.2 57V33.7M682 57V33.7M676.7 57V33.7M671.5 57V33.7M666.2 57V33.7M661 57V33.7M655.8 57V33.7M650.5 57V33.7M645.3 57V33.7M640 57V33.7M634.8 57V33.7M718.4 57V33.7M713 57V33.7M745 57V33.7M739.6 57V33.7M734.4 57V33.7M729 57V33.7M724 57V33.7M629.7 57V33.7M624.5 57V33.7M619.2 57V33.7M755.5 57V33.7M750.3 57V33.7M781.7 57V33.7M776.4 57V33.7M771.2 57V33.7M765.9 57V33.7M760.7 57V33.7M792.3 57V33.7M787 57V33.7M818.4 57V33.7M813.2 57V33.7M808 57V33.7M802.7 57V33.7M797.5 57V33.7M823.8 57V33.7M614.5 57.1V34m-5.2 23.2V34M604 57.1V34m-5.2 23.2V34m-5.2 22.9V33.6m-5.2 23.2V33.6M583 56.8V33.6M833.8 57V33.7M828.5 57V33.7M860 57V33.7M854.7 57V33.7M849.4 57V33.7M844.2 57V33.7M838.9 57V33.7M865.3 57V33.7M880.7 57V33.7M875.4 57V33.7M870.2 57V33.7M886 57V33.7m4.8 22.7V33.3"></path><path fill="#f1f1f1" stroke-width="0" d="M1184.5 30.9h721.8v28.9h-721.8V30.9z"></path><path fill="none" stroke="#f1f1f1" stroke-miterlimit="70.7" stroke-width="1.4" d="M1187.9 33.7h713.6v23.2h-713.6V33.7zm371.3 23.2V33.7M1554 57V33.7m-5.3 23.2V33.7m-5.2 23.2V33.7m-5.2 23.2V33.7m-5.2 23.2V33.7m-5.3 23.2V33.7m-5.2 23.2V33.7m-5.2 23.2V33.7M1512 57V33.7m-5 23.3V33.7m-5.2 23.2V33.7m-5.2 23.2V33.7m-5.3 23.2V33.7M1486 57V33.7m83.4 23.2V33.7m-5.2 23.2V33.7m31.6 23.2V33.7m-5.2 23.2V33.7m-5.2 23.2V33.7M1580 57V33.7m-5 23.3V33.7m-94 23.2V33.7m-5.2 23.2V33.7m-5.2 23.2V33.7m136 23.2V33.7m-5.3 23.2V33.7m31.3 23.2V33.7m-5.2 23.2V33.7m-5.2 23.2V33.7m-5.2 23.2V33.7m-5.3 23.2V33.7m31.6 23.2V33.7m-5.3 23.2V33.7m31.4 23.2V33.7M1664 57V33.7m-5.2 23.2V33.7m-5.2 23.2V33.7m-5.3 23.2V33.7M1680 57V33.7m-5.3 23.2V33.7m26.1 23.2V33.7m-5.2 23.2V33.7m-5.2 23.2V33.7M1685 57V33.7M1323.7 57V33.7m-5.3 23.2V33.7m-5.2 23.2V33.7m-5.3 23.2V33.7m-5.2 23.2V33.7m-5.2 23.2V33.7m-5.2 23.2V33.7M1287 57V33.7m-5.2 23.2V33.7m-5.2 23.2V33.7m-5.3 23.2V33.7m-5.2 23.2V33.7m-5.2 23.2V33.7m-5.2 23.2V33.7m-5.3 23.2V33.7m83.4 23.2V33.7m-5.2 23.2V33.7m31.7 23.2V33.7M1355 57V33.7m-5.2 23.2V33.7m-5.2 23.2V33.7m-5.2 23.2V33.7m-94 23.2V33.7M1240 57V33.7m-5 23.3V33.7M1371 57V33.7m-5.2 23.2V33.7M1397 57V33.7m-5.2 23.2V33.7m-5.3 23.2V33.7m-5.2 23.2V33.7m-5.2 23.2V33.7m31.5 23.2V33.7m-5.2 23.2V33.7m31.3 23.2V33.7m-5.2 23.2V33.7m-5.3 23.2V33.7M1418 57V33.7m-5.2 23.2V33.7m31.5 23.2V33.7m-5.2 23.2V33.7m26 23.2V33.7M1460 57V33.7m-5.3 23.2V33.7m-5.2 23.2V33.7M1230 57V33.7m-5.2 23.2V33.7m-5.3 23.2V33.7m-5.2 23.2V33.7M1209 57V33.7m-5.2 23.2V33.7m-5.2 23.2V33.7m-5.2 23.2V33.7m543.5 22.6V33m-5.2 23.2V33m-5.2 23.2V33m-5.3 23.2V33m-5.2 23.2V33m-5.2 23.2V33m-5.2 23.2V33m42.4 23.2V33m-5.3 23.2V33m16.2 23.2V33m-5.2 23.2V33m16.2 23.2V33m-5.2 23.2V33m41.1 23.2V33m-5.2 23.2V33m-5.2 23.2V33m-5.3 23.2V33m-5.2 23.2V33m-5.2 23.2V33m-5.3 23.2V33m42.4 23.2V33m-5.2 23.2V33m16.2 23.2V33m-5.2 23.2V33m16.2 23.2V33m-5.2 23.2V33m41.1 23.2V33m-5.2 23.2V33m-5.2 23.2V33m-5.3 23.2V33m-5.2 23.2V33m-5.2 23.2V33m-5.3 23.2V33m42.4 23.2V33m-5.2 23.2V33m16.2 23.2V33m-5.3 23.2V33"></path><path fill="#f1f1f1" stroke-width="0" d="M1978.2 30.9h684.6v28.9h-684.6V30.9z"></path><path fill="none" stroke="#f1f1f1" stroke-miterlimit="70.7" stroke-width="1.3" d="M1981.6 33.7H2658v23.2h-676.4V33.7z"></path><path d="M2352.9 56.9V33.7m-5.3 23.2V33.7m-5.2 23.2V33.7m-5.2 23.2V33.7M2332 57V33.7m-5.3 23.2V33.7m-5.2 23.2V33.7m-5.2 23.2V33.7M2311 57V33.7m-5.2 23.2V33.7m-5.2 23.2V33.7m-5.3 23.2V33.7m-5.2 23.2V33.7M2285 57V33.7m-5.2 23.2V33.7M2363 57V33.7m-5.3 23.2V33.7m31.7 23.2V33.7m-5.2 23.2V33.7M2379 57V33.7m-5.2 23.2V33.7m-5.2 23.2V33.7m-94 23.2V33.7m-5.2 23.2V33.7M2264 57V33.7m136 23.2V33.7m-5.2 23.2V33.7m31.3 23.2V33.7M2421 57V33.7m-5.3 23.2V33.7m-5.2 23.2V33.7m-5.2 23.2V33.7m31.5 23.2V33.7m-5.2 23.2V33.7m31.3 23.2V33.7m-5.2 23.2V33.7m-5.2 23.2V33.7m-5.3 23.2V33.7M2442 57V33.7m31.5 23.2V33.7m-5.2 23.2V33.7m26.1 23.2V33.7m-5.2 23.2V33.7m-5.3 23.2V33.7m-5.2 23.2V33.7M2117.3 57V33.7m-5.2 23.2V33.7m-5.2 23.2V33.7m-5.3 23.2V33.7m-5.2 23.2V33.7m-5.2 23.2V33.7m-5.3 23.2V33.7m-5.2 23.2V33.7m-5.2 23.2V33.7m-5.3 23.2V33.7M2065 57V33.7m-5.2 23.2V33.7m-5.2 23.2V33.7m-5.3 23.2V33.7m-5.2 23.2V33.7m83.4 23.2V33.7m-5.2 23.2V33.7m31.6 23.2V33.7m-5.2 23.2V33.7m-5.2 23.2V33.7m-5.3 23.2V33.7M2133 57V33.7M2039 57V33.7m-5.2 23.2V33.7m-5.2 23.2V33.7m136 23.2V33.7m-5.3 23.2V33.7m31.3 23.2V33.7m-5.2 23.2V33.7m-5.2 23.2V33.7M2175 57V33.7m-5.3 23.2V33.7m31.6 23.2V33.7M2196 57V33.7m31.4 23.2V33.7M2222 57V33.7m-5 23.3V33.7m-5.2 23.2V33.7m-5.3 23.2V33.7M2238 57V33.7m-5.3 23.2V33.7m26.1 23.2V33.7m-5.2 23.2V33.7m-5.2 23.2V33.7m-5.2 23.2V33.7M2023.6 57V33.7m-5.2 23.2V33.7m-5.2 23.2V33.7M2008 57V33.7m-5.3 23.2V33.7m-5.2 23.2V33.7m-5.2 23.2V33.7M1987 57V33.7m543.6 22.6V33m-5.2 23.2V33m-5.3 23.2V33m-5.2 23.2V33m-5.2 23.2V33m-5.3 23.2V33m-5.2 23.2V33m42.4 23.2V33m-5.2 23.2V33m16.2 23.2V33m-5.3 23.2V33m16.3 23.2V33m-5.3 23.2V33m41.2 23.2V33m-5.2 23.2V33m-5.3 23.2V33m-5.2 23.2V33m-5.2 23.2V33m-5.3 23.2V33m-5.2 23.2V33m42.4 23.2V33m-5.2 23.2V33m16.1 23.2V33m-5.2 23.2V33m16.3 23.2V33m-5.3 23.2V33m30.7 23.2V33m-5.2 23.2V33m-5.2 23.2V33m-5.3 23.2V33m-5.2 23.2V33" fill="none" stroke="#f1f1f1" stroke-miterlimit="70.7" stroke-width="1.4"></path><path fill="#f1f1f1" stroke-width="0" d="M2731.9 30.9h665.3v28.9h-665.3V30.9z"></path><path fill="none" stroke="#f1f1f1" stroke-miterlimit="70.7" stroke-width="1.4" d="M2735.3 33.7h657.1v23.2h-657.1V33.7zm372.1 23.2V33.7M3102 57V33.7m-5 23.3V33.7m-5.3 23.2V33.7m-5.2 23.2V33.7m-5.2 23.2V33.7m-5.3 23.2V33.7m-5.2 23.2V33.7m-5.3 23.2V33.7m-5.2 23.2V33.7M3055 57V33.7m-5.3 23.2V33.7m-5.2 23.2V33.7m-5.3 23.2V33.7M3034 57V33.7m83.6 23.2V33.7m-5.3 23.2V33.7m31.8 23.2V33.7m-5.3 23.2V33.7m-5.2 23.2V33.7m-5.2 23.2V33.7M3123 57V33.7M3029 57V33.7m-5.2 23.2V33.7m-5.3 23.2V33.7M3154.7 57V33.7m-5.2 23.2V33.7m31.4 23.2V33.7m-5.3 23.2V33.7m-5.2 23.2V33.7M3165 57V33.7m-5 23.3V33.7m31.6 23.2V33.7m-5.3 23.2V33.7m31.5 23.2V33.7m-5.3 23.2V33.7m-5.2 23.2V33.7m-5.3 23.2V33.7m-5.2 23.2V33.7m31.6 23.2V33.7M3223 57V33.7m26 23.2V33.7m-5 23.3V33.7m-5.3 23.2V33.7m-5.2 23.2V33.7M2871.3 57V33.7m-5.2 23.2V33.7m-5.3 23.2V33.7m-5.2 23.2V33.7m-5.2 23.2V33.7M2845 57V33.7m-5 23.3V33.7m-5.3 23.2V33.7m-5.2 23.2V33.7M2824 57V33.7m-5 23.3V33.7m-5.2 23.2V33.7m-5.3 23.2V33.7m-5.2 23.2V33.7m-5.3 23.2V33.7m83.6 23.2V33.7m-5.2 23.2V33.7M2908 57V33.7m-5.2 23.2V33.7m-5.3 23.2V33.7m-5.2 23.2V33.7M2887 57V33.7M2793 57V33.7m-5.3 23.2V33.7m-5.2 23.2V33.7M2918.6 57V33.7m-5.2 23.2V33.7m31.4 23.2V33.7m-5.2 23.2V33.7m-5.3 23.2V33.7m-5.2 23.2V33.7m-5.3 23.2V33.7m31.6 23.2V33.7m-5.2 23.2V33.7m31.4 23.2V33.7m-5.3 23.2V33.7m-5.2 23.2V33.7m-5.2 23.2V33.7m-5.3 23.2V33.7m31.6 23.2V33.7M2987 57V33.7m26 23.3V33.7m-5 23.3V33.7m-5.2 23.2V33.7m-5.3 23.2V33.7m-220 23.2V33.7m-5.2 23.2V33.7m-5.3 23.2V33.7m-5.2 23.2V33.7m-5.2 23.2V33.7m-5.3 23.2V33.7M2746 57V33.7m-5.3 23.2V33.7m544.8 22.6V33m-5.3 23.2V33m-5.2 23.2V33m-5.3 23.2V33m-5.2 23.2V33m-5.2 23.2V33m-5.3 23.2V33m42.5 23.2V33m-5.2 23.2V33m16.2 23.2V33m-5.3 23.2V33m16.3 23.2V33m-5.2 23.2V33m41.2 23.2V33m-5.2 23.2V33m-5.3 23.2V33m-5.2 23.2V33m-5.3 23.2V33m-5.2 23.2V33m-5.2 23.2V33m42.5 23.2V33m-5.3 23.2V33m16.2 23.2V33m-5.2 23.2V33m16.3 23.2V33m-5.3 23.2V33"></path><path fill="#f1f1f1" stroke-width="0" d="M3744.1 30.3h-236.6v27.9h236.6v492.6h27.8V30.3h-27.8z"></path><path fill="none" stroke="#f1f1f1" stroke-miterlimit="70.7" stroke-width="1.4" d="M3511 33.1h233.1v22.3H3511V33.1zm25.4 0v22.3m5.4-22.3v22.3M3547 33v22.3m5.3-22.3v22.3m5.4-22.3v22.3M3563 33v22.3m5.3-22.3v22.3m5.4-22.3v22.3M3579 33v22.3m5.3-22.3v22.3m5.4-22.3v22.3M3595 33v22.3m5.3-22.3v22.3m5.4-22.3v22.3M3611 33v22.3m5.3-22.3v22.3m5.4-22.3v22.3M3627 33v22.3m5.3-22.3v22.3m5.4-22.3v22.3M3643 33v22.3m5.3-22.3v22.3m5.4-22.3v22.3M3659 33v22.3m5.3-22.3v22.3m5.4-22.3v22.3M3675 33v22.3m5.3-22.3v22.3m5.3-22.3v22.3M3691 33v22.3m5.3-22.3v22.3m5.4-22.3v22.3M3707 33v22.3m4.8-22.3v22.3m5.3-22.3v22.3m5.3-22.3v22.3M3728 33v22.3m5.3-22.3v22.3m5.3-22.3v22.3M3516 33v22.3m5.3-22.3v22.3m5.3-22.3v22.3m5.3-22.3v22.3m215 2.9h22.2v488.4H3747V58.2Zm0 115h22.2m-22.2-5.3h22.2m-22.2-5.2h22.2m-22.2-5.3h22.2m-22.2-5.2h22.2m-22.2-5.3h22.2m-22.2-5.2h22.2m-22.2-5.2h22.2m-22.2-5.3h22.2M3747 126h22.2m-22.2-5.3h22.2m-22.2-5.2h22.2m-22.2-5.2h22.2M3747 105h22.2m-22.2-5.2h22.2m-22.2-5.3h22.2m-22.2-5.2h22.2M3747 84h22.2m-22.2-5.2h22.2m-22.2-5.3h22.2m-22.2-5.2h22.2M3747 63h22.2M3747 288.6h22.2m-22.2-5.2h22.2M3747 278h22.2m-22.2-5h22.2m-22.2-5.2h22.2m-22.2-5.3h22.2m-22.2-5.2h22.2M3747 252h22.2m-22.2-5.2h22.2m-22.2-5.3h22.2m-22.2-5.2h22.2M3747 231h22.2m-22.2-5.2h22.2m-22.2-5.3h22.2m-22.2-5.2h22.2M3747 210h22.2m-22.2-5.3h22.2m-22.2-5.2h22.2m-22.2-5.3h22.2M3747 189h22.2m-22.2-5.3h22.2m-22.2-5.2h22.2M3747 404h22.2m-22.2-5.3h22.2m-22.2-5.2h22.2m-22.2-5.3h22.2M3747 383h22.2m-22.2-5.2h22.2m-22.2-5.3h22.2m-22.2-5.2h22.2M3747 362h22.2m-22.2-5h22.2m-22.2-5.3h22.2m-22.2-5.2h22.2M3747 341h22.2m-22.2-5h22.2m-22.2-5.3h22.2m-22.2-5.2h22.2m-22.2-5.2h22.2M3747 315h22.2m-22.2-5.2h22.2m-22.2-5.3h22.2m-22.2-5.2h22.2M3747 294h22.2M3747 519.5h22.2m-22.2-5.2h22.2M3747 509h22.2m-22.2-5.2h22.2m-22.2-5.3h22.2m-22.2-5.2h22.2m-22.2-5.2h22.2m-22.2-5.3h22.2m-22.2-5.2h22.2m-22.2-5.3h22.2m-22.2-5.2h22.2m-22.2-5.3h22.2m-22.2-5.2h22.2m-22.2-5.3h22.2m-22.2-5.2h22.2m-22.2-5.3h22.2m-22.2-5.2h22.2m-22.2-5.3h22.2m-22.2-5.2h22.2m-22.2-5.2h22.2m-22.2-5.3h22.2m-22.2-5.2h22.2M3747 534.8h22.2m-22.2-5.2h22.2m-22.2-5.3h22.2m-22.2 16h22.2m-21.1-506h20v20h-20v-20Zm0 0 20 20m0-20-20 20"></path><path fill="#f1f1f1" stroke-width="0" d="M3772.9 941.8V596.7h-27.8v345.1h-576.2v27.9h604v-27.9z"></path><path fill="none" stroke="#f1f1f1" stroke-miterlimit="70.7" stroke-width="1.4" d="M3747.9 598.8h22.2v343h-22.2v-343zm22.2 135.4H3748m22.2 5.3H3748m22.2 5.4H3748m22.2 5.3H3748m22.2 5.3H3748m22.2 5.3H3748m22.2 5.4H3748m22.2 5.3H3748m22.2 5.3H3748m22.2 5.4H3748m22.2 5.3H3748m22.2 5.3H3748m22.2 5.4H3748m22.2 5.3H3748m22.2 5.3H3748m22.2 5.4H3748m22.2 5.3H3748m22.2 5.3H3748m22.2 5.4H3748m22.2 5.3H3748m22.2 5.3H3748m22.2 5.4H3748m22.2 5.3H3748m22.2 5.3H3748m22.2 5.3H3748m22.2 5.4H3748m22.2 5.3H3748m22.2 5.4H3748m22.2 5.3H3748m22.2 5.3H3748m22.2 5.3H3748m22.2 5.4H3748m22.2 5.3H3748m22.2 4.8H3748m22.2 5.3H3748m22.2 5.4H3748m22.2 5.3H3748m22.2 5.3H3748m22.2 5.4H3748m22.2-222.7H3748m22.2 5.3H3748m22.2 5.4H3748m22.2 5.3H3748m22.1-37.4h-22.2m22.2 5.3h-22.2m22.2 5.4h-22.2m22.2 5.3h-22.2m22.2-36.9h-22.2m22.2 5.4h-22.2m22.2 5.3h-22.2m22.2 5.3h-22.2m22.2-36.8h-22.2m22.2 5.3h-22.2m22.2 5.3h-22.2m22.2 5.4h-22.2m22.2-36.9h-22.2m22.2 5.3h-22.2m22.2 5.3h-22.2m22.2 5.4h-22.2m22.7-37.2h-22.2m22.2 5.3h-22.2m22.2 5.4h-22.2m22.2 5.3h-22.2m22.5-21.4h-22.2m-577 341.6h573.4V967h-573.4v-22.3Zm459 0V967m5.3-22.3V967m5.2-22.3V967m5.2-22.3V967m5.2-22.3V967m5.2-22.3V967m5.2-22.3V967m5.2-22.3V967m5.2-22.3V967m5.3-22.3V967m5.2-22.3V967m5.2-22.3V967m5.2-22.3V967m5.2-22.3V967m5.2-22.3V967m5.2-22.3V967m5.3-22.3V967m5.2-22.3V967m5.2-22.3V967m5.2-22.3V967m5.2-22.3V967m5.2-22.3V967M3516 944.6V967m5.2-22.3V967m5.2-22.3V967m5.2-22.3V967m5.2-22.3V967m5.3-22.3V967m5.2-22.3V967m5.2-22.3V967m5.2-22.3V967m5.2-22.3V967m5.2-22.3V967m5.3-22.3V967m5.2-22.3V967m5.2-22.3V967m5.2-22.3V967m5.2-22.3V967m5.2-22.3V967m5.2-22.3V967m5.3-22.3V967m5.2-22.3V967m5.2-22.3V967m5.2-22.3V967m-224.2-22.3V967m5.2-22.3V967m5.2-22.3V967m5.2-22.3V967m5.2-22.3V967m5.2-22.3V967m5.2-22.3V967m5.3-22.3V967m5.2-22.3V967m5.2-22.3V967m5.2-22.3V967m5.2-22.3V967m5.2-22.3V967m5.2-22.3V967m5.3-22.3V967m5.2-22.3V967m5.2-22.3V967m5.2-22.3V967m5.2-22.3V967m5.2-22.3V967m5.2-22.3V967m5.2-22.3V967m-224.1-22.3V967m5.2-22.3V967m5.2-22.3V967m5.2-22.3V967m5.2-22.3V967m5.2-22.3V967m5.2-22.3V967m5.2-22.3V967m5.2-22.3V967m5.3-22.3V967m5.2-22.3V967m5.2-22.3V967m5.2-22.3V967m5.2-22.3V967m5.2-22.3V967m5.2-22.3V967m5.3-22.3V967m5.2-22.3V967m5.2-22.3V967m5.2-22.3V967m5.2-22.3V967m5.2-22.3V967m-124.7-22.3V967m5.3-22.3V967m5.2-22.3V967m-16-22.3V967m-15.2-22.3V967m5.2-22.3V967m5.2-22.3V967m-16-22.3V967m-15.9-22.7v22.3m5.2-22.3v22.3m5.3-22.3v22.3m-16-22.3v22.3m-15.2-22.3v22.3m5.2-22.3v22.3m5.2-22.3v22.3m-16-22.3v22.3m-15.2-22.3v22.3m5.2-22.3v22.3m5.2-22.3v22.3m-16-22.3v22.3m-5.4-22.3v22.3m572.4-20.8h20v20h-20v-20Zm20 0-20 20m20 0-20-20"></path><path fill="#f1f1f1" stroke-width="0" d="M2781.3 940.8h344.8v28.9h-344.8v-28.9z"></path><path fill="none" stroke="#f1f1f1" stroke-miterlimit="70.7" stroke-width="1.4" d="M2784.7 943.7h338v23.1h-338v-23.1zm150.5 23.1v-23.1m-5.2 23.1v-23.1m-5.3 23.1v-23.1m-5.2 23.1v-23.1m-5.3 23.1v-23.1m-5.2 23.1v-23.1m-5.3 23.1v-23.1m-5.2 23.1v-23.1m-5.2 23.1v-23.1m-5.3 23.1v-23.1m-5.2 23.1v-23.1m-5.3 23.1v-23.1m-5.2 23.1v-23.1m-5.2 23.1v-23.1m-5.3 23.1v-23.1m83.6 23.1v-23.1m-5.3 23.1v-23.1m31.8 23.1v-23.1m-5.2 23.1v-23.1m-5.3 23.1v-23.1m-5.2 23.1v-23.1m-5.3 23.1v-23.1m-94.2 23.1v-23.1m-5.2 23.1v-23.1m-5.2 23.1v-23.1m136.2 23.1v-23.1m-5.2 23.1v-23.1m31.4 23.1v-23.1m-5.3 23.1v-23.1m-5.2 23.1v-23.1m-5.3 23.1v-23.1m-5.2 23.1v-23.1m31.6 23.1v-23.1m-5.2 23.1v-23.1m31.4 23.1v-23.1m-5.3 23.1v-23.1m-5.2 23.1v-23.1m-5.2 23.1v-23.1m-5.3 23.1v-23.1m26.4 23.1v-23.1m-209.4 23.4v-23.2m-5.2 23.2v-23.2m-5.2 23.2v-23.2m-5.3 23.2v-23.2m-5.2 22.8v-23.1m-5.2 23.1v-23.1m-5.2 23.1v-23.1m250.6 23.2v-23.1m-5.3 23.1v-23.1m31.4 23.1v-23.1m-5.2 23.1v-23.1m-5.3 23.1v-23.1m-5.2 23.1v-23.1m-5.2 23.1v-23.1m26.3 23.1v-23.1m15.4 23.1v-23.1m-5.3 23.1v-23.1m-5.2 23.1v-23.1m15.8 23.1v-23.1m4.8 22.7v-23.1M2805.1 967v-23.2m-5.1 22.8v-23.1m-5.3 23.1v-23.1m-5.2 23.1v-23.1"></path><path fill="#f1f1f1" stroke-width="0" d="M2387.2 940.8H2732v28.9h-344.8v-28.9z"></path><path fill="none" stroke="#f1f1f1" stroke-miterlimit="70.7" stroke-width="1.4" d="M2390.7 943.7h337.9v23.1h-337.9v-23.1zm150.4 23.1v-23.1m-5.2 23.1v-23.1m-5.3 23.1v-23.1m-5.2 23.1v-23.1m-5.3 23.1v-23.1m-5.2 23.1v-23.1m-5.2 23.1v-23.1m-5.3 23.1v-23.1m-5.2 23.1v-23.1m-5.3 23.1v-23.1m-5.2 23.1v-23.1m-5.2 23.1v-23.1m-5.3 23.1v-23.1m-5.2 23.1v-23.1m-5.3 23.1v-23.1m83.6 23.1v-23.1m-5.2 23.1v-23.1m31.7 23.1v-23.1m-5.2 23.1v-23.1m-5.3 23.1v-23.1m-5.2 23.1v-23.1m-5.2 23.1v-23.1m-94.2 23.1v-23.1m-5.3 23.1v-23.1m-5.2 23.1v-23.1m136.2 23.1v-23.1m-5.2 23.1v-23.1m31.4 23.1v-23.1m-5.2 23.1v-23.1m-5.3 23.1v-23.1m-5.2 23.1v-23.1m-5.3 23.1v-23.1m31.6 23.1v-23.1m-5.2 23.1v-23.1m31.4 23.1v-23.1m-5.3 23.1v-23.1m-5.2 23.1v-23.1m-5.2 23.1v-23.1m-5.3 23.1v-23.1m26.4 23.1v-23.1m-209.4 23.4v-23.2m-5.2 23.2v-23.2m-5.2 23.2v-23.2m-5.3 23.2v-23.2m-5.1 22.8v-23.1m-5.3 23.1v-23.1m-5.2 23.1v-23.1m250.6 23.2v-23.1m-5.2 23.1v-23.1m31.4 23.1v-23.1m-5.3 23.1v-23.1m-5.2 23.1v-23.1m-5.3 23.1v-23.1m-5.2 23.1v-23.1m26.4 23.1v-23.1m15.3 23.1v-23.1m-5.3 23.1v-23.1m-5.2 23.1v-23.1m15.9 23.1v-23.1m4.8 22.7v-23.1M2411 967v-23.2m-5.2 22.8v-23.1m-5.2 23.1v-23.1m-5.3 23.1v-23.1"></path><path fill="#f1f1f1" stroke-width="0" d="M1997.3 940.8h344.8v28.9h-344.8v-28.9z"></path><path fill="none" stroke="#f1f1f1" stroke-miterlimit="70.7" stroke-width="1.4" d="M2000.7 943.7h337.9v23.1h-337.9v-23.1zm150.5 23.1v-23.1m-5.3 23.1v-23.1m-5.2 23.1v-23.1m-5.3 23.1v-23.1m-5.2 23.1v-23.1m-5.2 23.1v-23.1m-5.3 23.1v-23.1m-5.2 23.1v-23.1m-5.3 23.1v-23.1m-5.2 23.1v-23.1m-5.2 23.1v-23.1m-5.3 23.1v-23.1m-5.2 23.1v-23.1m-5.3 23.1v-23.1m-5.2 23.1v-23.1m83.6 23.1v-23.1m-5.3 23.1v-23.1m31.8 23.1v-23.1m-5.3 23.1v-23.1m-5.2 23.1v-23.1m-5.2 23.1v-23.1m-5.3 23.1v-23.1m-94.2 23.1v-23.1m-5.2 23.1v-23.1m-5.3 23.1v-23.1m136.3 23.1v-23.1m-5.2 23.1v-23.1m31.3 23.1v-23.1m-5.2 23.1v-23.1m-5.2 23.1v-23.1m-5.3 23.1v-23.1m-5.2 23.1v-23.1m31.6 23.1v-23.1m-5.3 23.1v-23.1m31.5 23.1v-23.1m-5.3 23.1v-23.1m-5.2 23.1v-23.1m-5.3 23.1v-23.1m-5.2 23.1v-23.1m26.3 23.1v-23.1m-209.3 23.4v-23.2m-5.2 23.2v-23.2m-5.3 23.2v-23.2m-5.2 23.2v-23.2m-5.2 22.8v-23.1m-5.2 23.1v-23.1m-5.3 23.1v-23.1m250.7 23.2v-23.1m-5.3 23.1v-23.1m31.4 23.1v-23.1m-5.2 23.1v-23.1m-5.3 23.1v-23.1m-5.2 23.1v-23.1m-5.3 23.1v-23.1m26.4 23.1v-23.1m15.3 23.1v-23.1m-5.2 23.1v-23.1m-5.2 23.1v-23.1m15.8 23.1v-23.1m4.8 22.7v-23.1M2021.1 967v-23.2m-5.1 22.8v-23.1m-5.3 23.1v-23.1m-5.2 23.1v-23.1"></path><path fill="#f1f1f1" stroke-width="0" d="M1605.9 940.8h344.8v28.9h-344.8v-28.9z"></path><path fill="none" stroke="#f1f1f1" stroke-miterlimit="70.7" stroke-width="1.4" d="M1609.4 943.7h337.9v23.1h-337.9v-23.1zm150.4 23.1v-23.1m-5.2 23.1v-23.1m-5.2 23.1v-23.1m-5.3 23.1v-23.1m-5.2 23.1v-23.1m-5.3 23.1v-23.1m-5.2 23.1v-23.1m-5.2 23.1v-23.1m-5.3 23.1v-23.1m-5.2 23.1v-23.1m-5.3 23.1v-23.1m-5.2 23.1v-23.1m-5.3 23.1v-23.1m-5.2 23.1v-23.1m-5.2 23.1v-23.1m83.5 23.1v-23.1m-5.2 23.1v-23.1m31.8 23.1v-23.1m-5.3 23.1v-23.1m-5.2 23.1v-23.1m-5.3 23.1v-23.1m-5.2 23.1v-23.1m-94.2 23.1v-23.1m-5.3 23.1v-23.1m-5.2 23.1v-23.1m136.3 23.1v-23.1m-5.3 23.1v-23.1m31.4 23.1v-23.1m-5.2 23.1v-23.1m-5.3 23.1v-23.1m-5.2 23.1v-23.1m-5.2 23.1v-23.1m31.6 23.1v-23.1m-5.3 23.1v-23.1m31.4 23.1v-23.1m-5.2 23.1v-23.1m-5.3 23.1v-23.1m-5.2 23.1v-23.1m-5.2 23.1v-23.1m26.3 23.1v-23.1m-209.3 23.4v-23.2m-5.3 23.2v-23.2m-5.2 23.2v-23.2m-5.2 23.2v-23.2m-5.2 22.8v-23.1m-5.2 23.1v-23.1m-5.3 23.1v-23.1m250.6 23.2v-23.1m-5.2 23.1v-23.1m31.4 23.1v-23.1m-5.3 23.1v-23.1m-5.2 23.1v-23.1m-5.2 23.1v-23.1m-5.3 23.1v-23.1m26.4 23.1v-23.1m15.3 23.1v-23.1m-5.2 23.1v-23.1m-5.3 23.1v-23.1m16 23.1v-23.1m4.7 22.7v-23.1M1629.8 967v-23.2m-5.2 22.8v-23.1m-5.2 23.1v-23.1m-5.2 23.1v-23.1"></path><path fill="#f1f1f1" stroke-width="0" d="M1209.1 940.8h344.8v28.9h-344.8v-28.9z"></path><path fill="none" stroke="#f1f1f1" stroke-miterlimit="70.7" stroke-width="1.4" d="M1212.6 943.7h337.9v23.1h-337.9v-23.1zm150.4 23.1v-23.1m-5.2 23.1v-23.1m-5.3 23.1v-23.1m-5.2 23.1v-23.1m-5.3 23.1v-23.1m-5.2 23.1v-23.1m-5.2 23.1v-23.1m-5.3 23.1v-23.1m-5.2 23.1v-23.1m-5.3 23.1v-23.1m-5.2 23.1v-23.1m-5.2 23.1v-23.1m-5.3 23.1v-23.1m-5.2 23.1v-23.1m-5.3 23.1v-23.1m83.6 23.1v-23.1m-5.2 23.1v-23.1m31.7 23.1v-23.1m-5.2 23.1v-23.1m-5.3 23.1v-23.1m-5.2 23.1v-23.1m-5.3 23.1v-23.1m-94.1 23.1v-23.1m-5.3 23.1v-23.1m-5.2 23.1v-23.1m136.2 23.1v-23.1m-5.2 23.1v-23.1m31.4 23.1v-23.1m-5.2 23.1v-23.1m-5.3 23.1v-23.1m-5.2 23.1v-23.1m-5.3 23.1v-23.1m31.6 23.1v-23.1m-5.2 23.1v-23.1m31.4 23.1v-23.1m-5.3 23.1v-23.1m-5.2 23.1v-23.1m-5.2 23.1v-23.1m-5.3 23.1v-23.1m26.4 23.1v-23.1m-209.4 23.4v-23.2m-5.2 23.2v-23.2m-5.2 23.2v-23.2m-5.3 23.2v-23.2m-5.1 22.8v-23.1m-5.3 23.1v-23.1m-5.2 23.1v-23.1m250.6 23.2v-23.1m-5.3 23.1v-23.1m31.5 23.1v-23.1m-5.3 23.1v-23.1m-5.2 23.1v-23.1m-5.3 23.1v-23.1m-5.2 23.1v-23.1m26.4 23.1v-23.1m15.3 23.1v-23.1m-5.3 23.1v-23.1m-5.2 23.1v-23.1m15.9 23.1v-23.1m4.7 22.7v-23.1M1233 967v-23.2m-5.2 22.8v-23.1m-5.2 23.1v-23.1m-5.3 23.1v-23.1"></path><path fill="#f1f1f1" stroke-width="0" d="M540.8 923.7h62v11.1h-62v-11.1z"></path><path d="M779.2 413.7h-40.4a19.2 19.2 0 0 1-19.2-19.1v-.9c0-10.6 8.6-19.1 19.2-19.1h40.4v39.1Z" fill="#f1f1f1" stroke="#f1f1f1" stroke-miterlimit="70.7" stroke-width=".3"></path><path d="M764.8 414.5h-26.5a19.7 19.7 0 0 1-19.7-19.8v-.9c0-10.9 8.8-19.7 19.7-19.7h26.5c3 0 5.5 2.5 5.5 5.5V409c0 3-2.5 5.6-5.5 5.6Z" fill="#f1f1f1" stroke="#f1f1f1" stroke-miterlimit="70.7" stroke-width=".3"></path><path d="M764 413h-25.3a18.4 18.4 0 0 1-18.3-18.3v-.8c0-10.2 8.2-18.4 18.3-18.4H764c2.6 0 4.6 2 4.6 4.6v28.4c0 2.5-2 4.6-4.6 4.6Z" fill="#f1f1f1" stroke="#f1f1f1" stroke-miterlimit="70.7" stroke-width=".3"></path><path fill="#f1f1f1" stroke="#f1f1f1" stroke-miterlimit="70.7" stroke-width=".2" d="M750.4 452.6h118.4v46.7H750.4v-46.7z"></path><g><path d="m785.3 479.9-2.7 1.6 2.7-1.6Zm42.8-12.8 2-1.5-2 1.5Zm8.6-2 1.3 1.1-1.3-1Zm-1.4-2.8 1.4 2.9-1.4-2.9Zm-.1-1.7.9-2-.9 2Zm-1.5.9 1.5-1-1.5 1Zm-2.3.6 2.3-.6-2.3.6Zm-.5 4.5.7 1.6-.7-1.6Zm0-1.7v1.7-1.7Zm.5-2.8-.5 2.8.5-2.8Zm1.6-1.2-1.6 1.2 1.6-1.2Zm.8-.7-.8.7.8-.7Zm.9-.6-.9.6.9-.6Zm1.4-1-1.4 1 1.4-1Zm1.4-2.6-1.4 2.5 1.4-2.5Zm-17.3.7v.7-.7Zm-.8-2.1.8 2-.8-2Zm.5-1.4-.5 1.4.5-1.4Zm.6 1.6.8-1.6-.8 1.6Zm0 1.6v-1.6 1.6Zm1.5 1.2-1.5-1.2 1.5 1.2Zm1.2.8-1.2-.8 1.2.8Zm1.7 0h-1.7 1.7Zm1.8.5-1.8-.5 1.8.5Zm2.2 1-2.2-1 2.2 1Zm1.9 0h-2 2Zm1.7-.7h1.5-1.5Zm-3.2 1.4 3.2-1.4-3.2 1.4Zm-1.3-.1h1.3-1.3Zm-2.3-1.3 2.3 1.3-2.3-1.3Zm-1.9 0h1.9-1.9Zm-1.7-.5 1.7.5-1.7-.5Zm.2 1.3-.2-1.3.2 1.3Zm.2 1.3-.2-1.3.2 1.3Zm-.8.7.8-.7-.8.7Zm1.4 2.7-1.4-2.7 1.4 2.7Zm.5 2.5-.5-2.5.5 2.5Zm-.7 1.3.7-1.3-.7 1.3Zm-3-7 .4-.4-.5.4Zm.5 1.5-.6-1.5.6 1.5Zm.5 1.6-.5-1.6.5 1.6Zm-.8.7.8-.7-.8.7Zm1.4 2.1-1.4-2.1 1.4 2.1Zm-10.4 1.8.2 1.2-.2-1.2Zm1.7-1.3-1.7 1.3 1.7-1.3Zm2.1-2.5-2.1 2.5 2.1-2.5Zm1.5-1.1-1.5 1.1 1.5-1.1Zm.9-1.5-1 1.5 1-1.5Zm.7-3.5 1 .8-1-.8Zm-1.3 2.2 1.3-2.2-1.3 2.2Zm-1.5 2.4 1.5-2.4-1.5 2.4Zm-1.2 2 1.2-2-1.2 2Zm-.8 1.3.8-1.2-.8 1.2Zm-1 1.7 1-1.7-1 1.7Zm-1 1.5 1-1.5-1 1.5Zm.7 1.1-.6-1 .6 1Zm-1.1 1.5 1.1-1.5-1.1 1.5Zm-.9 1.1.9-1.1-.9 1.1Zm-.1-6.7 1.1-.9-1.1 1Zm-.8 1 .8-1-.8 1Zm1 1.3-1-1.3 1 1.3Zm-.6 1.4.6-1.4-.6 1.4Zm-.6.5.6-.5-.6.5Zm-1.5-1.2 1.5 1.2-1.5-1.2Zm-1 1.8.7-1.2-.6 1.2Zm-1.3-.5 1.4.5-1.4-.5Zm8.5-10.3-.6.9.6-1Zm0-1.4v1.4-1.4Zm0-1.2v1.2-1.2Zm.7-3.6-.7 3.6.7-3.6Zm0-1.5.5-.5-.4.5Zm2.3-.5-2.2.5 2.2-.5Zm-4.1 1 1.3-1-1.3 1Zm.2 1.2-.2-1.2.2 1.2Zm-.8 1.6.8-1.6-.8 1.6Zm0 2v-2 2Zm-1.2 2.2 1.2-2.2-1.2 2.2Zm1.2 2-1.2-2 1.2 2Zm-1.1 2.5 1-2.5-1 2.5Zm-1.9 1.4 1.9-1.4-1.9 1.4Zm-1.3 0h1.3-1.3Zm-2.6 0h2.6-2.6Zm20.6 7.2 3-2.3-3 2.3Zm13.4-8.2-2.8-4.4 2.8 4.4Zm.8 3.5-.8-3.5.8 3.5Zm4.3 4.2-4.3-4.2 4.3 4.2Zm6.1 9.8.7.5-.7-.5Zm0-1.7v1.7-1.7Zm-2-3 2 3-2-3Zm-1-3.8-1.8-2.5 1.8 2.5Zm3.3 4.8-3.3-4.8 3.3 4.8Zm.5 2.4-.5-2.4.5 2.4Zm1.1 2.6-1-2.6 1 2.6Zm-1 .9 1-.9-1 .9Zm0 2v-2 2Zm3.9 11-1-1 1 1Zm-2.8-3.3 2.8 3.3-2.8-3.3Zm-.7-3.4.7 3.4-.7-3.4Zm-.7-3.4.7 3.4-.7-3.4Zm-1.1-1.9 1.1 2-1.1-2Zm.4-2-.4 2 .4-2Zm-1.5-4.3 1.5 4.2-1.5-4.2Zm-.3 10.7-1.6-2.9 1.6 2.9Zm2 4.7-2-4.7 2 4.7Zm1.5 2.2-1.5-2.2 1.5 2.2Zm-.6.7.6-.7-.6.7Zm-8.5-6.1 2.2 1.7-2.2-1.7Zm-4.2.1 1.2-1.4-1.2 1.4Zm.6 2.7-.6-2.7.6 2.7Zm-.6-7.3L836 491l2.4-2.8Zm1.3-1.5-1.3 1.5 1.3-1.5Zm0-2.5v2.5-2.5Zm-1.6-6.4.4 2.1-.4-2Zm.5-1.8-.5 1.8.5-1.8Zm-.5-1.6.5 1.6-.5-1.6Zm-1.5-2.6 1.5 2.6-1.5-2.6Zm-15.1 23.4v1.8-1.8Zm-19.3-11.7L801 482l1.3 1.5Zm7.8 1 .4-1.5-.4 1.4Zm-.3 1.4.3-1.5-.3 1.5Zm13.4 2.3-.2.8.2-.8Zm-.1-2.3.1 2.3-.1-2.3Zm1-2.7-1 2.7 1-2.7Zm0 2.2v-2.2 2.2Zm2 .3-2-.3 2 .3Zm2-2.5-2 2.5 2-2.5Zm0 4.2v-4.2 4.2Zm-.7 5 .7-5-.7 5Zm0 3v-3 3Zm-2 3.1 2-3.1-2 3.1Zm.2.3-.1-.3.1.3Zm6.3-2.3-1.6 2.3 1.6-2.3Zm0-.8v.8-.8Zm-1.4-.5 1.4.5-1.4-.5Zm-.8-1.4.8 1.4-.8-1.4Zm1-4.2-1 4.2 1-4.2Zm1.2-3-1.3 3 1.3-3Zm0-2.1v2.1-2.1Zm1.2-1.5-1.2 1.5 1.2-1.5Zm0-1.3v1.3-1.3Zm-1.4.3 1.4-.3-1.4.3Zm-.2-.5.2.5-.2-.5Zm1.2-2-1.2 2 1.2-2Zm1.4-1.6-1.4 1.6 1.4-1.6Zm0-1.5v1.5-1.5Zm-1.2 1 1.2-1-1.2 1Zm-.5-.3.5.3-.5-.3Zm-.5-2.2.5 2.2-.5-2.2Zm0-2v2-2Zm-.5 1 .5-1-.5 1Zm-1.6 1.5 1.6-1.5-1.6 1.5Zm-2.4 1.8 2.4-1.8-2.4 1.8Zm-.5 2.7.5-2.7-.5 2.7Zm-1.5 2 1.5-2-1.5 2Zm-1 .6 1-.6-1 .6Zm-.9-2.4.8 2.4-.8-2.4Zm-.1-1.5.1 1.5-.1-1.5Zm.8-1.7-.8 1.7.8-1.7Zm.5-2.8-.5 2.8.5-2.8Zm-2.7 4.2 1.2-2-1.2 2Zm0 2.2v-2.2 2.2Zm0 2v-2 2Zm-.5 1.4.5-1.4-.5 1.4Zm-.8.8.8-.8-.8.8Zm.5 1-.5-1 .5 1Zm0 1.2v-1.3 1.3Zm-.9 0h.9-.9Zm-1.4 2 1.4-2-1.4 2Zm-1-6.5-1.2-.9 1.2.9Zm1 0h-1 1Zm1.6.7-1.5-.7 1.5.7Zm.5-1.9-.5 1.9.5-1.9Zm0-1.8v1.8-1.8Zm1-2.2-1 2.2 1-2.2Zm1.2-1-1.3 1 1.3-1Zm1.5-2-1.5 2 1.5-2Zm0-1.1v1-1Zm-.8.6.8-.6-.8.6Zm-1 1 1-1-1 1Zm-2.7.2 2.8-.3-2.8.3Zm-1.7 0h1.7-1.7Zm-2.2 1.6 2.2-1.6-2.2 1.6Zm.5 1-.5-1 .5 1Zm0 1.7v-1.8 1.8Zm-1.6 1.1 1.6-1.1-1.6 1.1Zm-1.9 1.7h2.7-2.7Zm-.6 1.5.6-1.5-.6 1.5Zm0-4 1.3-1-1.4 1Zm-1.6.3 1.5-.3-1.5.3Zm0 1.6v-1.6 1.6Zm15.5-18.8 1.4-1.1-1.4 1Zm-1 1.8 1-1.8-1 1.8Zm-.6 1.9.6-1.9-.6 1.9Zm0 1.2v-1.2 1.2Zm-.7 1.2.7-1.2-.7 1.2Zm0 1.8v-1.8 1.8Zm-.5 1.3.5-1.3-.5 1.3Zm-1.9.7h1-1Zm1.1-3.5v-.5.5Zm-1.5 1.2 1.5-1.2-1.5 1.2Zm-.8.6.8-.6-.8.6Zm-.5 1.8.5-1.8-.5 1.8Zm-.7.5.7-.5-.7.5Zm-1 .3 1-.3-1 .3Zm-1.6.3 1.6-.3-1.6.3Zm-1.3 1 1.3-1-1.3 1Zm1-1-1 1 1-1Zm0-2v2-2Zm1-1.5-1 1.6 1-1.6Zm-1 0h1-1ZM815 472l1.4-1.8-1.4 1.8Zm-1.3 3 1.3-3-1.3 3Zm.8 1.4-.8-1.4.8 1.4Zm-1 1.2 1-1.2-1 1.2Zm-1.8 1.4 1.8-1.4-1.8 1.4Zm-.6-2 .6 2-.6-2Zm.8-.6-.8.6.8-.6Zm-.8-.7.8.7-.8-.7Zm-.8 0h.8-.8Zm-1.2-.9 1.2 1-1.2-1Zm-52.6-11.3 1.5.9-1.5-1Zm-3.7-.7 3.7.7-3.7-.7Zm27.7-5.2.7 2-.7-2Zm10.2 15.4 1.2-2-1.2 2Zm2.9-1.8V469v2.3Zm-2 2.9 2-2.9-2 2.9Zm0 2.7v-2.7 2.7Zm7.3 4.8 1 1.2-1-1.2Zm.7-1.5-.7 1.5.7-1.5Zm-1.2-1 1.2 1-1.2-1Zm-.8 1.5.8-1.4-.8 1.4Zm8.4 9.7v-1.5 1.5Zm-1.8 1.7 1.4-1-1.4 1Zm-.9 1.3 1-1.3-1 1.3Zm-1.9-2.5 2 2.5-2-2.5Zm12-.6.6 2-.6-2Zm-.4-.4.4.4-.4-.4Zm-2.5-2.5 2.5 2.5-2.5-2.5Zm-2 .4 2-.4-2 .4Zm0-1v1-1Zm13.7 7.5 1.4-4.1-1.4 4Zm2.2 4.5Zm1.3-2.1-1.3 2 1.3-2Zm0-3.6v3.6-3.6Zm1.2-5-1.2 5 1.2-5Zm-.6.4.6-.4-.6.4Zm-.7-1.8.7 1.8-.7-1.8Zm-1.7.4 1.7-.4-1.7.4Zm0 2.1v-2 2Zm-2.4 2.4 2.4-2.4-2.4 2.4Zm1.2 4.7-1.2-4.7 1.2 4.7Zm0 2.6v-2.6 2.6Zm-2-.5.2.5-.1-.5Zm-.4-3.5.5 3.5-.5-3.5Zm.6-2.5-.6 2.5.6-2.5Zm1-4.1-1 4 1-4Zm-1.3-.6 1.2.6-1.2-.6Zm-1.7 2.2 1.7-2.2-1.7 2.2Zm-.6-2.8.6 2.8-.6-2.8Zm1-2.6-1 2.6 1-2.6Zm-1.4-.3 1.4.3-1.4-.3Zm-1.4 0h1.4-1.4Zm0-2.6v2.6-2.6Zm-1.8-.6 1.8.6-1.8-.6Zm-1.7 3.2 1.7-3.2-1.7 3.2Zm0 3v-3 3Zm1 2.7-1-2.8 1 2.8Zm0 2.5v-2.5 2.5Zm1.5 4.1 1 2.4-1-2.4Zm-1.2-.7 1.2.7-1.2-.7Zm-.6-2.6.6 2.6-.6-2.6Zm-1.3-2.3 1.3 2.3-1.3-2.3ZM810 489l2.4 1.8-2.4-1.8Zm-2.7.6 2.7-.6-2.7.6Zm0-3.5v3.5-3.5ZM805 485l2.5 1.2-2.5-1.2Zm-1.6-1.2 1.6 1.2-1.6-1.2Zm-2-.4 2 .4-2-.4Zm-.6.6.6-.6-.6.6Zm1.9-1.3-1.7-.6 1.7.6Zm2.4 1.3-2.4-1.3 2.4 1.3Zm3.2 1.8L805 484l3.2 1.8Zm.6-.5-.6.5.6-.5Zm0-1.6v1.6-1.6Zm1-3-1 3 1-3Zm-.5-.7.4.8-.4-.8Zm1-1.2-1 1.2 1-1.2Zm-2.1-2.3 2 2.3-2-2.3Zm.6-2.5-.6 2.5.6-2.5Zm-.6-1 .6 1-.6-1Zm-1.7 0h1.7-1.7Zm0 2.1v-2 2Zm-1.3-1 1.3 1-1.3-1Zm-1.4.3 1.4-.3-1.4.3Zm-.3 1.7.3-1.7-.3 1.7Zm-1.7 2.1 1.7-2.1-1.7 2.1Zm-1 1.8 1-1.8-1 1.8Zm0 2.1V480v2.1Zm.5-5.5 1.3-2.9-1.3 3Zm-2 1 2-1-2 1ZM798 454l1.6 3.5-1.6-3.5Zm2.5-.6.1-.2-.1.2Zm-4 .8-.2-1 .3 1Zm2.2-.3-2.1.3 2.1-.3Zm1 .3-1-.3 1 .3Zm0 3.3v-3.3 3.3Zm9.4-.8 3.2-2.5-3.2 2.5Zm-4.3 4.2 4.3-4.2-4.3 4.2Zm-2 1.5 2-1.5-2 1.5Zm-1.4-2.9 1.4 3-1.4-3Zm.9 3.8-.9-3.8.9 3.8Zm0 3v-3 3Zm2.3 1.9-2.3-1.8 2.3 1.8Zm-1.3 3.4 1.3-3.4-1.3 3.4Zm-1 2.5 1-2.5-1 2.5Zm0 2.5v-2.5 2.5Zm-2.9 2.2 2.9-2.2-2.9 2.2Zm-1.6-1.2 1.6 1.2-1.6-1.2Zm.6-1.8-.6 1.8.6-1.8Zm.6-1.7-.6 1.7.6-1.7Zm-1.7-2.5 1.7 2.5-1.7-2.5Zm-14.8 0 6.2-1 4.4.7 4.2.3 1.7 2.5-16.5-2.6Zm14.8 4.6 1.7-2-1.7 2Zm0 3.1v-3.1 3.1Zm-4.2-.8 4.2.8-4.2-.8Zm-8.7 17.3h-2.3 2.3Zm-1.6-1.2 1.6 1.2-1.6-1.2Zm-.7-4.1 2-1.6-2 1.6Zm.8-2.3 5-1.6-5 1.6Zm-1.9 1.5 1.9-1.5-1.9 1.5Zm-2.8 0h2.8-2.8Zm-2.3 2.5 2.3-2.5-2.3 2.5Zm-2.2-25 .5-2-.5 2Zm2.1-8.9 1 .8-1-.8Zm-.4-2 .4 2-.4-2Zm-2-1.4 2 1.4-2-1.4Zm-1.2-1.7 1.2 1.7-1.2-1.7Zm12.4 1-.4-1 .4 1Zm-1.6.7 1.6-.7-1.6.7Zm-3 1.2 3-1.2-3 1.2Zm-1.4 1.5 1.5-1.5-1.5 1.5Zm4.4 13.6 1 .7-1-.7Zm-2.2-.7h1.4-1.4Zm-3-1.6 1.2.9-1.2-1Zm-2 0h2-2Zm10.9 29.6-.2.3.2-.3Zm.8-.6-.8.6.8-.6Zm-1.7 0h1.7-1.7Zm-1-.8 1 .8-1-.8Zm-.7 0h.7-.7Zm-3-2.8-.2.6.3-.6Zm.7-1.2-.6 1.2.6-1.2Zm0-1.8v1.8-1.8Zm-1.2 0h1.2-1.2Zm-1.8-.5 1.8.5-1.8-.5Zm-2 1.6 2-1.6-2 1.6Zm.5-6.8v1.7-1.7Zm.3 2.4h1.9-2Zm-1.1 2.2 1-2.2-1 2.2Zm-1.4 0h1.4-1.4Zm-.6-1 .6 1-.6-1Zm.4-1.6-.4 1.6.4-1.6Zm1.4-2.4-1.4 2.4 1.4-2.4Zm10.5-4.7v-.8.8Zm.9 1.4-.7-.5.7.5Zm1.7 0h-1.7 1.7Zm1.3.3.5-2-.5 2Zm-.7 3.2.7-3.2-.7 3.2Zm-.5 2 .5-2-.5 2Zm-1 8.2 1-8.3-1 8.3Zm0 0-.8 3.2.8-3.2Zm-1.3 1 1.3-1-1.3 1Zm-1.2 0h1.2-1.2Zm0-1.3v1.2-1.2Zm-2.3-2.3 2.3 2.3-2.3-2.3Zm0-1.1v1.1-1.1Zm1-2-1 2 1-2Zm1.9-1.3-1.9 1.4 1.9-1.4Zm1.3 0h-1.3 1.3Zm1.6-1.3-1.6 1.3 1.6-1.3Zm-1.6-2h2-2Zm-2.9 1.1 2.9-1-2.9 1Zm-3.5 1.3 3.5-1.3-3.5 1.3Zm-2.5-.8 2.5.8-2.5-.8Zm-.7-1.7.7 1.7-.7-1.7Zm1.7-1.3-1.7 1.3 1.7-1.3Zm.7-2.2-.7 2.2.7-2.2Zm1.8-.2-1.8.2 1.8-.2Zm4.6-3h1-1Zm-1.9 1.4 1.9-1.4-1.9 1.4Zm-3.4 1 3.4-1-3.4 1Zm-1.5 1.1 1.5-1.1-1.5 1.1Zm-2.5 2.7 2.5-2.7-2.5 2.7Zm-1.5-.3 1.5.3-1.5-.3Zm0-.4v.4-.4Zm.4-1.4-.4 1.4.4-1.4Zm.7-3-.7 3 .7-3Zm-2.8 4.7-3.3 3.7 3.3-3.7Zm1.3-2.6-1.3 2.6 1.3-2.6Zm1.5-2.1-1.5 2.1 1.5-2.1Zm2.4-3.3-2.4 3.3 2.4-3.3Zm-1.2-4.1 1.2 4-1.2-4Zm-22.6-1 3.5 1.6-3.5-1.5Zm3 5.5 2.5.7-2.6-.7Zm-1.8-1.3 1.7 1.3-1.7-1.3Zm-.5-1.3.5 1.3-.5-1.3Zm-2.6-.4 2.6.4-2.6-.4Zm-1.4-1-1.2.6 1.2-.7Zm3.1-1.8-3 1.7 3-1.7Zm2.6-3.5-2.6 3.5 2.6-3.5Zm14.4 2.2.4-.4-.4.4Zm-2.2 0h2.2-2.2Zm-1.3-1 1.3 1-1.3-1Zm-2.7-.5 2.7.5-2.7-.5Zm2.8-1-2.3-.7 2.3.7Zm2.7 0h-2.7 2.7Zm2 1-2-1 2 1Zm1.5 1.7-1.5-1.8 1.5 1.8Zm3.2 2-3.2-2 3.2 2Zm1.6-5 2.5 3.3-2.5-3.3ZM779 464l1.6 2.7-1.6-2.7Zm-1-3.4 1 3.4-1-3.4Zm0 1.8v-1.8 1.8Zm-2.3.9 2.3-.9-2.3.9Zm-4.3 1.6 4.3-1.6-4.3 1.6Zm26.8 30.5.6 3.3-.6-3.3Zm1.4-2-1.4 2 1.4-2Zm1.2-9.6-1.2 9.6 1.2-9.6Zm-2.5-1.7 2.5 1.7-2.5-1.7Zm-2.2-2.1 2.2 2.1-2.2-2.1Zm-3.4-.8 3.4.8-3.4-.8Zm-1.3-1 1.3 1-1.3-1Zm-2.3-2 2.3 2-2.3-2Zm-3.3-2.2 3.3 2.2-3.3-2.2Zm-1.3-3.5 1.3 3.5-1.3-3.5Zm-4.7-5.8 4.7 5.8-4.7-5.8Zm-1.2-6.2 1.2 6.2-1.2-6.2ZM777 462l1.6-3.5-1.6 3.5Zm-1.3 0h1.3-1.3Zm-4 1.6 4-1.6-4 1.6Zm-6.4 2.5 6.3-2.5-6.3 2.5Zm-6.3-.7 6.3.7-6.3-.7Zm-2-2.9 2 3-2-3Zm-3.4-.6 3.4.6-3.4-.6Zm-2.7-.4 2.7.4-2.7-.4Zm.1-8.4Zm9.9 45.6 1.4-1.5-1.4 1.5Zm88.4-43.4 1.4 1-1.4-1Zm-3.7-1 3.7 1-3.7-1Zm-2.2-.1-2.6.6 2.6-.6Zm1-1.1-1 1 1-1Zm-1.4 0Zm-.9.7.9-.7-.9.7Zm-1.3 1 1.3-1-1.3 1Zm-3.2 1.1 3.2-1-3.2 1Zm4-2.8v.2-.2Zm8.9 4-5.6-2.2 5.6 2.2Zm4.5.6-4.5-.6 4.5.6Zm5.5 3.3-5.5-3.3 5.5 3.3Zm6.4 3.1 1.6.7-1.6-.7Zm-4.8-.7-3.3-1.4 3.3 1.4Zm6.2 2.6-6.2-2.6 6.2 2.6Zm.2 0h-.2.2Zm-2.9-9.6 2.7.3-2.7-.3Zm-2.3.4 2.3-.4-2.3.4Zm-2-.3 2 .3-2-.3Zm-3.4-1.2 3.3 1.2-3.3-1.2Zm7.8-2 .4-.2-.4.2Zm-1.9 0h2-2Zm.3-.2-.3.2.3-.2Zm-83.4 45.6V497v1.8Zm-1.5-1.2 1.5 1.2-1.5-1.2Zm-5.3-.6-2.1 1.6 2-1.6Zm-3 .6-.6 1.2.6-1.2Zm1.9-1.4-1.9 1.4 1.9-1.4Zm0-2.2v2.2-2.2Zm3.3-1.8-3.3 1.8 3.3-1.8Zm6.3 6.3v.3-.3Zm-3.6-2.2.7-.2-.7.2Zm-1.6.5 1.6-.5-1.6.5Zm-2.3 0h2.3-2.3Zm0-1v1-1Zm-.6-1.3.6 1.3-.6-1.3Zm2-1.6-2 1.6 2-1.6Zm-8.7.4h2.2-2.2Zm3.1.2v1.5-1.5Zm2.8-.9-2.8 1 2.8-1Zm0-1v1-1Zm-1.3-.4 1.3.4-1.3-.4Zm-2 .2 2-.2-2 .2Zm-3 1.1 3-1-3 1Zm10 5.8.8.5-.9-.5Zm-1.5 0h1.4-1.4Zm-1.6.5 1.6-.5-1.6.5Zm-3.8-2.2-1.4 2.2 1.4-2.2Zm-1-2 1 2-1-2Zm-2.3-.5 2.3.5-2.3-.5Zm-1.7 1.3 1.7-1.3-1.7 1.3Zm-2.7.5 2.7-.5-2.7.5Zm-.3 1.4.3-1.4-.3 1.4Zm-.8-.5-1 2 1-2Zm1.4-1.1-1.4 1.1 1.4-1.1Zm3.5-2-3.5 2 3.5-2Zm-.3-1.2.3 1.2-.3-1.2Zm-.6 0h.6-.6Zm-1.8.3 1.8-.2-1.8.2Zm-4 .6 4-.6-4 .6Zm6.1-2.2 4.9-2.6-4.9 2.6Zm-3.2 1 3.2-1-3.2 1Zm-2.8 1.2 2.8-1.2-2.8 1.2Zm-4.2 1.9 4.2-1.9-4.2 1.9Zm-4.7-.9 4.7.9-4.7-.9Zm0-15.1.2.2-.2-.2Zm5.2-.3 1 2-1-2Zm-1.7-1.3 1.7 1.3-1.7-1.3Zm-1.7-.4 1.7.4-1.7-.4Zm-.4-2 .4 2-.4-2Zm-1.4-1.1.8-.9-.8.9Zm0 0Z" fill="#f1f1f1" stroke-width="0"></path><path id="_1_0" data-name="1 0" d="m785.3 479.9-2.7 1.6m45.5-14.4 2-1.5m6.6-.4 1.3 1m-2.7-3.9 1.4 2.9m-1.5-4.6.9-2m-2.4 2.9 1.5-1m-3.8 1.6 2.3-.6m-2.8 5 .7 1.7m-.7-3.3v1.7m.5-4.5-.5 2.8m2.1-4-1.6 1.2m2.4-1.9-.8.7m1.7-1.3-.9.6m2.3-1.7-1.4 1m2.8-3.5-1.4 2.5m-15.9-1.8v.7m-.8-2.8.8 2m-.3-3.4-.5 1.4m1.1.2.8-1.6m-.8 3.2v-1.6m1.5 2.8-1.5-1.2m2.7 2-1.2-.8m3 .8h-1.8m3.5.5-1.8-.5m4 1.6-2.2-1.1m4 1H829m3.6-.7h1.5m-4.7 1.4 3.2-1.4m-4.5 1.3h1.3m-3.6-1.3 2.3 1.3m-4.2-1.3h1.9m-3.6-.5 1.7.5m-1.5.8-.2-1.3m.4 2.6-.2-1.3m-.6 2 .8-.7m.6 3.4-1.4-2.7m1.9 5.2-.5-2.5m-.2 3.8.7-1.3m-3.8-5.7.5-.4m0 1.9-.5-1.5m1.1 3-.5-1.5m-.3 2.3.8-.7m.6 2.8-1.4-2.1m-9 4 .2 1.1m1.5-2.5-1.7 1.3m3.8-3.8-2.1 2.5m3.6-3.6-1.5 1.1m2.4-2.6-1 1.5m1.7-5 1 .8m-2.3 1.4 1.3-2.2m-2.8 4.6 1.5-2.4M814 466l1.2-2.1m-2 3.3.8-1.2m-1.8 3 1-1.8m-2 3.2 1-1.5m-.3 2.6-.6-1m-.5 2.5 1.1-1.5m-2 2.6.9-1.1m-1-5.6 1.1-.9m-1.9 2 .8-1m.2 2.2-1-1.3m.4 2.7.6-1.4m-1.2 1.9.6-.5m-2-.7 1.4 1.2m-2.4.6.6-1.2m-2 .7 1.4.5m7.1-10.8-.6.9m.6-2.3v1.4m0-2.6v1.2m.7-4.8-.7 3.6m.8-5 .4-.6m1.8 0-2.2.5m-2 .5 1.4-1m-1 2.2-.3-1.2m-.6 2.8.8-1.6m-.8 3.6v-2m-1.2 4.2 1.2-2.2m0 4.2-1.2-2m.1 4.5 1-2.5m-2.9 4 1.9-1.5m-3.2 1.4h1.3m-4 0h2.7m18 7.2 3-2.3m10.4-6-2.8-4.3m3.6 7.9-.8-3.5m5 7.7-4.2-4.2m10.4 14 .7.5m-.7-2.2v1.7m-2-4.8 2 3.1m-3-6.8-1.8-2.5m5.1 7.3-3.3-4.8m3.8 7.2-.5-2.4m1.6 5-1-2.6m0 3.5 1-.9m-1 3v-2.1m3.9 13-1-1m-1.8-2.3 2.8 3.3m-3.5-6.7.7 3.4m-1.4-6.8.7 3.4m-1.8-5.3 1.1 2m-.7-4-.4 2m-1.1-6.3 1.5 4.2m-1.8 6.5-1.6-2.9m3.6 7.6-2-4.7m3.5 7-1.5-2.3m.9 2.9.6-.7m-9-5.4 2.1 1.7m-6.4-1.6 1.2-1.4m-.6 4-.6-2.6m0-4.6L836 491m3.7-4.3-1.3 1.5m1.3-4v2.5m-1.6-8.9.4 2.1m0-4-.4 2m0-3.5.5 1.6m-2-4.2 1.5 2.6m-16.6 20.8v1.8m-19.3-13.5L801 482m9.1 2.4.4-1.4m-.7 2.9.3-1.5m13.1 3.8-.2.8m0-3 .2 2.2m.8-5-1 2.7m1-.5v-2.2m2 2.5-2-.3m4-2.2-2 2.5m2 1.7v-4.2m-.6 9.3.7-5.1m-.7 8v-3m-2 6.1 2-3.1m-1.8 3.4-.1-.3m6.4-2-1.6 2.3m1.6-3v.7m-1.4-1.3 1.4.5m-2.2-2 .8 1.5m.1-5.6-.9 4.2m2.2-7.2-1.3 3m1.3-5.1v2.1m1.2-3.6-1.2 1.5m1.2-2.8v1.3m-1.4-1 1.4-.3m-1.6-.2.2.5m1-2.5-1.2 2m2.6-3.6-1.4 1.6m1.4-3.1v1.5m-1.2-.5 1.2-1m-1.7.7.5.3m-1-2.5.5 2.2m-.5-4.2v2m-.5-1 .5-1m-2.1 2.5 1.6-1.5m-4 3.3 2.4-1.8m-2.9 4.5.5-2.7m-2 4.7 1.5-2m-2.6 2.6 1.1-.6m-1.9-1.8.8 2.4m-1-4 .2 1.6m.7-3.2-.8 1.7m1.3-4.5-.5 2.8m-2.2 1.4 1.2-2m-1.2 4.2v-2.2m0 4.2v-2m-.5 3.4.5-1.4m-1.3 2.2.8-.8m-.3 1.7-.5-.9m.5 2.2v-1.3m-.9 1.3h.9m-2.3 2 1.4-2m-2.4-4.5-1.2-.9m2.3.9h-1.1m2.6.7-1.5-.7m2-1.2-.5 1.9m.5-3.7v1.8m1-4-1 2.2m2.2-3.1-1.3 1m2.8-3.2-1.5 2.2m1.5-3.2v1m-.8-.4.8-.6m-1.7 1.5.9-1M820 475l2.8-.3m-4.5.3h1.7m-3.9 1.6 2.2-1.6m-1.7 2.5-.5-.9m.5 2.7v-1.8m-1.6 3 1.6-1.2m-3.5 2.8h2.7m-3.3 1.5.6-1.5m-.7-2.5 1.4-1m-2.9 1.3 1.5-.3m-1.5 2v-1.7m15.5-17.2 1.4-1.1m-2.4 3 1-2m-1.6 3.8.6-1.9m-.6 3.1v-1.2m-.7 2.4.7-1.2m-.7 3v-1.8m-.5 3.1.5-1.3m-2.4 2h1m.1-3.5v-.5m-1.5 1.7 1.5-1.2m-2.3 1.8.8-.6m-1.3 2.4.5-1.8m-1.2 2.3.7-.5m-1.7.8 1-.3m-2.6.6 1.6-.3m-3 1.4 1.4-1m-.3-.2-1 1.2m1-3v1.8m1-3.4-1 1.6m0-1.6h1m-2.4 1.8 1.4-1.8m-2.7 4.8 1.3-3m-.5 4.4-.8-1.4m-.2 2.6 1-1.2m-2.8 2.6 1.8-1.4m-2.4-.6.6 2m.2-2.6-.8.6m0-1.3.8.7m-1.6-.7h.8m-2-.9 1.2 1m-53.8-12.3 1.5.9m-5.2-1.6 3.7.7m24-6 .7 2.1m9.5 13.4 1.2-2m1.7.2V469m-2 5.2 2-2.9m-2 5.6v-2.7m7.3 7.5 1 1.2m-.3-2.7-.7 1.5m-.5-2.4 1.2.9m-2 .5.8-1.4m7.6 11v-1.4m-1.8 3.2 1.4-1m-2.3 2.3 1-1.3m-2.9-1.2 2 2.5m10-3 .6 2m-1-2.5.4.4m-2.9-3 2.5 2.6m-4.5-2 2-.5m-2-.6v1m13.7 6.5 1.4-4.1m.8 8.6v0m1.3-2.1-1.3 2m1.3-5.6v3.6m1.2-8.6-1.2 5m.6-4.6.6-.4m-1.3-1.4.7 1.8M824 487l1.7-.4m-1.7 2.5v-2m-2.4 4.4 2.4-2.4m-1.2 7-1.2-4.6m1.2 7.3v-2.6m-2 2.1.2.5m-.6-4 .5 3.5m0-6-.5 2.5m1.5-6.6-1 4m-.2-4.6 1.2.6m-2.9 1.6 1.7-2.2m-2.3-.6.6 2.8m.4-5.4-1 2.6m-.4-3 1.4.4m-2.8-.3h1.4m-1.4-2.6v2.6m-1.8-3.2 1.8.6m-3.5 2.6 1.7-3.2m-1.7 6.1v-3m1 5.8-1-2.8m1 5.3v-2.5m1.5 6.6 1 2.4m-2.2-3 1.2.6m-1.8-3.3.6 2.6m-2-4.9 1.4 2.3M810 489l2.4 1.8m-5-1.2 2.6-.6m-2.7-2.9v3.5m-2.5-4.7 2.5 1.2m-4.1-2.4 1.6 1.2m-3.6-1.6 2 .4m-2.6.2.6-.6m1.3-.7-1.7-.6m4.1 2-2.4-1.4m5.6 3.1-3.2-1.8m3.8 1.3-.6.5m.6-2.1v1.6m1-4.5-1 2.9m.5-3.7.4.8m.6-2-1 1.2m-1.1-3.5 2 2.3m-1.4-4.8-.6 2.5m0-3.5.6 1m-2.3-1h1.7m-1.7 2.1v-2m-1.3 1 1.3 1m-2.7-.7 1.4-.3m-1.7 2 .3-1.7m-2 3.8 1.7-2.1m-2.6 3.9.9-1.8m-1 4v-2.2m.5-3.4 1.3-2.9m-3.3 4 2-1M798 454l1.6 3.5m.9-4 .1-.3m-4 1-.3-1m2.4.7-2.1.3m3 0-.9-.3m1 3.6v-3.3m9.4 2.5 3.2-2.5m-7.5 6.7 4.3-4.2m-6.3 5.7 2-1.5m-3.4-1.4 1.4 3m-.5.8-.9-3.8m.9 6.9v-3m2.3 4.8-2.3-1.8m1 5.2 1.3-3.4m-2.3 6 1-2.6m-1 5v-2.5m-2.9 4.7 2.9-2.2m-4.5 1 1.6 1.2m-1-3-.6 1.8m1.2-3.5-.6 1.7m-1.1-4.2 1.7 2.5m-16.5-2.6 6.2-1 4.4.8 4.2.3 1.7 2.5m-1.7 2.1 1.7-2m-1.7 5.1v-3.1m-4.2 2.3 4.2.8m-13 16.5h-2.2m.7-1.2 1.6 1.2m-2.3-5.3 2-1.6m-1.2-.7 5-1.6m-6.9 3 1.9-1.4m-4.7 1.5h2.8m-5 2.5 2.2-2.5m-4.5-22.5.5-2m1.6-6.9 1 .8m-1.4-2.8.4 2m-2.4-3.4 2 1.4m-3.2-3.1 1.2 1.7m11.2-.7-.4-1m-1.2 1.7 1.6-.7m-4.5 1.9 2.9-1.2m-4.4 2.7 1.5-1.5m3 15 .9.8m-3.2-1.4h1.4m-4.4-1.6 1.2.9m-3.3-1h2.1m8.9 29.7-.2.3m1-1-.8.7m-1-.6h1.8m-2.7-.8 1 .8m-1.7-.8h.7m-3.6-2.8-.3.6m.9-1.8-.6 1.2m.6-3v1.8m-1.2-1.8h1.2m-3-.5 1.8.5m-3.8 1.1 2-1.6m-1.5-5.2v1.7m.3.7h1.9m-3 2.2 1-2.2m-2.4 2.2h1.4m-2-1 .6 1m-.2-2.6-.4 1.6m1.8-4-1.4 2.4m11.9-7.1v-.8m.9 2.2-.7-.5m2.4.5h-1.7m3 .3.5-2m-1.2 5.2.7-3.2m-1.2 5.1.5-2m-1.5 10.3 1-8.3m-1 8.3-.8 3.2m-.5-2.3 1.3-1m-2.5 1h1.2m-1.2-1.2v1.2m-2.3-3.5 2.3 2.3m-2.3-3.4v1.1m1-3-1 1.9m2.9-3.3-1.9 1.4m3.2-1.4h-1.3m3-1.3-1.7 1.3m0-3.2h2m-4.9 1 2.9-1m-6.4 2.3 3.5-1.3m-6 .5 2.5.8m-3.2-2.5.7 1.7m1-3-1.7 1.3m2.4-3.5-.7 2.2m2.5-2.4-1.8.2m6.4-3.2h1m-2.9 1.4 1.9-1.4m-5.3 2.4 3.4-1m-4.9 2.1 1.5-1.1m-4 3.8 2.5-2.7m-4 2.4 1.5.3m-1.5-.7v.4m.4-1.8-.4 1.4m1.1-4.4-.7 3m-2.1 1.7-3.3 3.7m4.6-6.3-1.3 2.6m2.8-4.7-1.5 2.1m4-5.4-2.5 3.3m1.2-7.4 1.2 4m-23.8-5 3.5 1.6m-.6 3.9 2.6.7m-4.3-2 1.7 1.3m-2.2-2.6.5 1.3m-3.1-1.7 2.6.4m-4-1.5-1.2.7m4.3-2.4-3 1.7m5.6-5.2-2.6 3.5m17-1.3.4-.4m-2.6.4h2.2m-3.5-1 1.3 1m-4-1.5 2.7.5m.1-1.5-2.3-.7m5 .7h-2.7m4.7 1-2-1m3.5 2.7-1.5-1.8m4.7 3.7-3.2-1.9m4.8-3 2.5 3.3m-4.1-6 1.6 2.7m-2.6-6.1 1 3.4m-1-1.6v-1.8m-2.3 2.7 2.3-.9m-6.6 2.5 4.3-1.6m22.5 32 .6 3.4m.8-5.3-1.4 2m2.6-11.6-1.2 9.6m-1.3-11.3 2.5 1.7M796 480l2.2 2.1m-5.6-3 3.4.9m-4.7-1.8 1.3 1m-3.6-3 2.3 2m-5.6-4.2 3.3 2.2m-4.6-5.7 1.3 3.5m-6-9.3 4.7 5.8m-6-12 1.3 6.2m-2.9-2.7 1.7-3.5m-2.9 3.5h1.2m-5.3 1.6 4.1-1.6m-10.4 4.1 6.3-2.5m-12.6 1.8 6.3.7m-8.3-3.6 2 3m-5.4-3.6 3.4.6m-6-1 2.6.4m-2.6-8.8h0m9.9 45.6 1.4-1.5m87-41.9 1.4 1m-5-2 3.6 1m-5.9-1.1-2.6.6m3.6-1.7-1 1m-.4-1h0m-.9.7.9-.7m-2.2 1.7 1.3-1m-4.5 2.1 3.2-1m.9-1.8v.2m8.8 3.8-5.6-2.2m10.1 2.8-4.5-.6m10 3.9-5.5-3.3m12 6.4 1.5.7m-6.4-1.4-3.3-1.4m9.5 4-6.2-2.6m6.4 2.6h-.2m-2.7-9.6 2.7.3m-5 0 2.3-.3m-4.4 0 2 .4m-5.3-1.5 3.3 1.2m4.5-3.2.4-.2m-2.3.2h2m-1.7-.2-.3.2m-83 45.4V497m-1.6.6 1.5 1.2m-6.8-1.8-2.1 1.6m-.9-1-.6 1.2m2.5-2.6-1.9 1.4m1.9-3.6v2.2m3.3-4-3.3 1.8m9.6 4.5v.3m-3.6-2.5.7-.2m-2.3.7 1.6-.5m-3.9.5h2.3m-2.3-1v1m-.6-2.3.6 1.3m1.5-2.9-2 1.6m-6.8-1.2h2.2m1 .2v1.5m2.7-2.4-2.8 1m2.8-2v1m-1.3-1.4 1.3.4m-3.3-.2 2-.2m-5 1.3 3-1m7 6.8.8.5m-2.3-.5h1.4m-3 .5 1.6-.5m-5.4-1.7-1.4 2.2m.4-4.2 1 2m-3.3-2.5 2.3.5m-4 .8 1.7-1.3m-4.4 1.8 2.7-.5m-3 2 .3-1.5m-1.1 1-1 1.9m2.4-3.1-1.4 1.1m4.9-3-3.5 1.9m3.2-3.2.3 1.2m-.9-1.1.6-.1m-2.4.3 1.8-.2m-5.7.8 4-.6m2-1.6 4.9-2.6m-8.1 3.6 3.2-1m-6 2.2 2.8-1.2m-7 3 4.2-1.8m-8.9 1 4.7.9m-4.7-16 .2.2m5-.5 1 2m-2.7-3.3 1.7 1.3m-3.4-1.7 1.7.4m-2.1-2.4.4 2m-1.8-3.1.8-.9m-.8.9h0Z" fill="none" stroke="#f1f1f1" stroke-linecap="round" stroke-linejoin="round" stroke-width=".5"></path></g><path fill="#f1f1f1" stroke="#f1f1f1" stroke-miterlimit="70.7" stroke-width=".3" d="M808.1 455.6h5.7v16.7h-5.7v-16.7z"></path><path fill="#f1f1f1" stroke="#f1f1f1" stroke-miterlimit="70.7" stroke-width=".3" d="M809.4 459.4h3.1v9.4h-3.1v-9.4z"></path><path d="M839.8 374.6h40.5c10.5 0 19.1 8.5 19.1 19.1v.9c0 10.6-8.6 19.1-19.1 19.1h-40.5v-39.1Z" fill="#f1f1f1" stroke="#f1f1f1" stroke-miterlimit="70.7" stroke-width=".3"></path><path d="M854.2 374h26.5c11 0 19.8 9 19.8 19.8v1c0 10.8-8.9 19.7-19.8 19.7h-26.5c-3 0-5.5-2.5-5.5-5.6v-29.3c0-3 2.5-5.5 5.5-5.5Z" fill="#f1f1f1" stroke="#f1f1f1" stroke-miterlimit="70.7" stroke-width=".3"></path><path d="M855.1 375.5h25.2c10.1 0 18.3 8.2 18.3 18.4v.8c0 10.1-8.2 18.4-18.3 18.4H855a4.7 4.7 0 0 1-4.6-4.6V380c0-2.6 2-4.6 4.6-4.6ZM501 415h-40.4a19.2 19.2 0 0 1-19.2-19.2v-.8c0-10.6 8.6-19.2 19.2-19.2H501V415Z" fill="#f1f1f1" stroke="#f1f1f1" stroke-miterlimit="70.7" stroke-width=".3"></path><path d="M486.6 415.7h-26.5a19.7 19.7 0 0 1-19.7-19.7v-1c0-10.8 8.8-19.6 19.7-19.6h26.5c3 0 5.5 2.4 5.5 5.5v29.3c0 3-2.4 5.5-5.5 5.5Z" fill="#f1f1f1" stroke="#f1f1f1" stroke-miterlimit="70.7" stroke-width=".3"></path><path d="M485.7 414.3h-25.1a18.4 18.4 0 0 1-18.4-18.4v-.8c0-10.1 8.2-18.4 18.4-18.4h25.1c2.6 0 4.6 2.1 4.6 4.6v28.4c0 2.5-2 4.6-4.6 4.6Zm75.9-38.5h40.5c10.6 0 19.2 8.6 19.2 19.2v.8c0 10.6-8.6 19.2-19.2 19.2h-40.5v-39.2Z" fill="#f1f1f1" stroke="#f1f1f1" stroke-miterlimit="70.7" stroke-width=".3"></path><path d="M576 375.4h26.5c11 0 19.8 8.8 19.8 19.7v.9c0 10.9-8.9 19.7-19.8 19.7h-26.4a5.6 5.6 0 0 1-5.6-5.5v-29.3c0-3 2.5-5.5 5.6-5.5Z" fill="#f1f1f1" stroke="#f1f1f1" stroke-miterlimit="70.7" stroke-width=".3"></path><path d="M577 376.7h25c10.1 0 18.4 8.3 18.4 18.4v.8c0 10.2-8.3 18.4-18.4 18.4h-25.2c-2.5 0-4.5-2-4.5-4.6v-28.4c0-2.5 2-4.6 4.5-4.6Z" fill="#f1f1f1" stroke="#f1f1f1" stroke-miterlimit="70.7" stroke-width=".3"></path><path fill="#f1f1f1" stroke="#f1f1f1" stroke-miterlimit="70.7" stroke-width=".2" d="M473.4 452.4h118.3v46.7H473.4v-46.7z"></path><g><path d="m508.3 479.7-2.8 1.6 2.8-1.6Zm42.8-12.8 2-1.5-2 1.5Zm8.5-2 1.3 1-1.3-1Zm-1.4-2.8 1.4 2.9-1.4-2.9Zm0-1.7.8-2.1-.8 2Zm-1.6.8 1.6-.8-1.6.8Zm-2.3.7 2.3-.7-2.3.7Zm-.4 4.4.6 1.7-.6-1.7Zm0-1.6v1.6-1.6Zm.4-2.8-.4 2.8.4-2.8Zm1.7-1.3-1.7 1.3 1.7-1.3Zm.8-.6-.8.6.8-.6Zm.8-.6-.8.6.8-.6Zm1.4-1.1-1.4 1 1.4-1Zm1.4-2.5-1.4 2.5 1.4-2.5Zm-17.2.6v.8-.8Zm-.8-2 .8 2-.8-2Zm.5-1.5-.5 1.4.5-1.4Zm.6 1.7.8-1.7-.8 1.7Zm0 1.6v-1.6 1.6Zm1.5 1.1-1.5-1.1 1.5 1.1Zm1.1.8-1.1-.8 1.1.8Zm1.8 0H546h1.8Zm1.7.5-1.7-.5 1.7.5Zm2.2 1.2-2.2-1.2 2.2 1.2Zm2 0h-2 2Zm1.7-.8h1.5-1.5Zm-3.2 1.4 3.2-1.4-3.2 1.4Zm-1.4-.2 1.4.2-1.4-.2Zm-2.3-1.2 2.3 1.2-2.3-1.2Zm-1.8 0h1.8-1.8Zm-1.8-.6 1.8.6-1.8-.6Zm.2 1.4-.2-1.4.2 1.4Zm.3 1.3-.3-1.3.3 1.3Zm-.9.6.9-.6-.9.6Zm1.5 2.7-1.5-2.7 1.5 2.7Zm.4 2.6-.4-2.6.4 2.6Zm-.6 1.2.6-1.2-.6 1.2Zm-3.1-7 .5-.3-.5.3Zm.5 1.5-.5-1.5.5 1.5Zm.6 1.7-.6-1.7.6 1.7Zm-1 .7 1-.7-1 .7Zm1.6 2-1.5-2 1.5 2ZM534 469l.2 1.2-.2-1.2Zm1.8-1.3L534 469l1.8-1.3Zm2-2.5-2 2.5 2-2.5Zm1.5-1.2-1.5 1.2 1.5-1.2Zm1-1.4-1 1.4 1-1.4Zm.7-3.6 1 .8-1-.8Zm-1.4 2.2 1.4-2.2-1.4 2.2Zm-1.4 2.4 1.4-2.4-1.4 2.4Zm-1.3 2.1 1.3-2-1.3 2Zm-.7 1.2.7-1.2-.7 1.2Zm-1 1.8 1-1.8-1 1.8Zm-1 1.5 1-1.5-1 1.5Zm.7 1-.7-1 .7 1Zm-1.1 1.5 1-1.4-1 1.4Zm-1 1.2 1-1.2-1 1.2Zm0-6.7 1-.9-1 .9Zm-.8 1 .7-1-.7 1Zm1 1.3-1-1.3 1 1.3Zm-.6 1.4.5-1.4-.5 1.4Zm-.7.5.7-.5-.7.5Zm-1.4-1.2 1.4 1.2-1.4-1.2Zm-1 1.7.6-1.1-.6 1.1Zm-1.4-.4 1.4.4-1.4-.4Zm8.6-10.3-.6.8.6-.8Zm0-1.4v1.4-1.4Zm0-1.2v1.2-1.2Zm.6-3.6-.6 3.6.6-3.6Zm.1-1.5.5-.6-.5.6Zm2.3-.6-2.3.6 2.3-.6Zm-4.2 1 1.3-1-1.3 1Zm.3 1.3-.3-1.2.3 1.2Zm-.8 1.6.8-1.6-.8 1.6Zm0 2v-2 2Zm-1.2 2.2 1.2-2.2-1.2 2.2Zm1.1 2-1.1-2 1.1 2Zm-1 2.4 1-2.4-1 2.4Zm-2 1.5 2-1.5-2 1.5Zm-1.3 0h1.3-1.3Zm-2.6 0h2.6-2.6Zm20.7 7.2 3-2.3-3 2.3Zm13.4-8.3-2.9-4.3 2.9 4.3Zm.8 3.6-.8-3.6.8 3.6Zm4.2 4.1-4.2-4.1 4.2 4.1Zm6.2 9.9.6.5-.6-.5Zm0-1.7v1.7-1.7Zm-2.1-3 2 3-2-3Zm-1-3.9-1.7-2.5 1.7 2.5Zm3.4 4.9-3.4-4.9 3.4 4.9Zm.5 2.4-.5-2.4.5 2.4Zm1 2.6-1-2.6 1 2.6Zm-1 .9 1-.9-1 .9Zm0 2v-2 2Zm4 11-1.2-1 1.1 1Zm-2.9-3.3 2.9 3.2-2.9-3.2Zm-.6-3.5.6 3.5-.6-3.5Zm-.7-3.3.7 3.3-.7-3.3Zm-1.2-1.9 1.2 2-1.2-2Zm.5-2.1-.5 2.1.5-2.1Zm-1.5-4.3 1.5 4.3-1.5-4.3Zm-.3 10.8-1.7-2.9 1.7 2.9Zm2 4.6-2-4.6 2 4.6Zm1.5 2.3-1.6-2.3 1.6 2.3Zm-.7.6.7-.6-.7.6Zm-8.4-6 2.2 1.7-2.2-1.7Zm-4.3 0 1.2-1.4-1.2 1.5Zm.7 2.7-.7-2.6.7 2.6Zm-.6-7.2-2.4 2.8 2.4-2.8Zm1.2-1.5-1.2 1.5 1.2-1.5Zm0-2.5v2.5-2.5Zm-1.6-6.4.4 2-.4-2Zm.5-1.8-.5 1.8.5-1.8Zm-.4-1.6.4 1.6-.4-1.6Zm-1.5-2.6 1.5 2.6-1.5-2.6ZM544.5 495v1.8-1.8Zm-19.3-11.7-1.4-1.5 1.4 1.5Zm7.8 1 .3-1.6-.3 1.5Zm-.4 1.3.4-1.4-.4 1.4ZM546 488l-.2.8.2-.8Zm0-2.3v2.3-2.3Zm.9-2.7-1 2.7 1-2.7Zm0 2.1V483v2.1Zm2 .4-2-.4 2 .4Zm2-2.5-2 2.5 2-2.5Zm0 4.2V483v4.2Zm-.6 5 .6-5-.6 5Zm0 3v-3 3Zm-2 3 2-3-2 3Zm.2.3-.2-.2.2.2Zm6.2-2.2-1.6 2.2 1.6-2.2Zm0-.8v.8-.8Zm-1.3-.6 1.3.6-1.3-.6Zm-.8-1.4.8 1.4-.8-1.4Zm.9-4.2-1 4.2 1-4.2Zm1.2-3-1.2 3 1.2-3Zm0-2v2-2Zm1.3-1.6-1.3 1.6 1.3-1.6Zm0-1.3v1.3-1.3Zm-1.5.4 1.5-.4-1.5.4Zm-.2-.5.2.5-.2-.5Zm1.2-2-1.2 2 1.2-2Zm1.5-1.6-1.5 1.6 1.5-1.6Zm0-1.5v1.5-1.5Zm-1.3 1 1.3-1-1.3 1Zm-.5-.4.5.4-.5-.4Zm-.5-2.1.5 2.1-.5-2.1Zm0-2v2-2Zm-.5 1 .5-1-.5 1Zm-1.6 1.5 1.6-1.5-1.6 1.5Zm-2.3 1.8 2.3-1.8-2.3 1.8Zm-.5 2.7.5-2.7-.5 2.7Zm-1.5 2 1.5-2-1.5 2Zm-1.1.5 1-.5-1 .5Zm-.8-2.3.8 2.3-.8-2.3Zm-.2-1.5.2 1.5-.2-1.5Zm.8-1.8-.8 1.8.8-1.8Zm.5-2.7-.5 2.7.5-2.7ZM545 478l1.2-2-1.2 2Zm0 2.2V478v2.2Zm0 2v-2 2Zm-.5 1.3.5-1.4-.5 1.4Zm-.8 1 .8-1-.8 1Zm.4.8-.4-.9.4.9Zm0 1.3v-1.3 1.3Zm-.8 0h.8-.8Zm-1.5 1.9 1.5-1.9-1.5 1.9Zm-1-6.4-1.1-1 1.2 1Zm1.1 0h-1 1Zm1.6.6-1.6-.6 1.6.6Zm.5-1.8-.5 1.8.5-1.8Zm0-1.8v1.8-1.8Zm.9-2.2-1 2.2 1-2.2Zm1.3-1-1.3 1 1.3-1Zm1.4-2.1-1.4 2.1 1.4-2.1Zm0-1v1-1Zm-.8.6.8-.7-.8.7Zm-.9.9.9-1-.9 1Zm-2.8.2 2.8-.2-2.8.2Zm-1.6 0h1.6-1.6Zm-2.2 1.7 2.2-1.7-2.2 1.7Zm.4 1-.4-1 .4 1Zm0 1.6v-1.7 1.7Zm-1.5 1.2 1.5-1.2-1.5 1.2Zm-2 1.7h2.8-2.7Zm-.5 1.4.6-1.4-.6 1.4Zm-.1-4 1.4-1-1.4 1Zm-1.5.4 1.5-.3-1.5.3Zm0 1.6v-1.6 1.6Zm15.5-18.9 1.3-1-1.3 1Zm-1 1.9 1-1.9-1 1.9Zm-.7 1.8.6-1.8-.6 1.8Zm0 1.3V466v1.3Zm-.6 1.1.6-1.1-.6 1.1Zm0 1.9v-1.9 1.9Zm-.6 1.3.6-1.3-.6 1.3Zm-1.8.7h1-1Zm1-3.5v-.6.6Zm-1.4 1.1 1.5-1.1-1.5 1.1Zm-.8.7.8-.7-.8.7Zm-.6 1.7.6-1.7-.6 1.7Zm-.7.6.7-.6-.7.6Zm-1 .3 1-.3-1 .3Zm-1.5.3 1.5-.3-1.5.3Zm-1.4 1 1.4-1-1.4 1Zm1-1-1 1 1-1Zm0-2v2-2Zm1-1.6-1 1.6 1-1.6Zm-1 0h1-1Zm-1.3 1.9 1.3-1.9-1.3 1.9Zm-1.4 3 1.4-3-1.4 3Zm.8 1.4-.8-1.4.8 1.4Zm-1 1.1 1-1.1-1 1.1Zm-1.8 1.5 1.8-1.5-1.8 1.5Zm-.5-2 .5 2-.5-2Zm.8-.7-.8.7.8-.7Zm-.8-.6.8.6-.8-.6Zm-1 0h1-1Zm-1-.9 1 1-1-1Zm-52.7-11.4 1.5 1-1.5-1Zm-3.7-.7 3.7.7-3.7-.7Zm27.7-5.1.8 2-.8-2Zm10.3 15.3 1.1-1.9-1.1 2Zm2.8-1.7v-2.4 2.4Zm-2 2.9 2-2.9-2 2.9Zm0 2.7v-2.7 2.7Zm7.3 4.8 1 1.1-1-1.1Zm.7-1.6-.7 1.6.7-1.6Zm-1.2-.9 1.2 1-1.2-1Zm-.7 1.4.7-1.4-.7 1.4Zm8.4 9.7v-1.5 1.5Zm-1.8 1.8 1.4-1.1-1.4 1Zm-.9 1.3.9-1.3-.9 1.3Zm-2-2.5 2 2.5-2-2.5Zm12-.6.7 2-.7-2Zm-.3-.4.3.4-.3-.4Zm-2.5-2.5 2.5 2.5-2.5-2.5Zm-2 .4 2-.4-2 .4Zm0-1v1-1Zm13.6 7.4 1.5-4-1.5 4Zm2.3 4.5v.1Zm1.3-2-1.3 2 1.3-2Zm0-3.7v3.7-3.7Zm1-4.9-1 5 1-5Zm-.4.4.5-.4-.5.4Zm-.8-1.8.8 1.8-.8-1.8Zm-1.6.4 1.6-.4-1.6.4Zm0 2.1v-2.1 2.1Zm-2.4 2.4 2.4-2.4-2.4 2.4Zm1.2 4.6-1.2-4.6 1.2 4.6Zm0 2.6V496v2.6Zm-2-.4.1.4v-.4Zm-.4-3.6.4 3.6-.4-3.6Zm.5-2.4-.5 2.4.5-2.4Zm1-4.2-1 4.2 1-4.2Zm-1.3-.5 1.3.5-1.3-.5Zm-1.7 2.2 1.7-2.2-1.7 2.2Zm-.6-2.8.6 2.8-.6-2.8Zm1-2.6-1 2.6 1-2.6Zm-1.3-.4 1.4.4-1.4-.4Zm-1.4 0h1.4-1.4Zm0-2.5v2.5-2.5Zm-1.8-.6 1.8.6-1.8-.6Zm-1.7 3.1 1.7-3-1.7 3Zm0 3v-3 3Zm1 2.8-1-2.8 1 2.8Zm0 2.5v-2.5 2.5Zm1.4 4.1 1 2.3-1-2.3Zm-1.1-.7 1.1.7-1.1-.7Zm-.7-2.6.7 2.6-.7-2.6Zm-1.3-2.4 1.3 2.4-1.3-2.4Zm-2.3-1.8 2.3 1.8-2.3-1.8Zm-2.7.6 2.7-.6-2.7.6Zm0-3.4v3.4-3.4Zm-2.5-1.2 2.5 1.2-2.5-1.2Zm-1.6-1.3 1.6 1.3-1.6-1.3Zm-2-.3 2 .3-2-.3Zm-.6.5.6-.5-.6.5Zm1.8-1.3-1.7-.5 1.7.5Zm2.5 1.4-2.5-1.4 2.5 1.4Zm3.1 1.8-3.1-1.8 3.1 1.8Zm.6-.5-.6.5.6-.5Zm0-1.6v1.6-1.6Zm1-3-1 3 1-3Zm-.5-.8.5.9-.5-.9Zm1-1.1-1 1.1 1-1.1Zm-2.1-2.4 2.1 2.4-2.1-2.4Zm.6-2.4-.6 2.4.6-2.4Zm-.6-1 .6 1-.6-1Zm-1.6 0h1.6-1.6Zm0 2v-2 2Zm-1.4-1 1.4 1-1.4-1Zm-1.4.4 1.4-.4-1.4.4Zm-.2 1.6.2-1.6-.2 1.6Zm-1.8 2.2 1.8-2.2-1.8 2.2Zm-.9 1.7 1-1.7-1 1.7Zm0 2.2v-2.2 2.2Zm.5-5.5 1.2-2.9-1.2 3Zm-2 1 2-1-2 1Zm-1.2-23.6 1.6 3.6-1.6-3.6Zm2.4-.5.2-.3-.2.3Zm-3.9.8-.2-1 .2 1Zm2.2-.4-2.2.4 2.2-.4Zm.9.4-1-.4 1 .4Zm0 3.3V454v3.3Zm9.4-.9 3.2-2.4-3.2 2.4Zm-4.2 4.2 4.2-4.2-4.2 4.2Zm-2 1.6 2-1.6-2 1.6Zm-1.4-3 1.4 3-1.4-3Zm.8 4-.8-4 .8 4Zm0 3v-3 3Zm2.3 1.7-2.3-1.8 2.3 1.8Zm-1.3 3.5 1.3-3.5-1.3 3.5Zm-1 2.5 1-2.5-1 2.5Zm0 2.5v-2.5 2.5Zm-2.8 2.2 2.8-2.2-2.8 2.2Zm-1.6-1.3 1.6 1.3-1.6-1.3Zm.6-1.7-.6 1.7.6-1.7Zm.5-1.7-.5 1.7.5-1.7Zm-1.7-2.5 1.7 2.5-1.7-2.5Zm-14.8-.1 6.3-1 4.3.7 4.2.4 1.7 2.5-16.5-2.6Zm14.8 4.7 1.7-2-1.7 2Zm0 3.1v-3 3.1Zm-4.2-.8 4.2.8-4.2-.8Zm-8.7 17.3h-2.3 2.3Zm-1.5-1.2 1.5 1.2-1.5-1.2Zm-.8-4.2 2-1.6-2 1.6Zm.8-2.2 5-1.6-5 1.6Zm-1.8 1.4 1.8-1.4-1.8 1.4Zm-2.8 0h2.8-2.8ZM499 492l2.3-2.6-2.3 2.6Zm-2.2-25 .4-2-.4 2Zm2-9 1 .9-1-.8Zm-.4-2 .5 2-.5-2Zm-1.9-1.3 2 1.4-2-1.4Zm-1.2-1.8 1.2 1.8-1.2-1.8Zm12.3 1-.4-1 .4 1Zm-1.6.7 1.6-.6-1.6.6Zm-2.9 1.3 3-1.3-3 1.3Zm-1.4 1.5 1.4-1.5-1.4 1.5ZM506 471l1 .8-1-.8Zm-2.2-.7h1.3-1.3Zm-3-1.6 1.1 1-1.1-1Zm-2.1 0h2-2Zm11 29.7-.2.2.1-.2Zm.8-.7-.9.7.9-.7Zm-1.8 0h1.8-1.8Zm-1-.8 1 .8-1-.8Zm-.7 0h.7-.7Zm-2.8-2.7-.3.5.3-.5Zm.5-1.2-.5 1.2.5-1.2Zm0-1.9v1.9-1.9Zm-1.2 0h1.2-1.2Zm-1.7-.4 1.7.4-1.7-.4Zm-2 1.6 2-1.6-2 1.6Zm.4-6.8v1.7-1.7Zm.3 2.4h2-2Zm-1 2.1 1-2.1-1 2.1Zm-1.4 0h1.3-1.3Zm-.6-1 .6 1-.6-1Zm.3-1.5-.3 1.5.3-1.5Zm1.4-2.4-1.4 2.4 1.4-2.4Zm10.5-4.8v-.7.7Zm1 1.5-.8-.6.8.6Zm1.7 0h-1.7 1.7Zm1.3.3.4-2-.4 2Zm-.8 3.1.8-3.1-.8 3.1Zm-.4 2 .4-2-.4 2Zm-1 8.2 1-8.2-1 8.2Zm0 0-.8 3.2.7-3.2Zm-1.3 1 1.2-1-1.2 1Zm-1.3 0h1.3-1.3Zm0-1.2v1.2-1.2Zm-2.3-2.3 2.3 2.3-2.3-2.3Zm0-1.2v1.2-1.2Zm1-1.8-1 1.8 1-1.8Zm2-1.4-2 1.4 2-1.4Zm1.3 0h-1.4 1.4Zm1.6-1.3-1.6 1.3 1.6-1.3Zm-1.7-2h2.1-2.1Zm-2.8 1.1 2.8-1-2.8 1Zm-3.5 1.3 3.5-1.3-3.5 1.3Zm-2.5-.8 2.5.8-2.5-.8Zm-.8-1.7.8 1.7-.8-1.7Zm1.7-1.4-1.7 1.4 1.7-1.4Zm.7-2-.7 2 .7-2Zm1.8-.3-1.8.2 1.8-.2Zm4.6-3h1-1Zm-1.8 1.4 1.8-1.5-1.8 1.5Zm-3.4 1 3.4-1-3.4 1Zm-1.5 1 1.5-1-1.5 1Zm-2.5 2.7 2.5-2.6-2.5 2.6Zm-1.6-.2 1.6.2-1.6-.2Zm.1-.4v.4-.4Zm.3-1.4-.3 1.4.3-1.4Zm.8-3-.8 3 .8-3Zm-2.9 4.6-3.3 3.8 3.3-3.8Zm1.3-2.5-1.3 2.5 1.3-2.5Zm1.6-2.2-1.6 2.2 1.6-2.2Zm2.4-3.3-2.4 3.3 2.4-3.3Zm-1.2-4 1.2 4-1.2-4Zm-22.7-1 3.5 1.6-3.5-1.6Zm3 5.4 2.6.8-2.6-.8Zm-1.7-1.2 1.7 1.2-1.7-1.2Zm-.6-1.3.6 1.3-.6-1.3Zm-2.6-.4 2.6.4-2.6-.4Zm-1.3-1-1.2.6 1.2-.7Zm3-1.9-3 1.8 3-1.8Zm2.6-3.4-2.5 3.4 2.5-3.4Zm14.4 2.2.5-.4-.5.4Zm-2.2 0h2.2-2.2Zm-1.2-1 1.2 1-1.2-1Zm-2.7-.5 2.7.5-2.7-.5Zm2.8-1-2.3-.7 2.3.7Zm2.7 0h-2.7 2.7Zm2 1-2-1 2 1Zm1.5 1.7-1.6-1.8 1.6 1.8Zm3.2 2-3.2-2 3.2 2Zm1.6-5 2.4 3.3-2.4-3.4Zm-1.7-2.7 1.7 2.6-1.7-2.6Zm-1-3.4 1 3.4-1-3.4Zm0 1.8v-1.8 1.8Zm-2.3.8 2.4-.8-2.4.8Zm-4.3 1.7 4.3-1.7-4.3 1.7Zm26.9 30.4.5 3.3-.5-3.3Zm1.4-2-1.4 2 1.4-2Zm1.2-9.6-1.2 9.7 1.2-9.7Zm-2.5-1.6 2.5 1.6-2.5-1.6Zm-2.3-2.2 2.3 2.2-2.3-2.2Zm-3.4-.8 3.4.8-3.4-.8Zm-1.3-1 1.3 1-1.3-1Zm-2.3-2 2.3 2-2.3-2Zm-3.2-2.1 3.2 2.1-3.2-2.1Zm-1.4-3.6 1.4 3.6-1.4-3.6Zm-4.6-5.8 4.6 5.8-4.6-5.8Zm-1.3-6.1 1.3 6.1-1.3-6.1Zm-1.6 3.5 1.6-3.5-1.6 3.5Zm-1.2 0h1.2-1.2Zm-4.1 1.6 4-1.6-4 1.6ZM488 466l6.4-2.5-6.4 2.5Zm-6.3-.7 6.3.7-6.3-.7Zm-1.9-3 2 3-2-3Zm-3.4-.5 3.4.6-3.4-.6Zm-2.7-.5 2.7.5-2.7-.5Zm0-8.4v.1Zm9.9 45.6 1.4-1.4-1.4 1.4Zm88.5-43.3 1.3 1-1.3-1Zm-3.7-1 3.7 1-3.7-1Zm-2.2-.2-2.7.7 2.7-.7Zm1-1-1 1 1-1Zm-1.5 0h.1Zm-.8.6.8-.6-.8.6Zm-1.4 1.1 1.4-1-1.4 1Zm-3.2 1.1 3.2-1-3.2 1Zm4.1-2.9v.2-.2Zm8.8 4-5.6-2.1 5.6 2.1Zm4.6.7-4.6-.7 4.6.7Zm5.4 3.3-5.4-3.3 5.4 3.3Zm6.5 3.1 1.6.6-1.6-.6Zm-4.9-.7-3.2-1.4 3.2 1.4Zm6.2 2.6-6.2-2.6 6.2 2.6Zm.3 0h-.3.3Zm-3-9.6 2.8.3-2.7-.3Zm-2.3.4 2.4-.4-2.4.4Zm-2-.4 2 .4-2-.4Zm-3.4-1.1 3.4 1.1-3.4-1.1Zm7.9-2 .4-.3-.4.2Zm-2 0h2-2Zm.3-.3-.2.2.2-.2Zm-83.3 45.6v-1.7 1.7Zm-1.6-1.2 1.6 1.2-1.6-1.2Zm-5.3-.5-2 1.6 2-1.6Zm-3 .6-.6 1.1.6-1.1Zm2-1.5-2 1.5 2-1.5Zm0-2.1v2.1-2.1Zm3.3-1.8-3.4 1.8 3.4-1.8Zm6.2 6.3v.2-.2Zm-3.5-2.2.7-.2-.7.2Zm-1.6.4 1.6-.4-1.6.4Zm-2.4 0h2.4-2.4Zm0-.9v1-1Zm-.5-1.3.5 1.3-.5-1.3Zm2-1.6-2 1.6 2-1.6Zm-8.7.3h2.2-2.2Zm3 .3v1.5-1.5Zm2.8-.9-2.8.9 2.8-.9Zm0-1v1-1Zm-1.3-.5 1.3.5-1.3-.5Zm-2 .3 2-.3-2 .3Zm-3 1.1 3-1.1-3 1.1Zm10 5.7.8.5-.8-.5Zm-1.5 0h1.5-1.5Zm-1.5.5 1.5-.5-1.5.5Zm-3.9-2.1-1.3 2.1 1.3-2.1Zm-1-2 1 2-1-2Zm-2.2-.5 2.3.5-2.3-.5Zm-1.7 1.3 1.7-1.3-1.7 1.3Zm-2.8.5 2.8-.5-2.8.5Zm-.3 1.4.3-1.4-.3 1.4Zm-.8-.5-1 2 1-2Zm1.5-1.2-1.5 1.2 1.5-1.2Zm3.4-2-3.4 2 3.4-2Zm-.3-1.2.3 1.3-.3-1.3Zm-.5.1h.5-.5Zm-1.8.3 1.8-.3-1.8.3Zm-4 .6 4-.6-4 .6Zm6.1-2.2 4.8-2.6-4.8 2.6Zm-3.2 1 3.2-1-3.2 1Zm-2.9 1.2 2.9-1.3-2.9 1.3Zm-4.2 1.8 4.2-1.8-4.2 1.8Zm-4.6-.8 4.6.8-4.6-.8Zm0-15.2.1.3-.1-.3Zm5.1-.2 1 2-1-2Zm-1.6-1.3 1.6 1.3-1.6-1.3Zm-1.7-.4 1.7.4-1.7-.4Zm-.5-2 .5 2-.5-2Zm-1.3-1.2.8-.8-.8.8Zm0 0Z" fill="#f1f1f1" stroke-width="0"></path><path id="_1_1" data-name="1 1" d="m508.3 479.7-2.8 1.6m45.6-14.4 2-1.5m6.5-.4 1.3 1m-2.7-3.9 1.4 2.9m-1.4-4.6.8-2.1m-2.4 2.9 1.6-.8m-3.9 1.5 2.3-.7m-2.7 5.1.6 1.7m-.6-3.3v1.6m.4-4.4-.4 2.8m2-4-1.6 1.2m2.5-1.9-.8.6m1.6-1.2-.8.6m2.2-1.7-1.4 1m2.8-3.5-1.4 2.5m-15.8-1.9v.8m-.8-2.9.8 2.1m-.3-3.5-.5 1.4m1 .3.9-1.7m-.8 3.3v-1.6m1.5 2.7-1.5-1.1m2.6 2-1.1-.9m2.9.8H546m3.5.5-1.7-.5m4 1.7-2.3-1.2m4.1 1.2h-1.9m3.7-.8h1.5m-4.7 1.4 3.2-1.4m-4.6 1.2 1.4.2m-3.7-1.4 2.3 1.2m-4.1-1.2h1.8m-3.6-.6 1.8.6m-1.6.8-.2-1.4m.5 2.7-.3-1.3m-.6 2 .9-.7m.6 3.3-1.5-2.7m2 5.3-.5-2.6m-.2 3.8.6-1.2m-3.7-5.8.5-.3m0 1.8-.5-1.5m1.1 3.2-.6-1.7m-.3 2.4.9-.7m.6 2.8L543 465m-9 3.9.2 1.2m1.6-2.5L534 469m3.8-3.8-2 2.5m3.5-3.7-1.5 1.2m2.5-2.6-1 1.4m1.7-5 1 .8m-2.4 1.4 1.4-2.2m-2.8 4.6 1.4-2.4m-2.7 4.5 1.3-2m-2 3.2.7-1.2m-1.8 3 1-1.8m-1.9 3.3 1-1.5m-.3 2.6-.7-1.1m-.4 2.5 1-1.4m-2 2.6 1-1.2m-1-5.5 1-1m-1.8 2 .7-1m.2 2.3-1-1.3m.5 2.7.5-1.4m-1.2 1.9.7-.5m-2.1-.7 1.4 1.2m-2.4.5.6-1.1m-2 .7 1.4.4m7.2-10.7-.6.8m.6-2.2v1.4m0-2.6v1.2m.6-4.8-.6 3.6m.7-5 .5-.7m1.8 0-2.3.6m-1.9.5 1.3-1m-1 2.2-.3-1.2m-.5 2.8.8-1.6m-.8 3.6v-2m-1.2 4.2 1.2-2.2m0 4.2-1.2-2m0 4.4 1.1-2.4m-3 4 2-1.6m-3.3 1.5h1.3m-3.9 0h2.6m18.1 7.2 3-2.3m10.4-6-2.9-4.3m3.7 7.8-.8-3.5m5 7.7-4.2-4.2m10.4 14 .6.6m-.6-2.2v1.7m-2.1-4.8 2 3m-3-6.8-1.7-2.5m5 7.4-3.3-4.9m3.9 7.3-.5-2.4m1.5 5-1-2.6m0 3.5 1-.9m-1 3v-2.1m4 13-1.2-1m-1.7-2.3 2.9 3.2m-3.5-6.7.6 3.5m-1.3-6.8.7 3.3m-1.9-5.2 1.2 2m-.7-4.1-.5 2.1m-1-6.4 1.5 4.3m-1.8 6.5-1.7-2.9m3.6 7.5-2-4.6m3.6 6.9-1.6-2.3m1 3 .6-.7m-9.1-5.4 2.2 1.7m-6.5-1.6 1.2-1.5m-.5 4.1-.7-2.6m0-4.6-2.3 2.8m3.6-4.3-1.2 1.5m1.2-4v2.5m-1.6-9 .4 2.2m.1-4-.5 1.9m0-3.4.5 1.6m-2-4.2 1.6 2.6M544.5 495v1.8m-19.3-13.5-1.4-1.5m9.2 2.4.3-1.5m-.7 3 .4-1.5m13 3.8-.2.8m.1-3.1.1 2.3m.9-5-1 2.7m1-.6V483m2 2.5-2-.4m4-2.1-2 2.5m2 1.7V483m-.6 9.2.6-5m-.6 8v-3m-2 6 2-3m-1.8 3.3-.2-.2m6.4-2-1.6 2.2m1.6-3v.8m-1.3-1.4 1.3.6m-2.1-2 .8 1.4m0-5.6-.8 4.2m2.1-7.1-1.2 3m1.2-5.1v2m1.3-3.6-1.3 1.6m1.3-2.9v1.3m-1.5-1 1.5-.3m-1.7-.1.2.5m1-2.5-1.2 2m2.7-3.6-1.5 1.6m1.5-3.1v1.5m-1.3-.5 1.3-1m-1.8.6.5.4m-1-2.5.5 2.1m-.5-4.1v2m-.5-1 .5-1m-2 2.5 1.5-1.5m-4 3.3 2.4-1.8m-2.8 4.5.5-2.7m-2 4.7 1.5-2m-2.6 2.5 1-.5m-1.8-1.8.8 2.3m-1-3.8.2 1.5m.6-3.3-.8 1.8m1.3-4.5-.5 2.7m-2.1 1.5 1.2-2m-1.2 4.2V478m0 4.1v-2m-.5 3.4.5-1.4m-1.3 2.3.8-.9m-.4 1.8-.4-.9m.4 2.2v-1.3m-.8 1.3h.8m-2.3 1.9 1.5-1.9m-2.4-4.5-1.2-1m2.2 1h-1m2.6.6-1.6-.6m2-1.2-.4 1.8m.5-3.6v1.8m.9-4-1 2.2m2.3-3.2-1.3 1m2.7-3.1-1.4 2.1m1.4-3.2v1m-.8-.3.8-.7m-1.7 1.6.9-1m-3.7 1.2 2.8-.2m-4.4.2h1.6m-3.8 1.7 2.2-1.7m-1.8 2.6-.4-.9m.4 2.6v-1.7m-1.5 3 1.5-1.3m-3.4 3h2.7m-3.3 1.3.6-1.4m-.7-2.5 1.4-1m-3 1.3 1.6-.3m-1.5 1.9v-1.6m15.5-17.3 1.3-1m-2.4 2.9 1-1.9m-1.6 3.7.6-1.8m-.6 3V466m-.6 2.4.6-1.1m-.6 3v-1.9m-.6 3.2.6-1.3m-2.4 2h1m0-3.5v-.6m-1.4 1.7 1.5-1.1m-2.3 1.8.8-.7m-1.4 2.4.6-1.7m-1.3 2.3.7-.6m-1.7 1 1-.4m-2.5.6 1.5-.3m-2.9 1.4 1.4-1.1m-.4 0-1 1m1-3v2m1-3.6-1 1.6m0-1.6h1m-2.3 1.9 1.3-1.9m-2.7 4.9 1.4-3m-.6 4.4-.8-1.4m-.2 2.5 1-1.1m-2.8 2.6 1.8-1.5m-2.3-.5.5 2m.3-2.7-.8.7m0-1.3.8.6m-1.7-.6h.9m-2-.9 1 1m-53.7-12.4 1.5 1m-5.2-1.7 3.7.7m24-5.8.8 2m9.5 13.3 1.1-1.9m1.7.2v-2.4m-2 5.3 2-2.9m-2 5.6v-2.7m7.3 7.5 1 1.1m-.3-2.7-.7 1.6m-.5-2.5 1.2 1m-1.9.4.7-1.4m7.7 11.1v-1.5m-1.8 3.3 1.4-1.1m-2.3 2.4.9-1.3m-2.8-1.2 2 2.5m10-3.1.6 2m-1-2.4.3.4m-2.8-3 2.5 2.6m-4.5-2.1 2-.4m-2-.6v1m13.6 6.4 1.5-4m.8 8.5v.1m1.3-2.1-1.3 2m1.3-5.7v3.7m1-8.6-1 5m.6-4.6.5-.4m-1.3-1.4.8 1.8m-2.4-1.4 1.6-.4m-1.6 2.5v-2.1m-2.4 4.5 2.4-2.4m-1.2 7-1.2-4.6m1.2 7.2V496m-2 2.2.1.4m-.5-4 .4 3.6m.1-6-.5 2.4m1.5-6.6-1 4.2m-.3-4.7 1.3.5m-3 1.7 1.7-2.2m-2.3-.6.6 2.8m.5-5.4-1 2.6m-.4-3 1.4.4m-2.8-.4h1.4m-1.4-2.5v2.5m-1.8-3 1.8.5m-3.5 2.5 1.7-3m-1.7 6v-3m1 5.8-1-2.8m1 5.3v-2.5m1.4 6.6 1 2.3m-2.1-3 1.1.7m-1.8-3.3.7 2.6m-2-5 1.3 2.4m-3.6-4.2 2.3 1.8m-5-1.2 2.7-.6m-2.7-2.8v3.4m-2.5-4.6 2.5 1.2m-4.1-2.5 1.6 1.3m-3.6-1.6 2 .3m-2.6.2.6-.5m1.2-.8-1.7-.5m4.2 1.9-2.5-1.4m5.6 3.2-3.1-1.8m3.7 1.3-.6.5m.6-2.1v1.6m1-4.5-1 2.9m.5-3.8.5.9m.5-2-1 1.1m-1.1-3.5 2.1 2.4m-1.5-4.8-.6 2.4m0-3.4.6 1m-2.2-1h1.6m-1.6 2v-2m-1.4 1 1.4 1m-2.8-.6 1.4-.4m-1.6 2 .2-1.6m-2 3.8 1.8-2.2m-2.7 4 1-1.8m-1 3.9v-2.2m.5-3.3 1.2-2.9m-3.3 4 2-1m-3.1-22.7 1.6 3.6m.8-4.1.2-.3m-4 1-.3-1m2.4.7-2.2.4m3.1 0-1-.4m1 3.7V454m9.4 2.4 3.2-2.4m-7.4 6.6 4.2-4.2m-6.2 5.8 2-1.6m-3.4-1.3 1.4 2.9m-.6 1-.8-4m.8 7v-3m2.3 4.7-2.3-1.8m1 5.3 1.3-3.5m-2.3 6 1-2.5m-1 5v-2.5m-2.8 4.7 2.8-2.2m-4.4 1 1.6 1.2m-1-3-.6 1.7m1.1-3.4-.5 1.7m-1.2-4.2 1.7 2.5m-16.5-2.6 6.3-1 4.3.7 4.2.4 1.7 2.5m-1.7 2 1.7-2m-1.7 5.2V476m-4.2 2.3 4.2.8m-12.9 16.5h-2.3m.8-1.2 1.5 1.2m-2.3-5.4 2-1.6m-1.2-.6 5-1.6m-6.8 3 1.8-1.4m-4.6 1.4h2.8M499 492l2.3-2.6m-4.5-22.4.4-2m1.7-7 1 .9m-1.5-2.8.5 2m-2.4-3.4 2 1.4m-3.2-3.2 1.2 1.8m11.1-.7-.4-1m-1.2 1.6 1.6-.6m-4.5 1.9 3-1.3m-4.4 2.8 1.4-1.5m3 15 1 .8m-3.2-1.5h1.3m-4.3-1.6 1.1 1m-3.2-1h2m9 29.7-.2.2m1-.9-.9.7m-.9-.7h1.8m-2.8-.8 1 .8m-1.7-.8h.7m-3.5-2.7-.3.5m.8-1.7-.5 1.2m.5-3v1.8m-1.2-1.9h1.2m-2.9-.4 1.7.4m-3.7 1.2 2-1.6m-1.6-5.2v1.7m.3.7h2m-3 2.1 1-2.1m-2.4 2.1h1.3m-2-1 .7 1m-.3-2.5-.3 1.5m1.7-4-1.4 2.5m12-7.2v-.7m.9 2.2-.8-.6m2.5.6h-1.7m3 .3.4-2m-1.2 5.1.8-3.1m-1.2 5.1.4-2m-1.5 10.2 1-8.2m-1 8.2-.7 3.2m-.5-2.2 1.2-1m-2.5 1h1.3m-1.3-1.2v1.2m-2.3-3.5 2.3 2.3m-2.3-3.5v1.2m1-3-1 1.8m3-3.2-2 1.4m3.3-1.4h-1.4m3-1.3-1.6 1.3m-.1-3.3h2.1m-5 1.1 2.9-1m-6.3 2.3 3.5-1.3m-6 .5 2.5.8m-3.3-2.5.8 1.7m1-3-1.8 1.3m2.4-3.5-.7 2.1m2.5-2.3-1.8.2m6.4-3.3h1m-2.8 1.5 1.8-1.5m-5.2 2.4 3.4-1m-5 2.2 1.6-1.2m-4 3.8 2.5-2.6m-4 2.4 1.5.2m-1.5-.6v.4m.3-1.8-.3 1.4m1-4.5-.7 3.1m-2 1.6-3.4 3.8m4.6-6.3-1.3 2.5m2.9-4.7-1.6 2.2m4-5.5-2.4 3.3m1.2-7.4 1.2 4.1m-23.9-5 3.5 1.6m-.5 3.8 2.6.8m-4.3-2 1.7 1.2m-2.3-2.5.6 1.3m-3.2-1.7 2.6.4m-3.9-1.5-1.2.7m4.3-2.5-3.1 1.8m5.6-5.2-2.5 3.4m16.9-1.3.5-.3m-2.7.3h2.2m-3.4-1 1.2 1m-4-1.4 2.8.5m0-1.5-2.2-.7m5 .7h-2.7m4.6 1-2-1m3.6 2.7-1.6-1.8m4.8 3.7-3.2-1.9m4.8-3 2.4 3.3m-4-6 1.6 2.6m-2.6-6 1 3.4m-1-1.6v-1.8m-2.4 2.6 2.4-.8m-6.7 2.5 4.3-1.7m22.6 32.1.5 3.3m.9-5.2-1.4 2m2.6-11.7-1.2 9.7m-1.3-11.3 2.5 1.6m-4.8-3.8 2.3 2.2m-5.7-3 3.4.8m-4.7-1.7 1.3 1m-3.6-3 2.3 2m-5.5-4.2 3.2 2.1m-4.6-5.7 1.4 3.6m-6-9.4 4.6 5.8m-5.9-12 1.3 6.2m-2.9-2.6 1.6-3.5m-2.8 3.5h1.2m-5.3 1.6 4-1.6m-10.4 4.1 6.4-2.5m-12.7 1.8 6.3.7m-8.2-3.6 2 3m-5.4-3.6 3.4.6m-6.1-1 2.7.4m-2.6-8.9-.1.1m9.9 45.5 1.4-1.4m87.1-41.9 1.3 1m-5-2 3.7 1m-6-1.2-2.6.7m3.7-1.8-1 1.1m-.5-1h.1m-1 .6 1-.6m-2.3 1.7 1.4-1m-4.6 2.1 3.2-1m1-1.9v.2m8.7 3.8-5.6-2.1m10.2 2.8-4.6-.7m10 4-5.4-3.3m11.9 6.4 1.6.6m-6.5-1.3-3.2-1.4m9.4 4-6.2-2.6m6.5 2.6h-.3m-2.6-9.6 2.7.3m-5 0 2.3-.3m-4.4 0 2 .4m-5.4-1.5 3.4 1.1m4.5-3.2.4-.2m-2.3.2h1.9m-1.7-.2-.2.2m-83.1 45.4v-1.7m-1.6.5 1.6 1.2m-7-1.7-2 1.6m-.9-1-.6 1.1m2.5-2.6-1.9 1.5m2-3.6v2.1m3.3-3.9-3.4 1.8m9.6 4.5v.2m-3.5-2.4.7-.2m-2.3.6 1.6-.4m-4 .4h2.4m-2.4-.9v1m-.5-2.3.5 1.3m1.5-3-2 1.7m-6.7-1.3h2.2m.8.3v1.5m2.8-2.4-2.8.9m2.8-1.9v1M495 491l1.3.5m-3.2-.2 2-.3m-5.2 1.4 3.2-1.1m6.9 6.8.8.5m-2.3-.5h1.5m-3 .5 1.5-.5m-5.4-1.7-1.3 2.2m.4-4 1 1.8m-3.3-2.4 2.3.5m-4 .8 1.7-1.3m-4.5 1.8 2.8-.5m-3 1.9.2-1.4m-1.1.9-1 2m2.5-3.2-1.5 1.2m4.9-3.1-3.4 2m3.1-3.3.3 1.3m-.8-1.2h.5m-2.3.3 1.8-.3m-5.8.9 4-.6m2.1-1.7 4.8-2.5m-8 3.5 3.2-1m-6 2.3 2.8-1.3m-7 3.1 4.1-1.8m-8.8 1 4.6.8m-4.6-16 .1.3m5-.5 1 2m-2.6-3.3 1.6 1.3m-3.3-1.7 1.7.4m-2.2-2.4.5 2m-1.8-3.2.8-.8m-.8.8h0Z" fill="none" stroke="#f1f1f1" stroke-linecap="round" stroke-linejoin="round" stroke-width=".5"></path></g><path fill="#f1f1f1" stroke="#f1f1f1" stroke-miterlimit="70.7" stroke-width=".3" d="M531 455.4h5.8v16.7H531v-16.7z"></path><path fill="#f1f1f1" stroke="#f1f1f1" stroke-miterlimit="70.7" stroke-width=".3" d="M532.4 459.1h3v9.4h-3v-9.4z"></path><path d="M744.8 449.7h-59.3m246.7 0h-59.3m-405 .7h-59.3m252.1 0h-64.8" fill="none" stroke="#f1f1f1" stroke-miterlimit="70.7" stroke-width="1.4"></path><path fill="none" stroke="#f1f1f1" stroke-miterlimit="70.7" stroke-width="2.7" d="M1926.5 79.5v536"></path><path d="m1926.5 62.3-6.4 20.8h13l-6.6-20.8Zm0 558.5 6.5-20.8h-13l6.5 20.8Z" fill="#f1f1f1" stroke-width="0"></path><path fill="none" stroke="#f1f1f1" stroke-miterlimit="70.7" stroke-width="2.7" d="m971.4 363.8 2424.4.5"></path><path d="m963.2 363.8 20.7 6.5v-13l-20.7 6.5Zm2440.2 0-20.8-6.4v12.9l20.8-6.5ZM1730 402.3c1 .6 3 1.5 5.3 1.5 4 0 5.4-2.6 5.3-4.6 0-3.3-3-4.7-6.1-4.7h-1.8V392h1.8c2.3 0 5.3-1.3 5.3-4 0-2-1.2-3.6-4.2-3.6a9 9 0 0 0-4.7 1.5l-.8-2.3c1.2-1 3.6-1.8 6.2-1.8 4.6 0 6.7 2.7 6.7 5.6 0 2.5-1.4 4.6-4.3 5.6 2.9.6 5.2 2.8 5.2 6.1 0 3.8-3 7.1-8.6 7.1-2.7 0-5-.8-6.1-1.5l.8-2.5Zm19.8 1.4 2.6-.1a9 9 0 0 0 5-2.3c1.5-1.4 2.6-3.5 3-6.3a7 7 0 0 1-5.6 2.5c-4.3 0-7-3.2-7-7.2 0-4.5 3.2-8.4 8-8.4s7.9 4 7.9 10c0 5.2-1.7 8.8-4 11a11.7 11.7 0 0 1-7 3.2c-1.1.2-2.1.2-2.9.2v-2.6Zm1.2-13.6c0 3 1.7 5 4.5 5 2.2 0 3.8-1 4.7-2.5.2-.3.2-.6.2-1.1 0-4-1.4-7.2-4.8-7.2-2.7 0-4.6 2.4-4.6 5.8Zm17.5 13.6 2.6-.1a9 9 0 0 0 4.9-2.3 10 10 0 0 0 3.1-6.3 7 7 0 0 1-5.6 2.5c-4.3 0-7-3.2-7-7.2 0-4.5 3.2-8.4 8-8.4s7.9 4 7.9 10c0 5.2-1.8 8.8-4.1 11a11.7 11.7 0 0 1-6.9 3.2c-1.1.2-2.2.2-3 .2v-2.6Zm1.1-13.6c0 3 1.8 5 4.6 5a5 5 0 0 0 4.6-2.5c.2-.3.3-.6.3-1.1 0-4-1.5-7.2-4.8-7.2-2.7 0-4.7 2.4-4.7 5.8Zm29.2-5.5h-.5l-1.9.1c-5 .8-7.7 4.5-8.2 8.4a7 7 0 0 1 5.8-2.7c4.2 0 7.1 3 7.1 7.6 0 4.4-3 8.3-7.9 8.3-5 0-8.3-3.9-8.3-10a15 15 0 0 1 4-10.7c2-2 4.6-3.1 7.6-3.5l2.3-.2v2.7Zm-1 13.6c0-3.4-1.9-5.4-4.8-5.4-2 0-3.7 1.2-4.6 2.9a3 3 0 0 0-.4 1.3v.1c.1 3.9 2 6.8 5.2 6.8 2.8 0 4.7-2.3 4.7-5.7Zm21.9-4.3c0 8-3 12.4-8.2 12.4-4.7 0-7.8-4.3-7.9-12.1 0-8 3.4-12.3 8.3-12.3 5 0 7.8 4.4 7.8 12Zm-12.9.3c0 6.2 2 9.7 4.8 9.7 3.3 0 4.9-3.9 4.9-9.9 0-5.8-1.5-9.6-4.8-9.6-2.8 0-4.9 3.4-4.9 9.8Zm138-142 .1 2.6a9 9 0 0 0 2.3 4.9c1.5 1.6 3.5 2.7 6.3 3.1a7 7 0 0 1-2.5-5.7c0-4.2 3.2-7 7.2-7 4.5 0 8.4 3.3 8.4 8.2s-4 7.8-10 7.8c-5.1 0-8.8-1.8-11-4.1a11.7 11.7 0 0 1-3.2-6.9l-.2-2.4v-.5h2.6Zm13.6 1.1c-3 0-5 1.8-5 4.6a5 5 0 0 0 2.5 4.6c.3.2.7.3 1.1.3 4 0 7.2-1.5 7.2-4.8 0-2.7-2.4-4.7-5.8-4.7Zm5.1 29.8v-9l-6-1 .1 2a10 10 0 0 1-1.3 5 6.8 6.8 0 0 1-6 3.5c-4.7 0-8.1-3.7-8.1-8.8 0-2.6.7-4.8 1.4-6l2.5.9c-.6 1-1.3 2.9-1.3 5 0 3 2 5.6 5 5.6 3.1 0 5.3-2 5.3-6.8a22 22 0 0 0-.2-3.2l11.3 1.5v11.3h-2.7Zm-15 4.3c3 0 5.2 1.7 6.4 4.7h.1c1.2-2.7 3.3-3.8 5.3-3.8 3.8 0 6.3 3.2 6.3 7.3 0 4.6-2.9 6.9-5.8 6.9-2 0-4.2-1-5.5-4h-.1c-1.2 3-3.3 4.8-6.1 4.8-4.2 0-7-3.5-7-8 0-5 3-8 6.5-8Zm.2 12.7c2.9 0 4.3-2 5.2-5.2-.8-2.8-2.6-4.2-4.9-4.2-2.4-.2-4.5 1.6-4.5 4.7 0 2.8 1.8 4.7 4.2 4.7Zm11.8-8.8c-2.3 0-3.6 1.8-4.3 4.5.7 2 2.1 3.6 4.3 3.6 1.9 0 3.8-1.1 3.8-4 0-2.7-1.7-4.1-3.8-4.1Zm-5.9 30.8c-8 0-12.4-3-12.4-8.3 0-4.6 4.3-7.7 12.1-7.8 8 0 12.3 3.4 12.3 8.2 0 5-4.4 7.9-12 7.9Zm-.3-12.9c-6.2 0-9.7 2-9.7 4.8 0 3.3 3.9 4.9 10 4.9 5.7 0 9.5-1.6 9.5-4.9 0-2.8-3.4-4.8-9.8-4.8Z" fill="#f1f1f1" stroke-width="0"></path><path fill="none" stroke="#f1f1f1" stroke-miterlimit="70.7" stroke-width="2.3" d="M179.3 433.8H65.5v-282h113.8v282z"></path><path d="M179.3 405.7H65.5v-28h113.8v28Zm0-56H65.5v-28h113.8v28Zm0-56H65.5v-28h113.8v28Zm0-56H65.5v-28.1h113.8v28Zm-112-56.1h112M302.4 372v195H188.6V428.2h53.8v-26.3l-1.5-.7 1.5-.7v-.3h.6l56-28h3.4Zm0-213.6V297h-60v28h30.4l-30.4 16-22.4 12h-31.5V158.5h113.8Z" fill="none" stroke="#f1f1f1" stroke-miterlimit="70.7" stroke-width="2.9"></path><path d="M302.4 566.5H188.6v-28h113.8v28Zm0-54.3H188.6v-28h113.8v28Zm0-56H188.6v-28h113.8v28Zm0-84v28H243l56-28h3.4Zm-29.6-47.3L242.4 341 220 353h-31.5v-28h84.2Zm29.6-28H188.6v-28h113.8v28Zm0-56H188.6v-28.1h113.8v28Zm-112-56.1h112m-60 215.4v166.6" fill="none" stroke="#f1f1f1" stroke-miterlimit="70.7" stroke-width="2.9"></path><path d="M123.3 433.8V97.5h119V341m59.6 29.7-2.9 1.4-56 28.1-.6.3-1.5.7-51 25.6" fill="none" stroke="#f1f1f1" stroke-miterlimit="70.7" stroke-width="2.9"></path><path d="M302 309.4 272.7 325l-30.3 16-22.4 12-30.2 16m112 56-59.5-23-1.5-.7-2-.7m-171.6 5.2 56 28m56-28-56 28" fill="none" stroke="#f1f1f1" stroke-miterlimit="70.7" stroke-width="2.9"></path><g><path d="M1590.7 285.6a16 16 0 0 0 7.9 2.2c6.1 0 8-3.9 8-6.8-.1-5-4.6-7-9.2-7h-2.6v-3.7h2.6c3.5 0 7.9-1.8 7.9-6 0-2.8-1.8-5.3-6.2-5.3a13 13 0 0 0-7 2.4l-1.3-3.5c1.8-1.4 5.4-2.7 9.2-2.7 7 0 10.1 4.1 10.1 8.4 0 3.6-2.1 6.7-6.5 8.3v.1c4.4.9 7.9 4.1 7.9 9 0 5.7-4.4 10.7-12.9 10.7a18 18 0 0 1-9.2-2.4l1.3-3.7Zm47.8-25.8h-13.4l-1.4 9 2.9-.2c2.7 0 5.4.6 7.6 2a10 10 0 0 1 5 9c0 7-5.4 12-13.1 12-3.9 0-7.1-1-8.8-2.1l1.2-3.6c1.5.8 4.3 2 7.5 2 4.5 0 8.4-3 8.4-7.7 0-4.6-3-7.9-10.2-7.9-2 0-3.5.3-4.8.4l2.2-17h17v4.1Zm27.9 0h-13.5l-1.3 9 2.8-.2c2.8 0 5.5.6 7.6 2a10 10 0 0 1 5 9c0 7-5.4 12-13 12-4 0-7.2-1-8.8-2.1l1.1-3.6c1.5.8 4.4 2 7.6 2 4.5 0 8.4-3 8.4-7.7-.1-4.6-3.1-7.9-10.2-7.9-2 0-3.6.3-4.9.4l2.3-17h16.9v4.1Zm20.1 5h5.8l4.8 13.2 2.4 7.3h.1c.6-2 2-6.2 3.1-9l4.2-11.5h6l1.8 26.3h-4.5l-.6-12.6-.5-9.4h-.2c-.7 2.4-1.4 4.5-2.9 8.6l-5 13.2h-3.5l-4.7-13c-.8-2.5-2-6.3-2.6-8.7h-.2l-.4 9.4-.7 12.5h-4.4l2-26.3Zm31.9 8.2v-1.7l2.1-2.1c5.3-5 7.7-7.7 7.7-10.8 0-2-1-4-4-4a7 7 0 0 0-4.4 1.7l-1-2a9 9 0 0 1 5.9-2c4.4 0 6.3 3 6.3 6 0 3.7-2.8 6.8-7.1 11l-1.6 1.5h9.2v2.4h-13.1Z" fill="#f1f1f1" stroke-width="0"></path></g></g></g></g></g></g></svg>