<svg xmlns="http://www.w3.org/2000/svg" viewBox="0 0 1920 597.9"><g id="SELECTION" fill="none" stroke-width="0"><path d="M1272 519h-1.8v56.9h-143.4V361.5h89.9v14.1h42.1V394h13.2v125z"/><path d="M1418 519h-1.8v56.9h-136V519h-1.8V375.6h17.6v-15.8h36.8v1.3h34.9v16.7h37.1V394h13.2v125z"/><path d="M1567.7 519h-1.8v56.9h-139.7V519h-1.8V374.4h12.4v-12.9h6.9v-1.7h110.4v9.5h13.6V519z"/><path d="M1898.1 368.1v207.8h-322.2V519h-1.8V359.8h43.8v-5.9h125.3v14.3h24.9v-14.3h130v14.2z"/><path d="M1898.1 129.9v213.5h-55.4v4h-189.2v-59.5h-47.1v3.9h-.4v.1h-35.1v-.1h-8.2v-58.7h-1.7V129.3h1.7V79.5h335.4v50.4z"/><path d="M965.4 134.8h1.7V79.5h189.1v55.3h1.7v145h-88.2v12.9h-94.9v-9.9h-9.4v-148z"/><path d="M339.7 311.7v148.5H338v54.3H21.9V291.2h59.2v1.8h53.7v8.6h9v5.7H206v-16.1h93.7v7.9h40v12.6z"/><path d="M544.4 313.1v147.1h-1.8v54.3H347.9v-54.3h-1.7V318.1h77.2v-19.3h106.2v11.3h14.8v3z"/><path d="M745.6 514.5h-193v-54.3h-1.8v-147h82.5V299H670v-.2h17.8v8.7h43v10h14.7v196.9Z"/></g></svg>