<svg xmlns="http://www.w3.org/2000/svg" viewBox="0 0 1000 409"><g id="SELECTION"><path d="m8.8 248.6 1.6-8.4 2.2-13.7 15-10 14.2-9.5 121.4-80.8 4-2.6 93.6-62.5 15.6-10.4 2.7-1.8 36.7-24.4 69.6 3.5h3.2l93.4 5.5 4.3.3 111.1 6 18.1-21 2.7-3.2 7.2-8.3 17.6.1h213.3l39.5 2.6h1.3l81.2 5.4 6 23.5.9 3.3 7.3 27.5v118.8l-8.8 64.7-.2 3.3-9.3 65.5-10.6.1V390l-.6 11.5H671.2v-3.3l-.2-119.8v-3.2l.2-23.5-.2-56.6V79.3h20v-2.6h-1.3v-20L489 56l-50 6.8h-42l-6.5 4.5-1.3.8-6.2 4.3 3.4 5v102.3h-44.6V197h-42v44.6l-53 1.4v128l-164-11.4-63.3-94.8-1.6-2.5-9.2-13.6Z" fill="none" stroke-width="0"/></g></svg>