<svg version="1.1" xmlns="http://www.w3.org/2000/svg" xmlns:xlink="http://www.w3.org/1999/xlink" viewBox="0 0 1920 597.9"><g id="SELECTION_0" fill="none" stroke-width="0"><path d="M1120.4 597.9V323h109v46.1h49v228.8h-158z"></path><path d="M1272.5 597.9V322.1h70.3l81.6 29v246.8h-151.9z"></path><path d="M1418.4 597.9V351.5L1464 322h100.1l10 31.2v244.7h-155.7z"></path><path d="M1568.1 597.9V338.6l27-16.2h15.9v25h309v250.5h-351.9z"></path><path d="M1920 353.9h-272.9v-59.6h-32.9v4.8h-7.8v16.3l-22.5 14.3h-29.4V57.6H1920v296.3z"></path><path d="M958.9 57.6h205.5v228.6h-81.6v44.7h-51l-3.2-31.8h-69.7V57.6z"></path><path d="M0 536.4V284.8h303.7v-23.2h14.4l28.1 19.6v255.2H0z"></path><path d="M339.7 536.4V292.3h76.2v-31.5h106v31.5h28.6v244.1H339.7z"></path><path d="M544.8 536.4V306.7h78.5v-46.3h132.3v276H544.8z"></path></g><g id="SELECTION_1" fill="none" stroke-width="0"><path d="M1272 519h-1.8v56.9h-143.4V361.5h89.9v14.1h42.1V394h13.2v125z"></path><path d="M1418 519h-1.8v56.9h-136V519h-1.8V375.6h17.6v-15.8h36.8v1.3h34.9v16.7h37.1V394h13.2v125z"></path><path d="M1567.7 519h-1.8v56.9h-139.7V519h-1.8V374.4h12.4v-12.9h6.9v-1.7h110.4v9.5h13.6V519z"></path><path d="M1898.1 368.1v207.8h-322.2V519h-1.8V359.8h43.8v-5.9h125.3v14.3h24.9v-14.3h130v14.2z"></path><path d="M1898.1 129.9v213.5h-55.4v4h-189.2v-59.5h-47.1v3.9h-.4v.1h-35.1v-.1h-8.2v-58.7h-1.7V129.3h1.7V79.5h335.4v50.4z"></path><path d="M965.4 134.8h1.7V79.5h189.1v55.3h1.7v145h-88.2v12.9h-94.9v-9.9h-9.4v-148z"></path><path d="M339.7 311.7v148.5H338v54.3H21.9V291.2h59.2v1.8h53.7v8.6h9v5.7H206v-16.1h93.7v7.9h40v12.6z"></path><path d="M544.4 313.1v147.1h-1.8v54.3H347.9v-54.3h-1.7V318.1h77.2v-19.3h106.2v11.3h14.8v3z"></path><path d="M745.6 514.5h-193v-54.3h-1.8v-147h82.5V299H670v-.2h17.8v8.7h43v10h14.7v196.9Z"></path></g><g><g id="MAIN_LAYER"><g id="Layer_1-2" data-name="Layer 1-2"><g id="_1896303581200" data-name="1896303581200"><path fill="#f1f1f1" stroke-width="0" d="M633 262.3h1.5v36.8H633z"></path><path fill="#f1f1f1" stroke-width="0" d="M633 297.6h36.8v1.4H633z"></path><path d="M669.8 299a36.8 36.8 0 0 0-36.8-36.7" fill="none" stroke="#f1f1f1" stroke-miterlimit="22.9" stroke-width=".6"></path></g><path fill="#f1f1f1" stroke-width="0" d="M1418 371.9h18.9v2.6H1418z"></path><path fill="#f1f1f1" stroke-width="0" d="M1434.3 355.6h2.5v18.9h-2.5z"></path><path fill="#f1f1f1" stroke-width="0" d="M21.9 100.1H0V70.4h21.9v29.7zM0 170h21.9v30.6H0V170zm21.9 293.3H0v-53.1h21.9v53.1zm1898.1-300h-21.9v-33.4h21.9v33.4zm0 96h-21.9v-39.5h21.9v39.5zm0 267.7h-21.9v-77h21.9v77zM800.6 477.2h-4v-77.7h4v77.7z"></path><path fill="#f1f1f1" stroke-width="0" d="M841.6 401.6h-93.7v-2h93.7v2zm2 105.9h-89.7v-2h89.7v2z"></path><path fill="#f1f1f1" stroke-width="0" d="m774.5 507.1-18.6-9.3.7-1.7 18.6 9.3-.7 1.7z"></path><path fill="#f1f1f1" stroke-width="0" d="m775.2 507.1-.8-1.7 20.6-9.3.7 1.7-20.5 9.3z"></path><path fill="#f1f1f1" stroke-width="0" d="M775.8 507.1h-2V381.6h2v125.5zm43.8-125.5h-45.8v-2h45.8v2z"></path><path fill="#f1f1f1" stroke-width="0" d="M841.3 412.2h-86.1v-2h86.1v2zm-1.2 9.4h-84.9v-2h84.9v2zm1.8 8.8h-86.7v-2h86.7v2zm-2 9.1h-84.7v-2h84.7v2zm0 9.4h-84.7v-2h84.7v2zm.9 10.7h-85.6v-2h85.6v2zm-.9 10.5h-84.7v-2h84.7v2zm3.7 9.1h-88v-2h88v2zm0 10h-88v-2h88v2zm-4.2 9h-87.5v-2h87.5v2z"></path><path fill="#f1f1f1" stroke-width="0" d="M821.4 507.1h-2V379.6h2v127.5z"></path><path fill="#f1f1f1" stroke-width="0" d="m800.2 462.3-.9-1.8 43.9-21.9.9 1.7-43.9 22zm-2.7-4.2-.9-1.8 45.6-22.7.9 1.7-45.6 22.8z"></path><path fill="#f1f1f1" stroke-width="0" d="m838.2 459.2-18.6-10.4 1-1.5 18.6 10.4-1 1.5z"></path><path fill="none" stroke="#f1f1f1" stroke-miterlimit="22.9" stroke-width="2" d="m902.4 370.6-40.9 51.8m-1.8 0h42.7v-51.8h-42.7v51.8zm0-51.8 42.7 51.8m0 20-40.9 51.8m-1.8 0h42.7v-51.8h-42.7v51.8zm0-51.8 42.7 51.8m0-189.1-69.8 36.5m0 0h69.8v-36.5h-69.8v36.5zm0-36.5 69.8 36.5"></path><path fill="#f1f1f1" stroke-width="0" d="M21.9 309H0v-38.9h21.9V309zm107.5 205.5h39.9v21.9h-39.9v-21.9zm626.2 79.8h-19.7v-79.4h19.7v79.4zm162.3-231.5H748.4v-8h169.5v8z"></path><path fill="#f1f1f1" stroke-width="0" d="M917.9 377.6h-8v-40h8v40zm-1.7 131.5h-78.6v-7.9h78.6v7.9zm1.7-59.1h-8v-40.5h8V450zm980.2-120.7h21.9v38.8h-21.9v-38.8zM1084.2 79.5h-38.8V57.6h38.8v21.9zM755.6 531.1h-10V294.3h10v236.8z"></path><path fill="#f1f1f1" stroke-width="0" d="M917.9 509.1h-8v-28.6h8v28.6zm-72.3 0h-8V359.6h8v149.5z"></path><path fill="#f1f1f1" stroke-width="0" d="M913.3 436.4h-67.7v-8h67.7v8zm-85.7-74.8h-8v-67.3h8v67.3zm90.3-54.8h-8v-21.7h8v21.7zm60.6 287.1H972V353.4h6.5v240.5zm838.7 3.9h-74v-21.9h74v21.9z"></path><path fill="#f1f1f1" stroke-width="0" d="M1743.2 590h-58.6v-14.1h58.6V590z"></path><path fill="#f1f1f1" stroke="#f1f1f1" stroke-miterlimit="22.9" stroke-width=".5" d="M1684.6 580.5h58.6v5.9h-58.6v-5.9z"></path><path fill="#f1f1f1" stroke="#f1f1f1" stroke-miterlimit="22.9" stroke-width=".5" d="M1684.6 582.5h58.6v1.9h-58.6v-1.9z"></path><path fill="#f1f1f1" stroke-width="0" d="M1684.6 597.8h-34.3v-21.9h34.3v21.9z"></path><path fill="#f1f1f1" stroke-width="0" d="M1650.3 590h-58.8v-14.1h58.8V590z"></path><path fill="#f1f1f1" stroke="#f1f1f1" stroke-miterlimit="22.9" stroke-width=".5" d="M1591.5 580.5h58.8v5.9h-58.8v-5.9z"></path><path fill="#f1f1f1" stroke="#f1f1f1" stroke-miterlimit="22.9" stroke-width=".5" d="M1591.5 582.5h58.8v1.9h-58.8v-1.9z"></path><path fill="#f1f1f1" stroke-width="0" d="M1591.5 597.8h-38.9v-21.9h38.9v21.9z"></path><path fill="#f1f1f1" stroke-width="0" d="M1552.6 590h-57.9v-14.1h57.9V590z"></path><path fill="#f1f1f1" stroke="#f1f1f1" stroke-miterlimit="22.9" stroke-width=".5" d="M1494.7 580.5h57.9v5.9h-57.9v-5.9z"></path><path fill="#f1f1f1" stroke="#f1f1f1" stroke-miterlimit="22.9" stroke-width=".5" d="M1494.7 582.5h57.9v1.9h-57.9v-1.9z"></path><path fill="#f1f1f1" stroke-width="0" d="M1494.7 597.8h-27v-21.9h27v21.9z"></path><path fill="#f1f1f1" stroke-width="0" d="M1467.7 590h-34.3v-14.1h34.3V590z"></path><path fill="#f1f1f1" stroke="#f1f1f1" stroke-miterlimit="22.9" stroke-width=".5" d="M1433.4 580.5h34.3v5.9h-34.3v-5.9z"></path><path fill="#f1f1f1" stroke="#f1f1f1" stroke-miterlimit="22.9" stroke-width=".5" d="M1433.4 582.5h34.3v1.9h-34.3v-1.9z"></path><path fill="#f1f1f1" stroke-width="0" d="M1405.7 597.8h27.7v-21.9h-27.7v21.9z"></path><path fill="#f1f1f1" stroke-width="0" d="M1405.7 590h-58.2v-14.1h58.2V590z"></path><path fill="#f1f1f1" stroke="#f1f1f1" stroke-miterlimit="22.9" stroke-width=".5" d="M1347.5 580.5h58.2v5.9h-58.2v-5.9z"></path><path fill="#f1f1f1" stroke="#f1f1f1" stroke-miterlimit="22.9" stroke-width=".5" d="M1347.5 582.5h58.2v1.9h-58.2v-1.9z"></path><path fill="#f1f1f1" stroke-width="0" d="M1319.9 597.8h27.6v-21.9h-27.6v21.9z"></path><path fill="#f1f1f1" stroke-width="0" d="M1319.9 590h-35.8v-14.1h35.8V590z"></path><path fill="#f1f1f1" stroke="#f1f1f1" stroke-miterlimit="22.9" stroke-width=".5" d="M1284.1 580.5h35.8v5.9h-35.8v-5.9z"></path><path fill="#f1f1f1" stroke="#f1f1f1" stroke-miterlimit="22.9" stroke-width=".5" d="M1284.1 582.5h35.8v1.9h-35.8v-1.9z"></path><path fill="#f1f1f1" stroke-width="0" d="M1284.1 597.8h-26.3v-21.9h26.3v21.9z"></path><path fill="#f1f1f1" stroke-width="0" d="M1257.8 590H1198v-14.1h59.8V590z"></path><path fill="#f1f1f1" stroke="#f1f1f1" stroke-miterlimit="22.9" stroke-width=".5" d="M1198 580.5h59.8v5.9H1198v-5.9z"></path><path fill="#f1f1f1" stroke="#f1f1f1" stroke-miterlimit="22.9" stroke-width=".5" d="M1198 582.5h59.8v1.9H1198v-1.9z"></path><path fill="#f1f1f1" stroke-width="0" d="M1135.5 597.8h-26.1v-21.9h26.1v21.9z"></path><path fill="#f1f1f1" stroke-width="0" d="M1109.4 590h-60.6v-14.1h60.6V590z"></path><path fill="#f1f1f1" stroke="#f1f1f1" stroke-miterlimit="22.9" stroke-width=".5" d="M1048.8 580.5h60.6v5.9h-60.6v-5.9z"></path><path fill="#f1f1f1" stroke="#f1f1f1" stroke-miterlimit="22.9" stroke-width=".5" d="M1048.8 582.5h60.6v1.9h-60.6v-1.9z"></path><path fill="#f1f1f1" stroke-width="0" d="M1048.8 597.8h-25.6v-21.9h25.6v21.9z"></path><path fill="#f1f1f1" stroke-width="0" d="M848.6 594.3h-60.4v-10.2h60.4v10.2z"></path><path fill="#f1f1f1" stroke="#f1f1f1" stroke-miterlimit="22.9" stroke-width=".5" d="M788.2 587.4h60.4v4.3h-60.4v-4.3z"></path><path fill="#f1f1f1" stroke="#f1f1f1" stroke-miterlimit="22.9" stroke-width=".5" d="M788.2 588.8h60.4v1.4h-60.4v-1.4z"></path><path fill="#f1f1f1" stroke-width="0" d="M987.7 597.8h-28.5v-22.7h28.5v22.7zm835.9-518.3h-78.5V57.6h78.5v21.9zm-137.6 0h-38.8V57.6h38.8v21.9zm-209.6 0h-39.3V57.6h39.3v21.9zm-196.1 0h-39V57.6h39v21.9zm-295.4 0h-31.6V57.6h31.6v21.9zM886 21.9h-45.3V0H886v21.9zm-103.2 0H742V0h40.8v21.9zm-101.2 0h-39.1V0h39.1v21.9zm-98.8 0h-26.6V0h26.6v21.9zm-60.9 0h-27.1V0h27.1v21.9zm-87.5 0h-25.8V0h25.8v21.9zm-152.9 0h-38.8V0h38.8v21.9zm-99.4 0h-52V0h52v21.9zm45.6 492.6h39.1v21.9h-39.1v-21.9zm98 0h38.8v21.9h-38.8v-21.9zm97.6 0H463v21.9h-39.7v-21.9zm98.3 0h47v21.9h-47v-21.9zm106 0H667v21.9h-39.4v-21.9zm285.1 16.1-9.4 18.6-1.7-.7 9.4-18.6 1.7.7z"></path><path fill="#f1f1f1" stroke-width="0" d="m912.7 529.9-1.7.8-9.4-20.6 1.7-.8 9.4 20.6z"></path><path fill="#f1f1f1" stroke-width="0" d="M912.7 529.3v2h-76.5v-2h76.5z"></path><path fill="#f1f1f1" stroke-width="0" d="M846.7 559.9v-58h2v58h-2zm101.9 20.6h-6.5V549h6.5v31.5z"></path><path fill="#f1f1f1" stroke-width="0" d="M942.1 580.5v-6.6h45.6v6.6h-45.6zm0-25V549h36.4v6.5h-36.4z"></path><path fill="#f1f1f1" stroke-width="0" d="M948.6 559.9V549H823.9v10.9h124.7zm-154.1 0V549h-56.4v10.9h56.4z"></path><path fill="#f1f1f1" stroke-width="0" d="M837.8 559.9v-58h2v58h-2zm18.7 0v-58h2v58h-2zm9.7 0v-58h2v58h-2zm9.9 0v-58h2v58h-2zm10.1 0v-58h1.9v58h-1.9zm8.9 0v-58h2v58h-2zm8.8 0v-58h2v58h-2zm9.3 0v-58h2v58h-2zm-175.1 37.9v-13.7h50.1v13.7h-50.1zm-185.5-61.4h-10v-76.2h10v76.2zm117.2-237.5v-6.6h248.1v6.6H669.8z"></path><path fill="#f1f1f1" stroke-width="0" d="M1898.1 450v-81.9h14.1V450h-14.1z"></path><path fill="#f1f1f1" stroke="#f1f1f1" stroke-miterlimit="22.9" stroke-width=".5" d="M1907.6 368.1V450h-5.9v-81.9h5.9z"></path><path fill="#f1f1f1" stroke="#f1f1f1" stroke-miterlimit="22.9" stroke-width=".5" d="M1905.6 368.1V450h-1.9v-81.9h1.9z"></path><path fill="#f1f1f1" stroke-width="0" d="M1898.1 329.3v-70h14.1v70h-14.1z"></path><path fill="#f1f1f1" stroke="#f1f1f1" stroke-miterlimit="22.9" stroke-width=".5" d="M1907.6 259.3v70h-5.9v-70h5.9z"></path><path fill="#f1f1f1" stroke="#f1f1f1" stroke-miterlimit="22.9" stroke-width=".5" d="M1905.6 259.3v70h-1.9v-70h1.9z"></path><path fill="#f1f1f1" stroke-width="0" d="M1898.1 219.8v-56.5h14.1v56.5h-14.1z"></path><path fill="#f1f1f1" stroke="#f1f1f1" stroke-miterlimit="22.9" stroke-width=".5" d="M1907.6 163.3v56.5h-5.9v-56.5h5.9z"></path><path fill="#f1f1f1" stroke="#f1f1f1" stroke-miterlimit="22.9" stroke-width=".5" d="M1905.6 163.3v56.5h-1.9v-56.5h1.9z"></path><path fill="#f1f1f1" stroke-width="0" d="M1898.1 79.5h-74.5V65.4h88.6v64.5h-14.1V79.5z"></path><path d="M1902 75.8h-78.4V70h84.3v60h-6V76Zm2-2h-80.4V72h82.3v58h-2V74Z" fill="none" stroke="#f1f1f1" stroke-miterlimit="22.9" stroke-width=".5"></path><path fill="#f1f1f1" stroke-width="0" d="M1898.1 575.9h-80.9v14.2h95V527h-14.1v48.9z"></path><path d="M1902.2 580h-85v5.9h91V527h-6v53Zm2 2h-87v1.9h89V527h-2v55Z" fill="none" stroke="#f1f1f1" stroke-miterlimit="22.9" stroke-width=".5"></path><path fill="#f1f1f1" stroke-width="0" d="M21.9 21.9h108.2V7.8H7.8v63.7h14.1V21.9z"></path><path d="M17.4 18H130v-5.8H11.5v59h5.9v-53Zm-2-2H130v-1.8H13.5v57h1.9v-55Z" fill="none" stroke="#f1f1f1" stroke-miterlimit="22.9" stroke-width=".5"></path><path fill="#f1f1f1" stroke-width="0" d="M21.9 514.5h107.5v14.1H7.8v-65.3h14.1v51.2z"></path><path d="M17.7 519.2h112.2v6H11.8v-62.6h5.9v56.6Zm-2 2h114.2v2H13.8v-60.6h1.9v58.6Z" fill="none" stroke="#f1f1f1" stroke-miterlimit="22.9" stroke-width=".5"></path><path fill="#f1f1f1" stroke-width="0" d="M227.7 528.6h-58.4v-14.1h58.4v14.1z"></path><path fill="#f1f1f1" stroke="#f1f1f1" stroke-miterlimit="22.9" stroke-width=".5" d="M169.3 519h58.4v6h-58.4v-6z"></path><path fill="#f1f1f1" stroke="#f1f1f1" stroke-miterlimit="22.9" stroke-width=".5" d="M169.3 521.1h58.4v1.9h-58.4v-1.9z"></path><path fill="#f1f1f1" stroke-width="0" d="M325.7 528.6h-58.9v-14.1h58.9v14.1z"></path><path fill="#f1f1f1" stroke="#f1f1f1" stroke-miterlimit="22.9" stroke-width=".5" d="M266.8 519h58.9v6h-58.9v-6z"></path><path fill="#f1f1f1" stroke="#f1f1f1" stroke-miterlimit="22.9" stroke-width=".5" d="M266.8 521.1h58.9v1.9h-58.9v-1.9z"></path><path fill="#f1f1f1" stroke-width="0" d="M423.3 528.6h-58.8v-14.1h58.8v14.1z"></path><path fill="#f1f1f1" stroke="#f1f1f1" stroke-miterlimit="22.9" stroke-width=".5" d="M364.5 519h58.8v6h-58.8v-6z"></path><path fill="#f1f1f1" stroke="#f1f1f1" stroke-miterlimit="22.9" stroke-width=".5" d="M364.5 521.1h58.8v1.9h-58.8v-1.9z"></path><path fill="#f1f1f1" stroke-width="0" d="M521.6 528.6H463v-14.1h58.6v14.1z"></path><path fill="#f1f1f1" stroke="#f1f1f1" stroke-miterlimit="22.9" stroke-width=".5" d="M463 519h58.6v6H463v-6z"></path><path fill="#f1f1f1" stroke="#f1f1f1" stroke-miterlimit="22.9" stroke-width=".5" d="M463 521.1h58.6v1.9H463v-1.9z"></path><path fill="#f1f1f1" stroke-width="0" d="M627.6 528.6h-59v-14.1h59v14.1z"></path><path fill="#f1f1f1" stroke="#f1f1f1" stroke-miterlimit="22.9" stroke-width=".5" d="M568.6 519h59v6h-59v-6z"></path><path fill="#f1f1f1" stroke="#f1f1f1" stroke-miterlimit="22.9" stroke-width=".5" d="M568.6 521.1h59v1.9h-59v-1.9z"></path><path fill="#f1f1f1" stroke-width="0" d="M725.2 528.6H667v-14.1h58.2v14.1z"></path><path fill="#f1f1f1" stroke="#f1f1f1" stroke-miterlimit="22.9" stroke-width=".5" d="M667 519h58.2v6H667v-6z"></path><path fill="#f1f1f1" stroke="#f1f1f1" stroke-miterlimit="22.9" stroke-width=".5" d="M667 521.1h58.2v1.9H667v-1.9z"></path><path fill="#f1f1f1" stroke-width="0" d="M7.8 410.2V309h14.1v101.2H7.8z"></path><path fill="#f1f1f1" stroke="#f1f1f1" stroke-miterlimit="22.9" stroke-width=".5" d="M17.4 309v101.2h-5.9V309h5.9z"></path><path fill="#f1f1f1" stroke="#f1f1f1" stroke-miterlimit="22.9" stroke-width=".5" d="M15.4 309v101.2h-1.9V309h1.9z"></path><path fill="#f1f1f1" stroke-width="0" d="M7.8 270.1v-69.5h14.1v69.5H7.8z"></path><path fill="#f1f1f1" stroke="#f1f1f1" stroke-miterlimit="22.9" stroke-width=".5" d="M17.4 200.6v69.5h-5.9v-69.5h5.9z"></path><path fill="#f1f1f1" stroke="#f1f1f1" stroke-miterlimit="22.9" stroke-width=".5" d="M15.4 200.6v69.5h-1.9v-69.5h1.9z"></path><path fill="#f1f1f1" stroke-width="0" d="M7.8 170v-69.9h14.1V170H7.8z"></path><path fill="#f1f1f1" stroke="#f1f1f1" stroke-miterlimit="22.9" stroke-width=".5" d="M17.4 100.1V170h-5.9v-69.9h5.9z"></path><path fill="#f1f1f1" stroke="#f1f1f1" stroke-miterlimit="22.9" stroke-width=".5" d="M15.4 100.1V170h-1.9v-69.9h1.9z"></path><path fill="#f1f1f1" stroke-width="0" d="M840.7 21.9h-57.9V7.8h57.9v14.1z"></path><path fill="#f1f1f1" stroke="#f1f1f1" stroke-miterlimit="22.9" stroke-width=".5" d="M782.8 12.4h57.9v5.9h-57.9v-5.9z"></path><path fill="#f1f1f1" stroke="#f1f1f1" stroke-miterlimit="22.9" stroke-width=".5" d="M782.8 14.4h57.9v1.9h-57.9v-1.9z"></path><path fill="#f1f1f1" stroke-width="0" d="M742 21.9h-60.4V7.8H742v14.1z"></path><path fill="#f1f1f1" stroke="#f1f1f1" stroke-miterlimit="22.9" stroke-width=".5" d="M681.6 12.4H742v5.9h-60.4v-5.9z"></path><path fill="#f1f1f1" stroke="#f1f1f1" stroke-miterlimit="22.9" stroke-width=".5" d="M681.6 14.4H742v1.9h-60.4v-1.9z"></path><path fill="#f1f1f1" stroke-width="0" d="M642.5 21.9h-59.7V7.8h59.7v14.1z"></path><path fill="#f1f1f1" stroke="#f1f1f1" stroke-miterlimit="22.9" stroke-width=".5" d="M582.8 12.4h59.7v5.9h-59.7v-5.9z"></path><path fill="#f1f1f1" stroke="#f1f1f1" stroke-miterlimit="22.9" stroke-width=".5" d="M582.8 14.4h59.7v1.9h-59.7v-1.9z"></path><path fill="#f1f1f1" stroke-width="0" d="M556.2 21.9h-34.3V7.8h34.3v14.1z"></path><path fill="#f1f1f1" stroke="#f1f1f1" stroke-miterlimit="22.9" stroke-width=".5" d="M521.9 12.4h34.3v5.9h-34.3v-5.9z"></path><path fill="#f1f1f1" stroke="#f1f1f1" stroke-miterlimit="22.9" stroke-width=".5" d="M521.9 14.4h34.3v1.9h-34.3v-1.9z"></path><path fill="#f1f1f1" stroke-width="0" d="M494.8 21.9h-60.4V7.8h60.4v14.1z"></path><path fill="#f1f1f1" stroke="#f1f1f1" stroke-miterlimit="22.9" stroke-width=".5" d="M434.4 12.4h60.4v5.9h-60.4v-5.9z"></path><path fill="#f1f1f1" stroke="#f1f1f1" stroke-miterlimit="22.9" stroke-width=".5" d="M434.4 14.4h60.4v1.9h-60.4v-1.9z"></path><path fill="#f1f1f1" stroke-width="0" d="M408.6 21.9h-35.3V7.8h35.3v14.1z"></path><path fill="#f1f1f1" stroke="#f1f1f1" stroke-miterlimit="22.9" stroke-width=".5" d="M373.3 12.4h35.3v5.9h-35.3v-5.9z"></path><path fill="#f1f1f1" stroke="#f1f1f1" stroke-miterlimit="22.9" stroke-width=".5" d="M373.3 14.4h35.3v1.9h-35.3v-1.9z"></path><path fill="#f1f1f1" stroke-width="0" d="M242.7 21.9h-60.6V7.8h60.6v14.1z"></path><path fill="#f1f1f1" stroke="#f1f1f1" stroke-miterlimit="22.9" stroke-width=".5" d="M182.1 12.4h60.6v5.9h-60.6v-5.9z"></path><path fill="#f1f1f1" stroke="#f1f1f1" stroke-miterlimit="22.9" stroke-width=".5" d="M182.1 14.4h60.6v1.9h-60.6v-1.9z"></path><path fill="#f1f1f1" stroke-width="0" d="M1745.1 79.5H1686V65.4h59.1v14.1z"></path><path fill="#f1f1f1" stroke="#f1f1f1" stroke-miterlimit="22.9" stroke-width=".5" d="M1686 69.9h59.1v5.9H1686v-5.9z"></path><path fill="#f1f1f1" stroke="#f1f1f1" stroke-miterlimit="22.9" stroke-width=".5" d="M1686 71.9h59.1v1.9H1686v-1.9z"></path><path fill="#f1f1f1" stroke-width="0" d="M1647.2 79.5h-59.3V65.4h59.3v14.1z"></path><path fill="#f1f1f1" stroke="#f1f1f1" stroke-miterlimit="22.9" stroke-width=".5" d="M1587.9 69.9h59.3v5.9h-59.3v-5.9z"></path><path fill="#f1f1f1" stroke="#f1f1f1" stroke-miterlimit="22.9" stroke-width=".5" d="M1587.9 71.9h59.3v1.9h-59.3v-1.9z"></path><path fill="#f1f1f1" stroke-width="0" d="M1535.2 79.5h-58.8V65.4h58.8v14.1z"></path><path fill="#f1f1f1" stroke="#f1f1f1" stroke-miterlimit="22.9" stroke-width=".5" d="M1476.4 69.9h58.8v5.9h-58.8v-5.9z"></path><path fill="#f1f1f1" stroke="#f1f1f1" stroke-miterlimit="22.9" stroke-width=".5" d="M1476.4 71.9h58.8v1.9h-58.8v-1.9z"></path><path fill="#f1f1f1" stroke-width="0" d="M1437.1 79.5h-58.6V65.4h58.6v14.1z"></path><path fill="#f1f1f1" stroke="#f1f1f1" stroke-miterlimit="22.9" stroke-width=".5" d="M1378.5 69.9h58.6v5.9h-58.6v-5.9z"></path><path fill="#f1f1f1" stroke="#f1f1f1" stroke-miterlimit="22.9" stroke-width=".5" d="M1378.5 71.9h58.6v1.9h-58.6v-1.9z"></path><path fill="#f1f1f1" stroke-width="0" d="M1339.2 79.5h-58.9V65.4h58.9v14.1z"></path><path fill="#f1f1f1" stroke="#f1f1f1" stroke-miterlimit="22.9" stroke-width=".5" d="M1280.3 69.9h58.9v5.9h-58.9v-5.9z"></path><path fill="#f1f1f1" stroke="#f1f1f1" stroke-miterlimit="22.9" stroke-width=".5" d="M1280.3 71.9h58.9v1.9h-58.9v-1.9z"></path><path fill="#f1f1f1" stroke-width="0" d="M1241.3 79.5h-59V65.4h59v14.1z"></path><path fill="#f1f1f1" stroke="#f1f1f1" stroke-miterlimit="22.9" stroke-width=".5" d="M1182.3 69.9h59v5.9h-59v-5.9z"></path><path fill="#f1f1f1" stroke="#f1f1f1" stroke-miterlimit="22.9" stroke-width=".5" d="M1182.3 71.9h59v1.9h-59v-1.9z"></path><path fill="#f1f1f1" stroke-width="0" d="M1143.4 79.5h-59.2V65.4h59.2v14.1z"></path><path fill="#f1f1f1" stroke="#f1f1f1" stroke-miterlimit="22.9" stroke-width=".5" d="M1084.2 69.9h59.2v5.9h-59.2v-5.9z"></path><path fill="#f1f1f1" stroke="#f1f1f1" stroke-miterlimit="22.9" stroke-width=".5" d="M1084.2 71.9h59.2v1.9h-59.2v-1.9z"></path><path fill="#f1f1f1" stroke-width="0" d="M1045.4 79.5h-60.5V65.4h60.5v14.1z"></path><path fill="#f1f1f1" stroke="#f1f1f1" stroke-miterlimit="22.9" stroke-width=".5" d="M984.9 69.9h60.5v5.9h-60.5v-5.9z"></path><path fill="#f1f1f1" stroke="#f1f1f1" stroke-miterlimit="22.9" stroke-width=".5" d="M984.9 71.9h60.5v1.9h-60.5v-1.9z"></path><path fill="#f1f1f1" stroke-width="0" d="M975.2 38.1v40.5h-21.9V38.1h21.9zM373.3 21.9h-32.6V0h32.6v21.9z"></path><path fill="#f1f1f1" stroke-width="0" d="M340.7 21.9h-59.2V7.8h59.2v14.1z"></path><path fill="#f1f1f1" stroke="#f1f1f1" stroke-miterlimit="22.9" stroke-width=".5" d="M281.5 12.4h59.2v5.9h-59.2v-5.9z"></path><path fill="#f1f1f1" stroke="#f1f1f1" stroke-miterlimit="22.9" stroke-width=".5" d="M281.5 14.4h59.2v1.9h-59.2v-1.9z"></path><path fill="#f1f1f1" stroke-width="0" d="M725.2 514.5h30.4v21.9h-30.4v-21.9zm123.4 83.3v-13.7h16.7v13.7h-16.7zm50.4 0v-13.7h18.5v13.7H899zm60.2-3.5v-10.2h19v10.2h-19z"></path><path fill="#f1f1f1" stroke-width="0" d="M899 594.3h-33.7v-10.2H899v10.2z"></path><path fill="#f1f1f1" stroke="#f1f1f1" stroke-miterlimit="22.9" stroke-width=".5" d="M865.3 587.4H899v4.3h-33.7v-4.3z"></path><path fill="#f1f1f1" stroke="#f1f1f1" stroke-miterlimit="22.9" stroke-width=".5" d="M865.3 588.8H899v1.4h-33.7v-1.4z"></path><path fill="#f1f1f1" stroke-width="0" d="M959.2 594.3h-41.7v-10.2h41.7v10.2z"></path><path fill="#f1f1f1" stroke="#f1f1f1" stroke-miterlimit="22.9" stroke-width=".5" d="M917.5 587.4h41.7v4.3h-41.7v-4.3z"></path><path fill="#f1f1f1" stroke="#f1f1f1" stroke-miterlimit="22.9" stroke-width=".5" d="M917.5 588.8h41.7v1.4h-41.7v-1.4z"></path><path fill="#f1f1f1" stroke-width="0" d="M1023.2 590h-35.5v-14.1h35.5V590z"></path><path fill="#f1f1f1" stroke="#f1f1f1" stroke-miterlimit="22.9" stroke-width=".5" d="M987.7 580.5h35.5v5.9h-35.5v-5.9z"></path><path fill="#f1f1f1" stroke="#f1f1f1" stroke-miterlimit="22.9" stroke-width=".5" d="M987.7 582.5h35.5v1.9h-35.5v-1.9z"></path><path fill="#f1f1f1" stroke-width="0" d="M1171.3 590h-35.8v-14.1h35.8V590z"></path><path fill="#f1f1f1" stroke="#f1f1f1" stroke-miterlimit="22.9" stroke-width=".5" d="M1135.5 580.5h35.8v5.9h-35.8v-5.9z"></path><path fill="#f1f1f1" stroke="#f1f1f1" stroke-miterlimit="22.9" stroke-width=".5" d="M1135.5 582.5h35.8v1.9h-35.8v-1.9z"></path><path fill="#f1f1f1" stroke-width="0" d="M1198 597.8h-26.7v-21.9h26.7v21.9zm180.5-518.3h-39.3V57.6h39.3v21.9zm-196.2 0h-38.9V57.6h38.9v21.9z"></path><path fill="#f1f1f1" stroke-width="0" d="M953.3 21.9H886V7.8h81.4v30.3h-14.1V21.9z"></path><path d="M957.1 18.3H886v-6h77v25.8h-5.9V18.3Zm2-2H886v-2h75v23.8h-1.9V16.2Z" fill="none" stroke="#f1f1f1" stroke-miterlimit="22.9" stroke-width=".5"></path><path fill="#f1f1f1" stroke-width="0" d="M347.9 536.4H338v-76.2h9.9v76.2zM153.8 340.8h-10V238.2h10v102.6z"></path><path fill="#f1f1f1" stroke-width="0" d="M81.1 293v-10h72.7v10H81.1z"></path><path fill="#f1f1f1" stroke-width="0" d="M0 291.2v-6.4h303.8v6.4H0zm265.5-51.9v-6.4h41.7v6.4h-41.7z"></path><path fill="#f1f1f1" stroke-width="0" d="M265.5 232.9h6.4v58.3h-6.4v-58.3zm77.2 6.4v-6.4h43.9v6.4h-43.9zm79.8 0v-6.4h111.7v6.4H422.5zm148.8 0v-6.4h250v6.4h-250zm285.9 0v-6.4h107v6.4h-107z"></path><path fill="#f1f1f1" stroke-width="0" d="M609.7 239.3v-10h97.8v10h-97.8zm-270 59.5v-6.5h83.7v6.5h-83.7zm0 19.3v-6.4h83.7v6.4h-83.7z"></path><path fill="#f1f1f1" stroke-width="0" d="M417 292.3h6.4v25.8H417v-25.8zm127.4 20.8v-6.4h88.9v6.4h-88.9z"></path><path fill="#f1f1f1" stroke-width="0" d="M626.8 291.6h6.5v21.5h-6.5v-21.5zm-66.9.7h6.4v20.8h-6.4v-20.8zM367.8 75.9h-10V0h10v75.9zm0 163.4h-10V174h10v65.3z"></path><path fill="#f1f1f1" stroke-width="0" d="M359.5 0h6.5v239.3h-6.5V0zm148 0h6.4v224.2h-6.4V0zm159.2 75.9h-10V0h10v75.9z"></path><path fill="#f1f1f1" stroke-width="0" d="M658.5 0h6.4v239.3h-6.4V0zm-195 217.7v6.5h70.7v-6.5h-70.7z"></path><path fill="#f1f1f1" stroke-width="0" d="M463.5 239.3h6.4v-21.6h-6.4v21.6zm64.3 0h6.4v-21.6h-6.4v21.6zm439.3-104.5h-10V38.1h10v96.7z"></path><path fill="#f1f1f1" stroke-width="0" d="M958.9 38.1h6.5v261h-6.5v-261z"></path><path fill="#f1f1f1" stroke-width="0" d="M958.9 299.1v-6.4h75.5v6.4h-75.5zm13.1 60.7v-6.4h26v6.4h-26zm61.5 0v-6.4h38.1v6.4h-38.1zm33 15.8v-6.5h60.3v6.5h-60.3z"></path><path fill="#f1f1f1" stroke-width="0" d="M1065.2 353.4h6.4v22.2h-6.4v-22.2zm55.2 0h6.4v244.4h-6.4V353.4z"></path><path fill="#f1f1f1" stroke-width="0" d="M1146 361.5v-8.1h-40.2v8.1h40.2zm77.1-1.7v-6.4h-40v6.4h40zm-6.4 15.8v-6.5h79.3v6.5h-79.3z"></path><path fill="#f1f1f1" stroke-width="0" d="M1216.7 353.4h6.4v22.2h-6.4v-22.2z"></path><path fill="#f1f1f1" stroke-width="0" d="M1216.7 353.4h6.4v22.2h-6.4v-22.2zm72.9 0h6.4v22.2h-6.4v-22.2zm284.5 6.4v-6.4h-93.9v6.4h93.9zm-140.3-60.7v-6.4h-94.5v6.4h94.5zm36.6 0v-6.4h8.7v6.4h-8.7zm92.3-20.7v-6.5h-90.1v6.5h90.1z"></path><path fill="#f1f1f1" stroke-width="0" d="M1472.7 271.9h6.4v27.2h-6.4v-27.2zm-249.6 89.6v-8.1h-40.8v8.1h40.8zm220.6-.4V353h-110.9v8.1h110.9z"></path><path fill="#f1f1f1" stroke-width="0" d="M1443.7 361.5v-8.1H1412v8.1h31.7zm-13.6-62.4V291h-90.8v8.1h90.8zm-193.5 0V291h-92.9v8.1h92.9zm318-.8h8.1v-65.2h-8.1v65.2zm-388.5-163.5h-9.9V57.6h9.9v77.2zm421.8-55.3h-52.7V57.6h52.7v21.9z"></path><path fill="#f1f1f1" stroke-width="0" d="M1562.7 129.3h-9.9V57.6h9.9v71.7zm-404.8-71.7h6.5v241.5h-6.5V57.6zm197.7 0h6.4v241.5h-6.4V57.6zM1920 353.9v-6.5h-308.4v6.5H1920z"></path><path fill="#f1f1f1" stroke-width="0" d="M1611.4 345.2h6.5v14.6h-6.5v-14.6zm35.7-57.3h6.4v63.9h-6.4v-63.9z"></path><path fill="#f1f1f1" stroke-width="0" d="M1653.5 294.3v-6.4h-47.1v6.4h47.1z"></path><path fill="#f1f1f1" stroke-width="0" d="M1614.2 299.1v-7.3h-7.8v7.3h7.8zm-43.3-.8v-6.5h-16.3v6.5h16.3zM1760 430h8.1V261.5h-8.1V430z"></path><path fill="#f1f1f1" stroke-width="0" d="M1554.5 57.6h6.5v241.5h-6.5V57.6zm288.2 295.8v-10h77.3v10h-77.3zm-266.8 244.4h-10V519h10v78.8z"></path><path fill="#f1f1f1" stroke-width="0" d="M1567.7 353.4h6.4v244.4h-6.4V353.4zM146.8 273.5v-3.2h22.1v3.2h-22.1z"></path><path fill="#f1f1f1" stroke-width="0" d="M165.7 270.3h3.2v20.9h-3.2v-20.9zm134-37.4h4v66.2h-4v-66.2zm-152.9 74.4v-3.2H206v3.2h-59.2z"></path><path fill="#f1f1f1" stroke-width="0" d="M202.8 284.8h3.2v22.5h-3.2v-22.5zm-68 16.8v-3.3h19v3.3h-19z"></path><path fill="#f1f1f1" stroke-width="0" d="M134.8 284.8h3.2v16.8h-3.2v-16.8zm344-67.1h3.3v21.6h-3.3v-21.6zm35.8 0h3.2v21.6h-3.2v-21.6zm128.9 4h3.3v17.6h-3.3v-17.6z"></path><path fill="#f1f1f1" stroke-width="0" d="M643.5 224.9v-3.2h21.6v3.2h-21.6zm89.1-5.2h3.2v19.6h-3.2v-19.6zm173.5-3.9h6.4v23.5h-6.4v-23.5zm-35.9 0h6.5v23.5h-6.5v-23.5z"></path><path fill="#f1f1f1" stroke-width="0" d="M870.2 222.3v-6.5h42.3v6.5h-42.3z"></path><path fill="#f1f1f1" stroke-width="0" d="M860 219.1v-3.3h52.5v3.3H860z"></path><path fill="#f1f1f1" stroke-width="0" d="M860 215.8h3.3v23.5H860v-23.5zm57.9 31h-8v-13.9h8v13.9zm75.3 58.9h-8v-13h8v13zm0 54.1h-8v-17.4h8v17.4zm-21.6-77h3.2v16.3h-3.2v-16.3z"></path><path fill="#f1f1f1" stroke-width="0" d="M958.9 286v-3.2h15.9v3.2h-15.9zm110.8.2v-6.4h110.1v6.4h-110.1z"></path><path fill="#f1f1f1" stroke-width="0" d="M1069.7 279.8h13.1v19.3h-13.1v-19.3zm18.3-70.9h3.2V284h-3.2v-75.1zm53.2 70.9h3.3v19.3h-3.3v-19.3zm130.6 11.2v-5.4h72.2v5.4h-72.2z"></path><path fill="#f1f1f1" stroke-width="0" d="M1271.8 285.6h3.2v13.5h-3.2v-13.5zm67.5.5h3.3v13h-3.3v-13z"></path><path fill="#f1f1f1" stroke-width="0" d="M1341 281.3h3.2v17.8h-3.2v-17.8z"></path><path fill="#f1f1f1" stroke-width="0" d="M1341 284.5v-3.2h35.6v3.2H1341z"></path><path fill="#f1f1f1" stroke-width="0" d="M1373.3 281.3h3.3v17.8h-3.3v-17.8zm171.7-19.2h3.2v16.3h-3.2v-16.3z"></path><path fill="#f1f1f1" stroke-width="0" d="M1545 265.3v-3.2h17.7v3.2H1545zm-74.6 33.8v-3.2h99.9v3.2h-99.9zm140.6-11.2h3.2v71.9h-3.2v-71.9zm94 46.3V331h55.4v3.2H1705z"></path><path fill="#f1f1f1" stroke-width="0" d="M1743.2 331h3.3v37.2h-3.3V331z"></path><path fill="#f1f1f1" stroke-width="0" d="M1743.2 368.2v-3.3h17.2v3.3h-17.2zm30.9-32.3h3.2v15.7h-3.2v-15.7z"></path><path fill="#f1f1f1" stroke-width="0" d="M1760 339.1v-3.2h17.3v3.2H1760zm-501.2 30h3.2V394h-3.2v-24.9zm13.2-12.5v-3.2h24v3.2h-24zm-166.2-3.2h3.3v22.2h-3.3v-22.2z"></path><path fill="#f1f1f1" stroke-width="0" d="M1033.5 356.6v-3.2H1146v3.2h-112.5zm-503.9-64.3h3.2v17.8h-3.2v-17.8z"></path><path fill="#f1f1f1" stroke-width="0" d="M529.6 310.1v-3.3h30.3v3.3h-30.3zm-175.3-17.8h3.2v25.8h-3.2v-25.8zm603.1 216.2v-3.2h21.1v3.2h-21.1zM730.9 292.3h3.2V316h-3.2v-23.7z"></path><path fill="#f1f1f1" stroke-width="0" d="M687.9 307.6v-3.2h67.7v3.2h-67.7zm43 9.9v-3.2h24.7v3.2h-24.7zm692.9 60.3v-6.4h-56.1v6.4h56.1z"></path><path fill="#f1f1f1" stroke-width="0" d="M1367.7 353.4h3.2V374h-3.2v-20.6zm19.7 0h19.4V374h-19.4v-20.6zM534.2 232.9h1.5v36.8h-1.5z"></path><path fill="#f1f1f1" stroke-width="0" d="M534.2 232.9H571v1.4h-36.8z"></path><path d="M571 232.9a36.8 36.8 0 0 1-36.8 36.7" fill="none" stroke="#f1f1f1" stroke-miterlimit="22.9" stroke-width=".6"></path><path fill="#f1f1f1" stroke-width="0" d="M386.4 232.9h1.5v36.8h-1.5z"></path><path fill="#f1f1f1" stroke-width="0" d="M386.4 232.9h36.8v1.4h-36.8z"></path><path d="M423.2 232.9a36.8 36.8 0 0 1-36.8 36.7" fill="none" stroke="#f1f1f1" stroke-miterlimit="22.9" stroke-width=".6"></path><path fill="#f1f1f1" stroke-width="0" d="M342.7 232.9h1.5v36.8h-1.5z"></path><path fill="#f1f1f1" stroke-width="0" d="M307.3 232.9h36.8v1.4h-36.8z"></path><path d="M307.4 232.9a36.8 36.8 0 0 0 36.7 36.7" fill="none" stroke="#f1f1f1" stroke-miterlimit="22.9" stroke-width=".6"></path><path fill="#f1f1f1" stroke-width="0" d="M303.3 262.3h1.5v36.8h-1.5z"></path><path fill="#f1f1f1" stroke-width="0" d="M303.7 297.7h36.8v1.4h-36.8z"></path><path d="M340.5 299.1a36.8 36.8 0 0 0-36.8-36.7" fill="none" stroke="#f1f1f1" stroke-miterlimit="22.9" stroke-width=".6"></path><path fill="#f1f1f1" stroke-width="0" d="M821.1 232.9h1.5v36.8h-1.5z"></path><path fill="#f1f1f1" stroke-width="0" d="M821.1 232.9h36.8v1.4h-36.8z"></path><path d="M858 232.9a36.8 36.8 0 0 1-36.9 36.7" fill="none" stroke="#f1f1f1" stroke-miterlimit="22.9" stroke-width=".6"></path><path fill="#f1f1f1" stroke-width="0" d="M1032.9 292.7h1.5v36.8h-1.5z"></path><path fill="#f1f1f1" stroke-width="0" d="M1032.9 292.7h36.8v1.4h-36.8z"></path><path d="M1069.7 292.7a36.8 36.8 0 0 1-36.8 36.7" fill="none" stroke="#f1f1f1" stroke-miterlimit="22.9" stroke-width=".6"></path><path fill="#f1f1f1" stroke-width="0" d="M997.2 323h1.5v36.8h-1.5z"></path><path fill="#f1f1f1" stroke-width="0" d="M997.1 358.4h36.8v1.4h-36.8z"></path><path d="M1034 359.8a36.8 36.8 0 0 0-36.8-36.8" fill="none" stroke="#f1f1f1" stroke-miterlimit="22.9" stroke-width=".6"></path><path fill="#f1f1f1" stroke-width="0" d="M1145.7 324.7h1.5v36.8h-1.5z"></path><path fill="#f1f1f1" stroke-width="0" d="M1145.7 360h36.8v1.4h-36.8z"></path><path d="M1182.5 361.5a36.8 36.8 0 0 0-36.8-36.8" fill="none" stroke="#f1f1f1" stroke-miterlimit="22.9" stroke-width=".6"></path><path fill="#f1f1f1" stroke-width="0" d="M1235.2 291h1.5v36.8h-1.5z"></path><path fill="#f1f1f1" stroke-width="0" d="M1235.2 291h36.8v1.4h-36.8z"></path><path d="M1272 291a36.8 36.8 0 0 1-36.8 36.8" fill="none" stroke="#f1f1f1" stroke-miterlimit="22.9" stroke-width=".6"></path><g id="_1896816187728" data-name="1896816187728"><path fill="#f1f1f1" stroke-width="0" d="M1296 323h1.5v36.8h-1.5z"></path><path fill="#f1f1f1" stroke-width="0" d="M1296 358.4h36.8v1.4H1296z"></path><path d="M1332.8 359.8A36.8 36.8 0 0 0 1296 323" fill="none" stroke="#f1f1f1" stroke-miterlimit="22.9" stroke-width=".6"></path></g><path fill="#f1f1f1" stroke-width="0" d="M1433.6 292.7h1.5v36.8h-1.5z"></path><path fill="#f1f1f1" stroke-width="0" d="M1433.6 292.7h36.8v1.4h-36.8z"></path><path d="M1470.4 292.7a36.8 36.8 0 0 1-36.8 36.7" fill="none" stroke="#f1f1f1" stroke-miterlimit="22.9" stroke-width=".6"></path><path fill="#f1f1f1" stroke-width="0" d="M1569.5 291.8h1.5v36.8h-1.5z"></path><path fill="#f1f1f1" stroke-width="0" d="M1569.5 291.9h36.8v1.4h-36.8z"></path><path d="M1606.2 291.8a36.8 36.8 0 0 1-36.7 36.8" fill="none" stroke="#f1f1f1" stroke-miterlimit="22.9" stroke-width=".6"></path><path fill="#f1f1f1" stroke-width="0" d="M1609.7 323h1.5v36.8h-1.5z"></path><path fill="#f1f1f1" stroke-width="0" d="M1574.3 358.4h36.8v1.4h-36.8z"></path><path d="M1574.4 359.8A36.8 36.8 0 0 1 1611 323" fill="none" stroke="#f1f1f1" stroke-miterlimit="22.9" stroke-width=".6"></path><g id="_1896816191760" data-name="1896816191760"><path fill="#f1f1f1" stroke-width="0" d="M1479 323h1.5v36.8h-1.5z"></path><path fill="#f1f1f1" stroke-width="0" d="M1443.7 358.4h36.8v1.4h-36.8z"></path><path d="M1443.7 359.8a36.8 36.8 0 0 1 36.8-36.8" fill="none" stroke="#f1f1f1" stroke-miterlimit="22.9" stroke-width=".6"></path></g><path fill="#f1f1f1" stroke-width="0" d="M1258.8 394v-3.2h19.6v3.2h-19.6zm167.4 203.8h-10V519h10v78.8z"></path><path fill="#f1f1f1" stroke-width="0" d="M1418 353.4h6.4v244.4h-6.4V353.4zm-137.8 244.4h-10V519h10v78.8z"></path><path fill="#f1f1f1" stroke-width="0" d="M1272 353.4h6.4v244.4h-6.4V353.4zm132.8 0h3.2V394h-3.2v-40.6z"></path><path fill="#f1f1f1" stroke-width="0" d="M1404.8 394v-3.2h19.6v3.2h-19.6zm300.2-63h3.2v22.9h-3.2V331zM346.2 536.4h-6.5V292.3h6.5v244.1zm204.6 0h-6.4V292.3h6.4v244.1z"></path><path fill="#f1f1f1" stroke-width="0" d="M459.9 298.8v-6.5h106.4v6.5H459.9z"></path><g id="_1896816199104" data-name="1896816199104"><path fill="#f1f1f1" stroke-width="0" d="M423.1 262h1.5v36.8h-1.5z"></path><path fill="#f1f1f1" stroke-width="0" d="M423.1 297.3h36.8v1.4h-36.8z"></path><path d="M459.8 298.8a36.8 36.8 0 0 0-36.7-36.8" fill="none" stroke="#f1f1f1" stroke-miterlimit="22.9" stroke-width=".6"></path></g><path fill="#f1f1f1" stroke-width="0" d="M720.2 219.7h3.2v19.6h-3.2v-19.6z"></path><path fill="#f1f1f1" stroke-width="0" d="M720.2 222.9v-3.2h15.6v3.2h-15.6zm456.4 56.9h3.2v19.3h-3.2v-19.3zm8.5 73.6h3.2v31.1h-3.2v-31.1zm0 82.8V433h93.3v3.2h-93.3z"></path><path fill="none" stroke="#f1f1f1" stroke-miterlimit="22.9" stroke-width="2" d="m1186.6 403.6-8.7-3.2 8.9-16.8"></path><path fill="#f1f1f1" stroke-width="0" d="M1185.1 436.2h3.2V402h-3.2v34.2zm149.6-82.8h3.2v32.2h-3.2v-32.2zm0 82.8V433h89.7v3.2h-89.7z"></path><path fill="none" stroke="#f1f1f1" stroke-miterlimit="22.9" stroke-width="2" d="m1335.1 403.6-8.7-3.2 8.9-16.8"></path><path fill="#f1f1f1" stroke-width="0" d="M1334.7 402.6h3.2v33.6h-3.2v-33.6zm219.4-49.2h3.2v15.9h-3.2v-15.9z"></path><path fill="#f1f1f1" stroke-width="0" d="M1554.1 369.3v-3.2h20v3.2h-20zm-71.8 66.9V433h91.8v3.2h-91.8zm0-82.8h3.2v32.2h-3.2v-32.2z"></path><path fill="none" stroke="#f1f1f1" stroke-miterlimit="22.9" stroke-width="2" d="m1482.7 403.6-8.7-3.2 8.9-16.8"></path><path fill="#f1f1f1" stroke-width="0" d="M1482.3 402.6h3.2v33.6h-3.2v-33.6zm257.6 27.4v-3.2h28.2v3.2h-28.2zm-53.9-82.6h3.3V430h-3.3v-82.6z"></path><path fill="none" stroke="#f1f1f1" stroke-miterlimit="22.9" stroke-width="2" d="m1721.7 428 3.2 8.6 16.8-8.9"></path><path fill="#f1f1f1" stroke-width="0" d="M1686 430v-3.2h36.6v3.2H1686zm-998.1-42.8V384h67.7v3.2h-67.7zm-205.5-94.9h3.2v34.9h-3.2v-34.9zm0 94.9V384H550v3.2h-67.6zM228.6 284.8h3.2v30.5h-3.2v-30.5zm-81.8 83.5V365h85v3.3h-85z"></path><path fill="#f1f1f1" stroke-width="0" d="M143.8 284.8h3.2v83.5h-3.2v-83.5z"></path><path fill="none" stroke="#f1f1f1" stroke-miterlimit="22.9" stroke-width="2" d="m230.1 332.8 8.7-3.2-8.9-16.8"></path><path fill="#f1f1f1" stroke-width="0" d="M228.6 331.8h3.2v36.5h-3.2v-36.5z"></path><path fill="none" stroke="#f1f1f1" stroke-miterlimit="22.9" stroke-width="2" d="m484.1 346.7-8.7-3.1 8.9-16.9"></path><path fill="#f1f1f1" stroke-width="0" d="M482.4 345.8h3.2v41.4h-3.2v-41.4zm205.5-53.5h3.2v34.9h-3.2v-34.9z"></path><path fill="none" stroke="#f1f1f1" stroke-miterlimit="22.9" stroke-width="2" d="m689.7 346.7-8.7-3.1 8.9-16.9"></path><path fill="#f1f1f1" stroke-width="0" d="M687.9 345.8h3.2v41.4h-3.2v-41.4z"></path><g id="_1859905926128" data-name="1859905926128" fill="none" stroke="#f1f1f1" stroke-miterlimit="22.9" stroke-width=".2"><path d="M1224.1 417v16h15.2v-16c0-4.2-3.3-7.5-7.5-7.5h-.2a7.5 7.5 0 0 0-7.5 7.5Z"></path><path d="M1223.8 416.8v10.5c0 1.2 1 2.2 2.2 2.2h11.4c1.2 0 2.1-1 2.1-2.2v-10.5c0-4.3-3.4-7.7-7.7-7.7h-.2a7.7 7.7 0 0 0-7.8 7.7Z"></path><path d="M1224.4 417v10c0 1 .8 1.8 1.8 1.8h11c1 0 1.8-.8 1.8-1.8v-10c0-4-3.2-7.2-7.2-7.2h-.2c-4 0-7.2 3.2-7.2 7.2Z"></path></g><g id="_1859905926608" data-name="1859905926608" fill="#f1f1f1" stroke="#f1f1f1" stroke-miterlimit="22.9" stroke-width=".2"><path d="M1263.6 413.7c0 .6.7 1.2 1.5 1.2.9 0 1.6-.6 1.6-1.2 0-.7-.7-1.2-1.6-1.2-.8 0-1.5.5-1.5 1.2Z"></path><path d="M1265.3 414.5h6.7v-1.7h-6.7v1.7z"></path></g><g id="_1896302682272" data-name="1896302682272" fill="none" stroke="#f1f1f1" stroke-miterlimit="22.9" stroke-width=".2"><path d="M1370.1 417v16h15.3v-16c0-4.2-3.4-7.5-7.5-7.5h-.3a7.5 7.5 0 0 0-7.5 7.5Z"></path><path d="M1369.8 416.8v10.5c0 1.2 1 2.2 2.2 2.2h11.4c1.2 0 2.1-1 2.1-2.2v-10.5c0-4.3-3.4-7.7-7.7-7.7h-.2a7.7 7.7 0 0 0-7.8 7.7Z"></path><path d="M1370.4 417v10c0 1 .8 1.8 1.8 1.8h11c1 0 1.8-.8 1.8-1.8v-10c0-4-3.2-7.2-7.2-7.2h-.2c-4 0-7.2 3.2-7.2 7.2Z"></path></g><g id="_1896302685392" data-name="1896302685392" fill="#f1f1f1" stroke="#f1f1f1" stroke-miterlimit="22.9" stroke-width=".2"><path d="M1409.6 413.7c0 .6.7 1.2 1.6 1.2.8 0 1.5-.6 1.5-1.2 0-.7-.7-1.2-1.5-1.2-.9 0-1.6.5-1.6 1.2Z"></path><path d="M1411.3 414.5h6.7v-1.7h-6.7v1.7z"></path></g><g id="_1896075006704" data-name="1896075006704" fill="none" stroke="#f1f1f1" stroke-miterlimit="22.9" stroke-width=".2"><path d="M1519.8 417v16h15.3v-16c0-4.2-3.4-7.5-7.5-7.5h-.3a7.5 7.5 0 0 0-7.5 7.5Z"></path><path d="M1519.5 416.8v10.5c0 1.2 1 2.2 2.2 2.2h11.4c1.2 0 2.2-1 2.2-2.2v-10.5c0-4.3-3.5-7.7-7.8-7.7h-.2a7.7 7.7 0 0 0-7.8 7.7Z"></path><path d="M1520.1 417v10c0 1 .8 1.8 1.8 1.8h11c1 0 1.8-.8 1.8-1.8v-10c0-4-3.2-7.2-7.2-7.2h-.2c-4 0-7.2 3.2-7.2 7.2Z"></path></g><g id="_1896075010736" data-name="1896075010736" fill="#f1f1f1" stroke="#f1f1f1" stroke-miterlimit="22.9" stroke-width=".2"><path d="M1559.3 413.7c0 .6.7 1.2 1.6 1.2.8 0 1.5-.6 1.5-1.2 0-.7-.7-1.2-1.5-1.2-.9 0-1.6.5-1.6 1.2Z"></path><path d="M1561 414.5h6.7v-1.7h-6.7v1.7z"></path></g><g id="_1896075013904" data-name="1896075013904" fill="none" stroke="#f1f1f1" stroke-miterlimit="22.9" stroke-width=".2"><path d="M1744 409h16v-15.2h-16a7.5 7.5 0 0 0-7.5 7.5v.2c0 4.2 3.3 7.5 7.5 7.5Z"></path><path d="M1743.8 409.3h10.5c1.2 0 2.2-1 2.2-2.1v-11.4c0-1.2-1-2.2-2.2-2.2h-10.5a7.7 7.7 0 0 0-7.7 7.7v.3c0 4.3 3.4 7.7 7.7 7.7Z"></path><path d="M1744 408.8h10c1 0 1.8-.8 1.8-1.8v-11c0-1-.8-1.8-1.8-1.8h-10c-4 0-7.2 3.2-7.2 7.2v.2c0 4 3.2 7.2 7.2 7.2Z"></path></g><g id="_1896075013136" data-name="1896075013136"><g fill="#f1f1f1" stroke="#f1f1f1" stroke-miterlimit="22.9" stroke-width=".2"><path d="M1709 361.9c.6 0 1.1-.7 1.1-1.6s-.5-1.5-1.2-1.5c-.6 0-1.1.7-1.1 1.5s.5 1.6 1.1 1.6Z"></path><path d="M1709.8 360.2v-6.7h-1.7v6.7h1.7z"></path></g></g><g id="_1896255990192" data-name="1896255990192" fill="none" stroke="#f1f1f1" stroke-miterlimit="22.9" stroke-width=".2"><path d="M188 349v16h15.3v-16c0-4.1-3.4-7.5-7.5-7.5h-.3a7.5 7.5 0 0 0-7.5 7.5Z"></path><path d="M187.7 348.9v10.5c0 1.2 1 2.1 2.2 2.1h11.4c1.2 0 2.2-1 2.2-2.1v-10.5c0-4.3-3.5-7.8-7.8-7.8h-.2a7.7 7.7 0 0 0-7.8 7.8Z"></path><path d="M188.3 349v10c0 1 .8 1.8 1.8 1.8h11c1 0 1.8-.8 1.8-1.8v-10c0-4-3.2-7.2-7.2-7.2h-.2c-4 0-7.2 3.3-7.2 7.2Z"></path></g><g id="_1896237715824" data-name="1896237715824" fill="#f1f1f1" stroke="#f1f1f1" stroke-miterlimit="22.9" stroke-width=".2"><path d="M162.1 336.3c0 .7-.7 1.2-1.5 1.2s-1.5-.5-1.5-1.2c0-.6.6-1.1 1.5-1.1s1.5.5 1.5 1.1Z"></path><path d="M160.5 337.2h-6.7v-1.7h6.7v1.7z"></path></g><g id="_1896254718512" data-name="1896254718512" fill="#f1f1f1" stroke="#f1f1f1" stroke-miterlimit="22.9" stroke-width=".2"><path d="M515.2 375.6c.6 0 1.1.7 1.1 1.6s-.5 1.5-1.1 1.5c-.7 0-1.2-.7-1.2-1.5s.5-1.6 1.2-1.6Z"></path><path d="M516 377.3v6.7h-1.7v-6.7h1.7z"></path></g><g id="_1896254719328" data-name="1896254719328" fill="#f1f1f1" stroke="#f1f1f1" stroke-miterlimit="22.9" stroke-width=".2"><path d="M718.4 375.6c.7 0 1.2.7 1.2 1.6s-.5 1.5-1.2 1.5c-.6 0-1.1-.7-1.1-1.5s.5-1.6 1.1-1.6Z"></path><path d="M719.3 377.3v6.7h-1.7v-6.7h1.7z"></path></g><g id="_1896254717360" data-name="1896254717360" fill="none" stroke="#f1f1f1" stroke-miterlimit="22.9" stroke-width=".2"><path d="M528.4 345.7h16v-15.2h-16a7.5 7.5 0 0 0-7.5 7.5v.2c0 4.2 3.3 7.5 7.5 7.5Z"></path><path d="M528.2 346h10.5c1.2 0 2.2-1 2.2-2.1v-11.4c0-1.2-1-2.2-2.2-2.2h-10.5a7.7 7.7 0 0 0-7.7 7.7v.3c0 4.3 3.4 7.7 7.7 7.7Z"></path><path d="M528.4 345.5h10c1 0 1.8-.8 1.8-1.8v-11c0-1-.8-1.8-1.8-1.8h-10c-4 0-7.2 3.2-7.2 7.2v.2c0 4 3.2 7.2 7.2 7.2Z"></path></g><g id="_1896254722832" data-name="1896254722832" fill="none" stroke="#f1f1f1" stroke-miterlimit="22.9" stroke-width=".2"><path d="M729.6 345.7h16v-15.2h-16a7.5 7.5 0 0 0-7.5 7.5v.2c0 4.2 3.4 7.5 7.5 7.5Z"></path><path d="M729.4 346H740c1.2 0 2.2-1 2.2-2.1v-11.4c0-1.2-1-2.2-2.2-2.2h-10.5a7.7 7.7 0 0 0-7.7 7.7v.3c0 4.3 3.5 7.7 7.7 7.7Z"></path><path d="M729.6 345.5h10c1 0 1.8-.8 1.8-1.8v-11c0-1-.8-1.8-1.8-1.8h-10c-4 0-7.2 3.2-7.2 7.2v.2c0 4 3.2 7.2 7.2 7.2Z"></path></g><g id="_Площади" data-name="Площади"><g><path d="m619.6 417.9-3.4 4.5c1.2.3 2.2.9 3 1.7.7.9 1.1 2 1.1 3.2a5 5 0 0 1-1.7 4 6.2 6.2 0 0 1-4.2 1.4 6 6 0 0 1-5.6-3.5l2.3-1.4c.5 1.4 1.6 2.2 3.3 2.2 1 0 1.7-.3 2.3-.8.6-.5.8-1.1.8-2s-.2-1.4-.8-2a4 4 0 0 0-2.3-.6h-.6l-1.1-1.7 3.6-4.8h-7v-2.6h10.3v2.4Zm7.8 3.3h.3c1.7 0 3.2.5 4.3 1.6 1 1 1.6 2.4 1.6 4.1 0 1.7-.5 3-1.6 4.2a6 6 0 0 1-4.3 1.6 6 6 0 0 1-4.3-1.6 5.6 5.6 0 0 1-1.7-4.2c0-1.3.4-2.4 1-3.4l5.4-8h3.1l-3.8 5.7Zm.3 8.8c1 0 1.7-.2 2.3-.8a3 3 0 0 0 .9-2.3 3 3 0 0 0-1-2.3c-.5-.5-1.3-.8-2.2-.8-1 0-1.7.3-2.3.8a3 3 0 0 0-.9 2.3c0 1 .3 1.7.9 2.3.6.6 1.3.8 2.3.8Zm8.3-.5h2.8l-1.6 6.2H635l1-6.2Zm14.2-5.9c1.7 1 2.5 2.3 2.5 4 0 1.6-.5 2.8-1.6 3.7-1 .9-2.5 1.4-4.3 1.4-1.8 0-3.2-.5-4.3-1.4-1-.8-1.6-2-1.6-3.6 0-.9.2-1.7.7-2.4.4-.7 1-1.3 1.8-1.7a4 4 0 0 1-1.9-3.5c0-1.6.5-2.8 1.5-3.6 1-.8 2.3-1.3 3.8-1.3s2.8.5 3.8 1.3 1.6 2 1.6 3.6a4 4 0 0 1-2 3.5Zm-3.4 6.4c1 0 1.7-.2 2.3-.7.6-.4.9-1 .9-1.9 0-.8-.3-1.4-.9-1.9-.6-.5-1.3-.7-2.3-.7-1 0-1.7.2-2.3.7-.5.5-.8 1.1-.8 2 0 .7.3 1.4.8 1.8.6.5 1.4.7 2.3.7Zm0-12.2c-.7 0-1.4.2-1.8.7s-.7 1-.7 1.7.2 1.2.7 1.7c.5.4 1 .6 1.8.6s1.4-.2 1.9-.6.7-1 .7-1.7c0-.8-.2-1.3-.7-1.7-.5-.5-1.1-.7-1.9-.7Zm23.9 2.5h2.6v12h-2.5v-7.9l-3.5 5.5h-.3l-3.4-5.4v7.8H661v-12h2.6l3.5 5.6 3.5-5.6Z" fill="#f1f1f1" stroke-width="0"></path></g><path d="M686.6 432.3h-11v-2.1l5.8-6c1.4-1.4 2.1-2.7 2.1-3.7 0-.8-.2-1.4-.7-1.9a3 3 0 0 0-1.9-.7c-1.4 0-2.4.7-3 2.1l-2.4-1.4c.5-1 1.2-2 2.2-2.5s2-.9 3.2-.9c1.5 0 2.8.5 3.8 1.4 1 1 1.6 2.2 1.6 3.8 0 1.7-1 3.5-2.9 5.5l-3.8 3.8h7v2.6Zm-265.4-14.4-3.4 4.5c1.2.3 2.2.9 3 1.7.7.9 1 2 1 3.2a5 5 0 0 1-1.6 4 6.2 6.2 0 0 1-4.2 1.4 6 6 0 0 1-5.6-3.5l2.3-1.4c.5 1.4 1.6 2.2 3.3 2.2 1 0 1.7-.3 2.3-.8.5-.5.8-1.1.8-2s-.3-1.4-.8-2a4 4 0 0 0-2.3-.6h-.6l-1.1-1.7 3.6-4.8h-7v-2.6h10.3v2.4Zm42.1 2.4h2.6v12h-2.5v-7.9l-3.5 5.5h-.3l-3.4-5.4v7.8h-2.5v-12h2.6l3.5 5.6 3.5-5.6Z" fill="#f1f1f1" stroke-width="0"></path><g><path d="M423 418.2v-2.7h10.8v2.4l-6 14.4H425l5.8-14.1H423Zm10.1 11.3h2.9l-1.7 6.2h-2.1l1-6.2Zm4.5-12.4 4.4-1.6h2.4v16.8h-2.8v-13.8l-3.4 1-.6-2.4Z" fill="#f1f1f1" stroke-width="0"></path></g><path d="M479.2 432.3h-11v-2.1l5.8-6c1.4-1.4 2.1-2.7 2.1-3.7 0-.8-.2-1.4-.7-1.9-.5-.4-1-.7-1.9-.7-1.4 0-2.4.7-3 2.1l-2.4-1.4c.5-1 1.2-2 2.2-2.5s2-.9 3.2-.9c1.5 0 2.8.5 3.8 1.4 1 1 1.6 2.2 1.6 3.8 0 1.7-1 3.5-2.9 5.5l-3.8 3.8h7v2.6Z" fill="#f1f1f1" stroke-width="0"></path><g><path d="M158 421.2h.3c1.8 0 3.2.5 4.3 1.6 1.1 1 1.7 2.4 1.7 4.1 0 1.7-.6 3-1.7 4.2a6 6 0 0 1-4.3 1.6 6 6 0 0 1-4.2-1.6 5.6 5.6 0 0 1-1.7-4.2c0-1.3.3-2.4 1-3.4l5.3-8h3.2l-3.9 5.7Zm.3 8.8c1 0 1.7-.2 2.3-.8a3 3 0 0 0 1-2.3 3 3 0 0 0-1-2.3c-.6-.5-1.3-.8-2.3-.8-1 0-1.7.3-2.3.8a3 3 0 0 0-.8 2.3c0 1 .2 1.7.8 2.3.6.6 1.4.8 2.3.8Zm17.7-12.1-3.4 4.5c1.3.3 2.3.9 3 1.7.8.9 1.2 2 1.2 3.2a5 5 0 0 1-1.8 4 6.2 6.2 0 0 1-4.1 1.4c-1.3 0-2.5-.3-3.5-1s-1.7-1.4-2.2-2.5l2.4-1.4c.5 1.4 1.6 2.2 3.3 2.2 1 0 1.7-.3 2.3-.8.5-.5.8-1.1.8-2s-.3-1.4-.8-2c-.6-.4-1.4-.6-2.3-.6h-.7l-1-1.7 3.6-4.8h-7v-2.6H176v2.4Zm3.3 11.6h3l-1.8 6.2h-2.1l1-6.2Zm8.7-7.6h2a6 6 0 0 1 4.1 1.4c1.1 1 1.7 2.3 1.7 4s-.6 3-1.7 4a6.2 6.2 0 0 1-4.2 1.4c-1.4 0-2.5-.4-3.6-1s-1.7-1.5-2.1-2.6l2.4-1.4c.4 1.5 1.5 2.3 3.3 2.3 1 0 1.7-.3 2.3-.8.5-.5.8-1.1.8-2 0-.8-.3-1.4-.8-1.9-.6-.5-1.3-.7-2.3-.7h-4.8l.6-9h9.4v2.5h-6.9l-.2 3.8Z" fill="#f1f1f1" stroke-width="0"></path></g><path d="M213.7 420.3h2.6v12h-2.5v-7.9l-3.5 5.5h-.3l-3.4-5.4v7.8H204v-12h2.6l3.5 5.6 3.5-5.6Zm15.9 12h-11v-2.1l5.8-6c1.4-1.4 2.1-2.7 2.1-3.7 0-.8-.2-1.4-.7-1.9a3 3 0 0 0-1.9-.7c-1.4 0-2.4.7-3.1 2.1l-2.3-1.4c.5-1 1.2-2 2.2-2.5a6 6 0 0 1 7 .5c1 1 1.6 2.2 1.6 3.8 0 1.7-1 3.5-2.9 5.5l-3.8 3.8h7v2.6Z" fill="#f1f1f1" stroke-width="0"></path><g><path d="M1178.2 501.3H1167v-2.2l5.8-6c1.5-1.4 2.2-2.6 2.2-3.6 0-.8-.3-1.5-.7-2a3 3 0 0 0-2-.6c-1.3 0-2.4.7-3 2l-2.4-1.3c.6-1.1 1.3-2 2.3-2.5 1-.6 2-1 3.2-1 1.5 0 2.7.6 3.8 1.5a5 5 0 0 1 1.5 3.8c0 1.7-1 3.5-2.8 5.4l-3.8 3.8h7v2.7Zm.8-14.2v-2.6h10.6v2.4l-5.9 14.4h-3l5.9-14.2h-7.7Zm10 11.3h2.8l-1.6 6.3h-2.2l1-6.3Zm10.3-8.3h.3c1.8 0 3.2.6 4.3 1.6a5.7 5.7 0 0 1 1.7 4.2c0 1.7-.6 3-1.7 4.1a6 6 0 0 1-4.3 1.6 6 6 0 0 1-4.3-1.6 5.6 5.6 0 0 1-1.6-4.1c0-1.3.3-2.4 1-3.4l5.3-8h3.2l-3.9 5.6Zm.3 8.9a3 3 0 0 0 2.3-.9 3 3 0 0 0 .9-2.2 3 3 0 0 0-.9-2.3c-.6-.6-1.3-.8-2.3-.8-1 0-1.7.2-2.3.8a3 3 0 0 0-.9 2.3c0 1 .3 1.7 1 2.2.5.6 1.3.9 2.2.9Z" fill="#f1f1f1" stroke-width="0"></path></g><path d="M1223.3 489.3h2.6v12h-2.5v-7.9l-3.5 5.5h-.3l-3.4-5.5v7.9h-2.5v-12h2.6l3.5 5.5 3.5-5.5Zm15.9 12h-11v-2.2l5.8-6c1.4-1.4 2.1-2.6 2.1-3.6 0-.8-.2-1.5-.7-2-.5-.4-1.1-.6-1.9-.6-1.4 0-2.4.7-3 2l-2.4-1.3a5 5 0 0 1 2.2-2.5c1-.6 2-1 3.2-1 1.5 0 2.8.6 3.8 1.5 1 1 1.6 2.2 1.6 3.8 0 1.7-1 3.5-2.9 5.4l-3.8 3.8h7v2.7Z" fill="#f1f1f1" stroke-width="0"></path><g><path d="M1329.4 501.3h-11v-2.2l5.8-6c1.4-1.4 2.1-2.6 2.1-3.6 0-.8-.2-1.5-.7-2-.5-.4-1-.6-1.8-.6-1.5 0-2.5.7-3.2 2l-2.3-1.3c.5-1.1 1.3-2 2.2-2.5 1-.6 2-1 3.2-1 1.5 0 2.8.6 3.8 1.5 1 1 1.6 2.2 1.6 3.8 0 1.7-1 3.5-2.8 5.4l-3.8 3.8h7v2.7Zm6.8-11.2h.3c1.8 0 3.2.6 4.3 1.6a6 6 0 0 1 1.6 4.2c0 1.7-.5 3-1.6 4.1a6 6 0 0 1-4.3 1.6 6 6 0 0 1-4.3-1.6 5.6 5.6 0 0 1-1.7-4.1c0-1.3.4-2.4 1-3.4l5.4-8h3.1l-3.8 5.6Zm.3 8.9a3 3 0 0 0 2.3-.9 3 3 0 0 0 .9-2.2 3 3 0 0 0-1-2.3c-.5-.6-1.3-.8-2.2-.8-1 0-1.7.2-2.3.8a3 3 0 0 0-.9 2.3c0 1 .3 1.7.9 2.2a3 3 0 0 0 2.3.9Zm8.3-.6h2.9l-1.7 6.3h-2.2l1-6.3Zm4.5-11.3v-2.6h10.6v2.4l-5.9 14.4h-2.9l5.8-14.2h-7.6Z" fill="#f1f1f1" stroke-width="0"></path></g><path d="M1377.8 489.3h2.6v12h-2.5v-7.9l-3.5 5.5h-.3l-3.4-5.5v7.9h-2.5v-12h2.6l3.5 5.5 3.5-5.5Zm15.9 12h-11v-2.2l5.8-6c1.4-1.4 2.1-2.6 2.1-3.6 0-.8-.2-1.5-.7-2-.5-.4-1-.6-1.9-.6-1.4 0-2.4.7-3 2l-2.4-1.3a5 5 0 0 1 2.2-2.5c1-.6 2-1 3.2-1 1.5 0 2.8.6 3.8 1.5 1 1 1.6 2.2 1.6 3.8 0 1.7-1 3.5-2.9 5.4l-3.8 3.8h7v2.7Z" fill="#f1f1f1" stroke-width="0"></path><g><path d="M1474 501.3h-11v-2.2l5.8-6c1.5-1.4 2.2-2.6 2.2-3.6 0-.8-.3-1.5-.7-2a3 3 0 0 0-2-.6c-1.3 0-2.4.7-3 2l-2.4-1.3a6.1 6.1 0 0 1 5.5-3.5c1.5 0 2.7.6 3.8 1.5a5 5 0 0 1 1.5 3.8c0 1.7-1 3.5-2.8 5.4l-3.8 3.8h7v2.7Zm11-8.7c1.6.9 2.4 2.2 2.4 4 0 1.6-.5 2.8-1.6 3.7-1 .9-2.4 1.3-4.2 1.3-1.8 0-3.3-.4-4.3-1.3a4.4 4.4 0 0 1-1.6-3.7c0-.8.2-1.6.6-2.3.4-.7 1-1.3 1.8-1.7a4 4 0 0 1-1.9-3.6c0-1.5.5-2.7 1.6-3.5 1-.9 2.3-1.3 3.8-1.3 1.4 0 2.7.4 3.7 1.3s1.6 2 1.6 3.5a4 4 0 0 1-2 3.6Zm-3.4 6.4c.9 0 1.7-.2 2.2-.7.6-.5.9-1.1.9-2 0-.7-.3-1.4-.9-1.8-.5-.5-1.3-.7-2.2-.7-1 0-1.8.2-2.3.7-.6.4-.9 1-.9 1.9 0 .8.3 1.4.9 1.9.5.5 1.3.7 2.3.7Zm0-12.2c-.8 0-1.4.2-1.9.6-.5.4-.7 1-.7 1.7s.2 1.3.7 1.7a3 3 0 0 0 1.9.7c.7 0 1.3-.3 1.8-.7s.7-1 .7-1.7-.2-1.3-.7-1.7c-.5-.4-1-.6-1.8-.6Zm8.9 11.6h2.9l-1.7 6.3h-2.1l1-6.3Zm15.5-11.5-3.3 4.5a5 5 0 0 1 3 1.7c.7.8 1 1.9 1 3.1a5 5 0 0 1-1.6 4 6.2 6.2 0 0 1-4.2 1.4c-1.3 0-2.5-.3-3.5-.9s-1.7-1.5-2.2-2.6l2.4-1.3c.5 1.4 1.6 2.1 3.3 2.1 1 0 1.7-.2 2.3-.7.5-.5.8-1.2.8-2s-.3-1.5-.8-2c-.6-.4-1.4-.7-2.3-.7h-.6l-1.2-1.6 3.7-4.8h-7v-2.6h10.3v2.4Z" fill="#f1f1f1" stroke-width="0"></path></g><path d="M1524.7 489.3h2.6v12h-2.5v-7.9l-3.4 5.5h-.3l-3.5-5.5v7.9h-2.5v-12h2.6l3.5 5.5 3.5-5.5Zm15.9 12h-11v-2.2l5.8-6c1.5-1.4 2.2-2.6 2.2-3.6 0-.8-.3-1.5-.8-2-.4-.4-1-.6-1.8-.6-1.4 0-2.5.7-3.1 2l-2.4-1.3c.5-1.1 1.3-2 2.2-2.5 1-.6 2-1 3.2-1 1.5 0 2.8.6 3.8 1.5 1.1 1 1.6 2.2 1.6 3.8 0 1.7-1 3.5-2.8 5.4l-3.8 3.8h7v2.7Z" fill="#f1f1f1" stroke-width="0"></path><g><path d="M1695 490.1h.3c1.8 0 3.2.6 4.3 1.6a5.7 5.7 0 0 1 1.7 4.2c0 1.7-.6 3-1.7 4.1a6 6 0 0 1-4.3 1.6 6 6 0 0 1-4.3-1.6 5.6 5.6 0 0 1-1.6-4.1c0-1.3.3-2.4 1-3.4l5.3-8h3.2l-3.9 5.6Zm.3 8.9a3 3 0 0 0 2.3-.9 3 3 0 0 0 1-2.2 3 3 0 0 0-1-2.3c-.6-.6-1.3-.8-2.3-.8-1 0-1.7.2-2.3.8a3 3 0 0 0-.9 2.3c0 1 .3 1.7 1 2.2.5.6 1.3.9 2.2.9Zm10.6-8.2h2a6 6 0 0 1 4.1 1.5c1.1 1 1.7 2.2 1.7 4s-.6 3-1.7 3.9a6.2 6.2 0 0 1-4.2 1.4c-1.3 0-2.5-.3-3.5-1s-1.8-1.4-2.2-2.6l2.4-1.4c.4 1.6 1.6 2.3 3.3 2.3 1 0 1.7-.2 2.3-.7.6-.5.8-1.2.8-2s-.2-1.5-.8-2c-.6-.4-1.3-.7-2.2-.7h-5l.7-9h9.4v2.6h-6.8l-.3 3.7Zm10.3 7.6h2.9l-1.7 6.3h-2.1l1-6.3Zm15.8.8a5.6 5.6 0 0 1-4.8 2.4c-2 0-3.7-.8-4.9-2.4-1.1-1.6-1.7-3.7-1.7-6.3s.6-4.8 1.7-6.3a5.7 5.7 0 0 1 4.9-2.4c2 0 3.7.8 4.8 2.4 1.2 1.5 1.8 3.6 1.8 6.3s-.6 4.8-1.8 6.3Zm-4.8-.3c1.2 0 2.2-.5 2.8-1.5.7-1 1-2.6 1-4.5s-.3-3.4-1-4.5c-.6-1-1.6-1.5-2.8-1.5-1.3 0-2.2.5-2.9 1.5s-1 2.6-1 4.5.4 3.4 1 4.5c.7 1 1.6 1.5 2.9 1.5Z" fill="#f1f1f1" stroke-width="0"></path></g><path d="M1751.8 489.3h2.7v12h-2.5v-7.9l-3.5 5.5h-.3l-3.4-5.5v7.9h-2.6v-12h2.7l3.5 5.5 3.4-5.5Zm16 12h-11v-2.2l5.8-6c1.4-1.4 2.1-2.6 2.1-3.6 0-.8-.2-1.5-.7-2-.5-.4-1.1-.6-1.9-.6-1.4 0-2.4.7-3.1 2l-2.3-1.3a5 5 0 0 1 2.2-2.5c1-.6 2-1 3.2-1 1.5 0 2.7.6 3.8 1.5 1 1 1.6 2.2 1.6 3.8 0 1.7-1 3.5-2.9 5.4l-3.8 3.8h7v2.7Z" fill="#f1f1f1" stroke-width="0"></path><g><g><path d="m1034.6 167.7-3.4 4.6a5 5 0 0 1 3 1.7c.7.8 1 1.9 1 3.1a5 5 0 0 1-1.6 4 6.2 6.2 0 0 1-4.2 1.4c-1.3 0-2.5-.3-3.5-.9s-1.7-1.5-2.2-2.6l2.4-1.3c.5 1.4 1.6 2.1 3.3 2.1 1 0 1.7-.2 2.3-.7.5-.5.8-1.2.8-2s-.3-1.5-.8-2c-.6-.4-1.4-.7-2.3-.7h-.6l-1.1-1.6 3.6-4.8h-7v-2.6h10.3v2.3Zm7.7 3.3h.4a6 6 0 0 1 4.2 1.6 5.7 5.7 0 0 1 1.7 4.2c0 1.6-.6 3-1.7 4.1a6 6 0 0 1-4.2 1.6 6 6 0 0 1-4.3-1.6 5.6 5.6 0 0 1-1.7-4.1c0-1.3.3-2.4 1-3.4l5.3-8h3.2l-3.9 5.6Zm.4 8.9a3 3 0 0 0 2.2-.9 3 3 0 0 0 1-2.2 3 3 0 0 0-1-2.3c-.6-.6-1.3-.8-2.2-.8-1 0-1.8.2-2.4.8a3 3 0 0 0-.8 2.3c0 1 .3 1.7.8 2.2.6.6 1.4.9 2.4.9Zm8.3-.6h2.8l-1.7 6.3h-2.1l1-6.3Zm34.6-9.1h2.7v12h-2.5v-7.9l-3.5 5.5h-.3l-3.4-5.5v7.9h-2.6v-12h2.7l3.5 5.5 3.4-5.5Z" fill="#f1f1f1" stroke-width="0"></path></g><path d="M1101.6 182.2h-11.1V180l5.9-6c1.4-1.4 2-2.6 2-3.6 0-.8-.2-1.5-.6-2-.5-.4-1.1-.6-1.9-.6-1.4 0-2.5.7-3.1 2l-2.3-1.3c.5-1.1 1.2-2 2.2-2.5s2-1 3.2-1c1.5 0 2.7.5 3.8 1.5a5 5 0 0 1 1.5 3.8c0 1.7-.9 3.5-2.8 5.4l-3.8 3.8h7v2.7Zm-34.4 0h-11V180l5.8-6c1.4-1.4 2.2-2.6 2.2-3.6 0-.8-.3-1.5-.8-2-.4-.4-1-.6-1.8-.6-1.4 0-2.5.7-3.2 2l-2.3-1.3c.5-1.1 1.3-2 2.2-2.5s2-1 3.2-1c1.5 0 2.8.5 3.8 1.5s1.6 2.2 1.6 3.8c0 1.7-1 3.5-2.8 5.4l-3.8 3.8h7v2.7Z" fill="#f1f1f1" stroke-width="0"></path></g><g><path d="M1719.3 184.3v-2.7h10.7v2.4l-5.9 14.4h-2.9l5.8-14.1h-7.7Zm15.3 3.7h2.1a6 6 0 0 1 4 1.4c1.2 1 1.7 2.2 1.7 4s-.5 3-1.7 3.9a6.2 6.2 0 0 1-4.1 1.4 6 6 0 0 1-5.8-3.6l2.4-1.3c.5 1.5 1.6 2.2 3.4 2.2.9 0 1.7-.2 2.2-.7.6-.5.9-1.1.9-2 0-.8-.3-1.4-.9-2-.5-.4-1.3-.7-2.2-.7h-4.9l.7-9h9.3v2.6h-6.8l-.3 3.7Zm10.4 7.5h2.8l-1.6 6.3h-2.2l1-6.3Z" fill="#f1f1f1" stroke-width="0"></path><g><path d="M1749.3 184.3v-2.7h10.7v2.4l-5.9 14.4h-3l5.9-14.1h-7.7Zm28.7 2.1h2.7v12h-2.5v-7.9l-3.5 5.5h-.3l-3.4-5.5v8h-2.5v-12h2.6l3.5 5.5 3.5-5.6Zm16 12h-11v-2.2l5.8-6c1.4-1.3 2.1-2.6 2.1-3.6 0-.8-.2-1.5-.7-2-.5-.4-1.1-.6-1.9-.6-1.4 0-2.4.7-3 2l-2.4-1.3a5 5 0 0 1 2.2-2.5c1-.6 2-.9 3.2-.9 1.5 0 2.8.5 3.8 1.4 1 1 1.6 2.2 1.6 3.8 0 1.7-1 3.5-2.9 5.5l-3.8 3.7h7v2.7Z" fill="#f1f1f1" stroke-width="0"></path></g></g></g></g></g></g></svg>