<svg xmlns="http://www.w3.org/2000/svg" viewBox="0 0 1558.8 503.8"><g id="SELECTION" fill="none" stroke-width="0"><path d="M1198 247.8v47.8l59.8 1.5 1.5 7.4h12.2l1.3 172.4-239.3 2.4V298.6h109.9v-52.3l54.6 1.5z"/><path d="m1273.5 291.3 262.7-1 .4 182.4h-264.9l1.8-181.4z"/><path d="M1536 74.8v216.3l-263.2.3v-4l-9.5-.8-1-217.7 273.7 5.9z"/><path d="m1264.5 69.4-3.7 176.9 1.5 39.4-3 .9-1.5 9-53.8.7-1.6-47-99.4-1.8V67.8l161.5 1.6z"/><path d="M942.9 69.2h157.9v175.3l-157.9 1.8V69.2z"/><path d="M782.2 69.2h160.7l-.6 159h-13.5v9.2l-20.9-.3-1.5 10.7-124.2-1.5V69.2z"/><path d="m779.3 246.3-210.9 3v-11.9l-28.2.6V20.2l240.3 3-1.2 223.1z"/><path d="M298.5 20.8h243l-1.3 224.1-49.6 2.9.2-4h-29.3v4h-163v-227z"/><path d="m24.1 20.8 274.4 2.4v221.7l-124.9 1.4-.3-4.4H19.8l4.3-221.1z"/><path d="M126.5 252.3h47.1l-.5-4.5h109.7l1.4 179.4-262.5-1.7V241.9h104l.8 10.4z"/><path d="M282.8 258.8h42.6l.7-11 98.7 1.5-1 10.5 20.5-1.1v164.9H284.2l-1.4-164.8z"/><path d="m447.3 259.6 52.2-.3.6-13 96.8 1.5 1 9.8 9.4.2 1.5 167.6h-163l1.5-165.8z"/></g></svg>