<svg version="1.1" xmlns="http://www.w3.org/2000/svg" xmlns:xlink="http://www.w3.org/1999/xlink" viewBox="0 0 2647 773.4"><g id="SELECTION_0" fill="none" stroke-width="0"><path d="m1380.9 355-7-41.9h-122V108.5h-14V.4h420.7V355h-277.7z"></path><path d="M450.2 391.5V79.8h215v293.1h-36.9v34.9l-46.8 24.4h-16l-2.6-40.7H450.2z"></path><path d="M0 457.1V79.8h460.2v311.7l-15.6 21.4-32.7 18.7H399v-40.1h-5.6l-.4-.1h-39v65.7H0z"></path><path d="M0 773.4V448.6h400V438l33.7-18.8h18.5v354.2H0z"></path><path d="M444.5 773.4V459.3h86.9l74.8-40.5h87.3v354.6h-249z"></path><path d="M685.2 773.4V478h4v-39.1h34.7l40.7-20.1h18.1v40.5h110.7v314.1H685.2z"></path><path d="M882.7 773.4V417.8h99.5v41.5h112.1v314.1H882.7z"></path><path d="M1082.2 773.4V459.3h39.2l35.3-41h64.7l6.3 41h22.7v21.2h106.1v292.9h-274.3z"></path><path d="M1639.7 690.1V380.9h83v-40.3h70.6l43 40.4h79v309.1h-275.6z"></path><path d="M1902.9 690.1V339.7h120l27 41.3h131.5v309.1h-278.5z"></path><path d="M2281.1 379v-76.3h-30.9v10.4h-6v40.1h-25.3l-36-29V0l464.1.4V379h-365.9z"></path><path d="M1914.3 313.1V.4h280.5v291.7h-86v62.1h-58.7l-53.4-41.1h-82.4z"></path><path d="M1646.1 313.1V.4h280.6v353.2h-110.3l-67.3-40.5h-103z"></path></g><g id="SELECTION_1" fill="none" stroke-width="0"><path d="M1264.9 108.5V29h381.2v261.4h-20.3v14.1h-30.9v-18.8h-76.5v18.8h-253.5v-196z"></path><path d="M463.2 108.5h189v255.9H618v18.5H463.2V108.5z"></path><path d="M28.7 422V108.5h421.5v274.4H345.6v65.7H97.1v-2.2H28.7V422z"></path><path d="M444.2 743.5H28.7V459.4h68.4v-2.3h88V479h79.1v-10h54v-11.9H390v10.7h54.2v275.7z"></path><path d="M684.9 675.1h-2.2v68.4h-230V480.1H465v-12.3h205.8V482h14.1v193.1z"></path><path d="M881.2 743.5H695.7v-68.4h-2.2V467.8h79.2v8.1h56.4v-8.1h34.3V482h17.8v261.5z"></path><path d="M1081.8 743.5H894.2V467.8h78v7.7h1.5v.6h70.6v-8.3h19.4v14.3h17.8V575h.3v168.5z"></path><path d="M1347.9 651.1v92.4h-253.1V482.1h17.9v-14.3h129.2V489h106v162.1z"></path><path d="M1902.6 661.5h-249.9v-253h80v-19h28.7v.1h48.2v9h43.8v-9h33.2V404h16v257.5z"></path><path d="M2168.4 661.5h-252.8V404h16.9v-14.4h228.7v12.1h7.2v259.8z"></path><path d="M2618.3 88.9v279.3H2550v2.3h-89v-17.7h-28.3v17.7h-143.2v-76.4h-44.7v10.4H2196v-21h-.6V29h422.9v59.9z"></path><path d="M1926.7 29h255.6v242.5h-8.3v12h-73.8v21h-157.4v-14h-16.1V29z"></path><path d="M1659.1 29h254.6v261.5h-16.1v14h-123.9v-11.4h-61v11.4h-42.6v-11.9h-11V29z"></path></g><g><g id="MAIN_LAYER"><g id="Layer_1-2" data-name="Layer 1-2"><g id="_Площади" data-name="Площади"><g id="_2094183172704" data-name="2094183172704"><path fill="#f1f1f1" stroke-width="0" d="M2618.3 122.7h28.7V88.9h-28.7v33.8zm28.7 85.9h-28.7v46.9h28.7v-46.9zm-28.7 393h28.7v-88.5h-28.7v88.5zM0 221.6h28.7v-52H0v52zm0 130.2h28.7v-54.7H0v54.7zm0 327.9h28.7V599H0v80.7zm1584-59.8h5.2V518.3h-5.2v101.6z"></path><path fill="#f1f1f1" stroke-width="0" d="M1530.3 521.1h122.4v-2.6h-122.4v2.6zm-2.6 138.3h117.2v-2.6h-117.2v2.6z"></path><path fill="#f1f1f1" stroke-width="0" d="m1618 658.9 24.3-12.2-.9-2.3-24.3 12.3.9 2.2z"></path><path fill="#f1f1f1" stroke-width="0" d="m1617.1 658.9 1-2.2-26.8-12.3-1 2.3 26.8 12.2z"></path><path fill="#f1f1f1" stroke-width="0" d="M1616.3 658.9h2.6v-164h-2.6v164z"></path><path fill="#f1f1f1" stroke-width="0" d="M1559 495h59.9v-2.7H1559v2.7zm-28.2 39.9h112.4v-2.6h-112.4v2.6zm1.6 12.3h110.8v-2.6h-110.8v2.6zm-2.4 11.5h113.2v-2.6H1530v2.6zm2.6 11.9h110.6V568h-110.6v2.6zm0 12.3h110.6v-2.6h-110.6v2.6zm-1.2 13.9h111.8v-2.6h-111.8v2.6zm1.3 13.8h110.5V608h-110.5v2.6zm-4.9 11.9h114.9v-2.6h-114.9v2.6zm0 13h114.9v-2.6h-114.9v2.6zm5.5 11.7h114.2v-2.6h-114.2v2.6z"></path><path fill="#f1f1f1" stroke-width="0" d="M1556.7 658.9h2.6V492.3h-2.6v166.6z"></path><path fill="#f1f1f1" stroke-width="0" d="m1584.4 600.3 1.2-2.3-57.3-28.7-1.2 2.4 57.3 28.6zm3.5-5.4 1.2-2.3-59.5-29.8-1.2 2.4 59.5 29.7z"></path><path fill="#f1f1f1" stroke-width="0" d="m1534.8 596.4 24.2-13.6-1.2-2-24.2 13.6 1.2 2z"></path><path fill="none" stroke="#f1f1f1" stroke-miterlimit="22.9" stroke-width="2.6" d="m1451 480.6 57.3 67.7m2.6 0H1451v-67.7h59.9v67.7zm0-67.7-59.9 67.7m0 26 57.3 67.7m2.6 0H1451v-67.7h59.9V642zm0-67.7L1451 642m0-242.1 91.1 57.3m0 0H1451v-57.3h91.1v57.3zm0-57.3-91.1 57.3"></path><path fill="#f1f1f1" stroke-width="0" d="M2618.3 122.7h28.7V88.9h-28.7v33.8zm0 132.8h28.7v-46.9h-28.7v46.9zm0 132.7h28.7v-46.8h-28.7v46.8zm0 213.4h28.7v-88.5h-28.7v88.5zm-122 59.9h-94.2v28.6h94.2v-28.6zm-856.6 109.2h25.8V661.5h-25.8v109.2zm-210.8-296.6h223.2v-10.4h-223.2v10.4z"></path><path fill="#f1f1f1" stroke-width="0" d="M1428.9 492.3h10.4v-52.2h-10.4v52.2zm-1 169.2h102.5v-10.4h-102.5v10.4zm1-76.8h10.4v-52.9h-10.4v52.9zM147.5 772.2h82.8v-28.7h-82.8v28.7zM0 225.4h28.7v-53.3H0v53.3zm28.7 71.7H0v54.7h28.7v-54.7zm0 124.9H0v70.3h28.7V422zm0 177H0v80.7h28.7V599zm1195-490.5h41.2V79.8h-41.2v28.7z"></path><path fill="#f1f1f1" stroke-width="0" d="M1237.9 107.1h27V51.2h-27v55.9zM878.6 384.3h13V80.2h-13v304.1zm761.1 305.8h13V381h-13v309.1zM148.4 108.5h72.9V79.8h-72.9v28.7zm1280.5 553h10.4v-34.7h-10.4v34.7zm93.7 0h10.4V466.3h-10.4v195.2z"></path><path fill="#f1f1f1" stroke-width="0" d="M1251.9 106.9h13V88.8h-13v18.1zm184.8 459.6h88.5v-10.4h-88.5v10.4zm111.9-97.6h10.4V381h-10.4v87.9zm-119.7-69h10.4V381h-10.4v18.9z"></path><g><path fill="none" stroke="#f1f1f1" stroke-miterlimit="22.9" stroke-width=".6" d="M2313.6 239.7V343m16.6-45.8h-40.7m40.7-50.8h-40.7"></path></g><path fill="#f1f1f1" stroke-width="0" d="M97.1 459.4v-13H0v13h97.1zm85.8-2.3h8.5v-86.2h-8.5v86.2zm162.7 0h8.6v-74.2h-8.6v74.2zm44.4 10.7h8.6v-19.2H390v19.2zm180.9 0v-8.5H448.7v8.5h122.2z"></path><path fill="#f1f1f1" stroke-width="0" d="M345.6 391.5v-8.6h55.2v8.6h-55.2zm272.4 0h10.3v-27.1H618v27.1zm101.6 0h8.5v-27.1h-8.5v27.1z"></path><path fill="#f1f1f1" stroke-width="0" d="M728.1 372.9v-8.5H618.7v8.5h109.4zm196.5 94.9v-8.5h-104v8.5h104zm220.8 0v-8.5h-109.5v8.5h109.5z"></path><path fill="#f1f1f1" stroke-width="0" d="M1168.3 467.8v-8.5h-26v8.5h26zm82.1 0v-8.5h-34.2v8.5h34.2z"></path><path fill="#f1f1f1" stroke-width="0" d="M1241.9 489h8.5v-36.3h-8.5V489zm0-84.1h8.5v-22h-8.5v22z"></path><path fill="#f1f1f1" stroke-width="0" d="M1356.5 489v-8.5h-114.6v8.5h114.6z"></path><path fill="#f1f1f1" stroke-width="0" d="M1347.9 772.2h8.6V452.7h-8.6v319.5z"></path><path fill="#f1f1f1" stroke-width="0" d="M1356.5 467.7v-8.6h-30.1v8.6h30.1zM283.1 457.1h4.3V350.6h-4.3v106.5zm192.4-65.6h4.3v-22.8h-4.3v22.8zm-31.3 380.7h8.5V459.3h-8.5v312.9z"></path><path fill="#f1f1f1" stroke-width="0" d="M354.2 425.1v-4.2h-71.1v4.2h71.1zM185.1 551.8h4.2V451.4h-4.2v100.4zm74.8-72.8h4.3v-30.4h-4.3V479z"></path><path fill="#f1f1f1" stroke-width="0" d="M187.5 479h76.7v-5.2h-76.7v5.2zm72.4-10h58.3v-5.2h-58.3v5.2z"></path><path fill="#f1f1f1" stroke-width="0" d="M314 551.8h4.2V448.6H314v103.2zM238.5 479h4.2v-30.4h-4.2V479zm446.4 293.2h8.6V459.3h-8.6v312.9z"></path><path fill="#f1f1f1" stroke-width="0" d="M682.7 772.2h13v-97.1h-13v97.1zm146.4-296.3v-4.3h-54.3v4.3h54.3z"></path><path fill="#f1f1f1" stroke-width="0" d="M772.7 475.9h8.6v-16.6h-8.6v16.6zm35.4 0h21v-16.6h-21v16.6zm235.5.2v-4.3h-69.9v4.3h69.9z"></path><path fill="#f1f1f1" stroke-width="0" d="M972.2 475.5H993v-16.2h-20.8v16.2zm48 .6h24.1v-16.8h-24.1v16.8zm-139 296.1h13V459.3h-13v312.9zm200.6 0h13V459.6h-13v312.6z"></path><path fill="#f1f1f1" stroke-width="0" d="M970.8 504.4h4.3v-44.9h-4.3v44.9zm194.3 70.6v-4.3h-83.3v4.3h83.3z"></path><path fill="#f1f1f1" stroke-width="0" d="M1081.5 575h4.3v-96.3h-4.3V575z"></path><path fill="#f1f1f1" stroke-width="0" d="M1111 482.1v-4.2h-45.2v4.2h45.2z"></path><path fill="#f1f1f1" stroke-width="0" d="M1063.7 482.1h4.2v-22.5h-4.2v22.5zm44.7 0h4.3v-22.5h-4.3v22.5zm-24.3 0h9.2v-22.5h-9.2v22.5zm272.4-18.7v-4.3h-45.2v4.3h45.2z"></path><path fill="#f1f1f1" stroke-width="0" d="M1326.4 489h4.3v-29.9h-4.3V489z"></path><g fill="#f1f1f1"><path stroke-width="0" d="M230.3 762h76.9v-18.5h-76.9V762z"></path><path stroke="#f1f1f1" stroke-miterlimit="22.9" stroke-width=".6" d="M307.2 749.5h-76.9v7.7h76.9v-7.7z"></path><path stroke="#f1f1f1" stroke-miterlimit="22.9" stroke-width=".6" d="M307.2 752.1h-76.9v2.5h76.9v-2.5z"></path></g><path fill="#f1f1f1" stroke-width="0" d="M307.2 772.2h50.5v-28.7h-50.5v28.7z"></path><g fill="#f1f1f1"><path stroke-width="0" d="M357.7 762h76.4v-18.5h-76.4V762z"></path><path stroke="#f1f1f1" stroke-miterlimit="22.9" stroke-width=".6" d="M434.1 749.5h-76.4v7.7h76.4v-7.7z"></path><path stroke="#f1f1f1" stroke-miterlimit="22.9" stroke-width=".6" d="M434.1 752.1h-76.4v2.5h76.4v-2.5z"></path></g><path fill="#f1f1f1" stroke-width="0" d="M434.1 772.2h42v-28.7h-42v28.7z"></path><g fill="#f1f1f1"><path stroke-width="0" d="M476.1 762h76.4v-18.5h-76.4V762z"></path><path stroke="#f1f1f1" stroke-miterlimit="22.9" stroke-width=".6" d="M552.5 749.5h-76.4v7.7h76.4v-7.7z"></path><path stroke="#f1f1f1" stroke-miterlimit="22.9" stroke-width=".6" d="M552.5 752.1h-76.4v2.5h76.4v-2.5z"></path></g><path fill="#f1f1f1" stroke-width="0" d="M552.5 772.2h33.2v-28.7h-33.2v28.7z"></path><g fill="#f1f1f1"><path stroke-width="0" d="M585.7 762h76.4v-18.5h-76.4V762z"></path><path stroke="#f1f1f1" stroke-miterlimit="22.9" stroke-width=".6" d="M662.1 749.5h-76.4v7.7h76.4v-7.7z"></path><path stroke="#f1f1f1" stroke-miterlimit="22.9" stroke-width=".6" d="M662.1 752.1h-76.4v2.5h76.4v-2.5z"></path></g><path fill="#f1f1f1" stroke-width="0" d="M662.1 772.2h42v-28.7h-42v28.7z"></path><g fill="#f1f1f1"><path stroke-width="0" d="M704.1 762h49.5v-18.5h-49.5V762z"></path><path stroke="#f1f1f1" stroke-miterlimit="22.9" stroke-width=".6" d="M753.6 749.5h-49.5v7.7h49.5v-7.7z"></path><path stroke="#f1f1f1" stroke-miterlimit="22.9" stroke-width=".6" d="M753.6 752.1h-49.5v2.5h49.5v-2.5z"></path></g><path fill="#f1f1f1" stroke-width="0" d="M753.6 772.2H788v-28.7h-34.4v28.7z"></path><g fill="#f1f1f1"><path stroke-width="0" d="M788 762h75.8v-18.5H788V762z"></path><path stroke="#f1f1f1" stroke-miterlimit="22.9" stroke-width=".6" d="M863.8 749.5H788v7.7h75.8v-7.7z"></path><path stroke="#f1f1f1" stroke-miterlimit="22.9" stroke-width=".6" d="M863.8 752.1H788v2.5h75.8v-2.5z"></path></g><path fill="#f1f1f1" stroke-width="0" d="M863.8 772.2h50.8v-28.7h-50.8v28.7z"></path><g fill="#f1f1f1"><path stroke-width="0" d="M914.6 762h48.3v-18.5h-48.3V762z"></path><path stroke="#f1f1f1" stroke-miterlimit="22.9" stroke-width=".6" d="M962.9 749.5h-48.3v7.7h48.3v-7.7z"></path><path stroke="#f1f1f1" stroke-miterlimit="22.9" stroke-width=".6" d="M962.9 752.1h-48.3v2.5h48.3v-2.5z"></path></g><path fill="#f1f1f1" stroke-width="0" d="M962.9 772.2h33.9v-28.7h-33.9v28.7z"></path><g fill="#f1f1f1"><path stroke-width="0" d="M996.8 762h75.6v-18.5h-75.6V762z"></path><path stroke="#f1f1f1" stroke-miterlimit="22.9" stroke-width=".6" d="M1072.4 749.5h-75.6v7.7h75.6v-7.7z"></path><path stroke="#f1f1f1" stroke-miterlimit="22.9" stroke-width=".6" d="M1072.4 752.1h-75.6v2.5h75.6v-2.5z"></path></g><path fill="#f1f1f1" stroke-width="0" d="M1072.4 772.2h42.5v-28.7h-42.5v28.7z"></path><g fill="#f1f1f1"><path stroke-width="0" d="M1114.9 762h76.5v-18.5h-76.5V762z"></path><path stroke="#f1f1f1" stroke-miterlimit="22.9" stroke-width=".6" d="M1191.4 749.5h-76.5v7.7h76.5v-7.7z"></path><path stroke="#f1f1f1" stroke-miterlimit="22.9" stroke-width=".6" d="M1191.4 752.1h-76.5v2.5h76.5v-2.5z"></path></g><path fill="#f1f1f1" stroke-width="0" d="M1191.4 772.2h50.2v-28.7h-50.2v28.7z"></path><g fill="#f1f1f1"><path stroke-width="0" d="M1241.6 762h76.3v-18.5h-76.3V762z"></path><path stroke="#f1f1f1" stroke-miterlimit="22.9" stroke-width=".6" d="M1317.9 749.5h-76.3v7.7h76.3v-7.7z"></path><path stroke="#f1f1f1" stroke-miterlimit="22.9" stroke-width=".6" d="M1317.9 752.1h-76.3v2.5h76.3v-2.5z"></path></g><path fill="#f1f1f1" stroke-width="0" d="M1317.9 772.2h38.6v-28.7h-38.6v28.7zM291 108.5h50.8V79.8H291v28.7zm144.5 0h42.9V79.8h-42.9v28.7zm120.5 0h34.4V79.8H556v28.7zm82.5 0H673V79.8h-34.5v28.7zm113.8 0h34.5V79.8h-34.5v28.7zm110.1 0h42.8V79.8h-42.8v28.7zm87.7 0h42.8V79.8h-42.8v28.7zm86 0h33.8V79.8h-33.8v28.7zm110 0h33.8V79.8h-33.8v28.7zM1355 29h52.9V.4H1355V29zm128.5 0h59.2V.4h-59.2V29zm134.7 0h67.8V.4h-67.8V29zm139.6 0h51.5V.4h-51.5V29zm127 0h67.6V.4h-67.6V29zm139.1 0h67.6V.4h-67.6V29zm144.4 0h58.8V.4h-58.8V29zm135.7 0h49.3V.4H2304V29zm125.3 0h68.1V.4h-68.1V29zm-101.6 632.5h-50v28.6h50v-28.6zm-130.6 0h-42.4v28.6h42.4v-28.6zm-118.7 0H2011v28.6h67.4v-28.6zm-143 0H1868v28.6h67.4v-28.6zm-144.2 0h-50.1v28.6h50.1v-28.6zm-801.5-270v-10.6H780.1v10.6h209.6zm-3.1-19v-8.6H859.4v8.6h127.2z"></path><path fill="#f1f1f1" stroke-width="0" d="M859.4 391.5h8.6v-27.6h-8.6v27.6zm119.4 0h8.5v-27.6h-8.5v27.6zm78.1-1.9h13V80.2h-13v309.4zm195 0h13V80.2h-13v309.4z"></path><g fill="#f1f1f1" stroke-width="0"><path d="m1429.1 689.5 12.2 24.3 2.3-.9-12.3-24.3-2.2.9z"></path><path d="m1429.1 688.6 2.2 1 12.3-26.8-2.3-1-12.2 26.8z"></path><path d="M1429.1 687.8v2.6h99.8v-2.6h-99.8z"></path></g><path fill="#f1f1f1" stroke-width="0" d="M1518.5 727.8V652h-2.6v75.8h2.6zm-127.9 28.4h8.6v-42.7h-8.6v42.7z"></path><path fill="#f1f1f1" stroke-width="0" d="M1399.2 756.2v-8.6h-81.3v8.6h81.3zm0-34.1v-8.6h-51.3v8.6h51.3z"></path><path fill="#f1f1f1" stroke-width="0" d="M1390.6 727.8v-14.3h140.3v14.3h-140.3zm178 0v-14.3h96.9v14.3h-96.9z"></path><path fill="#f1f1f1" stroke-width="0" d="M1530.2 727.8V652h-2.6v75.8h2.6zm-24.5 0V652h-2.6v75.8h2.6zm-12.6 0V652h-2.6v75.8h2.6zm-13 0V652h-2.6v75.8h2.6zm-13.1 0V652h-2.6v75.8h2.6zm-11.6 0V652h-2.6v75.8h2.6zm-11.6 0V652h-2.6v75.8h2.6zm-12.1 0V652h-2.6v75.8h2.6zm233.8 45.6v-8.5h-347.8v8.5h347.8zm-562.7-382V381h-67v10.4h67zm-450.6-18.5h13V80.2h-13v292.7zm44.6 0h4.3v-20.7h-4.3v20.7zm-11.4 0h4.3v-20.7h-4.3v20.7z"></path><path fill="#f1f1f1" stroke-width="0" d="M701.1 356.5v-4.3h-15.7v4.3h15.7zm531.7 34.9h4.2v-23.2h-4.2v23.2z"></path><path fill="#f1f1f1" stroke-width="0" d="M1264.9 372.5v-4.3h-32.1v4.3h32.1zm124-59.4v-8.6h-137v8.6h137zm332.4 0v-8.6h-135v8.6h135zm69.8 0v-8.6h-25.9v8.6h25.9zm239.6 0v-8.6H1839v8.6h191.7zm78.1 0v-8.6H2078v8.6h30.8zm-513.9-18.8v-8.6h-76.5v8.6h76.5z"></path><path fill="#f1f1f1" stroke-width="0" d="M1586.3 313.1h8.6v-27.4h-8.6v27.4zm-67.9 0h8.6v-27.4h-8.6v27.4zM1839 195.7v-4.3h159.8v4.3H1839zm-189.2 117.4h8.5V198h-8.5v115.1z"></path><path fill="#f1f1f1" stroke-width="0" d="M1650.6 296.9v-4.3h19.5v4.3h-19.5z"></path><path fill="#f1f1f1" stroke-width="0" d="M1625.8 294.7v-4.3h32.5v4.3h-32.5z"></path><path fill="#f1f1f1" stroke-width="0" d="M1625.8 290.4h4.3v22.7h-4.3v-22.7zm40 2.2h4.3v20.5h-4.3v-20.5zm107.9 9v-8.5h-60.9v8.5h60.9z"></path><path fill="#f1f1f1" stroke-width="0" d="M1765.2 313.1h8.5v-20h-8.5v20zm-52.5 0h8.6v-20h-8.6v20zm-66.6 0h13V.4h-13v312.7zm536.2 0h13.1V.4h-13.1v312.7z"></path><path fill="#f1f1f1" stroke-width="0" d="M2195.4 292.1v-8.6h-95.2v8.6h95.2z"></path><path fill="#f1f1f1" stroke-width="0" d="M2100.2 313.1h8.6v-29.6h-8.6v29.6zm144.6-19h5.5v95.5h-5.5v-95.5z"></path><path fill="#f1f1f1" stroke-width="0" d="M2289.5 302.7v-8.6h-44.7v8.6h44.7zM2647 379v-8.5h-402.2v8.5H2647z"></path><path fill="#f1f1f1" stroke-width="0" d="M2284 234.2h5.5v68.3h-5.5v-68.3zm69.2.3h5.4V379h-5.4V234.5z"></path><path fill="#f1f1f1" stroke-width="0" d="M2280.9 379h8.6v-84.9h-8.6V379zm-26.5 10.6V381h-26.3v8.6h26.3z"></path><path fill="#f1f1f1" stroke-width="0" d="M2245.9 389.6h8.5v-19.1h-8.5v19.1zm206.6 9.8h8.5v-46.6h-8.5v46.6zM2284 239.7v-5.5h8.8v5.5h-8.8zm42.4 0v-5.5h33.5v5.5h-33.5zm-593.7 168.8v-8.6h-93v8.6h93zm28.9-19v-8.6h-50.3v8.6h50.3z"></path><path fill="#f1f1f1" stroke-width="0" d="M1724.2 408.5h8.5V381h-8.5v27.5zm270.8-18.9V381h-146.8v8.6H1995zm-185.4 9h6.8V381h-6.8v17.6z"></path><path fill="#f1f1f1" stroke-width="0" d="M1848.2 398.6h5.2V381h-5.2v17.6z"></path><path fill="#f1f1f1" stroke-width="0" d="M1852.5 398.6V393h-42.6v5.6h42.6zm315.9 291.5h13V381h-13v309.1zM2647 381.2v-13h-97v13h97zm-244.9-10.7h5.5v28.9h-5.5v-28.9z"></path><path fill="#f1f1f1" stroke-width="0" d="M2402.1 399.4v-5.5h58.9v5.5h-58.9zm63-28.9h5.5v21.1h-5.5v-21.1z"></path><path fill="#f1f1f1" stroke-width="0" d="M2452.5 391.6v-5.5h18.1v5.5h-18.1zm-554.9-101.1h4.3v22.6h-4.3v-22.6zm40.9 0h4.3v22.6h-4.3v-22.6zm-51.9 90.5h4.2v23h-4.2v-23zm41.6 0h4.3v23h-4.3v-23z"></path><path fill="#f1f1f1" stroke-width="0" d="M1886.6 404v-4.2h45.9v4.2h-45.9zm-60.4-11h4.3v42.7h-4.3V393zm0 70h4.3v38.8h-4.3V463z"></path><path fill="#f1f1f1" stroke-width="0" d="M1826.2 501.8v-4.3h165.4v4.3h-165.4z"></path><path fill="#f1f1f1" stroke-width="0" d="M1902.6 690.1h13V381h-13v309.1zM394.3 467.8h4.3v-84.9h-4.3v84.9z"></path><g stroke="#f1f1f1" stroke-miterlimit="22.9" stroke-width=".3"><path d="M201 403.2c0-1.3-1-2.3-2.2-2.3-1.3 0-2.3 1-2.3 2.3 0 1.3 1 2.3 2.3 2.3 1.2 0 2.3-1 2.3-2.3Z" fill="#f1f1f1"></path><path fill="#f1f1f1" d="M198.6 401.5h-9.9v3.4h9.9v-3.4z"></path><path fill="#f1f1f1" d="M196.5 402.3h-5.6v1.8h5.6v-1.8z"></path><path fill="none" d="M190.9 401.4v3.6"></path></g><path fill="#f1f1f1" stroke-width="0" d="M450.2 391.5h13V79.8h-13v311.7z"></path><g fill="none" stroke="#f1f1f1" stroke-miterlimit="22.9" stroke-width=".3"><path d="M210.2 523.4h-20.9v20h21c5.4 0 9.7-4.4 9.7-9.9v-.3c0-5.4-4.3-9.8-9.8-9.8Z"></path><path d="M210.5 523h-13.8a2.8 2.8 0 0 0-2.8 3v14.8c0 1.5 1.3 2.8 2.8 2.8h13.8a10 10 0 0 0 10-10.1v-.3a10 10 0 0 0-10-10.1Z"></path><path d="M210.2 523.8h-13c-1.3 0-2.3 1-2.3 2.3v14.4c0 1.3 1 2.4 2.3 2.4h13c5.2 0 9.4-4.2 9.4-9.4v-.3c0-5.2-4.2-9.4-9.4-9.4Z"></path></g><g stroke="#f1f1f1" stroke-miterlimit="22.9" stroke-width=".3"><path d="M305 520.4c0-1 .7-1.7 1.6-1.7 1 0 1.7.8 1.7 1.7 0 1-.7 1.7-1.7 1.7-.9 0-1.6-.7-1.6-1.7Z" fill="#f1f1f1"></path><path fill="#f1f1f1" d="M306.8 519.2h7.2v2.5h-7.2v-2.5z"></path><path fill="#f1f1f1" d="M308.3 519.8h4.1v1.3h-4.1v-1.3z"></path><path fill="none" d="M312.4 519.1v2.6"></path></g><path fill="#f1f1f1" stroke-width="0" d="M460.8 480.1h4.2v-20.8h-4.2v20.8z"></path><path fill="#f1f1f1" stroke-width="0" d="M465 480.1v-4.2h-12.8v4.2H465zm205.8 1.9h4.3v-22.7h-4.3V482z"></path><path fill="#f1f1f1" stroke-width="0" d="M693.5 482v-4.3h-22.7v4.3h22.7zm169.9 0h4.2v-22.7h-4.2V482z"></path><path fill="#f1f1f1" stroke-width="0" d="M888 482v-4.3h-22.7v4.3H888z"></path><g fill="none" stroke="#f1f1f1" stroke-miterlimit="22.9" stroke-width=".3"><path d="M1024.4 497v-20.9h-19.9v21c0 5.3 4.4 9.7 9.8 9.7h.3c5.4 0 9.8-4.4 9.8-9.8Z"></path><path d="M1024.8 497.2v-13.7c0-1.6-1.3-2.8-2.8-2.8h-15a2.8 2.8 0 0 0-2.8 2.8v13.7a10 10 0 0 0 10.1 10.1h.3a10 10 0 0 0 10.1-10Z"></path><path d="M1024 497v-13c0-1.3-1-2.4-2.3-2.4h-14.3c-1.3 0-2.4 1-2.4 2.4v13c0 5.2 4.2 9.4 9.4 9.4h.3c5.2 0 9.4-4.2 9.4-9.4Z"></path></g><g stroke="#f1f1f1" stroke-miterlimit="22.9" stroke-width=".3"><path d="M1074 526.1c0-1 .8-1.7 1.7-1.7 1 0 1.7.7 1.7 1.7s-.8 1.7-1.7 1.7c-.9 0-1.6-.7-1.6-1.7Z" fill="#f1f1f1"></path><path fill="#f1f1f1" d="M1075.8 524.8h7.2v2.6h-7.2v-2.6z"></path><path fill="#f1f1f1" d="M1077.4 525.4h4.1v1.4h-4.1v-1.4z"></path><path fill="none" d="M1081.5 524.8v2.6"></path></g><g fill="none" stroke="#f1f1f1" stroke-miterlimit="22.9" stroke-width=".3"><path d="M1865 283.6v21h-20v-21c0-5.4 4.5-9.8 9.9-9.8h.3c5.4 0 9.8 4.4 9.8 9.8Z"></path><path d="M1865.4 283.4V297c0 1.6-1.3 2.8-2.9 2.8h-14.8a2.8 2.8 0 0 1-2.8-2.8v-13.7a10 10 0 0 1 10-10.1h.4a10 10 0 0 1 10 10Z"></path><path d="M1864.6 283.6v13c0 1.3-1 2.4-2.3 2.4H1848c-1.3 0-2.3-1-2.3-2.3v-13.1c0-5.2 4.2-9.4 9.4-9.4h.3c5.1 0 9.3 4.2 9.3 9.4Z"></path></g><g fill="none" stroke="#f1f1f1" stroke-miterlimit="22.9" stroke-width=".3"><path d="M2321 321.8v21h-20v-21c0-5.4 4.4-9.8 9.8-9.8h.3c5.4 0 9.8 4.4 9.8 9.8Z"></path><path d="M2321.3 321.6v13.7c0 1.6-1.3 2.9-2.9 2.9h-14.8a2.8 2.8 0 0 1-2.8-2.9v-13.7a10 10 0 0 1 10-10.1h.4a10 10 0 0 1 10 10.1Z"></path><path d="M2320.6 321.8v13c0 1.4-1.1 2.4-2.4 2.4h-14.4c-1.3 0-2.3-1-2.3-2.3v-13c0-5.3 4.2-9.5 9.4-9.5h.3c5.2 0 9.4 4.2 9.4 9.4Z"></path></g><g stroke="#f1f1f1" stroke-miterlimit="22.9" stroke-width=".3"><path d="M2343.5 265.8c0 1 .9 2 2 2 1 0 2-1 2-2s-1-2-2-2a2 2 0 0 0-2 2Z" fill="#f1f1f1"></path><path fill="#f1f1f1" d="M2345.6 267.2h8.6v-2.9h-8.6v2.9z"></path><path fill="#f1f1f1" d="M2347.4 266.5h4.9V265h-4.9v1.5z"></path><path fill="none" d="M2352.3 267.3v-3.1"></path></g><path fill="#f1f1f1" stroke-width="0" d="M2282.2 348.5V343h76.4v5.5h-76.4zm150.5 8.6v-4.3h28.3v4.3h-28.3z"></path><path fill="#f1f1f1" stroke-width="0" d="M2432.7 352.8h4.2V379h-4.2v-26.2zM2174 271.5h4.2v20.6h-4.2v-20.6z"></path><path fill="#f1f1f1" stroke-width="0" d="M2174 275.8v-4.3h21.4v4.3H2174zm-12.8 125.9v-4.3h20.2v4.3h-20.2z"></path><path fill="#f1f1f1" stroke-width="0" d="M2161.2 381h4.2v20.7h-4.2V381z"></path><g fill="none" stroke="#f1f1f1" stroke-miterlimit="22.9" stroke-width=".3"><path d="M1881.7 445.8h20.9V426h-21a9.8 9.8 0 0 0-9.7 9.8v.3c0 5.4 4.4 9.8 9.8 9.8Z"></path><path d="M1881.5 446.2h13.7c1.5 0 2.8-1.3 2.8-2.8v-14.9c0-1.6-1.3-2.8-2.8-2.8h-13.7a10 10 0 0 0-10.1 10v.4a10 10 0 0 0 10 10Z"></path><path d="M1881.7 445.5h13c1.3 0 2.4-1 2.4-2.4v-14.4c0-1.3-1-2.3-2.4-2.3h-13a9.4 9.4 0 0 0-9.4 9.4v.3c0 5.2 4.2 9.4 9.4 9.4Z"></path></g><g stroke="#f1f1f1" stroke-miterlimit="22.9" stroke-width=".3"><path d="M1866.9 485.2c1.3 0 2.3 1 2.3 2.2a2.3 2.3 0 0 1-4.6 0c0-1.2 1-2.2 2.3-2.2Z" fill="#f1f1f1"></path><path fill="#f1f1f1" d="M1868.6 487.6v9.9h-3.4v-9.9h3.4z"></path><path fill="#f1f1f1" d="M1867.8 489.7v5.6h-1.8v-5.6h1.8z"></path><path fill="none" d="M1868.7 495.3h-3.6"></path></g><path fill="#f1f1f1" stroke-width="0" d="M732.1 391.5v-10.6h-12.5v10.6h12.5z"></path><path fill="none" stroke="#f1f1f1" stroke-miterlimit="22.9" stroke-width="2.6" d="m220 549.6 5.3 14.4 27.9-14.7"></path><path fill="#f1f1f1" stroke-width="0" d="M1373.3 661.5h-25.4v-10.4h25.4v10.4zm312.3-271.9V381h-271.4v8.6h271.4zm-361.2 0h8.6v-85.1h-8.6v85.1z"></path><path fill="none" stroke="#f1f1f1" stroke-miterlimit="22.9" stroke-width="2.6" d="m1827.6 463-12.1-4.4 12.4-23.5m13.9-175.5-12.1-4.4 12.4-23.5"></path><path fill="#f1f1f1" stroke-width="0" d="M209.4 457.1h4.2v-25.6h-4.2v25.6z"></path><path fill="#f1f1f1" stroke-width="0" d="M213.6 435.7v-4.2h-29.4v4.2h29.4z"></path><g><g fill="#f1f1f1" fill-rule="evenodd" stroke-width="0"><path d="M2294.1 206h-1.3v33.7h1.3V206z"></path><path d="M2326.4 239.7v-1.4h-33.6v1.4h33.6z"></path></g><path d="M2326.4 239.7c0-18.6-15-33.6-33.6-33.6" fill="none" stroke="#f1f1f1" stroke-miterlimit="22.9" stroke-width=".7"></path></g><path fill="#f1f1f1" stroke-width="0" d="M1684.8 407.3V381h27.7v26.3h-27.7z"></path><g><g fill="#f1f1f1" fill-rule="evenodd" stroke-width="0"><path d="M571.8 431h-1.9v-48.1h1.9V431z"></path><path d="M618 382.9v1.9h-48.1v-1.9H618z"></path></g><path d="M618 383a48 48 0 0 1-48 48" fill="none" stroke="#f1f1f1" stroke-miterlimit="22.9" stroke-width=".7"></path></g><g><g fill="#f1f1f1" fill-rule="evenodd" stroke-width="0"><path d="M733.8 429h-1.9v-48.1h1.9V429z"></path><path d="M780 380.9v1.9h-48.1v-1.9H780z"></path></g><path d="M780 381a48 48 0 0 1-48 48" fill="none" stroke="#f1f1f1" stroke-miterlimit="22.9" stroke-width=".7"></path></g><g><g fill="#f1f1f1" fill-rule="evenodd" stroke-width="0"><path d="M989.7 429.1h-1.9V381h1.9v48.1z"></path><path d="M1035.8 381v1.9h-48V381h48z"></path></g><path d="M1035.8 381a48 48 0 0 1-48 48" fill="none" stroke="#f1f1f1" stroke-miterlimit="22.9" stroke-width=".7"></path></g><path fill="#f1f1f1" stroke-width="0" d="M1366.9 391.4V381h-215.8v10.4h215.8z"></path><g><g fill="#f1f1f1" fill-rule="evenodd" stroke-width="0"><path d="M1104.7 429.1h-1.9V381h1.9v48.1z"></path><path d="M1150.9 381v1.9h-48.1V381h48.1z"></path></g><path d="M1150.8 381a48 48 0 0 1-48 48" fill="none" stroke="#f1f1f1" stroke-miterlimit="22.9" stroke-width=".7"></path></g><g><g fill="#f1f1f1" fill-rule="evenodd" stroke-width="0"><path d="M1170 419.8h-1.9v48h1.9v-48z"></path><path d="M1216.2 467.8v-1.9h-48.1v1.9h48.1z"></path></g><path d="M1216.1 467.8a48 48 0 0 0-48-48" fill="none" stroke="#f1f1f1" stroke-miterlimit="22.9" stroke-width=".7"></path></g><g><g fill="#f1f1f1" fill-rule="evenodd" stroke-width="0"><path d="M1837.3 352.6h1.9v-48.1h-1.9v48.1z"></path><path d="M1791.1 304.5v1.9h48.1v-1.9h-48.1z"></path></g><path d="M1791.2 304.5a48 48 0 0 0 48 48" fill="none" stroke="#f1f1f1" stroke-miterlimit="22.9" stroke-width=".7"></path></g><g><g fill="#f1f1f1" fill-rule="evenodd" stroke-width="0"><path d="M1763.3 341.5h-1.9v48.1h1.9v-48.1z"></path><path d="M1809.4 389.6v-1.9h-48v1.9h48z"></path></g><path d="M1809.4 389.6a48 48 0 0 0-48-48" fill="none" stroke="#f1f1f1" stroke-miterlimit="22.9" stroke-width=".7"></path></g><g><g fill="#f1f1f1" fill-rule="evenodd" stroke-width="0"><path d="M2076.3 352.6h1.9v-48.1h-1.9v48.1z"></path><path d="M2030.2 304.5v1.9h48v-1.9h-48z"></path></g><path d="M2030.2 304.5a48 48 0 0 0 48 48" fill="none" stroke="#f1f1f1" stroke-miterlimit="22.9" stroke-width=".7"></path></g><g><g fill="#f1f1f1" fill-rule="evenodd" stroke-width="0"><path d="M2182.2 341.5h-1.9v48.1h1.9v-48.1z"></path><path d="M2228.4 389.6v-1.9h-48.1v1.9h48.1z"></path></g><path d="M2228.3 389.6a48 48 0 0 0-48-48" fill="none" stroke="#f1f1f1" stroke-miterlimit="22.9" stroke-width=".7"></path></g><g fill="#f1f1f1"><path stroke-width="0" d="M28.7 599V492.3H10.2V599h18.5z"></path><path stroke="#f1f1f1" stroke-miterlimit="22.9" stroke-width=".6" d="M16.2 492.3V599h7.7V492.3h-7.7z"></path><path stroke="#f1f1f1" stroke-miterlimit="22.9" stroke-width=".6" d="M18.8 492.3V599h2.5V492.3h-2.5z"></path></g><g fill="#f1f1f1"><path stroke-width="0" d="M28.7 422v-70.2H10.2V422h18.5z"></path><path stroke="#f1f1f1" stroke-miterlimit="22.9" stroke-width=".6" d="M16.2 351.8V422h7.7v-70.2h-7.7z"></path><path stroke="#f1f1f1" stroke-miterlimit="22.9" stroke-width=".6" d="M18.8 351.8V422h2.5v-70.2h-2.5z"></path></g><g fill="#f1f1f1"><path stroke-width="0" d="M28.7 297.1v-71.7H10.2v71.7h18.5z"></path><path stroke="#f1f1f1" stroke-miterlimit="22.9" stroke-width=".6" d="M16.2 225.4v71.7h7.7v-71.7h-7.7z"></path><path stroke="#f1f1f1" stroke-miterlimit="22.9" stroke-width=".6" d="M18.8 225.4v71.7h2.5v-71.7h-2.5z"></path></g><path fill="#f1f1f1" stroke-width="0" d="M28.7 108.5h119.7V90H10.2v79.6h18.5v-61.1z"></path><path d="M23.6 103.4h124.8v-7.7H15.9v73.9h7.7v-66.2Zm-2.6-2.6h127.4v-2.5h-130v71.3H21v-68.8Z" fill="none" stroke="#f1f1f1" stroke-miterlimit="22.9" stroke-width=".6"></path><path fill="#f1f1f1" stroke-width="0" d="M28.7 743.5h118.8V762H10.2v-82.3h18.5v63.8z"></path><path d="M23.2 748.8h125.2v7.8H15.5v-76.9h7.7v69.1Zm-2.6 2.7h127.8v2.4H18v-74.2h2.5v71.8Z" fill="none" stroke="#f1f1f1" stroke-miterlimit="22.9" stroke-width=".6"></path><path fill="#f1f1f1" stroke-width="0" d="M2618.3 29h-120.9V10.6h139.4v78.5h-18.5V29z"></path><path d="M2624.3 24h-127.4v-7.7h135v77.2h-7.6V24Zm2.6-2.6h-130v-2.5h132.5v74.6h-2.5V21.4Z" fill="none" stroke="#f1f1f1" stroke-miterlimit="22.9" stroke-width=".6"></path><path fill="#f1f1f1" stroke-width="0" d="M2618.3 661.5h-122v18.4h140.5v-78.4h-18.5v60z"></path><path d="M2623.9 667.7H2496v7.7h135.5v-78h-7.7v70.3Zm2.6 2.6H2496v2.5h133v-75.4h-2.5v72.9Z" fill="none" stroke="#f1f1f1" stroke-miterlimit="22.9" stroke-width=".6"></path><path fill="#f1f1f1" stroke-width="0" d="M1264.9 29h90.1V10.6h-108.5v40.6h18.4V29z"></path><path d="M1259.8 24h95.2v-7.8h-102.9v35h7.7V24Zm-2.6-2.7h97.8V19h-100.3v32.3h2.5v-30Z" fill="none" stroke="#f1f1f1" stroke-miterlimit="22.9" stroke-width=".6"></path><g fill="#f1f1f1"><g><path stroke-width="0" d="M2327.7 679.9h74.4v-18.4h-74.4v18.4z"></path><path stroke="#f1f1f1" stroke-miterlimit="22.9" stroke-width=".6" d="M2402.1 667.5h-74.4v7.7h74.4v-7.7z"></path><path stroke="#f1f1f1" stroke-miterlimit="22.9" stroke-width=".6" d="M2402.1 670.1h-74.4v2.4h74.4v-2.4z"></path></g><g><path stroke-width="0" d="M2197.1 679.9h80.6v-18.4h-80.6v18.4z"></path><path stroke="#f1f1f1" stroke-miterlimit="22.9" stroke-width=".6" d="M2277.7 667.5h-80.6v7.7h80.6v-7.7z"></path><path stroke="#f1f1f1" stroke-miterlimit="22.9" stroke-width=".6" d="M2277.7 670.1h-80.6v2.4h80.6v-2.4z"></path></g><g><path stroke-width="0" d="M2078.4 679.9h76.3v-18.4h-76.3v18.4z"></path><path stroke="#f1f1f1" stroke-miterlimit="22.9" stroke-width=".6" d="M2154.7 667.5h-76.3v7.7h76.3v-7.7z"></path><path stroke="#f1f1f1" stroke-miterlimit="22.9" stroke-width=".6" d="M2154.7 670.1h-76.3v2.4h76.3v-2.4z"></path></g><g><path stroke-width="0" d="M1935.4 679.9h75.6v-18.4h-75.6v18.4z"></path><path stroke="#f1f1f1" stroke-miterlimit="22.9" stroke-width=".6" d="M2011 667.5h-75.6v7.7h75.6v-7.7z"></path><path stroke="#f1f1f1" stroke-miterlimit="22.9" stroke-width=".6" d="M2011 670.1h-75.6v2.4h75.6v-2.4z"></path></g><g><path stroke-width="0" d="M1791.2 679.9h76.8v-18.4h-76.8v18.4z"></path><path stroke="#f1f1f1" stroke-miterlimit="22.9" stroke-width=".6" d="M1868 667.5h-76.8v7.7h76.8v-7.7z"></path><path stroke="#f1f1f1" stroke-miterlimit="22.9" stroke-width=".6" d="M1868 670.1h-76.8v2.4h76.8v-2.4z"></path></g><g><path stroke-width="0" d="M1665.5 679.9h75.6v-18.4h-75.6v18.4z"></path><path stroke="#f1f1f1" stroke-miterlimit="22.9" stroke-width=".6" d="M1741.1 667.5h-75.6v7.7h75.6v-7.7z"></path><path stroke="#f1f1f1" stroke-miterlimit="22.9" stroke-width=".6" d="M1741.1 670.1h-75.6v2.4h75.6v-2.4z"></path></g></g><g fill="#f1f1f1"><g><path stroke-width="0" d="M2636.8 513.1V388.2h-18.5v124.9h18.5z"></path><path stroke="#f1f1f1" stroke-miterlimit="22.9" stroke-width=".6" d="M2624.3 388.2v124.9h7.7V388.2h-7.7z"></path><path stroke="#f1f1f1" stroke-miterlimit="22.9" stroke-width=".6" d="M2626.9 388.2v124.9h2.5V388.2h-2.5z"></path></g><g><path stroke-width="0" d="M2636.8 341.4v-85.9h-18.5v85.9h18.5z"></path><path stroke="#f1f1f1" stroke-miterlimit="22.9" stroke-width=".6" d="M2624.3 255.5v85.9h7.7v-85.9h-7.7z"></path><path stroke="#f1f1f1" stroke-miterlimit="22.9" stroke-width=".6" d="M2626.9 255.5v85.9h2.5v-85.9h-2.5z"></path></g><g><path stroke-width="0" d="M2636.8 208.6v-85.9h-18.5v85.9h18.5z"></path><path stroke="#f1f1f1" stroke-miterlimit="22.9" stroke-width=".6" d="M2624.3 122.7v85.9h7.7v-85.9h-7.7z"></path><path stroke="#f1f1f1" stroke-miterlimit="22.9" stroke-width=".6" d="M2626.9 122.7v85.9h2.5v-85.9h-2.5z"></path></g></g><g fill="#f1f1f1"><g><path stroke-width="0" d="M1407.9 29h75.6V10.6h-75.6V29z"></path><path stroke="#f1f1f1" stroke-miterlimit="22.9" stroke-width=".6" d="M1483.5 16.5h-75.6v7.8h75.6v-7.8z"></path><path stroke="#f1f1f1" stroke-miterlimit="22.9" stroke-width=".6" d="M1483.5 19.2h-75.6v2.4h75.6v-2.4z"></path></g><g><path stroke-width="0" d="M1542.7 29h75.5V10.6h-75.5V29z"></path><path stroke="#f1f1f1" stroke-miterlimit="22.9" stroke-width=".6" d="M1618.2 16.5h-75.5v7.8h75.5v-7.8z"></path><path stroke="#f1f1f1" stroke-miterlimit="22.9" stroke-width=".6" d="M1618.2 19.2h-75.5v2.4h75.5v-2.4z"></path></g><g><path stroke-width="0" d="M1686 29h72.2V10.6H1686V29z"></path><path stroke="#f1f1f1" stroke-miterlimit="22.9" stroke-width=".6" d="M1758.2 16.5H1686v7.8h72.2v-7.8z"></path><path stroke="#f1f1f1" stroke-miterlimit="22.9" stroke-width=".6" d="M1758.2 19.2H1686v2.4h72.2v-2.4z"></path></g><g><path stroke-width="0" d="M1809.3 29h75.5V10.6h-75.5V29z"></path><path stroke="#f1f1f1" stroke-miterlimit="22.9" stroke-width=".6" d="M1884.8 16.5h-75.5v7.8h75.5v-7.8z"></path><path stroke="#f1f1f1" stroke-miterlimit="22.9" stroke-width=".6" d="M1884.8 19.2h-75.5v2.4h75.5v-2.4z"></path></g><g><path stroke-width="0" d="M1952.4 29h71.5V10.6h-71.5V29z"></path><path stroke="#f1f1f1" stroke-miterlimit="22.9" stroke-width=".6" d="M2023.9 16.5h-71.5v7.8h71.5v-7.8z"></path><path stroke="#f1f1f1" stroke-miterlimit="22.9" stroke-width=".6" d="M2023.9 19.2h-71.5v2.4h71.5v-2.4z"></path></g><g><path stroke-width="0" d="M2091.5 29h76.8V10.6h-76.8V29z"></path><path stroke="#f1f1f1" stroke-miterlimit="22.9" stroke-width=".6" d="M2168.3 16.5h-76.8v7.8h76.8v-7.8z"></path><path stroke="#f1f1f1" stroke-miterlimit="22.9" stroke-width=".6" d="M2168.3 19.2h-76.8v2.4h76.8v-2.4z"></path></g><g><path stroke-width="0" d="M2227.1 29h76.9V10.6h-76.9V29z"></path><path stroke="#f1f1f1" stroke-miterlimit="22.9" stroke-width=".6" d="M2304 16.5h-76.9v7.8h76.9v-7.8z"></path><path stroke="#f1f1f1" stroke-miterlimit="22.9" stroke-width=".6" d="M2304 19.2h-76.9v2.4h76.9v-2.4z"></path></g><g><path stroke-width="0" d="M2353 29h76.3V10.6H2353V29z"></path><path stroke="#f1f1f1" stroke-miterlimit="22.9" stroke-width=".6" d="M2429.3 16.5H2353v7.8h76.3v-7.8z"></path><path stroke="#f1f1f1" stroke-miterlimit="22.9" stroke-width=".6" d="M2429.3 19.2H2353v2.4h76.3v-2.4z"></path></g></g><g fill="#f1f1f1"><path stroke-width="0" d="M221.3 108.5H291V90h-69.7v18.5z"></path><path stroke="#f1f1f1" stroke-miterlimit="22.9" stroke-width=".6" d="M291 96h-69.7v7.7H291V96z"></path><path stroke="#f1f1f1" stroke-miterlimit="22.9" stroke-width=".6" d="M291 98.6h-69.7v2.5H291v-2.5z"></path><path stroke-width="0" d="M341.8 108.5h93.7V90h-93.7v18.5z"></path><path stroke="#f1f1f1" stroke-miterlimit="22.9" stroke-width=".6" d="M435.5 96h-93.7v7.7h93.7V96z"></path><path stroke="#f1f1f1" stroke-miterlimit="22.9" stroke-width=".6" d="M435.5 98.6h-93.7v2.5h93.7v-2.5z"></path><path stroke-width="0" d="M478.4 108.5H556V90h-77.6v18.5z"></path><path stroke="#f1f1f1" stroke-miterlimit="22.9" stroke-width=".6" d="M556 96h-77.6v7.7H556V96z"></path><path stroke="#f1f1f1" stroke-miterlimit="22.9" stroke-width=".6" d="M556 98.6h-77.6v2.5H556v-2.5z"></path><path stroke-width="0" d="M590.4 108.5h48.1V90h-48.1v18.5z"></path><path stroke="#f1f1f1" stroke-miterlimit="22.9" stroke-width=".6" d="M638.5 96h-48.1v7.7h48.1V96z"></path><path stroke="#f1f1f1" stroke-miterlimit="22.9" stroke-width=".6" d="M638.5 98.6h-48.1v2.5h48.1v-2.5z"></path><path stroke-width="0" d="M673 108.5h79.3V90H673v18.5z"></path><path stroke="#f1f1f1" stroke-miterlimit="22.9" stroke-width=".6" d="M752.3 96H673v7.7h79.3V96z"></path><path stroke="#f1f1f1" stroke-miterlimit="22.9" stroke-width=".6" d="M752.3 98.6H673v2.5h79.3v-2.5z"></path><path stroke-width="0" d="M786.8 108.5h75.6V90h-75.6v18.5z"></path><path stroke="#f1f1f1" stroke-miterlimit="22.9" stroke-width=".6" d="M862.4 96h-75.6v7.7h75.6V96z"></path><path stroke="#f1f1f1" stroke-miterlimit="22.9" stroke-width=".6" d="M862.4 98.6h-75.6v2.5h75.6v-2.5z"></path><path stroke-width="0" d="M905.2 108.5h44.9V90h-44.9v18.5z"></path><path stroke="#f1f1f1" stroke-miterlimit="22.9" stroke-width=".6" d="M950.1 96h-44.9v7.7h44.9V96z"></path><path stroke="#f1f1f1" stroke-miterlimit="22.9" stroke-width=".6" d="M950.1 98.6h-44.9v2.5h44.9v-2.5z"></path><path stroke-width="0" d="M992.9 108.5h43.2V90h-43.2v18.5z"></path><path stroke="#f1f1f1" stroke-miterlimit="22.9" stroke-width=".6" d="M1036.1 96h-43.2v7.7h43.2V96z"></path><path stroke="#f1f1f1" stroke-miterlimit="22.9" stroke-width=".6" d="M1036.1 98.6h-43.2v2.5h43.2v-2.5z"></path><path stroke-width="0" d="M1069.9 108.5h76.2V90h-76.2v18.5z"></path><path stroke="#f1f1f1" stroke-miterlimit="22.9" stroke-width=".6" d="M1146.1 96h-76.2v7.7h76.2V96z"></path><path stroke="#f1f1f1" stroke-miterlimit="22.9" stroke-width=".6" d="M1146.1 98.6h-76.2v2.5h76.2v-2.5z"></path><path stroke-width="0" d="M1179.9 108.5h43.8V90h-43.8v18.5z"></path><path stroke="#f1f1f1" stroke-miterlimit="22.9" stroke-width=".6" d="M1223.7 96h-43.8v7.7h43.8V96z"></path><path stroke="#f1f1f1" stroke-miterlimit="22.9" stroke-width=".6" d="M1223.7 98.6h-43.8v2.5h43.8v-2.5z"></path></g><path fill="#f1f1f1" stroke-width="0" d="M572 391.5v-8.6H446.9v8.6H572z"></path><g><g fill="#f1f1f1" fill-rule="evenodd" stroke-width="0"><path d="M400.9 431H399v-48.1h1.9V431z"></path><path d="M447.1 382.9v1.9H399v-1.9h48.1z"></path></g><path d="M447 383a48 48 0 0 1-48 48" fill="none" stroke="#f1f1f1" stroke-miterlimit="22.9" stroke-width=".7"></path></g><g><g fill="#f1f1f1" fill-rule="evenodd" stroke-width="0"><path d="M444.5 419.8h1.9v48h-1.9v-48z"></path><path d="M398.3 467.8v-1.9h48.1v1.9h-48.1z"></path></g><path d="M398.4 467.8a48 48 0 0 1 48-48" fill="none" stroke="#f1f1f1" stroke-miterlimit="22.9" stroke-width=".7"></path></g><path fill="#f1f1f1" stroke-width="0" d="M479.8 372.9v-4.2H457v4.2h22.8zm247 94.9v-8.5H617.1v8.5h109.7z"></path><g><g fill="#f1f1f1" fill-rule="evenodd" stroke-width="0"><path d="M617.1 419.8h1.8v48h-1.8v-48z"></path><path d="M570.9 467.8v-1.9h48v1.9h-48z"></path></g><path d="M571 467.8a48 48 0 0 1 48-48" fill="none" stroke="#f1f1f1" stroke-miterlimit="22.9" stroke-width=".7"></path></g><g><g fill="#f1f1f1" fill-rule="evenodd" stroke-width="0"><path d="M772.9 419.8h1.9v48h-1.9v-48z"></path><path d="M726.8 467.8v-1.9h48v1.9h-48z"></path></g><path d="M726.8 467.8a48 48 0 0 1 48-48" fill="none" stroke="#f1f1f1" stroke-miterlimit="22.9" stroke-width=".7"></path></g><g><g fill="#f1f1f1" fill-rule="evenodd" stroke-width="0"><path d="M970.7 419.8h1.9v48h-1.9v-48z"></path><path d="M924.6 467.8v-1.9h48v1.9h-48z"></path></g><path d="M924.6 467.8a48 48 0 0 1 48-48" fill="none" stroke="#f1f1f1" stroke-miterlimit="22.9" stroke-width=".7"></path></g><path fill="#f1f1f1" stroke-width="0" d="M1308.2 489h4.3v-29.9h-4.3V489zM1527 313.1v-8.6h-91.9v8.6h91.9z"></path><g><g fill="#f1f1f1" fill-rule="evenodd" stroke-width="0"><path d="M1389.4 352.6h-1.9v-48.1h1.9v48.1z"></path><path d="M1435.5 304.5v1.9h-48v-1.9h48z"></path></g><path d="M1435.5 304.5a48 48 0 0 1-48 48" fill="none" stroke="#f1f1f1" stroke-miterlimit="22.9" stroke-width=".7"></path></g><g><g fill="#f1f1f1" fill-rule="evenodd" stroke-width="0"><path d="M2242.3 352.6h1.9v-48.1h-1.9v48.1z"></path><path d="M2196.2 304.5v1.9h48v-1.9h-48z"></path></g><path d="M2196.2 304.5a48 48 0 0 0 48 48" fill="none" stroke="#f1f1f1" stroke-miterlimit="22.9" stroke-width=".7"></path></g><path fill="#f1f1f1" stroke-width="0" d="M2196 313.1v-29.6h-30.8v29.6h30.8zm54.3 0v-8.6h-8v8.6h8zm-68.9 76.5V381h-140v8.6h140z"></path><g><g fill="#f1f1f1" fill-rule="evenodd" stroke-width="0"><path d="M1995.4 341.5h-1.9v48.1h1.9v-48.1z"></path><path d="M2041.5 389.6v-1.9h-48v1.9h48z"></path></g><path d="M2041.5 389.6a48 48 0 0 0-48-48" fill="none" stroke="#f1f1f1" stroke-miterlimit="22.9" stroke-width=".7"></path></g><g><g fill="#f1f1f1" fill-rule="evenodd" stroke-width="0"><path d="M1289.9 450.9v1.9h-48v-1.9h48z"></path><path d="M1241.9 404.8h1.8v48h-1.8v-48z"></path></g><path d="M1241.8 404.8a48 48 0 0 1 48 48" fill="none" stroke="#f1f1f1" stroke-miterlimit="22.9" stroke-width=".7"></path></g><g><g fill="#f1f1f1" fill-rule="evenodd" stroke-width="0"><path d="M1368.1 429.1h-1.9V381h1.9v48.1z"></path><path d="M1414.3 381v1.9h-48.1V381h48.1z"></path></g><path d="M1414.2 381a48 48 0 0 1-48 48" fill="none" stroke="#f1f1f1" stroke-miterlimit="22.9" stroke-width=".7"></path></g><path fill="#f1f1f1" stroke-width="0" d="M1347.6 389.6h8.5v-85.1h-8.5v85.1zM318.2 551.8v-4.2h-66.6v4.2h66.6zm-96.3 0v-4.2h-36.8v4.2h36.8zm-34.8-94.7h4.3V350.6h-4.3v106.5z"></path><path fill="#f1f1f1" stroke-width="0" d="M220.9 354.9v-4.3h-33.8v4.3h33.8z"></path><g fill="none" stroke="#f1f1f1" stroke-miterlimit="22.9" stroke-width=".3"><path d="M262.2 384.6h21v20h-21a9.8 9.8 0 0 1-9.8-9.9v-.3c0-5.4 4.4-9.8 9.8-9.8Z"></path><path d="M262 384.3h13.7c1.6 0 2.8 1.2 2.8 2.8v14.8c0 1.6-1.2 2.9-2.8 2.9H262a10 10 0 0 1-10.1-10.1v-.3a10 10 0 0 1 10.1-10.1Z"></path><path d="M262.2 385h13c1.4 0 2.4 1 2.4 2.3v14.4c0 1.3-1 2.4-2.3 2.4h-13a9.4 9.4 0 0 1-9.5-9.4v-.3c0-5.2 4.2-9.4 9.4-9.4Z"></path></g><path fill="#f1f1f1" stroke-width="0" d="M398.6 457.1v-8.5H0v8.5h398.6zM287.4 354.9v-4.3h-35.7v4.3h35.7z"></path><path fill="none" stroke="#f1f1f1" stroke-miterlimit="22.9" stroke-width="2.6" d="m253.2 353.2-5.2-14.3-28 14.7"></path><g fill="none" stroke="#f1f1f1" stroke-miterlimit="22.9" stroke-width=".3"><path d="M519.1 327.1h21v20h-21a9.8 9.8 0 0 1-9.8-9.8v-.4c0-5.4 4.4-9.8 9.8-9.8Z"></path><path d="M518.9 326.8h13.7c1.6 0 2.9 1.2 2.9 2.8v14.9c0 1.5-1.3 2.8-2.9 2.8H519a10 10 0 0 1-10.1-10.1v-.3a10 10 0 0 1 10.1-10.1Z"></path><path d="M519.1 327.5h13c1.4 0 2.4 1 2.4 2.3v14.4c0 1.3-1 2.4-2.3 2.4h-13a9.4 9.4 0 0 1-9.5-9.4v-.3c0-5.2 4.2-9.4 9.4-9.4Z"></path></g><path fill="#f1f1f1" stroke-width="0" d="M492 293.2v-4.3h-41.8v4.3H492z"></path><path fill="none" stroke="#f1f1f1" stroke-miterlimit="22.9" stroke-width="2.6" d="m521.9 291.6-5.3-14.4-27.9 14.7"></path><path fill="#f1f1f1" stroke-width="0" d="M540 391.5h4.3V288.9H540v102.6z"></path><path fill="#f1f1f1" stroke-width="0" d="M544.3 293.2v-4.3h-25v4.3h25z"></path><g stroke="#f1f1f1" stroke-miterlimit="22.9" stroke-width=".3"><path d="M472.9 340.8c0-1.3-1-2.3-2.3-2.3-1.3 0-2.3 1-2.3 2.3s1 2.3 2.3 2.3c1.2 0 2.3-1 2.3-2.3Z" fill="#f1f1f1"></path><path fill="#f1f1f1" d="M470.4 339.1h-9.9v3.4h9.9v-3.4z"></path><path fill="#f1f1f1" d="M468.3 339.9h-5.6v1.8h5.6v-1.8z"></path><path fill="none" d="M462.7 339v3.6"></path></g><g fill="none" stroke="#f1f1f1" stroke-miterlimit="22.9" stroke-width=".3"><path d="M1580.4 238.3h-20.9v-19.9h21c5.3 0 9.7 4.4 9.7 9.8v.3c0 5.4-4.4 9.8-9.8 9.8Z"></path><path d="M1580.7 238.7h-13.8a2.8 2.8 0 0 1-2.8-2.8V221c0-1.6 1.3-2.8 2.8-2.8h13.8a10 10 0 0 1 10 10v.4a10 10 0 0 1-10 10Z"></path><path d="M1580.4 238h-13c-1.3 0-2.4-1-2.4-2.4v-14.4c0-1.3 1-2.3 2.4-2.3h13c5.2 0 9.4 4.2 9.4 9.4v.3c0 5.2-4.2 9.4-9.4 9.4Z"></path></g><path fill="#f1f1f1" stroke-width="0" d="M1617 198.9v-4.3h42.1v4.3H1617zm-61.7 0v-4.3h37.8v4.3h-37.8z"></path><g stroke="#f1f1f1" stroke-miterlimit="22.9" stroke-width=".3"><path d="M1637 228.7c0 1 .8 1.7 1.7 1.7s1.7-.8 1.7-1.7c0-1-.8-1.7-1.7-1.7s-1.6.8-1.6 1.7Z" fill="#f1f1f1"></path><path fill="#f1f1f1" d="M1638.9 229.9h7.2v-2.4h-7.2v2.4z"></path><path fill="#f1f1f1" d="M1640.4 229.4h4.1V228h-4.1v1.4z"></path><path fill="none" d="M1644.5 230v-2.6"></path></g><path fill="#f1f1f1" stroke-width="0" d="M1555.3 194.6h4.2v99.7h-4.2v-99.7z"></path><g stroke="#f1f1f1" stroke-miterlimit="22.9" stroke-width=".3"><path d="M1906.7 243.3c0 1 .8 1.7 1.7 1.7.9 0 1.6-.7 1.6-1.7 0-.9-.7-1.6-1.6-1.6-1 0-1.7.7-1.7 1.6Z" fill="#f1f1f1"></path><path fill="#f1f1f1" d="M1908.5 244.6h7.2v-2.5h-7.2v2.5z"></path><path fill="#f1f1f1" d="M1910 244h4.1v-1.3h-4.1v1.3z"></path><path fill="none" d="M1914.1 244.6V242"></path></g><path fill="#f1f1f1" stroke-width="0" d="M1843.3 313.1h-4.3v-54.6h4.3v54.6zm0-80.3h-4.3v-41.4h4.3v41.4z"></path><g fill="none" stroke="#f1f1f1" stroke-miterlimit="22.9" stroke-width=".3"><path d="M1989.3 283.6v21h-20v-21c0-5.4 4.4-9.8 9.9-9.8h.3c5.4 0 9.8 4.4 9.8 9.8Z"></path><path d="M1989.6 283.4V297c0 1.6-1.2 2.8-2.8 2.8h-14.9a2.8 2.8 0 0 1-2.8-2.8v-13.7a10 10 0 0 1 10.1-10.1h.3a10 10 0 0 1 10.1 10Z"></path><path d="M1988.9 283.6v13c0 1.3-1 2.4-2.3 2.4h-14.4c-1.3 0-2.4-1-2.4-2.3v-13.1c0-5.2 4.2-9.4 9.4-9.4h.3c5.2 0 9.4 4.2 9.4 9.4Z"></path></g><path fill="none" stroke="#f1f1f1" stroke-miterlimit="22.9" stroke-width="2.6" d="m1996 259.6 12.1-4.4-12.4-23.5"></path><path fill="#f1f1f1" stroke-width="0" d="M1994.5 313.1h4.3v-54.6h-4.3v54.6zm0-80.3h4.3v-41.4h-4.3v41.4z"></path><g stroke="#f1f1f1" stroke-miterlimit="22.9" stroke-width=".3"><path d="M1933.7 243.3c0 1-.8 1.7-1.7 1.7s-1.7-.7-1.7-1.7a1.7 1.7 0 0 1 3.3 0Z" fill="#f1f1f1"></path><path fill="#f1f1f1" d="M1931.9 244.6h-7.2v-2.5h7.2v2.5z"></path><path fill="#f1f1f1" d="M1930.3 244h-4v-1.3h4v1.3z"></path><path fill="none" d="M1926.3 244.6V242"></path></g><path fill="#f1f1f1" stroke-width="0" d="M1913.7 313.1h13V.4h-13v312.7z"></path><path fill="#f1f1f1" stroke-width="0" d="M1899.2 294.8v-4.3h43.6v4.3h-43.6z"></path><g stroke="#f1f1f1" stroke-miterlimit="22.9" stroke-width=".3"><path d="M1951.9 485.2c1.3 0 2.3 1 2.3 2.2a2.3 2.3 0 0 1-4.6 0c0-1.2 1-2.2 2.3-2.2Z" fill="#f1f1f1"></path><path fill="#f1f1f1" d="M1953.6 487.6v9.9h-3.4v-9.9h3.4z"></path><path fill="#f1f1f1" d="M1952.8 489.7v5.6h-1.8v-5.6h1.8z"></path><path fill="none" d="M1953.7 495.3h-3.6"></path></g><path fill="#f1f1f1" stroke-width="0" d="M1991.6 381h-4.3v54.7h4.3V381zm0 80.5h-4.3v40.3h4.3v-40.3z"></path><path fill="none" stroke="#f1f1f1" stroke-miterlimit="22.9" stroke-width="2.6" d="m1989.1 435.1 12.1 4.4-12.4 23.5"></path><g fill="none" stroke="#f1f1f1" stroke-miterlimit="22.9" stroke-width=".3"><path d="M1968.3 410.5v-21h-19.9v21c0 5.4 4.4 9.8 9.8 9.8h.3c5.4 0 9.8-4.4 9.8-9.8Z"></path><path d="M1968.7 410.7V397c0-1.6-1.3-2.8-2.9-2.8H1951a2.8 2.8 0 0 0-2.8 2.8v13.7a10 10 0 0 0 10 10.1h.4a10 10 0 0 0 10-10Z"></path><path d="M1968 410.5v-13c0-1.4-1-2.4-2.4-2.4h-14.4c-1.3 0-2.3 1-2.3 2.3v13c0 5.3 4.2 9.5 9.4 9.5h.3c5.2 0 9.4-4.2 9.4-9.4Z"></path></g><path fill="#f1f1f1" stroke-width="0" d="M772.7 505h4.3v-45.7h-4.3V505zm116.8 61.5v-4.2H772.7v4.2h116.8z"></path><path fill="#f1f1f1" stroke-width="0" d="M772.7 566.5h4.3v-37.7h-4.3v37.7z"></path><path fill="none" stroke="#f1f1f1" stroke-miterlimit="22.9" stroke-width="2.6" d="m1163.5 515.1 12.1 4.5-12.4 23.5"></path><path fill="#f1f1f1" stroke-width="0" d="M1160.8 517h4.3v-57.7h-4.3V517zm0 58h4.3v-33.4h-4.3V575zm-66-9.3v-4.3H972.2v4.3h122.6z"></path><path fill="#f1f1f1" stroke-width="0" d="M970.8 565.7h4.3v-35.5h-4.3v35.5z"></path><path fill="none" stroke="#f1f1f1" stroke-miterlimit="22.9" stroke-width="2.6" d="m973.1 503-12.1 4.5 12.4 23.5"></path><g fill="none" stroke="#f1f1f1" stroke-miterlimit="22.9" stroke-width=".3"><path d="M1143.5 488.7v-20.9h-20v21c0 5.4 4.4 9.7 9.9 9.7h.3c5.4 0 9.8-4.3 9.8-9.8Z"></path><path d="M1143.8 489v-13.8c0-1.5-1.2-2.8-2.8-2.8h-14.9a2.8 2.8 0 0 0-2.8 2.8V489a10 10 0 0 0 10.1 10h.3a10 10 0 0 0 10.1-10Z"></path><path d="M1143.1 488.7v-13c0-1.3-1-2.4-2.3-2.4h-14.4a2.4 2.4 0 0 0-2.4 2.4v13c0 5.2 4.2 9.4 9.4 9.4h.3c5.2 0 9.4-4.2 9.4-9.4Z"></path></g><g stroke="#f1f1f1" stroke-miterlimit="22.9" stroke-width=".3"><path d="M1102.3 526.6c0 1-.8 1.8-1.7 1.8-.9 0-1.6-.8-1.6-1.8s.7-1.7 1.6-1.7c1 0 1.7.8 1.7 1.7Z" fill="#f1f1f1"></path><path fill="#f1f1f1" d="M1100.5 527.9h-7.2v-2.5h7.2v2.5z"></path><path fill="#f1f1f1" d="M1099 527.3h-4.1V526h4.1v1.3z"></path><path fill="none" d="M1094.9 528v-2.7"></path></g><g fill="none" stroke="#f1f1f1" stroke-miterlimit="22.9" stroke-width=".3"><path d="M839.5 541.4v20.9h-20v-21c0-5.3 4.4-9.7 9.9-9.7h.3c5.4 0 9.8 4.4 9.8 9.8Z"></path><path d="M839.8 541.1V555c0 1.5-1.2 2.8-2.8 2.8h-14.8a2.8 2.8 0 0 1-2.9-2.8v-14a10 10 0 0 1 10.1-10h.3a10 10 0 0 1 10.1 10Z"></path><path d="M839.1 541.4v13c0 1.3-1 2.4-2.3 2.4h-14.4c-1.3 0-2.4-1-2.4-2.4v-13c0-5.2 4.2-9.4 9.4-9.4h.3c5.2 0 9.4 4.2 9.4 9.4Z"></path></g><g stroke="#f1f1f1" stroke-miterlimit="22.9" stroke-width=".3"><path d="M873.7 526c0-.9.8-1.7 1.7-1.7s1.7.8 1.7 1.8-.8 1.7-1.7 1.7-1.7-.8-1.7-1.7Z" fill="#f1f1f1"></path><path fill="#f1f1f1" d="M875.5 524.8h7.2v2.5h-7.2v-2.5z"></path><path fill="#f1f1f1" d="M877.1 525.4h4v1.3h-4v-1.3z"></path><path fill="none" d="M881.1 524.7v2.7"></path></g><path fill="none" stroke="#f1f1f1" stroke-miterlimit="22.9" stroke-width="2.6" d="m775 503-12.1 4.5 12.4 23.5"></path><path fill="#f1f1f1" stroke-width="0" d="M476.7 558.2v-4.3h-29.1v4.3h29.1zm54.6 0h4.2v-98.9h-4.2v98.9z"></path><path fill="#f1f1f1" stroke-width="0" d="M535.5 558.2v-4.3h-32.7v4.3h32.7z"></path><path fill="none" stroke="#f1f1f1" stroke-miterlimit="22.9" stroke-width="2.6" d="m475.6 556 4.4 12.1 23.5-12.4"></path><g fill="none" stroke="#f1f1f1" stroke-miterlimit="22.9" stroke-width=".3"><path d="M473.6 511.6h-20.9v20h21c5.3 0 9.7-4.5 9.7-9.9v-.3c0-5.4-4.4-9.8-9.8-9.8Z"></path><path d="M473.9 511.2H460a2.8 2.8 0 0 0-2.8 2.9v14.8c0 1.6 1.3 2.8 2.8 2.8h14a10 10 0 0 0 10-10v-.4a10 10 0 0 0-10-10Z"></path><path d="M473.6 512h-13c-1.3 0-2.4 1-2.4 2.3v14.4c0 1.3 1 2.3 2.4 2.3h13c5.2 0 9.4-4.2 9.4-9.4v-.3c0-5.2-4.2-9.4-9.4-9.4Z"></path></g><g stroke="#f1f1f1" stroke-miterlimit="22.9" stroke-width=".3"><path d="M522.4 515.1c0-1 .8-1.8 1.9-1.8a1.9 1.9 0 1 1 0 3.7c-1 0-2-.8-2-1.9Z" fill="#f1f1f1"></path><path fill="#f1f1f1" d="M524.4 513.8h8.4v2.7h-8.4v-2.7z"></path><path fill="#f1f1f1" d="M526.2 514.4h4.7v1.5h-4.7v-1.5z"></path><path fill="none" d="M530.9 513.7v2.9"></path></g><g fill="#f1f1f1" stroke-width="0"><path d="m1189.7 621.3-4.5 6c1.6.4 3 1.1 4 2.2a6 6 0 0 1 1.5 4.2c0 2.2-.8 4-2.3 5.2a8.4 8.4 0 0 1-5.6 1.9 9 9 0 0 1-4.6-1.2c-1.4-.8-2.3-2-3-3.4l3.2-1.8c.7 1.9 2.1 2.8 4.4 2.8 1.3 0 2.3-.3 3-1 .8-.6 1.2-1.4 1.2-2.5s-.4-2-1.1-2.6c-.8-.7-1.8-1-3.1-1h-.8l-1.5-2.2 4.8-6.3h-9.4v-3.4h13.8v3.1Z"></path><path id="_1" data-name="1" d="M1192.3 621.7v-3.5h14.2v3.2l-7.9 19h-3.8l7.7-18.7h-10.2z"></path><path id="_2" data-name="2" d="M1205.7 636.6h3.8l-2.2 8.2h-2.9l1.3-8.2z"></path><path id="_3" data-name="3" d="M1211.6 621.7v-3.5h14.3v3.2l-7.9 19h-3.9l7.8-18.7h-10.3z"></path><path id="_4" data-name="4" d="M1249.7 624.6h3.5v15.8h-3.3V630l-4.6 7.2h-.5l-4.5-7.2v10.4h-3.4v-15.8h3.5l4.7 7.3 4.6-7.3z"></path><path id="_5" data-name="5" d="M1265.4 625.8h-9.3v-2l5-4.8c.8-.7 1.2-1.4 1.2-2.2 0-.4-.2-.7-.5-1-.3-.2-.7-.4-1.2-.4-1 0-1.8.6-2.2 1.7l-2.4-1.3c.8-2 2.4-3 4.6-3 1.4 0 2.5.3 3.3 1 .9.8 1.3 1.7 1.3 2.9 0 1.3-.7 2.7-2.1 4l-2.6 2.4h5v2.7Z"></path><path d="M967.3 640.4h-14.8v-2.9l7.8-7.8c2-2 2.9-3.6 2.9-5 0-1-.4-1.8-1-2.4-.6-.6-1.5-1-2.5-1-1.9 0-3.3 1-4.2 2.8l-3-1.8c.6-1.4 1.6-2.6 2.9-3.3s2.7-1.2 4.3-1.2c2 0 3.6.6 5 1.8 1.4 1.3 2.1 3 2.1 5 0 2.3-1.2 4.7-3.8 7.3l-5 5h9.3v3.5Z"></path><path id="_1_54" data-name="1 54" d="M985 625.4c0 1.7-.5 3.2-1.4 4.4l-7 10.6h-4.3l5.1-7.5h-.4a8 8 0 0 1-5.7-2 7.2 7.2 0 0 1-2.2-5.5c0-2.3.7-4 2.2-5.5a8 8 0 0 1 5.7-2c2.4 0 4.3.6 5.7 2a7.1 7.1 0 0 1 2.3 5.5Zm-12.2 0c0 1.2.4 2.2 1.2 3s1.8 1 3 1 2.3-.3 3-1c.9-.8 1.3-1.8 1.3-3 0-1.3-.4-2.3-1.2-3-.8-.8-1.8-1.1-3-1.1s-2.3.3-3.1 1-1.2 1.8-1.2 3Z"></path><path id="_2_55" data-name="2 55" d="M1008.6 624.6h3.5v15.8h-3.3V630l-4.7 7.2h-.4l-4.6-7.2v10.4h-3.3v-15.8h3.5l4.7 7.3 4.6-7.3z"></path><path id="_3_56" data-name="3 56" d="M1024.3 625.8h-9.4v-2l5-4.8c.9-.7 1.3-1.4 1.3-2.2 0-.4-.2-.7-.5-1-.3-.2-.7-.4-1.2-.4-1 0-1.8.6-2.3 1.7l-2.4-1.3c.9-2 2.5-3 4.7-3 1.4 0 2.5.3 3.3 1 .9.8 1.3 1.7 1.3 2.9 0 1.3-.7 2.7-2.1 4l-2.6 2.4h5v2.7Z"></path><path d="M769 640.4h-14.8v-2.9l7.8-7.8c1.9-2 2.8-3.6 2.8-5 0-1-.3-1.8-1-2.4s-1.4-1-2.4-1c-1.9 0-3.3 1-4.2 2.8l-3-1.8c.6-1.4 1.6-2.6 2.9-3.3s2.7-1.2 4.3-1.2c2 0 3.6.6 5 1.8 1.4 1.3 2.1 3 2.1 5 0 2.3-1.2 4.7-3.8 7.3l-5 5h9.2v3.5Z"></path><path id="_1_57" data-name="1 57" d="M783.5 628.9c2.2 1.2 3.3 3 3.3 5.3a6 6 0 0 1-2.1 4.8 8.7 8.7 0 0 1-5.7 1.8 9 9 0 0 1-5.8-1.8 5.9 5.9 0 0 1-2.1-4.8 6.3 6.3 0 0 1 3.3-5.4 5 5 0 0 1-2.5-4.6c0-2 .6-3.6 2-4.7s3-1.7 5-1.7 3.7.6 5.1 1.7c1.4 1.1 2 2.7 2 4.7s-.8 3.5-2.5 4.7Zm-4.5-7.6c-1 0-1.9.2-2.5.8-.6.5-1 1.3-1 2.2 0 1 .4 1.7 1 2.3s1.5.8 2.5.8 1.8-.3 2.4-.8c.7-.6 1-1.3 1-2.3 0-1-.3-1.7-1-2.2-.6-.6-1.4-.8-2.4-.8Zm0 16c1.2 0 2.2-.3 3-.9s1.1-1.4 1.1-2.5c0-1-.3-2-1.1-2.5-.8-.7-1.8-1-3-1-1.3 0-2.3.3-3 1a3 3 0 0 0-1.2 2.5c0 1 .4 2 1.1 2.5a5 5 0 0 0 3 1Z"></path><path id="_2_58" data-name="2 58" d="M790.9 636.6h3.9l-2.3 8.2h-2.9l1.3-8.2z"></path><path id="_3_59" data-name="3 59" d="M812.2 640.4h-14.8v-2.9l7.9-7.8c1.9-2 2.8-3.6 2.8-5 0-1-.3-1.8-1-2.4s-1.4-1-2.5-1c-1.8 0-3.2 1-4.1 2.8l-3.1-1.8c.7-1.4 1.6-2.6 3-3.3s2.6-1.2 4.2-1.2c2 0 3.7.6 5 1.8 1.5 1.3 2.2 3 2.2 5 0 2.3-1.3 4.7-3.8 7.3l-5 5h9.2v3.5Z"></path><path id="_4_60" data-name="4 60" d="M836.2 624.6h3.6v15.8h-3.4V630l-4.6 7.2h-.4l-4.6-7.2v10.4h-3.4v-15.8h3.5l4.7 7.3 4.6-7.3z"></path><path id="_5_61" data-name="5 61" d="M852 625.8h-9.4v-2l5-4.8c.8-.7 1.2-1.4 1.2-2.2 0-.4-.2-.7-.5-1-.3-.2-.7-.4-1.2-.4-1 0-1.7.6-2.2 1.7l-2.4-1.3c.8-2 2.4-3 4.7-3 1.3 0 2.4.3 3.3 1 .8.8 1.2 1.7 1.2 2.9 0 1.3-.7 2.7-2 4l-2.7 2.4h5v2.7Z"></path><path d="m549.5 621.3-4.6 6c1.7.4 3 1.1 4 2.2a6 6 0 0 1 1.5 4.2c0 2.2-.8 4-2.3 5.2a8.4 8.4 0 0 1-5.6 1.9 9 9 0 0 1-4.6-1.2c-1.4-.8-2.3-2-2.9-3.4l3.2-1.8c.6 1.9 2 2.8 4.3 2.8 1.3 0 2.3-.3 3-1 .8-.6 1.2-1.4 1.2-2.5s-.4-2-1.1-2.6-1.8-1-3-1h-.9l-1.5-2.2 4.9-6.3h-9.4v-3.4h13.8v3.1Z"></path><path id="_1_62" data-name="1 62" d="M559.8 625.7h.4c2.4 0 4.3.7 5.8 2a7.1 7.1 0 0 1 2.2 5.5c0 2.2-.8 4-2.2 5.5a8 8 0 0 1-5.8 2 8 8 0 0 1-5.7-2 7.3 7.3 0 0 1-2.2-5.5c0-1.7.5-3.1 1.3-4.4l7.2-10.6h4.2l-5.2 7.5Zm.4 11.6c1.3 0 2.3-.3 3.1-1s1.2-1.8 1.2-3c0-1.3-.4-2.3-1.2-3s-1.8-1.2-3-1.2c-1.3 0-2.4.4-3.1 1.1s-1.2 1.8-1.2 3a4 4 0 0 0 1.2 3c.7.8 1.8 1.1 3 1.1Z"></path><path id="_2_63" data-name="2 63" d="M591.8 624.6h3.5v15.8H592V630l-4.6 7.2h-.5l-4.5-7.2v10.4H579v-15.8h3.5l4.7 7.3 4.6-7.3z"></path><path id="_3_64" data-name="3 64" d="M607.5 625.8h-9.3v-2l5-4.8c.8-.7 1.2-1.4 1.2-2.2 0-.4-.2-.7-.5-1-.3-.2-.7-.4-1.2-.4-1 0-1.8.6-2.2 1.7l-2.4-1.3c.8-2 2.4-3 4.6-3 1.4 0 2.5.3 3.3 1 .9.8 1.3 1.7 1.3 2.9 0 1.3-.7 2.7-2 4l-2.7 2.4h5v2.7Z"></path><path d="M210 625.7h.4a8 8 0 0 1 5.7 2 7.1 7.1 0 0 1 2.2 5.5c0 2.2-.7 4-2.2 5.5a8 8 0 0 1-5.7 2 8 8 0 0 1-5.7-2 7.3 7.3 0 0 1-2.2-5.5c0-1.7.4-3.1 1.3-4.4l7.1-10.6h4.2l-5 7.5Zm.4 11.6c1.3 0 2.3-.3 3-1a4 4 0 0 0 1.2-3c0-1.3-.3-2.3-1.1-3s-1.8-1.2-3-1.2c-1.4 0-2.4.4-3.2 1.1s-1.1 1.8-1.1 3c0 1.3.3 2.3 1.1 3s1.8 1.1 3.1 1.1Z"></path><path id="_1_65" data-name="1 65" d="M224.5 626.6h2.8a8 8 0 0 1 5.4 1.9c1.5 1.2 2.2 3 2.2 5.2s-.7 4-2.2 5.2a8.4 8.4 0 0 1-5.6 1.9 9 9 0 0 1-4.8-1.2c-1.3-.9-2.3-2-2.8-3.6l3.1-1.8c.6 2 2.1 3 4.5 3 1.2 0 2.2-.3 3-1 .8-.6 1.1-1.4 1.1-2.5s-.3-2-1-2.6c-.8-.7-1.8-1-3-1h-6.6l.9-11.9H234v3.4h-9.1l-.4 5Z"></path><path id="_2_66" data-name="2 66" d="M238.3 636.6h3.8l-2.2 8.2H237l1.3-8.2z"></path><path id="_3_67" data-name="3 67" d="M259.6 640.4h-14.8v-2.9l7.8-7.8c2-2 2.9-3.6 2.9-5 0-1-.4-1.8-1-2.4s-1.5-1-2.5-1c-1.9 0-3.3 1-4.2 2.8l-3-1.8c.6-1.4 1.6-2.6 2.9-3.3s2.7-1.2 4.3-1.2c2 0 3.6.6 5 1.8 1.4 1.3 2.2 3 2.2 5 0 2.3-1.3 4.7-3.9 7.3l-5 5h9.3v3.5Z"></path><path id="_4_68" data-name="4 68" d="M283.6 624.6h3.5v15.8h-3.3V630l-4.7 7.2h-.4l-4.6-7.2v10.4h-3.3v-15.8h3.5l4.7 7.3 4.6-7.3z"></path><path id="_5_69" data-name="5 69" d="M299.3 625.8H290v-2l5-4.8c.9-.7 1.3-1.4 1.3-2.2 0-.4-.2-.7-.5-1-.3-.2-.7-.4-1.2-.4-1 0-1.8.6-2.2 1.7l-2.5-1.3c1-2 2.5-3 4.7-3 1.4 0 2.5.3 3.3 1 .9.8 1.3 1.7 1.3 2.9 0 1.3-.7 2.7-2.1 4l-2.6 2.4h5v2.7Z"></path><path d="M203.3 219v-3.5h14.3v3.2l-7.9 19h-3.9l7.8-18.7h-10.3z"></path><path id="_1_70" data-name="1 70" d="M222.6 223.9h2.8a8 8 0 0 1 5.4 1.9c1.5 1.2 2.3 3 2.3 5.2s-.8 4-2.3 5.2a8.4 8.4 0 0 1-5.6 1.9c-1.8 0-3.4-.4-4.7-1.2-1.4-.9-2.3-2-3-3.5l3.3-1.8c.6 2 2 3 4.4 3 1.3 0 2.3-.4 3-1 .8-.7 1.2-1.5 1.2-2.6s-.4-2-1.2-2.6c-.7-.6-1.7-1-3-1h-6.5l.9-11.9h12.5v3.5H223l-.4 4.9Z"></path><path id="_2_71" data-name="2 71" d="M236.4 233.9h3.9l-2.3 8.2h-2.9l1.3-8.2z"></path><path id="_3_72" data-name="3 72" d="M255.5 226.2c2.2 1.2 3.3 3 3.3 5.4a6 6 0 0 1-2.1 4.7c-1.5 1.2-3.4 1.8-5.8 1.8s-4.3-.6-5.7-1.7-2.1-2.8-2.1-4.8a6 6 0 0 1 3.3-5.4 5.3 5.3 0 0 1-2.6-4.7c0-2 .7-3.6 2-4.7a8.2 8.2 0 0 1 5.1-1.7c2 0 3.7.6 5 1.7 1.5 1.1 2.1 2.7 2.1 4.7s-.8 3.6-2.5 4.7Zm-4.6-7.6c-1 0-1.8.2-2.4.8-.7.5-1 1.3-1 2.2 0 1 .3 1.7 1 2.3s1.4.8 2.4.8 1.8-.3 2.5-.8 1-1.3 1-2.3c0-1-.4-1.7-1-2.2s-1.5-.8-2.5-.8Zm0 16c1.3 0 2.3-.3 3-.9s1.2-1.4 1.2-2.5c0-1-.4-2-1.1-2.5a5 5 0 0 0-3-1c-1.3 0-2.4.4-3.1 1a3 3 0 0 0-1.2 2.5c0 1 .4 2 1.2 2.5s1.8 1 3 1Z"></path><path id="_4_73" data-name="4 73" d="M282.8 221.9h3.5v15.8h-3.4v-10.4l-4.6 7.2h-.4l-4.6-7.2v10.4h-3.4v-15.8h3.6l4.6 7.3 4.7-7.3z"></path><path id="_5_74" data-name="5 74" d="M298.5 223.1H289v-2l5-4.8c.8-.7 1.2-1.4 1.2-2.2 0-.4-.1-.7-.4-1-.3-.2-.7-.3-1.3-.3-1 0-1.7.5-2.2 1.7L289 213c.9-2 2.4-3 4.7-3 1.3 0 2.4.3 3.3 1a4 4 0 0 1 1.3 2.9c0 1.4-.7 2.7-2.2 4l-2.6 2.4h5v2.7Z"></path><path d="M530.7 237.7h-14.8v-2.9l7.8-7.8c1.9-2 2.9-3.5 2.9-5 0-1-.4-1.8-1-2.4s-1.5-1-2.5-1c-1.9 0-3.3 1-4.2 2.8l-3-1.8c.6-1.4 1.6-2.5 2.9-3.3s2.7-1.2 4.3-1.2c2 0 3.6.6 5 1.9a6.3 6.3 0 0 1 2.1 5c0 2.2-1.2 4.6-3.8 7.2l-5 5h9.3v3.5Z"></path><path id="_1_75" data-name="1 75" d="M548.3 222.7c0 1.7-.4 3.2-1.3 4.5l-7 10.5h-4.3l5.1-7.4h-.4a8 8 0 0 1-5.7-2.1 7.3 7.3 0 0 1-2.2-5.5c0-2.2.7-4 2.2-5.5a8 8 0 0 1 5.7-2c2.4 0 4.3.6 5.7 2a7.2 7.2 0 0 1 2.2 5.5Zm-12.1 0c0 1.2.4 2.2 1.2 3s1.8 1.1 3 1.1 2.3-.4 3-1.1a4 4 0 0 0 1.3-3 4 4 0 0 0-4.3-4.1c-1.2 0-2.2.3-3 1s-1.2 1.8-1.2 3Z"></path><path id="_2_76" data-name="2 76" d="M547.6 233.9h3.9l-2.3 8.2h-2.8l1.2-8.2z"></path><path id="_3_77" data-name="3 77" d="M559.1 223.9h2.9a8 8 0 0 1 5.4 1.9c1.4 1.2 2.2 3 2.2 5.2s-.8 4-2.3 5.2a8.4 8.4 0 0 1-5.6 1.9c-1.8 0-3.4-.4-4.7-1.2a7 7 0 0 1-2.9-3.5l3.2-1.8c.6 2 2 3 4.4 3 1.3 0 2.3-.4 3-1 .8-.7 1.2-1.5 1.2-2.6s-.4-2-1.1-2.6a5 5 0 0 0-3-1h-6.5l.8-11.9h12.5v3.5h-9l-.5 4.9Z"></path><path id="_4_78" data-name="4 78" d="M593.5 221.9h3.5v15.8h-3.4v-10.4l-4.6 7.2h-.4l-4.6-7.2v10.4h-3.4v-15.8h3.6l4.6 7.3 4.7-7.3z"></path><path id="_5_79" data-name="5 79" d="M609.2 223.1h-9.4v-2l5-4.8c.8-.7 1.2-1.4 1.2-2.2 0-.4-.1-.7-.4-1-.3-.2-.7-.3-1.3-.3-1 0-1.7.5-2.2 1.7l-2.4-1.4c.9-2 2.4-3 4.7-3 1.3 0 2.4.3 3.3 1a4 4 0 0 1 1.3 2.9c0 1.4-.7 2.7-2.2 4l-2.6 2.4h5v2.7Z"></path><path d="M1418.6 139.4h2.8a8 8 0 0 1 5.4 2c1.5 1.2 2.2 3 2.2 5.1 0 2.2-.7 4-2.3 5.2a8.3 8.3 0 0 1-5.5 2c-1.8 0-3.4-.5-4.8-1.3-1.3-.8-2.3-2-2.9-3.5l3.2-1.8c.6 2 2.1 3 4.5 3 1.2 0 2.2-.3 3-1 .8-.6 1.1-1.5 1.1-2.6 0-1-.3-2-1-2.6a5 5 0 0 0-3-1h-6.6l.9-11.8h12.5v3.4h-9.1l-.4 5Z"></path><path id="_1_80" data-name="1 80" d="M1429.9 134.6v-3.5h14.2v3.1l-7.8 19h-3.9l7.7-18.6h-10.2z"></path><path id="_2_81" data-name="2 81" d="M1443.3 149.4h3.8l-2.2 8.3h-2.9l1.3-8.3z"></path><path id="_3_82" data-name="3 82" d="M1463.2 138.2c0 1.7-.4 3.2-1.3 4.5l-7.1 10.5h-4.2l5-7.4h-.3a8 8 0 0 1-5.7-2.1 7.2 7.2 0 0 1-2.2-5.5c0-2.2.7-4 2.2-5.4a8 8 0 0 1 5.7-2.1c2.3 0 4.2.7 5.7 2a7.2 7.2 0 0 1 2.2 5.5Zm-12.2 0a4 4 0 0 0 1.2 3c.8.8 1.9 1.1 3.1 1.1s2.3-.3 3-1 1.2-1.8 1.2-3c0-1.3-.4-2.3-1.2-3a4.5 4.5 0 0 0-6-.1c-.7.7-1.3 1.8-1.3 3Z"></path><path id="_4_83" data-name="4 83" d="M1486.9 137.4h3.5v15.8h-3.4v-10.4l-4.6 7.3h-.4l-4.6-7.3v10.4h-3.4v-15.8h3.6l4.6 7.3 4.7-7.3z"></path><path id="_5_84" data-name="5 84" d="M1502.6 138.7h-9.4v-2l5-4.8c.8-.8 1.2-1.5 1.2-2.2 0-.4-.1-.8-.4-1-.3-.3-.7-.4-1.2-.4-1 0-1.8.6-2.3 1.7l-2.4-1.3c.9-2 2.4-3.1 4.7-3.1 1.3 0 2.4.4 3.3 1.1.8.7 1.3 1.7 1.3 2.8 0 1.4-.7 2.7-2.1 4l-2.7 2.5h5v2.7Z"></path><path d="m1771 134.2-4.6 6c1.6.3 3 1 4 2.2a6 6 0 0 1 1.4 4.1c0 2.2-.7 4-2.2 5.2a8.3 8.3 0 0 1-5.6 2c-1.8 0-3.3-.5-4.6-1.3a6.3 6.3 0 0 1-3-3.4l3.2-1.8c.7 2 2.1 2.9 4.4 2.9 1.3 0 2.3-.3 3-1 .8-.6 1.2-1.5 1.2-2.6s-.4-2-1.2-2.6c-.7-.6-1.7-1-3-1h-.8l-1.5-2.1 4.8-6.3h-9.4V131h13.8v3Z"></path><path id="_1_85" data-name="1 85" d="M1788.7 138.2c0 1.7-.5 3.2-1.4 4.5l-7 10.5h-4.3l5.1-7.4h-.3a8 8 0 0 1-5.8-2.1 7.3 7.3 0 0 1-2.2-5.5c0-2.2.7-4 2.2-5.4a8 8 0 0 1 5.8-2.1c2.3 0 4.2.7 5.7 2a7.1 7.1 0 0 1 2.2 5.5Zm-12.2 0a4 4 0 0 0 1.2 3c.8.8 1.8 1.1 3 1.1s2.3-.3 3.1-1 1.2-1.8 1.2-3a4 4 0 0 0-1.2-3c-.8-.8-1.8-1.2-3-1.2s-2.3.4-3.1 1.1-1.2 1.8-1.2 3Z"></path><path id="_2_86" data-name="2 86" d="M1788 149.4h3.8l-2.2 8.3h-2.9l1.3-8.3z"></path><path id="_3_87" data-name="3 87" d="m1793.9 133.1 5.9-2h3.2v22.1h-3.7V135l-4.5 1.2-.9-3.1z"></path><path id="_4_88" data-name="4 88" d="M1828.2 137.4h3.6v15.8h-3.4v-10.4l-4.6 7.3h-.4l-4.6-7.3v10.4h-3.4v-15.8h3.5l4.7 7.3 4.6-7.3z"></path><path id="_5_89" data-name="5 89" d="M1844 138.7h-9.4v-2l5-4.8c.8-.8 1.2-1.5 1.2-2.2 0-.4-.1-.8-.4-1-.3-.3-.8-.4-1.3-.4-1 0-1.7.6-2.2 1.7l-2.4-1.3c.8-2 2.4-3.1 4.7-3.1 1.3 0 2.4.4 3.3 1.1.8.7 1.2 1.7 1.2 2.8 0 1.4-.7 2.7-2 4l-2.7 2.5h5v2.7Z"></path><path d="m2031.4 134.2-4.5 6c1.6.3 3 1 4 2.2a6 6 0 0 1 1.4 4.1c0 2.2-.7 4-2.2 5.2a8.3 8.3 0 0 1-5.6 2c-1.8 0-3.3-.5-4.7-1.3a6 6 0 0 1-2.8-3.4l3-1.8c.8 2 2.2 2.9 4.5 2.9 1.3 0 2.3-.3 3-1 .8-.6 1.2-1.5 1.2-2.6s-.4-2-1.2-2.6c-.7-.6-1.7-1-3-1h-.8l-1.5-2.1 4.8-6.3h-9.4V131h13.8v3Z"></path><path id="_1_90" data-name="1 90" d="M2047 141.7c2.2 1.2 3.3 3 3.3 5.4a6 6 0 0 1-2.1 4.8c-1.4 1.1-3.3 1.7-5.7 1.7s-4.3-.5-5.8-1.7a5.8 5.8 0 0 1-2.1-4.8c0-1.2.3-2.2.8-3.1s1.4-1.7 2.5-2.3a5.3 5.3 0 0 1-2.6-4.7c0-2 .7-3.6 2-4.7 1.5-1 3.2-1.6 5.2-1.6s3.6.5 5 1.6 2 2.7 2 4.7-.8 3.6-2.5 4.7Zm-4.5-7.6c-1 0-1.9.3-2.5.8s-1 1.3-1 2.3c0 1 .4 1.7 1 2.2.6.6 1.5.8 2.5.8s1.8-.2 2.4-.8c.7-.5 1-1.3 1-2.2 0-1-.3-1.7-1-2.3-.6-.5-1.4-.8-2.4-.8Zm0 16c1.2 0 2.2-.2 3-.8a3 3 0 0 0 1.1-2.6c0-1-.4-1.9-1.1-2.5a5 5 0 0 0-3-1c-1.3 0-2.3.4-3.1 1s-1.1 1.5-1.1 2.5c0 1.1.3 2 1.1 2.6.8.6 1.8.9 3 .9Z"></path><path id="_2_91" data-name="2 91" d="M2054.4 149.4h3.9l-2.3 8.3h-2.9l1.3-8.3z"></path><path id="_3_92" data-name="3 92" d="M2075.7 153.2h-14.8v-2.8l7.8-7.9c2-1.9 2.9-3.5 2.9-4.9 0-1-.3-1.9-1-2.5-.6-.6-1.4-.9-2.5-.9-1.9 0-3.2 1-4.1 2.8l-3.1-1.8a7.5 7.5 0 0 1 2.9-3.4 8.2 8.2 0 0 1 4.3-1.1c2 0 3.7.6 5 1.8 1.5 1.2 2.2 3 2.2 5 0 2.2-1.3 4.6-3.8 7.2l-5.1 5h9.3v3.5Z"></path><path id="_4_93" data-name="4 93" d="M2099.7 137.4h3.5v15.8h-3.3v-10.4l-4.6 7.3h-.4l-4.6-7.3v10.4h-3.4v-15.8h3.5l4.7 7.3 4.6-7.3z"></path><path id="_5_94" data-name="5 94" d="M2115.4 138.7h-9.3v-2l5-4.8c.8-.8 1.2-1.5 1.2-2.2 0-.4-.2-.8-.5-1s-.7-.4-1.2-.4c-1 0-1.8.6-2.2 1.7l-2.4-1.3c.8-2 2.4-3.1 4.6-3.1 1.4 0 2.5.4 3.3 1.1.9.7 1.3 1.7 1.3 2.8 0 1.4-.7 2.7-2 4l-2.7 2.5h5v2.7Z"></path><path d="M2360.6 134.6v-3.5h14.2v3.1l-7.9 19h-3.8l7.7-18.6h-10.2z"></path><path id="_1_95" data-name="1 95" d="M2381.6 138.5h.4a8 8 0 0 1 5.7 2.1 7.2 7.2 0 0 1 2.2 5.5c0 2.2-.8 4-2.2 5.4a8 8 0 0 1-5.7 2.1 8 8 0 0 1-5.8-2 7.3 7.3 0 0 1-2.2-5.5c0-1.7.5-3.2 1.4-4.5l7-10.5h4.3l-5.1 7.4Zm.4 11.7c1.2 0 2.2-.4 3-1.1s1.2-1.8 1.2-3c0-1.3-.4-2.3-1.2-3s-1.8-1.1-3-1.1c-1.3 0-2.3.3-3.1 1s-1.2 1.8-1.2 3c0 1.3.4 2.3 1.2 3s1.8 1.2 3 1.2Z"></path><path id="_2_96" data-name="2 96" d="M2393 149.4h3.9l-2.3 8.3h-2.9l1.3-8.3z"></path><path id="_3_97" data-name="3 97" d="m2413.8 134.2-4.6 6c1.7.3 3 1 4 2.2a6 6 0 0 1 1.5 4.1c0 2.2-.7 4-2.3 5.2a8.3 8.3 0 0 1-5.5 2c-1.8 0-3.3-.5-4.7-1.3a6.5 6.5 0 0 1-2.9-3.4l3.2-1.8c.6 2 2.1 2.9 4.4 2.9 1.2 0 2.3-.3 3-1 .8-.6 1.1-1.5 1.1-2.6s-.3-2-1-2.6c-.8-.6-1.9-1-3.1-1h-.9l-1.4-2.1 4.8-6.3h-9.4V131h13.8v3Z"></path><path id="_4_98" data-name="4 98" d="M2438.7 137.4h3.5v15.8h-3.4v-10.4l-4.6 7.3h-.4l-4.6-7.3v10.4h-3.3v-15.8h3.5l4.6 7.3 4.7-7.3z"></path><path id="_5_99" data-name="5 99" d="M2454.4 138.7h-9.4v-2l5-4.8c.8-.8 1.2-1.5 1.2-2.2 0-.4-.1-.8-.4-1s-.7-.4-1.2-.4c-1 0-1.8.6-2.3 1.7l-2.4-1.3c.9-2 2.4-3.1 4.7-3.1 1.4 0 2.5.4 3.3 1.1.9.7 1.3 1.7 1.3 2.8 0 1.4-.7 2.7-2.1 4l-2.6 2.5h5v2.7Z"></path><path d="m2015.9 542.3-4.6 6c1.7.3 3 1.1 4 2.2s1.5 2.5 1.5 4.2c0 2.2-.8 4-2.3 5.2a8.3 8.3 0 0 1-5.6 1.9 9 9 0 0 1-4.6-1.2c-1.4-.8-2.3-2-2.9-3.4l3.1-1.8c.7 1.9 2.2 2.8 4.4 2.8 1.3 0 2.3-.3 3-1 .8-.6 1.2-1.4 1.2-2.5s-.4-2-1.1-2.6c-.8-.7-1.8-1-3-1h-.9l-1.5-2.2 4.9-6.3h-9.4v-3.4h13.8v3.1Z"></path><path id="_1_100" data-name="1 100" d="M2033.6 546.4c0 1.7-.4 3.1-1.3 4.4l-7.1 10.6h-4.2l5-7.5h-.3a8 8 0 0 1-5.7-2 7.3 7.3 0 0 1-2.3-5.5c0-2.3.8-4 2.3-5.5a8 8 0 0 1 5.7-2.1 8 8 0 0 1 5.7 2.1 7.2 7.2 0 0 1 2.2 5.5Zm-12.2 0a4 4 0 0 0 1.2 3c.8.7 1.9 1 3 1s2.3-.3 3.1-1 1.2-1.8 1.2-3a4 4 0 0 0-1.2-3c-.8-.8-1.8-1.2-3-1.2s-2.3.4-3 1.2-1.3 1.7-1.3 3Z"></path><path id="_2_101" data-name="2 101" d="M2057.3 545.5h3.5v15.9h-3.4V551l-4.6 7.2h-.4l-4.6-7.2v10.4h-3.4v-15.9h3.6l4.6 7.4 4.7-7.4z"></path><path id="_3_102" data-name="3 102" d="M2073 546.8h-9.4v-2l5-4.8c.8-.7 1.2-1.4 1.2-2.2 0-.4-.1-.7-.4-1s-.7-.4-1.3-.4c-1 0-1.7.6-2.2 1.7l-2.4-1.3c.9-2 2.4-3 4.7-3 1.3 0 2.4.3 3.3 1a4 4 0 0 1 1.3 2.9c0 1.3-.7 2.7-2.2 4l-2.6 2.4h5v2.7Z"></path><path d="m1760.6 542.3-4.6 6c1.7.3 3 1.1 4 2.2a6 6 0 0 1 1.5 4.2c0 2.2-.7 4-2.3 5.2a8.3 8.3 0 0 1-5.5 1.9c-1.8 0-3.3-.4-4.7-1.2-1.3-.8-2.3-2-2.9-3.4l3.2-1.8c.6 1.9 2.1 2.8 4.4 2.8 1.2 0 2.3-.3 3-1 .8-.6 1.1-1.4 1.1-2.5s-.3-2-1-2.6c-.8-.7-1.9-1-3.1-1h-.9l-1.4-2.2 4.8-6.3h-9.4v-3.4h13.8v3.1Z"></path><path id="_1_103" data-name="1 103" d="M1763.1 542.7v-3.5h14.3v3.2l-7.9 19h-3.9l7.8-18.7h-10.3z"></path><path id="_2_104" data-name="2 104" d="M1776.5 557.6h3.9l-2.3 8.2h-2.9l1.3-8.2z"></path><path id="_3_105" data-name="3 105" d="m1797.3 542.3-4.6 6c1.7.3 3 1.1 4 2.2s1.5 2.5 1.5 4.2c0 2.2-.8 4-2.3 5.2a8.3 8.3 0 0 1-5.5 1.9 9 9 0 0 1-4.7-1.2c-1.3-.8-2.3-2-2.9-3.4l3.2-1.8c.6 1.9 2.1 2.8 4.4 2.8 1.2 0 2.3-.3 3-1 .7-.6 1.1-1.4 1.1-2.5s-.4-2-1.1-2.6c-.7-.7-1.8-1-3-1h-.9l-1.5-2.2 4.9-6.3h-9.4v-3.4h13.8v3.1Z"></path><path id="_4_106" data-name="4 106" d="M1822.2 545.5h3.5v15.9h-3.4V551l-4.6 7.2h-.4l-4.6-7.2v10.4h-3.3v-15.9h3.5l4.6 7.4 4.7-7.4z"></path><path id="_5_107" data-name="5 107" d="M1838 546.8h-9.5v-2l5-4.8c.8-.7 1.2-1.4 1.2-2.2 0-.4-.1-.7-.4-1-.3-.2-.7-.4-1.2-.4-1 0-1.8.6-2.3 1.7l-2.4-1.3c.9-2 2.4-3 4.7-3 1.3 0 2.4.3 3.3 1 .9.8 1.3 1.7 1.3 2.9 0 1.3-.7 2.7-2.1 4l-2.7 2.4h5v2.7Z"></path></g></g></g></g></g></g></svg>