<svg xmlns="http://www.w3.org/2000/svg" viewBox="36 37.3 2035.3 617.3"><g id="SELECTION" fill="none" stroke-width="0"><path d="M1470.2 356.4v-17.8l11-.2v-11h25.5v-40.1h-96v59h-66.5v10h-38v196h192v-196h-28Z"/><path d="M1529.2 346.3h5v10h-26v196h196v-197h-8v-7.7l-1.4-1.2h-83v-59h-82.6v58.9Z"/><path d="M1956.2 552.4h92v-215h-326v8.9h-8v206h242Z"/><path d="M1722.2 329.3h326v-263l-326-.2v263.2Z"/><path d="m1699.7 338.3-.5-85h13v-187h-196v213h99.5v59.2l84-.2Z"/><path d="M1506.2 279.4V66.3h-194v221h-6.4v51.3h102v-59.3h98.4Z"/><path d="M1008.2 126.4h-2v153.9h69.5v58h220.5v-59h6v-213h-294v60Z"/><path d="M998.2 346.4V127.3h-274v270h308.5v-51h-34.5Z"/><path d="M663.2 397.4h51V127.3h-320v248l.5 22c35.9-.3 229.5 0 268.5 0Z"/><path d="M58.2 127.3v261h250v9h76v-270h-326Z"/><path d="M462.2 404.4h-164v-8h-240v219h404v-211Z"/><path d="M690.2 416.4v-11h-27v-.1h-191v210h244v-199h-26Z"/></g></svg>