<svg xmlns="http://www.w3.org/2000/svg" viewBox="0 0 2647 773.4"><g id="SELECTION" fill="none" stroke-width="0"><path d="M1264.9 108.5V29h381.2v261.4h-20.3v14.1h-30.9v-18.8h-76.5v18.8h-253.5v-196z"/><path d="M463.2 108.5h189v255.9H618v18.5H463.2V108.5z"/><path d="M28.7 422V108.5h421.5v274.4H345.6v65.7H97.1v-2.2H28.7V422z"/><path d="M444.2 743.5H28.7V459.4h68.4v-2.3h88V479h79.1v-10h54v-11.9H390v10.7h54.2v275.7z"/><path d="M684.9 675.1h-2.2v68.4h-230V480.1H465v-12.3h205.8V482h14.1v193.1z"/><path d="M881.2 743.5H695.7v-68.4h-2.2V467.8h79.2v8.1h56.4v-8.1h34.3V482h17.8v261.5z"/><path d="M1081.8 743.5H894.2V467.8h78v7.7h1.5v.6h70.6v-8.3h19.4v14.3h17.8V575h.3v168.5z"/><path d="M1347.9 651.1v92.4h-253.1V482.1h17.9v-14.3h129.2V489h106v162.1z"/><path d="M1902.6 661.5h-249.9v-253h80v-19h28.7v.1h48.2v9h43.8v-9h33.2V404h16v257.5z"/><path d="M2168.4 661.5h-252.8V404h16.9v-14.4h228.7v12.1h7.2v259.8z"/><path d="M2618.3 88.9v279.3H2550v2.3h-89v-17.7h-28.3v17.7h-143.2v-76.4h-44.7v10.4H2196v-21h-.6V29h422.9v59.9z"/><path d="M1926.7 29h255.6v242.5h-8.3v12h-73.8v21h-157.4v-14h-16.1V29z"/><path d="M1659.1 29h254.6v261.5h-16.1v14h-123.9v-11.4h-61v11.4h-42.6v-11.9h-11V29z"/></g></svg>