<svg version="1.1" xmlns="http://www.w3.org/2000/svg" xmlns:xlink="http://www.w3.org/1999/xlink" viewBox="0 0 3547 1000.3"><g id="SELECTION_0" image-rendering="optimizeQuality" shape-rendering="geometricPrecision" text-rendering="geometricPrecision" fill="none" stroke-width="0"><path d="M2727.3 0H3547v1000l-819.7.3V0z"></path><path d="M2033.2 0h703.9v999.9l-703.9.2V0z"></path><path d="M497.6 1000V769.2H288.4V595.6h71.7L359.3 0h1683.4v1000H497.6z"></path></g><g id="SELECTION_1" image-rendering="optimizeQuality" shape-rendering="geometricPrecision" text-rendering="geometricPrecision" fill="none" stroke-width="0"><path d="M3495 292.8v654l-757.9.3V116H3495v176.8z"></path><path d="M2552.1 116h175.2v830.6l-684.3.2V116h509.1z"></path><path d="M1709.8 947.6H519V747.9H307.7v-6.2h.2v-.1l29-65.6 2-4.4-24.5-.8 3-2.6c2.6-2 5-4 6.6-5.6l1.6-1.6-1.2-2.6-18.8-43.1h3.8v-6.6h75.3v-13h-11.4v-352h-1V117.3h1V116h1659.9v830.7h-152v.9h-171.4Z"></path></g><g><g id="MAIN_LAYER"><g id="Layer_1-2" data-name="Layer 1" image-rendering="optimizeQuality" shape-rendering="geometricPrecision" text-rendering="geometricPrecision"><g id="_Слой_1" data-name="Слой 1"><g id="_2157776997760" data-name="2157776997760"><path fill="none" stroke="#f1f1f1" stroke-miterlimit="100.5" stroke-width="3.1" d="M175.2 486H68.8V222.4h106.4V486z"></path><path d="M175.2 459.8H68.8v-26.2h106.4v26.2Zm0-52.4H68.8v-26.2h106.4v26.2Zm0-52.4H68.8v-26.2h106.4V355Zm0-52.4H68.8v-26.2h106.4v26.2ZM70.4 250.2h104.8m115 178.2v182H183.8V480.8h50.3V456l-1.4-.5 1.4-.7v-.3h.6l52.3-26.2h3.2Zm0-199.7V358h-56.1v26.2h28.4l-28.4 15.1-20.9 11.1h-29.4V228.7h106.4Z" fill="none" stroke="#f1f1f1" stroke-miterlimit="100.5" stroke-width="3.9"></path><path d="M290.2 610H183.8v-26h106.4v26.2Zm0-50.7H183.8v-26.1h106.4v26.1Zm0-52.3H183.8v-26.2h106.4V507Zm0-78.6v26.2h-55.5l52.3-26.2h3.2Zm-27.7-44.2-28.4 15.1-20.9 11.1h-29.4v-26.2h78.7Zm27.7-26.2H183.8v-26.2h106.4V358Zm0-52.4H183.8v-26.2h106.4v26.2Zm-104.7-52.4h104.7m-56.1 201.4v155.8" fill="none" stroke="#f1f1f1" stroke-miterlimit="100.5" stroke-width="3.9"></path><path d="M122.8 486V171.7h111.3v227.6m55.7 27.7-2.8 1.4-52.3 26.2-.6.3-1.4.7-47.7 23.8" fill="none" stroke="#f1f1f1" stroke-miterlimit="100.5" stroke-width="3.9"></path><path d="m289.8 369.7-27.3 14.5-28.4 15.1-20.9 11.1-28.2 15m104.8 52.4L234 456l-1.4-.5-1.9-.7m-160.4 4.9 52.4 26.2m52.4-26.2L122.8 486" fill="none" stroke="#f1f1f1" stroke-miterlimit="100.5" stroke-width="3.9"></path><path d="m70 753.5 60.6 33.1 2.7-28.3 11.5 16.8 47.6-19.8" fill="none" stroke="#f1f1f1" stroke-miterlimit="100.5" stroke-width="6.5"></path><path d="M515.7 995H0v-36h515.7v36Zm-257-890.4H0v-36h258.7v36Zm3283.8 775.9H3495V147h47.5v733.4Z" fill="#f1f1f1" stroke-width="0"></path><path d="M36 995H0V68.6h36v926.6ZM309.4 96.5v518.9h-19.6v-519h19.6ZM293 882v62.2h-9.8V882h9.8Z" fill="#f1f1f1" stroke-width="0"></path><path d="M289.8 934.5h209.5v9.8H289.8v-9.8ZM188.3 747.9H288v11.5h-99.8v-11.5ZM36 748h37.7v11.5H36V748Zm136-141V214.2h13v392.9h-13ZM29.5 101.3h27.8v26.1H29.5v-26.1ZM31 220.6h26.2V247H31.1v-26.4Zm5 375h14.6v11.5H36v-11.5Zm-5 356.9h26.2v26.2H31.1v-26.2Z" fill="#f1f1f1" stroke-width="0"></path><path fill="#f1f1f1" stroke-width="0" d="M293 749.5v55.7h-9.8v-55.7h9.8z"></path><path d="m47 600.8 60.5 33.2 2.8-28.4 11.5 16.8 47.6-19.8" fill="none" stroke="#f1f1f1" stroke-miterlimit="100.5" stroke-width="6.5"></path><path d="M163.7 595.6h14.7v11.5h-14.7v-11.5Zm2573.4-489.4v862.7h-9.8V106.2h9.8Zm805.4 540.2H3495V414h47.5v232.4Zm0-353.6H3495V68.5h47.5v224.3Zm0 700.6H3495V767.5h47.5v226Z" fill="#f1f1f1" stroke-width="0"></path><path fill="none" stroke="#f1f1f1" stroke-miterlimit="100.5" stroke-width="6.5" d="m2453.1 81.9-104.8-74-32.6 70.5"></path><path d="M2198.5 68.5h121.2V116h-121.2V68.5Zm239 0h122.8V116h-122.8V68.5Z" fill="#f1f1f1" stroke-width="0"></path><path fill="#f1f1f1" stroke-width="0" d="M2552.1 68.5h401.1V116h-401.1V68.5z"></path><path fill="#f1f1f1" stroke-width="0" d="M2681.4 68.5h122.8V116h-122.8V68.5z"></path><path fill="none" stroke="#f1f1f1" stroke-miterlimit="100.5" stroke-width="6.5" d="M3185 81.5 3080.2 7.6 3047.6 78"></path><path d="M2923.7 68.5H3048V116h-124.4V68.5Zm337.2 0h191.5V116H3261V68.5Z" fill="#f1f1f1" stroke-width="0"></path><path d="M3167.6 68.5h121.1V116h-121V68.5Zm240.6 0h106.5V116h-106.5V68.5Zm-1214.6 879h271.2v47.6h-271.2v-47.5Zm345.4 0h422.4v47.6H2539v-47.5Z" fill="#f1f1f1" stroke-width="0"></path><path d="M2440.8 947.6h121.1V995h-121.1v-47.5Zm240.6 0h122.8V995h-122.8v-47.5Zm242.3 0h279.8V995h-279.8v-47.5Zm320.8 0h198.1V995h-198v-47.4Z" fill="#f1f1f1" stroke-width="0"></path><path fill="#f1f1f1" stroke-width="0" d="M3167.6 947.6h121.1v47.5h-121.1v-47.5z"></path><path fill="none" stroke="#f1f1f1" stroke-miterlimit="100.5" stroke-width=".8" d="M26.2 575.5v-482h573.2v-5.3H20.3v886.3h493.2v-5.2H26.2V575.5z"></path><path fill="none" stroke="#f1f1f1" stroke-miterlimit="100.5" stroke-width=".8" d="M15.3 575.5V83.2h584.1v-5.3H9.4v906.9h504.1v-5.3H15.3v-404z"></path><path d="M2043 89.8v862.7h-9.8V89.8h9.8ZM519 749.5v208h-21.4v-208H519Z" fill="#f1f1f1" stroke-width="0"></path><path fill="#f1f1f1" stroke-width="0" d="M288.1 747.9h230.8v21.3H288.1v-21.3z"></path><path fill="#f1f1f1" stroke-width="0" d="M289.8 749.5v-14.7h17.9v14.7h-17.9z"></path><path fill="none" stroke="#f1f1f1" stroke-miterlimit="100.5" stroke-width="6.5" d="m608.8 79.7 104.9-74 32.5 70.5"></path><path d="M255.4 68.5h365V116h-365V68.5Zm499.3 0H1583V116H754.7V68.5Z" fill="#f1f1f1" stroke-width="0"></path><path fill="#f1f1f1" stroke-width="0" d="M743.2 68.5h119.5V116H743.2V68.5z"></path><path fill="none" stroke="#f1f1f1" stroke-miterlimit="100.5" stroke-width="6.5" d="M1722.6 79 1617.7 5l-32.5 70.4"></path><path d="M1227.7 68.5h119.5V116h-119.5V68.5Zm242.3 0h119.5V116H1470V68.5Zm358.5 0h430.6V116h-430.6V68.5Z" fill="#f1f1f1" stroke-width="0"></path><path d="M1714 68.5h119.5V116h-119.6V68.5Zm240.6 0h121.1V116h-121.1V68.5ZM586 947.5h895.5v47.6H586v-47.5Z" fill="#f1f1f1" stroke-width="0"></path><path d="M497.6 947.6H622V995H497.6v-47.5Zm245.6 0h121.2V995H743.2v-47.5Zm240.7 0h121V995H984v-47.5Zm242.2 0H1349V995h-123v-47.5Zm589.3 0h422.4V995h-422.4v-47.5Zm-347 0h264V995h-264v-47.5Z" fill="#f1f1f1" stroke-width="0"></path><path d="M1709 947.6h124.5V995H1709v-47.5Zm244 0h122.7V995H1953v-47.5Z" fill="#f1f1f1" stroke-width="0"></path><path d="M1253.1 777.2h781m-1514.8 0h737.5m777.4-602h-1544m-9.7 303.1H1260m-888 0h109.1M367.1 748V602.2m891.5-124h775.6m-777.4 276V116m111.3 0v638m0 0V116m111.3 0v638m0 0V116m111.2 0v638m111.4 0V116m111.2 0v638m0-633.6V116m111.3 0v4.5m0 633.6V116m109.7 122.8H1254m780 120h-777.3v-60.2h777.4M1256.4 718H306.5M589 658.7v288.9M477.7 747.9v-89.2m222.5 0v288.9m-111.3 0V658.7m222.6 0v288.9m-111.3 0V658.7m334 0v288.9m111.2-288.9v60m-111.3 0v-60m222.6 0v288.9m-111.3 0V658.7M519.3 837h737.5m-1.5 60.2h-736m0-60.2h736m-736 59.8h736m1-478H658.2M589 359.6v42.9m0 63.8V657m-111.3 0V466.3m0-63.8v-42.9m222.5 0V657M589 657V466.3m0-63.8v-42.9m222.5 0V657m-111.3 0V359.6m334 0V657m111.2-297.4v60m-111.3 0v-60M479.5 538H1260m-888 0h877.6m11.4 120H306.5m65.7-60.2H1261m773.2-179h-777.4v-59m111.3 0V657m-111.3 0V359.6m222.6 0V657m-111.3 0V359.6m222.5 0V657m-111.2 0V359.6M1702 657V359.6m111.2 0V657m111.3 0V359.6M1258.6 538h775.6m-777.4 60v-60h777.4" fill="none" stroke="#f1f1f1" stroke-miterlimit="100.5" stroke-width="1.2"></path><path d="M2034.2 658h-777.4v-60.3h777.4m0 120.2h-777.4v-59.2m111.3 0v288.9m-111.3 0V658.7m222.6 0v288.9m-111.3 0V658.7m222.5 0v288.9m-111.2 0V658.7m333.8 0v288.9m-111.2 0V658.7m222.5 0v60m-111.3 0v-60m111.3 288.9V658.7M1258.6 837h775.6m-777.4 60.2V837h777.4" fill="none" stroke="#f1f1f1" stroke-miterlimit="100.5" stroke-width="1.2"></path><path d="M1256.8 947.6v-50.8h777.4M477.7 299.1v-55.3m12.6-5h765m-777.6 509V466.4m0-63.8V243.8m0-126.6V116m111.3 0v286.5m0 63.8v287.8m0 0V466.3m0-63.8V116m111.2 0v638.1m0 0v-638m111.3 0v638m222.6-638v638m0-633.6V116m111.3 0v4.5m0 633.6V116m111.3 0v638.1M490.3 238.8h545.2m220.9 120H372.2m0-60.2h884.2m-334.5 649V116m-549.7 0 1662 1.8" fill="none" stroke="#f1f1f1" stroke-miterlimit="100.5" stroke-width="1.2"></path><path d="M1881.2 947.6h153M1093.7 116l1.2 485.5m-441.7.5h-271" fill="none" stroke="#f1f1f1" stroke-miterlimit="100.5" stroke-width="1.6"></path><path fill="none" stroke="#f1f1f1" stroke-miterlimit="100.5" stroke-width="1.2" d="M764.5 425.7H663"></path><path d="m1091.9 142.2 36.5 51.8-37.2 17.8m2.5 312.1 40 56.7-39.6 18.7m-445.7 2.3L594 640l-16.6-36.2M382.5 601l53.2 37.6 16.6-35.8M304.9 740.5l29-65.8-27.4-1c3-3.8 11.5-9.8 15.2-13.5l-21.3-48.5" fill="none" stroke="#f1f1f1" stroke-miterlimit="100.5" stroke-width="6.5"></path><path d="M1098.5 207.7v319.2h-9.9V207.7h9.9ZM663 399.2v206.3h-9.8V399.2h9.8Zm-144 0v204.7h-10V399.2h9.8ZM373.2 112.8v4.4h-1v126.6h1v355.1H360V112.8h13.2Z" fill="#f1f1f1" stroke-width="0"></path><path d="M289.8 595.6h94.9v13.1h-95v-13Zm353.5 0H661v13.1h-17.7v-13Z" fill="#f1f1f1" stroke-width="0"></path><path d="M654.8 595.6h443.7v13.1H654.8v-13ZM368.3 394.3H663v9.8H368.3v-9.8Zm80.3 201.3h131v13.1h-131v-13ZM370 435.2h291.3v9.8H370v-9.8Zm-1.7 26.2h291.4v9.8H368.3v-9.8Zm686 355.2h34.3v36h-34.4v-36Zm736.6-712h34.4v32.7h-34.4v-32.7Zm-1300.6-3.3H527v36.6h-36.8v-36.6ZM1105 68.5H985.5V116h68.5v19.6h34.6v9.9h9.9V116h6.5V68.5Z" fill="#f1f1f1" stroke-width="0"></path><path d="M435.1 602.2v-131m72.4 57.3H373.3" fill="none" stroke="#f1f1f1" stroke-miterlimit="100.5" stroke-width="1.2"></path><path d="m473.7 508-2-3m18.5 48 2 2m.5 7-1.3 1.3m5-2.9-3.7 1.5m6-1.5 2.7.9m-3.8-2.5 1 1.6m-2-4 1 2.4m-6.6-3-2.2.8m4.3-.7H491m5.7.5-3.6-.5m5.2 2.2-1.6-1.7m2.4 2.5-.8-.8m1.7 1.7-.9-.9m2.3 2.4-1.4-1.5m4.6 3-3.2-1.5m2.4-16.7h-1m3.7-.8-2.7.8m4.5-.3-1.8-.5m-.3 1.2 2 .8m-4.1-.8h2m-3.5 1.5 1.5-1.5m-2.6 2.7 1-1.2m-1 3.1v-1.9m-.6 3.7.6-1.8m-2 4.1 1.4-2.3m-1.4 4.3v-2m1 3.9v1.5m-1.8-4.9 1.7 3.4m-1.6-4.8-.1 1.4m1.7-3.8-1.6 2.4m1.6-4.3v1.9m.8-3.9-.8 2m-1-1.7 1.8-.3m-3.4.6 1.6-.3m-2.5-.6.9.9m-4.4.6 3.5-1.5m-6.8 2 3.3-.5m-5-.2 1.7.7m7.4-4 .5.6m-2.4 0 2-.5m-4 1 2-.5m-3-.4 1 1m-3.7.6 2.7-1.6m-5-9.4-1.6.2m3.3 1.6-1.8-1.8m5 4-3.2-2.2m4.6 3.8-1.5-1.6m3.4 2.6-1.9-1m6.5 1.7-1 1m-1.9-2.4 2.9 1.4m-6-3 3.1 1.6m-5.8-2.8 2.7 1.3m-4.2-2 1.5.7m-3.8-2 2.3 1.2m-4.2-2 2 .9m-3.5-.2 1.5-.8m-3.4-.5 2 1.3m-3.4-2.2 1.4 1m7.3-1.2 1.1 1.3m-2.4-2 1.3.7m-3 .3 1.7-1m-3.5.4 1.8.6m-2.4-1.3.6.7m.9-2.2-1.5 1.5m-.8-2.5 1.5.6m-1-2-.5 1.4m14 7.5-1.2-.6m3 .6h-1.9m3.4 0h-1.6m6.2.7-4.6-.7m6.5.8.8.5m0 1.9-.8-2.4m-.5-2 1.3 1.4m-2.9-1.1 1.6-.3m-3.7-.6 2.1.9m-4.7-.9h2.6m-5.4-1.2 2.8 1.2m-5.4 0 2.6-1.2m-5.8 0 3.2 1.2m-5-3.2 1.8 2m-1.9-3.3v1.3m0-4v2.7m-9.3 19 3 3m7.7 11 5.6-3m-10.1 3.8 4.5-.8m-10 5.3 5.5-4.5m-18.2 11-.7.6m2.9-.7h-2.2m6.2-2.1-4 2.1m8.9-3.2 3.2-1.8m-9.5 5.4 6.3-3.6m-9.5 4 3.2-.4m-6.5 1.7 3.3-1.2m-4.4 0 1 1.2m-3.7-1.2h2.7m-16.8 4.2 1.2-1.2m3-1.8-4.2 3m8.6-3.7-4.4.7m8.7-1.4-4.3.7m6.8-2-2.5 1.3m5.3-.8-2.8-.4m8.3-1.2-5.5 1.6M459 574l3.8-1.6M453 576l6-2m-9 3.7 3-1.7m-3.7 1 .8.7m7-9.6-2.1 2.3m2-6.8 1.9 1.3m-5.3-.6 3.4-.7m6 0-3.7-2.4m5.6 3.8-2-1.3m5.2 1.3H465m11.5-1.7-2.7.4m5 .1-2.3-.5m4.4 0-2 .5m5.3-2-3.3 1.6M454 546h-2.3m17.4-20.3 2-1.4m-3.2 9.6 1.9.4m-3.8-.8 2 .4m-5 13.8-1-.3m4 .1-3 .2m6.5.8-3.5-1m.7 1h2.8m-3.3 2.2.5-2.2m2.8 4.3-3.3-2.1m-2.1 2h5.4m-12-.6 6.6.7m-10.4-.7h3.8m-7.8-2 4 2m-4.3-1.9.3-.1m2.6 6.7-3-1.7m4 1.7h-1m1.7-1.5-.7 1.5m2.5-2.3-1.8.8m7.3.1-5.5-.9m9.3 2.3-3.8-1.4m6.6 1.4H465m4.7 1.3-2-1.3m3.7 1.3h-1.7m1.2-1.5.5 1.5m.2-1.7-.7.2m3.3 1-2.6-1.2m4.7 2.7-2.1-1.5m4 1.5h-2m.7-1.3 1.3 1.3m-.8-1.8-.5.5m3.2-1-2.7.5m5.4-.5h-2.7m1.3-.5 1.4.5m-3.3-2.2 2 1.7M477 552l2.4 2.5m-5.8-3 3.4.5m-6-2.1 2.6 1.6m-3.3-2.7.7 1.1m2.3-2-3 .9m5-1-2 .1m4.2.7-2.2-.9m5.8 1.4-3.6-.5m-1.9-2.3 2.7 1.3m-5.5-1.3h2.8m-5.3 0h2.5m-4.3-.5 1.8.5m-3-1.4 1.2 1m-2.4-.4 1.2-.6m-2.8.6h1.6m-1.6-1v1m-2.4-2.5 2.4 1.5m5.8-2.5 1.2-1.3m-1.2 2.4V542m-.8 2.7.8-1.6m1.6 2.1-2.4-.5m4.7.5H472m5.1 1-2.8-1m4.1 2.4-1.3-1.3m4 2.8-2.7-1.5m4.1 1.5h-1.3m.6-.9.7 1m-2-1.8 1.3.8m-1.6-3.9.3 3m-.3-4.6v1.6m-2.2-4 2.2 2.4m-3.3-2 1.1-.4m-3.4.5h2.3m-3.8-1.6 1.5 1.6m-3.7-3.6v2.8m-1.8-3.4 1.8.6m3.3-.8 1.4 1.5m-1.8-3 .4 1.5m-2.5-1.5h2m22.4 16.2 1.4 1.5m-3.8-2.5 2.4 1m-4.8-1.7 2.4.7m-4-.7h1.6m-3-.7 1.4.7m-3.9-.7h2.4m-4-.6 1.6.6m-2.5-2.5v1m4.5.2h.7m-2.2-1.6 1.5 1.6m-2.3-2.4.8.8m-3.1-1.5 2.3.7m-3-1.4.7.7m-1.1-1.7.4 1m-.8-2.6.4 1.6m-1.8-3 1.4 1.4m.1-.4-1.5-1m4 1h-2.5m4.5 1-2-1m2 0v1m-2.4-2.4 2.4 1.4m-6.3-2.9 3.9 1.5m-5.7-.6 1.8-.9m-3.3-.1 1.5 1m-3.3-3 1.8 2m.8-2.5-2.6.6m3.3.2-.7-.8m1.6 0-.9.8m.9-1.7v.9m1.2-2.2-1.2 1.3m15.9-56.5-1.2 1.6m2-5.5-.8 3.9m7.5 25.1-2.5.8m-17.3 10 2.4 1.2m-.2 1.9h3m-6.7-2.1 3.7 2m-7.3-2h3.6m-9.8 7.6-1.4 1m3.5-.3-2-.7m3.1-.5-1.1 1.2m-.6-2 1.7.8m-14.3 8h2M458 528l1.4 1.5m-3-2.4 1.6 1m1.5-3-3.2 2m4 10.5-2.7.7m3.2-1-.4.3m3.7-3-3.3 2.7m2.8-4.7.5 2.1m.8-2.1h-1.3m-8.4 14.3 5.3 1.5m-11.1.9h-.1m2.8 1.3-2.7-1.3m7.4 1.3h-4.7m11 1.2-6.3-1.2m5.9.7.5.5m1.8-1.4-2.3.9m1.8-2.6.5 1.7m-3.2-1.7h2.7m-5.9-2.5 3.2 2.5m-9.2-1.2 6-1.3m-9.3 1.3h3.3m-2.8-2h-.5m5.1-.6-4.6.5m7.8.1-3.2-.6m8.6 1.6-5.4-1m6.1-.3-.7 1.3m-2.1-3 2.8 1.7m.8-2.4-3.6.6m7 .5-3.4-1.1m3.8-.4-.4 1.5m.4-3v1.5m3.3-1.5h-3.3m4-1.8-.7 1.8m-3.3-3.6 4 1.8m-7.8-1.8h3.8m-7.4 1 3.6-1m-6.9 1h3.3m-8.6 1.5-3 1m3.9-2.2-1 1.2m4.4-1.9-3.4.7m6.4-2-3 1.3m5.3-3.8-2.3 2.5m1.5-5.3.8 2.8m3.7-2.8h-4.5m6-2.7-1.5 2.7m3.2-4.3-1.6 1.6m2-3.7-.4 2m-.2-2.6.7.6m1 1.3.6-1.8m-2.4 4.3 1.8-2.5m-4.1 5.9 2.3-3.4m-1.7 4-.6-.6m2.7.6h-2.1m5.9 1-3.8-1m4.8.5-1 .5m2.5.6-1.5-1m4.5-1.2-3 2.2m6.2-1.6-3.2-.6m4.5 0-1.3.6m1.3-2.4v1.8m-2.7-1.8h2.7m-1.3-1.4-1.4 1.4m.9-2.8.5 1.4m-2.6-1.7 2 .3m-4.8-2.1 2.8 1.8m-5-2.8 2.2 1m-5-1h2.7m4.3.5 3.8 1.3m-5.1-3.5 1.3 2.2m29.3-3.4-4.6 1.7m5.3.9.3.2M507 520l1.3-.3m-.9 2.5-.4-2.2m0 3.2.4-1m-4.7 1h4.3m-3.2 10 3.2 3.3m-8.7-7.9 5.5 4.5m-7.5-6.6 2 2.1m1.7-3.5-3.7 1.4m-1.2-.5 5-.9m-8.9.9h4m-6.3 2.4 2.3-2.4m-6.8 1 4.5 1.4M481 526l3.3 1m-6.4-1h3.1m-6-3 2.9 3m-1.3-4.7-1.6 1.6m3.8-1-2.2-.6m4.4 1.2-2.2-.6m5.5-1.2-3.3 1.8m3.4-17.3 1.3 6.6-1 4.5-.4 4.4-3.3 1.8m-2.6-1.8 2.6 1.8m-6.7-1.8h4m-3-4.4-1 4.4M453 507.2v-2.5m1.6.8-1.6 1.7m6.9-2.5 2 2.2m1-1.3 2 5.3m-4-7.2 2 2m-2-5v3m-3.3-5.4 3.4 2.4m29-4.8 2.7.5m8.8 1.8-1 1m3.6-1.5-2.6.5m4.4-2.5-1.8 2m4-3.3-2.2 1.3m1 11.7 1.3-.4m-2.2-1.3.9 1.7m-2.5-4.8 1.6 3m-3.6-4.4 2 1.4m-19.5 3.2-1 1m2-3.4v1.5m2-4.6-1.2 1.2m1.1-3.4v2.2m-38.3 9.3-.3-.2m1.1 1-.8-.8m.8-1v1.9m1-2.9-1 1m1-1.7v.7m3.6-3.8-.7-.2m2.3.8-1.6-.6m4 .6h-2.4m2.3-1.2v1.2m.6-3-.6 1.8m-1.4-4 2 2.2m6.8-1.7H464m-.8.4v2m-2.8-3.2 2.8 1.2m-2.8-2.6v1.4m1.3-2-1.3.6m3.2-.3-1.9-.3m5.1 1.8-3.2-1.5m9.4 12.5h1m-3 1 .8-.8m-.8 2.6v-1.8m-.3 3.1 2.5.5m-6.6-1.2 4.1.7m-6.7-1.2 2.6.5m-13.2-1.6 10.6 1.1m-10.6-1.1-4.1-.8m2.9-.5 1.2 1.3m-1.2-2.6v1.2m1.5-1.2h-1.5m4.5-2.4-3 2.4m4.5-2.4h-1.5m4 1-2.5-1m4.3 3-1.9-2m1.9 3.4v-1.4m1.5 3.1-1.5-1.7m4 0v2.2m-1.2-5.2 1.3 3m-3-6.7 1.7 3.7m-.7-6.4-1 2.7m3.2-3.4-2.2.7m4 1-1.8-1.7m4.5 2.5-2.7-.7m3 2.6-.3-1.9m4.3 6.7v1.1m-1.9-3 1.9 2m-3.1-5.6 1.2 3.6M471 503l1.5 1.5m-5-4.2 3.5 2.7m-3.2-4.3-.3 1.6m.9-1.6h-.6m2.4.4-1.8-.4m5.7 1.2-4-.8m-2-2.2-4.9-3.5m8.1 4.8-3.3-1.3m6.1 3-2.8-1.7m7 4.2-4.2-2.5m9.6 1.3-5.3 1.2m6.4-25.1-2 3.7m-5-.6-.9 2.8m2.6-4.5-1.6 1.7m3.3-2.3-1.7.6m2.2-3.4-.5 2.8m2-4.1-1-1.3m3.2 4.5L483 474m6.7 5.9-4.4-2.7M487 495l.4.5m-.4-2.8v2.3m1.2-3.6-1.2 1.3m1.8-4.2-.6 2.9m2 0 .8-2.4m-.9 5.3v-2.8m-1.1 4.9 1.1-2m-3.5 3.6 2.4-1.6m-4.8 5 2.4-3.4m4 5-4.3 2.6m7.7-4.3-3.4 1.7m7.9-2.7-4.5 1m2-1h2.5m-3.5-2.5 1 2.5m-3-7 2 4.6m-41.5 23.6-4.3.6m6.8.8-2.5-1.4m15 2.8-12.5-1.4m14.5-1.3-2 2.7m4.9-5-2.9 2.3m4-6-1.1 3.7m2.2-5-1.2 1.4m3.9-3.8-2.7 2.5m5.5-6-2.8 3.5m7.4-4.8-4.6 1.4m12-6.3-7.4 4.9m15.5-6.2-8 1.3m3.4-3 4.6 1.7m-4.6-3v1.2m-2.1-5.5 2.1 4.3m-5.3-11 3.2 6.7m-2.3-13.3-1 6.6m4.8-8.6-3.8 2m4.5-5.6-.7 3.6m1.3-6.5-.6 2.9m11.5-2.8h-.1m-59 10.4 2 1.4m54.1 91.6-1.3 1.3m2.8-5.2-1.5 3.8m1.5-6.2-.8-2.8m2.3 3.9-1.5-1m1.4-.5h0m-.8-1 .8 1M506 566l1.4 1.4m-2.8-4.8 1.4 3.4m2.3 1h-.2m-5 9.3 2.9-6m-3.7 10.7.8-4.7m-5 10.4 4.2-5.7m-8.4 12.5-.8 1.7m1.8-6.8 1.8-3.4m-5.1 10 3.3-6.6m-3.4 6.8v-.3m12.4-2.7-.3 2.8m-.1-5.3.4 2.5m0-4.7-.4 2.2m2-5.7-1.6 3.5m4.1 4.8.3.4m-.3-2.5v2m.3-1.7-.3-.3M449.3 503h2.2m-.7-1.7-1.5 1.7m2.2-7.3-2-2.2m1.2-1-1.4-.5m3.3 2.6-1.9-2m4.7 2h-2.8m5.1 3.5-2.3-3.5m-5.8 10h-.3m3.1-3.6.3.7m-.9-2.4.6 1.7m-.6-4.2v2.5m1.3-2.5h-1.3m3-.6-1.7.6m3.7 1.6-2-2.2m1.6-7v2.3m-.3.9h-2m3.1 2.9-1.1-2.9m2.4 2.9h-1.3m2-1.4-.7 1.4m.3-3.4.3 2m-1.7-5.3 1.4 3.3m-8.9 7.3-.6.8m.6-2.4v1.6m-.6-3.2.6 1.6m2.2-5.6-2.8-1.4m5.3.3-2.5 1m3.3-3.4-.8 2.4m-1-4.2 1.8 1.8m-2.5-4.6.7 2.8m-2.4-3.2 1.7.4m-1.1-1.2-2.5-1m4 2.5-1.5-1.5m4 5.1-2.5-3.6m4 3.3-1.5.3m1.5-.8v.5m-.4-2.4.4 1.9m-1.1-6 .7 4m2.2 2.3 3.3 5m-4.6-8.4 1.3 3.4m-3-6.3 1.7 2.9m-4-7.4 2.4 4.5m-1.3-9.4-1 4.9m20.6-4.9-.3.1m.6 5.4-2.7 1m4.3-2.8-1.6 1.8m2.2-3.6-.6 1.8m3.2-2.3-2.6.5m4-1.9 1.2.9" fill="none" stroke="#f1f1f1" stroke-linecap="round" stroke-linejoin="round" stroke-width=".6"></path><path d="M428.3 513.9V471h-41.5v42.8c0 11.1 9 20.2 20.3 20.2h.9c11.2 0 20.3-9 20.3-20.2Z" fill="#f1f1f1" stroke-width="0"></path><path d="M428.3 513.9V471h-41.5v42.8c0 11.1 9 20.2 20.3 20.2h.9c11.2 0 20.3-9 20.3-20.2Z" fill="none" stroke="#f1f1f1" stroke-miterlimit="100.5" stroke-width=".4"></path><path d="M429 514.3v-28c0-3.2-2.6-5.8-5.8-5.8h-31a5.8 5.8 0 0 0-5.9 5.9v28a21 21 0 0 0 20.9 20.8h1c11.5 0 20.8-9.4 20.8-20.9Z" fill="#f1f1f1" stroke-width="0"></path><path d="M429 514.3v-28c0-3.2-2.6-5.8-5.8-5.8h-31a5.8 5.8 0 0 0-5.9 5.9v28a21 21 0 0 0 20.9 20.8h1c11.5 0 20.8-9.4 20.8-20.9Z" fill="none" stroke="#f1f1f1" stroke-miterlimit="100.5" stroke-width=".4"></path><path d="M427.5 513.9v-26.6c0-2.7-2.1-4.9-4.8-4.9h-30a4.9 4.9 0 0 0-4.9 4.9v26.6c0 10.7 8.7 19.4 19.4 19.4h1c10.6 0 19.3-8.7 19.3-19.4Z" fill="#f1f1f1" stroke-width="0"></path><path d="M427.5 513.9v-26.6c0-2.7-2.1-4.9-4.8-4.9h-30a4.9 4.9 0 0 0-4.9 4.9v26.6c0 10.7 8.7 19.4 19.4 19.4h1c10.6 0 19.3-8.7 19.3-19.4Z" fill="none" stroke="#f1f1f1" stroke-miterlimit="100.5" stroke-width=".4"></path><path fill="#f1f1f1" stroke="#f1f1f1" stroke-miterlimit="100.5" stroke-width=".4" d="M489.6 591.9h-37.8v-64.1h37.8v64.1z"></path><path fill="#f1f1f1" stroke="#f1f1f1" stroke-miterlimit="100.5" stroke-width=".4" d="M485.9 588.8h-31.5v-57.9h31.5v57.9z"></path><path d="M473.9 559.1c0-2.4 1.9-4.4 4.3-4.4s4.3 2 4.3 4.4-1.9 4.5-4.3 4.5-4.3-2-4.3-4.5Z" fill="none" stroke="#f1f1f1" stroke-miterlimit="100.5" stroke-width=".4"></path><path fill="#f1f1f1" stroke="#f1f1f1" stroke-miterlimit="100.5" stroke-width=".4" d="M478.6 555.9h18.8v6.5h-18.8v-6.5z"></path><path fill="#f1f1f1" stroke="#f1f1f1" stroke-miterlimit="100.5" stroke-width=".4" d="M482.5 557.4h10.7v3.4h-10.7v-3.4z"></path><path fill="none" stroke="#f1f1f1" stroke-miterlimit="100.5" stroke-width=".4" d="M493.2 555.7v6.8"></path><path d="M590.9 602.2v-131m62.5 57H519" fill="none" stroke="#f1f1f1" stroke-miterlimit="100.5" stroke-width="1.2"></path><path d="m553.9 507.9 2-3m-18.4 47.9-1.9 2m-.6 7 1.4 1.3m-5-2.8 3.6 1.4m-5.8-1.5-2.7.9m3.7-2.5-1 1.6m2-4-1 2.4m6.6-2.9 2.1.7m-4.3-.7h2.2m-5.7.5 3.5-.5m-5 2.2 1.5-1.7m-2.4 2.5.8-.8m-1.7 1.7.9-.9m-2.2 2.4 1.3-1.5m-4.5 3 3.2-1.5m-2.4-16.6h1m-3.7-.9 2.7.9m-4.5-.3 1.8-.6m.3 1.2-2 .8m4.1-.8h-2m3.5 1.5-1.5-1.5m2.5 2.8-1-1.3m1 3.1v-1.8m.6 3.7-.6-1.9m2 4.1-1.4-2.2m1.4 4.3v-2m-1 3.8v1.5m1.9-5-1.8 3.5m1.6-4.8.2 1.4m-1.8-3.8 1.6 2.4m-1.6-4.3v2m-.7-3.9.7 1.9m1-1.7-1.7-.2m3.4.5-1.7-.3m2.5-.6-.8.9m4.3.6-3.5-1.5m6.8 2-3.3-.5m4.8-.2-1.5.7m-7.4-4-.5.6m2.4 0-2-.5m4 1.2-2-.7m3-.3-1 1m3.7.5-2.7-1.5m5-9.4 1.5.1m-3.2 1.7 1.7-1.8m-4.9 4 3.2-2.2m-4.6 3.7 1.4-1.5m-3.3 2.5 1.9-1m-6.4 1.7 1 1.1m1.8-2.5-2.8 1.4m5.8-2.9-3 1.5m5.7-2.8-2.7 1.3m4.2-2-1.5.7m3.8-1.9-2.3 1.1m4.2-2-1.9 1m3.4-.3-1.5-.8m3.3-.4-1.8 1.2m3.3-2.2-1.5 1m-7.1-1-1.2 1m2.5-1.9-1.3.8m3 .3-1.7-1m3.4.3-1.8.7m2.4-1.3-.6.6m-.9-2.2 1.5 1.6m.8-2.6-1.5.7m1-2.1.5 1.4m-13.8 7.6 1-.7m-2.8.7h1.8m-3.3 0h1.5m-6.1.6 4.6-.6m-6.6.7-.7.5m0 2 .7-2.5m.6-2-1.3 1.4m2.9-1.1-1.6-.3m3.7-.5-2.1.8m4.6-.8h-2.5m5.3-1.3-2.8 1.3m5.4 0-2.6-1.3m5.8 0-3.2 1.2m5-3.1-1.8 2m1.8-3.4v1.4m0-4.2v2.8m9.2 19-2.9 3m-7.6 11-5.6-3m10 3.8-4.4-.8m9.8 5.3-5.3-4.4m18 10.8.6.8m-2.8-.8h2.1m-6.1-2.2 4 2.2m-8.8-3.2-3.2-1.8m9.4 5.4-6.2-3.6m9.3 4.1-3.1-.5m6.4 1.6-3.3-1.1m4.4 0-1 1.1m3.7-1.1h-2.7m16.7 4.2-1.3-1.2m-3-1.8 4.3 3m-8.6-3.7 4.4.7m-8.7-1.4 4.3.7m-6.7-1.9 2.4 1.2m-5.1-.8 2.7-.4m-8.2-1.1 5.5 1.5m8.3-1.8-3.7-1.8m9.7 3.8-6-2m8.9 3.6-3-1.6m3.8 1-.8.6m-7-9.5 2.1 2.3m-2-6.8-1.8 1.3m5.2-.6-3.4-.7m-5.9 0 3.6-2.4m-5.5 3.8 2-1.3m-5.2 1.3h3.2m-11.4-1.7 2.7.4m-5 .1 2.3-.5m-4.4 0 2.1.5m-5.4-2 3.3 1.5m26.7-17.4h2.3m-17.3-20.2-1.9-1.4m3.1 9.6-1.9.4m3.8-.8-1.9.4m4.9 13.7 1-.3m-4 .2 3 .1m-6.5.8 3.5-1m-.7 1h-2.8m3.3 2.2-.5-2.2m-2.8 4.3 3.3-2.1m2.1 2h-5.4m11.9-.6-6.5.7m10.3-.7H570m7.8-2-4 2m4.3-1.9-.3-.1m-2.6 6.7 2.9-1.7m-3.9 1.7h1m-1.7-1.4.7 1.4m-2.5-2.3 1.8.9m-7.2 0 5.4-.9m-9.3 2.3 3.9-1.3m-6.5 1.3h2.6m-4.6 1.3 2-1.3M556 558h1.7m-1.2-1.5-.4 1.5m-.2-1.7.6.2m-3.2 1 2.6-1.2m-4.7 2.7 2.1-1.4m-4 1.4h2m-.7-1.3-1.3 1.3m.9-1.8.4.5m-3.2-1 2.8.5m-5.4-.5h2.6m-1.3-.5-1.3.5m3.2-2.2-1.9 1.7m4.3-4.2-2.4 2.5m5.8-3-3.4.5m6-2-2.6 1.5m3.3-2.7-.7 1.1m-2.3-2 3 .9m-5-1 2 .1m-4.2.7 2.2-.8m-5.7 1.3 3.5-.5m1.9-2.2-2.7 1.2m5.4-1.2H552m5.3 0h-2.6m4.4-.6-1.8.6m3-1.4-1.2.8m2.3-.4-1.2-.4m2.8.4h-1.6m1.6-.8v.8m2.4-2.4-2.4 1.6m-5.8-2.6-1.1-1.2m1.1 2.4V542m.8 2.7-.8-1.5m-1.5 2.1 2.3-.6m-4.6.6h2.3m-5.1 1 2.8-1m-4.1 2.3 1.3-1.3m-4 2.8 2.7-1.5m-4 1.5h1.3m-.6-.8-.8.8m2-1.7-1.2.9m1.5-4-.3 3m.3-4.6v1.7m2.2-4-2.2 2.3m3.3-1.9-1.1-.4m3.4.4h-2.3m3.8-1.6-1.5 1.6m3.6-3.6v2.9m1.9-3.5-1.9.6m-3.2-.7-1.4 1.4m1.8-3-.4 1.6m2.4-1.6h-2M531.7 551l-1.4 1.5m3.8-2.5-2.4 1m4.7-1.6-2.3.6m3.9-.6h-1.6m3-.7-1.4.7m3.8-.7h-2.3m4-.6-1.7.6m2.6-2.5v1m-4.5.1h-.7m2.2-1.6-1.4 1.6m2.2-2.4-.8.8m3.1-1.4-2.3.6m3-1.3-.7.7m1.1-1.8-.4 1m.8-2.6-.4 1.6m1.7-3-1.3 1.4m-.1-.4 1.4-1m-3.8 1h2.4m-4.5 1.1 2-1m-2 0v1m2.4-2.5-2.4 1.4m6.2-2.8-3.8 1.4m5.6-.6-1.8-.8m3.3-.2-1.5 1m3.3-2.9-1.8 1.9m-.7-2.5 2.5.6m-3.3.2.8-.8m-1.6 0 .8.8m-.8-1.7v.9m-1.2-2.2 1.2 1.3m-15.8-56.4 1.2 1.6m-2-5.5.8 3.9m-7.5 25.2 2.5.7m17.2 10-2.5 1.2m.3 1.8h-3m6.6-2-3.6 2m7.2-2h-3.6m9.7 7.5 1.5 1.1m-3.5-.3 2-.8m-3.2-.4 1.2 1.2m.6-2-1.8.8m14.3 8h-2m4.2-2-1.4 1.6m3-2.4-1.6.9m-1.5-3 3.2 2m-4 10.6 2.7.6m-3.1-1 .4.4m-3.7-3 3.3 2.7m-2.8-4.8-.5 2.1m-.8-2h1.3m8.3 14.2-5.3 1.6m11 .8h.2m-2.8 1.3 2.6-1.3m-7.3 1.3h4.7m-11 1.2 6.3-1.2m-5.8.7-.5.5m-1.8-1.3 2.3.8m-1.8-2.5-.5 1.7m3.2-1.7H563m5.8-2.6-3 2.6m9-1.3-6-1.3m9.3 1.3h-3.3m2.7-2h.6m-5.1-.6 4.5.6m-7.7 0 3.2-.6m-8.5 1.7 5.3-1m-6-.4.7 1.4m2-3.1-2.7 1.7m-.8-2.4 3.6.7m-7 .4 3.4-1.1m-3.8-.4.5 1.5m-.5-3v1.5m-3.2-1.4h3.2m-4-1.9.8 1.9m3.2-3.7-4 1.8m7.8-1.8h-3.8m7.4 1-3.6-1m6.8 1h-3.2m8.5 1.6 3 1m-3.9-2.2.9 1.2m-4.3-2 3.4.8m-6.4-2 3 1.3m-5.3-3.8 2.3 2.5m-1.5-5.4-.8 2.9M562 531h4.4m-6-2.6 1.6 2.6m-3.2-4.3 1.6 1.7m-2-3.8.4 2.1m.3-2.7-.7.6m-1 1.4-.7-1.8m2.5 4.3-1.8-2.5m4 5.8-2.2-3.3m1.6 4 .6-.7m-2.7.7h2m-5.7 1 3.7-1m-4.7.4 1 .6m-2.5.5 1.5-1m-4.5-1.2 3 2.2m-6.1-1.5 3-.7m-4.3 0 1.3.7M545 530v1.7m2.6-1.7H545m1.3-1.4 1.3 1.4m-.8-3-.5 1.6m2.6-1.7-2.1.2m4.8-2.1-2.6 2m5-2.8-2.3.9m5-1H554m-4.3.5-3.7 1.3m5-3.4-1.3 2.1m-29-3.3 4.5 1.7m-5.2.8-.3.2m1.3-4.2-1.3-.3m.9 2.5.4-2.2m0 3.2-.4-1m4.6 1H521m3.2 9.8-3.2 3.4m8.6-7.8-5.4 4.4m7.4-6.5-2 2.1m-1.7-3.5 3.7 1.4m1.2-.6-5-.8m8.8.8h-3.8m6.2 2.5-2.4-2.5m6.8 1-4.4 1.5m7.6-2.5-3.2 1m6.3-1h-3m5.9-3-2.9 3m1.3-4.6 1.6 1.6m-3.8-1 2.2-.6m-4.4 1.2 2.2-.6m-5.4-1.2 3.2 1.8m-3.3-17.3-1.3 6.5 1 4.6.4 4.4 3.2 1.8m2.7-1.8-2.7 1.8m6.7-1.8h-4m2.9-4.4 1 4.4m21.2-13.5v-2.5m-1.5.8 1.5 1.7m-6.9-2.5-2 2.2m-.9-1.3-2 5.3m3.9-7.3-1.9 2m1.9-5v3m3.3-5.3-3.3 2.4m-28.8-4.8-2.6.5m-8.8 1.8 1 1m-3.6-1.5 2.6.5m-4.3-2.5 1.7 2m-4-3.3 2.3 1.3m-1 11.6-1.3-.3m2.2-1.4-.8 1.7m2.4-4.7-1.6 3m3.5-4.5-2 1.5m19.4 3.2 1 1m-2-3.4v1.4m-2-4.6 1.2 1.3m-1.1-3.4v2.1m38 9.3.3-.1m-1.2 1 .9-.9m-.9-.9v1.9m-1-3 1 1.1m-1-1.8v.8m-3.5-3.8.7-.2m-2.3.8 1.6-.6m-3.9.6h2.3m-2.3-1.3v1.3m-.6-3 .6 1.7m1.4-3.9-2 2.2m-6.7-1.7h2.3m.8.3v2m2.8-3.2-2.8 1.2m2.8-2.5v1.3m-1.4-2 1.4.7m-3.2-.3 1.9-.4m-5 1.9 3-1.5m-9.2 12.5h-1m3 1-.8-.9m.7 2.6v-1.8m.4 3.2-2.6.5m6.6-1.3-4 .8m6.6-1.2-2.6.4m13-1.6-10.4 1.2m10.5-1.2 4.1-.7m-2.9-.5-1.2 1.2m1.2-2.6v1.3m-1.6-1.3h1.6m-4.5-2.3 3 2.3m-4.5-2.3h1.5m-3.9 1 2.4-1m-4.2 3 1.8-2m-1.8 3.4v-1.4m-1.5 3 1.5-1.6m-4-.1v2.2m1.2-5.2-1.3 3m3-6.6-1.7 3.6m.7-6.3 1 2.7m-3.2-3.4 2.2.7m-4 1 1.8-1.7m-4.4 2.5 2.7-.7m-3 2.6.3-2m-4.2 6.8v1m1.8-3-1.8 2m3-5.5-1.2 3.6m2.7-5.2-1.5 1.6m4.9-4.2-3.4 2.6m3-4.3.4 1.7m-.8-1.5.5-.2m-2.3.5 1.8-.3m-5.7 1 3.9-.7m2-2.2 4.9-3.5m-8 4.8 3.2-1.3m-6 3 2.8-1.7m-7 4.2 4.2-2.6M544 501l5.3 1.3m-6.5-25 2 3.6m5-.6.9 2.8m-2.6-4.5 1.7 1.7m-3.4-2.3 1.7.6M546 475l.4 2.8m-1.8-4.1.9-1.3m-3.2 4.5 2.3-3.2m-6.7 5.9 4.4-2.7m-1.6 17.8-.5.5m.5-2.8v2.3m-1.3-3.6 1.3 1.3m-1.8-4.2.5 2.9m-1.9 0-.9-2.4m1 5.3v-2.9m1 5-1-2.1m3.4 3.7-2.3-1.7m4.7 5-2.4-3.3m-4 5 4.3 2.6m-7.7-4.3 3.5 1.7m-7.9-2.7 4.4 1m-2-1h-2.4m3.5-2.5-1 2.5m3-7-2 4.5m41.2 23.7 4.2.5m-6.8 1 2.6-1.5m-15 2.7 12.4-1.3m-14.4-1.3 2 2.6m-4.8-5 2.8 2.4m-3.8-6 1 3.6m-2.3-4.9 1.3 1.3m-3.9-3.7 2.6 2.4m-5.3-5.9 2.7 3.5M542 507l4.6 1.3m-12-6.3 7.4 5m-15.3-6.2 7.9 1.3m-3.4-3-4.5 1.7m4.5-3v1.2m2-5.6-2 4.4m5.3-11-3.2 6.6m2.3-13.2.9 6.6m-4.7-8.7 3.8 2m-4.5-5.5.7 3.5m-1.3-6.4.6 2.9m-11.4-2.7.1-.2m58.4 10.5-2 1.5M522.6 575l1.3 1.4m-2.7-5.3 1.4 4m-1.5-6.3 1-2.8m-2.4 3.9 1.4-1m-1.3-.6v.1m.8-1-.8 1m2.2-2.4-1.4 1.5m2.8-4.9L522 566m-2.3 1h.3m4.9 9.2-2.9-5.8m3.7 10.6-.8-4.8m5 10.5-4.2-5.7m8.2 12.5.8 1.6m-1.8-6.7-1.7-3.4m5 10-3.3-6.6m3.4 6.7v-.2m-12.3-2.7.4 2.8m.1-5.3-.5 2.5m0-4.7.5 2.2m-2-5.7 1.6 3.5m-4 4.7-.4.4m.3-2.4v2m-.3-1.7.3-.3m58.2-87.2h-2.3m.8-1.6 1.5 1.6m-2.3-7.2 2-2.1m-1.1-1 1.4-.7m-3.3 2.7 1.9-2m-4.7 2h2.8m-5 3.5 2.2-3.5m5.8 10h.3M575 501l-.2.7m.8-2.3-.6 1.6m.6-4.1v2.5m-1.2-2.5h1.2m-2.9-.6 1.7.6m-3.7 1.5 2-2.1m-1.6-7v2.2m.4 1h1.8m-3 3 1.2-3m-2.5 3h1.4m-2-1.5.6 1.4m-.2-3.4-.4 2m1.8-5.3-1.4 3.3m8.7 7.2.7.9m-.7-2.4v1.5m.7-3.1-.7 1.6m-2.1-5.7 2.8-1.4m-5.3.4 2.5 1m-3.2-3.4.7 2.4m1-4.2-1.7 1.8m2.3-4.6-.6 2.8m2.4-3.1-1.8.3m1.2-1.2 2.5-1m-4 2.5 1.5-1.5m-4 5.1 2.5-3.6m-4 3.3 1.5.3m-1.5-.9v.6m.4-2.5-.4 2m1.1-6-.7 4m-2.1 2.3-3.3 5m4.5-8.4-1.2 3.4m2.8-6.4-1.6 3m4-7.4-2.4 4.4m1.3-9.3 1 4.9m-20.4-4.9.3.2m-.6 5.2 2.6 1m-4.3-2.7 1.7 1.7m-2.2-3.5.5 1.8M548 473l2.6.5m-4-1.9-1.1.9" fill="none" stroke="#f1f1f1" stroke-linecap="round" stroke-linejoin="round" stroke-width=".6"></path><path fill="#f1f1f1" stroke="#f1f1f1" stroke-miterlimit="100.5" stroke-width=".4" d="M537.8 590h37.8v-64.1h-37.8V590z"></path><path fill="#f1f1f1" stroke="#f1f1f1" stroke-miterlimit="100.5" stroke-width=".4" d="M541.4 586.9H573V529h-31.6v57.9z"></path><path d="M553.5 557.3c0-2.5-2-4.5-4.3-4.5-2.5 0-4.4 2-4.4 4.5s2 4.4 4.4 4.4c2.3 0 4.3-2 4.3-4.4Z" fill="none" stroke="#f1f1f1" stroke-miterlimit="100.5" stroke-width=".4"></path><path fill="#f1f1f1" stroke="#f1f1f1" stroke-miterlimit="100.5" stroke-width=".4" d="M548.8 554h-18.9v6.5h18.9V554z"></path><path fill="#f1f1f1" stroke="#f1f1f1" stroke-miterlimit="100.5" stroke-width=".4" d="M544.8 555.6h-10.7v3.4h10.7v-3.4z"></path><path fill="none" stroke="#f1f1f1" stroke-miterlimit="100.5" stroke-width=".4" d="M534.1 553.9v6.8"></path><path d="M642 514.1v-42.7h-41.3V514c0 11.2 9 20.3 20.3 20.3h.8c11.3 0 20.3-9 20.3-20.3Z" fill="#f1f1f1" stroke-width="0"></path><path d="M642 514.1v-42.7h-41.3V514c0 11.2 9 20.3 20.3 20.3h.8c11.3 0 20.3-9 20.3-20.3Z" fill="none" stroke="#f1f1f1" stroke-miterlimit="100.5" stroke-width=".4"></path><path d="M642.9 514.6v-28c0-3.2-2.7-5.8-5.9-5.8h-31a5.9 5.9 0 0 0-5.8 5.8v28c0 11.5 9.3 20.9 20.8 20.9h1a21 21 0 0 0 20.9-20.9Z" fill="#f1f1f1" stroke-width="0"></path><path d="M642.9 514.6v-28c0-3.2-2.7-5.8-5.9-5.8h-31a5.9 5.9 0 0 0-5.8 5.8v28c0 11.5 9.3 20.9 20.8 20.9h1a21 21 0 0 0 20.9-20.9Z" fill="none" stroke="#f1f1f1" stroke-miterlimit="100.5" stroke-width=".4"></path><path d="M641.3 514.2v-26.7c0-2.6-2.1-4.8-4.8-4.8h-30a4.9 4.9 0 0 0-4.8 4.8v26.7c0 10.7 8.7 19.3 19.4 19.3h.9c10.7 0 19.3-8.6 19.3-19.3Z" fill="#f1f1f1" stroke-width="0"></path><path d="M641.3 514.2v-26.7c0-2.6-2.1-4.8-4.8-4.8h-30a4.9 4.9 0 0 0-4.8 4.8v26.7c0 10.7 8.7 19.3 19.4 19.3h.9c10.7 0 19.3-8.6 19.3-19.3Z" fill="none" stroke="#f1f1f1" stroke-miterlimit="100.5" stroke-width=".4"></path><path fill="none" stroke="#f1f1f1" stroke-miterlimit="100.5" stroke-width=".8" d="M1588.7 948h121.1"></path><path fill="none" stroke="#f1f1f1" stroke-miterlimit="100.5" stroke-width="3.3" d="M1258.3 135.4v797.2"></path><path d="m1258.3 119.9-7.6 24.6h15.3l-7.7-24.6Zm0 827.1 7.7-24.7h-15.3l7.6 24.7Z" fill="#f1f1f1" stroke-width="0"></path><path fill="none" stroke="#f1f1f1" stroke-miterlimit="100.5" stroke-width="3.3" d="m1107.1 356.9 909.7.6"></path><path d="m1104.6 356.9 24.7 7.7v-15.4l-24.7 7.7Zm929.4 0-24.7-7.7v15.4l24.7-7.7Z" fill="#f1f1f1" stroke-width="0"></path><path fill="none" stroke="#f1f1f1" stroke-miterlimit="100.5" stroke-width=".8" d="M847.4 100.1h629.2V85H847.4v15.1z"></path><path d="M847.4 95h629.2v-5H847.4v5Zm948.4 5.3h219.4v-15h-219.4v15Z" fill="none" stroke="#f1f1f1" stroke-miterlimit="100.5" stroke-width=".8"></path><path d="M1795.8 95.2h219.4v-4.8h-219.4v4.8ZM612.2 979h874.5v-15H612.2v15Z" fill="none" stroke="#f1f1f1" stroke-miterlimit="100.5" stroke-width=".8"></path><path d="M612.2 973.8h874.5v-4.9H612.2v4.9Zm1178.7 5h217.7v-15H1791v15Z" fill="none" stroke="#f1f1f1" stroke-miterlimit="100.5" stroke-width=".8"></path><path fill="none" stroke="#f1f1f1" stroke-miterlimit="100.5" stroke-width=".8" d="M1790.9 973.8h217.7v-4.9h-217.7v4.9z"></path><path fill="#f1f1f1" stroke-width="0" d="M1833 948.2h119.9v-28.4H1833v28.4z"></path><path d="M1836.1 922.6h114.4v22.8h-114.4v-22.8Zm86.5 22.8v-22.8m-5.8 22.8v-22.8m-5.7 22.8v-22.8m-5.8 22.8v-22.8m-5.8 22.8v-22.8m-5.8 22.8v-22.8m-5.8 22.8v-22.8m-5.7 22.8v-22.8m-5.8 22.8v-22.8m-5.8 22.8v-22.8m-5.8 22.8v-22.8m-5.8 22.8v-22.8m-5.7 22.8v-22.8m-5.8 22.8v-22.8m-5.8 22.8v-22.8m92.1 22.8v-22.8m-5.7 22.8v-22.8m17.6 22.8v-22.8m-5.8 22.8v-22.8" fill="none" stroke="#f1f1f1" stroke-miterlimit="100.5" stroke-width="1.5"></path><path fill="#f1f1f1" stroke-width="0" d="M1348.1 947.8h120v-28h-120v28z"></path><path d="M1351.3 922.6h114.3V945h-114.3v-22.4Zm86.4 22.4v-22.4M1432 945v-22.4m-5.7 22.4v-22.4m-5.8 22.4v-22.4m-5.8 22.4v-22.4m-5.8 22.4v-22.4m-5.7 22.4v-22.4m-5.8 22.4v-22.4m-5.8 22.4v-22.4m-5.7 22.4v-22.4M1380 945v-22.4m-5.8 22.4v-22.4m-5.8 22.4v-22.4m-5.8 22.4v-22.4m-5.8 22.4v-22.4M1449 945v-22.4m-5.7 22.4v-22.4m17.6 22.4v-22.4M1455 945v-22.4" fill="none" stroke="#f1f1f1" stroke-miterlimit="100.5" stroke-width="1.5"></path><path fill="#f1f1f1" stroke-width="0" d="M1105 947.6h121.1v-27.8H1105v27.8z"></path><path d="M1108.2 922.5h115.5v22.3h-115.5v-22.3Zm87.3 22.3v-22.3m-5.9 22.3v-22.3m-5.8 22.3v-22.3m-5.8 22.3v-22.3m-5.9 22.3v-22.3m-5.8 22.3v-22.3m-5.8 22.3v-22.3m-5.9 22.3v-22.3m-5.8 22.3v-22.3m-5.8 22.3v-22.3m-5.9 22.3v-22.3m-5.8 22.3v-22.3m-5.8 22.3v-22.3m-5.9 22.3v-22.3m-5.8 22.3v-22.3m93 22.3v-22.3m-5.8 22.3v-22.3m17.8 22.3v-22.3m-5.8 22.3v-22.3" fill="none" stroke="#f1f1f1" stroke-miterlimit="100.5" stroke-width="1.5"></path><path fill="#f1f1f1" stroke-width="0" d="M864.4 947.6h119.5v-27.8H864.4v27.8z"></path><path d="M867.5 922.5h113.9v22.3H867.5v-22.3Zm86.1 22.3v-22.3m-5.7 22.3v-22.3m-5.8 22.3v-22.3m-5.8 22.3v-22.3m-5.7 22.3v-22.3m-5.8 22.3v-22.3m-5.7 22.3v-22.3m-5.8 22.3v-22.3m-5.8 22.3v-22.3m-5.7 22.3v-22.3m-5.7 22.3v-22.3m-5.8 22.3v-22.3m-5.7 22.3v-22.3m-5.8 22.3v-22.3m-5.8 22.3v-22.3m91.8 22.3v-22.3m-5.8 22.3v-22.3m17.6 22.3v-22.3m-5.7 22.3v-22.3" fill="none" stroke="#f1f1f1" stroke-miterlimit="100.5" stroke-width="1.5"></path><path fill="#f1f1f1" stroke-width="0" d="M622 947.6h121.2v-27.8H622v27.8z"></path><path d="M625.2 922.5h115.5v22.3H625.2v-22.3Zm87.3 22.3v-22.3m-5.8 22.3v-22.3m-5.8 22.3v-22.3m-5.9 22.3v-22.3m-5.8 22.3v-22.3m-5.8 22.3v-22.3m-5.8 22.3v-22.3m-6 22.3v-22.3m-5.7 22.3v-22.3m-5.9 22.3v-22.3m-5.8 22.3v-22.3m-5.8 22.3v-22.3m-5.8 22.3v-22.3m-5.9 22.3v-22.3m-5.8 22.3v-22.3m93 22.3v-22.3m-5.8 22.3v-22.3m17.8 22.3v-22.3m-5.8 22.3v-22.3" fill="none" stroke="#f1f1f1" stroke-miterlimit="100.5" stroke-width="1.5"></path><path fill="#f1f1f1" stroke-width="0" d="M1105 145.5h123.9v-28.7H1105v28.7z"></path><path d="M1108.3 119.7h118v23h-118v-23Zm89.3 23v-23m-6 23v-23m-6 23v-23m-6 23v-23m-6 23v-23m-5.9 23v-23m-6 23v-23m-6 23v-23m-5.9 23v-23m-6 23v-23m-6 23v-23m-5.9 23v-23m-6 23v-23m-6 23v-23m-5.9 23v-23m95.2 23v-23m-6 23v-23m18.2 23v-23m-5.9 23v-23" fill="none" stroke="#f1f1f1" stroke-miterlimit="100.5" stroke-width="1.6"></path><path fill="#f1f1f1" stroke-width="0" d="M1347.2 145.5h124v-28.7h-124v28.7z"></path><path d="M1350.5 119.7h118.2v23h-118.2v-23Zm89.3 23v-23m-6 23v-23m-5.9 23v-23m-6 23v-23m-6 23v-23m-5.9 23v-23m-6 23v-23m-6 23v-23m-5.9 23v-23m-6 23v-23m-6 23v-23m-5.9 23v-23m-6 23v-23m-6 23v-23m-6 23v-23m95.2 23v-23m-6 23v-23m18.3 23v-23m-6 23v-23" fill="none" stroke="#f1f1f1" stroke-miterlimit="100.5" stroke-width="1.6"></path><path fill="#f1f1f1" stroke-width="0" d="M1833.5 143.8h121.1V116h-121.1v27.8z"></path><path d="M1836.7 118.8H1952V141h-115.4v-22.2Zm87.2 22.2v-22.2m-5.8 22.2v-22.2m-5.9 22.2v-22.2m-5.8 22.2v-22.2m-5.8 22.2v-22.2m-5.8 22.2v-22.2m-5.9 22.2v-22.2m-5.8 22.2v-22.2m-5.8 22.2v-22.2m-5.8 22.2v-22.2m-5.9 22.2v-22.2m-5.9 22.2v-22.2M1854 141v-22.2m-6 22.2v-22.2m-5.8 22.2v-22.2m93 22.2v-22.2m-5.9 22.2v-22.2m17.9 22.2v-22.2m-5.9 22.2v-22.2" fill="none" stroke="#f1f1f1" stroke-miterlimit="100.5" stroke-width="1.5"></path><path d="M2042.7 829.4H2728m0-601.9h-685.3m0 302.8h545.4m-473.8-414.1v690.1m0 0v-690m111.2 0v690m0 0v-690m111.3 0v690m111.4 0v-690m111.2 0v690m0-633.6v-56.5m111.3 0v56.5m0 633.6V587.8m0-189.9V116.2M2728 291h-685.3m545.4 120h-545.4m0-60.2H2728M2588.1 471h-545.4m71.6-59.2v297.4m111.2-297.4v297.4m-111.2 0V411.8m222.5 0v297.4m-111.3 0V411.8m222.7 297.4V411.8m111.2 0v297.4m111.3 0V587.8m-628 2.3H2728m-685.3 0H2728m0 120h-685.3m0-60.2H2728m0 120.2h-685.3m71.6-59.2v237m111.2-237v237m-111.2 0v-237m222.5 0v237m-111.3 0v-237m334 0v237m-111.3 0v-237m222.5 0v60m-111.3 0v-60m111.3 237v-237m-628 178.3H2728m-685.3 0H2728m-685.3-720.4 685.3 1.1" fill="none" stroke="#f1f1f1" stroke-miterlimit="100.5" stroke-width="1.2"></path><path fill="none" stroke="#f1f1f1" stroke-miterlimit="100.5" stroke-width="1.6" d="m2042.7 947.6 685.3-.2"></path><path d="M2672.4 582.3V405.8m54.9 138.4h-129.4" fill="none" stroke="#f1f1f1" stroke-miterlimit="100.5" stroke-width="1.2"></path><path fill="none" stroke="#f1f1f1" stroke-miterlimit="100.5" stroke-width=".8" d="M2706 441h-108.1"></path><path fill="#f1f1f1" stroke-width="0" d="M2879.5 405.8h-284.8v-8.2h284.8v8.2z"></path><path d="M2598 397.6v193.1h-9.9V397.6h9.8Zm-106.5-293h34.4v32.7h-34.4v-32.7Zm240.7 396.1h-63.8v-8.2h63.8v8.2Zm-1.7 90h-67.1v-8.2h67.1v8.2Z" fill="#f1f1f1" stroke-width="0"></path><path fill="#f1f1f1" stroke-width="0" d="M2706 404.1V499h-6.6v-94.9h6.6z"></path><path d="m2595 491.7 59 41.6 17.7-38.8m-79.2 89 59 41.5 17.7-38.7" fill="none" stroke="#f1f1f1" stroke-miterlimit="100.5" stroke-width="6.5"></path><path fill="none" stroke="#f1f1f1" stroke-miterlimit="100.5" stroke-width=".8" d="M2061 100.3h216.1v-15H2061v15z"></path><path d="M2061 95.2h216v-4.8h-216v4.8Zm455 5.1h216.2v-15H2516v15Z" fill="none" stroke="#f1f1f1" stroke-miterlimit="100.5" stroke-width=".8"></path><path d="M2516 95.2h216.2v-4.8H2516v4.8ZM2064.4 979h185v-15h-185v15Z" fill="none" stroke="#f1f1f1" stroke-miterlimit="100.5" stroke-width=".8"></path><path d="M2064.3 973.8h185v-4.9h-185v4.9Zm484.5 5h142.4v-15h-142.4v15Z" fill="none" stroke="#f1f1f1" stroke-miterlimit="100.5" stroke-width=".8"></path><path fill="none" stroke="#f1f1f1" stroke-miterlimit="100.5" stroke-width=".8" d="M2548.8 973.8h142.4v-4.9h-142.4v4.9z"></path><path fill="none" stroke="#f1f1f1" stroke-miterlimit="100.5" stroke-width="1.2" d="M2670.8 493.3h-75.3"></path><path fill="none" stroke="#f1f1f1" stroke-miterlimit="100.5" stroke-width=".8" d="M2317.2 948h124.4"></path><path d="m2699 524.3-1.7-2m15.4 31.9 1.7 1.3m.4 4.7-1.1.8m4.2-1.8-3.1 1m5-1 2.2.5m-3.2-1.7 1 1.1m-1.7-2.7.7 1.6m-5.5-1.9-1.7.5m3.5-.5h-1.8m4.8.3-3-.3m4.4 1.5-1.4-1.2m2 1.8-.6-.6m1.3 1.1-.7-.5m1.9 1.5-1.2-1m3.9 2-2.7-1m2-11h-.9m3.1-.6-2.2.5m3.7-.1-1.5-.4m-.2.8 1.7.5m-3.4-.5h1.7m-3 1 1.3-1m-2.2 1.8.9-.8m-.9 2v-1.2m-.5 2.5.5-1.3m-1.6 2.8 1-1.5m-1 2.8v-1.3m.7 2.5v1m-1.4-3.2 1.4 2.2m-1.3-3.2-.1 1m1.4-2.5-1.3 1.5m1.3-2.8v1.3m.6-2.6-.6 1.3m-.8-1.1 1.4-.2m-2.8.4 1.4-.2m-2.1-.4.7.6m-3.6.4 2.9-1m-5.7 1.3 2.8-.3m-4.1-.1 1.3.4m6.2-2.6.4.3m-2 0 1.6-.3m-3.3.8 1.7-.4m-2.5-.3.8.7m-3 .4 2.2-1.1m-4.2-6.2-1.3.1m2.7 1-1.4-1.1m4 2.6-2.6-1.4m3.9 2.5-1.3-1m2.9 1.6-1.6-.6m5.4 1.1-.9.7m-1.5-1.6 2.4.9m-5-2 2.6 1m-4.8-1.8 2.2.9m-3.5-1.4 1.3.5m-3.2-1.3 2 .8m-3.6-1.4 1.6.6m-2.8-.1 1.2-.5m-2.7-.3 1.5.8m-2.8-1.5 1.3.7m6-.7.9.7m-2-1.3 1 .6m-2.4.1 1.3-.7m-2.8.3 1.5.4m-2-.8.5.4m.7-1.5-1.2 1m-.7-1.6 1.3.4m-.8-1.4-.5 1m11.6 5-.9-.5m2.4.5h-1.5m2.7 0h-1.2m5.1.4-3.9-.4m5.5.5.6.3m0 1.3-.6-1.6m-.5-1.3 1.1.9m-2.3-.8 1.2-.1m-3-.4 1.8.5m-4-.5h2.2m-4.5-.9 2.4.9m-4.6 0 2.2-.9m-4.8.1 2.6.8m-4.2-2.1 1.6 1.3m-1.6-2.2v.9m0-2.8v1.9m-7.7 12.6 2.5 2m6.4 7.3 4.7-2m-8.5 2.6 3.8-.6m-8.3 3.5 4.5-3m-15 7.3-.6.5m2.4-.5h-1.8m5-1.4-3.2 1.4m7.3-2 2.7-1.3m-7.8 3.5 5.1-2.3m-7.8 2.7 2.7-.4m-5.5 1.1 2.8-.7m-3.7 0 .9.7m-3.1-.7h2.2m-14 2.7 1.1-.7m2.5-1.2-3.6 2m7.3-2.5-3.7.5m7.2-1-3.5.5m5.6-1.2-2 .7m4.2-.4-2.2-.3m6.8-.8-4.6 1m-7-1.2 3.2-1.1m-8.1 2.5 5-1.4m-7.5 2.5 2.5-1.1m-3.2.6.7.5m5.9-6.4-1.8 1.5m1.6-4.4 1.6.8m-4.4-.4 2.8-.4m5 0-3-1.7m4.6 2.5-1.6-.8m4.3.8h-2.7m9.5-1-2.1.2m4.1 0-2-.3m3.7 0-1.7.4m4.5-1.4-2.8 1m-22.3-11.5h-2m14.5-13.5 1.6-1m-2.6 6.4 1.6.3m-3.1-.5 1.5.2m-4 9.2-.8-.2m3.3 0-2.5.2m5.4.5-3-.6m.6.6h2.4m-2.8 1.5.4-1.5m2.4 2.8-2.8-1.3m-1.7 1.3h4.5m-10-.4 5.5.4m-8.6-.4h3.1m-6.5-1.4 3.4 1.4m-3.7-1.2.3-.2m2.2 4.5-2.5-1.1m3.3 1.1h-.8m1.4-1-.6 1m2.1-1.5-1.5.6m6 0-4.5-.6m7.7 1.5-3.1-.9m5.4 1h-2.3m4 .8-1.7-.9m3 .9h-1.4m1-1 .4 1m.2-1.2-.6.2m2.7.7-2.1-.9m3.9 1.9-1.8-1m3.4 1h-1.6m.5-.9 1 .9m-.7-1.2-.3.3m2.7-.7-2.4.4m4.6-.4h-2.2m1-.3 1.2.3m-2.7-1.4 1.6 1m-3.6-2.7 2 1.7m-4.8-2 2.8.3m-5-1.4 2.2 1m-2.9-1.7.7.7m1.9-1.3-2.6.6m4.3-.7-1.7.1m3.5.4-1.8-.5m4.7.9-2.9-.4m-1.6-1.4 2.2.8m-4.5-.8h2.3m-4.5 0h2.2m-3.6-.4 1.4.4m-2.4-1 1 .6m-2-.3 1-.3m-2.3.3h1.4m-1.4-.5v.5m-2-1.6 2 1m4.8-1.6 1-.9m-1 1.6v-.7m-.7 1.8.7-1m1.3 1.4-2-.4m3.9.4h-1.9m4.3.6-2.4-.6m3.4 1.5-1-1m3.3 2-2.3-1m3.5 1h-1.2m.5-.6.7.6m-1.7-1.2 1 .6m-1.3-2.6.3 2m-.3-3.1v1.1m-1.8-2.6 1.8 1.5m-2.8-1.2 1-.3m-2.8.3h1.8m-3-1 1.2 1m-3-2.4v1.9m-1.6-2.4 1.5.5m2.7-.5 1.2 1m-1.5-2.1.3 1m-2-1h1.7m18.5 10.8 1.2 1m-3.2-1.7 2 .7m-4-1.1 2 .4m-3.3-.4h1.4m-2.6-.5 1.2.5m-3.2-.5h2m-3.5-.4 1.5.4m-2.1-1.6v.7m3.7 0h.6m-1.9-1 1.3 1m-1.9-1.6.6.6m-2.5-1 2 .4m-2.6-.8.6.4m-1-1.1.4.7m-.6-1.8.3 1m-1.5-2 1.2 1m0-.3-1.2-.7m3.3.7h-2m3.6.8-1.6-.8m1.6 0v.8m-2-1.7 2 1m-5.1-2 3.2 1m-4.7-.4 1.5-.5m-2.8-.2 1.3.7m-2.8-2 1.5 1.3m.6-1.6-2 .4m2.7 0-.7-.4m1.4 0-.7.5m.7-1.1v.6m1-1.5-1 .9m13.2-37.6-1 1m1.7-3.6-.7 2.6m6.3 16.8-2.2.4m-14.3 6.7 2 .8m-.2 1.2h2.5m-5.6-1.4 3.1 1.4m-6-1.4h3m-8.1 5.1-1.3.7m3-.2-1.7-.5m2.6-.3-1 .8m-.5-1.4 1.5.6m-11.9 5.3h1.6m-3.5-1.3 1.2 1m-2.6-1.6 1.4.6m1.3-2-2.7 1.4m3.4 7-2.3.5m2.6-.7-.3.2m3-2-2.7 1.8m2.3-3.1.5 1.4m.6-1.4h-1m-7 9.5 4.4 1m-9.2.6h-.2m2.4.9-2.2-1m6 1h-3.8m9.2.7-5.3-.7m4.9.4.4.3m1.5-.8-2 .5m1.6-1.7.4 1.2m-2.7-1.2h2.3m-4.9-1.7 2.6 1.7m-7.6-.9 5-.8m-7.8.8h2.8m-2.3-1.3h-.5m4.3-.3-3.8.3m6.5 0-2.7-.3m7.1 1-4.4-.6m5-.3-.6 1m-1.7-2.1 2.4 1.1m.6-1.5-3 .4m5.8.3-2.8-.7m3.1-.3-.3 1m.3-2v1m2.8-1h-2.8m3.4-1.2-.6 1.2m-2.8-2.4 3.4 1.2m-6.5-1.2h3.1m-6.1.7 3-.7m-5.7.7h2.7m-7.2 1-2.5.6m3.3-1.4-.8.8m3.6-1.3-2.8.5m5.3-1.4-2.5 1m4.5-2.6-2 1.6m1.3-3.5.7 2m3-2h-3.7m5-1.8-1.3 1.8m2.7-2.9-1.3 1.1m1.6-2.5-.3 1.4m-.2-1.8.5.4m.9 1 .5-1.3m-2 3 1.5-1.7m-3.4 3.8 2-2.2m-1.5 2.7-.5-.5m2.3.5h-1.8m4.9.7-3.1-.7m4 .3-1 .4m2.2.3-1.2-.7m3.7-.8-2.5 1.5m5.1-1-2.6-.5m3.7 0-1 .5m1-1.6v1.1m-2.2-1.1h2.2m-1-1-1.2 1m.7-2 .4 1m-2.1-1h1.7m-4-1.3 2.3 1.2m-4.2-1.9 1.8.7m-4.2-.7h2.4m3.5.3 3.2 1m-4.3-2.4 1.1 1.4m24.3-2.2-3.8 1.1m4.4.6.2.1m-1-2.8 1-.1m-.7 1.6-.4-1.5m0 2.1.4-.6m-4 .6h3.6m-2.6 6.6 2.6 2.3m-7.1-5.2 4.5 3m-6.2-4.4 1.7 1.4m1.4-2.4-3.1 1m-1-.4 4-.6m-7.2.6h3.2m-5.2 1.6 2-1.6m-5.7.7 3.7.9m-6.4-1.6 2.7.7m-5.3-.7h2.6m-5-2 2.4 2m-1-3.1-1.4 1m3.2-.6-1.9-.4m3.7.8-1.8-.4m4.5-.8-2.7 1.2m2.8-11.5 1 4.3-.7 3-.4 3-2.7 1.2m-2.2-1.2 2.2 1.2m-5.6-1.2h3.4m-2.5-3-.9 3m-17.7-9V522m1.3.5-1.3 1m5.8-1.5 1.7 1.4m.8-.9 1.6 3.5m-3.2-4.8 1.6 1.3m-1.6-3.2v2m-2.8-3.6 2.8 1.6m24-3.2 2.2.4m7.4 1.1-.8.7m3-1-2.2.3m3.6-1.6-1.4 1.3m3.3-2.2-1.9.9m.8 7.7 1.1-.2m-1.8-1 .7 1.2m-2-3.1 1.3 2m-3-3 1.7 1m-16.2 2-.8.7m1.5-2.2v1m1.8-3-1 .7m1-2.3v1.5m-31.9 6.2-.3-.1m1 .7-.7-.6m.7-.7v1.3m.8-2-.8.7m.8-1.1v.5m3-2.6h-.5m1.8.5-1.3-.5m3.3.5h-2m2-.8v.8m.5-2-.5 1.2m-1.3-2.7 1.8 1.4m5.6-1h-1.9m-.7.1v1.4m-2.3-2.1 2.3.7m-2.3-1.7v1m1-1.4-1 .4m2.7-.1-1.6-.3m4.2 1.2-2.6-1m7.7 8.3h.8m-2.4.7.6-.5m-.6 1.7V526m-.2 2.1 2 .3m-5.5-.8 3.5.5m-5.6-.8 2.1.3m-10.9-1 8.8.7m-8.8-.8-3.5-.4m2.5-.4 1 .8m-1-1.7v.9m1.3-.9h-1.3m3.7-1.6-2.4 1.6m3.7-1.6h-1.3m3.3.7-2-.7m3.5 2-1.5-1.3m1.5 2.3v-1m1.3 2-1.3-1m3.4-.1v1.5m-1-3.4 1 1.9m-2.5-4.4 1.4 2.4m-.5-4.2-.9 1.8m2.8-2.3-2 .5m3.4.7-1.4-1.2m3.6 1.7-2.2-.5m2.5 1.8-.3-1.3m3.6 4.5v.7m-1.5-2 1.5 1.3m-2.6-3.7 1 2.4m-2.2-3.4 1.2 1m-4-2.8 2.8 1.8m-2.6-2.9-.3 1.1m.7-1h-.4m1.9.2-1.5-.2m4.8.7-3.3-.5m-1.7-1.5-4-2.3m6.6 3.2-2.6-.9m5 2-2.4-1m6 2.7-3.6-1.7m8 .9-4.5.8m5.4-16.7-1.7 2.5m-4.1-.4-.8 1.8m2.1-3-1.3 1.2m2.8-1.6-1.5.4m1.9-2.2-.4 1.8m1.6-2.7-.8-.9m2.6 3-1.8-2m5.5 3.8-3.7-1.7m1.4 11.8.4.3m-.4-1.8v1.5m1-2.4-1 .9m1.5-2.8-.4 1.9m1.5 0 .8-1.6m-.8 3.5v-1.9m-1 3.3 1-1.4m-2.9 2.5 2-1.1m-4 3.3 2-2.2m3.3 3.3-3.6 1.8m6.5-3-2.9 1.2m6.6-1.8-3.7.7m1.7-.7h2m-3-1.6 1 1.6m-2.6-4.6 1.7 3m-34.5 15.7-3.6.4m5.7.6-2.1-1m12.5 1.8-10.4-.8m12.1-1-1.7 1.8m4-3.3-2.3 1.6m3.2-4-.9 2.4m2-3.2-1 .8m3.1-2.5-2.2 1.7m4.5-4-2.3 2.3m6.2-3.2-4 1m10.2-4.3-6.2 3.3m12.8-4-6.6.7m2.8-2 3.8 1.2m-3.8-2v.8m-1.7-3.7 1.7 2.9m-4.4-7.3 2.7 4.4m-2-8.8-.7 4.4m3.9-5.7-3.2 1.3m3.8-3.7-.6 2.4m1.1-4.3-.5 1.9m9.5-1.8v-.1m-49 7 1.6 1m45 60.7-1.1 1m2.3-3.6-1.2 2.6m1.2-4.1-.7-2m2 2.7-1.2-.7m1-.3h.1m-.7-.6.7.6m-1.9-1.6 1.2 1m-2.3-3.2 1.1 2.2m2 .6h-.3m-4 6.2 2.3-4m-3 7.2.6-3.2m-4.2 7 3.6-3.8m-7 8.3-.7 1.1m1.5-4.5 1.5-2.2m-4.3 6.5 2.8-4.3m-2.8 4.5v-.2m10.3-1.8-.3 1.9m0-3.6.3 1.7m0-3-.4 1.3m1.6-3.7-1.2 2.3m3.4 3.2.2.3m-.2-1.7v1.4m.2-1.2-.2-.2m-48.8-58h2m-.7-1-1.3 1m2-4.8-1.8-1.4m1-.7-1.2-.4m2.8 1.7-1.5-1.3m3.9 1.3h-2.4m4.3 2.4-2-2.4m-4.8 6.7h-.3m2.7-2.5.2.5m-.7-1.5.5 1m-.5-2.7v1.7m1-1.7h-1m2.4-.4-1.4.4m3.1 1-1.7-1.4m1.4-4.7v1.6m-.3.6h-1.6m2.5 2-1-2m2.1 2h-1m1.6-1-.6 1m.2-2.4.4 1.4m-1.5-3.6 1.1 2.2m-7.3 4.9-.6.6m.6-1.6v1m-.6-2.1.6 1m1.8-3.7-2.4-1m4.5.3-2.1.7m2.7-2.3-.6 1.6m-.9-2.8 1.5 1.2m-2-3 .5 1.8m-2-2 1.5.1m-1-.8-2-.6m3.3 1.7-1.2-1m3.3 3.4-2.1-2.4m3.4 2.1-1.3.3m1.2-.6.1.3m-.4-1.6.3 1.3m-1-4 .7 2.7m1.8 1.5 2.8 3.3m-3.8-5.6 1 2.3m-2.4-4.2 1.4 2m-3.4-5 2 3m-1.1-6.2-.9 3.2m17.2-3.2h-.2m.5 3.6-2.3.6m3.6-1.8-1.3 1.2m1.8-2.4-.5 1.2m2.7-1.5-2.2.3m3.3-1.2 1 .5" fill="none" stroke="#f1f1f1" stroke-linecap="round" stroke-linejoin="round" stroke-width=".4"></path><path d="M2656.9 422.8h42.5v41.4H2657c-11.2 0-20.3-9-20.3-20.2v-1c0-11.2 9-20.2 20.3-20.2Z" fill="#f1f1f1" stroke-width="0"></path><path d="M2656.9 422.8h42.5v41.4H2657c-11.2 0-20.3-9-20.3-20.2v-1c0-11.2 9-20.2 20.3-20.2Z" fill="none" stroke="#f1f1f1" stroke-miterlimit="100.5" stroke-width=".4"></path><path d="M2656.4 422h27.8a6 6 0 0 1 5.9 5.9v31c0 3.2-2.7 5.8-5.9 5.8h-27.8a20.8 20.8 0 0 1-20.8-20.8v-1c0-11.6 9.3-20.9 20.8-20.9Z" fill="#f1f1f1" stroke-width="0"></path><path d="M2656.4 422h27.8a6 6 0 0 1 5.9 5.9v31c0 3.2-2.7 5.8-5.9 5.8h-27.8a20.8 20.8 0 0 1-20.8-20.8v-1c0-11.6 9.3-20.9 20.8-20.9Z" fill="none" stroke="#f1f1f1" stroke-miterlimit="100.5" stroke-width=".4"></path><path d="M2656.9 423.5h26.4c2.7 0 4.8 2.2 4.8 4.8v30c0 2.8-2.1 5-4.7 5h-26.5a19.4 19.4 0 0 1-19.4-19.5v-.9c0-10.7 8.7-19.4 19.4-19.4Z" fill="#f1f1f1" stroke-width="0"></path><path d="M2656.9 423.5h26.4c2.7 0 4.8 2.2 4.8 4.8v30c0 2.8-2.1 5-4.7 5h-26.5a19.4 19.4 0 0 1-19.4-19.5v-.9c0-10.7 8.7-19.4 19.4-19.4Z" fill="none" stroke="#f1f1f1" stroke-miterlimit="100.5" stroke-width=".4"></path><path fill="#f1f1f1" stroke="#f1f1f1" stroke-miterlimit="100.5" stroke-width=".4" d="M2718.7 574.6h-37.8v-64.1h37.8v64.1z"></path><path fill="#f1f1f1" stroke="#f1f1f1" stroke-miterlimit="100.5" stroke-width=".4" d="M2715.1 571.5h-31.6v-57.9h31.6v57.9z"></path><path d="M2703 541.9c0-2.5 2-4.5 4.3-4.5s4.4 2 4.4 4.5a4.3 4.3 0 1 1-8.7 0Z" fill="none" stroke="#f1f1f1" stroke-miterlimit="100.5" stroke-width=".4"></path><path fill="#f1f1f1" stroke="#f1f1f1" stroke-miterlimit="100.5" stroke-width=".4" d="M2707.7 538.6h18.9v6.5h-18.9v-6.5z"></path><path fill="#f1f1f1" stroke="#f1f1f1" stroke-miterlimit="100.5" stroke-width=".4" d="M2711.7 540.2h10.7v3.4h-10.7v-3.4z"></path><path fill="none" stroke="#f1f1f1" stroke-miterlimit="100.5" stroke-width=".4" d="M2722.4 538.5v6.8"></path><path fill="#f1f1f1" stroke-width="0" d="M2561.4 947.9h121.1V920h-121.1v27.9z"></path><path d="M2564.6 922.8H2680v22.3h-115.4v-22.3Zm87.3 22.3v-22.3m-5.9 22.3v-22.3m-5.8 22.3v-22.3m-5.8 22.3v-22.3m-5.9 22.3v-22.3m-5.8 22.3v-22.3m-5.8 22.3v-22.3m-5.9 22.3v-22.3m-5.8 22.3v-22.3m-5.8 22.3v-22.3m-5.9 22.3v-22.3m-5.8 22.3v-22.3m-5.8 22.3v-22.3m-5.9 22.3v-22.3m-5.8 22.3v-22.3m93 22.3v-22.3m-5.8 22.3v-22.3m17.8 22.3v-22.3m-5.8 22.3v-22.3" fill="none" stroke="#f1f1f1" stroke-miterlimit="100.5" stroke-width="1.5"></path><path fill="#f1f1f1" stroke-width="0" d="M2552.3 143.8h129.1v-27.9h-129.1v27.9z"></path><path d="M2555.5 118.7H2679V141h-123.5v-22.3Zm84 22.3v-22.3M2634 141v-22.3m-5.6 22.3v-22.3m-5.7 22.3v-22.3m-5.5 22.3v-22.3m-5.6 22.3v-22.3m-5.7 22.3v-22.3m-5.6 22.3v-22.3m-5.6 22.3v-22.3m-5.6 22.3v-22.3m-5.6 22.3v-22.3M2578 141v-22.3m-5.6 22.3v-22.3m-5.6 22.3v-22.3M2561 141v-22.3m89.4 22.3v-22.3m-5.6 22.3v-22.3m17 22.3v-22.3m-5.5 22.3v-22.3m16.8 22.5V119m-5.6 22.2V119" fill="none" stroke="#f1f1f1" stroke-miterlimit="100.5" stroke-width="1.6"></path><path fill="#f1f1f1" stroke-width="0" d="M2075.6 143.5h183.5v-27.8h-183.5v27.8z"></path><path d="M2078.8 118.5H2255v22.3h-176.2v-22.3Zm81.8 22.3v-22.3m-5.4 22.3v-22.3m-5.4 22.3v-22.3m-5.5 22.3v-22.3m-5.5 22.3v-22.3m-5.4 22.3v-22.3m-5.4 22.3v-22.3m-5.5 22.3v-22.3m-5.5 22.3v-22.3m-5.4 22.3v-22.3m-5.4 22.3v-22.3m-5.5 22.3v-22.3m-5.5 22.3v-22.3m-5.4 22.3v-22.3m-5.4 22.3v-22.3m86.8 22.3v-22.3m-5.4 22.3v-22.3m16.6 22.3v-22.3m-5.4 22.3v-22.3m16.4 22.5v-22.2m-5.5 22.2v-22.2m16.8 22.5v-22.2m-5.4 22.2v-22.2m16.6 22.2v-22.2m-5.4 22.2v-22.2m16.4 22.5v-22.3m-5.5 22.3v-22.3m10.9 21.5v-22.2m10.9 22.5V119m-5.5 22.2V119m11.5 21.4V118" fill="none" stroke="#f1f1f1" stroke-miterlimit="100.5" stroke-width="1.6"></path><path fill="#f1f1f1" stroke-width="0" d="M2075.1 948.7h162.7v-27.8h-162.7v27.8z"></path><path d="M2078.3 923.6h157V946h-157v-22.3ZM2159 946v-22.3m-5.4 22.3v-22.3m-5.4 22.3v-22.3M2143 946v-22.3m-5.4 22.3v-22.3m-5.4 22.3v-22.3M2127 946v-22.3m-5.4 22.3v-22.3M2116 946v-22.3m-5.3 22.3v-22.3m-5.4 22.3v-22.3M2100 946v-22.3m-5.3 22.3v-22.3m-5.4 22.3v-22.3m-5.4 22.3v-22.3m85.6 22.3v-22.3m-5.4 22.3v-22.3m16.4 22.3v-22.3m-5.3 22.3v-22.3m16 22.6V924m-5.3 22.3V924m16.6 22.6v-22.3m-5.4 22.3v-22.3m16.4 22.3v-22.3m-5.4 22.3v-22.3m16.2 22.5v-22.2m-5.4 22.2v-22.2m10.7 21.5v-22.3" fill="none" stroke="#f1f1f1" stroke-miterlimit="100.5" stroke-width="1.6"></path><path fill="none" stroke="#f1f1f1" stroke-miterlimit="100.5" stroke-width="3.3" d="M2223.1 157.2v748.1"></path><path d="m2223.1 141.7-7.6 24.6h15.3l-7.7-24.6Zm0 778 7.7-24.6h-15.3l7.6 24.6Z" fill="#f1f1f1" stroke-width="0"></path><path fill="none" stroke="#f1f1f1" stroke-miterlimit="100.5" stroke-width="3.3" d="m2053.9 350.9 659.2.6"></path><path d="M2736.7 828h759m0-601.8h-759M2878.2 529h617.4M2828 115.7v282.5m0 190V805m0 0V588m0-189.9V115.7m111.3 0V805m0 0V115.7m111.3 0V805m111.3 0V115.7m111.3 0V805m0-633.6v-55.7m111.2 0v55.7m0 633.6V115.7m111.2 174h-759m757.7 120h-616.1m-141.5-60.3h757.6m0 120.3h-616.1M2828 588v120m111.3-297.5V708m-111.3 0V588m222.6-177.7V708m-111.3 0V410.4M3161.9 708V410.4m111.3 0V708m111.2 0V410.4m-647.7 178.4h759m-759 0h757.6m0 120h-757.6m0-60.3h757.6m0 120.2h-757.6m91.3-59.2v238.6m111.3-238.6v238.6m-111.3 0V709.5m222.6 0v238.6m-111.3 0V709.5m333.9 0v238.6m-111.3 0V709.5m222.5 0v60m-111.2 0v-60m111.2 238.6V709.5M2736.7 888h759m-759 0h757.6m-757.6 59.7h757.6m-757.6-780.2 759 1.1" fill="none" stroke="#f1f1f1" stroke-miterlimit="100.5" stroke-width="1.2"></path><path fill="none" stroke="#f1f1f1" stroke-miterlimit="100.5" stroke-width="1.6" d="m2736.7 947.9 758.9-.3"></path><path fill="none" stroke="#f1f1f1" stroke-miterlimit="100.5" stroke-width=".8" d="M3034.7 767.7h124.4"></path><path d="M2795.8 582.5v-177m-55 138.4h129.4" fill="none" stroke="#f1f1f1" stroke-miterlimit="100.5" stroke-width="1.2"></path><path fill="none" stroke="#f1f1f1" stroke-miterlimit="100.5" stroke-width=".8" d="M2762.2 440.7h108"></path><path d="M3210.1 103h36v34.3h-36v-34.4Zm1.7 713.6h32.7v32.8h-32.7v-32.8Zm-332.3-419v193.1h-9.8V397.6h9.8Zm-111.3 6.5v95h-6.6v-95h6.6Z" fill="#f1f1f1" stroke-width="0"></path><path fill="none" stroke="#f1f1f1" stroke-miterlimit="100.5" stroke-width="6.7" d="m2872.8 494.9-59.2 41.8-17.9-39.2"></path><path fill="none" stroke="#f1f1f1" stroke-miterlimit="100.5" stroke-width="6.5" d="m2871.2 586.2-57.3 40.4-18.1-39"></path><path d="M2799.3 500.7h-68.8v-8.2h68.8v8.2Zm0 90h-63.8v-8.2h63.8v8.2Zm80.2-185h-284.8v-8.1h284.8v8.2Z" fill="#f1f1f1" stroke-width="0"></path><path fill="none" stroke="#f1f1f1" stroke-miterlimit="100.5" stroke-width="1.2" d="M2798.5 493.3h73.6"></path><path d="m2768.1 524.9 1.9-2m-16.4 31.5-1.7 1.4m-.5 4.5 1.2 1m-4.5-2 3.3 1m-5.2-1-2.4.6m3.3-1.6-1 1m1.8-2.6-.8 1.6m5.9-2 1.9.5m-3.9-.4h2m-5 .3 3-.3m-4.5 1.4 1.4-1m-2.1 1.6.7-.6m-1.5 1.2.8-.6m-2 1.5 1.2-1m-4 2 2.8-1m-2.1-11h.9m-3.3-.4 2.4.4m-4-.1 1.6-.3m.2.7-1.8.5m3.7-.5h-1.8m3.1 1-1.3-1m2.3 1.8-1-.8m1 2V551m.5 2.5-.5-1.3m1.8 2.8-1.3-1.5m1.3 2.8V555m-1 2.5v1m1.7-3.2-1.6 2.2m1.5-3.2v1m-1.5-2.5 1.5 1.5m-1.5-2.8v1.3m-.6-2.6.6 1.3m.9-1.1-1.5-.2m3 .4-1.5-.2m2.2-.4-.7.6m3.8.4-3-1m6 1.3-3-.3m4.3-.2-1.4.5m-6.5-2.6-.5.3m2.2 0-1.7-.3m3.5.8-1.8-.4m2.6-.2-.8.6m3.2.4-2.4-1m4.5-6.3 1.3.2m-2.9 1 1.6-1.2m-4.3 2.7 2.7-1.5m-4 2.5 1.3-1m-3 1.6 1.7-.6m-5.7 1.2.8.6m1.7-1.6-2.5 1m5.2-2-2.7 1m5-1.9-2.3 1m3.8-1.4-1.4.4m3.3-1.2-2 .8m3.7-1.4-1.7.6m3-.2-1.3-.4m3-.3-1.7.7m3-1.4-1.3.7m-6.4-.7-1 .7m2.2-1.3-1.2.6m2.6.1-1.4-.7m3 .3-1.6.4m2.2-.9-.6.5m-.7-1.5 1.3 1m.7-1.6-1.4.4m.9-1.4.5 1m-12.3 5 1-.5m-2.6.4h1.6m-3 0h1.4m-5.4.5 4-.5m-5.8.6-.6.3m0 1.2.6-1.5m.5-1.4-1.1 1m2.5-.8-1.4-.2m3.3-.3-1.9.5m4.2-.5h-2.3m4.7-.9-2.4.9m4.7 0-2.3-.9m5.1.1-2.8.7m4.5-2-1.7 1.3m1.7-2.2v.9m0-2.8v1.9m8.2 12.4-2.6 2m-6.8 7.3-5-2m9 2.6-4-.6m8.8 3.5-4.8-3m16 7.2.6.5m-2.5-.5h1.8m-5.4-1.4 3.6 1.4m-7.9-2-2.8-1.3m8.3 3.6-5.5-2.4m8.3 2.7-2.8-.3m5.8 1-3-.7m4 0-1 .8m3.3-.8h-2.3m14.8 2.8-1.1-.8m-2.6-1.2 3.7 2m-7.7-2.5 4 .5m-7.7-1 3.7.5m-6-1.2 2.3.8m-4.6-.5 2.4-.3m-7.3-.8 4.9 1m7.4-1.2-3.3-1m8.6 2.4-5.3-1.4m7.9 2.5-2.6-1.1m3.3.6-.7.4m-6.3-6.3 2 1.6m-1.8-4.5-1.7.9m4.7-.4-3-.5m-5.3 0 3.2-1.6m-4.9 2.5 1.7-.8m-4.5.8h2.8m-10.1-1 2.4.2m-4.5 0 2.1-.2m-3.9 0 1.8.3m-4.7-1.4 2.9 1m23.7-11.4h2m-15.4-13.4-1.6-1m2.7 6.4-1.7.2m3.4-.4-1.7.2m4.3 9h1m-3.6 0h2.6m-5.7.6 3.1-.6m-.6.6h-2.5m3 1.4-.5-1.4m-2.5 2.8 3-1.4m1.8 1.4h-4.8m10.6-.4-5.8.4m9.1-.4h-3.3m6.9-1.4-3.6 1.4m3.9-1.3h-.3m-2.3 4.4 2.6-1.2m-3.5 1.2h1m-1.6-1 .6 1m-2.2-1.5 1.6.5m-6.4 0 4.8-.5m-8.2 1.5 3.4-1m-5.8 1h2.4m-4.2.8 1.8-.8m-3.2.8h1.4m-1-1-.4 1m-.2-1h.6m-2.9.7 2.3-.8m-4.1 1.8 1.8-1m-3.5 1h1.7m-.6-.9-1.1.9m.7-1.2.4.3m-2.8-.6 2.4.3m-4.8-.3h2.4m-1.2-.4-1.2.4m2.9-1.5-1.7 1.1m3.8-2.7-2.1 1.6m5.2-2-3.1.4m5.3-1.4-2.2 1m3-1.8-.8.8m-2-1.3 2.7.5m-4.4-.6 1.7.1m-3.7.4 2-.5m-5.1.9 3.1-.4m1.7-1.4-2.4.8m4.8-.8h-2.4m4.7 0h-2.3m3.9-.4-1.6.4m2.6-1-1 .6m2-.2-1-.4m2.5.4h-1.5m1.5-.6v.6m2.1-1.6-2.1 1m-5.2-1.7-1-.9m1 1.7v-.8m.8 1.8-.8-1m-1.3 1.4 2-.4m-4 .4h2m-4.6.6 2.5-.6m-3.6 1.5 1.1-1m-3.5 2 2.4-1m-3.6 1h1.2m-.5-.6-.7.6m1.8-1.2-1.1.6m1.3-2.5-.2 2m.2-3.2v1.2m2-2.7-2 1.5m3-1.2-1-.3m3 .3h-2m3.3-1-1.4 1m3.3-2.3v1.8m1.6-2.3-1.6.4m-2.9-.5-1.2 1m1.6-2-.4 1m2.2-1h-1.8m-19.7 10.7-1.2 1m3.3-1.7-2.1.7m4.2-1.1-2 .4m3.4-.4h-1.4m2.8-.5-1.4.5m3.5-.5h-2.1m3.6-.3-1.5.3m2.2-1.6v.7m-4 0h-.6m2-1-1.3 1m2-1.5-.7.5m2.7-1-2 .5m2.6-1-.6.6m1-1.2-.4.7m.7-1.8-.3 1.1m1.5-2-1.2 1m0-.3 1.2-.7m-3.4.7h2.1m-4 .7 1.9-.7m-1.8 0v.7m2-1.6-2 .9m5.5-1.9-3.4 1m5-.5-1.6-.5m3-.1-1.4.6m3-1.9-1.7 1.3m-.7-1.7 2.3.4m-3 .2.7-.6m-1.4 0 .7.6m-.7-1.2v.6m-1-1.4 1 .8m-14-37.1 1 1m-1.7-3.6.7 2.6m-6.7 16.5 2.3.5m15.3 6.6-2.2.8m.2 1.2h-2.7m6-1.3-3.3 1.3m6.4-1.3h-3.2m8.6 5 1.3.7m-3-.3 1.7-.4m-2.8-.4 1 .8m.6-1.3-1.6.5m12.7 5.3h-1.7m3.7-1.2-1.3 1m2.7-1.6-1.4.6m-1.4-2 2.8 1.4m-3.5 6.9 2.4.4m-2.8-.6.4.2m-3.3-2 3 1.8m-2.5-3.1-.5 1.3m-.7-1.3h1.2m7.3 9.4-4.7 1m9.8.5h.2m-2.5 1 2.3-1m-6.5 1h4.2m-9.8.7 5.6-.8m-5.1.5-.5.3m-1.6-.9 2 .6m-1.5-1.7-.5 1.1m2.9-1h-2.4m5.1-1.8-2.7 1.7m8-.9-5.3-.8m8.3.8h-3m2.5-1.3.5.1m-4.6-.4 4 .3m-6.8.1 2.8-.4m-7.5 1 4.7-.6m-5.4-.2.7.8m1.9-2-2.6 1.2m-.6-1.6 3.1.4m-6.1.3 3-.7m-3.4-.2.4 1m-.4-2v1m-3-1h3m-3.6-1.2.7 1.1m2.9-2.3-3.6 1.2m7-1.2h-3.4m6.6.6-3.2-.6m6 .6h-2.8m7.5 1 2.7.7m-3.5-1.4.8.7m-3.8-1.2 3 .5m-5.6-1.4 2.6.9m-4.7-2.5 2 1.6m-1.3-3.5-.7 2m-3.2-2h4m-5.4-1.7 1.4 1.7m-2.8-2.8 1.4 1m-1.8-2.4.4 1.4m.2-1.8-.6.4m-1 .9-.5-1.2m2.1 2.9-1.5-1.7m3.5 3.8-2-2.1m1.5 2.5.5-.4m-2.4.4h2m-5.3.7 3.3-.7m-4.2.4 1 .3m-2.3.4 1.3-.7m-4-.7 2.7 1.4m-5.4-1 2.7-.5m-3.9 0 1.2.4m-1.2-1.5v1.1m2.4-1.1h-2.4m1.2-1 1.2 1m-.7-2-.5 1m2.3-1h-1.8m4.2-1.3-2.4 1.2m4.4-1.8-2 .6m4.5-.6h-2.5m-3.7.3-3.4.9m4.5-2.3-1.1 1.4m-25.8-2.2 4 1.1m-4.6.6h-.3m1.1-2.7-1.1-.2m.8 1.7.3-1.5m0 2.1-.3-.6m4.1.6h-3.8m2.9 6.5-2.9 2.2m7.7-5.1-4.8 3m6.6-4.4-1.8 1.4m-1.6-2.4 3.4 1m1-.4-4.4-.6m7.8.6h-3.4m5.5 1.6-2.1-1.6m6 .7-4 1m6.9-1.7-2.9.7m5.7-.7h-2.8m5.3-2-2.5 2m1.1-3 1.4 1m-3.4-.7 2-.4m-4 .8 2-.4m-4.8-.7 2.9 1.1m-3-11.4-1 4.3.7 3 .4 3 2.9 1.1m2.4-1.1-2.4 1.1m6-1.1h-3.6m2.5-3 1 3m18.8-9v-1.6m-1.4.6 1.4 1m-6-1.6-2 1.5m-.7-.9-1.8 3.5m3.5-4.8-1.7 1.3m1.7-3.2v1.9m3-3.5-3 1.6m-25.6-3.2-2.3.3m-7.8 1.2.8.7m-3.1-1 2.3.3m-3.9-1.6 1.6 1.3m-3.6-2.2 2 1m-.8 7.6-1.2-.3m2-.9-.8 1.2m2.1-3.2-1.4 2m3.2-3-1.8 1m17.2 2.1.8.7m-1.6-2.2v1m-1.8-3.1 1 .8m-1-2.3v1.5m33.8 6.1.3-.1m-1 .7.7-.6m-.8-.6v1.2m-.9-1.9 1 .7m-1-1.2v.5m-3-2.5.5-.1m-2 .6 1.4-.5m-3.5.5h2.1m-2-.9v.9m-.6-2 .5 1.1m1.4-2.6-1.9 1.4m-5.9-1.1h2m.7.2v1.3m2.5-2-2.5.7m2.5-1.7v1m-1.2-1.4 1.2.4m-3-.1 1.8-.3m-4.4 1.2 2.7-1m-8.2 8.3h-.9m2.6.6-.6-.4m.6 1.6v-1.2m.3 2.1-2.2.3m5.8-.8-3.6.5m5.8-.8-2.2.3m11.6-1-9.4.7m9.4-.7 3.7-.6m-2.5-.3-1.2.9m1.2-1.8v1m-1.4-1h1.4m-4-1.5 2.6 1.5m-4-1.5h1.3m-3.4.7 2.1-.7m-3.8 2 1.7-1.3m-1.7 2.2v-1m-1.4 2.1 1.4-1m-3.6-.2v1.5m1.2-3.4-1.2 2m2.7-4.4-1.5 2.4m.6-4.2.9 1.8m-3-2.3 2 .5m-3.4.7 1.5-1.2m-4 1.7 2.5-.5m-2.7 1.7.2-1.2m-3.7 4.4v.7m1.6-2-1.6 1.3m2.8-3.6-1.2 2.4m2.5-3.5-1.3 1.1m4.3-2.8-3 1.7m2.7-2.8.3 1.1m-.8-1h.5m-2 .2 1.5-.2m-5 .7 3.5-.5m1.8-1.4 4.3-2.3m-7.2 3.1 3-.8m-5.4 2 2.4-1.2m-6.2 2.8 3.8-1.7m-8.4.9 4.6.8m-5.7-16.5 1.8 2.4m4.4-.4.8 1.8m-2.3-3 1.5 1.2m-3-1.5 1.5.4m-1.9-2.2.4 1.8m-1.6-2.7.8-.9m-2.8 3 2-2.1m-6 3.9 4-1.8m-1.5 11.7-.4.3m.4-1.8v1.5m-1.1-2.3 1 .8m-1.5-2.7.5 1.9m-1.7 0-.8-1.6m.8 3.4V514m1 3.2-1-1.4m3 2.5-2-1.1m4.3 3.3-2.2-2.2m-3.5 3.3 3.8 1.7m-6.8-2.9 3 1.2m-7-1.8 4 .6m-1.9-.6h-2m3-1.6-1 1.6m2.9-4.6-1.8 3m36.5 15.6 3.8.3m-6 .6 2.2-1m-13.2 1.9 11-.9m-12.9-.8 1.9 1.7m-4.4-3.3 2.5 1.6m-3.3-4 .8 2.4m-2-3.3 1.2 1m-3.5-2.5 2.3 1.5m-4.7-3.8 2.4 2.3m-6.5-3.2 4 .9M2751 521l6.6 3.2M2744 520l7 .9m-3-2-4 1m4-1.9v.8m1.9-3.6-1.9 2.8m4.7-7.2-2.8 4.4m2-8.8.8 4.4m-4.1-5.7 3.3 1.3m-4-3.6.6 2.3m-1.1-4.3.5 2m-10.1-1.8v-.2m52 7-1.7 1m-47.7 60.1 1.2 1m-2.5-3.5 1.3 2.5m-1.3-4 .8-1.9m-2.1 2.6 1.3-.7m-1.2-.4h-.1m.8-.5-.7.5m2-1.5-1.3 1m2.5-3.2-1.3 2.2m-2 .6h.2m4.4 6.2-2.5-4m3.2 7-.7-3m4.4 6.8-3.7-3.7m7.3 8.2.7 1.1m-1.6-4.5-1.5-2.2m4.5 6.5-3-4.3m3 4.5v-.2m-10.9-1.8.4 1.9m0-3.5-.4 1.6m0-3 .4 1.4m-1.7-3.7 1.3 2.3m-3.6 3-.2.4m.2-1.6v1.3m-.2-1.2.2-.1m51.8-57.5h-2m.6-1 1.4 1m-2-4.8 1.8-1.4m-1.1-.6 1.3-.5m-3 1.8 1.7-1.3m-4.1 1.3h2.4m-4.5 2.3 2-2.3m5.2 6.6h.3m-2.8-2.4-.2.4m.7-1.5-.5 1m.5-2.7v1.7m-1-1.7h1m-2.6-.4 1.5.4m-3.3 1.1 1.8-1.5m-1.4-4.6v1.5m.3.6h1.7m-2.7 2 1-2m-2.2 2h1.2m-1.7-1 .5 1m-.2-2.3-.3 1.4m1.6-3.6-1.3 2.2m7.8 4.8.6.5m-.6-1.5v1m.6-2-.6 1m-1.9-3.8 2.5-.9m-4.8.3 2.3.6m-2.9-2.2.6 1.6m1-2.8-1.6 1.2m2.2-3-.7 1.8m2.2-2-1.5.1m1-.8 2.2-.6m-3.5 1.7 1.2-1m-3.5 3.3 2.3-2.3m-3.7 2.1 1.4.2m-1.3-.5v.3m.3-1.6-.3 1.3m1-4-.7 2.7m-1.9 1.5-2.9 3.3m4-5.6-1 2.3m2.5-4.2-1.4 2m3.5-5-2.1 3m1.1-6.2 1 3.3m-18.3-3.3.3.2m-.5 3.4 2.3.7m-3.8-1.8 1.5 1.1m-2-2.3.5 1.2m-2.8-1.5 2.3.3m-3.5-1.3-1 .6" fill="none" stroke="#f1f1f1" stroke-linecap="round" stroke-linejoin="round" stroke-width=".4"></path><path d="M2810.8 422.5h-42.6v41.4h42.6c11 0 20.2-9 20.2-20.2v-1c0-11.2-9-20.2-20.2-20.2Z" fill="#f1f1f1" stroke-width="0"></path><path d="M2810.8 422.5h-42.6v41.4h42.6c11 0 20.2-9 20.2-20.2v-1c0-11.2-9-20.2-20.2-20.2Z" fill="none" stroke="#f1f1f1" stroke-miterlimit="100.5" stroke-width=".4"></path><path d="M2811.2 421.7h-27.8a5.9 5.9 0 0 0-5.8 5.9v31c0 3.2 2.6 5.8 5.8 5.8h27.8c11.5 0 20.8-9.4 20.8-20.8v-1c0-11.6-9.3-21-20.8-21Z" fill="#f1f1f1" stroke-width="0"></path><path d="M2811.2 421.7h-27.8a5.9 5.9 0 0 0-5.8 5.9v31c0 3.2 2.6 5.8 5.8 5.8h27.8c11.5 0 20.8-9.4 20.8-20.8v-1c0-11.6-9.3-21-20.8-21Z" fill="none" stroke="#f1f1f1" stroke-miterlimit="100.5" stroke-width=".4"></path><path d="M2810.8 423.2h-26.5a4.9 4.9 0 0 0-4.9 4.8v30a5 5 0 0 0 4.9 4.9h26.5c10.7 0 19.3-8.7 19.3-19.4v-1c0-10.6-8.6-19.3-19.3-19.3Z" fill="#f1f1f1" stroke-width="0"></path><path d="M2810.8 423.2h-26.5a4.9 4.9 0 0 0-4.9 4.8v30a5 5 0 0 0 4.9 4.9h26.5c10.7 0 19.3-8.7 19.3-19.4v-1c0-10.6-8.6-19.3-19.3-19.3Z" fill="none" stroke="#f1f1f1" stroke-miterlimit="100.5" stroke-width=".4"></path><path fill="#f1f1f1" stroke="#f1f1f1" stroke-miterlimit="100.5" stroke-width=".4" d="M2749.7 574.3h37.8v-64.1h-37.8v64.1z"></path><path fill="#f1f1f1" stroke="#f1f1f1" stroke-miterlimit="100.5" stroke-width=".4" d="M2753.4 571.2h31.5v-57.9h-31.5v57.9z"></path><path d="M2765.4 541.6c0-2.5-2-4.5-4.3-4.5-2.4 0-4.3 2-4.3 4.5a4.3 4.3 0 1 0 8.6 0Z" fill="none" stroke="#f1f1f1" stroke-miterlimit="100.5" stroke-width=".4"></path><path fill="#f1f1f1" stroke="#f1f1f1" stroke-miterlimit="100.5" stroke-width=".4" d="M2760.8 538.3h-18.9v6.5h18.9v-6.5z"></path><path fill="#f1f1f1" stroke="#f1f1f1" stroke-miterlimit="100.5" stroke-width=".4" d="M2756.8 539.9h-10.7v3.4h10.7v-3.4z"></path><path fill="none" stroke="#f1f1f1" stroke-miterlimit="100.5" stroke-width=".4" d="M2746.1 538.2v6.8"></path><path fill="none" stroke="#f1f1f1" stroke-miterlimit="100.5" stroke-width="3.3" d="M3273.8 135.9v787.4"></path><path d="m3273.8 120.4-7.7 24.7h15.4l-7.7-24.7Zm0 823.9 7.7-24.7h-15.4l7.7 24.7Z" fill="#f1f1f1" stroke-width="0"></path><path fill="none" stroke="#f1f1f1" stroke-miterlimit="100.5" stroke-width="3.3" d="m2746.1 349.3 683.8.6"></path><path d="m2743.6 349.3 24.7 7.6v-15.3l-24.7 7.7Zm703.5 0-24.7-7.7v15.3l24.7-7.6ZM2804 143.8h119.7V116H2804v27.8Z" fill="#f1f1f1" stroke-width="0"></path><path d="M2807.2 118.8h114V141h-114v-22.2Zm82.4 22.2v-22.2m-5.4 22.2v-22.2m-5.5 22.2v-22.2m-5.5 22.2v-22.2m-5.5 22.2v-22.2m-5.5 22.2v-22.2m-5.4 22.2v-22.2m-5.6 22.2v-22.2m-5.4 22.2v-22.2m-5.5 22.2v-22.2m-5.5 22.2v-22.2m-5.5 22.2v-22.2m-5.5 22.2v-22.2m-5.5 22.2v-22.2M2813 141v-22.2m87.4 22.2v-22.2M2895 141v-22.2m16.7 22.2v-22.2m-5.5 22.2v-22.2m11 22.5v-22.2" fill="none" stroke="#f1f1f1" stroke-miterlimit="100.5" stroke-width="1.6"></path><path fill="#f1f1f1" stroke-width="0" d="M3288 143.8h119.7V116H3288v27.8z"></path><path d="M3291.2 118.8h114V141h-114v-22.2Zm82.5 22.2v-22.2m-5.5 22.2v-22.2m-5.5 22.2v-22.2m-5.5 22.2v-22.2m-5.5 22.2v-22.2m-5.5 22.2v-22.2m-5.5 22.2v-22.2m-5.4 22.2v-22.2m-5.5 22.2v-22.2m-5.5 22.2v-22.2m-5.5 22.2v-22.2m-5.5 22.2v-22.2m-5.5 22.2v-22.2m-5.5 22.2v-22.2m-5.5 22.2v-22.2m87.6 22.2v-22.2m-5.5 22.2v-22.2m16.8 22.2v-22.2m-5.5 22.2v-22.2m11 22.5v-22.2" fill="none" stroke="#f1f1f1" stroke-miterlimit="100.5" stroke-width="1.6"></path><path fill="#f1f1f1" stroke-width="0" d="M3468 414h27.8V292.7H3468V414z"></path><path d="M3470.8 295.2h22.3v115.5h-22.3V295.2Zm22.3 32h-22.3m22.3 5.5h-22.3m22.3 5.6h-22.3m22.3 5.6h-22.3m22.3 5.5h-22.3m22.3 5.6h-22.3m22.3 5.5h-22.3m22.3 5.6h-22.3m22.3 5.5h-22.3m22.3 5.6h-22.3m22.3 5.6h-22.3m22.3 5.5h-22.3m22.3 5.6h-22.3m22.3 5.5h-22.3m22.3 5.6h-22.3m22.3-88.7h-22.3m22.3 5.6h-22.3m22.3-17h-22.3m22.3 5.6h-22.3m22.5-11.2H3471" fill="none" stroke="#f1f1f1" stroke-miterlimit="100.5" stroke-width="1.7"></path><path fill="#f1f1f1" stroke-width="0" d="M3289 947.6h120.9v-27.8H3289v27.8z"></path><path d="M3292.2 922.5h115.2v22.3h-115.2v-22.3Zm83.3 22.3v-22.3m-5.5 22.3v-22.3m-5.6 22.3v-22.3m-5.5 22.3v-22.3m-5.6 22.3v-22.3m-5.5 22.3v-22.3m-5.6 22.3v-22.3m-5.5 22.3v-22.3m-5.6 22.3v-22.3m-5.5 22.3v-22.3m-5.6 22.3v-22.3m-5.5 22.3v-22.3m-5.5 22.3v-22.3m-5.6 22.3v-22.3m-5.5 22.3v-22.3m88.4 22.3v-22.3m-5.6 22.3v-22.3m17 22.3v-22.3m-5.6 22.3v-22.3m11.2 22.6v-22.3" fill="none" stroke="#f1f1f1" stroke-miterlimit="100.5" stroke-width="1.7"></path><path fill="#f1f1f1" stroke-width="0" d="M2804.7 947.6h119.6v-27.8h-119.6v27.8z"></path><path d="M2807.9 922.5h114v22.3h-114v-22.3Zm82.4 22.3v-22.3m-5.5 22.3v-22.3m-5.5 22.3v-22.3m-5.4 22.3v-22.3m-5.6 22.3v-22.3m-5.4 22.3v-22.3m-5.5 22.3v-22.3m-5.5 22.3v-22.3m-5.5 22.3v-22.3m-5.5 22.3v-22.3m-5.5 22.3v-22.3m-5.5 22.3v-22.3m-5.4 22.3v-22.3m-5.5 22.3v-22.3m-5.5 22.3v-22.3m87.5 22.3v-22.3m-5.5 22.3v-22.3m16.8 22.3v-22.3m-5.5 22.3v-22.3m11 22.6v-22.3" fill="none" stroke="#f1f1f1" stroke-miterlimit="100.5" stroke-width="1.6"></path><path fill="#f1f1f1" stroke-width="0" d="M3467.2 767.5h27.8V646.7h-27.8v120.8z"></path><path d="M3470 649.2h22.2v115.1H3470V649.2Zm22.2 31.9H3470m22.3 5.5H3470m22.3 5.5H3470m22.3 5.6H3470m22.3 5.5H3470m22.3 5.6H3470m22.3 5.5H3470m22.3 5.5H3470m22.3 5.6H3470m22.3 5.5H3470m22.3 5.6H3470m22.3 5.5H3470m22.3 5.6H3470m22.3 5.5H3470m22.3 5.5H3470m22.3-88.4H3470m22.3 5.6H3470m22.3-17H3470m22.3 5.6H3470m22.6-11h-22.2" fill="none" stroke="#f1f1f1" stroke-miterlimit="100.5" stroke-width="1.7"></path><path fill="none" stroke="#f1f1f1" stroke-miterlimit="100.5" stroke-width=".8" d="M2789.5 978.9h147.3v-15.1h-147.3v15.1z"></path><path d="M2789.5 973.8h147.3v-4.9h-147.3v4.9Zm492.7 5h144v-15h-144v15Z" fill="none" stroke="#f1f1f1" stroke-miterlimit="100.5" stroke-width=".8"></path><path d="M3282.2 973.8h144v-4.9h-144v4.9Zm-483-873.5h155.6v-15h-155.5v15Z" fill="none" stroke="#f1f1f1" stroke-miterlimit="100.5" stroke-width=".8"></path><path d="M2799.3 95.2h155.5v-4.8h-155.5v4.8Zm468.2 5.1h180v-15h-180v15Z" fill="none" stroke="#f1f1f1" stroke-miterlimit="100.5" stroke-width=".8"></path><path d="M3267.5 95.2h180v-4.8h-180v4.8Zm243.8 705h15V279.6h-15v520.8Z" fill="none" stroke="#f1f1f1" stroke-miterlimit="100.5" stroke-width=".8"></path><path fill="none" stroke="#f1f1f1" stroke-miterlimit="100.5" stroke-width=".8" d="M3516.4 800.3h4.9V279.5h-4.9v520.8z"></path><path d="M1232.5 550.2c3.4 0 6-.6 8-1.9 1.8-1.2 2.7-2.9 2.7-5.1s-.9-4-2.8-5.2c-1.8-1.2-4.5-1.8-7.9-1.8s-6 .6-7.9 1.8c-1.9 1.3-2.8 3-2.8 5.2s1 4 2.8 5.1a14 14 0 0 0 8 1.9Zm10.4-14.8c2.6 1.8 3.9 4.4 3.9 7.8s-1.3 6-3.9 7.8c-2.6 1.9-6 2.8-10.4 2.8s-7.7-1-10.3-2.8-4-4.4-4-7.8 1.4-6 4-7.8c2.6-1.9 6-2.8 10.3-2.8s7.8 1 10.4 2.8Zm.4 31c0-1.7-.4-3-1.3-4.1s-2-1.6-3.5-1.6-2.6.5-3.5 1.6c-.8 1-1.3 2.4-1.3 4.2s.5 3.1 1.3 4.2 2 1.6 3.5 1.6 2.7-.6 3.5-1.6 1.3-2.5 1.3-4.2Zm-21.5 0a5 5 0 0 0 1.1 3.6c.8 1 1.8 1.4 3.2 1.4a4 4 0 0 0 3.2-1.4 5 5 0 0 0 1.2-3.5 5 5 0 0 0-1.1-3.5 4 4 0 0 0-3.3-1.4 4 4 0 0 0-3.2 1.4 5 5 0 0 0-1.1 3.5Zm10.3-5c1.4-2.9 3.6-4.3 6.6-4.3 2.5 0 4.5.8 6 2.6 1.4 1.8 2 4 2 6.8 0 2.7-.6 5-2 6.8a7.4 7.4 0 0 1-6 2.6c-3 0-5.2-1.4-6.6-4.3a6.8 6.8 0 0 1-6 3.4c-2.5 0-4.5-.8-5.8-2.5a9 9 0 0 1-2-6c0-2.4.6-4.4 2-6a6.9 6.9 0 0 1 5.7-2.5c2.7 0 4.6 1.1 6 3.4Zm-2.6 30.7v-4c0-2.6.8-4.8 2.3-6.5a7.8 7.8 0 0 1 6.3-2.7c2.8 0 4.9.9 6.4 2.7s2.3 4 2.3 6.7c0 2.1-.5 4-1.6 5.6a8.2 8.2 0 0 1-4.3 3.5l-1.8-3.2c1.3-.3 2.3-1 3-2a6.5 6.5 0 0 0 1.1-4c0-1.7-.5-3-1.3-4.2-1-1-2.2-1.6-3.8-1.6-1.5 0-2.8.6-3.7 1.6a6.2 6.2 0 0 0-1.4 4.2v7.8l-14.2-1v-15h3.4v11.7l7.3.4Zm-7.7 15.6c0 1.8.5 3.2 1.5 4.2 1 1.1 2.5 1.7 4.2 1.7a5.5 5.5 0 0 0 5.8-5.9c0-1.7-.6-3.1-1.6-4.2s-2.5-1.6-4.2-1.6c-1.7 0-3.1.5-4.2 1.6a6 6 0 0 0-1.5 4.2Zm5.7-9.5a9 9 0 0 1 5.5 1.7l13.3 8.9v4l-9.7-6.4.1 1.3c0 2.8-.8 5-2.5 6.9a9 9 0 0 1-6.7 2.6c-2.7 0-5-.9-6.6-2.6a9.4 9.4 0 0 1-2.6-6.9c0-2.8.8-5 2.6-6.8a8.7 8.7 0 0 1 6.6-2.7Zm970.7-48c3.4 0 6-.6 7.9-1.9 1.8-1.2 2.8-2.9 2.8-5.1s-1-4-2.8-5.2a14.7 14.7 0 0 0-8-1.8c-3.3 0-6 .6-7.9 1.8-1.8 1.3-2.8 3-2.8 5.2s1 4 2.8 5.1c1.9 1.3 4.6 1.9 8 1.9Zm10.3-14.8c2.6 1.8 4 4.4 4 7.8s-1.4 6-4 7.8c-2.6 1.9-6 2.8-10.3 2.8s-7.8-1-10.4-2.8c-2.6-1.8-4-4.4-4-7.8s1.4-6 4-7.8c2.6-1.9 6-2.8 10.4-2.8s7.7 1 10.3 2.8Zm.4 31c0-1.7-.4-3-1.2-4.1-.8-1-2-1.6-3.6-1.6-1.5 0-2.6.5-3.5 1.6-.8 1-1.2 2.4-1.2 4.2s.4 3.1 1.2 4.2 2 1.6 3.5 1.6c1.6 0 2.7-.6 3.6-1.6.8-1 1.2-2.5 1.2-4.2Zm-21.5 0c0 1.5.4 2.7 1.1 3.6a4 4 0 0 0 3.3 1.4 4 4 0 0 0 3.2-1.4c.8-1 1.2-2 1.2-3.5 0-1.4-.4-2.6-1.2-3.5a4 4 0 0 0-3.2-1.4 4 4 0 0 0-3.3 1.4c-.7.9-1.1 2-1.1 3.5Zm10.3-5a7 7 0 0 1 6.7-4.3c2.5 0 4.5.8 5.9 2.6 1.4 1.8 2.1 4 2.1 6.8 0 2.7-.7 5-2.1 6.8a7.3 7.3 0 0 1-6 2.6c-3 0-5.2-1.4-6.6-4.3a6.7 6.7 0 0 1-6 3.4c-2.5 0-4.4-.8-5.8-2.5s-2-3.7-2-6a9 9 0 0 1 2-6 7 7 0 0 1 5.8-2.5c2.6 0 4.6 1.1 6 3.4Zm-2.5 30.7v-4a9 9 0 0 1 2.3-6.5 7.7 7.7 0 0 1 6.3-2.7c2.7 0 4.8.9 6.3 2.7 1.5 1.9 2.3 4 2.3 6.7 0 2.1-.5 4-1.5 5.6s-2.5 2.8-4.3 3.5l-1.8-3.2c1.2-.3 2.3-1 3-2 .7-1.1 1-2.4 1-4 0-1.7-.4-3-1.3-4.2-.9-1-2.1-1.6-3.7-1.6s-2.8.6-3.7 1.6a6.2 6.2 0 0 0-1.4 4.2v7.8l-14.3-1v-15h3.4v11.7l7.4.4Zm-7.8 15.6c0 1.8.5 3.2 1.6 4.2 1 1.1 2.4 1.7 4.1 1.7 1.8 0 3.1-.6 4.2-1.7 1.1-1 1.6-2.4 1.6-4.2 0-1.7-.5-3.1-1.6-4.2a5.6 5.6 0 0 0-4.2-1.6c-1.7 0-3 .5-4.1 1.6a5.9 5.9 0 0 0-1.6 4.2Zm5.7-9.5a9 9 0 0 1 5.6 1.7l13.2 8.9v4l-9.6-6.4v1.3c0 2.8-.8 5-2.5 6.9a9 9 0 0 1-6.7 2.6c-2.7 0-5-.9-6.6-2.6a9.3 9.3 0 0 1-2.6-6.9c0-2.8.9-5 2.6-6.8a8.7 8.7 0 0 1 6.6-2.7Zm1054.7-48c3.4 0 6-.6 7.9-1.9 1.8-1.2 2.7-2.9 2.7-5.1s-.9-4-2.7-5.2a14.8 14.8 0 0 0-8-1.8c-3.3 0-6 .6-7.9 1.8-1.8 1.3-2.8 3-2.8 5.2s1 4 2.8 5.1a14 14 0 0 0 8 1.9Zm10.3-14.8c2.7 1.8 4 4.4 4 7.8s-1.3 6-4 7.8c-2.6 1.9-6 2.8-10.3 2.8s-7.8-1-10.4-2.8a9 9 0 0 1-3.9-7.8 9 9 0 0 1 3.9-7.8c2.6-1.9 6-2.8 10.4-2.8s7.7 1 10.3 2.8Zm.4 31c0-1.7-.4-3-1.2-4.1-.9-1-2-1.6-3.6-1.6-1.5 0-2.6.5-3.5 1.6-.8 1-1.2 2.4-1.2 4.2s.4 3.1 1.2 4.2 2 1.6 3.5 1.6c1.6 0 2.7-.6 3.6-1.6.8-1 1.2-2.5 1.2-4.2Zm-21.5 0c0 1.5.4 2.7 1.1 3.6a4 4 0 0 0 3.3 1.4c1.3 0 2.4-.5 3.2-1.4s1.2-2 1.2-3.5c0-1.4-.4-2.6-1.2-3.5a4 4 0 0 0-3.2-1.4 4 4 0 0 0-3.3 1.4c-.7.9-1.1 2-1.1 3.5Zm10.3-5c1.5-2.9 3.7-4.3 6.7-4.3 2.5 0 4.5.8 6 2.6 1.3 1.8 2 4 2 6.8 0 2.7-.7 5-2 6.8a7.4 7.4 0 0 1-6 2.6c-3 0-5.2-1.4-6.7-4.3a6.7 6.7 0 0 1-6 3.4c-2.5 0-4.4-.8-5.8-2.5s-2-3.7-2-6a9 9 0 0 1 2-6 7 7 0 0 1 5.8-2.5c2.6 0 4.6 1.1 6 3.4Zm-2.6 30.7v-4c0-2.6.8-4.8 2.4-6.5 1.5-1.9 3.6-2.7 6.3-2.7s4.8.9 6.3 2.7 2.3 4 2.3 6.7c0 2.1-.5 4-1.5 5.6s-2.6 2.8-4.4 3.5l-1.7-3.2a5.2 5.2 0 0 0 3-2c.7-1.1 1-2.4 1-4 0-1.7-.4-3-1.3-4.2a5 5 0 0 0-3.7-1.6c-1.6 0-2.8.6-3.7 1.6a6.2 6.2 0 0 0-1.4 4.2v7.8l-14.3-1v-15h3.4v11.7l7.3.4Zm-7.7 15.6c0 1.8.5 3.2 1.6 4.2 1 1.1 2.4 1.7 4.1 1.7 1.8 0 3.1-.6 4.2-1.7 1-1 1.6-2.4 1.6-4.2 0-1.7-.5-3.1-1.6-4.2a5.5 5.5 0 0 0-4.2-1.6c-1.7 0-3 .5-4.1 1.6a5.9 5.9 0 0 0-1.6 4.2Zm5.7-9.5a9 9 0 0 1 5.6 1.7l13.2 8.9v4l-9.6-6.4v1.3c0 2.8-.8 5-2.5 6.9a9 9 0 0 1-6.7 2.6c-2.7 0-5-.9-6.6-2.6a9.2 9.2 0 0 1-2.6-6.9c0-2.8.9-5 2.6-6.8a8.6 8.6 0 0 1 6.6-2.7Zm-200.2-267.6c0 3.4.6 6 1.8 8 1.2 1.8 3 2.7 5.1 2.7 2.3 0 4-1 5.2-2.8 1.2-1.9 1.8-4.5 1.8-8 0-3.3-.6-6-1.8-7.8a5.8 5.8 0 0 0-5.2-2.8 6 6 0 0 0-5.1 2.7 14.9 14.9 0 0 0-1.8 8Zm14.8 10.4a9 9 0 0 1-7.9 3.9 9 9 0 0 1-7.8-4 17.8 17.8 0 0 1-2.8-10.3c0-4.3 1-7.7 2.8-10.4a9 9 0 0 1 7.8-3.9 9 9 0 0 1 7.9 4c1.8 2.6 2.7 6 2.7 10.3 0 4.3-.9 7.7-2.7 10.4Zm-39.5-10.4c0 3.4.5 6 1.7 8 1.2 1.8 3 2.7 5.2 2.7s4-1 5.2-2.8c1.2-1.9 1.8-4.5 1.8-8 0-3.3-.6-6-1.8-7.8-1.3-1.9-3-2.8-5.2-2.8s-4 1-5.2 2.7a14.5 14.5 0 0 0-1.7 8Zm14.7 10.4c-1.8 2.6-4.4 3.9-7.8 3.9s-6-1.3-7.8-4a17.5 17.5 0 0 1-2.8-10.3c0-4.3.9-7.7 2.8-10.4 1.8-2.6 4.4-3.9 7.8-3.9s6 1.3 7.8 4a17 17 0 0 1 2.8 10.3c0 4.3-1 7.7-2.8 10.4Zm-33.7-21.6 7.3-2.5h3.1v27.5h-3.6v-23.6l-5.8 1.7-1-3.1Zm-9.8 22c1.8 0 3.2-.5 4.2-1.3s1.6-2 1.6-3.5-.6-2.7-1.6-3.5c-1-.8-2.4-1.3-4.2-1.3-1.8 0-3.2.5-4.2 1.3s-1.6 2-1.6 3.5.5 2.7 1.6 3.5 2.4 1.3 4.2 1.3Zm0-21.6c-1.5 0-2.7.4-3.5 1.2-1 .7-1.4 1.8-1.4 3.2 0 1.4.5 2.4 1.4 3.2s2 1.2 3.5 1.2 2.6-.4 3.4-1.2a4 4 0 0 0 1.4-3.2c0-1.4-.4-2.5-1.3-3.2a5 5 0 0 0-3.5-1.2Zm5.1 10.3c2.9 1.5 4.3 3.7 4.3 6.7 0 2.5-.9 4.5-2.6 6-1.8 1.4-4 2-6.8 2s-5-.6-6.8-2a7.3 7.3 0 0 1-2.6-6c0-3 1.4-5.2 4.2-6.7a6.8 6.8 0 0 1-3.3-6c0-2.5.8-4.4 2.5-5.7 1.6-1.4 3.7-2 6-2a9 9 0 0 1 6 2c1.7 1.3 2.5 3.2 2.5 5.7 0 2.6-1.2 4.6-3.4 6Zm-540.8.5c0 3.4.6 6 1.8 8 1.2 1.8 3 2.7 5.2 2.7s3.9-1 5.1-2.8a14 14 0 0 0 1.9-8c0-3.3-.6-6-1.9-7.8-1.2-1.9-3-2.8-5.1-2.8s-4 1-5.2 2.7a14.5 14.5 0 0 0-1.8 8Zm14.8 10.4c-1.8 2.6-4.5 3.9-7.8 3.9s-6-1.3-7.8-4a17.8 17.8 0 0 1-2.9-10.3c0-4.3 1-7.7 2.9-10.4 1.8-2.6 4.4-3.9 7.8-3.9s6 1.3 7.8 4c1.8 2.6 2.8 6 2.8 10.3 0 4.3-1 7.7-2.8 10.4Zm-39.6-10.4c0 3.4.7 6 1.8 8 1.3 1.8 3 2.7 5.2 2.7s4-1 5.2-2.8c1.2-1.9 1.8-4.5 1.8-8 0-3.3-.6-6-1.8-7.8a5.7 5.7 0 0 0-5.2-2.8c-2.2 0-4 1-5.2 2.7a14.9 14.9 0 0 0-1.8 8Zm14.8 10.4c-1.8 2.6-4.4 3.9-7.8 3.9s-6-1.3-7.8-4a17.8 17.8 0 0 1-2.8-10.3c0-4.3 1-7.7 2.8-10.4a9.1 9.1 0 0 1 7.8-3.9 9 9 0 0 1 7.8 4 17 17 0 0 1 2.8 10.3c0 4.3-1 7.7-2.8 10.4Zm-30.7-21.2c-1.8 0-3.2.6-4.3 1.6-1 1-1.6 2.4-1.6 4.2a6 6 0 0 0 1.6 4.2 5.7 5.7 0 0 0 4.3 1.5 6 6 0 0 0 4.2-1.5 6 6 0 0 0 1.6-4.2c0-1.8-.5-3.1-1.6-4.2-1-1-2.5-1.6-4.2-1.6Zm9.5 5.8a9 9 0 0 1-1.8 5.5l-8.8 13.3h-4.1l6.5-9.6h-1.3c-2.8 0-5.1-.8-6.9-2.5a8.8 8.8 0 0 1-2.6-6.7c0-2.8.8-5 2.6-6.7 1.8-1.7 4-2.6 6.9-2.6 2.7 0 5 1 6.7 2.6a9 9 0 0 1 2.8 6.7Zm-38.6-5.3V317h17.1v3.2l-10 24.3h-3.8l10-24h-13.3ZM1506 336.2c0 3.4.6 6 1.8 7.9a5.7 5.7 0 0 0 5.2 2.8c2.2 0 4-1 5.2-2.8 1.1-1.9 1.7-4.5 1.7-8 0-3.3-.6-6-1.7-7.8a5.9 5.9 0 0 0-5.2-2.8c-2.3 0-4 .9-5.2 2.7a14.5 14.5 0 0 0-1.8 8Zm14.8 10.3c-1.8 2.6-4.4 4-7.8 4s-6-1.4-7.8-4a17.5 17.5 0 0 1-2.8-10.3c0-4.3.9-7.8 2.8-10.4 1.8-2.6 4.4-3.9 7.8-3.9s6 1.3 7.8 4c1.8 2.5 2.8 6 2.8 10.3 0 4.3-1 7.7-2.8 10.3Zm-39.5-10.3c0 3.4.6 6 1.8 7.9a5.9 5.9 0 0 0 5.1 2.8c2.2 0 4-1 5.2-2.8 1.2-1.9 1.8-4.5 1.8-8 0-3.3-.6-6-1.8-7.8a5.8 5.8 0 0 0-5.2-2.8c-2.2 0-4 .9-5.1 2.7a14.9 14.9 0 0 0-1.8 8Zm14.7 10.3a9 9 0 0 1-7.8 4 9 9 0 0 1-7.8-4 17.8 17.8 0 0 1-2.8-10.3c0-4.3 1-7.8 2.8-10.4a9 9 0 0 1 7.8-3.9 9 9 0 0 1 7.8 4c1.9 2.5 2.8 6 2.8 10.3 0 4.3-1 7.7-2.8 10.3Zm-33.6-21.6 7.2-2.5h3.2V350h-3.6v-23.6l-6 1.8-.8-3.2Zm-19.1 11.3c0 3.4.6 6 1.8 7.9 1.2 1.8 3 2.8 5.2 2.8s4-1 5.1-2.8c1.3-1.9 1.8-4.5 1.8-8 0-3.3-.5-6-1.8-7.8a5.8 5.8 0 0 0-5.1-2.8c-2.3 0-4 .9-5.2 2.7a14.5 14.5 0 0 0-1.8 8Zm14.8 10.3c-1.8 2.6-4.5 4-7.8 4s-6-1.4-7.8-4a17.5 17.5 0 0 1-2.9-10.3c0-4.3 1-7.8 2.9-10.4 1.8-2.6 4.4-3.9 7.8-3.9s6 1.3 7.8 4c1.9 2.5 2.8 6 2.8 10.3 0 4.3-1 7.7-2.8 10.3Zm-21.3 3.4H1419v-3l9.7-9.9c2.6-2.6 3.9-4.8 3.9-6.6 0-1.6-.5-2.8-1.4-3.6-1-1-2.1-1.3-3.5-1.3a5.8 5.8 0 0 0-5.6 3.6l-3.1-1.8c.8-1.7 2-3 3.5-4s3.2-1.4 5.2-1.4c2.3 0 4.3.7 6 2.3a8 8 0 0 1 2.5 6.1c0 2.8-1.6 5.8-4.9 9.1l-7 7h12.5v3.5Zm2105.7 597.7h-132.6V995h132.6v-47.4z" fill="#f1f1f1" stroke-width="0"></path><path d="M490.3 116.7h-118v126.6h118V116.7Zm-11.7 12.6H384v101.4h94.5V129.3Z" fill="#f1f1f1" fill-rule="evenodd" stroke="#f1f1f1" stroke-miterlimit="100.5" stroke-width=".9"></path></g></g><path fill="#f1f1f1" stroke-width="0" d="M2312.1 429.6v-5.7h28v5.4l-16.4 39.6h-6.2l16.3-39.3H2312h.1zm69.5 32.7h6.4l-4.1 15.6h-4.9l2.6-15.6zm43.3 5.6h-29V463l15.8-16.2c4.3-4.2 6.4-7.9 6.4-10.9a7.6 7.6 0 0 0-8-8c-4.2 0-7.3 2-9.2 6l-5-3a15.1 15.1 0 0 1 14.2-8.8c3.8 0 7 1.2 9.8 3.7a13 13 0 0 1 4.1 10c0 4.6-2.6 9.5-8 14.9l-11.5 11.4h20.4v5.8Zm48.9-32.1h6v32.1h-5.5v-23.3l-10.2 16.4h-.7l-10.2-16.4v23.3h-5.5v-32.1h5.9l10.1 16.2 10.1-16.2zm30.5 2.5H2486v-3.6l10.4-9.8c1.6-1.6 2.5-3.2 2.5-5 0-1-.4-1.8-1.1-2.5-.7-.6-1.6-.9-2.8-.9-2.4 0-4 1.3-5.1 3.7l-4.1-2.3c1.7-4 4.8-6 9.2-6 2.6 0 4.7.7 6.4 2.2a7.3 7.3 0 0 1 2.5 5.7c0 2.9-1.4 5.6-4.1 8l-6.5 6h11v4.5Zm449.6 7.3c4.6 2.4 7 6 7 11 0 4-1.5 7.3-4.3 9.7-3 2.3-6.7 3.4-11.2 3.4s-8.1-1.1-11-3.4a11.9 11.9 0 0 1-4.3-9.7c0-5 2.3-8.6 7-11a11 11 0 0 1-5.5-9.8c0-4 1.3-7.2 4-9.4a15 15 0 0 1 9.8-3.3c4 0 7.2 1.1 9.9 3.3 2.7 2.2 4 5.3 4 9.4a11 11 0 0 1-5.4 9.8Zm-8.5-16.8c-2.3 0-4.2.6-5.7 1.9a6.5 6.5 0 0 0-2.2 5.3c0 2.2.7 4 2.2 5.2 1.5 1.3 3.4 2 5.7 2s4.3-.7 5.8-2 2.2-3 2.2-5.2c0-2.3-.7-4-2.2-5.3a8.5 8.5 0 0 0-5.8-1.9Zm0 35.2c3 0 5.3-.7 7-2a7 7 0 0 0 2.5-5.8 7 7 0 0 0-2.5-5.7c-1.7-1.4-4-2-7-2-2.8 0-5.1.6-6.8 2a6.9 6.9 0 0 0-2.6 5.7 7 7 0 0 0 2.6 5.8c1.7 1.3 4 2 6.8 2Zm58.1-.5h6.4l-4.1 15.6h-4.9l2.6-15.6zm108-26.7h6v32.1h-5.5v-23.3l-10.2 16.4h-.7l-10.2-16.4v23.3h-5.5v-32.1h6l10 16.2 10.1-16.2zm30.5 2.5h-18.4v-3.6l10.5-9.8c1.6-1.6 2.5-3.2 2.5-5 0-1-.4-1.8-1-2.5-.8-.6-1.8-.9-3-.9-2.3 0-4 1.3-5 3.7l-4.1-2.3c1.7-4 4.8-6 9.1-6 2.7 0 4.8.7 6.5 2.2a7.3 7.3 0 0 1 2.5 5.7c0 2.9-1.4 5.6-4.1 8l-6.5 6h11v4.5Zm-1739.1-18.4 11.8-4.2h5.2v45h-6v-38.5l-9.5 2.8-1.5-5.1Zm23.1 1.5v-5.7h28v5.4l-16.3 39.6h-6.2l16.2-39.3H1426Zm53 25.2h5.5v5.6h-5.4v8.5h-6v-8.5h-23v-5.6l16.2-30.9h6.4l-16.1 30.9h16.5v-12.7h6v12.7Zm13 7.5h6.5l-4.2 15.6h-4.8l2.5-15.6Zm86.6-25.5h6v32.1h-5.5v-23.3l-10.2 16.4h-.7l-10.2-16.4v23.3h-5.5v-32.1h6l10 16.2 10.1-16.2Zm30.5 2.6h-18.4v-3.7l10.4-9.8c1.7-1.6 2.5-3.2 2.5-5a3 3 0 0 0-1-2.4c-.7-.7-1.7-1-2.9-1-2.3 0-4 1.3-5 3.7l-4.2-2.3c1.8-4 4.9-6 9.2-6 2.6 0 4.8.7 6.5 2.2a7.3 7.3 0 0 1 2.5 5.7c0 3-1.4 5.6-4.1 8l-6.5 6h11v4.6Zm-110.8-11.3 11.8-4.2h5.1v45h-5.9v-38.5l-9.6 2.8-1.4-5.1Zm1540.8 24.9c4.7 2.4 7 6 7 11 0 4-1.4 7.3-4.3 9.6s-6.6 3.5-11 3.5-8.2-1.2-11.1-3.5a11.9 11.9 0 0 1-4.3-9.7c0-4.8 2.3-8.5 7-10.9a11 11 0 0 1-5.5-9.8c0-4 1.3-7.2 4-9.4a15 15 0 0 1 9.8-3.3c4 0 7.2 1 9.9 3.3 2.7 2.2 4 5.3 4 9.4a11 11 0 0 1-5.5 9.8Zm-8.4-16.8c-2.3 0-4.2.6-5.7 1.9a6.5 6.5 0 0 0-2.2 5.2c0 2.2.7 4 2.2 5.3 1.5 1.3 3.4 1.9 5.7 1.9s4.3-.6 5.8-2 2.2-3 2.2-5.2c0-2.3-.7-4-2.2-5.2a8.5 8.5 0 0 0-5.8-2Zm0 35.2c3 0 5.3-.7 7-2a7 7 0 0 0 2.5-5.9 7 7 0 0 0-2.5-5.7c-1.7-1.3-4-2-7-2a11 11 0 0 0-6.8 2 6.9 6.9 0 0 0-2.6 5.7 7 7 0 0 0 2.6 5.8c1.7 1.4 4 2 6.8 2Zm-670.4-24.6c4.6 0 8.3 1.5 11.2 4.3 2.9 2.8 4.3 6.4 4.3 10.8a14.6 14.6 0 0 1-15.5 15.2 14.6 14.6 0 0 1-15.5-15.2c0-3.5 1-6.5 2.8-9l14.4-21.6h6.8l-10.6 15.7 2.1-.2Zm0 5.7c-2.8 0-5.1 1-6.9 2.6-1.7 1.7-2.6 4-2.6 6.8s.9 5.1 2.7 6.9c1.7 1.7 4 2.6 6.8 2.6 2.9 0 5.2-.9 7-2.6 1.7-1.8 2.6-4 2.6-6.9s-.9-5-2.6-6.8a9.6 9.6 0 0 0-7-2.6Zm633.3 24.2h-29v-5l15.8-16c4.3-4.3 6.4-8 6.4-11a7.6 7.6 0 0 0-8-8c-4.2 0-7.3 2-9.2 6l-5-3a15.1 15.1 0 0 1 14.2-8.8c3.8 0 7 1.2 9.8 3.7 2.8 2.5 4.2 5.9 4.2 10 0 4.6-2.7 9.5-8 14.9l-11.5 11.4h20.3v5.8Z"></path></g></g></g></svg>