<svg version="1.1" xmlns="http://www.w3.org/2000/svg" xmlns:xlink="http://www.w3.org/1999/xlink" viewBox="0.5 0.5 2564 999"><g id="SELECTION_0"><path fill="none" stroke-width="0" d="M.5.5h2564v999H.5z"></path></g><g id="SELECTION_1" image-rendering="optimizeQuality" shape-rendering="geometricPrecision" text-rendering="geometricPrecision"><path fill="none" stroke-width="0" d="m2525 959.4-2066.2.5V944h-17.1l-.1-.2V780h17.2v-17.7h53.3V381.5h-51.5V41.1l2064.2.1.2.2v918z"></path></g><g><g id="MAIN_LAYER"><g id="Layer_1-2" data-name="Layer 1" image-rendering="optimizeQuality" shape-rendering="geometricPrecision" text-rendering="geometricPrecision"><g id="_Слой_1" data-name="Слой 1"><g id="_2167772808368" data-name="2167772808368"><path fill="none" stroke="#f1f1f1" stroke-linecap="round" stroke-linejoin="round" stroke-width=".7" d="M2513.1 51.1h-8.7m15.8-4.9-7.1 4.9m-2-2.2-5.4-.9m11.8-2.1-6.4 3m5 9.8v-3.3m-1-1.3h-6m9.4-4-3.4 4m7.5-4h-4.1m6.1 1.9-2-1.9m.9 4.7 1.1-2.8m-5.5 7.4 4.4-4.6m-12.9 1.4-7.9-1.4m10.1 4.7-2.2-3.3m-3.1 5.8 5.3-2.5m1.5.9-7.8 5m12.7-4.5-4.9-.5m4.6 1.3.3-.8m-1.3 3.4 1-2.6m-3.4 8.3 2.4-5.7m6.5-3.1 1.1-.7m-5 5.4 3.9-4.7m-8.9 8.8 5-4.1m-.3-19.7 5.3-1.6m-13.7-6-2.1.4m7.1-1.2-5 .8m12.3.9v-1.7m1.4 3.7-1.4-2m-4.6 5.5 6-2.8m-432.7 601.1-4.4-4.1m4.4 5.6v-1.5m-3.7 2.5 3.7-1m-5.9 3.6 2.2-2.6m.3 10.3-2.5-7.7m-147.2 6.6.5.6m-5.9 1.2 1.8-1.9m-.8 4.7-1-2.8m4.9 7.2-3.9-4.4m4.9 8.8.2.4m-5.9-3-9.2-6.9m9.2 6.9.1.2 1.8 4.4 1.9 3.4m-9.4-29.8-5.2-2.7-2.5-2.1m7.7 8.8v-4m0 4 9.3 3.2 1.8 3.5m-5.2-10.1v-1.7m-1.6 4.1 1.6-2.4m4.1 5.3-5.7-2.9m-10.1 1.9v-2.8m7.7 4.3-7.7-1.5m7.7 3.4v-1.9m-3.6 2.8 3.6-.9m-9 .4 5.4.5m-5.3-10-3.7-4m1 7.6 2.7-3.6m275.2-45.2-16.4-1.8-16.5-3.6h-16.1l-14.5 2.7 17.4 2.7 13.2-1.8 6.6-1.8M466.9 391.7l-.3-4.2-6.3-3.6m-15.5 588.8 4.9-1.5m-9.1-4.7 9.1-5.9"></path><path fill="none" stroke="#f1f1f1" stroke-miterlimit="37.4" stroke-width="1.8" d="M1616.5 895.3h909m-2021.6 0h1117.8m-899-428h903.6m-1.9 0h901.1m-903.8 394.9V36m159.3 0v826.2m0 0V36m159.2 0v826.2m0 0V36m159.2 0v826.2m159.3 0V36m159.2 0v826.3m107.6-737.4h-907.7m3.3 685.5H440.6m225.4-63v225.3m-159.2 0V747.4m318.5-21.7v247m-159.2 0V747.4m318.5-21.7v247m-159.3 0v-247m796.3 0v247m-159.3 0v-247m158.8-343.3h-1177m222-84.7V396m-159.3 0v-98.3m318.5 0v425.6M666.1 396v-98.3m318.5 0v425.6m-159.3 0V297.7M722.7 552.8h903.6m-903.6 0h888.8m914-170.4h-903.8v-84.7m159.3 0v425.6m159.2-425.6v425.6m-159.2 0V297.7m318.4 0v425.6m-159.2 0V297.7m318.5 425.6V297.7m159.2 0v425.6m-793.5-170.5h901.1M1621.7 639v-86.2h903.8"></path><path fill="none" stroke="#f1f1f1" stroke-miterlimit="37.4" stroke-width="1.8" d="M2525.5 724.6H727.6v-86.2h1797.9m0 172h-903.8v-84.7m159.3 0v247m-159.3 0v-247m318.5 0v247m-159.2 0v-247m318.4 0v247m-159.2 0v-247m477.8 0v247m-159.3 0v-247M506.8 862.2V747.4m0-351.4V36.3m159.3 0V396m0 351.4v114.8m-.1 0V747.4m0-351.4V36.3m159.3 0v826m0-.1v-826m159.3 0v826m318.5-826.1v924.4m159.2-98.3V36.1m159.3 0v826.1M443.7 124.9h1174.1m907.7 171.7H444m-.3-86.2h2081.7M1144.9 972.7V36.2M440.6 960.8l2084.9-.5M440.7 778.4V947M2525.5 40.3l-2082-.1"></path><path fill="#f1f1f1" stroke="#f1f1f1" stroke-miterlimit="85.7" d="M2564.5 999.5H9.4v-39h2555.1v39zm0-959.9H.5V.5h2564v39.1z"></path><path fill="#f1f1f1" stroke="#f1f1f1" stroke-miterlimit="85.7" d="M.5 7.6h39.1v991.9H.5V7.6zm2525-7.1h39v999h-39V.5zM460.1 415.7h-33.7V39.6h33.7v376.1z"></path><path fill="#f1f1f1" stroke="#f1f1f1" stroke-miterlimit="85.7" d="M429.9 415.7h81.7V382h-81.7v33.7zm-3.5 321.2h31.9v42.6h-31.9v-42.6z"></path><path fill="#f1f1f1" stroke="#f1f1f1" stroke-miterlimit="85.7" d="M444.1 751.1h-17.7V412.2h17.7v338.9zm33.7 7.1h33.8v-346h-33.8v346z"></path><path fill="#f1f1f1" stroke="#f1f1f1" stroke-miterlimit="85.7" d="M520.4 761.8h-81.6v-21.3h81.6v21.3z"></path><path fill="#f1f1f1" stroke="#f1f1f1" stroke-miterlimit="85.7" d="M435.2 758.2h53.3v-24.8h-53.3v24.8zM724.5 453H495.6v-17.8h228.9V453zm353.1-49.7h-566V382h566v21.3z"></path><path fill="#f1f1f1" stroke="#f1f1f1" stroke-miterlimit="85.7" d="M729.8 760h-16V399.8h16V760z"></path><path fill="#f1f1f1" stroke="#f1f1f1" stroke-miterlimit="85.7" d="M729.8 761.8H618v-21.3h111.8v21.3zM885.9 89.2h-49.6V39.6h49.6v49.6zm193.5 129.6h-17.8V28.9h17.8v189.9zm0 267.9h-17.8V364.3h17.8v122.4zM458.3 971.1h-31.9v-26.6h31.9v26.6zM39.6 910.8h49.6v49.7H39.6v-49.7zM89.2 89.2H39.6V39.6h49.6v49.6zm795 821.6h-49.7v49.7h49.7v-49.7zm848.1 0h-49.6v49.7h49.6v-49.7zm743.5-5.3h49.7v55h-49.7v-55zM1734.1 92.8h-53.2V39.6h53.2v53.2zm741.7-3.6h49.7V39.6h-49.7v49.6zm-557.2 496.9h23.1v385h-23.1v-385z"></path><path fill="#f1f1f1" stroke="#f1f1f1" stroke-miterlimit="85.7" d="M1934.6 586.1h37.3v19.5h-37.3v-19.5zm602.4 19.5h-436.5v-19.5H2537v19.5z"></path><path fill="#f1f1f1" stroke="#f1f1f1" stroke-miterlimit="85.7" d="M2145.8 596.7H2128V579h17.8v17.7zM2128 28.9h17.8v415.2H2128V28.9z"></path><path d="M1240.8 439.3a15.3 15.3 0 0 1-15.8-15.4c0-4.4 1.5-8 4.5-11 3.1-3 7-4.4 11.6-4.4s8.5 1.4 11.5 4.4a15 15 0 0 1 3.7 16 18 18 0 0 1-1.6 3.8l-.9 1.2-14 22.1h-5l11-17.4c-1.3.4-3 .7-5 .7ZM1233 416c-2 2-3 4.5-3 7.8s1 5.8 3 7.7 4.6 3 8 3c3.3 0 6-1 8-3s3-4.5 3-7.7-1-5.8-3-7.8-4.7-3-8-3c-3.4 0-6 1-8 3Z" fill="#f1f1f1" stroke-width="0"></path><path id="_1" data-name="1" d="M1281.6 425.9a15.3 15.3 0 0 1 15.7 15.4c0 4.5-1.5 8.2-4.4 11-3 3-6.8 4.4-11.6 4.4a21 21 0 0 1-13-4.5 12 12 0 0 1-1.9-1.8l-.5-.8 3.3-3.3.4.6 1.5 1.4 2.4 1.7a16.5 16.5 0 0 0 7.8 2c3.3 0 6-1 8-3s3-4.5 3-7.7-1-5.8-3-7.8-4.6-3-7.7-3c-2.1 0-4 .5-5.8 1.4a10 10 0 0 0-3.6 2.4l-1 1.3h-3.7l1.7-26.5h25.1v4.7h-20.8l-1 14.7 1.1-.7a16 16 0 0 1 8-2Z" fill="#f1f1f1" stroke-width="0"></path><path id="_2" data-name="2" fill="#f1f1f1" stroke-width="0" d="m1307.7 450 4.7 2.7-7.7 12-3-1.7 6-13z"></path><path id="_3" data-name="3" d="M1329.5 426.4c1.5 1.4 3.6 2.1 6.3 2.1s4.7-.7 6.3-2.1c1.6-1.5 2.4-3.3 2.4-5.6s-.8-4-2.4-5.5c-1.6-1.4-3.7-2.2-6.3-2.2s-4.8.8-6.3 2.2c-1.6 1.5-2.4 3.3-2.4 5.5s.8 4.1 2.4 5.6Zm-3.4-14.2c2.7-2.5 6-3.7 9.7-3.7s7 1.2 9.7 3.7a11.4 11.4 0 0 1 3.4 12.3c-.4 1.2-1 2.1-1.5 2.8a13.3 13.3 0 0 1-3.2 3l-.7.3.9.3 1.9 1.3a12 12 0 0 1 4.4 5.6 13.4 13.4 0 0 1-3.7 14.7c-3 2.8-6.7 4.2-11.2 4.2s-8.2-1.4-11.2-4.3a13.4 13.4 0 0 1-3.7-14.6 11 11 0 0 1 2-3.4 16 16 0 0 1 4.4-3.4l.8-.4-.7-.4-1.4-1a9.8 9.8 0 0 1-1.9-1.9 10 10 0 0 1-1.4-2.8 11 11 0 0 1-.7-3.6c0-3.3 1.4-6.2 4-8.7Zm17.3 23.3c-2.2-2-4.7-3-7.6-3s-5.5 1-7.6 3a9 9 0 0 0-3.1 6.8c0 2.6 1 4.9 3 6.8 1.9 2 4.5 2.9 7.7 2.9s5.8-1 7.8-2.9c2-2 3-4.2 3-6.8a9 9 0 0 0-3.2-6.8Z" fill="#f1f1f1" stroke-width="0"></path><path id="_5" data-name="5" fill="#f1f1f1" stroke-width="0" d="m1395.8 432.2-11.7 14.8-11.7-14.8V456h-4.7v-32.1h3.6l12.8 16 12.7-16h3.7V456h-4.7v-23.8z"></path><path d="M1376.2 589.9h2.6v32.8h-3.5v-26.2h-6.1v-2.1a8.6 8.6 0 0 0 5-1.7 7.9 7.9 0 0 0 1.8-2.3l.2-.5Z" fill="#f1f1f1" stroke-width="0"></path><path id="_1_0" data-name="1 0" d="M1393.1 602c1.1 1 2.6 1.5 4.4 1.5 1.9 0 3.4-.5 4.5-1.5 1-1 1.6-2.3 1.6-3.9s-.5-2.8-1.6-3.9a6.3 6.3 0 0 0-4.5-1.5c-1.8 0-3.3.5-4.4 1.5-1.1 1-1.7 2.3-1.7 4s.6 2.7 1.7 3.8Zm-2.4-10a10.1 10.1 0 0 1 13.6.1 8.1 8.1 0 0 1 2.8 6 7.5 7.5 0 0 1-2.7 5.8l-1 .8-.5.2.6.3 1.4.8 1.7 1.6a7 7 0 0 1 1.4 2.3c.3 1 .6 2 .6 3.2 0 2.8-1 5.1-3.2 7-2.1 2-4.7 3-7.9 3s-5.7-1-7.8-3a9.4 9.4 0 0 1-2.6-10.1 7 7 0 0 1 1.4-2.4l1.7-1.5c.5-.5 1-.7 1.4-.9l.5-.3-.4-.2-1-.8c-.5-.3-1-.8-1.3-1.3s-.7-1-1-2c-.3-.7-.5-1.6-.5-2.5 0-2.3 1-4.3 2.8-6Zm12.1 16.4a7.5 7.5 0 0 0-5.3-2.1 8 8 0 0 0-5.3 2 6.3 6.3 0 0 0 0 9.6c1.3 1.3 3 2 5.3 2s4.1-.7 5.5-2a6.3 6.3 0 0 0-.2-9.5Z" fill="#f1f1f1" stroke-width="0"></path><path id="_2_1" data-name="2 1" d="M1420.5 596.3c-1.9 2.4-2.8 5.8-2.8 10s1 7.6 2.8 10 4.2 3.6 6.9 3.6c2.6 0 4.8-1.2 6.7-3.6 1.8-2.4 2.8-5.7 2.8-10 0-4.2-1-7.6-2.8-10a8.4 8.4 0 0 0-6.8-3.6 8.5 8.5 0 0 0-6.8 3.6Zm16-2.2c2.6 3 4 7.1 4 12.2 0 5-1.4 9.1-4 12.2s-5.6 4.7-9.1 4.7c-3.7 0-6.8-1.6-9.4-4.7a18.5 18.5 0 0 1-3.8-12.2c0-5 1.3-9.1 3.8-12.2 2.7-3 5.7-4.7 9.3-4.7 3.6 0 6.6 1.6 9.2 4.7Z" fill="#f1f1f1" stroke-width="0"></path><path id="_3_2" data-name="3 2" d="M1452.4 596.3c-2 2.4-2.8 5.8-2.8 10s.9 7.6 2.8 10a8.4 8.4 0 0 0 6.8 3.6c2.6 0 4.9-1.2 6.8-3.6 1.8-2.4 2.8-5.7 2.8-10 0-4.2-1-7.6-2.9-10s-4.1-3.6-6.7-3.6-5 1.2-6.8 3.6Zm16-2.2a18 18 0 0 1 3.9 12.2c0 5-1.3 9.1-3.9 12.2s-5.6 4.7-9.2 4.7-6.7-1.6-9.3-4.7a18.5 18.5 0 0 1-3.9-12.2c0-5 1.3-9.1 4-12.2 2.5-3 5.6-4.7 9.2-4.7 3.5 0 6.6 1.6 9.2 4.7Z" fill="#f1f1f1" stroke-width="0"></path><path id="_4_3" data-name="4 3" d="M1484.2 596.3c-1.9 2.4-2.8 5.8-2.8 10s1 7.6 2.8 10 4.2 3.6 6.9 3.6c2.6 0 4.8-1.2 6.7-3.6 1.9-2.4 2.8-5.7 2.8-10 0-4.2-1-7.6-2.8-10a8.4 8.4 0 0 0-6.8-3.6 8.5 8.5 0 0 0-6.8 3.6Zm16-2.2c2.6 3 4 7.1 4 12.2 0 5-1.4 9.1-4 12.2s-5.6 4.7-9.1 4.7c-3.7 0-6.8-1.6-9.3-4.7a18.5 18.5 0 0 1-4-12.2c0-5 1.4-9.1 4-12.2 2.6-3 5.6-4.7 9.2-4.7 3.6 0 6.6 1.6 9.3 4.7Z" fill="#f1f1f1" stroke-width="0"></path><path d="M1663.5 429a10.8 10.8 0 0 1-18.5 8c-2-2.2-3-4.9-3-8.1s1-6 3-8 4.7-3.3 7.7-3.3a14.5 14.5 0 0 1 6.2 1.7l.8.7 15.5 9.8v3.5l-12.2-7.7c.3.9.5 2 .5 3.5Zm-16.2 5.5c1.3 1.4 3.1 2 5.4 2a7 7 0 0 0 5.4-2c1.4-1.4 2-3.3 2-5.6 0-2.4-.6-4.2-2-5.7a7.2 7.2 0 0 0-5.4-2 7 7 0 0 0-5.4 2 7.7 7.7 0 0 0-2.1 5.7 8 8 0 0 0 2 5.6Z" fill="#f1f1f1" stroke-width="0"></path><path id="_1_4" data-name="1 4" d="M1652.7 464.2v4.3h-3.3v-4.3h-7v-3.5h7v-16.6h4l21.8 15.7v4.4h-22.5Zm0-3.5h18.5l-18.5-13.3v13.3Z" fill="#f1f1f1" stroke-width="0"></path><path id="_2_5" data-name="2 5" d="M1642.4 493v-21a13.3 13.3 0 0 1 10.2 4.6 86.5 86.5 0 0 1 6.2 8.4c.9 1.3 2 2.4 3.2 3.2 1.3 1 2.6 1.3 4 1.3 2 0 3.5-.6 4.7-1.8 1.1-1.3 1.7-3 1.7-5.1a7 7 0 0 0-.6-3c-.4-1-.8-1.6-1.4-2a9.1 9.1 0 0 0-3-2l-.6-.1 1.4-3 .8.2 1.8.9a8.5 8.5 0 0 1 4 4.7c.6 1.2.9 2.7.9 4.3 0 3-1 5.6-2.8 7.5a9 9 0 0 1-6.8 3c-1.6 0-3.1-.4-4.5-1-1.3-.8-2.5-1.7-3.4-2.8a83.5 83.5 0 0 1-5.6-7.6c-.9-1.3-2-2.4-3.1-3.5-1.2-1-2.5-1.8-3.8-2.2v17h-3.3Z" fill="#f1f1f1" stroke-width="0"></path><path id="_3_6" data-name="3 6" d="M1668.8 505a15.8 15.8 0 0 0-10-2.8c-4.3 0-7.6 1-10 2.9a8.4 8.4 0 0 0-3.6 6.8c0 2.6 1.2 4.8 3.6 6.7a16 16 0 0 0 10 2.8c4.3 0 7.6-1 10-2.8 2.4-1.9 3.6-4.2 3.6-6.8s-1.2-4.9-3.6-6.7Zm2.2 16a18.3 18.3 0 0 1-12.2 4 18 18 0 0 1-12.2-4c-3.1-2.5-4.7-5.6-4.7-9.1s1.6-6.7 4.7-9.3a18 18 0 0 1 12.2-3.9c5 0 9.1 1.3 12.2 3.9 3.1 2.6 4.7 5.7 4.7 9.2 0 3.6-1.6 6.7-4.7 9.2Z" fill="#f1f1f1" stroke-width="0"></path><path fill="none" stroke="#f1f1f1" stroke-miterlimit="85.7" stroke-width="7.1" d="m434 774.9-84.5 24.4 91.9 151m635.7-581 76.6-22.1-82-132.3M2103.5 602l-19.3 67-117.9-72.4m175.6-156.9 70.2 20.2-75.7 123.2m-1514.8 159-14-48.5-95 55.2"></path><path d="M596.2 518.3v-64.7H534v64.7a30.6 30.6 0 0 0 30.6 30.6h1.2a30.6 30.6 0 0 0 30.5-30.6Z" fill="none" stroke="#f1f1f1" stroke-miterlimit="85.7"></path><path d="M596.2 518.3v-64.7H534v64.7a30.6 30.6 0 0 0 30.6 30.6h1.2a30.6 30.6 0 0 0 30.5-30.6Z" fill="none" stroke="#f1f1f1" stroke-miterlimit="37.4" stroke-width=".6"></path><path d="M597.4 519v-42.4c0-4.8-4-8.8-8.8-8.8H542c-4.8 0-8.8 4-8.8 8.8V519a31.5 31.5 0 0 0 31.5 31.5h1.2c17.4 0 31.5-14 31.5-31.5Z" fill="none" stroke="#f1f1f1" stroke-miterlimit="85.7"></path><path d="M597.4 519v-42.4c0-4.8-4-8.8-8.8-8.8H542c-4.8 0-8.8 4-8.8 8.8V519a31.5 31.5 0 0 0 31.5 31.5h1.2c17.4 0 31.5-14 31.5-31.5Z" fill="none" stroke="#f1f1f1" stroke-miterlimit="37.4" stroke-width=".6"></path><path d="M595.2 518.4V478c0-4-3.3-7.3-7.4-7.3h-45c-4 0-7.3 3.3-7.3 7.3v40.4c0 16.1 13 29.2 29.2 29.2h1.2a29.3 29.3 0 0 0 29.3-29.2Z" fill="none" stroke="#f1f1f1" stroke-miterlimit="85.7"></path><path d="M595.2 518.4V478c0-4-3.3-7.3-7.4-7.3h-45c-4 0-7.3 3.3-7.3 7.3v40.4c0 16.1 13 29.2 29.2 29.2h1.2a29.3 29.3 0 0 0 29.3-29.2Z" fill="none" stroke="#f1f1f1" stroke-miterlimit="37.4" stroke-width=".6"></path><path fill="none" stroke="#f1f1f1" stroke-miterlimit="37.4" stroke-width=".4" d="M698.2 725.9H645v-99.3h53.2v99.3z"></path><path fill="none" stroke="#f1f1f1" stroke-miterlimit="37.4" stroke-width=".4" d="M693.1 721.1h-44.4v-89.7h44.4v89.7z"></path><path d="M676.1 675.3c0-3.5 2.8-6.3 6.2-6.3 3.3 0 6 2.8 6 6.3s-2.7 6.3-6 6.3a6.2 6.2 0 0 1-6.2-6.3Z" fill="none" stroke="#f1f1f1" stroke-miterlimit="37.4" stroke-width=".4"></path><path fill="none" stroke="#f1f1f1" stroke-miterlimit="37.4" stroke-width=".4" d="M682.7 670.7h26.6v9.2h-26.6v-9.2z"></path><path fill="none" stroke="#f1f1f1" stroke-miterlimit="37.4" stroke-width=".4" d="M688.4 672.9h15.1v4.8h-15.1v-4.8zm15.1-2.4v9.6"></path><path fill="none" stroke="#f1f1f1" stroke-miterlimit="85.7" stroke-width="7.1" d="M80 259.2h162.4-16.2m36.9 0h164.2M259.6 723V258.7h-17.5V720H78.3V255.7m183 288.1h168.9v-35.5H261.3m1.8-213.6h167.1V332H261.3"></path><path fill="none" stroke="#f1f1f1" stroke-miterlimit="85.7" stroke-width="7.1" d="M241.8 332H78.3v35.5h163.5m2.4 140.8H78.3v-35.5h164.1m18.9 0h168.9v-32.6H261.3m-20.9-2.9H78.3V403h163.5m21.3 0h167.1v-35.5H263.1m-5 351.9h89.4M241.8 543.8H78.3v35.4h162.1m188.3 140.2h-84.8l83.7-31.9m-.3-108.3H259.6"></path><path fill="none" stroke="#f1f1f1" stroke-miterlimit="85.7" stroke-width="7.1" d="M342.2 719.4v-541H157.8v543.4m82.6-427.1H80m160.4 321.8H80m181.3 71 82.6 31.9m84.5-102.9H262.8M428.4 652H262.8m-18.9 0H78.3m350.1 35.5H262.8m-18.9 0H78.3"></path><path d="m729.8 552.8 26.4-10.8v21.7l-26.4-10.9Zm1384.2 1.8H743.8v-3.5H2114v3.5Zm14-1.8-27.5 11V542l27.5 10.8Z" fill="#f1f1f1" stroke-width="0"></path><path d="m1580.6 960.5-10.8-21.8h21.7l-11 21.8Zm1.8-899v878.4h-3.6V61.5h3.6Zm-1.8-20.6 10.9 21.7h-21.7l10.8-21.7Z" fill="#f1f1f1" stroke-width="0"></path><path d="M1406.8 426.7v-1l1.4-1.4c3.5-3 5-4.7 5.1-6.7 0-1.3-.7-2.5-2.7-2.5-1.2 0-2.3.6-3 1.1l-.5-1.2c1-.7 2.3-1.3 3.9-1.3 3 0 4.2 1.9 4.2 3.7 0 2.4-1.9 4.3-4.8 7l-1 .9h6.1v1.4h-8.7Z" fill="#f1f1f1" stroke-width="0"></path></g></g></g></g></g></svg>