<svg version="1.1" xmlns="http://www.w3.org/2000/svg" xmlns:xlink="http://www.w3.org/1999/xlink" viewBox="0 0 2565 1000"><g id="SELECTION_0"><path fill="none" stroke-width="0" d="M0 0h2565v1000H0z"></path></g><g id="SELECTION_1" image-rendering="optimizeQuality" shape-rendering="geometricPrecision" text-rendering="geometricPrecision"><path fill="none" stroke-width="0" d="m2524.3 958.2-2071.7.5v-25.1h-19.2l-70.8-131 64.7-15.2h25.3v-26.6h60.3V387.1h-51.4v-347h2062.8v918.1z"></path></g><g><g id="MAIN_LAYER"><g id="Layer_1-2" data-name="Layer 1" image-rendering="optimizeQuality" shape-rendering="geometricPrecision" text-rendering="geometricPrecision"><g id="_Слой_1" data-name="Слой 1"><g id="_2167845711824" data-name="2167845711824"><g stroke="#f1f1f1"><path fill="none" stroke-linecap="round" stroke-linejoin="round" stroke-width=".7" d="m668.5 393.9-9-4.6m-25.4 9.1 1-1.8 17.5-2.1 10.9 3.6 2.5.3m39.8 0 .2-.1 19.9-1.7 4-5.6 1.7-2.7m103.2 4.6 5.4 2.5m-120.9-5-8.8.6.7 2.9-10.3 3.5m28.7 212.2-1.3-1.2m-289.2 165 5.3-.4-4.2-5.8 3.1-6.2m22.2-11.2 1.6 1m-28 193 5.3.5-4.2 5.7m-1.1-171.1 3.6-2"></path><path fill="none" stroke-miterlimit="84" stroke-width="1.8" d="M1633.9 901.2h891.9m-2001.5 0h1114.8m-910.8-428h915.4m-1.9 0h884m-886.6 395V38.5m159.2 0v829.7m0 0V38.4m159.2 0v829.8m0 0V38.4m159.3 0v829.8m159.2 0V38.3m159.3 0v829.9m90.4-737.5h-890.5m890.5 171.8h-886.6v-86.2h886.6m-887.2 600H524.3m159.2-66.5v211.1m-159.2 0V749.8m318.4-18.2v229.3m-159.2 0V749.8m318.5-18.2v229.3m-159.3 0V731.6m796.3 0v229.3m-159.3 0V731.6m158.9-343.3H459.7m223.8-84.7v94.8m159.2-94.8v425.6M683.5 398.4v-94.8m318.5 0v425.6m-159.3 0V303.6M728.3 558.8h915.4m-915.4 0h900.6m16.2 171.7H728.3m0-86.2h916.8m880.7-256h-886.6v-84.7m318.4 0v425.6m159.3-425.6v425.6m-159.3 0V303.6m318.5 425.6V303.6m159.3 0v425.6m-793.6-170.4h884m-886.6 86.1v-86.1h886.6"></path><path fill="none" stroke-miterlimit="84" stroke-width="1.8" d="M2525.8 730.5h-886.6v-86.2h886.6m0 172h-886.6v-84.7m159.2 0v229.3m-159.2 0V731.6m318.4 0v229.3m-159.2 0V731.6m318.5 0v229.3m-159.3 0V731.6m477.8 0v229.3m-159.3 0V731.6M524.3 217v-86.3H1637M524.3 868.2V749.8m0-351.4V38.7m159.2 0v359.7m0 351.4v118.4m0 0V749.8m0-351.4V38.7m159.2 0v829.5m0 0V38.7m159.3 0v829.5m477.7 0V38.5m159.3 0v829.7M459.9 130.7h862.5m316.2 171.8H459.7m0-86.2h1178.9M439.1 959.6l2086.7-.5m-.6-920.9v922.7"></path><path fill="#f1f1f1" stroke-miterlimit="84" d="M461 417.8h-35.5v-378H461v378z"></path><path fill="#f1f1f1" stroke-miterlimit="84" d="M512.4 419.5h-76.3v-31.9h76.3v31.9z"></path><path fill="#f1f1f1" stroke-miterlimit="84" d="M448.5 756.7h-23V416h23v340.7z"></path><path fill="#f1f1f1" stroke-miterlimit="84" d="M452.1 742.5h-26.6v44.4h26.6v-44.4z"></path><path fill="#f1f1f1" stroke-miterlimit="84" d="M512.4 760.2h-69.2v-31.9h69.2v31.9z"></path><path fill="#f1f1f1" stroke-miterlimit="84" d="M480.5 744.3h31.9V416h-31.9v328.3zm448.9-338.9h-417v-17.8h417v17.8z"></path><path fill="#f1f1f1" stroke-miterlimit="84" d="M723.6 455.1H507.1v-17.8h216.5v17.8z"></path><path fill="#f1f1f1" stroke-miterlimit="84" d="M734.2 760.2h-19.5V403.6h19.5v356.6zm-209.4 0h-14.2v-17.7h14.2v17.7z"></path><path fill="#f1f1f1" stroke-miterlimit="84" d="M718.3 760.2h-88.8v-17.7h88.8v17.7zM93.7 907.5h-55v53.2h55v-53.2zM888.6 93.1h-53.3V39.8h53.3v53.3zm-794.9 0h-55v-55h55v55zm793.1 867.6h-51.5v-51.4h51.5v51.4zm846.4 0h-51.4v-51.4h51.4v51.4zm794.9 1.8h-53.2v-53.2h53.2v53.2zm3.6-924.4h-55v55h55v-55zm-793.2-1.8h-56.7v56.8h56.7V36.3z"></path><path fill="#f1f1f1" stroke-miterlimit="84" d="M2564.5 999.5H9.4v-39.1h2555.1v39.1zm0-959.9H.5V.5h2564v39.1z"></path><path fill="#f1f1f1" stroke-miterlimit="84" d="M.5 7.6h39v991.9H.5V7.6zm2525-7.1h39v999h-39V.5zM452.1 971.4h-26.6v-37.3h26.6v37.3zm629.9-566h-17.8V29.2h17.8v376.2z"></path><path fill="none" stroke-miterlimit="84" stroke-width="7.1" d="M79.5 259.9H242h-16.3m36.9 0h164.2M259.1 723.6V259.4h-17.4v461.3H77.8V256.4m183.1 288h168.8v-35.5H260.9m1.7-213.5h167.1v37.3H260.9"></path><path fill="none" stroke-miterlimit="84" stroke-width="7.1" d="M241.3 332.7H77.8v35.5h163.5m2.4 140.7H77.8v-35.4H242m18.9 0h168.8v-32.6H260.9m-21-2.9H77.8v-34.4h163.5m21.3 0h167.1v-35.4H262.6m-5 351.9H347M241.3 544.4H77.8v35.5h162.1m188.4 140.2h-84.9l83.7-31.9m-.3-108.3H259.1"></path><path fill="none" stroke-miterlimit="84" stroke-width="7.1" d="M341.7 720.1v-541H157.3v543.4m82.6-427.1H79.5m160.4 321.8H79.5m181.4 71 82.5 31.9M428 617.2H262.3M428 652.7H262.3m-18.9 0H77.8M428 688.2H262.3m-18.9 0H77.8m848.4-288.4 15.1 64.2 114.5-62.7m-622.6 381-76 17.9 75.3 139.2"></path><path fill="none" stroke-miterlimit="84" stroke-width="6.9" d="m633.7 750.5-15.6-59.1-95.3 58.7"></path><path d="M598.7 519.5v-64.7h-62.3v64.7A30.5 30.5 0 0 0 567 550h1.2a30.5 30.5 0 0 0 30.5-30.5Z" fill="none" stroke-miterlimit="84"></path><path d="M598.7 519.5v-64.7h-62.3v64.7A30.5 30.5 0 0 0 567 550h1.2a30.5 30.5 0 0 0 30.5-30.5Z" fill="none" stroke-miterlimit="84" stroke-width=".5"></path><path d="M599.9 520.2v-42.4c0-4.9-4-8.8-8.9-8.8h-46.5c-4.8 0-8.8 4-8.8 8.8v42.4c0 17.4 14 31.5 31.5 31.5h1.2a31.5 31.5 0 0 0 31.5-31.5Z" fill="none" stroke-miterlimit="84"></path><path d="M599.9 520.2v-42.4c0-4.9-4-8.8-8.9-8.8h-46.5c-4.8 0-8.8 4-8.8 8.8v42.4c0 17.4 14 31.5 31.5 31.5h1.2a31.5 31.5 0 0 0 31.5-31.5Z" fill="none" stroke-miterlimit="84" stroke-width=".5"></path><path d="M597.6 519.5v-40.3c0-4-3.2-7.3-7.3-7.3h-45c-4 0-7.4 3.2-7.4 7.3v40.3a29.3 29.3 0 0 0 29.3 29.3h1.2a29.3 29.3 0 0 0 29.2-29.3Z" fill="none" stroke-miterlimit="84"></path><path d="M597.6 519.5v-40.3c0-4-3.2-7.3-7.3-7.3h-45c-4 0-7.4 3.2-7.4 7.3v40.3a29.3 29.3 0 0 0 29.3 29.3h1.2a29.3 29.3 0 0 0 29.2-29.3Z" fill="none" stroke-miterlimit="84" stroke-width=".5"></path><path fill="none" stroke-miterlimit="84" stroke-width=".4" d="M697.2 725.3H644V626h53.2v99.3z"></path><path fill="none" stroke-miterlimit="84" stroke-width=".4" d="M692.1 720.5h-44.5v-89.7h44.5v89.7z"></path><path d="M675 674.7c0-3.5 2.8-6.3 6.2-6.3s6.1 2.8 6.1 6.3c0 3.4-2.8 6.2-6.1 6.2s-6.1-2.8-6.1-6.2Z" fill="none" stroke-miterlimit="84" stroke-width=".4"></path><path fill="none" stroke-miterlimit="84" stroke-width=".4" d="M681.7 670.1h26.6v9.1h-26.6v-9.1z"></path><path fill="none" stroke-miterlimit="84" stroke-width=".4" d="M687.3 672.3h15.1v4.8h-15.1v-4.8zm15.1-2.4v9.6"></path><path fill="none" stroke-dasharray="0 0 0 0 0 0 35.48093 17.74047" stroke-miterlimit="84" stroke-width="3.6" d="M1905.1 225.6H2289v548.7h-383.9z"></path><path fill="none" stroke-dasharray="0 0 0 0 0 0 35.48093 17.74047" stroke-miterlimit="84" stroke-width="3.6" d="M1950.7 272h292.6v455.9h-292.6z"></path><path fill="none" stroke-dasharray="0 0 0 0 0 0 35.48093 17.74047" stroke-miterlimit="84" stroke-width="3.6" d="m2243.4 272-292.7 228 292.7 228M1199.7 225.6h383.9v548.7h-383.9z"></path><path fill="none" stroke-dasharray="0 0 0 0 0 0 35.48093 17.74047" stroke-miterlimit="84" stroke-width="3.6" d="M1245.3 272h292.6v455.9h-292.6z"></path><path fill="none" stroke-dasharray="0 0 0 0 0 0 35.48093 17.74047" stroke-miterlimit="84" stroke-width="3.6" d="m1538 272-292.7 228L1538 728"></path><path d="M1165.7 959.4v-921m159.2 0v921" fill="none" stroke-miterlimit="84" stroke-width="1.8"></path><path fill="#f1f1f1" stroke-miterlimit="84" d="M1048.4 405.4h33.6v-17.8h-33.6v17.8z"></path></g><path d="m1856.9 39.6 10.9 21.8H1846l10.9-21.8Zm-1.8 900.2V60.2h3.5v879.6h-3.5Zm1.8 20.6-11-21.8h21.9l-11 21.8Z" fill="#f1f1f1" stroke-width="0"></path><path d="m39.5 152.4 21.9-11v21.9l-21.9-11Zm2465.3 2.4L60.2 154v-3.5l2444.6.6v3.6Zm20.7-1.8-21.9 11v-22l21.9 10.9ZM1393.6 91l7.9-2.7h3.4V118h-4V92.5l-6.3 1.9-1-3.4Zm32 11.7c3 1.5 4.6 4 4.6 7.2a8 8 0 0 1-2.8 6.4c-2 1.5-4.4 2.3-7.4 2.3s-5.5-.8-7.3-2.3a8 8 0 0 1-2.9-6.4c0-3.2 1.6-5.7 4.6-7.2a7.3 7.3 0 0 1-3.6-6.6c0-2.7.9-4.7 2.7-6.2a10 10 0 0 1 6.5-2.2c2.6 0 4.7.8 6.5 2.2a7.5 7.5 0 0 1 2.7 6.2c0 2.8-1.2 5-3.6 6.6Zm-5.6-11.2c-1.6 0-2.9.4-3.8 1.2-1 .8-1.5 2-1.5 3.5s.5 2.7 1.5 3.5 2.3 1.3 3.8 1.3 2.8-.5 3.8-1.3 1.4-2 1.4-3.5-.4-2.7-1.4-3.5c-1-.8-2.2-1.2-3.8-1.2Zm0 23.3c2 0 3.5-.4 4.6-1.3a5 5 0 0 0 1.7-3.9c0-1.6-.6-2.8-1.7-3.7s-2.7-1.4-4.6-1.4c-1.9 0-3.4.4-4.6 1.4s-1.7 2.1-1.7 3.7c0 1.7.6 3 1.7 3.9 1.2.9 2.7 1.3 4.6 1.3Zm33.7-.4a9.8 9.8 0 0 1-8.5 4.2 9.8 9.8 0 0 1-8.4-4.2c-2-2.8-3-6.6-3-11.3s1-8.3 3-11.2c2-2.8 4.8-4.2 8.4-4.2 3.7 0 6.5 1.4 8.5 4.2 2 2.9 3 6.6 3 11.2s-1 8.5-3 11.3Zm-16-11.3c0 3.8.7 6.6 2 8.6s3.1 3 5.5 3 4.3-1 5.6-3 2-4.8 2-8.6c0-3.6-.6-6.5-2-8.5-1.3-2-3.2-3-5.6-3s-4.2 1-5.5 3a16 16 0 0 0-2 8.5Zm42.9 11.3a9.8 9.8 0 0 1-8.5 4.2 9.8 9.8 0 0 1-8.5-4.2c-2-2.8-3-6.6-3-11.3s1-8.3 3-11.2c2-2.8 4.8-4.2 8.5-4.2a10 10 0 0 1 8.5 4.2c2 2.9 3 6.6 3 11.2s-1 8.5-3 11.3Zm-16-11.3c0 3.8.6 6.6 1.9 8.6s3.1 3 5.6 3 4.2-1 5.6-3 2-4.8 2-8.6c0-3.6-.7-6.5-2-8.5-1.4-2-3.2-3-5.6-3s-4.3 1-5.6 3-2 4.8-2 8.5Zm42.8 11.3c-2 2.8-4.8 4.2-8.5 4.2s-6.5-1.4-8.5-4.2c-2-2.8-3-6.6-3-11.3s1-8.3 3-11.2c2-2.8 4.8-4.2 8.5-4.2s6.5 1.4 8.5 4.2c2 2.9 3 6.6 3 11.2s-1 8.5-3 11.3Zm-16-11.3c0 3.8.6 6.6 2 8.6s3.1 3 5.5 3 4.3-1 5.6-3 2-4.8 2-8.6c0-3.6-.7-6.5-2-8.5s-3.2-3-5.6-3c-2.4 0-4.3 1-5.6 3s-2 4.8-2 8.5Zm332.2 408.4c0-3 .9-5.4 2.8-7.3 1.8-2 4.2-3 7.2-3 2.9 0 5.3 1 7.2 3a10 10 0 0 1 2.8 7.3c0 3-1 5.5-2.8 7.4a9.6 9.6 0 0 1-7.2 2.9 10 10 0 0 1-6-1.8l-14.3-9.6V506l10.3 7v-1.4Zm3.7 0c0 2 .6 3.5 1.8 4.6a5.8 5.8 0 0 0 4.5 1.8 6 6 0 0 0 6.2-6.4c0-1.9-.5-3.4-1.7-4.6-1.2-1.1-2.7-1.7-4.5-1.7s-3.4.6-4.5 1.7a6.4 6.4 0 0 0-1.8 4.6Zm6.4-32.5v-3.6h3.7v3.6h5.7v4h-5.7v15.2h-3.7l-20.4-10.7v-4.3l20.4 10.8v-11h-8.4v-4h8.4Zm9.4-25v19.2h-3.3l-10.7-10.5c-2.8-2.8-5.2-4.2-7.3-4.2-1.6 0-2.9.5-3.8 1.5a5 5 0 0 0-1.5 3.7c0 2.9 1.3 4.9 4 6.2l-2 3.3a10.3 10.3 0 0 1-3.4-16 8.5 8.5 0 0 1 6.7-2.7c3 0 6.3 1.8 9.8 5.3l7.6 7.7V454h3.9Zm-3.7-23.2c2.8 2 4.2 4.8 4.2 8.5s-1.4 6.5-4.2 8.5c-2.9 2-6.6 3-11.3 3s-8.3-1-11.2-3c-2.8-2-4.2-4.8-4.2-8.5s1.4-6.5 4.2-8.5c2.9-2 6.6-3 11.2-3s8.4 1 11.3 3Zm-11.3 16a15 15 0 0 0 8.6-2c2-1.2 3-3 3-5.5s-1-4.3-3-5.6c-2-1.3-4.9-2-8.6-2-3.6 0-6.5.7-8.5 2s-3 3.2-3 5.6 1 4.3 3 5.6c2 1.3 4.8 2 8.5 2Z" fill="#f1f1f1" stroke-width="0"></path><path id="_3" data-name="3" d="M1154.1 603h-18.3v-3.6l10.4-9.8c1.7-1.6 2.5-3.2 2.5-5 0-1-.4-1.8-1-2.4s-1.7-1-3-1c-2.3 0-4 1.3-5 3.8l-4-2.3c1.7-4 4.7-6.1 9-6.1 2.7 0 4.8.7 6.5 2.2a7.4 7.4 0 0 1 2.5 5.7c0 3-1.4 5.6-4.1 8l-6.5 6h11v4.5Zm-30.4-12.8h6v32h-5.5V599l-10.1 16.4h-.8l-10.1-16.4v23.2h-5.6v-32h6l10 16.2 10.1-16.2ZM1068 599c4.7 2.5 7 6 7 11 0 4-1.4 7.3-4.3 9.6s-6.6 3.4-11 3.4-8.2-1-11.1-3.4a11.8 11.8 0 0 1-4.3-9.7c0-4.9 2.4-8.4 7-10.9a11 11 0 0 1-5.5-9.7c0-4.1 1.3-7.2 4-9.4 2.8-2.2 6-3.3 9.8-3.3 4 0 7.2 1 9.8 3.3 2.8 2.2 4.1 5.3 4.1 9.4a11 11 0 0 1-5.5 9.7Zm-8.4-16.7c-2.3 0-4.2.6-5.7 1.8-1.5 1.3-2.2 3-2.2 5.3s.7 4 2.2 5.2c1.5 1.3 3.4 2 5.7 2s4.2-.7 5.7-2c1.5-1.2 2.2-3 2.2-5.2s-.7-4-2.1-5.3a8.7 8.7 0 0 0-5.8-1.8Zm0 35c3 0 5.2-.6 7-2 1.6-1.3 2.5-3.3 2.5-5.7s-.9-4.4-2.5-5.8c-1.8-1.3-4-2-7-2a11 11 0 0 0-6.8 2c-1.8 1.4-2.6 3.3-2.6 5.8s.8 4.4 2.6 5.7c1.7 1.4 4 2 6.8 2Zm-19.5-25.7c0 3.5-1 6.5-2.8 9h.1l-14.5 21.6h-6.7l10.6-15.6h-2.1c-4.6 0-8.3-1.3-11.2-4a14.6 14.6 0 0 1-4.3-11c0-4.4 1.5-8 4.3-10.8 2.9-2.8 6.6-4.2 11.2-4.2 4.4 0 8.1 1.4 11 4.2s4.4 6.4 4.4 10.8Zm-15.4-9.3c-2.9 0-5.1.8-7 2.6-1.7 1.6-2.6 4-2.6 6.7s1 5.1 2.7 6.9c1.8 1.7 4 2.5 6.9 2.5s5-.8 6.8-2.5 2.7-4 2.7-6.9-.9-5-2.6-6.7a9.5 9.5 0 0 0-7-2.6Z" fill="#f1f1f1" stroke-width="0"></path></g></g></g></g></g></svg>