<svg version="1.1" xmlns="http://www.w3.org/2000/svg" xmlns:xlink="http://www.w3.org/1999/xlink" viewBox="0 0 2349 999.8"><g id="SELECTION_0" image-rendering="optimizeQuality" shape-rendering="geometricPrecision" text-rendering="geometricPrecision"><path fill="none" stroke-width="0" d="M0 0h2349v999.8H0z"></path></g><g id="SELECTION_1" image-rendering="optimizeQuality" shape-rendering="geometricPrecision" text-rendering="geometricPrecision"><path fill="none" stroke-width="0" d="M2314.9 917.7H423.4v-41l70.2-110.1-70.2-20.2v-21.7H260.1V412.3h.3v-15.1H73.7V116.4h186.7V83.2h1843.3v.4h211.2v834.1z"></path></g><g><g id="MAIN_LAYER"><g id="Layer_1-2" data-name="Layer 1" image-rendering="optimizeQuality" shape-rendering="geometricPrecision" text-rendering="geometricPrecision"><g id="_Слой_1" data-name="Слой 1"><g id="_2158801500800" data-name="2158801500800"><path fill="none" stroke="#f1f1f1" stroke-linecap="round" stroke-linejoin="round" stroke-width=".6" d="m1579.7 875.1-7.5 4.6-2.8 3.8-.7 5.8-8.6 2.6-7.2 4.1m762.4 15.6-1.9-3m-47 9.2-4.5-5.8m0 0v5.4m53.4-20.8-6.7-5.3m6.7 7-10.6-7.7m-53.3 27.6 3.2-1.6 17.7-1.9 19.6 1.9 1.2 1.6"></path><path fill="none" stroke="#f1f1f1" stroke-linecap="round" stroke-linejoin="round" stroke-width=".6" d="m2270.4 901.5 5.6 5.8 8.3 5 3.1 3.9m-15.8-8.5 4 2.9 2.1 2.2-6.1.4-5.2-2.4-5.5-1.2-5.1-4.7m46 13.3-7-6.1.9-7.6-13.7-4.7-.4 4.9 5.8 2m-.6-10.6 3.7 1.8m8.3 11.5.7 3.1 4 2.4M817.4 95.8l-3.3-3.8-13.2-3.7-9.5-5.2m-5.1 2.6 8.6 3.7M415 917.3l3.7-1.5"></path><path fill="none" stroke="#f1f1f1" stroke-miterlimit="35" stroke-width="1.6" d="M1522.1 844.4h793.2m-1900.3 0h117.9m-2.9 0h996.8M473.5 462.7h1057.4M249.6 83.2v320.7m-142 0V83.2m284 320.7V83.1m1137.6 379.6h786.1M1526.8 815V82.8m142 0v732m0 .2V82.8m142 0v732m0 .2V82.8m142 0v732m142 .2V82.7m142 0v732.1m78.5-657.4h-791.9m791.9 153.1h-788.5v-76.8h788.5m-789 535H415m259.6-75.5v225m-142 0v-225m284.1 0v225m-142 0v-225m283.9 0v225m-142 0v-225m426.1-610.4v835.4m284-225v225m-142 0v-225m141.6-306.1H70M532.6 691V311.5M468.9 539h1062m1.2 153.2H473.5m0-76.9h1058.6m783.2-228.2h-788.5v-75.6m2.4 227.5h786.1m0 153.2h-788.5v-76.9h788.5m0 153.4h-788.5v-75.5m142 0v225m-142 0v-225m284 0v225m-142 0v-225m284 0v225m-142 0v-225m426 0v225m-142 0v-225m-1562.2-459v-76.8h992.3M532.6 815V83m142 0v731.8m0 .2V83m142 0v732m.1 0V83m142 0v732m425.9 0V83m142-.1v732M69.6 157.4h1174.8m281.9 153.1H69.9m-.1-76.8h1456.5m-426.2 684.5V83M415.2 751.2v150.4M2315.3 82.8h-211.6"></path><path d="m604.5 54 93.2-49 3.4 43.4 18-25.4 72 31.5" fill="none" stroke="#f1f1f1" stroke-miterlimit="80.2" stroke-width="6.3"></path><path d="m404.7 945.7-94.8 49c-1-14.4-2.2-28.8-3.4-43.3-6 8.5-12.2 17-18.3 25.4l-73-31.3" fill="none" stroke="#f1f1f1" stroke-miterlimit="80.2" stroke-width="6.4"></path><path fill="#f1f1f1" stroke="#f1f1f1" stroke-miterlimit="80.2" stroke-width=".9" d="M46.3 951.4H13.1V411.8h33.2v539.6z"></path><path fill="#f1f1f1" stroke="#f1f1f1" stroke-miterlimit="80.2" stroke-width=".9" d="M215.6 951.4H13.1v-33.2h202.5v33.2zM2348.5 82.8H788.4V49.5h1560.1v33.3zm-1746.8 0H223.5V49.5h378.2v33.3zm1743.7 868.6H407.1v-33.2h1938.3v33.2z"></path><path fill="#f1f1f1" stroke="#f1f1f1" stroke-miterlimit="80.2" stroke-width=".9" d="M2315.3 49.5h33.2v901.9h-33.2V49.5zM.5 38.4h227.8v44.4H.5V38.4z"></path><path fill="#f1f1f1" stroke="#f1f1f1" stroke-miterlimit="80.2" stroke-width=".9" d="M.5 54.3h72.7v357.5H.5V54.3z"></path><path fill="#f1f1f1" stroke="#f1f1f1" stroke-miterlimit="80.2" stroke-width=".9" d="M.5 116h259.4V82.8H.5V116z"></path><path fill="#f1f1f1" stroke="#f1f1f1" stroke-miterlimit="80.2" stroke-width=".9" d="M259.9 142.9h-14.2v-36.4h14.2v36.4zm167.8 19h-26.9V82.8h26.9v79.1z"></path><path fill="#f1f1f1" stroke="#f1f1f1" stroke-miterlimit="35" stroke-width=".3" d="M259.9 739.4h-14.2V241h14.2v498.4z"></path><path fill="#f1f1f1" stroke="#f1f1f1" stroke-miterlimit="80.2" stroke-width=".9" d="M267.8 411.8H68.5v-14.2h199.3v14.2zm167.8 0h-98.1v-14.2h98.1v14.2z"></path><path fill="#f1f1f1" stroke="#f1f1f1" stroke-miterlimit="80.2" stroke-width=".9" d="M473.5 426.1h-72.7v-28.5h72.7v28.5z"></path><path fill="#f1f1f1" stroke="#f1f1f1" stroke-miterlimit="80.2" stroke-width=".9" d="M473.5 739.4h-25.3V411.8h25.3v327.6z"></path><path fill="#f1f1f1" stroke="#f1f1f1" stroke-miterlimit="80.2" stroke-width=".9" d="M456.1 739.4h-55.3v-26.9h55.3v26.9z"></path><path fill="#f1f1f1" stroke="#f1f1f1" stroke-miterlimit="80.2" stroke-width=".9" d="M413.4 722h-12.6V422.9h12.6V722zm-11.1 17.4H248.9v-14.2h153.4v14.2z"></path><path fill="#f1f1f1" stroke="#f1f1f1" stroke-miterlimit="80.2" stroke-width=".9" d="M422.9 752h-22.1v-17.4h22.1V752zm0 166.2h-22.1V877h22.1v41.2zm-332.2 0H46.3v-44.3h44.4v44.3zm726.2 0H771v-45.9h45.9v45.9zm-598.1 33.2h-11.1v-33.2h11.1v33.2zM788.4 82.8h11.1V49.5h-11.1v33.3zm28.5 44.2h-44.3V82.8h44.3V127zm773.7 0h-44.3V82.8h44.3V127zm0 791.2h-44.3v-44.3h44.3v44.3z"></path><path fill="#f1f1f1" stroke="#f1f1f1" stroke-miterlimit="80.2" stroke-width=".9" d="M411.8 951.4h-11V915h11v36.4zm1903.5-33.2h-33.2v-74.4h33.2v74.4z"></path><path fill="#f1f1f1" stroke="#f1f1f1" stroke-miterlimit="80.2" stroke-width=".9" d="M2288.4 918.2h-49v-31.7h49v31.7zm0-835.4h-49v31.6h49V82.8zM407.1 676.1H255.2v-9.5h151.9v9.5z"></path><path d="M327.9 611.6v55h-53v-55a26 26 0 0 1 26-25.9h1a26 26 0 0 1 26 26Z" fill="none" stroke="#f1f1f1" stroke-miterlimit="80.2" stroke-width=".9"></path><path d="M327.9 611.6v55h-53v-55a26 26 0 0 1 26-25.9h1a26 26 0 0 1 26 26Z" fill="none" stroke="#f1f1f1" stroke-miterlimit="35" stroke-width=".5"></path><path d="M328.8 611v36c0 4.2-3.3 7.5-7.4 7.5h-39.5a7.5 7.5 0 0 1-7.5-7.4v-36c0-14.8 12-26.8 26.7-26.8h1c14.8 0 26.7 12 26.7 26.7Z" fill="none" stroke="#f1f1f1" stroke-miterlimit="80.2" stroke-width=".9"></path><path d="M328.8 611v36c0 4.2-3.3 7.5-7.4 7.5h-39.5a7.5 7.5 0 0 1-7.5-7.4v-36c0-14.8 12-26.8 26.7-26.8h1c14.8 0 26.7 12 26.7 26.7Z" fill="none" stroke="#f1f1f1" stroke-miterlimit="35" stroke-width=".5"></path><path d="M327 611.6V646c0 3.4-2.8 6.2-6.2 6.2h-38.3a6.2 6.2 0 0 1-6.2-6.2v-34.3a24.8 24.8 0 0 1 24.8-24.8h1a24.8 24.8 0 0 1 24.9 24.8Z" fill="none" stroke="#f1f1f1" stroke-miterlimit="80.2" stroke-width=".9"></path><path d="M327 611.6V646c0 3.4-2.8 6.2-6.2 6.2h-38.3a6.2 6.2 0 0 1-6.2-6.2v-34.3a24.8 24.8 0 0 1 24.8-24.8h1a24.8 24.8 0 0 1 24.9 24.8Z" fill="none" stroke="#f1f1f1" stroke-miterlimit="35" stroke-width=".5"></path><path fill="none" stroke="#f1f1f1" stroke-miterlimit="35" stroke-width=".3" d="M391.1 533.8h-42v-85.1h42v85.1z"></path><path fill="none" stroke="#f1f1f1" stroke-miterlimit="35" stroke-width=".3" d="M387.1 529.7H352v-76.9h35.1v76.9z"></path><path d="M373.7 490.5c0-2.8 2.1-5 4.8-5 2.6 0 4.8 2.2 4.8 5s-2.2 4.9-4.8 4.9a4.9 4.9 0 0 1-4.8-5Z" fill="none" stroke="#f1f1f1" stroke-miterlimit="35" stroke-width=".3"></path><path fill="none" stroke="#f1f1f1" stroke-miterlimit="35" stroke-width=".3" d="M378.8 486.9h21v7.2h-21v-7.2z"></path><path fill="none" stroke="#f1f1f1" stroke-miterlimit="35" stroke-width=".3" d="M383.3 488.6h11.9v3.8h-11.9v-3.8zm11.9-1.9v7.6"></path><path fill="none" stroke="#f1f1f1" stroke-miterlimit="80.2" stroke-width="6.3" d="m256 245.3 55.1-15.9-57.7-90.7m166.3 610 69 19.8-72.1 112.9"></path><path d="M230.4 768.8H77V605.6L230.4 543v225.8Z" fill="none" stroke="#f1f1f1" stroke-miterlimit="35" stroke-width="6.3"></path><path fill="none" stroke="#f1f1f1" stroke-miterlimit="80.2" stroke-width="6.3" d="M78.7 608.5h151.7m-151.7 31h151.7M77 670.5h151.6M77 701.5h151.6m-77.5 65.9V577.5M77 733.2h151.6m-79.2-155.7h79.2m1.8 31-79.3-31"></path><path d="M1150.7 483.8h3.3v41.8h-4.5v-33.5h-7.7v-2.6a10.9 10.9 0 0 0 6.3-2.1 11.3 11.3 0 0 0 2.4-3l.2-.6Z" fill="#f1f1f1" stroke-width="0"></path><path id="_1" data-name="1" d="M1172 492c-2.5 3-3.7 7.3-3.7 12.7s1.2 9.6 3.6 12.7a11 11 0 0 0 8.7 4.6c3.4 0 6.2-1.5 8.6-4.6a20 20 0 0 0 3.6-12.7 20 20 0 0 0-3.6-12.7 10.6 10.6 0 0 0-8.6-4.6c-3.4 0-6.3 1.5-8.7 4.6Zm20.3-2.9c3.3 4 5 9.1 5 15.6 0 6.4-1.7 11.6-5 15.6-3.2 4-7.2 5.9-11.7 5.9a15 15 0 0 1-11.8-6c-3.3-3.9-5-9-5-15.5s1.7-11.7 5-15.6c3.3-4 7.2-5.9 11.8-5.9s8.4 2 11.7 5.9Z" fill="#f1f1f1" stroke-width="0"></path><path id="_2" data-name="2" d="M1218.1 510.7c-4 0-7.3-1.4-10-4-2.6-2.6-4-5.8-4-9.8s1.4-7.1 4-9.8a14 14 0 0 1 10.4-3.9c4 0 7.5 1.3 10.2 4a13.6 13.6 0 0 1 3.3 14.3 18 18 0 0 1-1.4 3.3l-.8 1-12.6 19.8h-4.4l9.9-15.5c-1.2.4-2.7.6-4.6.6Zm-6.8-20.7a9.3 9.3 0 0 0-2.7 7c0 2.8 1 5 2.7 6.9a9.8 9.8 0 0 0 7.2 2.6c3 0 5.3-.9 7.1-2.6a9.4 9.4 0 0 0 2.7-7c0-2.8-.9-5.1-2.7-6.9a9.8 9.8 0 0 0-7.1-2.6c-3 0-5.4.9-7.2 2.6Z" fill="#f1f1f1" stroke-width="0"></path><path id="_3" data-name="3" fill="#f1f1f1" stroke-width="0" d="m1241.4 520.2 4.2 2.4-6.9 10.7-2.7-1.4 5.4-11.7z"></path><path id="_4" data-name="4" d="m1271 503.5.8.2 1.9 1a9.7 9.7 0 0 1 4.2 4.8c.6 1.4.8 2.8.8 4.5 0 3.2-1.3 6.1-3.8 8.5a14 14 0 0 1-10.2 3.7 20.2 20.2 0 0 1-9-2.2c-1-.6-2-1.2-2.8-1.9a11 11 0 0 1-1.7-1.5l-.5-.7 3-3 .4.6 1.3 1.2a14.1 14.1 0 0 0 9.3 3.3c3 0 5.5-.8 7.2-2.3a7.2 7.2 0 0 0 2.7-5.7c0-2.3-1-4.2-2.8-5.8s-4.1-2.3-7-2.3h-4.3v-4.2h4.2c2.5 0 4.5-.7 6-2a7.2 7.2 0 0 0 2-5.5 6 6 0 0 0-2.1-4.9 8.5 8.5 0 0 0-5.9-2 12.2 12.2 0 0 0-6 1.7l-2 1.5c-.6.5-.9.8-1.1 1.2l-.4.4-3-3.2.5-.7 1.5-1.3a16 16 0 0 1 10.5-3.7c3.7 0 6.7 1 9 3.2 2.4 2.2 3.6 4.8 3.6 7.8a9.7 9.7 0 0 1-2.3 6.4 15.8 15.8 0 0 1-3.4 2.7l-.6.2Z" fill="#f1f1f1" stroke-width="0"></path><path id="_6" data-name="6" fill="#f1f1f1" stroke-width="0" d="m1313.3 504.4-10.4 13.1-10.5-13.1v21.2h-4.2v-28.7h3.3l11.4 14.3 11.3-14.3h3.3v28.7h-4.2v-21.2z"></path><path d="M1399.7 242.5h2.3v29.3h-3.2v-23.4h-5.4v-1.9a7 7 0 0 0 2.6-.5 6.2 6.2 0 0 0 3.5-3l.2-.5Z" fill="#f1f1f1" stroke-width="0"></path><path id="_1_0" data-name="1 0" d="M1414.7 253.3c1 .9 2.3 1.4 4 1.4s3-.5 4-1.4c1-1 1.4-2 1.4-3.4s-.5-2.6-1.5-3.5c-1-.9-2.3-1.4-4-1.4s-2.9.5-3.9 1.4c-1 1-1.5 2-1.5 3.5 0 1.3.5 2.5 1.5 3.4Zm-2.1-8.8a8.6 8.6 0 0 1 6-2.4c2.4 0 4.5.8 6.1 2.4a7.1 7.1 0 0 1 2.6 5.4c0 .8-.2 1.5-.5 2.3a4 4 0 0 1-.9 1.7l-1 1.1-1 .7-.4.2.5.3c.2 0 .7.3 1.2.7l1.5 1.4c.5.5.9 1.2 1.3 2a8.4 8.4 0 0 1-2.3 9.2 9.8 9.8 0 0 1-7 2.7c-2.8 0-5.2-.9-7-2.7a8.4 8.4 0 0 1-2.3-9.1c.3-.9.8-1.6 1.2-2.1l1.5-1.4c.5-.4.9-.6 1.3-.7l.5-.3c-.1 0-.3 0-.5-.2a7 7 0 0 1-.8-.7 5.4 5.4 0 0 1-2.1-2.8 7.1 7.1 0 0 1 2.1-7.7Zm10.8 14.5a6.7 6.7 0 0 0-4.7-1.8 7 7 0 0 0-4.8 1.8 5.7 5.7 0 0 0-2 4.2c0 1.7.7 3.1 2 4.3 1.1 1.2 2.8 1.8 4.8 1.8s3.6-.6 4.8-1.8a5.7 5.7 0 0 0 0-8.5Z" fill="#f1f1f1" stroke-width="0"></path><path id="_2_1" data-name="2 1" d="M1439.2 248.3a14.2 14.2 0 0 0-2.6 8.9c0 3.8.9 6.7 2.6 8.9a7.5 7.5 0 0 0 6 3.2 7 7 0 0 0 6-3.2 14 14 0 0 0 2.6-9c0-3.7-.9-6.7-2.6-8.8a7.5 7.5 0 0 0-6-3.3c-2.3 0-4.3 1.1-6 3.3Zm14.2-2c2.4 2.7 3.5 6.4 3.5 10.9s-1.1 8.1-3.4 10.9a10.3 10.3 0 0 1-16.5 0c-2.3-2.8-3.5-6.4-3.5-11s1.2-8 3.5-10.8 5-4.2 8.2-4.2 6 1.4 8.2 4.2Z" fill="#f1f1f1" stroke-width="0"></path><path id="_3_2" data-name="3 2" d="M1467.6 248.3a14.2 14.2 0 0 0-2.6 8.9c0 3.8.9 6.7 2.6 8.9 1.7 2.1 3.7 3.2 6 3.2s4.4-1 6-3.2c1.7-2.2 2.6-5.2 2.6-9 0-3.7-.9-6.7-2.5-8.8s-3.7-3.3-6-3.3-4.4 1.1-6.1 3.3Zm14.3-2c2.3 2.7 3.4 6.4 3.4 10.9s-1.1 8.1-3.4 10.9c-2.3 2.7-5 4.1-8.3 4.1-3.2 0-5.9-1.4-8.2-4.1-2.3-2.8-3.5-6.4-3.5-11s1.2-8 3.5-10.8 5-4.2 8.2-4.2c3.2 0 6 1.4 8.3 4.2Z" fill="#f1f1f1" stroke-width="0"></path><path id="_4_3" data-name="4 3" d="M1496 248.3a14.2 14.2 0 0 0-2.5 8.9c0 3.8.8 6.7 2.5 8.9a7.5 7.5 0 0 0 6 3.2 7 7 0 0 0 6-3.2 14 14 0 0 0 2.6-9c0-3.7-.8-6.7-2.6-8.8-1.6-2.2-3.6-3.3-6-3.3s-4.3 1.1-6 3.3Zm14.3-2c2.3 2.7 3.4 6.4 3.4 10.9s-1.1 8.1-3.4 10.9c-2.3 2.7-5 4.1-8.2 4.1-3.2 0-6-1.4-8.3-4.1s-3.5-6.4-3.5-11 1.2-8 3.5-10.8c2.3-2.8 5-4.2 8.2-4.2s6 1.4 8.3 4.2Z" fill="#f1f1f1" stroke-width="0"></path><path d="M1759.1 480.4c0 2.8-1 5.2-2.8 7-1.8 2-4 2.9-6.8 2.9s-5-1-6.9-3a10 10 0 0 1-2.7-7c0-3 1-5.4 2.7-7.3a9.2 9.2 0 0 1 6.9-2.8c1 0 2.1.2 3.1.5l2.4 1 .8.6 13.8 8.8v3l-11-6.8c.4.8.5 1.8.5 3.1Zm-14.5 4.8c1.3 1.3 2.9 2 4.9 2s3.6-.7 4.8-2 1.9-2.9 1.9-5-.6-3.8-1.9-5-2.8-1.9-4.8-1.9-3.6.6-4.9 1.9-1.8 3-1.8 5 .6 3.8 1.8 5Z" fill="#f1f1f1" stroke-width="0"></path><path id="_1_4" data-name="1 4" d="M1749.5 511.8v3.7h-3v-3.7h-6.2v-3.2h6.3v-14.8h3.5l19.5 14v4h-20.1Zm0-3.2h16.5l-16.5-11.9v12Z" fill="#f1f1f1" stroke-width="0"></path><path id="_2_5" data-name="2 5" d="M1740.3 537.5v-18.9a12 12 0 0 1 9.1 4.1 75.4 75.4 0 0 1 5.5 7.6 16 16 0 0 0 2.9 2.9c1.1.8 2.3 1.1 3.6 1.1 1.7 0 3-.5 4.1-1.6 1-1.2 1.5-2.7 1.5-4.6a6 6 0 0 0-.5-2.7 4 4 0 0 0-1.2-1.8c-.5-.5-1-.8-1.5-1a5 5 0 0 0-1.3-.7l-.5-.1 1.3-2.7c.2 0 .4 0 .7.2.3 0 .8.3 1.6.8a9 9 0 0 1 2 1.6 6 6 0 0 1 1.6 2.5c.5 1.2.8 2.5.8 3.9 0 2.7-.8 5-2.5 6.8s-3.6 2.6-6 2.6a9.3 9.3 0 0 1-7-3.4 62 62 0 0 1-2.7-3.3l-2.5-3.5c-.7-1.1-1.6-2.1-2.7-3-1-1-2.2-1.7-3.4-2v15.2h-3Z" fill="#f1f1f1" stroke-width="0"></path><path id="_3_6" data-name="3 6" d="M1763.8 548.1a14 14 0 0 0-8.9-2.5 14 14 0 0 0-8.9 2.5c-2.1 1.7-3.2 3.8-3.2 6.1s1 4.4 3.2 6c2.2 1.7 5.2 2.5 9 2.5s6.7-.8 8.8-2.5a7.2 7.2 0 0 0 0-12Zm2 14.3a16.5 16.5 0 0 1-10.9 3.5c-4.5 0-8.1-1.2-10.9-3.4-2.7-2.4-4.1-5.1-4.1-8.3s1.4-6 4.1-8.2c2.8-2.4 6.4-3.5 11-3.5 4.5 0 8 1.1 10.8 3.5 2.8 2.3 4.2 5 4.2 8.2 0 3.1-1.4 6-4.2 8.2Z" fill="#f1f1f1" stroke-width="0"></path><path d="m260 282.4 19.3-9.7v19.4l-19.4-9.7Zm2037 1.6H278.3v-3.2H2297v3.2Zm18.3-1.6L2296 292v-19.4l19.3 9.7Z" fill="#f1f1f1" stroke-width="0"></path><path d="m1713.6 917.4-9.7-19.3h19.4l-9.7 19.3Zm1.6-816.3v798h-3.2V101h3.2Zm-1.6-18.3 9.7 19.3h-19.4l9.7-19.3Z" fill="#f1f1f1" stroke-width="0"></path></g></g><path d="M1321.4 496.6v-.7l1-1c2.4-2 3.4-3.2 3.4-4.5 0-.8-.4-1.7-1.8-1.7-.8 0-1.5.4-2 .8l-.4-.9c.7-.5 1.6-.8 2.7-.8 2 0 2.8 1.2 2.8 2.5 0 1.6-1.3 2.9-3.2 4.6l-.7.7h4.1v1h-5.9Z" fill="#f1f1f1" stroke-width="0"></path></g></g></g></svg>