<svg width="19" height="4" viewBox="0 0 19 4" fill="none" xmlns="http://www.w3.org/2000/svg">
    <path transform="translate(-20.3 0)" d="M1 3L10.656 1L20.312 3L29.968 1L39.624 3L49.28 1L58.936 3L68.592 1L78.248 3L87.904 1L97.56 3L107.216 1L116.872 3L126.528 1L136.184 3L145.84 1L155.496 3L165.152 1L174.808 3L184.464 1L194.12 3L203.776 1L213.432 3L223.088 1L232.744 3L242.4 1L252.056 3L261.712 1L271.368 3L281.024 1L290.68 3L300.336 1L309.992 3L319.648 1L329.076 2.95279L338.236 1L347.892 3L357.548 1L367.204 3L376.86 1L386.516 3L396.172 1L405.828 3L415.484 1L425.14 3L434.796 1L444.452 3L454.108 1L463.764 3L473.42 1L483.076 3L492.732 1L502.388 3L512.044 1L521.7 3L531.356 1L541.012 3L550.668 1L560.324 3L569.98 1" stroke="#C60000"/>
</svg>
