<svg xmlns="http://www.w3.org/2000/svg" viewBox="1.12 0.747 989.419 607.06"><g id="SELECTION" opacity="1"><path fill="#897dc6" d="m11.012 370.533 4.556 4.085 4.556 4.085-3.4 3.835-3.4 3.835-1.156-7.92-1.156-7.92z"></path><path fill="#897dc6" d="m92.556 522.127 1.348 1.212 1.347 1.211.39-.439.391-.44 2.584 2.268 2.584 2.267-.41.49-.408.49 2.318 2.003 2.318 2.003 1.81 1.57 1.812 1.57.393-.454.393-.455 2.295 2.014 2.296 2.014-.364.45-.365.449 3.412 2.956 3.412 2.956-9.55 10.637-9.55 10.636-14.32-12.726-14.32-12.726 2.624-2.871 2.624-2.871.669.62.668.62 6.8-7.727 6.8-7.727z"></path><path fill="#897dc6" d="m15.384 400.677 6.565 5.812 6.564 5.811-4.653 5.083-4.653 5.082-.38-.333-.379-.332-1.532-10.562-1.532-10.561z"></path><path fill="#897dc6" d="m29.128 411.548-6.974-6.213-6.973-6.213-.836-5.72-.836-5.72 3.443-3.912 3.443-3.912 1.946 1.655 1.947 1.655.193-.226.193-.226 6.545 5.8 6.546 5.8-.242.275-.243.275 1.836 1.653 1.835 1.654-5.912 6.688-5.911 6.687z"></path><path fill="#897dc6" d="m30.55 452.468 1.837-2.036 1.838-2.036-.387-.387-.388-.387-2.133-1.893-2.134-1.893-.89-6.26-.89-6.26 2.218-2.502 2.217-2.502 13.414 11.905 13.413 11.906-10.187 11.587-10.186 11.587-2.658-2.328-2.657-2.328-1.214-8.087-1.214-8.086z"></path><path fill="#897dc6" d="m46.741 493.472-5.95 6.661-5.95 6.662-2.327-1.989-2.327-1.99-1.989-13.77-1.988-13.77 10.265 9.098 10.266 9.098z"></path><path fill="#897dc6" d="m44.132 535.784-5.52-6.516-5.522-6.516-.775-5.39-.775-5.39 5.16-5.736 5.16-5.737.452.412.454.413 2.85-3.19 2.849-3.19 8.944 8.036 8.945 8.036L55.243 523.4l-11.11 12.384z"></path><path fill="#897dc6" d="m67.126 511.668 4.985 4.45 4.984 4.45-6.623 7.675-6.622 7.675.158.125.158.126.203.174.203.174 13.026 11.575 13.026 11.574 4.852 4.308 4.853 4.309-7.349 8.205-7.349 8.205-3.812-4.486-3.811-4.487.538-.622.54-.623-.499-.419-.498-.418-3.815-3.413-3.815-3.413-12.833-15.124-12.832-15.124 11.166-12.448 11.166-12.448z"></path><path fill="#897dc6" d="m91.382 518.146-2.763-2.476-2.763-2.476 7.315-8.239 7.315-8.239 3.8 3.347 3.8 3.347-2.51 2.887-2.512 2.887-1.081-.877-1.082-.876-4.76 5.358-4.76 5.357z"></path><path fill="#897dc6" d="m110.717 485.41 2.683 2.386 2.682 2.385-4.34 4.933-4.338 4.934.952.824.951.825-.377.39-.377.389-3.673-3.286-3.673-3.285 4.755-5.248 4.755-5.247z"></path><path fill="#897dc6" d="m123.846 470.654 3.103 2.74 3.103 2.741-4.757 5.417-4.757 5.417-.435-.396-.436-.396-1.421 1.665-1.422 1.664-2.679-2.452-2.678-2.451 6.19-6.975 6.189-6.974z"></path><path fill="#897dc6" d="m124.512 469.921 3.554-3.997 3.554-3.998-.068-.061-.068-.061 2.488-2.803 2.488-2.802 2.171 1.918 2.171 1.917-4.573 5.023-4.573 5.023 1.003.921 1.003.922-1.522 1.699-1.522 1.698-3.053-2.7-3.053-2.699z"></path><path fill="#897dc6" d="m680.555 387.147 2.615-.653 2.615-.652.787 3.42.787 3.419-7.719 1.927-7.718 1.927-.727-2.76-.726-2.76 5.197-1.327 5.196-1.326-.153-.608-.154-.607z"></path></g></svg>