<svg xmlns="http://www.w3.org/2000/svg" viewBox="1.12 0 987.877 614.568"><g id="SELECTION" opacity="1"><path fill="none" d="m944.402 320.656.699 6.283.698 6.283-4.978 1.253-4.977 1.253-1.56-6.074-1.561-6.075 5.84-1.461 5.84-1.462z"></path><path fill="none" d="m30.035 419.467-7.45-6.615-7.45-6.615-1.89-13.053-1.889-13.054-1.828-12.614L7.7 354.902l22.184 19.691 22.184 19.692-4.454 5.082-4.454 5.083-2.178-1.94-2.179-1.942-.716.829-.717.828 2.207 1.968 2.207 1.968-5.874 6.653-5.875 6.653z"></path><path fill="none" d="m29.377 420.226-7.009-6.219-7.01-6.219 1.492 10.305 1.492 10.304.274 1.856.274 1.855 5.244-5.941 5.243-5.941z"></path><path fill="none" d="m46.771 542.074-6.208-5.436-6.209-5.437-.66-.8-.662-.8-.712-4.887-.712-4.887 2.434-2.714 2.434-2.713-.377-.354-.377-.353-2-1.76-2.002-1.759-1.01-6.828-1.01-6.827-.726.07-.726.07-.414-2.877-.415-2.876 1.843-2.062 1.843-2.062 9.21 8.108 9.211 8.107 9.016 7.93 9.015 7.932-10.393 11.607-10.393 11.608z"></path><path fill="none" d="m738.961 364.252-1.402-5.532-1.403-5.531 6.148-1.597 6.149-1.596.51 1.936.51 1.936.51-.145.509-.145.91 3.627.911 3.627-6.676 1.71-6.676 1.71z"></path><path fill="none" d="m274.612 337.672 3.166-3.542 3.167-3.542 4.036 3.603 4.036 3.602-3.175 3.537-3.174 3.537-4.028-3.598-4.028-3.597z"></path><path fill="none" d="m242.42 394.146-4.3-3.852-4.3-3.853 4.04-4.505 4.039-4.505 4.31 3.829 4.31 3.829-4.05 4.528-4.049 4.53z"></path><path fill="none" d="m305.134 264.63-3.468 3.88-3.467 3.882-6.325-5.617-6.325-5.618 3.424-3.888 3.424-3.887 6.369 5.623 6.368 5.624z"></path><path fill="none" d="m260.705 239.097 3.112-3.477 3.112-3.477 8.523 7.647 8.524 7.647-3.045 3.456-3.044 3.456-8.591-7.626-8.591-7.626z"></path><path fill="none" d="m260.708 353.21 3.118-3.484 3.119-3.484 4.024 3.593 4.024 3.593-3.096 3.5-3.097 3.5-4.046-3.609-4.046-3.608z"></path><path fill="none" d="m273.945 338.416-3.168 3.54-3.168 3.541 4.02 3.59 4.022 3.59 3.165-3.534 3.165-3.534-4.018-3.596-4.018-3.597z"></path><path fill="none" d="m3.18 323.644 1.794-2.026 1.794-2.027 5.57 4.906 5.57 4.906-2.64 2.948-2.64 2.947 1.63 1.448 1.628 1.447-4.565 5.113-4.566 5.113-1.787-12.387-1.788-12.388z"></path><path fill="none" d="m7.485 318.824 4.07-4.59 4.07-4.59 5.567 4.925 5.566 4.924-4.095 4.6-4.096 4.6-5.54-4.934-5.542-4.935z"></path><path fill="none" d="m683.766 143.68 7.901-2.028 7.901-2.028 1.362 5.389 1.362 5.388-7.917 1.972-7.917 1.972-1.346-5.332-1.346-5.333z"></path><path fill="none" d="m919.216 269.256 6.156-1.535 6.157-1.535.123.47.124.47 3.255-.816 3.256-.816 1.73 15.601 1.731 15.602-7.342 1.838-7.342 1.837-3.924-15.558-3.924-15.558z"></path><path fill="none" d="m136.346 463.372 2.08 1.838 2.08 1.838-4.356 4.892-4.356 4.891.997.88.997.879-6.648 7.488-6.649 7.488-.255-.227-.255-.227-.944 1.06-.945 1.062-2.811-2.5-2.811-2.498 11.938-13.432 11.938-13.432z"></path><path fill="none" d="m927.247 301.36 7.317-1.843 7.316-1.843 1.154 10.393 1.154 10.392-6.004 1.49-6.003 1.49-2.467-10.04-2.467-10.039z"></path><path fill="none" d="m394.145 280.753 1.088 4.288 1.088 4.288-7.448 1.842-7.449 1.842-3.92-3.48-3.92-3.48 5.83-6.62 5.83-6.62 4.45 3.97 4.451 3.97z"></path><path fill="none" d="m77.414 466.434-12.072 13.538L53.27 493.51l-6.772-5.86-6.772-5.86 3.564-3.972 3.564-3.972-.832-.752-.832-.751-3.56 3.999-3.56 3.999-2.135-1.857-2.135-1.857-1.333-8.906-1.334-8.906 2.316-2.58 2.316-2.582-.408-.346-.408-.346-2.695-2.387-2.695-2.387-.73-4.909-.73-4.908 1.368 1.226 1.369 1.226.337-.374.337-.375-1.779-1.581-1.78-1.58 3.584-3.993 3.583-3.993 13.744 12.186 13.743 12.185-1.774 1.989-1.775 1.988.791.761.792.761 1.808-2.017 1.809-2.018 6.579 5.837 6.58 5.836z"></path><path fill="none" d="m59.427 560.812-6.824-8.066-6.824-8.067L57.054 532.1l11.276-12.579 7.834 6.95L84 533.42l-12.286 13.696-12.286 13.696z"></path><path fill="none" d="m291.466 421.661-5.5 1.396-5.5 1.396-1.866-1.675-1.866-1.676.414-.438.414-.438-2.164-1.94-2.164-1.94 2.747-3.075 2.747-3.076 6.369 5.733 6.37 5.733z"></path><path fill="none" d="m936.044 336.713 4.928-1.238 4.93-1.238 2.191 19.84 2.192 19.841-2.285.578-2.285.577-4.836-19.18-4.835-19.18z"></path><path d="m662.159 58.573 8.373-2.115 8.373-2.115 1.407 5.668 1.406 5.667-8.301 2.157-8.302 2.157c-.029-.048-.768-2.903-1.5-5.746s-1.456-5.673-1.456-5.673Z" fill="none"></path><path fill="none" d="m86.007 520.04 12.914-14.51 12.915-14.509 2.786 2.481 2.786 2.48-4.855 5.449-4.854 5.447.92.845.921.845-3.335 3.755-3.336 3.756-.942-.834-.942-.833-4.745 5.299-4.744 5.3-2.745-2.486-2.744-2.485z"></path><path fill="none" d="m210.151 412.93 6.726 5.926 6.725 5.925-1.84 2.059-1.841 2.058-6.634-5.993-6.635-5.994 1.75-1.99 1.75-1.99z"></path><path fill="none" d="m682.702 65.43-1.422-5.675-1.422-5.675 9.785-2.46 9.785-2.46 1.439 5.619 1.438 5.619-9.802 2.515-9.801 2.516z"></path><path fill="none" d="m702.525 61.382-4.356 1.126-4.356 1.126 1.67 6.46 1.671 6.46 4.329-1.084 4.328-1.085-1.643-6.501-1.643-6.502z"></path><path fill="none" d="m674.637 107.638 7.89-2.04 7.891-2.041 1.18 4.603 1.181 4.603-7.938 1.89-7.938 1.89-1.133-4.453-1.133-4.452z"></path><path fill="none" d="m675.165 95.498 6.165-1.587 6.166-1.587 1.284 5.149 1.283 5.148-7.837 2.018-7.837 2.018-.847-3.329-.848-3.329 1.692-.431 1.691-.432-.456-1.82-.456-1.818z"></path><path fill="none" d="m684.901 81.92 1.175 4.712 1.176 4.713-6.657 1.717-6.656 1.718.284 1.131.284 1.131-1.2.298-1.201.298-1.454-5.83-1.454-5.83 7.852-2.03 7.851-2.029z"></path><path fill="none" d="m677.171 117.495 7.927-1.88 7.927-1.879.871 3.448.872 3.447-2.566.679-2.565.678.284 1.057.285 1.057 2.553-.657 2.554-.657.395 1.708.395 1.708-7.869 2.034-7.869 2.033-1.597-6.388-1.597-6.388z"></path><path fill="none" d="m709.257 88.016-5.409 1.39-5.409 1.391.674 2.652.674 2.652-.493.136-.494.135.866 3.426.865 3.426 5.902-1.478 5.902-1.479-1.54-6.126-1.538-6.125z"></path><path fill="none" d="m680.612 131.26 7.906-2.038 7.906-2.038 1.448 5.728 1.448 5.728-7.895 2.028-7.895 2.028-1.459-5.718-1.459-5.718z"></path><path fill="none" d="m715.772 113.718 1.52 6.014 1.521 6.015-5.92 1.487-5.921 1.487-.853-3.377-.853-3.378.617-.156.617-.155-.693-2.646-.692-2.646 5.328-1.322 5.329-1.323z"></path><path fill="none" d="m719.035 126.748 1.31 5.118 1.311 5.118-5.897 1.459-5.897 1.459-1.279-5.115-1.279-5.114 5.866-1.463 5.865-1.462z"></path><path fill="none" d="m712.607 101.207 1.453 5.761 1.452 5.76-5.913 1.491-5.914 1.491-1.452-5.749-1.452-5.748 5.913-1.503 5.913-1.503z"></path><path fill="none" d="m715.735 157.259 5.173-1.33 5.174-1.328 1.96 7.702 1.96 7.702-5.844 1.508-5.844 1.508-.832-3.4-.832-3.4.651-.154.652-.154-1.109-4.327-1.11-4.327z"></path><path fill="none" d="m685.867 81.658 10.261-2.526 10.262-2.526 1.318 5.214 1.318 5.213-10.253 2.661-10.252 2.66-1.327-5.348-1.327-5.348z"></path><path fill="none" d="m686.71 155.359.024-.006.024-.006 7.847-1.986 7.846-1.986 1.377 5.275 1.377 5.276-7.911 2.003-7.912 2.004"></path><path fill="none" d="m692.32 177.41-1.335-5.248-1.336-5.248 7.906-1.989 7.906-1.988 1.326 5.247 1.326 5.247-7.897 1.99-7.896 1.989z"></path><path fill="none" d="m695.312 189.278-1.385-5.454-1.385-5.454 7.909-1.982 7.908-1.983 1.371 5.424 1.371 5.424-7.894 2.013-7.895 2.012z"></path><path fill="none" d="m695.534 190.267 7.91-2.008 7.91-2.008 1.38 5.544 1.38 5.544-7.868 2.02-7.868 2.022-1.422-5.557-1.422-5.557z"></path><path fill="none" d="m721.022 184.34 5.89-1.569 5.891-1.57 1.301 5.103 1.301 5.102-5.896 1.48-5.896 1.479-1.296-5.012-1.295-5.013z"></path><path fill="none" d="m724.06 305.178 6.148-1.57 6.148-1.57.473 1.82.473 1.821.507-.15.508-.151 1.282 4.96 1.28 4.959-6.7 1.705-6.7 1.706-1.71-6.765-1.71-6.765z"></path><path fill="none" d="m749.467 247.176-5.222 1.387-5.222 1.387 1.285 5.042 1.284 5.041-.54.146-.54.146.884 3.357.885 3.358 5.743-1.47 5.744-1.471-2.15-8.462-2.15-8.46z"></path><path fill="none" d="m757.038 277.093 1.835 7.245 1.836 7.245-5.191 1.322-5.191 1.322-.934-3.724-.934-3.723-.603.154-.602.153-.888-3.528-.889-3.53 5.78-1.467 5.78-1.469z"></path><path fill="none" d="m750.584 295.207 5.185-1.326 5.185-1.327 2.718 10.76 2.718 10.761-5.796 1.49-5.796 1.49-1.292-5.135-1.293-5.136.6-.152.601-.152-1.415-5.637-1.415-5.636z"></path><path fill="none" d="m766.654 315.065 3.167 12.538 3.168 12.539-5.24 1.342-5.24 1.341-1.906-7.483-1.906-7.483-.557.127-.558.126-1.243-5.05-1.243-5.05 5.779-1.473 5.779-1.474z"></path><path fill="none" d="m762.756 343.79 5.259-1.357 5.258-1.357 1.475 5.86 1.475 5.86-5.85 1.516-5.85 1.517-.999-4.039-.998-4.038.593-.165.593-.165-.478-1.816-.478-1.815z"></path><path fill="none" d="m776.402 353.812 2.094 8.201 2.093 8.2-5.768 1.488-5.769 1.488-2.16-8.188-2.16-8.189 5.835-1.5 5.835-1.5z"></path><path fill="none" d="m712.595 259.708 6.04-1.525 6.042-1.524 1.275 4.889 1.275 4.889.653-.159.652-.158.893 3.576.892 3.575-.545.142-.546.141.1.313.098.314-6.19 1.582-6.189 1.582-2.225-8.818-2.225-8.819z"></path><path fill="none" d="m742.458 268.038 5.78-1.486 5.78-1.487 1.393 5.521 1.393 5.52-5.808 1.49-5.808 1.49-1.365-5.524-1.365-5.524z"></path><path fill="none" d="m717.292 278.285 6.173-1.549 6.174-1.548.308 1.111.308 1.111.53-.145.529-.145.75 3.036.75 3.035-.526.144-.525.144 2.168 8.793 2.169 8.793-6.157 1.59-6.156 1.592-3.247-12.981-3.248-12.981z"></path><path fill="none" d="m727.677 319.708 6.726-1.708 6.727-1.709 1.266 5.006 1.266 5.005-6.723 1.681-6.724 1.681-1.269-4.978-1.269-4.978z"></path><path fill="none" d="m262.585 272.206 6.237 5.646 6.236 5.645-2.997 3.36-2.997 3.36-6.246-5.582-6.246-5.582 3.007-3.423 3.006-3.424z"></path><path fill="none" d="m730.496 330.653 6.65-1.68 6.652-1.682.038-.034.038-.035.907 3.585.906 3.584-.532.192-.533.191 1.657 6.544 1.656 6.544-6.158 1.59-6.159 1.591-2.56-10.195-2.562-10.195z"></path><path fill="none" d="m239.123 263.437.774-.9.774-.9-.465-.376-.466-.375 2.242-2.556 2.242-2.556 8.814 7.893 8.815 7.893-3.033 3.404-3.033 3.403-8.312-7.443-8.313-7.443-.02-.022-.019-.022z"></path><path fill="none" d="m739.2 365.215 6.685-1.68 6.685-1.68 1.59 6.265 1.59 6.264-6.68 1.746-6.681 1.747-1.595-6.331-1.594-6.33z"></path><path fill="none" d="m404.682 257.103.652.577.65.578.314-.33.313-.33 2.48 2.193 2.482 2.192-.314.346-.313.346 2.094 1.88 2.093 1.878.33-.362.33-.363 1.986 1.756 1.986 1.755-9.808 2.516-9.808 2.517-3-2.618-3.001-2.618 5.267-5.957 5.267-5.956z"></path><path fill="none" d="m409.792 190.03-7.693 8.533-7.694 8.534 4.957 4.442 4.958 4.442.303-.346.303-.346 3.226 2.868 3.227 2.868-.31.359-.308.358 3.87 3.456 3.872 3.455.397-.441.397-.44-4.752-18.871-4.753-18.87z"></path><path fill="none" d="m345.523 261.175-5.242-4.632-5.241-4.632 5.85-6.625 5.852-6.624 5.31 4.578 5.31 4.578-5.92 6.678-5.919 6.68z"></path><path fill="none" d="m381.647 221.137-5.244-4.669-5.245-4.668 2.634-2.984 2.635-2.984 5.25 4.684 5.249 4.685-2.64 2.968-2.64 2.968z"></path><path fill="none" d="m361.983 275.802-3.696-3.27-3.695-3.27 5.921-6.672 5.921-6.672 3.657 3.296 3.658 3.296-5.883 6.646-5.883 6.646z"></path><path fill="none" d="m346.24 261.834 5.92-6.687 5.92-6.688 3.795 3.388 3.795 3.389-5.907 6.664-5.907 6.665-3.808-3.365-3.808-3.366z"></path><path fill="none" d="m374.658 229.434 3.742 3.291 3.742 3.29-5.502 6.19-5.5 6.19-3.706-3.313-3.704-3.314 5.464-6.167 5.464-6.167z"></path><path fill="none" d="m393.136 208.309-2.765 3.082-2.765 3.082-5.262-4.691-5.263-4.692 2.728-3.09 2.728-3.091 5.246 4.654 5.246 4.655.054.045.053.046z"></path><path fill="none" d="m380.978 221.913-2.695 3.02-2.695 3.021-5.262-4.624-5.262-4.625 2.73-3.093 2.73-3.092 5.227 4.697 5.227 4.696z"></path><path fill="none" d="m357.782 226.912 5.008 4.386 5.007 4.387-2.406 2.697-2.406 2.697-4.994-4.463-4.994-4.464 2.392-2.62 2.393-2.62z"></path><path fill="none" d="m358.454 226.193 2.578-2.918 2.578-2.917 4.994 4.376 4.995 4.377-2.578 2.911-2.578 2.911-4.994-4.37-4.995-4.37z"></path><path d="m336.532 349.856 3.178-3.432 3.178-3.432 7.592 6.76 7.592 6.759-5.475 1.366-5.478 1.368c-.003 0-2.65-2.347-5.295-4.694l-5.291-4.695Z" fill="none"></path><path fill="none" d="m308.196 281.915 2.341 2.071 2.341 2.071-7.032 7.968-7.033 7.968-2.024-1.745-2.025-1.746 1.364-1.545 1.364-1.545-.429-.385-.428-.386 5.78-6.363 5.781-6.363z"></path><path fill="none" d="m312.762 328.741-.4.445-.4.445-3.815-3.418-3.814-3.418 3.491-3.858 3.492-3.857 7.04 6.231 7.04 6.23-3.096 3.469-3.097 3.467-3.22-2.868-3.22-2.868z"></path><path fill="none" d="m16.318 308.939 5.403-6.09 5.402-6.09 5.62 4.982 5.62 4.982-5.471 6.014-5.472 6.014-5.55-4.906-5.552-4.906z"></path><path fill="none" d="m294.085 299.256 2.029 1.732 2.03 1.731-.15.177-.149.177 6.372 5.66 6.371 5.659-3.492 3.878-3.492 3.879-8.336-7.381-8.336-7.381 3.576-4.065 3.577-4.066z"></path><path fill="none" d="m186.177 389.219-2.05 2.298-2.05 2.299-10.253-8.99-10.253-8.992 2.117-2.401 2.117-2.401 10.186 9.093 10.186 9.094z"></path><path fill="none" d="m186.935 389.878 7.072 6.27 7.071 6.269-2.055 2.32-2.055 2.32-7.076-6.282-7.076-6.28 2.06-2.309 2.06-2.308z"></path><path fill="none" d="m286.257 308.12 5.353 4.76 5.353 4.76-2.96 3.365-2.96 3.365-5.816-5.217-5.815-5.216 1.592-1.703 1.593-1.703.44.377.438.377 1.39-1.582 1.392-1.583z"></path><path fill="none" d="m265.598 329.56 3.114-3.573 3.114-3.573 4.192 3.762 4.193 3.763-3.17 3.524-3.172 3.524-4.136-3.714-4.135-3.713z"></path><path fill="none" d="m272.534 321.677 3.117-3.5 3.116-3.499 4.196 3.756 4.196 3.755-3.146 3.491-3.146 3.491-4.167-3.747-4.166-3.747z"></path><path fill="none" d="m287.876 322.839 4.01 3.586 4.009 3.587-3.117 3.513-3.118 3.513-4.021-3.613-4.022-3.613 3.13-3.486 3.129-3.487z"></path><path fill="none" d="m286.152 356.282 3.844-4.317 3.844-4.317 6.76 5.926 6.76 5.925-3.851 4.315-3.851 4.314-6.753-5.923-6.753-5.923z"></path><path fill="none" d="m285.514 357.054.593.518.592.518-.396.451-.396.452 5.766 5.12 5.765 5.122.43-.483.43-.483.357.314.358.315-3.651 4.086-3.651 4.087-6.752-5.934-6.752-5.933 3.578-4 3.578-3.999.076-.075.075-.076z"></path><path d="m327.89 403.378 7.486-1.82 7.487-1.822.992 4.193.992 4.193-8.403 2.138-8.403 2.137-.877-3.71-.877-3.71s.482-.094.962-.198.958-.22.95-.262-.085-.326-.16-.6l-.149-.539Z" fill="none"></path><path fill="none" d="m284.435 386.664 5.858-6.5 5.857-6.498.013-.014.012-.014 3.773 15.05 3.773 15.051-9.643-8.537-9.643-8.538z"></path><path fill="none" d="m307.137 408.394 6.175-1.509 6.175-1.508.167.63.167.631 2.739-.705 2.739-.704.902 3.708.902 3.71-8.895 2.25-8.895 2.25-1.088-4.377-1.088-4.376z"></path><path fill="none" d="m291.128 395.549 2.423 2.138 2.423 2.14.39-.446.389-.445 3.702 3.27 3.703 3.27 1.52 6.1 1.521 6.102-1.471.365-1.471.364-9.44-8.219-9.441-8.22 2.876-3.21 2.876-3.21z"></path><path fill="none" d="m268.746 375.648 4.41 3.924 4.41 3.923-2.81 3.184-2.811 3.183-4.54-3.804-4.54-3.805 2.94-3.302 2.94-3.303z"></path><path fill="none" d="m237.626 434.037 3.935-4.431 3.936-4.43 4.117 3.687 4.117 3.687 2.262 9.235 2.262 9.235-.636.17-.637.169-9.678-8.661-9.678-8.661z"></path><path fill="none" d="m267.715 400.318 5.142 4.612 5.143 4.613-2.758 3.072-2.757 3.072-5.164-4.576-5.164-4.576 2.78-3.108 2.778-3.11z"></path><path fill="none" d="m255.622 361.984 3.251 2.874 3.252 2.873-3.334 3.722-3.335 3.722-3.242-2.866-3.243-2.865 3.325-3.73 3.326-3.73z"></path><path fill="none" d="m254.01 415.65 3.364-3.764 3.365-3.764 9.277 8.301 9.276 8.302-5.917 1.516-5.918 1.517-6.723-6.054-6.724-6.054z"></path><path fill="none" d="m219.226 402.785 8.183 7.334 8.183 7.334-3.758 4.17-3.758 4.17-8.236-7.255-8.237-7.256 3.812-4.248 3.811-4.249z"></path><path fill="none" d="m219.853 401.994 3.165-3.518 3.164-3.518 9.01 8.075 9.008 8.076-3.173 3.494-3.174 3.495-9-8.052-9-8.052z"></path><path fill="none" d="m233.171 387.241 8.98 8.036 8.978 8.036-3.143 3.537-3.143 3.536-9.009-8.078-9.009-8.078 3.173-3.494 3.173-3.495z"></path><path fill="none" d="m253.325 416.417 6.502 5.832 6.501 5.833-6.305 1.56-6.305 1.56-3.771-3.393-3.772-3.394 3.575-3.999 3.575-4z"></path><path fill="none" d="m243.136 394.832 4.066-4.549 4.067-4.549 4.316 3.856 4.315 3.855-4.05 4.557-4.05 4.556-4.332-3.863-4.332-3.863z"></path><path fill="none" d="m273.177 337.71-3.155 3.56-3.155 3.56-4.214-3.765-4.215-3.765 3.187-3.551 3.187-3.551 4.182 3.756 4.183 3.757z"></path><path fill="none" d="m251.617 345.126 3.095-3.546 3.095-3.545 4.188 3.764 4.188 3.763-3.105 3.49-3.104 3.491-4.179-3.709-4.178-3.708z"></path><path fill="none" d="m251.864 346.675 8.126 7.236 8.127 7.237-2.646 2.932-2.646 2.932-8.143-7.21-8.142-7.21 2.662-2.958 2.662-2.959z"></path><path fill="none" d="m329.605 211.59 3.375-3.732 3.374-3.733 7.079 6.255 7.079 6.256-3.412 3.825-3.411 3.826-7.042-6.348-7.042-6.349z"></path><path fill="none" d="m322.15 219.851 3.364-3.788 3.365-3.789 7.058 6.377 7.057 6.376-3.16 3.568-3.16 3.57-.398-.36-.397-.36-.16.184-.158.185-6.706-5.982-6.706-5.981z"></path><path fill="none" d="m307.829 236.054 3.278-3.681 3.278-3.681 6.68 5.902 6.68 5.903-1.52 1.631-1.52 1.632-.26-.235-.26-.234-1.83 2.076-1.83 2.077-6.348-5.695-6.348-5.695z"></path><path fill="none" d="m300.944 243.784 3.093-3.472 3.093-3.473 6.34 5.698 6.339 5.699-1.606 1.842-1.606 1.842.221.222.222.223-1.41 1.585-1.41 1.585-6.637-5.875-6.639-5.876z"></path><path fill="none" d="m293.01 252.694 3.635-4.082 3.635-4.081 6.395 5.654 6.395 5.654-3.615 4.049-3.616 4.048-6.415-5.62-6.414-5.622z"></path><path fill="none" d="m665.273 70.984 13.194-3.41 13.193-3.41 1.698 6.495 1.698 6.494-4.78 1.17-4.78 1.17.144.576.145.576-8.42 2.177L668.947 85l-1.837-7.007-1.836-7.008z"></path><path fill="none" d="m307.219 191.69 3.323-3.72 3.323-3.718 7.4 6.533 7.4 6.533-3.374 3.715-3.374 3.716-7.35-6.53-7.348-6.53z"></path><path fill="none" d="m303.123 196.297 1.73-1.918 1.732-1.917 7.317 6.506 7.316 6.507-3.364 3.737-3.365 3.737-8.471-7.567-8.47-7.568 1.626-1.82 1.627-1.819 1.16 1.06 1.162 1.062z"></path><path fill="none" d="m289.145 207.265 3.892-4.355 3.893-4.356 8.457 7.57 8.456 7.57-3.87 4.375-3.872 4.376-8.478-7.59-8.478-7.59z"></path><path fill="none" d="m290.83 210.175 7.369 6.528 7.368 6.527-2.654 2.918-2.654 2.919-7.318-6.545-7.319-6.545 2.604-2.9 2.605-2.902z"></path><path fill="none" d="m284.963 216.752 7.294 6.536 7.294 6.535-3.159 3.592-3.158 3.592-7.292-6.534-7.293-6.534 3.157-3.594 3.157-3.593z"></path><path fill="none" d="m275.52 222.521 8.516 7.596 8.515 7.595-3.954 4.484-3.954 4.485-8.53-7.637-8.53-7.636 3.97-4.443 3.968-4.444z"></path><path fill="none" d="m290.989 268.914 2.876 2.548 2.875 2.549-.358.414-.359.415.495.396.494.395-3.759 4.13-3.759 4.128-3.309-2.93-3.309-2.93 4.057-4.557 4.056-4.558z"></path><path fill="none" d="m278.34 384.175 6.023 5.328 6.023 5.329-2.81 3.165-2.808 3.164-6.018-5.342-6.018-5.342 2.804-3.15 2.803-3.152z"></path><path fill="none" d="m277.513 365.983 6.77 5.918 6.769 5.919-3.646 4.067-3.647 4.068-.498-.408-.498-.408 1.376-1.545 1.376-1.545-1.088-1.014-1.088-1.014-1.422 1.54-1.421 1.54-5.104-4.503-5.103-4.503 3.612-4.056 3.612-4.056z"></path><path fill="none" d="m324.643 364.854-1.058-4.173-1.058-4.172 4.484-1.118 4.483-1.119 1.481-1.668 1.481-1.668 5.039 4.477 5.038 4.477-9.945 2.482-9.945 2.482z"></path><path fill="none" d="m325.397 329.038 7.12 6.305 7.122 6.305-2.485 2.694-2.485 2.694-.288-.068-.288-.067-.555.63-.555.631-1.95-1.732-1.948-1.732.356-.412.357-.413-4.92-4.35-4.92-4.35 2.719-3.068 2.72-3.067z"></path><path fill="none" d="m302.266 366.72 6.901-7.79 6.902-7.789 2.636 2.369 2.637 2.368.696 2.66.697 2.66-2.32 2.644-2.32 2.646-6.263 1.563-6.261 1.562-1.653-1.447-1.652-1.447z"></path><path fill="none" d="m301.806 338.703 6.75 5.951 6.75 5.95-3.63 4.065-3.63 4.064-6.783-5.902-6.783-5.901 3.663-4.113 3.663-4.114z"></path><path fill="none" d="m214.87 437.743 5.174-5.751 5.173-5.751 3.805 3.378 3.805 3.378-5.178 5.77-5.177 5.769-3.8-3.397-3.801-3.396z"></path><path fill="none" d="m270.493 291.95 5.88-6.59 5.878-6.589 3.325 3.006 3.324 3.005-2.343 2.574-2.343 2.574-.45-.422-.45-.421-3.56 3.953-3.56 3.954-2.85-2.522-2.85-2.522z"></path><path fill="none" d="m374.573 263.234 4.983 4.45 4.984 4.449-5.862 6.67-5.861 6.672-5.027-4.478-5.026-4.477 5.904-6.643 5.905-6.643z"></path><path fill="none" d="m232.429 334.774 5.86-6.626 5.86-6.627 2.807 2.536 2.806 2.537-5.858 6.65-5.857 6.65-2.81-2.56-2.808-2.56z"></path><path fill="none" d="m219.408 349.314 5.973-6.714 5.974-6.713 2.828 2.58 2.829 2.58-6.021 6.63-6.02 6.629-2.782-2.496-2.781-2.496z"></path><path fill="none" d="m225.876 376.053 4.037 3.482 4.037 3.48-5.837 6.498-5.837 6.497-3.99-3.527-3.988-3.528 5.789-6.45 5.79-6.452z"></path><path fill="none" d="m197.659 407.695 7.627-8.521 7.627-8.52 3.952 3.518 3.952 3.52-7.66 8.546-7.661 8.547-3.919-3.545-3.918-3.545z"></path><path fill="none" d="m730.224 170.944 1.162 4.649 1.162 4.648-5.89 1.546-5.89 1.546-1.18-4.669-1.18-4.669 5.908-1.525 5.908-1.526z"></path><path fill="none" d="m389.98 243.9 3.32 2.95 3.32 2.95-5.245 6.048-5.246 6.048-3.373-2.995-3.374-2.996 5.298-6.002 5.3-6.003z"></path><path fill="none" d="m382.861 236.673 3.435 3.04 3.435 3.04-5.544 6.247-5.544 6.249-3.432-3.048-3.433-3.047 5.542-6.24 5.541-6.241z"></path><path fill="none" d="m397.294 250.626 3.328 2.928 3.33 2.927-5.268 5.952-5.268 5.951-3.286-2.918-3.287-2.918 5.225-5.96 5.226-5.962z"></path><path fill="none" d="m259.448 158.567 1.244-1.391 1.244-1.392 12.772-1.901 12.771-1.902-7.809 8.816-7.81 8.816-6.205-5.523-6.207-5.523z"></path><path fill="none" d="m248.597 313.103-2.358 2.673-2.36 2.672-2.85-2.596-2.853-2.597-.395.437-.396.437-5.884-5.168-5.885-5.167 2.746-3.058 2.745-3.058 8.745 7.713 8.745 7.712z"></path><path fill="none" d="m63.646 255.729 5.494 4.892 5.494 4.893-5.567 6.322-5.567 6.322-5.587-4.91-5.588-4.91 5.66-6.305 5.661-6.304z"></path><path fill="none" d="m51.854 269.064 5.509 4.961 5.508 4.962-5.508 6.132-5.509 6.131-5.601-4.83-5.602-4.829 5.602-6.264 5.601-6.263z"></path><path fill="none" d="m39.98 282.382 5.622 4.897 5.622 4.898-6.077 6.941-6.077 6.942-5.587-5.022-5.587-5.02 6.042-6.819 6.043-6.817z"></path></g></svg>